<?xml version="1.0" encoding="UTF-8"?>
<svg id="Calque_1" data-name="Calque 1" xmlns="http://www.w3.org/2000/svg" viewBox="0 0 262.96 262.96">
  <defs>
    <style>
      .cls-1 {
        fill: #e94d2a;
      }
    </style>
  </defs>
  <path class="cls-1" d="M120.84,244.07c-21.03-27.4-29.53-53.82-27.38-85.17,5.67-1.32,9.91-6.38,9.91-12.45,0-7.07-5.73-12.81-12.81-12.81s-12.81,5.73-12.81,12.81c0,5.87,3.98,10.77,9.37,12.28-2.2,32.88,6.71,60.55,28.69,89.19.62.81,1.56,1.24,2.51,1.24.67,0,1.35-.21,1.92-.65,1.39-1.06,1.65-3.05.58-4.44"/>
  <path class="cls-1" d="M130.13,209.68c-1.77-.17-4.06-.5-6.48-.87,2.24-.79,4.3-1.26,6.11-1.59.77-.14,1.29-.88,1.14-1.66-.14-.77-.89-1.27-1.65-1.14-2.03.37-4.52.96-7.31,2.02.25-2.53.64-5.03,1.55-7.26.3-.73-.06-1.56-.78-1.86-.72-.29-1.56.05-1.85.78-.99,2.42-1.42,5-1.7,7.59l-2.86-4.96c-.39-.68-1.26-.92-1.94-.52s-.92,1.26-.52,1.95l3.25,5.63c-3.19-.5-6.31-.97-8.65-1.2-.8-.06-1.48.5-1.56,1.28-.07.78.5,1.48,1.28,1.55,1.73.17,3.95.48,6.29.84-1.49.97-3.02,2.06-4.57,3.39-.6.51-.67,1.41-.16,2.01.28.33.68.5,1.08.5.33,0,.65-.11.92-.34,2.42-2.07,4.75-3.6,6.97-4.8-.19,2.23-.44,4.35-1.02,6.32-.22.75.21,1.54.97,1.76.13.04.27.06.4.06.62,0,1.19-.4,1.36-1.03.32-1.09.53-2.22.7-3.36l3.17,5.49c.26.46.74.71,1.24.71.24,0,.48-.06.71-.19.68-.39.91-1.26.52-1.95l-4.23-7.32c2.72.42,5.32.8,7.33.99h.14c.72,0,1.35-.55,1.42-1.29.07-.78-.5-1.48-1.28-1.55"/>
  <path class="cls-1" d="M160.17,191.96l-6.65-.53,3.59-3.6c.56-.56.55-1.46,0-2.01-.56-.56-1.46-.55-2.01,0l-2.1,2.1c.12-.98.23-1.95.38-2.92.12-.78-.42-1.5-1.19-1.62-.76-.1-1.51.42-1.62,1.19-.18,1.24-.34,2.48-.48,3.73-1.18-1.44-2.37-2.89-3.49-4.38-.47-.63-1.36-.75-1.99-.28s-.75,1.37-.28,1.99c1.38,1.83,2.83,3.62,4.3,5.39l-7.11-.56c-.77-.07-1.47.52-1.53,1.31-.06.78.52,1.47,1.3,1.53l5.89.47-2.01,2.02c-.56.56-.55,1.46,0,2.01.28.28.64.42,1,.42s.73-.14,1.01-.42l2.4-2.41c-.06,1.64-.1,3.28-.07,4.91,0,.78.64,1.41,1.42,1.41h.02c.79,0,1.42-.66,1.41-1.44-.02-1.62,0-3.26.08-4.89.66.73,1.3,1.5,1.96,2.21.28.3.66.45,1.04.45.35,0,.7-.13.98-.39.57-.54.6-1.44.06-2.01-.37-.39-.71-.82-1.08-1.21l4.57.36h.12c.73,0,1.36-.56,1.41-1.31.06-.78-.52-1.47-1.3-1.53"/>
  <path class="cls-1" d="M142.79,57.83c-.36-.55-1.09-.7-1.64-.35l-4.23,2.73.5-3.77c.09-.65-.37-1.24-1.02-1.33-.63-.09-1.25.37-1.33,1.02l-.26,2.01c-.34-.58-.72-1.14-1.04-1.73-.32-.58-1.04-.78-1.61-.47-.57.32-.78,1.04-.47,1.61.45.82.97,1.6,1.46,2.41-1.38-.33-2.77-.65-4.14-1.03-.63-.17-1.28.19-1.46.82s.19,1.28.82,1.46c1.67.47,3.36.87,5.05,1.26l-4.53,2.92c-.55.36-.71,1.09-.35,1.64.23.35.61.54,1,.54.22,0,.45-.06.64-.19l3.73-2.41-.27,2.04c-.09.65.37,1.25,1.02,1.33.05,0,.1.01.16.01.59,0,1.1-.43,1.17-1.03l.33-2.51c.71,1,1.4,2.03,2.16,2.99.23.3.58.45.93.45.26,0,.52-.08.73-.25.52-.4.61-1.15.2-1.67-.73-.93-1.4-1.92-2.09-2.89.67.12,1.35.28,2.01.39.07,0,.13.02.2.02.57,0,1.07-.41,1.17-.99.1-.65-.33-1.26-.98-1.36-.35-.06-.7-.14-1.05-.2l2.85-1.84c.55-.35.71-1.09.35-1.64"/>
  <path class="cls-1" d="M116.76,103.21c2.59,2.39,5.12,4.66,7.32,6.41.49.39,1.08.58,1.66.58.79,0,1.57-.35,2.1-1.01.92-1.16.72-2.83-.43-3.75-1.61-1.28-3.43-2.87-5.33-4.59,2.68.18,5.36.4,8.01.67.09,0,.18.01.27.01,1.36,0,2.51-1.02,2.66-2.4.15-1.47-.92-2.78-2.39-2.93-3.29-.33-6.62-.59-9.94-.79,2.58-1.69,5.19-2.91,7.63-3.35,1.45-.27,2.41-1.66,2.14-3.11-.26-1.45-1.66-2.41-3.11-2.15-3.24.6-6.61,2.19-9.85,4.35l.43-6.94c.09-1.47-1.03-2.74-2.5-2.83-1.49-.09-2.74,1.03-2.83,2.5l-.47,7.7c-2.52-2.33-4.98-4.53-7.14-6.24-1.16-.92-2.84-.72-3.75.43-.92,1.16-.72,2.84.43,3.75,1.86,1.48,4.01,3.39,6.25,5.44-2.88-.02-5.69.01-8.37.11-1.47.05-2.62,1.29-2.57,2.77.05,1.47,1.26,2.59,2.77,2.57,2.43-.09,4.96-.13,7.56-.12-2.05,2.37-3.84,4.82-5.23,7.17-.75,1.27-.32,2.91.94,3.66.43.25.89.37,1.36.37.91,0,1.8-.47,2.3-1.32,1.26-2.13,2.87-4.33,4.71-6.45l-.63,10.31c-.09,1.47,1.03,2.74,2.5,2.83h.17c1.4,0,2.58-1.09,2.66-2.51l.69-11.17-.02.03Z"/>
  <path class="cls-1" d="M139.17,132.35c-2.31-.73-4.63-1.21-6.94-1.53l3.09-3.1c.69-.7.69-1.82,0-2.51-.7-.69-1.82-.69-2.51,0l-2.15,2.16c.12-1,.24-2,.39-2.99.15-.97-.52-1.88-1.49-2.03-.98-.15-1.88.52-2.03,1.5-.2,1.33-.37,2.67-.52,4.01-1.3-1.59-2.6-3.18-3.84-4.82-.59-.78-1.71-.94-2.49-.35-.78.59-.94,1.71-.35,2.49,1.3,1.73,2.68,3.41,4.06,5.09-2.6,0-5.11.12-7.47.29-.98.07-1.72.92-1.65,1.9s.99,1.74,1.9,1.65c2.23-.16,4.6-.28,7.05-.28l-2.92,2.93c-.69.7-.69,1.82,0,2.52.35.34.8.52,1.25.52s.91-.17,1.26-.52l2.54-2.54c-.06,1.78-.09,3.57-.07,5.35.01.97.81,1.76,1.78,1.76h.02c.98,0,1.77-.82,1.76-1.8-.02-1.77,0-3.55.07-5.33.69.76,1.36,1.57,2.06,2.32.35.37.82.56,1.3.56.44,0,.87-.16,1.22-.48.72-.67.75-1.8.07-2.51-.64-.68-1.25-1.42-1.88-2.12,1.81.29,3.62.71,5.42,1.28.18.06.36.08.54.08.75,0,1.46-.48,1.7-1.24.3-.94-.23-1.94-1.16-2.23"/>
  <path class="cls-1" d="M50.07,100.67c-1.47-.32-4.44-.99-7.99-1.84,1.82-1.02,3.79-2,5.93-2.96.9-.4,1.3-1.45.9-2.35-.4-.9-1.46-1.3-2.35-.9-2.67,1.19-5.08,2.44-7.28,3.73.06-2.66.27-5.34.77-7.94.19-.97-.45-1.9-1.41-2.09-1-.19-1.9.45-2.09,1.41-.43,2.24-.66,4.51-.77,6.76-1.21-1.7-2.48-3.56-3.85-5.66-.54-.82-1.64-1.05-2.47-.51-.82.54-1.05,1.64-.51,2.46,1.36,2.08,2.63,3.93,3.84,5.64-2.45-.67-4.86-1.38-7.01-2.09-.92-.3-1.94.2-2.25,1.13s.2,1.94,1.13,2.25c2.67.88,5.72,1.76,8.77,2.58-2.5,1.97-4.6,4.06-6.27,6.29-.59.78-.43,1.9.36,2.49.32.24.69.35,1.06.35.54,0,1.08-.24,1.43-.71,1.52-2.03,3.46-3.95,5.79-5.76.05,1.16.1,2.3.16,3.41s.11,2.19.16,3.25c.04.96.83,1.71,1.77,1.71h.08c.98-.04,1.74-.87,1.7-1.85-.04-1.07-.1-2.17-.16-3.29-.02-.35-.04-.7-.06-1.06,1.58,1.9,3.21,3.79,4.98,5.82.35.4.84.61,1.34.61.42,0,.83-.14,1.17-.44.74-.64.81-1.77.17-2.51-1.92-2.2-3.63-4.17-5.28-6.17,3.32.8,6.05,1.41,7.46,1.71.13.03.25.04.38.04.82,0,1.55-.57,1.73-1.4.21-.96-.4-1.91-1.36-2.12"/>
  <path class="cls-1" d="M17.5,149.25c-1.2-.1-2.29-.27-3.34-.46l2.5-2.51c.46-.47.46-1.22,0-1.68-.46-.46-1.21-.46-1.68,0l-1.43,1.43c.08-.67.12-1.34.22-2.01.1-.65-.35-1.25-1-1.35-.64-.1-1.25.35-1.35,1-.14.92-.2,1.86-.3,2.79-.9-1.1-1.8-2.2-2.66-3.33-.4-.53-1.14-.63-1.66-.23-.52.39-.63,1.14-.23,1.66.89,1.18,1.83,2.32,2.77,3.47-1.57-.15-3.23-.16-5.19.18-.65.12-1.08.73-.97,1.37.11.65.74,1.07,1.37.97,1.74-.31,3.21-.3,4.65-.15l-1.97,1.98c-.46.47-.46,1.22,0,1.68.23.23.53.35.84.35s.61-.12.84-.35l1.79-1.79c-.04,1.23-.12,2.47-.1,3.69.01.65.54,1.17,1.19,1.17h.01c.66,0,1.18-.55,1.17-1.2-.02-1.19.06-2.38.1-3.57.46.51.9,1.04,1.36,1.53.23.25.55.37.86.37.29,0,.58-.11.81-.32.48-.45.5-1.2.05-1.68-.27-.29-.52-.6-.79-.89.63.09,1.26.18,1.95.23h.1c.61,0,1.13-.47,1.18-1.09.05-.65-.43-1.22-1.09-1.28"/>
  <path class="cls-1" d="M23.29,128.9c-2.02.14-4.04.37-6.06.64,1.46-1.77,3.26-3.42,5.38-4.84.54-.37.69-1.1.32-1.65s-1.1-.69-1.64-.32c-1.93,1.29-3.64,2.77-5.08,4.35-.34-1.91-.61-3.81-.86-5.58l-.05-.38c-.09-.65-.72-1.11-1.34-1.01-.65.09-1.1.69-1.01,1.34l.05.38c.27,1.92.57,3.98.95,6.06l-2.96-1.88c-.55-.35-1.29-.18-1.64.37s-.19,1.29.37,1.64l3.41,2.16c-1.82.32-3.63.67-5.42,1.1-.64.15-1.03.79-.88,1.43.13.55.62.91,1.15.91.09,0,.18,0,.27-.03,1.4-.33,2.81-.62,4.22-.89-.46,1.01-.84,2.04-1.08,3.07-.15.64.25,1.28.89,1.43.09.02.18.03.27.03.54,0,1.03-.37,1.16-.92.28-1.18.74-2.36,1.35-3.51.78,2.84,1.83,5.51,3.35,7.61.23.32.59.49.96.49.24,0,.49-.07.7-.23.53-.38.65-1.13.26-1.66-1.2-1.65-2.08-3.74-2.77-6.02l4.09,2.59c.2.12.42.18.64.18.39,0,.78-.2,1-.55.35-.55.19-1.29-.37-1.64l-3.11-1.97c1.22-.13,2.43-.24,3.65-.33.65-.05,1.15-.61,1.1-1.27-.05-.65-.64-1.13-1.27-1.1"/>
  <path class="cls-1" d="M101.91,71.86c-2.45-.43-5.07-.58-7.77-.54,1.82-1.41,3.81-2.87,6.02-4.4.64-.45.81-1.33.36-1.98-.45-.64-1.33-.81-1.98-.36-2.66,1.84-5.01,3.57-7.1,5.23-.1-3.26-.11-6.36.05-8.73.06-.78-.54-1.46-1.32-1.52-.75-.05-1.47.53-1.52,1.32-.17,2.41-.16,5.51-.07,8.77-1.35-1.17-2.47-2.48-3.15-4.03-.31-.72-1.14-1.05-1.87-.74-.72.31-1.06,1.15-.74,1.87.86,2,2.26,3.63,3.87,5.04-1.71.18-3.42.39-5.12.61-.78.1-1.33.82-1.23,1.6.1.72.71,1.24,1.41,1.24.06,0,.13,0,.19-.01,1.28-.17,2.57-.32,3.86-.47-1.29,1.28-2.38,2.49-3.21,3.61-.47.63-.33,1.52.3,1.99.26.19.55.28.85.28.44,0,.86-.2,1.14-.58.95-1.29,2.29-2.73,3.96-4.28.17,3.08.36,6.02.52,8.38l.06.81c.05.75.68,1.33,1.42,1.33h.1c.78-.05,1.38-.73,1.32-1.52l-.05-.81c-.16-2.42-.37-5.46-.53-8.62.26.17.53.34.79.5,2.28,1.42,4.43,2.76,5.82,4.32.28.31.67.48,1.06.48.34,0,.67-.12.95-.36.59-.52.64-1.42.11-2.01-1.38-1.55-3.24-2.82-5.24-4.08,2.18.01,4.29.15,6.24.5.76.14,1.51-.38,1.65-1.16.14-.77-.38-1.51-1.15-1.65"/>
  <path class="cls-1" d="M75.55,79.54c-.59-.78-1.71-.94-2.49-.35l-6.29,4.76.12-6.39c.02-.98-.76-1.79-1.74-1.81-.99.01-1.79.76-1.81,1.74l-.06,3.33c-.69-.97-1.38-1.95-2.04-2.94-.54-.81-1.65-1.04-2.47-.49-.82.54-1.04,1.65-.49,2.47.86,1.29,1.75,2.56,2.66,3.82-2.18-.42-4.35-.87-6.52-1.37-.94-.23-1.91.37-2.13,1.33-.22.95.37,1.91,1.33,2.14,2.81.65,5.63,1.22,8.45,1.74l-6.7,5.07c-.78.59-.94,1.71-.34,2.49.35.46.88.71,1.42.71.37,0,.75-.12,1.07-.36l5.57-4.22-.11,5.73c-.02.98.76,1.79,1.74,1.81h.04c.97,0,1.76-.77,1.78-1.74l.12-5.97c1.3,1.55,2.62,3.09,3.98,4.58.35.39.83.58,1.31.58.43,0,.86-.15,1.2-.47.72-.66.78-1.79.11-2.51-1.35-1.47-2.65-2.99-3.93-4.53,1.09.15,2.18.31,3.26.44.07,0,.14.01.21.01.89,0,1.66-.66,1.76-1.57.12-.97-.58-1.86-1.55-1.98-.71-.09-1.42-.19-2.14-.29l4.34-3.29c.78-.59.94-1.71.35-2.49"/>
  <path class="cls-1" d="M179.83,98.2c-2.49-.73-4.96-1.55-7.42-2.4,1.32-.5,2.63-1.01,3.92-1.53.91-.37,1.35-1.41.98-2.32-.37-.91-1.42-1.35-2.32-.98-1.02.41-2.09.77-3.12,1.17l2.45-6.13c.37-.91-.08-1.95-.99-2.31s-1.95.08-2.31.99l-3.45,8.62-4.39-6.88c-.53-.83-1.63-1.07-2.45-.54-.83.53-1.07,1.63-.54,2.46l2.36,3.7c-1.55-.65-3.1-1.31-4.62-2-.89-.4-1.95-.01-2.36.88s0,1.95.88,2.36c1.83.83,3.68,1.63,5.54,2.4-2.56.84-5.12,1.69-7.72,2.45-.94.27-1.49,1.26-1.22,2.2.22.78.94,1.29,1.71,1.29.16,0,.33-.02.49-.07,3.48-1,6.93-2.1,10.32-3.27l-3.66,9.16c-.37.91.08,1.95.99,2.31.21.09.44.13.66.13.71,0,1.37-.42,1.65-1.12l3.08-7.69,2.68,4.2c.34.53.91.82,1.5.82.33,0,.66-.09.95-.28.83-.53,1.07-1.63.54-2.46l-2.66-4.17c2.49.86,4.99,1.68,7.5,2.42.17.05.34.07.5.07.77,0,1.48-.5,1.71-1.28.28-.94-.26-1.93-1.21-2.21"/>
  <path class="cls-1" d="M198.02,52.99l-9.93,4.47,2.56-6.65c.47-1.22-.13-2.59-1.36-3.07-1.23-.47-2.6.13-3.07,1.36l-1.9,4.91c-1.59-3.73-2.97-7.2-3.79-9.64-.42-1.24-1.76-1.91-3-1.49s-1.91,1.76-1.49,3c.92,2.74,2.46,6.6,4.23,10.71-2.86-.91-5.71-1.86-8.51-2.89-1.23-.45-2.59.18-3.04,1.42-.45,1.23.18,2.59,1.41,3.04,3.08,1.12,6.21,2.17,9.35,3.16l-10.68,4.81c-1.19.54-1.73,1.94-1.19,3.14.4.88,1.26,1.4,2.17,1.4.32,0,.65-.07.97-.21l8.74-3.94-1.3,3.36c-.47,1.22.14,2.6,1.36,3.07.28.11.57.16.85.16.95,0,1.85-.58,2.21-1.52l2.03-5.26c1.68,3.55,3.29,6.76,4.56,8.99.43.77,1.24,1.2,2.06,1.2.4,0,.8-.1,1.17-.31,1.14-.65,1.54-2.1.89-3.24-1.23-2.17-2.83-5.36-4.5-8.9,1.62.44,3.23.87,4.85,1.26.19.05.38.07.57.07,1.06,0,2.04-.72,2.3-1.81.31-1.27-.47-2.56-1.74-2.87-.52-.13-1.04-.28-1.57-.41l6.7-3.02c1.19-.54,1.73-1.94,1.19-3.14-.54-1.19-1.94-1.73-3.14-1.19"/>
  <path class="cls-1" d="M251.55,77.23c-3.06-.18-6.11-.48-9.16-.84,1.63-1.22,3.24-2.45,4.82-3.7.62-.49.72-1.38.23-2s-1.39-.72-2-.23c-1.88,1.49-3.82,2.96-5.78,4.4.45-3.54,1.37-6.84,3.35-9.72.45-.65.28-1.53-.36-1.98-.65-.45-1.54-.28-1.98.36-2.09,3.04-3.16,6.45-3.7,10.01l-4.48-4.99c-.53-.59-1.43-.64-2.01-.11-.59.53-.64,1.43-.11,2.01l4.34,4.84c-2.18-.38-4.35-.79-6.51-1.26-.78-.17-1.53.31-1.7,1.08-.17.77.32,1.53,1.09,1.69,2.45.54,4.92.99,7.4,1.41-2.79,1.95-5.63,3.85-8.52,5.67-.67.42-.86,1.3-.45,1.96.27.43.73.66,1.21.66.26,0,.52-.07.76-.22,2.86-1.8,5.67-3.68,8.44-5.61-.03,1.36-.04,2.73-.04,4.09,0,2.33,0,4.74-.15,7.04-.05.78.55,1.46,1.33,1.51h.09c.75,0,1.37-.58,1.42-1.33.15-2.38.15-4.83.15-7.2,0-1.49,0-2.95.05-4.4l5.31,5.92c.28.31.67.47,1.06.47.34,0,.68-.12.95-.36.59-.53.64-1.43.11-2.01l-4.64-5.18c3.1.37,6.21.68,9.32.86h.09c.75,0,1.38-.59,1.42-1.34.05-.78-.56-1.46-1.34-1.5"/>
  <path class="cls-1" d="M257.36,24.89c-1.66-.13-3.46-.18-5.27-.22.75-.81,1.48-1.61,2.17-2.38,1.25-1.39,2.33-2.59,3.14-3.35.48-.45.5-1.2.05-1.68s-1.2-.5-1.68-.05c-.88.83-1.99,2.06-3.27,3.48-.51.57-1.07,1.18-1.63,1.8.18-2.19.42-4.29.69-5.97.1-.65-.34-1.25-.99-1.36-.64-.11-1.25.34-1.36.99-.26,1.63-.49,3.65-.67,5.77-1.05-1.21-2.11-2.42-3.11-3.66-.41-.51-1.16-.59-1.67-.18s-.59,1.16-.18,1.67c1.31,1.62,2.67,3.21,4.05,4.76-2.41-.11-4.68-.32-6.32-.83-.64-.2-1.29.15-1.49.78-.2.62.15,1.29.78,1.48,1.65.51,3.74.75,5.97.88-1.24,1.1-2.42,1.98-3.42,2.37-.61.24-.91.93-.67,1.54.18.47.63.75,1.1.75.15,0,.29-.03.43-.08,1.28-.5,2.69-1.54,4.13-2.81-.03,1.13-.05,2.2-.03,3.14,0,.65.54,1.17,1.19,1.17h.02c.66,0,1.18-.55,1.17-1.21-.02-1.19,0-2.59.07-4.08.61.64,1.21,1.31,1.84,1.93.23.23.53.35.84.35s.61-.12.84-.35c.46-.46.46-1.21,0-1.68-.26-.26-.5-.54-.76-.81,1.33.04,2.65.08,3.89.18h.09c.61,0,1.13-.47,1.18-1.1.05-.65-.44-1.22-1.09-1.27"/>
  <path class="cls-1" d="M215.95,89.47l-4.09,2.94.31-3.79c.05-.65-.43-1.22-1.09-1.28-.64-.04-1.22.43-1.28,1.09l-.16,2.02c-.37-.56-.78-1.1-1.13-1.67-.34-.56-1.08-.73-1.63-.38-.56.34-.73,1.07-.39,1.63.49.8,1.05,1.55,1.57,2.33-1.4-.26-2.79-.51-4.18-.82-.64-.14-1.27.26-1.42.9-.14.64.26,1.27.9,1.42,1.7.38,3.4.7,5.1,1l-4.38,3.15c-.53.38-.65,1.12-.27,1.65.23.32.6.5.96.5.24,0,.49-.07.69-.23l3.6-2.59-.17,2.05c-.05.65.43,1.22,1.09,1.28h.1c.61,0,1.13-.47,1.18-1.09l.2-2.52c.76.97,1.5,1.96,2.31,2.88.23.27.56.41.89.41.28,0,.55-.1.78-.29.5-.43.54-1.18.12-1.67-.78-.89-1.49-1.85-2.23-2.78.67.09,1.36.21,2.03.29h.14c.6,0,1.11-.45,1.18-1.05.07-.65-.39-1.24-1.05-1.31-.36-.04-.71-.11-1.07-.15l2.75-1.98c.53-.38.65-1.13.27-1.66-.39-.53-1.13-.65-1.66-.27"/>
  <path class="cls-1" d="M175.38,148.54l-3.59-.72c-1.59-.32-3.44-.69-5.43-1.08,2.11-1.16,4.09-2.3,5.74-3.39,1.23-.81,1.57-2.47.75-3.7-.81-1.23-2.47-1.57-3.7-.75-2.32,1.53-5.45,3.24-8.68,4.95.98-8.17,1.63-16.07,1.23-18.93-.2-1.46-1.57-2.48-3.01-2.28-1.46.2-2.48,1.55-2.28,3.01.3,2.15-.19,8.53-1,15.55-2.91-3.65-5.34-7.35-6.29-10.55-.42-1.41-1.9-2.21-3.32-1.8-1.41.42-2.22,1.91-1.8,3.32,1.08,3.6,3.44,7.44,6.31,11.19-3.32-.75-6.15-1.44-7.84-1.98-1.41-.45-2.9.34-3.35,1.74-.44,1.41.34,2.91,1.74,3.35,2.11.67,5.8,1.55,10.01,2.48-1.75.98-3.4,1.94-4.79,2.86-1.23.81-1.57,2.47-.75,3.7.51.78,1.36,1.2,2.23,1.2.5,0,1.02-.15,1.47-.44,1.35-.89,3-1.85,4.76-2.83-.7,4.58-1.41,8.45-1.96,10.37-.41,1.42.41,2.9,1.82,3.31.25.07.5.11.74.11,1.16,0,2.23-.76,2.56-1.93.6-2.09,1.41-6.56,2.2-11.8.95,1,1.88,1.97,2.76,2.88,2.11,2.19,3.93,4.08,4.96,5.36.53.65,1.3,1,2.08,1,.59,0,1.18-.19,1.67-.59,1.15-.92,1.33-2.61.4-3.75-1.17-1.46-3.07-3.43-5.27-5.71-.24-.25-.49-.51-.74-.77,2.09.42,4.04.81,5.7,1.14l3.57.71c.18.04.36.06.53.06,1.24,0,2.36-.87,2.61-2.14.29-1.44-.64-2.85-2.09-3.15"/>
  <path class="cls-1" d="M136.34,180.01c-2.54-1.65-5.63-3.78-8.89-6.08,2.6-.47,5.24-1,7.9-1.65,1.43-.34,2.31-1.79,1.96-3.22-.35-1.43-1.8-2.32-3.22-1.97-2.59.63-5.17,1.14-7.73,1.61,2.57-4.43,4.71-8.62,5.92-11.71.6-1.53-.16-3.25-1.68-3.84-1.52-.6-3.25.15-3.84,1.68-1.18,3.02-3.34,7.2-5.93,11.61-.75-3.1-1.46-6.22-2.07-9.33-.28-1.45-1.69-2.39-3.13-2.1-1.45.28-2.39,1.69-2.1,3.13.44,2.22.93,4.43,1.43,6.65-2.77-2.09-5.35-4.1-7.49-5.83-1.27-1.03-3.14-.84-4.17.43-1.03,1.27-.83,3.14.44,4.17,2.65,2.14,5.97,4.7,9.48,7.33-3.18.55-6.41,1.16-9.69,1.96-1.43.35-2.31,1.79-1.97,3.22.3,1.22,1.39,2.04,2.59,2.04.21,0,.42-.03.63-.08,3.33-.81,6.65-1.43,9.93-1.99-2.88,4.17-5.79,7.9-8.21,10.29-1.16,1.15-1.18,3.03-.03,4.19.58.59,1.35.88,2.11.88s1.51-.28,2.08-.85c2.52-2.49,5.46-6.21,8.37-10.37.89,2.96,1.82,5.89,2.83,8.81.38,1.11,1.41,1.8,2.52,1.8.29,0,.58-.05.87-.15,1.39-.48,2.14-2,1.65-3.39-.95-2.77-1.84-5.57-2.69-8.38,3.26,2.3,6.35,4.43,8.9,6.08.5.32,1.06.48,1.61.48.97,0,1.92-.48,2.49-1.35.89-1.37.5-3.21-.87-4.1"/>
  <path class="cls-1" d="M94.41,109.93c-.03-1.47-1.32-2.63-2.72-2.62-3.18.06-6.88,1.13-10.67,2.67,1.33-4.28,2.72-8.21,3.67-9.2,1.02-1.06.99-2.75-.07-3.78-1.07-1.02-2.75-.99-3.77.07-1.71,1.77-3.24,5.81-5.14,12.04-.6-.94-1.19-1.87-1.76-2.77-1.25-1.96-2.41-3.76-3.34-5.31-.76-1.27-2.4-1.67-3.66-.91-1.26.76-1.67,2.4-.92,3.66.95,1.58,2.14,3.44,3.42,5.44.05.09.11.18.16.26-2.91-.85-5.62-1.65-7.44-2.4-1.36-.55-2.92.09-3.49,1.45-.56,1.36.09,2.92,1.45,3.49,2.21.91,5.18,1.77,8.61,2.78.53.15,1.09.32,1.64.48-2.83,1.6-5.45,3.2-7.64,4.54,0,0-1.62,1.14,0,3.49,1.16,1.68,2.78,1.07,2.78,1.07,1.92-1.17,4.31-2.63,6.92-4.12-1,3.38-1.98,6.55-2.87,8.76-.55,1.37.11,2.92,1.48,3.47.33.13.67.19,1,.19,1.06,0,2.06-.63,2.48-1.67.91-2.26,1.85-5.24,2.83-8.52,1.09,2.16,1.97,4.19,2.43,5.92.31,1.2,1.4,1.99,2.58,1.99.22,0,.45-.03.68-.09,1.43-.37,2.28-1.84,1.9-3.26-.63-2.39-1.85-5.13-3.35-7.98,2.87,1.21,5.36,2.57,6.91,4.13.52.53,1.21.79,1.9.79s1.36-.26,1.88-.77c1.05-1.04,1.05-2.73.02-3.77-1.96-1.98-4.82-3.61-8.02-5.01,2.76-1.05,5.37-1.75,7.52-1.79,1.47-.03,2.64-1.24,2.62-2.72"/>
  <path class="cls-1" d="M61.24,200.45c-1.95.18-4.47.02-7.15-.28,1.63-.84,3.19-1.61,4.63-2.28.89-.42,1.28-1.47.86-2.37-.41-.89-1.47-1.28-2.36-.86-1.4.65-2.92,1.4-4.5,2.21.49-1.04.99-2.06,1.47-3.02.52-1.04,1.02-2.02,1.44-2.94.41-.89.02-1.95-.88-2.36s-1.95-.02-2.36.87-.88,1.83-1.38,2.83c-.73,1.46-1.53,3.06-2.28,4.78l-3.43-6.56c-.46-.87-1.53-1.21-2.4-.75-.87.45-1.21,1.53-.75,2.4l3.55,6.8c-.7-.12-1.38-.24-2.04-.36-2.05-.36-3.89-.68-5.33-.87-.97-.13-1.87.55-2.01,1.52-.13.97.55,1.87,1.52,2,1.4.19,3.2.5,5.2.86.04,0,.09.02.14.02-2.17,1.27-4.25,2.53-6.07,3.72-.83.53-1.06,1.64-.52,2.46.34.53.91.81,1.49.81.33,0,.67-.09.97-.29,2.16-1.4,4.69-2.93,7.3-4.43-.64,3.22-.75,6.72.17,10.47.2.81.93,1.36,1.73,1.36.14,0,.28-.02.43-.05.95-.23,1.54-1.2,1.3-2.15-.64-2.64-.66-5.14-.34-7.52l3.8,7.26c.32.61.94.95,1.58.95.28,0,.56-.07.82-.2.87-.45,1.21-1.53.75-2.4l-4.48-8.57c2.55.33,5.04.56,7.23.56.78,0,1.52-.03,2.22-.09.98-.09,1.7-.95,1.61-1.93s-.96-1.7-1.93-1.61"/>
  <path class="cls-1" d="M84.24,215.14c-1.47-.55-3.51-1.53-5.68-2.61,2.11-.92,4.11-1.72,5.74-2.18.76-.21,1.2-1,.98-1.76-.21-.76-1-1.2-1.76-.98-1.64.46-3.58,1.22-5.62,2.1,1.08-1.92,2.26-3.44,3.45-4.19.67-.42.87-1.3.45-1.96-.42-.66-1.29-.86-1.96-.45-1.57.99-3.01,2.76-4.27,4.93l-1.8-4.98c-.27-.74-1.08-1.13-1.82-.86s-1.12,1.08-.86,1.82l2.09,5.8c-2.45-1.23-4.79-2.36-6.5-3-.73-.27-1.55.1-1.83.83s.1,1.56.83,1.83c1.62.61,3.92,1.73,6.33,2.94-.97.47-1.93.94-2.84,1.38-1.35.66-2.59,1.27-3.67,1.77-.71.33-1.02,1.18-.69,1.89.24.52.76.82,1.29.82.21,0,.41-.04.61-.13,1.08-.51,2.35-1.13,3.71-1.79.64-.31,1.31-.64,1.98-.97-1.04,3.32-1.66,6.64-1.7,9.13-.01.79.62,1.43,1.41,1.44h.02c.78,0,1.41-.62,1.42-1.41.04-2.49.71-5.73,1.75-8.85l2.16,5.98c.21.58.75.94,1.34.94.16,0,.32-.03.48-.09.74-.27,1.12-1.08.86-1.82l-1.85-5.14c1.86.91,3.6,1.73,4.94,2.23.17.06.34.09.5.09.58,0,1.12-.35,1.33-.92.28-.73-.1-1.56-.83-1.83"/>
  <path class="cls-1" d="M36.26,186.1c-1.16-2.57-2.78-5.24-4.49-8.07-.17-.28-.34-.56-.5-.84,2.8.94,5.6,1.93,8.4,2.92.19.07.38.1.57.1.72,0,1.37-.47,1.63-1.21.32-.93-.23-1.97-1.16-2.29-3.16-1.11-6.36-2.24-9.55-3.3l6.7-4.69c.81-.56,1-1.67.44-2.48-.56-.8-1.67-1-2.48-.43l-5.61,3.92c.82-2.25,1.79-4.46,3.02-6.57.5-.85.21-1.94-.64-2.43-.85-.5-1.94-.21-2.44.64-1.41,2.42-2.52,4.97-3.43,7.56-1.4-3.01-2.48-6.11-2.81-9.26-.1-.98-.97-1.67-1.95-1.59-.98.1-1.69.98-1.58,1.96.4,3.87,1.75,7.58,3.46,11.09-3.56-1.02-7.09-1.87-10.53-2.43-.99-.17-1.88.5-2.04,1.47s.5,1.88,1.47,2.04c3.39.55,6.89,1.41,10.46,2.44l-6.4,4.49c-.81.56-1,1.68-.44,2.48.35.49.9.76,1.46.76.35,0,.71-.1,1.02-.32l5.3-3.71c-.39,1.76-.73,3.49-1.07,5.17-.51,2.58-1,5.02-1.57,7.32-.24.95.34,1.92,1.29,2.16.15.04.29.05.43.05.8,0,1.52-.54,1.72-1.35.6-2.39,1.09-4.86,1.61-7.49.39-1.96.79-3.94,1.24-5.92.32.53.64,1.07.96,1.59,1.65,2.74,3.21,5.32,4.28,7.69.3.66.95,1.05,1.62,1.05.25,0,.5-.05.73-.16.9-.4,1.29-1.46.89-2.35"/>
  <path class="cls-1" d="M66.47,188.17c-.44-3.37-.69-8-.83-12.94,2.5,1.69,5.15,3.07,8.15,3.99.26.08.53.12.78.12,1.14,0,2.19-.73,2.54-1.88.43-1.4-.35-2.89-1.76-3.33-2.37-.73-4.5-1.84-6.56-3.2,4-.76,7.73-1.13,10.55-1.02,1.43.05,2.71-1.1,2.76-2.57s-1.1-2.71-2.57-2.76c-2.75-.1-6.27.21-10.07.84,1.39-1.88,2.81-3.74,4.26-5.57.92-1.16.72-2.84-.43-3.75-1.15-.92-2.83-.72-3.75.43-1.41,1.78-2.79,3.6-4.15,5.43v-.67c-.04-3.18-.07-6.1-.13-8.51-.04-1.47-1.24-2.72-2.74-2.6-1.47.04-2.64,1.26-2.6,2.74.06,2.39.09,5.29.13,8.44,0,.66.02,1.35.02,2.03-1-1-2.02-2.04-3.08-3.13-.99-1.02-2.01-2.07-3.08-3.14-1.03-1.04-2.71-1.05-3.76-.02s-1.05,2.72-.02,3.76c1.05,1.06,2.06,2.1,3.05,3.11,1.47,1.51,2.89,2.96,4.31,4.36-4.13,1.33-8.04,2.95-11.16,4.82-1.27.76-1.68,2.4-.92,3.66.5.84,1.39,1.3,2.29,1.3.47,0,.94-.12,1.37-.38,2.23-1.33,4.97-2.55,7.92-3.61-1.54,2.4-3.05,4.82-4.5,7.28-.75,1.27-.32,2.91.94,3.65.43.25.89.37,1.35.37.91,0,1.8-.47,2.3-1.31,1.08-1.83,2.2-3.63,3.33-5.43.16,3.84.39,7.4.76,10.18.17,1.35,1.32,2.32,2.64,2.32.11,0,.23,0,.35-.02,1.46-.19,2.49-1.53,2.3-2.99"/>
  <path class="cls-1" d="M57.16,138.77c-2.69-1.03-5.94-2.09-9.48-3.02l5.59-5.35c1.06-1.02,1.1-2.71.08-3.77-1.02-1.07-2.71-1.1-3.77-.08l-2.57,2.46c.32-1.45.63-2.9.98-4.34.35-1.43-.53-2.88-1.96-3.22-1.43-.35-2.88.53-3.23,1.96-.48,1.96-.92,3.95-1.34,5.94-1.32-2.48-2.61-4.98-3.85-7.53-.65-1.32-2.25-1.87-3.57-1.22-1.33.65-1.87,2.25-1.22,3.57,1.58,3.23,3.24,6.4,4.93,9.54-3.46-.53-6.98-.87-10.39-.87-1.47,0-2.67,1.19-2.67,2.67s1.2,2.67,2.67,2.67c2.82,0,5.99.28,9.28.77l-4.72,4.52c-1.06,1.02-1.1,2.71-.08,3.77.53.55,1.23.83,1.93.83.66,0,1.33-.24,1.85-.74l3.2-3.06c-.38,2.7-.73,5.4-1.01,8.1-.15,1.46.92,2.78,2.38,2.93.09,0,.18,0,.28,0,1.35,0,2.51-1.02,2.65-2.39.28-2.69.62-5.38,1-8.07.63,1.04,1.25,2.1,1.9,3.12.51.81,1.37,1.25,2.26,1.25.48,0,.97-.13,1.41-.4,1.25-.78,1.63-2.43.85-3.68-.76-1.21-1.49-2.44-2.23-3.67,2.4.69,4.74,1.46,6.95,2.31.31.12.64.18.96.18,1.07,0,2.08-.65,2.49-1.71.53-1.38-.16-2.92-1.53-3.45"/>
</svg>