<?xml version="1.0" encoding="utf-8"?>
<!-- Generator: Adobe Illustrator 23.0.3, SVG Export Plug-In . SVG Version: 6.00 Build 0)  -->
<svg version="1.1" id="Calque_1" xmlns="http://www.w3.org/2000/svg" xmlns:xlink="http://www.w3.org/1999/xlink" x="0px" y="0px"
	 viewBox="0 0 267.58 91.19" style="enable-background:new 0 0 267.58 91.19;" xml:space="preserve">
<style type="text/css">
	.st0{fill:#004761;}
	.st1{fill:#F05A38;}
</style>
<g>
	<path class="st0" d="M149.49,62.17h5.91c0.25,0,0.35-0.11,0.35-0.43c0.04-1.84-1.13-3.11-3.08-3.11
		C150.45,58.64,149.49,60.09,149.49,62.17 M158.67,47.84c0,0.88-0.46,1.59-1.34,2.05l-4.74,2.42c-0.46,0.23-0.81,0.34-1.2,0.34
		c-1.22,0-2.23-1.03-2.23-2.25c0-0.88,0.46-1.59,1.34-2.05l4.74-2.43c0.46-0.23,0.81-0.34,1.2-0.34
		C157.67,45.59,158.67,46.62,158.67,47.84 M160.99,62.42v0.81c0,1.52-0.78,2.69-2.62,2.69h-8.88v0.28c0,1.7,1.56,2.58,3.5,2.58
		c1.4,0,2.41-0.28,3.2-0.62c0.71-0.3,1.13-0.43,1.61-0.43c1.29,0,2.41,1.12,2.41,2.48c0,0.81-0.39,1.79-1.68,2.41
		c-1.29,0.62-3.27,1.22-5.79,1.22c-4.85,0-8.35-3.15-8.78-7.47c-0.11-1.42-0.11-3.68,0-4.81c0.42-4.63,3.82-7.64,8.6-7.64
		C157.49,53.93,160.99,57.15,160.99,62.42"/>
	<path class="st0" d="M169.9,62.25c-0.07,0.71-0.07,2.2,0,3.01c0.07,1.84,1.17,2.9,3.01,2.9c0.99,0,2.23-0.49,2.69-0.88v-7.04
		c-0.5-0.32-1.7-0.74-2.94-0.74C170.85,59.49,169.97,60.55,169.9,62.25 M181.47,51.07v18.6c0,0.96-0.28,1.45-0.99,1.95
		c-1.1,0.78-3.86,2.23-7.72,2.23c-5.03,0-8.28-3.26-8.67-7.54c-0.11-1.24-0.14-3.79,0-5.06c0.39-4.35,3.11-7.32,7.89-7.32
		c1.13,0,2.66,0.28,3.61,0.71v-3.56c0-1.66,1.34-3.01,2.94-3.01C180.23,48.07,181.47,49.41,181.47,51.07"/>
	<path class="st0" d="M202.53,56.97v12.95c0,0.99-0.25,1.49-0.99,1.98c-1.1,0.78-3.79,1.95-7.61,1.95c-5.45,0-8.32-2.87-8.32-8.03
		v-8.78c0-1.77,0.99-3.11,2.83-3.11c1.7,0,3.01,1.34,3.01,3.11v8.53c0,1.73,1.13,2.55,2.62,2.55c1.13,0,2.05-0.32,2.62-0.67V56.97
		c0-1.7,1.24-3.04,2.9-3.04C201.22,53.93,202.53,55.27,202.53,56.97"/>
	<path class="st0" d="M223.2,59.36c0,1.56-1.27,2.81-2.85,2.81c-0.81,0-1.77-0.49-2.19-1.13c-0.74-1.1-1.61-1.56-2.94-1.56
		c-1.79,0-2.85,0.94-3.08,2.73c-0.07,0.87-0.05,2.34,0.03,3.18c0.2,1.86,1.29,2.9,3.04,2.9c1.33,0,2.19-0.46,2.94-1.56
		c0.42-0.64,1.38-1.13,2.19-1.13c1.58,0,2.85,1.26,2.85,2.81c0,2.96-3.73,5.43-8.19,5.43c-4.57,0-8.23-3.22-8.63-7.57
		c-0.12-1.27-0.12-3.42,0-5.06c0.28-4.23,3.91-7.29,8.63-7.29C219.47,53.93,223.2,56.41,223.2,59.36"/>
	<path class="st0" d="M105.3,62.85c0.11-1.24,0.11-2.58,0-3.86c-0.18-3.08-2.37-5.27-5.38-5.27c-2.97,0-5.1,2.19-5.31,5.27
		c-0.07,1.28-0.07,2.62,0,3.86c0.21,3.11,2.34,5.31,5.31,5.31C102.96,68.16,105.12,65.96,105.3,62.85 M88.63,63.73
		c-0.18-1.91-0.18-3.72,0-5.48c0.5-5.73,5.13-10.19,11.29-10.19c6.16,0,10.9,4.57,11.4,10.19c0.14,1.91,0.14,3.57,0,5.48
		c-0.5,5.66-5.24,10.12-11.4,10.12C93.76,73.86,89.12,69.4,88.63,63.73"/>
	<path class="st0" d="M132.14,61.96v8.88c0,1.66-1.24,3.01-2.94,3.01c-1.56,0-2.9-1.35-2.9-3.01v-8.6c0-1.8-1.2-2.58-2.62-2.58
		c-1.1,0-2.09,0.32-2.62,0.67v10.51c0,1.66-1.27,3.01-2.94,3.01c-1.56,0-2.94-1.35-2.94-3.01V57.86c0-0.99,0.28-1.49,0.99-1.98
		c1.13-0.78,3.82-1.95,7.64-1.95C129.35,53.93,132.14,56.8,132.14,61.96"/>
	<path class="st1" d="M230.48,69.79v2.74c0,0.83-0.6,1.49-1.47,1.49c-0.81,0-1.49-0.65-1.49-1.49v-2.74c0-0.85,0.64-1.5,1.49-1.5
		C229.83,68.28,230.48,68.94,230.48,69.79"/>
	<path class="st1" d="M245.38,48.64c0.67,0.23,1.01,0.69,1.01,1.27c0,0.73-0.55,1.31-1.34,1.31c-0.23,0-0.5-0.07-0.73-0.12
		c-0.49-0.11-1.11-0.25-2.11-0.25c-1.96,0-2.8,1.54-2.8,3.59v1.48h4.96c0.72,0,1.4,0.57,1.4,1.38c0,0.71-0.67,1.29-1.4,1.29h-4.96
		v13.77c0,0.83-0.58,1.49-1.43,1.49c-0.76,0-1.43-0.65-1.43-1.49V58.6h-0.69c-0.8,0-1.42-0.58-1.42-1.29c0-0.81,0.62-1.38,1.42-1.38
		h0.69v-2c0-3.49,1.91-5.77,5.61-5.77C243.17,48.16,244.49,48.32,245.38,48.64"/>
	<path class="st1" d="M257.33,56.09c0.6,0.18,1.18,0.57,1.18,1.4c0,0.78-0.58,1.41-1.35,1.41c-0.3,0-0.69-0.11-1.18-0.19
		c-0.25-0.05-0.8-0.12-1.49-0.12c-2.05,0-3.08,0.94-3.08,3.11v10.67c0,0.81-0.62,1.49-1.45,1.49c-0.78,0-1.43-0.67-1.43-1.49V61.36
		c0-3.5,2.04-5.61,5.77-5.61C255.54,55.75,256.71,55.91,257.33,56.09"/>
	<path class="st1" d="M51.82,86.25c-7.64-9.95-10.73-19.55-9.95-30.94c2.06-0.48,3.6-2.32,3.6-4.52c0-2.57-2.08-4.65-4.65-4.65
		s-4.65,2.08-4.65,4.65c0,2.13,1.45,3.91,3.4,4.46c-0.8,11.94,2.44,22,10.42,32.4c0.23,0.29,0.57,0.45,0.91,0.45
		c0.24,0,0.49-0.08,0.7-0.24C52.11,87.48,52.21,86.75,51.82,86.25"/>
	<path class="st1" d="M55.19,73.76c-0.65-0.06-1.48-0.18-2.35-0.31c0.81-0.29,1.56-0.46,2.22-0.58c0.28-0.05,0.47-0.32,0.42-0.6
		c-0.05-0.28-0.32-0.46-0.6-0.42c-0.74,0.13-1.64,0.35-2.65,0.73c0.09-0.92,0.23-1.83,0.56-2.64c0.11-0.26-0.02-0.57-0.28-0.67
		c-0.26-0.11-0.57,0.02-0.67,0.28c-0.36,0.88-0.52,1.82-0.61,2.76l-1.04-1.8c-0.14-0.25-0.46-0.33-0.71-0.19
		c-0.25,0.14-0.33,0.46-0.19,0.71l1.18,2.05c-1.16-0.18-2.29-0.35-3.14-0.43c-0.29-0.02-0.54,0.18-0.57,0.46
		c-0.03,0.28,0.18,0.54,0.46,0.57c0.63,0.06,1.43,0.17,2.29,0.3c-0.54,0.35-1.1,0.75-1.66,1.23c-0.22,0.19-0.24,0.51-0.06,0.73
		c0.1,0.12,0.25,0.18,0.39,0.18c0.12,0,0.24-0.04,0.34-0.12c0.88-0.75,1.73-1.31,2.53-1.74c-0.07,0.81-0.16,1.58-0.37,2.3
		c-0.08,0.27,0.08,0.56,0.35,0.64c0.05,0.01,0.1,0.02,0.15,0.02c0.22,0,0.43-0.15,0.5-0.37c0.11-0.4,0.19-0.81,0.26-1.22l1.15,1.99
		c0.1,0.17,0.27,0.26,0.45,0.26c0.09,0,0.18-0.02,0.26-0.07c0.25-0.14,0.33-0.46,0.19-0.71l-1.54-2.66
		c0.99,0.15,1.93,0.29,2.66,0.36c0.02,0,0.03,0,0.05,0c0.26,0,0.49-0.2,0.51-0.47C55.69,74.04,55.48,73.79,55.19,73.76"/>
	<path class="st1" d="M66.11,67.32l-2.41-0.19l1.3-1.31c0.2-0.2,0.2-0.53,0-0.73c-0.2-0.2-0.53-0.2-0.73,0l-0.76,0.76
		c0.04-0.35,0.09-0.71,0.14-1.06c0.04-0.28-0.15-0.55-0.43-0.59c-0.28-0.04-0.55,0.15-0.59,0.43c-0.07,0.45-0.13,0.9-0.18,1.36
		c-0.43-0.52-0.86-1.05-1.27-1.59c-0.17-0.23-0.49-0.27-0.72-0.1c-0.23,0.17-0.27,0.5-0.1,0.73c0.5,0.67,1.03,1.32,1.56,1.96
		l-2.58-0.21c-0.28-0.02-0.53,0.19-0.56,0.47s0.19,0.53,0.47,0.56l2.14,0.17l-0.73,0.73c-0.2,0.2-0.2,0.53,0,0.73
		c0.1,0.1,0.23,0.15,0.36,0.15s0.27-0.05,0.37-0.15l0.87-0.88c-0.02,0.6-0.03,1.19-0.03,1.79c0,0.28,0.23,0.51,0.52,0.51h0.01
		c0.29,0,0.51-0.24,0.51-0.52c-0.01-0.59,0.01-1.18,0.03-1.77c0.24,0.26,0.47,0.54,0.71,0.8c0.1,0.11,0.24,0.16,0.38,0.16
		c0.13,0,0.25-0.05,0.35-0.14c0.21-0.2,0.22-0.52,0.02-0.73c-0.13-0.14-0.26-0.3-0.39-0.44l1.66,0.13c0.01,0,0.03,0,0.04,0
		c0.27,0,0.49-0.21,0.51-0.48C66.61,67.59,66.39,67.34,66.11,67.32"/>
	<path class="st1" d="M59.79,18.59c-0.13-0.2-0.4-0.26-0.6-0.13l-1.54,0.99l0.18-1.37c0.03-0.24-0.14-0.45-0.37-0.48
		c-0.23-0.03-0.45,0.13-0.48,0.37l-0.1,0.73c-0.12-0.21-0.26-0.41-0.38-0.63c-0.12-0.21-0.38-0.28-0.59-0.17
		c-0.21,0.11-0.28,0.38-0.17,0.58c0.16,0.3,0.35,0.58,0.53,0.88c-0.5-0.12-1-0.24-1.5-0.38c-0.23-0.06-0.47,0.07-0.53,0.3
		c-0.06,0.23,0.07,0.47,0.3,0.53c0.61,0.17,1.22,0.32,1.83,0.46l-1.65,1.06c-0.2,0.13-0.26,0.4-0.13,0.6
		c0.08,0.13,0.22,0.2,0.36,0.2c0.08,0,0.16-0.02,0.23-0.07l1.35-0.87l-0.1,0.74c-0.03,0.24,0.14,0.45,0.37,0.48
		c0.02,0,0.04,0,0.06,0c0.21,0,0.4-0.16,0.43-0.37l0.12-0.91c0.26,0.37,0.51,0.74,0.78,1.09c0.08,0.11,0.21,0.17,0.34,0.17
		c0.09,0,0.19-0.03,0.27-0.09c0.19-0.15,0.22-0.42,0.07-0.61c-0.27-0.34-0.51-0.7-0.76-1.05c0.24,0.04,0.49,0.1,0.73,0.14
		c0.02,0,0.05,0.01,0.07,0.01c0.21,0,0.39-0.15,0.42-0.36c0.04-0.24-0.12-0.46-0.36-0.49c-0.13-0.02-0.26-0.05-0.38-0.07l1.03-0.67
		C59.87,19.06,59.92,18.79,59.79,18.59"/>
	<path class="st1" d="M50.34,35.08c0.94,0.87,1.86,1.69,2.66,2.33c0.18,0.14,0.39,0.21,0.6,0.21c0.29,0,0.57-0.13,0.76-0.37
		c0.33-0.42,0.26-1.03-0.16-1.36c-0.58-0.46-1.24-1.04-1.93-1.67c0.97,0.06,1.95,0.15,2.91,0.24c0.03,0,0.07,0.01,0.1,0.01
		c0.49,0,0.91-0.37,0.97-0.87c0.05-0.53-0.33-1.01-0.87-1.06c-1.19-0.12-2.41-0.21-3.61-0.29c0.93-0.61,1.88-1.06,2.77-1.22
		c0.53-0.1,0.88-0.6,0.78-1.13c-0.1-0.53-0.6-0.88-1.13-0.78c-1.18,0.22-2.4,0.79-3.58,1.58l0.15-2.52c0.03-0.54-0.37-1-0.91-1.03
		c-0.54-0.03-1,0.38-1.03,0.91l-0.17,2.8c-0.92-0.85-1.81-1.65-2.59-2.27c-0.42-0.33-1.03-0.26-1.36,0.16
		c-0.33,0.42-0.26,1.03,0.16,1.36c0.68,0.54,1.46,1.23,2.27,1.98c-1.05-0.01-2.07,0.01-3.04,0.04c-0.54,0.02-0.95,0.47-0.93,1.01
		c0.02,0.54,0.46,0.94,1,0.93c0.88-0.03,1.8-0.05,2.75-0.04c-0.74,0.86-1.39,1.75-1.9,2.6c-0.27,0.46-0.12,1.06,0.34,1.33
		c0.15,0.09,0.32,0.13,0.49,0.13c0.33,0,0.66-0.17,0.84-0.48c0.46-0.77,1.04-1.57,1.71-2.34l-0.23,3.75c-0.03,0.54,0.38,1,0.91,1.03
		c0.02,0,0.04,0,0.06,0c0.51,0,0.94-0.4,0.97-0.91L50.34,35.08z"/>
	<path class="st1" d="M58.48,45.66c-0.84-0.26-1.68-0.44-2.52-0.56l1.12-1.13c0.25-0.25,0.25-0.66,0-0.91
		c-0.25-0.25-0.66-0.25-0.91,0l-0.78,0.79c0.04-0.36,0.09-0.73,0.14-1.09c0.05-0.35-0.19-0.68-0.54-0.74
		c-0.36-0.06-0.68,0.19-0.74,0.54c-0.07,0.48-0.13,0.97-0.19,1.46c-0.47-0.58-0.95-1.15-1.4-1.75c-0.21-0.29-0.62-0.34-0.91-0.13
		c-0.28,0.21-0.34,0.62-0.13,0.9c0.47,0.63,0.98,1.24,1.47,1.85c-0.94,0-1.86,0.04-2.71,0.1c-0.36,0.03-0.62,0.33-0.6,0.69
		c0.03,0.36,0.36,0.63,0.69,0.6c0.81-0.06,1.67-0.1,2.56-0.1l-1.06,1.06c-0.25,0.25-0.25,0.66,0,0.91c0.13,0.13,0.29,0.19,0.46,0.19
		c0.17,0,0.33-0.06,0.46-0.19l0.92-0.92c-0.02,0.65-0.03,1.3-0.03,1.94c0.01,0.35,0.29,0.64,0.65,0.64h0.01
		c0.36-0.01,0.64-0.3,0.64-0.66c-0.01-0.64,0-1.29,0.03-1.93c0.25,0.28,0.49,0.57,0.75,0.84c0.13,0.14,0.3,0.2,0.47,0.2
		c0.16,0,0.32-0.06,0.44-0.18c0.26-0.25,0.27-0.65,0.03-0.91c-0.23-0.25-0.45-0.51-0.68-0.77c0.66,0.11,1.32,0.26,1.97,0.46
		c0.07,0.02,0.13,0.03,0.2,0.03c0.27,0,0.53-0.18,0.62-0.45C59.01,46.13,58.82,45.77,58.48,45.66"/>
	<path class="st1" d="M26.11,34.16c-0.54-0.12-1.61-0.36-2.9-0.67c0.66-0.37,1.38-0.73,2.15-1.07c0.33-0.15,0.47-0.53,0.33-0.85
		c-0.15-0.33-0.53-0.47-0.85-0.33c-0.97,0.43-1.84,0.89-2.65,1.36c0.02-0.97,0.1-1.94,0.28-2.88c0.07-0.35-0.16-0.69-0.51-0.76
		c-0.36-0.07-0.69,0.16-0.76,0.51c-0.16,0.81-0.24,1.64-0.28,2.46c-0.44-0.62-0.9-1.29-1.4-2.06c-0.2-0.3-0.6-0.38-0.9-0.19
		c-0.3,0.2-0.38,0.6-0.19,0.9c0.49,0.76,0.95,1.43,1.4,2.05c-0.89-0.25-1.77-0.5-2.55-0.76c-0.33-0.11-0.7,0.07-0.82,0.41
		c-0.11,0.34,0.07,0.7,0.41,0.82c0.97,0.32,2.08,0.64,3.19,0.94c-0.91,0.72-1.67,1.47-2.28,2.28c-0.21,0.29-0.16,0.69,0.13,0.91
		c0.12,0.09,0.25,0.13,0.39,0.13c0.2,0,0.39-0.09,0.52-0.26c0.55-0.74,1.26-1.43,2.1-2.09c0.02,0.42,0.04,0.84,0.06,1.24
		c0.02,0.4,0.04,0.8,0.06,1.18c0.01,0.35,0.3,0.62,0.64,0.62c0.01,0,0.02,0,0.03,0c0.36-0.01,0.63-0.32,0.62-0.67
		c-0.02-0.39-0.04-0.79-0.06-1.19c-0.01-0.13-0.01-0.26-0.02-0.38c0.58,0.69,1.16,1.38,1.81,2.11c0.13,0.15,0.31,0.22,0.49,0.22
		c0.15,0,0.3-0.05,0.43-0.16c0.27-0.24,0.3-0.64,0.06-0.91c-0.7-0.8-1.32-1.52-1.92-2.24c1.2,0.29,2.2,0.51,2.71,0.62
		c0.05,0.01,0.09,0.02,0.14,0.02c0.3,0,0.56-0.21,0.63-0.51C26.68,34.58,26.46,34.23,26.11,34.16"/>
	<path class="st1" d="M14.28,51.8c-0.44-0.03-0.83-0.1-1.21-0.17l0.91-0.91c0.17-0.17,0.17-0.44,0-0.61c-0.17-0.17-0.44-0.17-0.61,0
		l-0.52,0.52c0.03-0.24,0.04-0.49,0.08-0.73c0.04-0.24-0.13-0.46-0.36-0.49c-0.23-0.04-0.45,0.13-0.49,0.36
		c-0.05,0.34-0.07,0.68-0.11,1.02c-0.33-0.4-0.65-0.8-0.97-1.21c-0.14-0.19-0.42-0.23-0.6-0.08c-0.19,0.14-0.23,0.41-0.08,0.6
		c0.32,0.43,0.67,0.84,1.01,1.26c-0.57-0.05-1.18-0.06-1.89,0.07c-0.24,0.04-0.39,0.26-0.35,0.5c0.04,0.24,0.27,0.39,0.5,0.35
		c0.63-0.11,1.17-0.11,1.69-0.06l-0.72,0.72c-0.17,0.17-0.17,0.44,0,0.61c0.08,0.08,0.19,0.13,0.3,0.13c0.11,0,0.22-0.04,0.3-0.13
		l0.65-0.65c-0.02,0.45-0.04,0.9-0.04,1.34c0,0.24,0.2,0.43,0.43,0.43h0.01c0.24,0,0.43-0.2,0.42-0.44
		c-0.01-0.43,0.02-0.86,0.04-1.3c0.17,0.18,0.33,0.38,0.5,0.56c0.08,0.09,0.2,0.14,0.31,0.14c0.11,0,0.21-0.04,0.3-0.12
		c0.17-0.16,0.18-0.43,0.02-0.61c-0.1-0.1-0.19-0.22-0.29-0.32c0.23,0.03,0.46,0.06,0.71,0.08c0.01,0,0.02,0,0.03,0
		c0.22,0,0.41-0.17,0.43-0.4C14.69,52.03,14.51,51.82,14.28,51.8"/>
	<path class="st1" d="M16.38,44.41c-0.73,0.05-1.47,0.13-2.2,0.23c0.53-0.64,1.18-1.24,1.95-1.76c0.2-0.13,0.25-0.4,0.12-0.6
		c-0.13-0.2-0.4-0.25-0.6-0.12c-0.7,0.47-1.32,1-1.85,1.58c-0.12-0.69-0.22-1.39-0.31-2.03l-0.02-0.14
		c-0.03-0.24-0.26-0.4-0.49-0.37c-0.23,0.03-0.4,0.25-0.37,0.49l0.02,0.14c0.1,0.7,0.21,1.45,0.34,2.2l-1.07-0.68
		c-0.2-0.13-0.47-0.07-0.59,0.13c-0.13,0.2-0.07,0.47,0.13,0.6l1.24,0.79c-0.66,0.12-1.32,0.24-1.97,0.4
		c-0.23,0.05-0.38,0.29-0.32,0.52c0.05,0.2,0.22,0.33,0.42,0.33c0.03,0,0.07,0,0.1-0.01c0.51-0.12,1.02-0.23,1.53-0.32
		c-0.17,0.37-0.3,0.74-0.39,1.12c-0.05,0.23,0.09,0.46,0.32,0.52c0.03,0.01,0.06,0.01,0.1,0.01c0.2,0,0.37-0.13,0.42-0.33
		c0.1-0.43,0.27-0.86,0.49-1.28c0.29,1.03,0.67,2,1.22,2.76c0.08,0.12,0.21,0.18,0.35,0.18c0.09,0,0.18-0.03,0.25-0.08
		c0.19-0.14,0.23-0.41,0.1-0.6c-0.43-0.6-0.76-1.36-1.01-2.19l1.49,0.94c0.07,0.04,0.15,0.07,0.23,0.07c0.14,0,0.28-0.07,0.36-0.2
		c0.13-0.2,0.07-0.47-0.13-0.59l-1.13-0.72c0.44-0.05,0.88-0.09,1.33-0.12c0.24-0.02,0.42-0.22,0.4-0.46
		C16.82,44.57,16.61,44.4,16.38,44.41"/>
	<path class="st1" d="M44.94,23.69c-0.89-0.16-1.84-0.21-2.82-0.2c0.66-0.51,1.38-1.04,2.19-1.6c0.24-0.16,0.29-0.48,0.13-0.72
		c-0.16-0.23-0.48-0.29-0.72-0.13c-0.97,0.67-1.82,1.3-2.58,1.9c-0.04-1.19-0.04-2.31,0.02-3.17c0.02-0.28-0.2-0.53-0.48-0.55
		c-0.27-0.02-0.53,0.19-0.55,0.48c-0.06,0.88-0.06,2-0.02,3.19c-0.49-0.43-0.9-0.9-1.14-1.47c-0.11-0.26-0.41-0.38-0.68-0.27
		c-0.26,0.11-0.38,0.42-0.27,0.68c0.31,0.73,0.82,1.32,1.41,1.83c-0.62,0.06-1.24,0.14-1.86,0.22c-0.28,0.04-0.48,0.3-0.44,0.58
		c0.03,0.26,0.26,0.45,0.51,0.45c0.02,0,0.04,0,0.07,0c0.46-0.06,0.93-0.12,1.4-0.17c-0.47,0.46-0.86,0.9-1.17,1.31
		c-0.17,0.23-0.12,0.55,0.11,0.72c0.09,0.07,0.2,0.1,0.31,0.1c0.16,0,0.31-0.07,0.42-0.21c0.35-0.47,0.83-0.99,1.44-1.56
		c0.06,1.12,0.13,2.19,0.19,3.04l0.02,0.3c0.02,0.27,0.24,0.48,0.51,0.48c0.01,0,0.02,0,0.04,0c0.29-0.02,0.5-0.27,0.48-0.55
		l-0.02-0.29c-0.06-0.88-0.13-1.98-0.19-3.13c0.1,0.06,0.19,0.12,0.29,0.18c0.83,0.52,1.61,1,2.12,1.57
		c0.1,0.11,0.24,0.17,0.38,0.17c0.12,0,0.25-0.04,0.34-0.13c0.21-0.19,0.23-0.52,0.04-0.73c-0.5-0.56-1.18-1.02-1.9-1.48
		c0.79,0,1.56,0.05,2.27,0.18c0.27,0.05,0.55-0.14,0.6-0.42C45.41,24.01,45.22,23.74,44.94,23.69"/>
	<path class="st1" d="M35.37,26.48c-0.22-0.28-0.62-0.34-0.91-0.13l-2.29,1.73l0.04-2.32c0.01-0.36-0.28-0.65-0.63-0.66
		c-0.36,0.01-0.65,0.28-0.66,0.63l-0.02,1.21c-0.25-0.35-0.5-0.71-0.74-1.07c-0.2-0.3-0.6-0.38-0.9-0.18c-0.3,0.2-0.38,0.6-0.18,0.9
		c0.31,0.47,0.63,0.93,0.96,1.39c-0.79-0.15-1.58-0.32-2.37-0.5c-0.34-0.08-0.7,0.13-0.77,0.48c-0.08,0.35,0.14,0.7,0.48,0.78
		c1.02,0.24,2.04,0.45,3.07,0.63l-2.43,1.84c-0.28,0.21-0.34,0.62-0.13,0.91c0.13,0.17,0.32,0.26,0.52,0.26
		c0.13,0,0.27-0.04,0.39-0.13l2.03-1.53l-0.04,2.08c-0.01,0.36,0.28,0.65,0.63,0.66h0.01c0.35,0,0.64-0.28,0.65-0.63l0.04-2.17
		c0.47,0.57,0.95,1.12,1.45,1.67c0.13,0.14,0.3,0.21,0.48,0.21c0.16,0,0.31-0.06,0.44-0.17c0.26-0.24,0.28-0.65,0.04-0.91
		c-0.49-0.54-0.96-1.09-1.43-1.65c0.4,0.06,0.79,0.11,1.19,0.16c0.03,0,0.05,0.01,0.08,0.01c0.32,0,0.6-0.24,0.64-0.57
		c0.04-0.35-0.21-0.68-0.56-0.72c-0.26-0.03-0.52-0.07-0.78-0.1l1.58-1.19C35.52,27.17,35.58,26.76,35.37,26.48"/>
	<path class="st1" d="M73.25,33.26c-0.9-0.27-1.8-0.56-2.7-0.87c0.48-0.18,0.95-0.37,1.42-0.56c0.33-0.14,0.49-0.51,0.36-0.84
		c-0.13-0.33-0.52-0.49-0.84-0.36c-0.37,0.15-0.76,0.28-1.13,0.43l0.89-2.23c0.13-0.33-0.03-0.71-0.36-0.84
		c-0.33-0.13-0.71,0.03-0.84,0.36l-1.25,3.13l-1.6-2.5c-0.19-0.3-0.59-0.39-0.89-0.2c-0.3,0.19-0.39,0.59-0.2,0.89l0.86,1.35
		c-0.56-0.24-1.12-0.48-1.68-0.73c-0.32-0.15-0.71-0.01-0.86,0.32c-0.15,0.32,0,0.71,0.32,0.86c0.66,0.3,1.34,0.59,2.01,0.87
		c-0.93,0.31-1.86,0.62-2.81,0.89c-0.34,0.1-0.54,0.46-0.44,0.8c0.08,0.28,0.34,0.47,0.62,0.47c0.06,0,0.12-0.01,0.18-0.03
		c1.27-0.37,2.52-0.76,3.75-1.19l-1.33,3.33c-0.13,0.33,0.03,0.71,0.36,0.84c0.08,0.03,0.16,0.05,0.24,0.05
		c0.26,0,0.5-0.15,0.6-0.41l1.12-2.8l0.98,1.53c0.12,0.19,0.33,0.3,0.54,0.3c0.12,0,0.24-0.03,0.35-0.1c0.3-0.19,0.39-0.59,0.2-0.89
		l-0.97-1.51c0.9,0.31,1.81,0.61,2.73,0.88c0.06,0.02,0.12,0.03,0.18,0.03c0.28,0,0.54-0.18,0.62-0.46
		C73.79,33.72,73.59,33.36,73.25,33.26"/>
	<path class="st1" d="M79.86,16.83l-3.61,1.63l0.93-2.42c0.17-0.44-0.05-0.94-0.49-1.11c-0.45-0.17-0.94,0.05-1.11,0.49l-0.69,1.79
		c-0.58-1.36-1.08-2.61-1.38-3.5c-0.15-0.45-0.64-0.69-1.09-0.54c-0.45,0.15-0.69,0.64-0.54,1.09c0.33,0.99,0.89,2.4,1.54,3.89
		c-1.04-0.33-2.07-0.68-3.09-1.05c-0.45-0.16-0.94,0.07-1.1,0.51c-0.16,0.45,0.07,0.94,0.52,1.1c1.12,0.41,2.26,0.79,3.4,1.15
		l-3.88,1.75c-0.43,0.2-0.63,0.71-0.43,1.14c0.14,0.32,0.46,0.51,0.79,0.51c0.12,0,0.24-0.02,0.35-0.08l3.17-1.43l-0.47,1.22
		c-0.17,0.44,0.05,0.94,0.49,1.11c0.1,0.04,0.21,0.06,0.31,0.06c0.35,0,0.67-0.21,0.8-0.55l0.74-1.91c0.61,1.29,1.2,2.46,1.66,3.27
		c0.16,0.28,0.45,0.44,0.75,0.44c0.14,0,0.29-0.04,0.42-0.11c0.41-0.24,0.56-0.76,0.32-1.18c-0.45-0.79-1.03-1.95-1.63-3.23
		c0.59,0.16,1.17,0.31,1.76,0.46c0.07,0.02,0.14,0.02,0.21,0.02c0.39,0,0.74-0.26,0.84-0.66c0.11-0.46-0.17-0.93-0.63-1.04
		c-0.19-0.05-0.38-0.1-0.57-0.15l2.43-1.1C81,18.21,81.2,17.7,81,17.26C80.8,16.83,80.3,16.63,79.86,16.83"/>
	<path class="st1" d="M99.3,25.64c-1.11-0.06-2.22-0.17-3.33-0.31c0.59-0.44,1.18-0.89,1.75-1.35c0.22-0.18,0.26-0.5,0.08-0.73
		c-0.18-0.22-0.5-0.26-0.73-0.08c-0.68,0.54-1.39,1.07-2.1,1.6c0.16-1.29,0.5-2.48,1.22-3.53c0.16-0.24,0.1-0.56-0.13-0.72
		c-0.24-0.16-0.56-0.1-0.72,0.13c-0.76,1.1-1.15,2.34-1.35,3.64l-1.63-1.82c-0.19-0.21-0.52-0.23-0.73-0.04
		c-0.21,0.19-0.23,0.52-0.04,0.73l1.58,1.76c-0.79-0.14-1.58-0.29-2.36-0.46c-0.28-0.06-0.56,0.12-0.62,0.39
		c-0.06,0.28,0.11,0.55,0.39,0.62c0.89,0.2,1.79,0.36,2.69,0.51c-1.01,0.71-2.05,1.4-3.1,2.06c-0.24,0.15-0.31,0.47-0.16,0.71
		c0.1,0.16,0.27,0.24,0.44,0.24c0.09,0,0.19-0.02,0.27-0.08c1.04-0.65,2.06-1.34,3.07-2.04c-0.01,0.5-0.02,0.99-0.02,1.49
		c0,0.85,0,1.72-0.05,2.56c-0.02,0.29,0.2,0.53,0.48,0.55c0.01,0,0.02,0,0.03,0c0.27,0,0.5-0.21,0.52-0.49
		c0.05-0.86,0.05-1.76,0.06-2.62c0-0.54,0.01-1.07,0.02-1.6l1.93,2.15c0.1,0.11,0.24,0.17,0.39,0.17c0.12,0,0.25-0.04,0.35-0.13
		c0.21-0.19,0.23-0.52,0.04-0.73l-1.68-1.88c1.13,0.14,2.26,0.25,3.38,0.31c0.01,0,0.02,0,0.03,0c0.27,0,0.5-0.21,0.52-0.49
		C99.81,25.9,99.59,25.66,99.3,25.64"/>
	<path class="st1" d="M101.42,6.62c-0.6-0.05-1.26-0.06-1.91-0.08c0.27-0.29,0.54-0.59,0.79-0.86c0.46-0.5,0.85-0.94,1.14-1.22
		c0.17-0.16,0.18-0.43,0.02-0.61c-0.16-0.17-0.44-0.18-0.61-0.02c-0.32,0.3-0.72,0.75-1.19,1.27c-0.19,0.21-0.39,0.43-0.59,0.65
		c0.07-0.79,0.15-1.56,0.25-2.17c0.04-0.24-0.12-0.46-0.36-0.49c-0.23-0.04-0.46,0.12-0.49,0.36c-0.09,0.59-0.18,1.33-0.24,2.1
		c-0.38-0.44-0.77-0.88-1.13-1.33c-0.15-0.18-0.42-0.21-0.61-0.07c-0.18,0.15-0.21,0.42-0.07,0.61c0.47,0.59,0.97,1.16,1.47,1.73
		c-0.88-0.04-1.7-0.12-2.3-0.3c-0.23-0.07-0.47,0.06-0.54,0.28c-0.07,0.23,0.06,0.47,0.28,0.54c0.6,0.19,1.36,0.27,2.17,0.32
		c-0.45,0.4-0.88,0.72-1.24,0.86c-0.22,0.09-0.33,0.34-0.25,0.56c0.07,0.17,0.23,0.27,0.4,0.27c0.05,0,0.11-0.01,0.16-0.03
		c0.46-0.18,0.98-0.56,1.5-1.02c-0.01,0.41-0.02,0.8-0.01,1.14c0,0.24,0.2,0.42,0.43,0.42h0.01c0.24,0,0.43-0.2,0.42-0.44
		c-0.01-0.43,0-0.94,0.03-1.48c0.22,0.23,0.44,0.48,0.67,0.7c0.08,0.08,0.19,0.13,0.3,0.13s0.22-0.04,0.31-0.13
		c0.17-0.17,0.17-0.44,0-0.61c-0.1-0.09-0.18-0.2-0.28-0.29c0.48,0.01,0.96,0.03,1.41,0.06c0.01,0,0.02,0,0.03,0
		c0.22,0,0.41-0.17,0.43-0.4C101.83,6.85,101.65,6.64,101.42,6.62"/>
	<path class="st1" d="M86.37,30.09l-1.49,1.07L85,29.78c0.02-0.24-0.16-0.44-0.39-0.46c-0.23-0.01-0.45,0.16-0.46,0.39l-0.06,0.73
		c-0.13-0.2-0.28-0.4-0.41-0.61c-0.12-0.2-0.39-0.27-0.59-0.14c-0.2,0.13-0.27,0.39-0.14,0.59c0.18,0.29,0.38,0.56,0.57,0.85
		c-0.51-0.09-1.02-0.19-1.52-0.3c-0.23-0.05-0.46,0.09-0.52,0.33c-0.05,0.23,0.09,0.46,0.33,0.51c0.61,0.14,1.23,0.26,1.85,0.37
		l-1.59,1.14c-0.19,0.14-0.24,0.41-0.1,0.6c0.09,0.12,0.22,0.18,0.35,0.18c0.09,0,0.18-0.03,0.25-0.08l1.31-0.94l-0.06,0.75
		c-0.02,0.24,0.16,0.44,0.39,0.46c0.01,0,0.02,0,0.04,0c0.22,0,0.41-0.17,0.43-0.4l0.07-0.92c0.28,0.35,0.55,0.71,0.84,1.05
		c0.09,0.1,0.21,0.15,0.33,0.15c0.1,0,0.2-0.04,0.28-0.11c0.18-0.16,0.2-0.43,0.04-0.61c-0.28-0.32-0.54-0.67-0.81-1.01
		c0.25,0.03,0.49,0.08,0.74,0.1c0.02,0,0.03,0,0.05,0c0.22,0,0.4-0.16,0.43-0.38c0.03-0.24-0.14-0.45-0.38-0.48
		c-0.13-0.01-0.26-0.04-0.39-0.05l1-0.72c0.19-0.14,0.24-0.41,0.1-0.6C86.83,29.99,86.57,29.95,86.37,30.09"/>
	<path class="st1" d="M71.63,51.55l-1.3-0.26c-0.58-0.12-1.25-0.25-1.97-0.39c0.77-0.42,1.48-0.84,2.08-1.23
		c0.45-0.29,0.57-0.9,0.27-1.34c-0.3-0.45-0.9-0.57-1.34-0.27c-0.84,0.56-1.98,1.18-3.15,1.8c0.36-2.97,0.59-5.84,0.45-6.88
		c-0.07-0.53-0.57-0.9-1.09-0.83c-0.53,0.07-0.9,0.56-0.83,1.09c0.11,0.78-0.07,3.1-0.36,5.65c-1.06-1.32-1.94-2.67-2.29-3.83
		c-0.15-0.51-0.69-0.8-1.21-0.65c-0.51,0.15-0.81,0.69-0.65,1.21c0.39,1.31,1.25,2.7,2.29,4.06c-1.21-0.27-2.23-0.52-2.85-0.72
		c-0.51-0.16-1.05,0.12-1.22,0.63c-0.16,0.51,0.12,1.06,0.63,1.22c0.77,0.24,2.11,0.56,3.64,0.9c-0.64,0.35-1.23,0.7-1.74,1.04
		c-0.45,0.3-0.57,0.9-0.28,1.34c0.19,0.28,0.5,0.43,0.81,0.43c0.18,0,0.37-0.05,0.53-0.16c0.49-0.32,1.09-0.67,1.73-1.03
		c-0.25,1.66-0.51,3.07-0.71,3.77c-0.15,0.51,0.15,1.05,0.66,1.2c0.09,0.03,0.18,0.04,0.27,0.04c0.42,0,0.81-0.28,0.93-0.7
		c0.22-0.76,0.51-2.38,0.8-4.29c0.34,0.36,0.68,0.71,1,1.05c0.77,0.8,1.43,1.48,1.8,1.95c0.19,0.24,0.47,0.36,0.76,0.36
		c0.21,0,0.43-0.07,0.61-0.21c0.42-0.34,0.48-0.95,0.15-1.36c-0.43-0.53-1.12-1.25-1.91-2.08c-0.09-0.09-0.18-0.18-0.27-0.28
		c0.76,0.15,1.47,0.29,2.07,0.41l1.3,0.26c0.07,0.01,0.13,0.02,0.19,0.02c0.45,0,0.86-0.32,0.95-0.78
		C72.5,52.17,72.16,51.65,71.63,51.55"/>
	<path class="st1" d="M57.45,62.98c-0.92-0.6-2.05-1.37-3.23-2.21c0.94-0.17,1.9-0.36,2.87-0.6c0.52-0.13,0.84-0.65,0.71-1.17
		c-0.13-0.52-0.65-0.84-1.17-0.71c-0.94,0.23-1.88,0.42-2.81,0.58c0.93-1.61,1.71-3.13,2.15-4.25c0.22-0.55-0.06-1.18-0.61-1.4
		c-0.55-0.22-1.18,0.06-1.39,0.61c-0.43,1.1-1.21,2.62-2.16,4.22c-0.27-1.13-0.53-2.26-0.75-3.39c-0.1-0.53-0.61-0.87-1.14-0.76
		c-0.52,0.1-0.87,0.61-0.76,1.14c0.16,0.81,0.34,1.61,0.52,2.41c-1-0.76-1.94-1.49-2.72-2.12c-0.46-0.38-1.14-0.3-1.52,0.16
		c-0.37,0.46-0.3,1.14,0.16,1.51c0.96,0.78,2.17,1.71,3.44,2.66c-1.16,0.2-2.33,0.42-3.52,0.71c-0.52,0.13-0.84,0.65-0.71,1.17
		c0.11,0.44,0.51,0.74,0.94,0.74c0.08,0,0.15-0.01,0.23-0.03c1.21-0.29,2.42-0.52,3.61-0.72c-1.05,1.51-2.1,2.87-2.98,3.74
		c-0.42,0.42-0.43,1.1-0.01,1.52c0.21,0.21,0.49,0.32,0.77,0.32c0.27,0,0.55-0.1,0.76-0.31c0.92-0.9,1.98-2.26,3.04-3.76
		c0.32,1.07,0.66,2.14,1.03,3.2c0.14,0.4,0.51,0.65,0.92,0.65c0.1,0,0.21-0.02,0.32-0.05c0.51-0.18,0.77-0.73,0.6-1.23
		c-0.35-1.01-0.67-2.02-0.98-3.04c1.18,0.84,2.31,1.61,3.23,2.21c0.18,0.12,0.39,0.17,0.59,0.17c0.35,0,0.7-0.17,0.9-0.49
		C58.09,63.97,57.95,63.3,57.45,62.98"/>
	<path class="st1" d="M42.22,37.52c-0.01-0.53-0.48-0.96-0.99-0.95c-1.16,0.02-2.5,0.41-3.88,0.97c0.48-1.56,0.99-2.98,1.33-3.34
		c0.37-0.39,0.36-1-0.03-1.37c-0.39-0.37-1-0.36-1.37,0.03c-0.62,0.64-1.17,2.11-1.87,4.37c-0.22-0.34-0.43-0.68-0.64-1.01
		c-0.46-0.71-0.88-1.37-1.21-1.93c-0.28-0.46-0.87-0.61-1.33-0.33c-0.46,0.28-0.61,0.87-0.33,1.33c0.34,0.58,0.78,1.25,1.24,1.98
		c0.02,0.03,0.04,0.06,0.06,0.09c-1.06-0.31-2.04-0.6-2.7-0.87c-0.49-0.2-1.06,0.03-1.27,0.53c-0.2,0.5,0.03,1.06,0.53,1.27
		c0.8,0.33,1.88,0.65,3.13,1.01c0.19,0.06,0.4,0.12,0.6,0.17c-1.03,0.58-1.98,1.16-2.78,1.65c0,0-0.59,0.41,0,1.27
		c0.42,0.61,1.01,0.39,1.01,0.39c0.69-0.42,1.57-0.96,2.51-1.5c-0.36,1.23-0.72,2.38-1.04,3.18c-0.2,0.5,0.04,1.06,0.54,1.26
		c0.12,0.05,0.24,0.07,0.36,0.07c0.38,0,0.75-0.23,0.9-0.61c0.33-0.82,0.67-1.9,1.03-3.09c0.4,0.78,0.72,1.52,0.88,2.15
		c0.11,0.43,0.51,0.72,0.94,0.72c0.08,0,0.17-0.01,0.25-0.03c0.52-0.14,0.83-0.67,0.69-1.18c-0.23-0.87-0.67-1.86-1.22-2.9
		c1.04,0.44,1.95,0.93,2.51,1.5c0.19,0.19,0.44,0.29,0.69,0.29c0.25,0,0.49-0.09,0.68-0.28c0.38-0.38,0.38-0.99,0.01-1.37
		c-0.71-0.72-1.75-1.31-2.91-1.82c1-0.38,1.95-0.63,2.73-0.65C41.8,38.5,42.23,38.05,42.22,37.52"/>
	<path class="st1" d="M30.17,70.4c-0.71,0.07-1.63,0.01-2.6-0.1c0.59-0.3,1.16-0.59,1.68-0.83c0.33-0.15,0.46-0.54,0.31-0.86
		c-0.15-0.32-0.53-0.47-0.86-0.31c-0.51,0.24-1.06,0.51-1.63,0.8c0.18-0.38,0.36-0.75,0.53-1.1c0.19-0.38,0.37-0.73,0.52-1.07
		c0.15-0.32,0.01-0.71-0.32-0.86c-0.32-0.15-0.71-0.01-0.86,0.32c-0.15,0.32-0.32,0.67-0.5,1.03c-0.27,0.53-0.56,1.11-0.83,1.74
		l-1.25-2.38c-0.17-0.32-0.56-0.44-0.87-0.27c-0.32,0.16-0.44,0.56-0.27,0.87l1.29,2.47c-0.25-0.04-0.5-0.09-0.74-0.13
		c-0.75-0.13-1.42-0.25-1.94-0.32c-0.35-0.05-0.68,0.2-0.73,0.55c-0.05,0.35,0.2,0.68,0.55,0.73c0.51,0.07,1.16,0.18,1.89,0.31
		c0.02,0,0.03,0.01,0.05,0.01c-0.79,0.46-1.54,0.92-2.2,1.35c-0.3,0.19-0.39,0.6-0.19,0.89c0.12,0.19,0.33,0.29,0.54,0.29
		c0.12,0,0.24-0.03,0.35-0.1c0.79-0.51,1.7-1.06,2.65-1.61c-0.23,1.17-0.27,2.44,0.06,3.8c0.07,0.3,0.34,0.49,0.63,0.49
		c0.05,0,0.1-0.01,0.15-0.02c0.35-0.09,0.56-0.43,0.47-0.78c-0.23-0.96-0.24-1.87-0.13-2.73l1.38,2.64
		c0.12,0.22,0.34,0.35,0.57,0.35c0.1,0,0.2-0.02,0.3-0.07c0.32-0.17,0.44-0.56,0.27-0.87l-1.63-3.11c0.93,0.12,1.83,0.21,2.63,0.21
		c0.28,0,0.55-0.01,0.8-0.03c0.36-0.03,0.62-0.35,0.58-0.7C30.84,70.63,30.52,70.37,30.17,70.4"/>
	<path class="st1" d="M38.52,75.74c-0.54-0.2-1.28-0.56-2.06-0.95c0.77-0.34,1.49-0.62,2.09-0.79c0.28-0.08,0.43-0.36,0.36-0.64
		c-0.08-0.27-0.36-0.44-0.64-0.36c-0.6,0.17-1.3,0.44-2.04,0.76c0.39-0.7,0.82-1.25,1.25-1.52c0.24-0.15,0.31-0.47,0.16-0.71
		c-0.15-0.24-0.47-0.31-0.71-0.16c-0.57,0.36-1.09,1-1.55,1.79l-0.65-1.81c-0.1-0.27-0.39-0.41-0.66-0.31
		c-0.27,0.1-0.41,0.39-0.31,0.66l0.76,2.11c-0.89-0.45-1.74-0.86-2.36-1.09c-0.27-0.1-0.57,0.04-0.67,0.3
		c-0.1,0.27,0.04,0.57,0.3,0.67c0.59,0.22,1.42,0.63,2.3,1.07c-0.35,0.17-0.7,0.34-1.03,0.5c-0.49,0.24-0.94,0.46-1.33,0.64
		c-0.26,0.12-0.37,0.43-0.25,0.69c0.09,0.19,0.27,0.3,0.47,0.3c0.07,0,0.15-0.02,0.22-0.05c0.39-0.18,0.85-0.41,1.35-0.65
		c0.23-0.11,0.47-0.23,0.72-0.35c-0.38,1.21-0.61,2.41-0.62,3.32c0,0.29,0.22,0.52,0.51,0.52h0.01c0.28,0,0.51-0.23,0.52-0.51
		c0.01-0.91,0.26-2.08,0.64-3.22l0.78,2.17c0.07,0.21,0.27,0.34,0.49,0.34c0.06,0,0.12-0.01,0.17-0.03c0.27-0.1,0.41-0.39,0.31-0.66
		l-0.67-1.87c0.68,0.33,1.31,0.63,1.8,0.81c0.06,0.02,0.12,0.03,0.18,0.03c0.21,0,0.41-0.13,0.48-0.34
		C38.93,76.14,38.79,75.84,38.52,75.74"/>
	<path class="st1" d="M21.09,65.19c-0.42-0.93-1.01-1.9-1.63-2.93c-0.06-0.1-0.12-0.2-0.18-0.31c1.02,0.34,2.04,0.7,3.05,1.06
		c0.07,0.02,0.14,0.04,0.21,0.04c0.26,0,0.5-0.17,0.59-0.44c0.12-0.34-0.08-0.71-0.42-0.83c-1.15-0.4-2.31-0.81-3.47-1.2l2.43-1.7
		c0.29-0.21,0.36-0.61,0.16-0.9c-0.2-0.29-0.61-0.36-0.9-0.16l-2.04,1.43c0.3-0.82,0.65-1.62,1.1-2.38c0.18-0.31,0.08-0.7-0.23-0.88
		c-0.31-0.18-0.7-0.08-0.88,0.23c-0.51,0.88-0.92,1.81-1.25,2.75c-0.51-1.09-0.9-2.22-1.02-3.36c-0.04-0.36-0.35-0.61-0.71-0.58
		c-0.36,0.04-0.61,0.35-0.58,0.71c0.15,1.41,0.64,2.75,1.26,4.03c-1.3-0.37-2.58-0.68-3.83-0.88c-0.36-0.06-0.68,0.18-0.74,0.53
		c-0.06,0.35,0.18,0.68,0.53,0.74c1.23,0.2,2.5,0.51,3.8,0.88l-2.33,1.63c-0.29,0.21-0.36,0.61-0.16,0.9
		c0.13,0.18,0.33,0.28,0.53,0.28c0.13,0,0.26-0.04,0.37-0.12l1.92-1.35c-0.14,0.64-0.27,1.27-0.39,1.88
		c-0.19,0.94-0.36,1.82-0.57,2.66c-0.09,0.35,0.12,0.7,0.47,0.78c0.05,0.01,0.11,0.02,0.16,0.02c0.29,0,0.55-0.2,0.63-0.49
		c0.22-0.87,0.4-1.77,0.58-2.72c0.14-0.71,0.29-1.43,0.45-2.15c0.12,0.2,0.23,0.39,0.35,0.58c0.6,0.99,1.17,1.93,1.56,2.8
		c0.11,0.24,0.34,0.38,0.59,0.38c0.09,0,0.18-0.02,0.27-0.06C21.09,65.9,21.24,65.52,21.09,65.19"/>
	<path class="st1" d="M32.07,65.94c-0.16-1.22-0.25-2.91-0.3-4.7c0.91,0.62,1.87,1.12,2.96,1.45c0.1,0.03,0.19,0.04,0.29,0.04
		c0.41,0,0.8-0.27,0.92-0.68c0.16-0.51-0.13-1.05-0.64-1.21c-0.86-0.27-1.64-0.67-2.38-1.16c1.45-0.27,2.81-0.41,3.83-0.37
		c0.52,0.02,0.98-0.4,1-0.93c0.02-0.54-0.4-0.98-0.93-1c-1-0.03-2.28,0.08-3.66,0.31c0.51-0.68,1.02-1.36,1.55-2.02
		c0.33-0.42,0.26-1.03-0.16-1.36c-0.42-0.33-1.03-0.26-1.36,0.16c-0.51,0.65-1.02,1.31-1.51,1.97c0-0.08,0-0.16,0-0.24
		c-0.01-1.15-0.02-2.22-0.05-3.09c-0.01-0.54-0.45-0.99-0.99-0.95c-0.53,0.01-0.96,0.46-0.94,0.99c0.02,0.87,0.03,1.92,0.05,3.07
		c0,0.24,0.01,0.49,0.01,0.74c-0.36-0.37-0.73-0.74-1.12-1.14c-0.36-0.37-0.73-0.75-1.12-1.14c-0.38-0.38-0.99-0.38-1.37-0.01
		c-0.38,0.38-0.38,0.99-0.01,1.37c0.38,0.39,0.75,0.76,1.11,1.13c0.53,0.55,1.05,1.08,1.57,1.58c-1.5,0.48-2.92,1.07-4.05,1.75
		c-0.46,0.27-0.61,0.87-0.33,1.33c0.18,0.3,0.5,0.47,0.83,0.47c0.17,0,0.34-0.04,0.5-0.14c0.81-0.49,1.81-0.93,2.88-1.31
		c-0.56,0.87-1.11,1.75-1.64,2.65c-0.27,0.46-0.12,1.05,0.34,1.33c0.15,0.09,0.32,0.14,0.49,0.14c0.33,0,0.66-0.17,0.84-0.48
		c0.39-0.66,0.8-1.32,1.21-1.97c0.06,1.4,0.14,2.69,0.27,3.7c0.06,0.49,0.48,0.84,0.96,0.84c0.04,0,0.08,0,0.13-0.01
		C31.76,66.96,32.14,66.48,32.07,65.94"/>
	<path class="st1" d="M28.68,48c-0.98-0.38-2.16-0.76-3.45-1.1l2.03-1.94c0.39-0.37,0.4-0.98,0.03-1.37
		c-0.37-0.39-0.98-0.4-1.37-0.03l-0.93,0.89c0.12-0.53,0.23-1.05,0.36-1.58c0.13-0.52-0.19-1.04-0.71-1.17
		c-0.52-0.13-1.04,0.19-1.17,0.71c-0.18,0.71-0.33,1.43-0.49,2.16c-0.48-0.9-0.95-1.81-1.4-2.74c-0.24-0.48-0.82-0.68-1.3-0.44
		c-0.48,0.24-0.68,0.82-0.45,1.3c0.57,1.17,1.18,2.33,1.79,3.47c-1.26-0.19-2.54-0.32-3.77-0.32c-0.54,0-0.97,0.43-0.97,0.97
		c0,0.53,0.43,0.97,0.97,0.97c1.02,0,2.18,0.1,3.37,0.28l-1.71,1.64c-0.39,0.37-0.4,0.98-0.03,1.37c0.19,0.2,0.45,0.3,0.7,0.3
		c0.24,0,0.48-0.09,0.67-0.27l1.16-1.11c-0.14,0.98-0.26,1.96-0.36,2.94c-0.06,0.53,0.33,1.01,0.86,1.06c0.03,0,0.07,0,0.1,0
		c0.49,0,0.91-0.37,0.96-0.87c0.1-0.98,0.23-1.95,0.36-2.93c0.23,0.38,0.46,0.76,0.69,1.13c0.18,0.29,0.5,0.45,0.82,0.45
		c0.18,0,0.35-0.05,0.51-0.15c0.45-0.28,0.59-0.88,0.31-1.34c-0.27-0.44-0.54-0.89-0.81-1.33c0.87,0.25,1.72,0.53,2.52,0.84
		c0.12,0.04,0.23,0.06,0.35,0.06c0.39,0,0.76-0.24,0.9-0.62C29.43,48.75,29.18,48.19,28.68,48"/>
</g>
</svg>
