<?xml version="1.0" encoding="utf-8"?>
<!-- Generator: Adobe Illustrator 25.0.0, SVG Export Plug-In . SVG Version: 6.00 Build 0)  -->
<svg version="1.1" id="Calque_1" xmlns="http://www.w3.org/2000/svg" xmlns:xlink="http://www.w3.org/1999/xlink" x="0px" y="0px"
	 viewBox="0 0 172 152" style="enable-background:new 0 0 172 152;" xml:space="preserve">
<style type="text/css">
	.st0{fill:#FFFFFF;}
	.st1{fill:#004461;}
</style>
<path id="Tracé_4183" class="st0" d="M48.7,34.4c-0.2-0.7-0.5-1.4-0.9-2l-0.7-0.7c-0.5-0.4-1.1-0.6-1.8-0.7c-0.5,0-1,0-1.5,0.2
	c-0.4,0-0.9,0.4-1.3,0.7c-0.4,0.3-0.7,0.6-0.9,1.1c-0.2,0.4-0.4,0.9-0.4,1.3v1.1c0.2,0.7,0.5,1.4,0.9,2l0.7,0.7
	c0.5,0.4,1.1,0.6,1.8,0.7c0.5,0,1,0,1.5-0.2c0.4,0,0.9-0.4,1.3-0.7c0.4-0.3,0.7-0.6,0.9-1.1c0.2-0.4,0.4-0.9,0.4-1.3V34.4z"/>
<path id="Tracé_4184" class="st0" d="M52.6,53.1c-1-2.3-3.7-3.4-6-2.4c-0.1,0.1-0.2,0.1-0.4,0.2c-1.2-0.6-2.5-0.7-3.7-0.2
	c-0.4,0.2-0.9,0.4-1.3,0.4l0,0c-1-0.7-2.2-0.9-3.3-0.4c-3,1.4-4.5,4.7-3.7,7.9c0.2,1.5,1.2,2.7,2.6,3.1c1.3,0.5,2.8,0.2,4-0.7
	c0.2-0.2,0.4-0.2,0.7-0.4c0.3,0.2,0.4,0.5,0.4,0.9l1.3,1.3c0.5,0.4,1.1,0.7,1.8,0.9c1,0.3,2.1,0.3,3.1,0c1,0.3,2,0.2,2.9-0.2
	C54.6,61.7,54,56.4,52.6,53.1z"/>
<path id="Tracé_4185" class="st0" d="M105.7,34.9c0.1-0.4,0-0.8-0.2-1.1c0-0.4-0.2-0.7-0.4-1.1c-0.3-0.5-0.7-0.9-1.1-1.3
	c-0.3-0.3-0.5-0.5-0.9-0.7c-0.5-0.2-1-0.4-1.5-0.4c-0.6,0-1.2,0-1.8,0.2c-0.6,0.2-1.1,0.5-1.5,0.9c-0.2,0.2-0.4,0.7-0.9,0.9
	c-0.4,0.6-0.7,1.3-0.9,2v1.1c0.2,0.8,0.5,1.5,0.9,2.2l0,0c0.2,0.2,0.7,0.4,0.9,0.9l0,0c0.4,0.2,0.7,0.4,1.1,0.7l0,0
	c0.7,0.3,1.5,0.4,2.2,0.2c0.4-0.2,0.7-0.2,1.1-0.4s0.7-0.4,1.1-0.7c0.2-0.2,0.4-0.7,0.9-0.9c0.4-0.4,0.7-1,0.7-1.5
	C105.7,35.5,105.7,35.3,105.7,34.9z"/>
<path id="Tracé_4186" class="st0" d="M111.4,56c0-0.2-0.1-0.3-0.2-0.4l0,0c0-0.5,0-1,0.2-1.5c0.1-1.3-0.3-2.7-1.1-3.7
	c-0.6-0.8-1.6-1.4-2.6-1.5c-1.3-0.2-2.6,0-3.7,0.7c-1-0.2-2.1-0.2-3.1,0c-0.2-0.2-0.2-0.4-0.4-0.4c-0.9-1-2.3-1.2-3.5-0.7
	c-0.4,0.2-1.1,0.7-1.5,0.9L94,50.5c-0.6,0.8-1.2,1.7-1.5,2.6c-0.7,1.7-1.1,3.5-1.3,5.3c-0.1,1.7,0.7,3.3,2.2,4.2
	c1.6,0.9,3.5,0.7,4.8-0.4c0.2-0.2,0.7-0.4,0.9-0.7c1.6,1.4,3.7,2,5.7,1.8c0.5,0,0.9-0.2,1.3-0.4c0.2,0,0.4,0.2,0.7,0.2
	c1.7,0.3,3.4-0.5,4.4-2C112.1,59.5,112.2,57.6,111.4,56z"/>
<path id="Tracé_4187" class="st0" d="M77.3,81.7c0-0.4-0.2-0.8-0.4-1.1c-0.2-0.5-0.6-1-1.1-1.3c-0.4-0.2-0.7-0.4-1.1-0.7
	c-0.4-0.2-0.9-0.3-1.3-0.2h-0.2c-0.6-0.2-1.2-0.3-1.8-0.2l-1.1,0.4c-0.6,0.2-1.1,0.6-1.5,1.1c-0.2,0.2-0.4,0.7-0.7,0.9
	c-0.3,0.6-0.5,1.2-0.7,1.8v1.1c0.1,0.8,0.5,1.6,1.1,2.2l0.9,0.9h0.2c0.3,0.3,0.7,0.5,1.1,0.7l0,0c0.4,0.2,0.9,0.2,1.3,0.2h1.3
	c0.4-0.2,0.9-0.2,1.1-0.4h0.2c0.6-0.2,1.1-0.6,1.5-1.1c0.4-0.4,0.7-1,0.9-1.5c0-0.4,0.2-0.7,0.2-1.1C77.7,82.8,77.5,82.4,77.3,81.7z
	"/>
<path id="Tracé_4188" class="st0" d="M83.2,101.1c-0.3-0.6-0.7-1.2-1.1-1.8c-0.4-0.4-0.9-1.1-1.5-1.3c-0.7-0.5-1.5-0.8-2.4-0.9H78
	l-0.7-0.7c-1.5-1.1-3.5-1.3-5.3-0.7c-0.7,0.2-1.3,0.7-1.8,1.3c-0.4-0.4-0.8-0.8-1.3-1.1c-0.9-0.2-1.3-0.4-2-0.2
	c-0.8,0.1-1.5,0.5-2,1.1c-0.5,0.5-0.9,1-1.3,1.5c-0.9,1.1-1.3,2.5-1.3,4c-0.2,3.3,1.7,6.3,4.8,7.5c1.6,0.6,3.4,0.6,5.1,0
	c0.9,0.9,2.1,1.4,3.3,1.5c1.3,0.2,2.7-0.2,3.7-1.1c2.9,0,4.6-2.4,5.1-5.1C84.1,103.9,83.8,102.4,83.2,101.1z"/>
<g id="Groupe_1576" transform="translate(321.25 241.265)">
	<path id="Tracé_4209" class="st1" d="M-255-205.7"/>
	<path id="Tracé_4210" class="st1" d="M-256.4-201.9"/>
	<path id="Tracé_4211" class="st1" d="M-257.9-201.9"/>
	<path id="Tracé_4212" class="st1" d="M-255.5-202.4"/>
	<path id="Tracé_4213" class="st1" d="M-255-203.5"/>
	<path id="Tracé_4214" class="st1" d="M-255.5-206.1"/>
	<path id="Tracé_4215" class="st1" d="M-251.9-207.2c-0.7-1.3-2.2-2.6-3.7-2.4c-0.1,0-0.2,0.1-0.2,0.2c0,0,0,0,0,0
		c0-0.2,0.2-0.2,0.2-0.4c0-0.4-0.7-0.9-1.1-1.1c-0.7-0.1-1.5-0.1-2.2,0.2c-1.2,0.5-2.3,1.3-3.1,2.4c-1.5,2.2-1.5,5.1,0,7.3
		c1.5,2.1,4.1,3.2,6.6,2.6c2.4-0.7,4.2-2.8,4.4-5.3C-251-204.9-251.3-206.1-251.9-207.2z M-254.8-203.5L-254.8-203.5
		c0,0.2-0.2,0.4-0.2,0.7c0,0.1-0.1,0.2-0.2,0.2c0,0,0,0,0,0l-0.2,0.2l0,0l-0.2,0.2c-0.1,0-0.2,0.1-0.2,0.2c0,0,0,0,0,0h-1.8
		c-0.2,0-0.4-0.2-0.7-0.2l0,0c-0.1,0-0.2-0.1-0.2-0.2c0,0,0,0,0,0c-0.2-0.2-0.4-0.2-0.7-0.4l0,0l-0.2-0.2l-0.4-0.4l-0.2-0.2v-0.7
		l0,0v-1.8c0-0.2,0-0.2,0.2-0.4l0.2-0.2c0.4-0.9,1.1-1.6,2-2c0.2-0.2,0.4-0.2,0.9-0.2h0.2c0.2,0,0.5-0.1,0.7-0.2
		c-0.4,0.5-0.4,1.3,0,1.8l0.7,0.7l0.2,0.2l0.2,0.2l0,0l0.2,0.2l0,0v0.2c0,0.2,0.1,0.3,0.2,0.4c-0.2-0.4,0,0,0,0.2v0.2l0,0
		C-254.7-204.5-254.8-204-254.8-203.5L-254.8-203.5z"/>
</g>
<g id="Groupe_1577" transform="translate(378.303 241.265)">
	<path id="Tracé_4216" class="st1" d="M-253.8-205"/>
	<path id="Tracé_4217" class="st1" d="M-252.9-210.7c-0.7-0.3-1.5-0.4-2.2-0.2c-0.4,0-0.7,0.2-1.1,0.4l0,0c0.4-0.2,0.2-0.2,0,0l0,0
		c-0.4-0.2-0.7-0.2-1.1-0.4h-1.8c-1.3,0.3-2.4,1.1-3.1,2.2c-0.7,1-1.1,2.3-1.1,3.5v1.8c0.1,0.8,0.4,1.6,0.9,2.2
		c1.5,2.2,4.1,3.4,6.8,3.1c2.7-0.5,5-2.4,5.9-5.1C-248.7-205.9-249.8-209.6-252.9-210.7z M-253.8-204.6L-253.8-204.6
		c0,0.2-0.2,0.7-0.2,0.9l0,0c0,0.1-0.1,0.2-0.2,0.2c0,0,0,0,0,0c0,0.2-0.2,0.2-0.2,0.4l0,0c-0.2,0-0.4,0.4-0.7,0.4l0,0
		c-0.1,0-0.2,0.1-0.2,0.2c0,0,0,0,0,0c-0.2,0-0.4,0.2-0.7,0.2h-1.3l-0.7-0.2l0,0c-0.2,0-0.2-0.2-0.4-0.2c-0.1,0-0.2-0.1-0.2-0.2
		c0,0,0,0,0,0l-0.2-0.2c-0.2-0.2-0.4-0.4-0.4-0.7l0,0c-0.2-0.2-0.2-0.4-0.4-0.7l0,0v-0.2l0,0v-0.4l0,0v-0.9c0-0.2,0.2-0.4,0.2-0.9
		l0,0c0-0.2,0-0.2,0.2-0.2c0-0.1,0.1-0.2,0.2-0.2c0,0,0,0,0,0c0.2-0.2,0.2-0.4,0.4-0.7l0.2-0.2l0.4-0.4v-0.2c-0.2,0.7,0.1,1.5,0.7,2
		c0.4,0.2,0.9,0.4,1.3,0.4c0.2,0,0.2,0,0.4-0.2c-0.1,0-0.2-0.1-0.2-0.2c0,0,0,0,0,0c0.1,0,0.2,0.1,0.2,0.2c0,0,0,0,0,0h0.9l0.2,0.2
		l0,0c0,0.1,0.1,0.2,0.2,0.2c0,0,0,0,0,0v0.9l0,0C-253.8-204.8-253.8-204.8-253.8-204.6z"/>
	<path id="Tracé_4218" class="st1" d="M-254.6-206.3"/>
	<path id="Tracé_4219" class="st1" d="M-255.3-206.5h-0.4C-255.6-206.4-255.4-206.4-255.3-206.5
		C-255.3-206.5-255.3-206.5-255.3-206.5z"/>
</g>
<path id="Tracé_4220" class="st1" d="M97.7,81.4c-0.2-0.5-0.5-0.8-0.9-1.1c-0.4-0.4-0.9-0.4-1.5-0.7c-0.9-0.2-1.8,0.9-1.5,1.8v0.4
	c0,0.2,0,0.2,0.2,0.4c0.2,0.4,0.4,0.7,0.2,0.2l0.2,0.2l0.2,0.4l0,0v1.1l0,0v0.7l0,0c0,0.2,0,0.2-0.2,0.4c0,0.2-0.1,0.3-0.2,0.4v-0.2
	c0,0.1-0.1,0.2-0.2,0.2c0,0,0,0,0,0L93.7,86c0,0.1-0.1,0.2-0.2,0.2c0,0,0,0,0,0l0,0l-0.4,0.4h-2.2c-0.2,0-0.4-0.2-0.7-0.2l0,0
	c-0.1,0-0.2-0.1-0.2-0.2c0,0,0,0,0,0c-0.2,0-0.2-0.2-0.4-0.4l-0.2-0.2l-0.2-0.2l-0.2-0.2l0,0c0-0.2-0.2-0.4-0.2-0.7l0,0v-0.7l0,0
	v-0.7l0,0v-0.7c0-0.2,0.2-0.2,0.2-0.4l0.2-0.2l0.2-0.2l0.2-0.2l0.2-0.2c0.2-0.2,0.4-0.2,0.7-0.4h0.2c0.1,0,0.2-0.1,0.2-0.2
	c0,0,0,0,0,0c0.2-0.2,0.4-0.2,0.7-0.4c0.2-0.2,0.4-0.2,0.7-0.2c0.2,0,0.2,0,0.4-0.2h0.4l0.2-0.2c0.2,0,0.2-0.2,0.4-0.2
	c0.2-0.2,0.4-0.2,0.7-0.4l1.3-0.7c0.2-0.2,0.4-0.7,0-0.7c-1-0.4-2-0.7-3.1-0.7c-1.3,0.1-2.6,0.6-3.7,1.3c-2.2,1.3-3.5,3.6-3.5,6.2
	c0,2.6,2.2,4.8,4.6,5.5c2.6,0.8,5.3-0.2,6.8-2.4c0.7-1.3,1.1-2.7,1.1-4.2C98,82.6,98,81.9,97.7,81.4z"/>
<path id="Tracé_4221" class="st1" d="M75.5,56.7c-0.4-2-1.4-3.9-2.9-5.3c-2.6-2.1-6.3-2.5-9.2-0.9c-0.2-0.2-0.2-0.7-0.4-0.9
	c-0.2-0.4-0.6-0.7-1.1-0.7c-1.9-0.3-3.9-0.2-5.7,0.4c-1.5,0.8-2.8,2-3.5,3.5c-0.4,0.7-0.7,1.6-0.7,2.4c-0.1,0.4-0.1,0.7-0.2,1.1
	c0,0.4,0.2,0.9,0.2,1.3v3.7c0,0.7,0.2,1.3,0.2,1.8c0.2,0.9,1.8,0.7,1.5-0.2c-0.1-0.8-0.3-1.6-0.7-2.4c-0.3-0.9-0.5-1.9-0.7-2.9
	c0-0.5,0.2-1.1,0.4-1.5c0.2-0.8,0.5-1.5,0.9-2.2c1.5-2.9,4.4-3.3,7.3-3.1c0.2,0.7,0.4,1.1,0.7,1.8c0.3,0.6,1,0.9,1.6,0.7
	c0.1-0.1,0.2-0.1,0.3-0.2c2.2-1.9,5.5-1.9,7.7,0c1,1.2,1.7,2.6,2,4.2c0.3,0.8,0.4,1.6,0.4,2.4c0,0.9-0.2,1.8-0.4,2.6
	c-0.2,1.1,1.8,1.5,2,0.2c0-1.1,0-2.2,0.2-3.3c0-0.4,0.2-0.9,0.2-1.5C75.6,57.5,75.5,57.1,75.5,56.7z"/>
<path id="Tracé_4222" class="st1" d="M72.8,63.3c0-0.2-0.1-0.5-0.2-0.7c0-0.2-0.2-0.7-0.2-0.9c-0.1-0.3-0.2-0.6-0.4-0.9
	c-0.2-0.4-0.7-0.9-0.9-0.9c-0.3-0.2-0.8-0.2-1.1,0c-0.4,0-0.7,0.2-0.9,0.7c0,0.2-0.2,0.2-0.2,0.4c-0.2,0.3-0.2,0.6,0,0.9v0.7
	c0,0.2,0.1,0.5,0.2,0.7v0.2h-1.3c-0.9,0-1.8,0.2-2.6,0.2h-2.4c-0.9-0.1-1.8-0.1-2.6,0h-0.2v-0.2c0-0.2-0.2-0.4-0.2-0.7
	s-0.2-0.2-0.2-0.4s-0.2-0.2-0.2-0.4S59,61.4,59,61.1v-0.9c0-0.2-0.1-0.3-0.2-0.4c-0.2-0.2-0.2-0.2-0.4-0.2c-0.4,0-0.7,0-0.9,0.4
	c0,0.1-0.1,0.2-0.2,0.2c0,0,0,0,0,0c-0.7,0.4-0.7,1.8-0.4,2.4v0.2h-0.2V64h0.2c0.1,0,0.2-0.1,0.2-0.2c0,0,0,0,0,0v-0.2
	c0.2,0.5,0.5,0.8,0.9,1.1c0.2,0.2,0.4,0.2,0.7,0.2c0,0.5,0.2,0.9,0.7,1.1c0.2,0.1,0.5,0.3,0.7,0.4l0,0c0.4,0.3,0.9,0.5,1.3,0.7
	c0.4,0,0.9,0.2,1.3,0.2c1,0.2,2.1,0.2,3.1,0c0.9,0,1.8,0,2.6-0.2c0.2,0,0.4-0.2,0.7-0.2c0.3,0,0.7-0.2,0.9-0.4
	c0.2-0.2,0.4-0.2,0.9-0.4h1.1c0.2,0,0.2,0,0.4-0.2c0.2,0,0.4-0.2,0.4-0.4c0.2-0.2,0.2-0.4,0.4-0.7C72.9,64.2,72.8,63.8,72.8,63.3z"
	/>
<path id="Tracé_4223" class="st1" d="M56.3,64c0-0.2,0-0.2-0.2-0.4c0-0.1-0.1-0.2-0.2-0.2c0,0,0,0,0,0c-0.1,0-0.2-0.1-0.2-0.2
	c0,0,0,0,0,0H55c-0.2,0-0.3,0.1-0.4,0.2l-0.2,0.2c-0.2,0.2-0.4,0.2-0.7,0.4c-0.1,0-0.2,0.1-0.2,0.2c0,0,0,0,0,0l-0.2,0.2v0.7
	c0,0.2,0.2,0.4,0.4,0.4h0.7c0.2,0,0.4-0.2,0.7-0.2c0.1,0,0.2-0.1,0.2-0.2c0,0,0,0,0,0h0.2c0.2,0,0.2-0.2,0.4-0.2v-0.4
	C56.3,64.2,56.3,64.2,56.3,64z"/>
<path id="Tracé_4224" class="st1" d="M106.5,104.7c-0.2-1.8-0.8-3.6-1.8-5.1c-1.1-1.4-2.5-2.4-4.2-3.1c-0.7-0.4-1.6-0.6-2.4-0.7
	c-0.5,0-1,0-1.5,0.2c-0.3,0.2-0.6,0.4-0.9,0.7c-0.2,0.2-0.2,0.6,0,0.8c0.1,0,0.1,0.1,0.2,0.1c0.3,0.3,0.5,0.5,0.9,0.7
	c0.3,0.2,0.7,0.3,1.1,0.2c0.7,0.2,1.3,0.2,1.8,0.7c1.2,0.5,2.2,1.3,2.9,2.4c0.7,1.1,1,2.3,1.1,3.5c-0.1,1.4-0.4,2.7-0.9,4v0.4h-1.1
	c-0.2,0-0.2,0-0.4,0.2v-1.1c0-0.2-0.2-0.4-0.2-0.7c-0.2-0.2-0.2-0.4-0.4-0.7c-0.2,0-0.2-0.2-0.4-0.2s-0.4-0.2-0.7-0.2H99
	c-0.2,0-0.4,0.2-0.7,0.4l-0.4,0.4c-0.2,0.2-0.2,0.7-0.4,0.9v0.9c-0.9-0.3-1.9-0.3-2.9,0c-0.9,0-1.5,0.2-2.4,0.2h-3.5
	c-0.5,0-0.9,0-1.3,0.2c0-0.7,0.2-1.3,0-1.8c-0.2-2-2.6-2-3.5-0.9v-0.4c-0.2-1.7-0.2-3.4,0-5.1c0.1-1.3,0.9-2.6,2-3.3
	c1.1-0.7,2.2-0.4,3.5-0.4c0.4,0,0.9-0.7,0.7-1.3c-0.9-1.8-3.1-1.5-4.6-0.9c-1.6,0.8-3,2.1-3.7,3.7c-1.1,1.8-1.1,4.2-1.1,6.2
	c0,1.1-0.2,2.2-0.2,3.3v3.7c0,1.1,0.9,2.4,2.2,2.2c1.3-0.3,2.4-1,3.3-2l0.4,0.4c0.5,0.4,1.1,0.6,1.8,0.7h4.2c0.9,0,1.8-0.2,2.6-0.2
	c0.6,0,1.2-0.2,1.8-0.4c0.4-0.2,0.8-0.5,1.1-0.9l0,0l-0.2,0.2l0.2-0.2l0,0c0.2,0,0.2,0.2,0.4,0.2s0.4,0.2,0.7,0.2h0.4
	c0.2,0,0.2,0,0.4-0.2c0.2,0,0.2-0.2,0.4-0.2s0.2-0.2,0.2-0.4l0,0l0.2,0.2c0.2,0.2,0.4,0.2,0.7,0.2h0.9c0.2,0,0.4-0.2,0.7-0.2h0.2
	c0.2,0,0.2-0.2,0.4-0.2V112c0.5,0.1,1.1-0.2,1.3-0.7C106,109.3,106.6,107,106.5,104.7z"/>
<g id="Groupe_1578" transform="translate(353.784 306.937)">
	<path id="Tracé_4225" class="st1" d="M-260.5-207.5"/>
	<path id="Tracé_4226" class="st1" d="M-258.7-209.9c0-0.2,0-0.4-0.2-0.4c-0.2-0.4-0.4-0.7-0.9-0.7h-0.7c-0.2,0-0.4,0.2-0.4,0.4
		c0,0.1-0.1,0.2-0.2,0.2c0,0,0,0,0,0c0,0.1-0.1,0.2-0.2,0.2c0,0,0,0,0,0c0,0.1-0.1,0.2-0.2,0.2c0,0,0,0,0,0c-0.1,0-0.2,0.1-0.2,0.2
		c0,0,0,0,0,0h-0.4c-0.1,0-0.2,0.1-0.2,0.2c0,0,0,0,0,0l-0.2,0.2c-0.2,0-0.4,0.2-0.4,0.4c-0.2,0.2,0,0.7,0.2,0.9l0,0
		c0,0.2,0.2,0.2,0.4,0.4c0.2,0,0.2,0.2,0.4,0.2h1.1c0.2,0,0.4-0.2,0.7-0.2c0.2,0,0.3-0.1,0.4-0.2l0.4-0.4c0.2-0.2,0.2-0.2,0.2-0.4
		v-0.2C-258.9-209.1-258.7-209.5-258.7-209.9z"/>
</g>
<path id="Tracé_4227" class="st1" d="M110.9,59.6v-1.5c0-0.4-0.2-1.1-0.2-1.5l0.2-0.2c0-0.2,0-0.2,0.2-0.4v-1.3
	c0-0.4,0.2-0.7,0.2-1.1c0-0.2-0.4-0.4-0.4-0.2c0,0.4-0.2,0.7-0.2,1.1c0,0.2-0.2,0.7-0.2,0.9c-0.2,0-0.2,0.2-0.2,0.4v0.4
	c0,0.2,0,0.4,0.2,0.4c0,0.4-0.2,1.1-0.2,1.5v3.1c0,0.7-0.2,1.3,0.4,1.8c0.3,0.2,0.6,0.2,0.9,0c0.4-0.5,0.5-1.1,0.4-1.8
	C111.3,61,110.8,60.3,110.9,59.6z"/>
<path id="Tracé_4228" class="st1" d="M122.3,48.6c-0.5-0.2-1-0.3-1.5-0.2H119c-0.5,0-1,0-1.5,0.2c-0.2,0-0.4,0.2-0.7,0.2
	c-0.4,0-0.7,0.2-0.7,0.4c-0.7,0.2-1.5,0.4-2.2,0.7c-0.4,0.2-0.7,0.4-1.1,0.7c-0.2,0-0.2,0.2-0.4,0.2s-0.2,0.2-0.4,0.4l0,0
	c0.2,0,0.4,0,0.4,0.2h1.5c0.7,0,1.5-0.2,2.2-0.2c0.2,0,0.4,0.2,0.7,0.2h0.7c0.5,0,1-0.1,1.5-0.2c0.4,0,0.9-0.2,1.5-0.2
	c0.5,0,1.1-0.2,1.5-0.4C123,49.9,123,48.8,122.3,48.6z"/>
<path id="Tracé_4229" class="st1" d="M134.9,58.7c0-1.9-0.2-3.7-0.7-5.5c-0.1-0.6-0.5-1-1.1-1.1c-0.4-0.2-0.7-0.2-1.1-0.4
	c-0.8-0.5-1.7-1-2.6-1.3l-2.6-1.3c-0.4-0.2-0.9-0.4-1.3-0.4c-0.5,0-0.9,0-1.3-0.2c-0.4,0-0.8,0.3-0.8,0.8c0,0.2,0.1,0.4,0.2,0.6
	c0.3,0.3,0.5,0.7,0.7,1.1c0.3,0.4,0.6,0.7,1.1,0.9c0.8,0.5,1.6,0.9,2.4,1.3c0.7,0.4,1.5,0.7,2.2,1.1c0.4,0.2,0.9,0.2,1.3,0.4
	c0.2,0,0.4,0.2,0.7,0.2c0.4,1.3,0.7,2.6,0.7,4c0,0.7-0.2,1.5-0.2,2.2c-0.2,0.4-0.2,0.9-0.4,1.3h-0.7c-0.4,0-0.7,0.2-1.1,0.2v-1.3
	l0,0v-0.2c0-0.2-0.2-0.4-0.2-0.7c-0.2-0.2-0.4-0.2-0.7-0.2h-0.4c-0.2,0-0.4,0.2-0.4,0.4v3.1c0,0.4,0.2,0.7,0.7,0.9
	c0.2,0.2,0.4,0.2,0.9,0.2l0,0c0,0.1,0.1,0.2,0.2,0.2c0,0,0,0,0,0c0.4,0.4,0.9,0.7,1.3,0.4c0.2,0,0.4-0.2,0.7-0.2
	c0.2-0.2,0.7-0.2,0.9-0.4c-0.2,0-0.2,0-0.4,0.2c0.2,0,0.4-0.2,0.7-0.2h0.7c0.2,0,0.4-0.2,0.7-0.2l0,0c0.3,0,0.6-0.2,0.7-0.5
	c0-0.1,0-0.1,0-0.2v-0.2c0.4-0.7,0.7-1.4,0.9-2.2C135.2,60.7,134.7,59.7,134.9,58.7z"/>
<path id="Tracé_4230" class="st1" d="M127,64.2c-0.4-0.4-1.1-0.4-1.8-0.7c-0.4,0-1.1-0.2-1.5-0.2h-3.3c-1.1,0-2.4-0.2-3.3,0.2
	c-0.2,0-0.5,0.1-0.7,0.2l0,0c0-0.2,0.2-0.4,0-0.7c0-0.2,0-0.2-0.2-0.4v-0.4c0-0.1-0.1-0.2-0.2-0.2c0,0,0,0,0,0
	c0-0.2-0.1-0.3-0.2-0.4c0-0.2-0.2-0.2-0.2-0.4c-0.1-0.1-0.3-0.2-0.4-0.2l0,0c-0.2-0.2-0.2-0.2-0.4-0.2h-0.4c-0.2,0-0.5,0.1-0.7,0.2
	c-0.2,0.2-0.2,0.4-0.2,0.7V62l0,0v0.2c0,0.2,0.1,0.5,0.2,0.7c0,0.2,0.1,0.3,0.2,0.4v0.2c0,0.2,0.1,0.3,0.2,0.4
	c0,0.1,0.1,0.2,0.2,0.2c0,0,0,0,0,0c0.2,0.2,0.4,0.4,0.7,0.4h0.4v0.2c0,0.4,0.4,0.7,0.9,0.9c0.4,0.2,0.9,0.4,1.3,0.4
	c0.5,0.2,1,0.3,1.5,0.2h4.8c1.1,0.1,2.3-0.1,3.3-0.7c0.4-0.4,0.4-0.9,0.1-1.3C127.2,64.3,127.1,64.3,127,64.2z"/>
<path id="Tracé_4231" class="st1" d="M114.4,64.4L114.4,64.4c-0.3-0.2-0.6-0.3-0.9-0.2h-2.9v-0.7c0-0.2-0.2-0.4-0.7-0.4
	c-0.2,0-0.2,0-0.4,0.2c-0.2,0-0.2,0.2-0.2,0.4v1.1l0,0v0.7c0,0.2,0.2,0.2,0.2,0.4h0.7c0.2,0,0.2,0.2,0.4,0.2h2.6
	c0.2,0,0.2,0,0.4-0.2c0.2,0,0.2,0,0.4-0.2c0.1,0,0.2-0.1,0.2-0.2c0,0,0,0,0,0l0,0C114.6,65.2,114.6,64.8,114.4,64.4z"/>
<path id="Tracé_4232" class="st1" d="M75,92.8c-0.4-1.1-1.5-1.3-2.4-1.8c-0.9-0.5-1.7-1.1-2.4-1.8c-1.5-1.4-2.8-3-3.7-4.8
	c-2.4-4.4-3.1-9.5-3.7-14.3c-0.2-0.9-1.3-0.7-1.3,0.2c0.2,5.3,0.2,11,2.9,15.8c1.1,2,2.4,3.8,4,5.5c0.9,0.9,1.8,1.6,2.9,2.2
	c1.1,0.7,2.4,1.5,3.5,0.9C75,94.3,75.2,93.5,75,92.8z"/>
<path id="Tracé_4233" class="st1" d="M107.4,43.1c-1.8-1.8-5.5-1.8-7.9-2c-2.9-0.2-5.9-0.2-8.8,0c-3,0.1-6,0.7-8.8,1.8
	c-2.6,0.9-5.5,1.5-7.7,3.3c-0.3,0.2-0.4,0.7-0.2,1c0.2,0.3,0.5,0.4,0.8,0.3c2.9-0.4,5.3-1.8,8.1-2.2c2.6-0.4,5.5-0.9,8.1-1.1
	c2.8-0.3,5.6-0.2,8.4,0.2l4,0.7c1.3,0.2,2.6,0.7,4,0.2C107.6,44.6,107.8,43.5,107.4,43.1z"/>
<path id="Tracé_4234" class="st1" d="M123.4,70.6c-0.1-0.8-0.8-1.3-1.6-1.2c-0.6,0.1-1.1,0.6-1.2,1.2c-0.4,2.2-0.7,4.4-1.1,6.6
	c-0.6,2.2-1.4,4.3-2.4,6.4c-1.1,1.9-2.4,3.8-3.7,5.5c-0.7,0.8-1.4,1.5-2.2,2.2c-0.4,0.4-1.1,0.9-1.3,1.3c-0.2,0.5-0.4,1-0.4,1.5
	c0,0.4,0.4,1.1,0.9,1.1c0.6,0.1,1.2,0.1,1.8,0c0.6-0.2,1.1-0.6,1.5-1.1c0.9-0.9,1.8-1.9,2.6-2.9c1.6-1.9,3-4,4.2-6.2
	C122.3,80.7,124.1,75.4,123.4,70.6z"/>
</svg>
