<?xml version="1.0" encoding="utf-8"?>
<!-- Generator: Adobe Illustrator 25.0.0, SVG Export Plug-In . SVG Version: 6.00 Build 0)  -->
<svg version="1.1" id="Calque_1" xmlns="http://www.w3.org/2000/svg" xmlns:xlink="http://www.w3.org/1999/xlink" x="0px" y="0px"
	 viewBox="0 0 172 152" style="enable-background:new 0 0 172 152;" xml:space="preserve">
<style type="text/css">
	.st0{fill:#FFFFFF;}
	.st1{fill:#004461;}
</style>
<path id="Tracé_4189" class="st0" d="M109.9,63.7c-2.9-6.2-6.8-12.5-13-15.8C91,44.6,83.8,44.2,77.1,45c-1.4,0.2-2.8,0.5-4.2,0.9
	c0-0.4-0.2-0.7-0.4-1.1c-2-2.9-6.8-1.8-9.7-1.1c-6.8,1.8-13.4,4.8-18.5,9.7s-8.6,11.4-8.6,18.5C35.7,79,38.3,85.8,43,91
	c2.8,2.8,6.1,5,9.7,6.6l4.6,2c0.4,0.2,0.7,0.4,1.1,0.7l0,0c-0.4,1.1-0.7,2.2-0.9,3.3c-0.2,0.8-0.3,1.6-0.2,2.4c0,1.1,0,2.2,0.2,3.3
	c0.2,1,0.5,2,1.1,2.9c-0.2,0.3-0.3,0.7-0.2,1.1v1.1l0,0c0,1.1,0.9,2.2,2,2h0.9c0.7-0.2,1.4-0.5,2-0.9c0.2-0.2,0.7-0.4,0.9-0.7
	l1.3-0.7c0.4-0.4,0.7-0.8,0.9-1.3c0.5-0.5,1-0.9,1.5-1.3h0.2c12.1-2,26-4.6,35.9-12.5c5-3.9,8.4-9.6,9.5-15.8
	C114.6,76.3,112.6,69.7,109.9,63.7z"/>
<path id="Tracé_4205" class="st1" d="M110.8,63c-2.1-3.8-6.3-5.8-10.6-5.1c-2.1,0.4-4,1.4-5.5,2.9c-1.3,1.3-3.1,3.3-3.1,5.3
	c0.1,0.8,0.8,1.4,1.6,1.3c0.3,0,0.6-0.2,0.8-0.4c0.7-0.7,0.9-1.5,1.5-2.2c0.5-0.7,1.1-1.4,1.8-2c1.3-0.9,2.8-1.5,4.4-1.5
	c3.4,0.1,6.2,2.6,6.6,5.9c0.2,3.7-3.1,6.6-5.5,9c-2.9,3.1-5.1,7-3.5,11.2c0.7,2,4,0.9,3.5-1.1c-1.1-4.8,4.2-8.4,6.8-11.7
	C112.6,71.4,113,66.7,110.8,63z"/>
<path id="Tracé_4206" class="st1" d="M103.5,92L103.5,92c-0.1-0.3-0.2-0.5-0.4-0.7l-0.4-0.4c-0.2,0-0.4-0.2-0.7-0.2
	c-0.3-0.2-0.6-0.3-0.9-0.2h-0.7c-0.2,0-0.4,0.2-0.7,0.2c-0.2,0-0.4,0.2-0.4,0.4c-0.3,0.2-0.4,0.5-0.4,0.9v0.2
	c-0.2,0.4-0.3,0.9-0.2,1.3c0,0.5,0.2,0.9,0.4,1.3l0.2,0.2l0.7,0.7c0.2,0.2,0.4,0.2,0.9,0.2h0.7c0.4,0,0.8-0.2,1.1-0.4l0,0l0.4-0.4
	c0.2-0.2,0.4-0.5,0.4-0.9v-0.7C103.6,93.1,103.6,92.5,103.5,92z"/>
<path id="Tracé_4207" class="st1" d="M95.1,110.5c-0.7-0.1-1.5-0.1-2.2,0.2c-0.8,0.1-1.5,0.3-2.2,0.7c-1.4,0.7-2.8,1.5-4.2,2.4
	c-1.1,0.7-2.2,1.5-3.3,2.2v-4.2c0-1.4-0.2-2.8-0.4-4.2c-0.2-0.7-0.2-1.5-0.4-2.2c-0.1-0.3-0.2-0.6-0.4-0.9c-0.2-0.4-0.7-0.4-0.9-0.9
	c-0.1-0.2-0.4-0.2-0.6-0.1c0,0-0.1,0.1-0.1,0.1c0,0.4-0.2,0.7-0.4,1.1c-0.2,0.3-0.3,0.7-0.2,1.1v2c0,1.4,0,2.8-0.2,4.2
	c-0.2,2.9-0.4,5.5-0.9,8.4c-0.1,0.9,0.3,1.8,1.1,2.2c0.8,0.4,1.7,0.3,2.4-0.2c2.4-1.5,4.6-3.1,7-4.6c1.3-0.9,2.6-1.5,4-2.4
	c0.2-0.2,0.4-0.2,0.9-0.4c0.2-0.2,0.4-0.7,0.9-0.9c0.7-0.7,1.1-0.9,1.3-1.8C96.3,111.5,95.8,110.8,95.1,110.5z"/>
<path id="Tracé_4208" class="st1" d="M134.3,53.7c-10.8-11.4-27.1-15.2-42.3-12.3c-15,2.9-30.6,11-34.1,27.1
	c-1.7,7.7-0.2,15.9,4.2,22.4c4,5.7,11.7,11.4,18.7,11.7c1.1,0,1.5-1.3,0.4-1.8c-2.6-1.3-5.5-2.2-8.1-4c-2.6-1.9-4.9-4.2-6.8-6.8
	c-3.8-5-5.5-11.2-4.8-17.4c0.6-6.4,3.6-12.4,8.4-16.7c5.5-4.8,12.8-7.9,19.8-9.7c13.4-3.3,27.7-1.5,38.7,7.5
	c10.1,8.4,14.5,23.3,8.4,35.4c-3.1,6.2-8.8,10.3-15.2,13.2c-3.2,1.3-6.5,2.4-9.9,3.3c-3.3,0.9-6.8,1.1-9.9,2.4
	c-0.8,0.4-1.1,1.3-0.7,2c0.2,0.5,0.7,0.8,1.2,0.9c6.8,0.7,14.5-2,20.7-4.6c6.2-2.6,12.1-6.8,15.8-12.5
	C147.1,81.3,144.2,64.3,134.3,53.7z"/>
</svg>
