<?xml version="1.0" encoding="utf-8"?>
<!-- Generator: Adobe Illustrator 25.0.0, SVG Export Plug-In . SVG Version: 6.00 Build 0)  -->
<svg version="1.1" id="Calque_1" xmlns="http://www.w3.org/2000/svg" xmlns:xlink="http://www.w3.org/1999/xlink" x="0px" y="0px"
	 viewBox="0 0 172 152" style="enable-background:new 0 0 172 152;" xml:space="preserve">
<style type="text/css">
	.st0{fill:#FFFFFF;}
	.st1{fill:#004461;}
</style>
<path id="Tracé_4180" class="st0" d="M106.9,77.3c-0.7-2.2-1.3-4.5-1.7-6.8c-0.8-4.8-3.9-6.8-8.2-7.9c-12.7-2.8-27.6-3.1-40.3,0.6
	c-0.6,0-1.4-0.3-2-0.3c-2.3-0.3-4.8-1.1-7-0.3c-4.8,2.3-7.3,10.2-7.9,14.9c-0.6,5.4,0.3,13.5,4.8,17.2c2.8,2.3,6.2,2,9.6,2
	c3.7,0.3,7,0.3,10.7,0.6c7,0.3,13.8,0.6,20.9,0.8c5.9,0.3,12.7,0.8,17.8-3.1C108.8,90.8,108.8,83.8,106.9,77.3z"/>
<path id="Tracé_4250" class="st1" d="M141.8,65.5c-4.2-5.9-13-6.2-19.5-6.5c-7.6-0.6-16.1-0.8-23.7,1.1c0-0.3,0-0.6-0.3-0.6
	c-1.4,0.3-2.8,0-4.2,0.3c-1.4,0-2.8,0.3-4.2,0.3c-1.4,0-2.8,0.3-4.2,0.3c-1.4,0.3-2.8,0-4.2,0.3c-0.3,0-0.3,0.3,0,0.3
	c1.4,0.3,2.8,0.3,4.2,0.6c1.3,0.2,2.6,0.3,3.9,0.3c1.4,0,2.8-0.3,4.2-0.3c0.9-0.1,1.7-0.2,2.5-0.6c-0.6,0.6-0.6,1.6,0.1,2.1
	c0.2,0.2,0.5,0.3,0.8,0.4c5.9,0,11.8-0.8,17.8-0.8c6.1-0.1,12.1,0.6,18,2c5.1,1.4,7.6,5.4,9,10.2c1.1,5.2,0.8,10.7-0.8,15.8
	c-2.3,6.5-9,6.8-14.9,6.5c-6.2-0.3-12.4-0.3-18.3-0.8c-5.9-0.3-11.8-0.3-17.8-0.3c-4.8,0-10.7,0.3-14.1-3.7s-3.1-11-2.8-15.8
	c0.3-5.4,1.7-11,5.6-14.9c0-0.2-0.1-0.3-0.3-0.3c0,0,0,0,0,0c-4.8,2-6.5,5.6-7.9,10.4c-1.4,5.5-1.7,11.3-0.8,16.9
	c2.5,14.1,19.7,11.6,30.5,11.6c7.6,0,15.5-0.3,23.1-0.6c5.6-0.3,11.8,0.3,15.8-4.2c3.7-3.9,3.9-10.7,4.2-15.8
	C144.1,75,144.7,69.7,141.8,65.5z"/>
<path id="Tracé_4251" class="st1" d="M126.6,70.8c0-0.3-0.3-0.6-0.3-0.8c0-0.3-0.3-0.6-0.6-0.8l-0.8-0.8c-0.2-0.2-0.5-0.3-0.8-0.3
	c-0.3,0-0.3,0-0.6-0.3h-1.4c-0.3,0-0.6,0.1-0.8,0.3l0,0c-0.2,0-0.4,0.1-0.6,0.3l0,0c-0.3,0.3-0.6,0.3-0.8,0.6l-0.3,0.3l-0.6,0.6V70
	c0,0.3-0.3,0.3-0.3,0.6l0,0c0,0.3-0.3,0.6-0.3,0.8v1.1l0,0l0.3,0.6l0,0l0.3,0.3c0,0.2,0.1,0.3,0.3,0.3c0,0,0,0,0,0l0.6,0.6
	c0.2,0,0.3,0.1,0.3,0.3c0,0,0,0,0,0c0.3,0,0.3,0.3,0.6,0.3h4.2c0.3,0,0.3-0.3,0.6-0.3l0.6-0.6l0,0c0-0.2,0.1-0.4,0.3-0.6
	c0.2-0.3,0.3-0.7,0.3-1.1C126.9,71.8,126.9,71.2,126.6,70.8z"/>
<path id="Tracé_4252" class="st1" d="M116.2,78.7c0-0.3-0.3-0.3-0.3-0.6l0,0v-0.3l0,0c0-0.3-0.1-0.6-0.3-0.8c0-0.3-0.3-0.3-0.3-0.6
	c-0.3-0.3-0.6-0.6-0.8-0.6c-0.3,0-0.3-0.3-0.6-0.3h-1.1c-0.3,0-0.6,0.1-0.8,0.3l-0.6,0.3l0,0l-0.6,0.6l0,0c0,0.2-0.1,0.4-0.3,0.6
	l0,0c0,0.3-0.1,0.6-0.3,0.8l0,0V79l0,0c0,0.3,0.3,0.6,0.3,0.8l0.3,0.6l0,0l0.6,0.6l0,0c0.2,0,0.4,0.1,0.6,0.3l0,0
	c0.3,0,0.6,0.1,0.8,0.3l0,0c0.6,0,1.2-0.1,1.7-0.3c0.3,0,0.3-0.3,0.6-0.3c0.3-0.3,0.6-0.6,0.6-0.8c0-0.3,0.3-0.3,0.3-0.6v-1.1
	C116.5,79,116.2,79,116.2,78.7z"/>
<path id="Tracé_4253" class="st1" d="M126.9,87.4c0-0.3-0.1-0.6-0.3-0.8l0,0c0-0.3-0.3-0.5-0.6-0.6l0,0l-0.6-0.6l0,0
	c-0.3-0.3-0.6-0.3-0.8-0.6c-0.3,0-0.6-0.1-0.8-0.3H123c-0.3,0-0.6,0.3-0.8,0.3c-0.3,0-0.3,0.3-0.6,0.3l0,0c-0.6,0.2-1.1,0.6-1.4,1.1
	c-0.3,0.3-0.3,0.6-0.6,0.8c0,0.3-0.3,0.6-0.3,0.8v1.4c0.1,0.3,0.2,0.6,0.3,0.8c0.3,0.3,0.3,0.6,0.6,0.8c0.3,0.3,0.6,0.6,0.8,0.6
	c0.2,0.2,0.5,0.3,0.8,0.3l0,0c0.3,0,0.6,0.3,0.8,0.3h1.1c0.3,0,0.6-0.3,0.8-0.3h0.3c0.7-0.3,1.3-0.8,1.7-1.4
	c0.3-0.3,0.3-0.6,0.6-0.8c0-0.3,0.3-0.6,0.3-0.8l0,0C127.1,88.5,126.9,88,126.9,87.4z"/>
<path id="Tracé_4254" class="st1" d="M136.2,78.1c-0.6-0.5-1.2-0.9-2-1.1H130c-0.3,0-0.8,0.3-1.1,0.3l-0.6,0.3l-0.6,0.6
	c-0.3,0.6-0.6,0.8-0.6,1.4v0.6c0,0.3,0,0.3,0.3,0.6l0.3,0.3l0,0v1.1c0,0.3,0,0.6,0.3,0.6c0.3,0.3,0.3,0.6,0.6,0.8
	c0.3,0.3,0.7,0.6,1.1,0.6c0.3,0,0.3,0,0.6,0.3h1.7c0.3,0,0.8-0.3,1.1-0.3c0.8-0.3,1.5-0.9,2-1.7c0.6-0.6,0.9-1.4,0.8-2.3
	C137,79.6,136.8,78.7,136.2,78.1z"/>
<path id="Tracé_4255" class="st1" d="M98.4,77c-1.2-0.8-2.8-0.8-3.9,0h-1.7v-3.9c0-0.8-0.2-1.6-0.6-2.3c-0.3-0.8-1.1-1.4-2-1.4
	c-0.9,0-1.7,0.6-2,1.4c-0.6,1.3-1,2.8-1.1,4.2v2.3c-0.9,0-1.7,0-2.5,0.3c-0.7,0-1.3,0.1-2,0.3h-0.8c-0.6,0-0.8,0.3-1.4,0.6
	c-0.9,0.4-1.2,1.5-0.8,2.3c0.2,0.3,0.4,0.6,0.8,0.8c0.3,0,0.3,0,0.6,0.3c0.8,0.5,1.7,0.6,2.5,0.6c1.1,0.3,2,0.3,3.1,0.6h0.8
	c0,1.7,0.3,3.4,0.3,5.4c0.3,1.7,2,2.8,3.7,2.5c1.7-0.2,2.8-1.8,2.6-3.4c0-0.1,0-0.1,0-0.2c-0.2-1.2-0.3-2.4-0.3-3.7
	c2,0.3,4.2,0.6,5.9-1.1C100.5,80.5,100,78.3,98.4,77z"/>
</svg>
