<?xml version="1.0" encoding="utf-8"?>
<!-- Generator: Adobe Illustrator 25.0.0, SVG Export Plug-In . SVG Version: 6.00 Build 0)  -->
<svg version="1.1" id="Calque_1" xmlns="http://www.w3.org/2000/svg" xmlns:xlink="http://www.w3.org/1999/xlink" x="0px" y="0px"
	 viewBox="0 0 172 152" style="enable-background:new 0 0 172 152;" xml:space="preserve">
<style type="text/css">
	.st0{fill:#FFFFFF;}
	.st1{fill:#004461;}
</style>
<path id="Tracé_4192" class="st0" d="M118.6,70.8c-0.2-1.5-0.4-3.1-0.7-4.4c-0.2-0.7-0.2-1.5-0.4-2.2c0-0.6-0.2-1.2-0.4-1.8
	c-0.2-0.4-0.2-0.7-0.4-1.1c-0.2-0.2-0.2-0.4-0.4-0.7l-0.7-0.7h-0.2c0-1.8,0-3.5,0.2-5.3c0.2-2.2-1.3-4.8-4-4.8
	c-4.8,0-9.5-0.2-14.3-0.2h-6.8c-1.3,0-2.5,0-3.7,0.2c-0.4-0.4-0.8-0.7-1.3-0.9c-0.9-0.3-1.9-0.3-2.9,0c-0.2,0.2-0.5,0.4-0.9,0.4
	c-0.5,0.4-0.9,0.9-1.1,1.5c-1.1,1.9-1.8,4-2,6.2c-0.3,2.1-0.2,4.3,0.4,6.4l0,0c-2.2,0-4.6,0-6.8-0.2c-2.6,0-5.1,0-7.7-0.2
	c-1.8,0-3.3-0.2-4.8,0.7c-0.2,0-0.4,0.2-0.7,0.4c-0.6-0.3-1.3-0.4-2-0.4c-5.1,0.9-4.6,6.8-4.6,10.6c-0.2,3.7-0.2,7.7-0.2,11.4
	c-0.2,2.7,1.7,5,4.4,5.3c1.6,0.4,3.2,0.5,4.8,0.4l0,0l-0.2,0.2l-0.4,0.4c0,0.2-0.2,0.2-0.2,0.4c-0.2,0.2-0.4,0.7-0.7,0.9
	c-0.4,0.5-0.7,1.1-0.9,1.8c-0.2,0.4-0.2,0.7-0.4,1.1c-0.2,0.8-0.2,1.6,0,2.4c0.2,0.2,0.2,0.4,0.4,0.7c0.3,0.4,0.6,0.7,1.1,0.9
	c0.6,0.3,1.3,0.4,2,0.4c0.9-0.2,1.6-0.6,2.2-1.3c0.7-0.8,1.1-1.8,1.3-2.9c0.2-0.4,0.2-0.7,0.4-1.1c0.3-0.6,0.4-1.3,0.4-2v-1.8
	c0.2,0.2,0.7,0.2,1.1,0.4c2.4,0.5,4.8,0.6,7.3,0.2c2.2-0.2,4.4-0.2,6.6-0.7c3.2-0.4,5.7-3,5.9-6.2c0.4-2.2,0.4-4.4,0.7-6.6v-1.8
	c1,0.7,2.3,1.1,3.5,0.9c4.8-0.2,9.7-0.7,14.3-1.1c0,0.1-0.1,0.2-0.2,0.2c0,0,0,0,0,0l0,0c-0.2,0.2-0.2,0.4-0.4,0.9
	c0,0.1-0.1,0.2-0.2,0.2c0,0,0,0,0,0c0,0.2-0.2,0.4-0.2,0.7c-0.3,0.7-0.4,1.4-0.4,2.2c0,0.5,0,0.9,0.2,1.3c0,0.5,0.2,0.9,0.7,1.1
	c0.2,0.4,0.7,0.7,0.9,0.9c0.4,0.2,0.7,0.4,1.1,0.4h0.9c0.6,0,1.1-0.2,1.5-0.7l0.7-0.7c0.3-0.5,0.5-1,0.7-1.5c0-0.4,0.2-0.9,0.2-1.3
	v-2c0-0.3-0.1-0.6-0.2-0.9c0-0.3-0.2-0.7-0.4-0.9l0.7,0.7c0.2,0.2,0.7,0.2,0.9,0.4c0.4,0.2,0.9,0.3,1.3,0.2c0.4,0,0.7,0,0.9-0.2
	c0.3,0,0.7-0.2,0.9-0.4c0.2-0.2,0.7-0.4,0.7-0.7c0.4-0.3,0.7-0.6,0.9-1.1c0.2-0.6,0.4-1.2,0.4-1.8v-0.9
	C118.4,73.2,118.6,71.9,118.6,70.8z M88.4,70.5c0-1-0.2-2.1-0.4-3.1h0.4c0.3,0.9,0.8,1.8,1.5,2.4C89.4,70.1,88.9,70.3,88.4,70.5
	L88.4,70.5z"/>
<path id="Tracé_4270" class="st1" d="M110.2,64.8c-0.7-1.9-2.3-3.3-4.2-4c-1.5-0.5-3.1-0.2-4.4,0.7l0,0c-1.7-0.4-3.4-0.5-5.1-0.4
	c-1.5,0-2.9,0-4.4,0.2c-3.3,0-6.8,0.2-10.1,0.2c-1.8,0-3.3,0.2-5.1,0.2c-1.3-0.1-2.5,0.1-3.7,0.4c-2.2,0.9-2.4,3.1-2.4,5.3
	c-0.2,3.3-0.2,6.8-0.4,10.1c-0.4,3-0.5,6-0.4,9c-0.1,2.5,1,4.8,2.9,6.4c0.8,0.7,1.8,1.2,2.9,1.3h2.4c-1.1,3.3-2.4,6.6-3.3,9.9
	c-0.7,2.4,2.6,3.7,3.5,1.5c0.4,0.3,0.9,0.4,1.3,0.2c0.7-0.2,1.2-0.7,1.5-1.3l1.3-1.3l2.6-3.3c0.8-1,1.5-2,2.2-3.1
	c0.4-0.7,0.7-1.1,1.1-1.8c0.2-0.2,0.4-0.5,0.4-0.9c0.2-0.3,0.3-0.6,0.2-0.9c0.2-0.7-0.4-1.1-1.1-0.7c-0.2,0.2-0.7,0.2-0.9,0.4
	c-0.3,0.3-0.5,0.5-0.9,0.7c-0.5,0.5-1,0.9-1.5,1.3c-0.9,1.1-2,2-2.9,3.1c-0.9,0.9-1.7,1.9-2.4,2.9c0,0.1-0.1,0.2-0.2,0.2
	c0,0,0,0,0,0c0.9-2.4,1.5-5.1,2.4-7.5c0.2-0.8,0-1.7-0.7-2.2c-1.5-1.3-3.1-0.9-4.8-0.9c-2.6-0.2-3.1-3.1-3.3-5.3
	c-0.4-5.5,0-11,0.2-16.5c0-0.9-0.2-2.4,0.2-3.3c0.7-1.5,2.6-1.3,4-1.3l7.9-0.7c2.6-0.2,5.3-0.4,8.1-0.4c1.4,0,2.8,0,4.2-0.2
	c1.2-0.1,2.4-0.3,3.5-0.7l-0.2,0.2c-0.2,0.7,0.4,1.8,1.1,1.5c1.5-0.4,2.9-0.7,4.2,0.2c1.5,1.1,1.8,3.1,2.2,4.8
	c0.7,4.4,0.6,8.8-0.2,13.2c-0.2,1.1-0.4,2-0.7,3.1c-0.2,1.1-0.5,2.1-0.9,3.1c-0.9,1.8-2.6,2-4.4,2.2c-2.2,0.2-4.2,0.2-6.4,0.4
	c-2,0-4.4-0.2-6.2,1.1c-0.3,0.2-0.4,0.5-0.3,0.8c0.1,0.1,0.1,0.2,0.3,0.3c1.2,0.6,2.5,0.8,3.7,0.7h4.6c2.4,0,4.6,0.2,7-0.4
	c5.5-1.5,5.3-8.1,5.5-12.8c0.2-2.9,0.2-5.7,0.2-8.6C111.2,69.8,111,67.2,110.2,64.8z"/>
<path id="Tracé_4271" class="st1" d="M101.6,70.8c-1.3-0.2-2.4,0.4-3.5,0.9c-1,0.5-2,1-2.9,1.8c-1.9,1.3-3.7,3-5.1,4.8l-2,2.6
	c-0.2,0.6-0.5,1.1-0.9,1.5v0.2L86,81.3c-0.4-0.4-0.9-1.1-1.3-1.5c-0.9-0.9-2-1.6-3.3-2c-0.2,0-0.7,0.2-0.4,0.4
	c0.2,1.5,0.7,2.9,1.5,4.2c0.8,1.3,1.8,2.4,2.9,3.5c1.1,0.9,2.7,1,4,0.2c1-0.8,1.9-1.9,2.4-3.1c1.4-2,3.1-3.7,5.1-5.1
	c1-0.8,2-1.5,3.1-2.2c1.1-0.6,2.2-1.3,3.1-2.2c0.5-0.9,0.3-2-0.6-2.6C102.1,70.9,101.9,70.8,101.6,70.8z"/>
<path id="Tracé_4272" class="st1" d="M140.1,71.4c-0.2-3.7-0.4-7.3-0.7-11c-0.2-2-0.4-3.7-0.7-5.7c-0.1-1.6-0.3-3.2-0.7-4.8
	c-0.7-2-2.6-2.6-4.6-2.9c-3.7-0.4-7.5-0.5-11.2-0.4c-3.4-0.1-6.8,0.1-10.1,0.4c-3.5,0.1-7,0.6-10.3,1.5c-0.9,0.1-1.8,0.3-2.6,0.7
	c-0.9,0.7-1.6,1.6-2,2.6c-1,2.5-0.8,5.3,0.4,7.7c0.2,0.2,0.7,0.4,0.9,0c0.7-2.2,0-4.6,1.1-6.8c0.4-0.7,1.3-2.4,2.2-2.9
	c1.1-0.7,3.3-0.4,4.6-0.7c7.2-0.6,14.5-0.7,21.8-0.4c1.8,0,3.5,0.2,5.3,0.2h2c1.8,0.4,1.8,1.5,1.8,2.9c0,3.5-0.2,6.8,0,10.3
	c0.2,3.5,0.2,7,0.4,10.6c0,1.8,0.2,3.1-1.3,4c-1.2,0.5-2.5,0.8-3.7,0.9c-0.5,0.1-0.9,0.4-1.1,0.9c-0.9,2.9-2.6,6.4-1.5,9.5
	c0.2,0.6,0.9,0.9,1.5,0.7c0.3-0.1,0.5-0.4,0.7-0.7c0.9-2.4,0.2-5.1,1.3-7.5c2,0,4.2-0.2,5.7-1.5C140.6,76.9,140.1,73.8,140.1,71.4z"
	/>
<path id="Tracé_4273" class="st1" d="M129.1,88.1l-0.7-1.3c-0.2-0.7-0.6-1.3-1.1-1.8c-0.4-0.6-0.8-1.2-1.3-1.8
	c-0.4-0.7-1.1-1.1-1.5-1.8c-0.2-0.2-0.4-0.7-0.7-0.9l-0.4-0.4c0.2,0,0.4,0,0.4-0.2c0.4-0.2,0.9-0.4,0.9-0.9c0-0.4-0.2-1.1-0.7-1.1
	c-0.2,0-0.2,0-0.4-0.2c0,0-0.4-0.2-0.2,0c-0.4-0.2-0.9-0.2-1.3-0.4c-0.7,0-1.3-0.2-2-0.2h-4c-0.6,0-1.2,0.5-1.3,1.1
	c-0.2,0.4-0.2,0.9,0,1.3c0.4,1.1,1.8,1.1,2.6,1.1h2c0.7,0,1.5,0,2.2-0.2h0.2c0,0.2-0.2,0.4,0,0.7c0,0.2,0.2,0.4,0.4,0.7
	c0.2,0.2,0.4,0.7,0.7,0.9l1.3,2l1.3,2c0.2,0.2,0.4,0.7,0.7,0.9l0.7,0.7l1.1,1.1C128.5,89.7,129.4,88.8,129.1,88.1z"/>
</svg>
