<?xml version="1.0" encoding="utf-8"?>
<!-- Generator: Adobe Illustrator 25.0.0, SVG Export Plug-In . SVG Version: 6.00 Build 0)  -->
<svg version="1.1" id="Calque_1" xmlns="http://www.w3.org/2000/svg" xmlns:xlink="http://www.w3.org/1999/xlink" x="0px" y="0px"
	 viewBox="0 0 172 152" style="enable-background:new 0 0 172 152;" xml:space="preserve">
<style type="text/css">
	.st0{fill:#FFFFFF;}
	.st1{fill:#004461;}
</style>
<path id="Tracé_4179" class="st0" d="M118.5,77.9c-0.5-0.9-1.4-1.6-2.4-1.8c0.4-0.7,0.9-1.5,1.3-2.2c0.5-0.9,0.8-1.9,0.7-2.9
	c-0.2-0.7-0.5-1.4-0.9-2c0-1.3-0.8-2.4-2-2.9c0.4-1.6,0.7-3.2,0.9-4.8c0.2-1.5,0.2-2.9,0-4.4c-0.2-1.3-1.1-2.6-0.7-3.7
	c0.9-3.5-2.9-5.7-5.7-5.5c-10.3,0.4-20.7,0.9-31,0.9H63.3c-5.1,0-11-0.9-15.8,0.7c-0.8,0.2-1.5,0.6-2,1.3c-1.3-0.7-2.9-0.3-3.7,0.9
	c-2.2,2.9-2.2,7.7-2.2,11.2c0.1,4.1,0.4,8.2,0.9,12.3c0.4,3.7,0.7,7.5,1.1,11.2c0.2,1.9,0.6,3.7,1.3,5.5v1.5c0,0.2,0,0.2,0.2,0.4
	c-0.2,0.6-0.3,1.3-0.2,2c0,3.5,1.5,7,5.5,7c2.1,0,4.2-0.5,6.2-1.3c2,1.3,4.4,1.1,7,1.1c3.5,0,6.8,0.2,10.3,0.2
	c6.6,0.2,13.4,0.4,20,0.7c6.4,0.2,12.8,0.7,19.1,0.4c2.6,0,5.5-1.1,6.4-4c0.4-1.6,0.2-3.3-0.4-4.8c0-0.3,0-0.6,0.2-0.9
	c0-0.2,0.1-0.5,0.2-0.7v-0.2c0-0.4,0.2-0.7,0.2-1.1c0.2-1.1,0.4-2,0.7-3.1c0.5-1.7,0.8-3.4,1.1-5.1C119,81.9,119.6,79.9,118.5,77.9z
	 M108.6,96h-2.4c0.5-0.6,0.9-1.3,1.1-2h1.8C108.9,94.6,108.7,95.3,108.6,96z"/>
<path id="Tracé_4203" class="st1" d="M124.9,61.5c-0.3-0.2-0.7-0.3-1.1-0.2c0-0.2-0.1-0.5-0.2-0.7c-0.9-1.5-3.7-0.9-5.3-0.4
	c-1.7,0.4-3.3,1.1-4.6,2.2c-2.9,2-4.2,5.7-3.1,9c1.2,3.4,4.1,5.9,7.7,6.6c3.8,0.5,7.5-1.4,9.2-4.8C129.7,69.2,128.8,63.7,124.9,61.5
	z M125.1,70.8c-1,2.3-3.2,3.9-5.7,4c-2.5-0.1-4.7-1.6-5.7-4c-0.8-2.2-0.1-4.6,1.8-5.9c1-0.9,2.2-1.4,3.5-1.5
	c0.7-0.2,1.5-0.3,2.2-0.2h1.3c0,0.5,0.2,0.9,0.7,1.1C125.1,65.7,125.9,68.4,125.1,70.8z"/>
<path id="Tracé_4204" class="st1" d="M150.8,60.9c-0.2-3.3,0-8.1-1.5-11.2h1.1c-0.2-1.3,0-2.7,0.4-4c-1.9,0-3.8,0-5.7,0.2
	c-3.5,0-7.3,0.2-10.8,0.4c-7.5,0.2-15,0.4-22.4,0.4c-7,0-14.1,0.2-21.3,0.2h-11c-2.6,0-6.8-0.9-8.8,1.3c-0.2,0.2-0.4,0.7-0.2,0.9
	c-1.1,3.7-0.9,8.1-1.1,12.1c-0.2,4.8-0.4,9.5-0.2,14.3c0,4.4,0.4,8.8,0.7,13.2c0.4,4.6,0.7,9.7,1.5,14.3c0.2,0.7,0.7,1.1,1.1,1.1
	c-0.7,0.2-1.3,0.6-1.8,1.1c-0.1,0.1-0.1,0.3,0,0.4c0,0,0,0,0,0c1.8,1.8,4.4,1.3,6.6,1.3c3.3,0,6.6-0.2,9.9-0.2c6.6,0,13.4-0.2,20,0
	c6.6,0,13,0.2,19.6,0.2h9.7c3.1,0,6.6,0.4,9.7-0.4c0.7-0.1,1.1-0.8,1-1.5c-0.1-0.4-0.4-0.8-0.8-0.9c-2.9-0.9-5.9-0.7-9-0.7h-10.3
	c-6.6,0-13.4,0-20,0.2H87.5c-3.5,0-6.8-0.2-10.3,0h-3.5c0.5-0.3,0.7-0.8,0.7-1.3c-0.2-3.7-0.9-7.3-1.3-11c1.6-0.8,3.1-1.7,4.6-2.6
	c1.8-0.9,3.6-1.6,5.5-2.2c3.4-0.9,6.9-1.3,10.3-1.1c7.9,0.7,13.4,5.9,20.9,7.9c6.8,2,14.1,0,20-3.7c5.7-3.6,10.5-8.6,13.9-14.5
	c0.2,4.6,0.2,9.2,0.2,13.6c0,4.6-0.7,9.7,0,14.3c0.2,0.9,1.8,1.3,2,0.2c1.1-4.6,0.9-9.5,0.9-14.1s0-9.2-0.2-13.9
	C151.4,70.6,151.3,65.7,150.8,60.9z M147.1,71.4c-2.9,2.6-5.1,5.7-7.7,8.6c-2.6,2.8-5.6,5.2-9,7c-3.4,1.9-7.3,2.8-11.2,2.6
	c-3.7-0.2-7.3-1.8-10.6-3.3c-6.2-2.9-12.3-4.6-18.9-4.2c-3.2,0.2-6.4,0.8-9.5,1.8c-2.6,0.7-5,1.9-7,3.5c-0.4-4.2-0.7-8.4-0.9-12.3
	c-0.2-4.6-0.7-9.5-0.7-14.1c0-3.7,0.4-7.9-0.2-11.9c2,1.5,5.1,0.9,7.5,1.1h33.2c7.3,0,14.5-0.2,21.8-0.4c3.5,0,6.8,0,10.3-0.2h3.3
	c-0.9,3.3,0.2,7.5,0.4,10.6c0.2,3.7,0.4,7.3,0.4,11C148,71.2,147.5,71.3,147.1,71.4L147.1,71.4z"/>
</svg>
