<?xml version="1.0" encoding="utf-8"?>
<!-- Generator: Adobe Illustrator 25.0.0, SVG Export Plug-In . SVG Version: 6.00 Build 0)  -->
<svg version="1.1" id="Calque_1" xmlns="http://www.w3.org/2000/svg" xmlns:xlink="http://www.w3.org/1999/xlink" x="0px" y="0px"
	 viewBox="0 0 172 152" style="enable-background:new 0 0 172 152;" xml:space="preserve">
<style type="text/css">
	.st0{fill:#FFFFFF;}
	.st1{fill:#004461;}
</style>
<g id="Groupe_1573" transform="translate(335.386 21.916)">
	<path id="Tracé_4171" class="st0" d="M-219.2,34"/>
	<path id="Tracé_4172" class="st0" d="M-215.9,36c0-0.7-0.5-1.4-1.1-1.7c-0.6-0.3-1.3-0.3-2,0c-0.3,0-0.6,0.3-0.8,0.3
		c-0.2,0-0.4,0.1-0.6,0.3l0,0c-0.6,0.3-0.8,0.3-1.4,0.6c-0.3,0.3-0.6,0.6-0.8,0.6c-0.7,0.7-1.4,1.4-2,2.2c0.3-0.3,0.6-0.6,0.6-0.8
		c-1.2,1.4-2.5,2.6-3.9,3.7c-0.3,0-0.3,0.3-0.6,0.3c-0.3,0.3-0.6,0.3-0.8,0.6l0,0c0.3-0.3,0.6-0.3,0.8-0.6c-0.3,0.3-0.6,0.3-0.8,0.6
		c-0.5-0.5-1.1-1-1.7-1.4c-1.3-0.3-2.6-0.3-3.9,0v-0.8c0.1-0.9,0.1-1.9,0-2.8c0-0.3-0.3-0.6-0.3-0.8l0,0v-0.3c0.1-0.7,0-1.3-0.3-2
		v-0.8c0-0.6-0.3-1.1-0.8-1.4c0-0.3,0.3-0.8,0.3-1.1l0,0c0-0.3,0.3-0.3,0.3-0.6c0.2-0.2,0.3-0.5,0.3-0.8l0.8-0.8
		c0.8-0.7,1.6-1.4,2.3-2.3c1.1-1.1,1.7-3.4,0.3-4.5c-2.3-1.7-5.3,0-7,1.7c-1.5,1.2-2.8,2.6-3.9,4.2c-1.3,1.5-2.2,3.2-2.8,5.1
		c0,0.3-0.3,0.6-0.3,0.8c-1.4-0.4-2.8-0.5-4.2-0.3h-0.3c-0.8,0.3-1.7,0.3-2.3,0.6c-2.5-2.6-6-3.9-9.6-3.4c-4.2,0.3-7.6,4.5-8.2,8.4
		c-0.3,2.1,0.1,4.3,1.1,6.2c0.3,0.6,0.7,1.2,1.1,1.7c0,0.2,0.1,0.4,0.3,0.6c0,0.2,0.1,0.4,0.3,0.6v1.4c-0.7,5.8,3.5,11.1,9.3,11.8
		c2,0.1,4-0.3,5.9-1.1l-0.8,0.8c-2.1,2.2-4.1,4.6-5.9,7c-3.9,4.8-8.2,10.1-10.4,15.8c-0.7,1.8-0.2,3.9,1.4,5.1l0,0
		c0.3,0.3,0.6,0.3,0.8,0.6l0,0c1.4,0.6,3,0.3,4.2-0.6c4.5-4.2,7.9-9.6,12.1-14.3l5.9-6.8l0.6-0.6l0.6-0.6l1.4-1.4
		c1.3-1.3,2.5-2.7,3.7-4.2c0.6-0.6,0.6-1.4,0.8-2c0.3,0,0.6-0.3,0.8-0.3s0.3-0.3,0.6-0.3c0.8-0.3,1.4-0.8,2-1.4l0.6-0.6l1.1-1.1
		l0.6-0.6c0.2-0.2,0.3-0.5,0.3-0.8c0.3-0.3,0.6-0.6,0.6-0.8c0-0.2,0.1-0.4,0.3-0.6v-0.8h2.5c0.6-0.1,1.2-0.3,1.7-0.6
		c0.6,0,0.8-0.3,1.4-0.6c1.1-0.5,2.2-1.2,3.1-2l1.7-1.7c0-0.2,0.1-0.3,0.3-0.3c0,0,0,0,0,0l0.3-0.3l3.4-3.4c0.6-0.6,0.8-1.1,1.1-1.4
		c0.3-0.6,0.6-0.8,0.8-1.4c0.2-0.4,0.3-0.9,0.3-1.4l0,0C-215.6,37.7-216,36.8-215.9,36z"/>
	<path id="Tracé_4173" class="st0" d="M-219.2,34L-219.2,34C-219.5,34.3-219.5,34-219.2,34z"/>
</g>
<g id="Groupe_1574" transform="translate(300.661 14.54)">
	<path id="Tracé_4174" class="st0" d="M-249.5,28.2"/>
	<path id="Tracé_4175" class="st0" d="M-224.4,29c0.6-0.6-0.8,0.3-0.8,0.3c-0.6,0.3-0.8,0.3-1.4,0.6c-0.3,0-0.6,0.1-0.8,0.3
		c-0.5,0.1-0.9,0.2-1.4,0.3h-0.8c-0.3-0.3-0.6-0.3-0.8-0.6h-0.3c0-0.3,0-0.6-0.3-0.6c-0.6-2.3-3.1-2.8-5.1-2.8
		c-0.3,0-0.6,0.1-0.8,0.3c0-1.7-0.3-3.4-0.8-5.1c-0.8-1.9-2.7-3.1-4.8-3.1c-2.1,0-4,1.4-4.8,3.4c-0.3,1.4-0.8,2.8-1.1,4.2l-0.8,2.5
		h-0.6c-0.6,0.3-0.3,0-0.3,0c-0.6,0-1.2,0.2-1.7,0.6c-0.8,0-1.4,0.3-2.3,0.3c-1.9,0.2-3.5,1.5-3.9,3.4v0.3c-1.8-1.4-3.9-2.5-6.2-3.1
		c-0.5-0.2-1.1-0.3-1.7-0.3c-2.6-0.3-5,1.6-5.3,4.3c0,0.1,0,0.2,0,0.2c-0.3,2.6,1.6,5,4.3,5.3c0.1,0,0.2,0,0.2,0h0.3
		c0.2,0,0.4,0.1,0.6,0.3l0,0c0.3,0.3,0.7,0.6,1.1,0.6c0.3,0,0.3,0.3,0.6,0.3c-1.7,1.4-3.4,3.1-4.8,4.5c-2.5,2.3-5.3,4.2-8.4,5.6
		c-2,1-3.1,3.1-2.8,5.3c0.3,2,2.3,4.2,4.2,4.2c0.8,0,1.5,0,2.3,0.3c0.5-0.1,1,0,1.4,0.3c0.8,0.3,1.4,0.6,2.3,0.8h0.3
		c0.3,0.3,0.6,0.3,0.8,0.6c0.6,0.4,1.2,0.9,1.7,1.4l0,0v0.3l0.8,0.8c0.3,0.3,0.6,0.6,0.6,0.8c0.2,0.2,0.3,0.3,0.3,0.6
		c0,0.2,0.1,0.4,0.3,0.6l0,0c0,0.3-0.3,0.3-0.3,0.6l-0.8,0.8l-1.1,1.1c-2.5,2.5-4.2,5.3-3.7,9.3c0.3,1.9,1.6,3.5,3.4,4.2
		c1.8,0.7,3.9,0.4,5.3-0.8c2.3-1.5,4.7-2.7,7.3-3.7c0,0,1.4-0.3,1.7-0.3h2.5c-0.6-0.3,1.7,0.8,0.8,0.3c1.2,0.7,2.4,1.2,3.7,1.7
		c0,0.3-0.3,0.3-0.3,0.6c-0.3,0.8-0.6,2-0.8,2.8c-0.4,1.6-0.5,3.2-0.3,4.8c0.2,1.6,1,3,2.3,3.9c1.7,1.4,4.1,1.5,5.9,0.3
		c1.4-0.9,2.3-2.3,2.5-3.9c0.2-1.4-0.2-2.8-1.1-3.9v-5.3c-0.1-0.9-0.5-1.7-1.1-2.3h-0.3c0.2-0.3,0.3-0.7,0.3-1.1v0.3
		c0,0.3,0.3,0.8,0.3,1.1l0,0c0.3,0.3,0.3,0.6,0.6,1.1l0.8,0.8l0,0c0.7,0.4,1.4,0.7,2.3,0.8c0.6,0,1.2-0.1,1.7-0.3
		c0.6,0,1.1-0.3,1.4-0.8l0.3-0.3c0.3-0.3,0.6-0.7,0.8-1.1c0-0.2,0.1-0.3,0.3-0.3c0,0,0,0,0,0c0.3-0.3,0.3-0.8,0.6-1.1
		c0-0.3,0.3-0.6,0.3-0.8c0-0.5-0.1-1-0.3-1.4c0-0.3-0.3-0.6-0.3-0.8c0-0.2-0.1-0.3-0.3-0.3c0,0,0,0,0,0c0.6,0,1.1-0.3,1.7-0.3
		c2.8-0.8,5.6-3.4,4.8-6.8c-0.5-3.2-3.5-5.3-6.7-4.8c0,0-0.1,0-0.1,0c-3.1,0.3-6.2,1.1-9.3,1.7c-1.2,0.3-2.4,0.5-3.7,0.6
		c-0.7,0-1.3,0.1-2,0.3h-0.8c-0.6,0-1.2-0.1-1.7-0.3l0,0c-0.3,0-0.6-0.3-0.8-0.3h-0.3l-0.3-0.3l-0.3-0.3c0-0.2-0.1-0.4-0.3-0.6l0,0
		c0-0.3-0.3-0.6-0.3-0.8s0-0.3-0.3-0.3v-0.3c0-0.6-0.3-1.1-0.3-1.7v-1.1c0.2-2.3,0.7-4.6,1.7-6.8c0,0,0.6-1.1,0.8-1.1
		c0.3-0.3,0.3-0.6,0.6-0.6l0,0c0.4-0.4,0.9-0.8,1.4-1.1h0.3c0.3-0.3,0.6-0.3,1.1-0.6c0.2,0,0.4-0.1,0.6-0.3l0,0
		c0.4-0.1,0.8-0.2,1.1-0.3c1.4,0,2.8,0.6,4.2,0.6c2.6,0.5,5.3,0.4,7.9-0.3c6.1-1.3,11.4-4.9,14.9-10.1
		C-213.5,31-219.4,25.7-224.4,29z M-262.7,54.1c-0.6-0.3-1.2-0.7-1.7-1.1c0.6-0.3,0.8-0.8,1.4-1.1l0.8-0.8
		C-262.2,52-262.4,53.1-262.7,54.1L-262.7,54.1z"/>
</g>
<path id="Tracé_4195" class="st1" d="M149.5,50.3c-0.5-0.6-1.3-0.8-1.9-0.3c0,0,0,0,0,0c0-0.3-0.3-0.3-0.3-0.6
	c-0.4-0.3-1-0.3-1.4,0l0,0c-1.3,0.9-2.5,2-3.7,3.1l-1.7,1.7l-1.1,1.1c-0.2,0.2-0.3,0.5-0.3,0.8v0.3c-0.3,0.3-0.6,0.3-0.6,0.6
	c-1,0.9-2.1,1.6-3.4,2c-2.5,0.6-4.8-0.6-5.1-3.1c-0.3-2.8,1.4-5.3,3.1-7.3c1-1.2,1.9-2.4,2.8-3.7c0.8-1.1,1.7-2.8,0.8-4.2l0,0v-1.1
	c-1.1-2.5-5.6-2-7.6-1.4c-2.5,0.5-4.8,1.7-6.8,3.4c-2,1.4-3.6,3.2-4.8,5.3c-1.1,2.3-2.3,4.8-1.4,7.3c-0.1,0.8-0.1,1.7,0,2.5
	c0,0.3,0.3,0.6,0.3,1.1c0,0.4,0.1,0.8,0.3,1.1c0.2,0.6,0.4,1.3,0.6,2l0.8,4.2c0.3,0.6,0.8,0.3,0.6-0.3c-0.6-1.2-0.9-2.6-0.8-3.9v-2
	c0.1-0.7,0.3-1.3,0.6-2c0-0.5,0.1-1,0.3-1.4l0.8-0.8c0.5-0.9,0.9-1.8,1.1-2.8c0.2-0.8,0.6-1.6,1.1-2.3c1-1.6,2.2-3,3.7-4.2
	c0.3,0,0.3-0.3,0.6-0.3h0.3c0.6-0.3,0.8-0.6,1.4-0.8c0.6-0.3,0.8-0.3,1.4-0.6h0.8c0.9-0.2,1.9-0.3,2.8-0.3h1.1
	c-0.3,0.3-0.3,0.6-0.6,0.6c-0.9,1.2-1.8,2.3-2.8,3.4c-2,2-3.3,4.6-3.9,7.3c-0.6,2.8,0,5.9,2.3,7.6c2.3,2,5.6,2,8.4,0.8
	c1.6-0.5,3-1.6,3.9-3.1c0.3-0.3,0.3-0.6,0.6-0.8c0.3,0,0.3-0.3,0.6-0.3l1.1-1.1c0.5-0.5,1-1.1,1.4-1.7l1.7-2.5c0,2.5,0.6,4.8,0,7.3
	c-0.7,3-2.1,5.9-3.9,8.4c-2,3.1-5.3,5.1-9,5.3c-3.4,0.3-6.7,1.7-9.3,3.9c-2.5,2.3-4.2,5.1-6.2,7.6c-2.5,3.4-5.3,6.5-7.6,10.1
	c-2.3,3.4-3.9,7-6.5,10.4c-2.3,2.8-5.9,4.2-9.6,4.8c-0.3-1.9-0.5-3.7-0.6-5.6c0-2,0.5-3.9,1.4-5.6c2-4.2,5.3-7,8.7-10.1
	c3.4-2.8,6.8-5.6,9-9.3c1.2-1.6,2.2-3.4,2.8-5.3c0.8-2,2-4.2,2-6.2c0-0.6-0.6-0.8-1.1-0.6c-1.4,1.7-2.3,3.9-3.7,5.9
	c-1.7,2-3.1,3.9-4.8,5.9c-3.4,3.4-7.3,6.5-11,9.8c-3.3,3-5.7,6.8-7,11c-1.1,3.7-1.1,9,2.5,11.5c0.3,0.3,0.8,0.3,1.1,0
	c6.2,1.7,10.7-6.5,14.3-10.4c3.5-3.6,6.7-7.4,9.6-11.5c2.7-3.8,5.8-7.3,9.3-10.4c3.4-2.8,7.9-3.4,11.5-5.6c2.8-1.3,5.4-3.1,7.6-5.3
	C150,64.1,152.9,55.1,149.5,50.3z"/>
<path id="Tracé_4196" class="st1" d="M112.9,41.6c-1-1.3-2.2-2.5-3.7-3.4c-0.6-0.3-1.4-0.6-2,0c-2.5,2.5-7.3,6.2-10.4,2.5
	c-1.9-2.8-2.9-6-3.1-9.3c0-0.8-0.7-1.4-1.4-1.4c-3.9-0.6-9.6-0.6-11.8,3.4c-2,3.4-0.6,7.3-4.8,9.6c-3.9,2-7.3-0.3-11-1.4
	c-3.9-1.1-9-0.6-9.8,4.2c-0.5,3.2,1.3,6.3,4.2,7.6c-0.9,5.7-6.1,9.7-11.8,9.3c-0.6,0-1.7,0.3-1.7,1.1c-1.4,5.1-2,12.4,4.2,14.6
	c1.2,0.4,2.4,0.5,3.7,0.3c1.4-0.2,2.8,0.3,3.7,1.4c0.3,0.3,0.3,1.1,0.6,1.4c0.4,1.1,1,2.2,1.7,3.1l-6.8,6.8
	c-1.1,1.4-0.8,3.7,1.1,3.9c1.4,0,2.8,4.5,4.2,5.3c2.1,1.5,4.9,1.5,7,0c1.1-0.7,2.1-1.7,2.8-2.8c1.4-1.7,2-3.4,4.2-2.8
	c5.9,1.1,4.5,9,3.4,12.9c-0.4,1.2,0.2,2.6,1.4,3c0.4,0.1,0.7,0.2,1.1,0.1c2-0.3,4.2-0.6,6.2-0.8c2.8-0.3,2-4.2-0.6-4.2h-2.8
	c0.8-3.4,1.1-7-0.8-10.4c-1.7-3.2-5.3-4.8-8.7-3.9c-2.8,0.8-8.7,6.5-11.2,4.2c-1.4-1.1-2-2.8-2.8-3.9c2-2.3,4.2-4.5,6.2-6.5
	c0.9-0.7,1.1-2.1,0.3-3c-0.2-0.3-0.5-0.5-0.9-0.6c-1.7-0.6-2-3.4-2.8-4.8c-0.7-1.3-1.8-2.3-3.1-2.8c-2.3-0.8-5.1,0.8-7-0.8
	c-2.5-2-2-5.3-1.4-8.2c7.4-0.3,13.4-6.1,13.8-13.5c0.1-0.9-0.6-1.6-1.4-1.7c-1.9-0.4-3.1-2.3-2.6-4.2c0-0.1,0.1-0.2,0.1-0.3
	c1.1-3.1,4.8-2,7.3-1.4c3.4,0.8,6.8,1.7,9.8,0.3c3-1.3,5.3-3.7,6.5-6.8c0.8-2.5,0.8-4.5,3.7-5.3c1.7-0.4,3.4-0.5,5.1-0.3
	c0.6,4.5,2,9.6,5.9,12.1c4.5,2.8,9.3,0,12.4-3.7c1.1,0.6,2.4,0.9,3.7,0.8C112.9,42.4,113.2,41.9,112.9,41.6z"/>
<path id="Tracé_4197" class="st1" d="M91.8,64.7c-0.9-0.9-2-1.7-3.1-2.3c-0.6-0.2-1.3-0.3-2-0.3l0.3-0.3c0.3,0,0.3-0.3,0.3-0.6
	c0-0.3,0.3-0.6,0-0.8L87,60.2c-0.1-0.2-0.4-0.2-0.5,0c0,0,0,0,0,0c-0.3-0.3-0.6-0.3-0.8-0.6h-0.6c-1.3,0.1-2.5,0.5-3.7,1.1
	c-2,1-3.6,2.6-4.8,4.5c-2.2,3.8-2,8.5,0.6,12.1c2.5,3.5,7.2,4.9,11.2,3.4c4-1.4,6.6-5.3,6.5-9.6C94.4,68.8,93.3,66.5,91.8,64.7z
	 M89.6,73.9L89.6,73.9c-0.3,0.3-0.3,0.6-0.6,0.6c0,0.2-0.1,0.3-0.3,0.3c0,0,0,0,0,0l-0.3,0.3c-0.3,0.3-0.6,0.3-0.6,0.6l-0.3,0.3
	c-0.3,0-0.3,0.3-0.6,0.3c-1,0.6-2.2,0.8-3.4,0.6h-0.8c-0.3,0-0.6-0.3-0.8-0.3h-0.3c-0.3,0-0.3-0.3-0.6-0.3l-0.6-0.6
	c-1.8-2-2.2-4.9-1.1-7.3c0.7-1.5,1.8-2.7,3.1-3.7c0.3,0,0.3-0.3,0.6-0.3c0,0.7,0.5,1.3,1.1,1.4c1.3,0.5,2.6,1.3,3.7,2.3l0,0l0.6,0.6
	c0.3,0.3,0.3,0.6,0.6,0.8l0,0v0.3l0.3,0.3c0,0.3,0.3,0.3,0.3,0.6v0.3C90.2,71.8,90.2,73,89.6,73.9L89.6,73.9z"/>
<path id="Tracé_4198" class="st1" d="M104.8,59.3c-2.3-3.1-8.2-7.6-11.2-3.4c-0.5,0.8-0.3,1.8,0.4,2.3c0.1,0.1,0.3,0.2,0.4,0.2
	c1.1,0.6,2.5,0.3,3.9,0.8c1.4,0.7,2.6,1.9,3.4,3.4c1.3,2.9,1.6,6.2,0.8,9.3c-1.6,6.4-6.6,11.3-12.9,12.9C83.4,86.6,75,85.5,69.9,81
	c-3.1-2.8-3.4-6.8-2.8-10.7c0.4-3.6,1.7-7.1,3.7-10.1c2.3-3.4,5.9-4.5,9.8-5.3c3.9-0.6,7.6,0,11.5-0.8c0.9-0.2,1.4-1,1.3-1.9
	c-0.1-0.5-0.5-1-1-1.2c-4.2-1-8.5-1-12.7,0c-4,0.8-7.7,2.8-10.4,5.9c-2.6,3.5-4.4,7.5-5.1,11.8c-0.8,4.8-0.6,9.3,2.3,13.2
	c5.1,7.3,15.8,9.8,23.9,7.9c8.6-2.1,15.2-8.8,17.2-17.4C107.9,68.3,107.6,63.2,104.8,59.3z"/>
</svg>
