<?xml version="1.0" encoding="utf-8"?>
<!-- Generator: Adobe Illustrator 25.0.0, SVG Export Plug-In . SVG Version: 6.00 Build 0)  -->
<svg version="1.1" id="Calque_1" xmlns="http://www.w3.org/2000/svg" xmlns:xlink="http://www.w3.org/1999/xlink" x="0px" y="0px"
	 viewBox="0 0 172 152" style="enable-background:new 0 0 172 152;" xml:space="preserve">
<style type="text/css">
	.st0{fill:#FFFFFF;}
	.st1{fill:#004461;}
</style>
<path id="Tracé_4191" class="st0" d="M113.9,100.2V63c0-4.2,0.9-9.5-1.1-13.4c-0.9-2.2-2.8-3.7-5.1-4.2c-1.7-2.2-3.7-4.2-5.9-5.9
	c-3.5-3.2-7.9-5.2-12.5-5.7c-4.6-0.4-9.7-0.2-14.3-0.2h-7.5c-1.5,0-2.9,0-4.4,0.2c-1.3,0.3-2.6,0.8-3.7,1.5
	c-1.8,1.1-2.6,3.3-1.8,4.8c-0.8,1-1.1,2.3-0.9,3.5c1.1,4.6,0.7,9.9,0.7,14.7c0,5.3,0.2,10.3,0.2,15.6l0.7,31.7
	c0,3.1,3.5,4.8,6.2,4.6c9.3-0.9,18.8-0.4,27.9,1.8c3.7,0.9,7.5,2.4,11.4,2.4c4.6,0,8.8-2.4,9.9-7.3
	C114,104.9,114.1,102.6,113.9,100.2z M91.9,46.1l-2-0.7c-0.2-0.2-0.4-0.7-0.7-0.9c1.2,0.2,2.3,0.7,3.3,1.3
	C92.6,46.1,92.1,46.1,91.9,46.1z"/>
<path id="Tracé_4258" class="st1" d="M136.1,102.2c-0.2-2.6-0.4-5.5-0.7-8.1c-0.2-5.5-0.2-11,0-16.5c0-5.1,0.2-10.3,0-15.4
	s0.2-11-1.5-15.6c-0.3-0.7-1.1-1-1.8-0.8c-0.3,0.1-0.5,0.3-0.6,0.5c0.2-0.3,0.2-0.6,0-0.9c-0.9-2.2-2.9-4-4.6-5.7
	c-1.5-1.9-3.1-3.6-4.8-5.3c-1.5-1.3-3.1-1.5-5.3-1.5c-2.6-0.2-5.3-0.2-7.9-0.4l-16.5-0.7c-2.9,0-5.7-0.2-8.4-0.4
	c-2.6-0.3-5.3-0.3-7.9,0c-1.3,0.2-1.8,2.4-0.4,2.9c-1,2.4-1.4,5.1-1.3,7.7c-0.2,3.5-0.4,7.3-0.7,10.8c-0.4,7-0.7,14.1-0.7,21.1
	c0,6.8,0,13.6,0.2,20.5c0.2,5.7,0,11.7,0.7,17.2c0.4,0,0.7-0.2,1.1-0.2c-0.3,0.3-0.4,0.7-0.2,1.1c0.2,1.3,1.1,1.5,1.5,1.3
	c0,0.2,0.2,0.4,0.7,0.4c0.7,0,1.5,0.2,2.2,0.2h11c4.6,0,9.5,0,14.1,0.2c9.7,0.2,19.6,0.4,29.3,0.4c2.4,0,2.9-3.5,0.4-3.7
	c-9.9-0.2-19.8-0.4-29.9-0.4c-4.8,0-9.7-0.2-14.7-0.2c-2.4,0-5.1-0.2-7.5-0.2H78c-0.2-5.1-0.7-10.1-0.9-15
	c-0.2-7.3-0.4-14.5-0.2-21.6c0-6.8,0-13.6,0.4-20.5c0.2-3.5,0.2-7.3,0.4-10.8c0.4-2.5,0.3-5-0.2-7.5c4.4,0.7,9.2,0.2,13.4,0.4
	l14.7,0.4c2.4,0,4.8,0.2,7.5,0.2c1.8-0.2,3.5-0.1,5.3,0.2c0,0.2-0.2,0.2-0.2,0.4c-0.2,0.7-0.4,1.1-0.7,1.8c-0.3,1.2-0.4,2.5-0.4,3.7
	c0,1.2,0.2,2.4,0.4,3.5c0,0.6,0.2,1.2,0.4,1.8c0.2,0.8,0.6,1.5,1.1,2.2c0.5,0.7,1.5,0.9,2.2,0.4l0,0c0.2,0.2,0.4,0.4,0.7,0.4
	c0.6,0.3,1.2,0.5,1.8,0.7c1.1,0.2,2.2,0.3,3.3,0.2c1.1,0,2.2-0.2,3.3-0.4c0.4-0.1,0.8-0.2,1.1-0.4c0.3,1.4,0.4,2.8,0.4,4.2
	c0.2,2.9,0.2,5.9,0.2,8.8c0,5.3-0.2,10.8-0.4,16.1c-0.2,5.1-0.4,10.3-0.2,15.4c0,2.7,0.2,5.5,0.7,8.2c0.1,2.5,0.5,4.9,1.3,7.3h3.3
	v-0.2C137.2,107.3,136.3,104.6,136.1,102.2z M128.6,46.5c-0.4,0-1.1,0.2-1.5,0.2c-0.5,0-1,0-1.5,0.2h-1.1c-0.6,0-1.2,0-1.8,0.2h-0.2
	c-0.2-0.9-0.4-1.5-0.7-2.6s-0.2-2.2-0.4-3.3v-3.7c1.3,1.5,2.6,2.9,4,4.4c1.3,1.7,2.8,3.2,4.6,4.4h-0.7
	C128.8,46.5,128.8,46.5,128.6,46.5L128.6,46.5z"/>
<path id="Tracé_4259" class="st1" d="M102.8,47.6c-0.6-0.4-1.4-0.7-2.2-0.7c-1.5,0-2.9,0-4.4,0.2C93.5,47.7,91,49,89,50.9
	c-2.1,2.2-3.4,5.1-3.5,8.1c-0.3,3,0.1,6,1.3,8.8c0.6,1.4,1.4,2.8,2.4,4c1.2,1.1,2.6,2,4.2,2.4c3.4,1.1,6.9,1.1,10.3,0.2
	c6.2-1.4,10.5-6.9,10.6-13.2C114.7,54.7,109.4,47.9,102.8,47.6z M104.8,71c-2.7,1.1-5.7,1.4-8.6,0.9c-2.6-0.5-4.9-1.9-6.6-4
	c-1.5-2.2-2-4.6-2.4-7.3c-0.5-2.9,0.3-5.9,2.2-8.1c1.8-2,4.2-2.6,6.8-3.1c1.3-0.2,2.6-0.2,4,0h1.5c0.2,0,0.2,0.2,0.4,0.2
	c0.9,0.2,1.8,0.7,2.6,0.9c-0.8,0.7-1.4,1.6-1.8,2.6c-0.6,1-1.1,2-1.5,3.1c-0.2,0.6-0.4,1.2-0.7,1.8c-0.2,0.4-0.7,0.9-0.9,1.3
	c-0.4,0.4-0.8,0.8-1.1,1.3c-0.4,0.7-0.7,1.1-1.1,1.8c-0.2,0.4,0,0.9,0.4,0.9c0.5,0.1,1.1,0,1.5-0.2c0.2,0,0.5-0.1,0.7-0.2
	c0.3-0.2,0.6-0.3,0.9-0.2h1.8c0.4,0,1.1,0.2,1.5,0.2c1,0,2.1,0,3.1,0.2c1,0,2.1,0,3.1-0.2c0.3-0.2,0.4-0.5,0.3-0.8
	c-0.1-0.1-0.1-0.2-0.3-0.3c-1-0.4-2-0.5-3.1-0.4c-1.1,0-2.2,0-3.3,0.2c-0.7,0-1.1,0.2-1.5,0.2c-0.5,0.2-1,0.3-1.5,0.2
	c-0.6,0-1.2,0-1.8-0.2h-0.4c0.2-0.2,0.2-0.4,0.4-0.7c0.2-0.4,0.4-1.1,0.7-1.5c0.5-1.2,1.3-2.2,2.2-3.1c0.7-0.8,1.4-1.7,2-2.6
	c0.4-0.9,1.3-1.8,1.5-2.9c3.1,1.6,5.3,4.6,5.7,8.1C112.7,64.1,109.2,69.2,104.8,71L104.8,71z"/>
<path id="Tracé_4260" class="st1" d="M91.4,102.2v-0.7c0-0.3,0-0.6-0.2-0.9c0-0.2-0.2-0.7-0.2-0.9v-0.4l0,0v-0.7l0,0v-0.2
	c0-0.2,0-0.2,0.2-0.4l0,0c0.2-0.9,0.9-1.8,0.4-2.6c-0.1-0.4-0.4-0.8-0.7-1.1c-0.3-0.3-0.7-0.4-1.1-0.4h-0.4c-0.5,0-0.9,0.2-1.1,0.7
	l0,0c0,0.2-0.2,0.2-0.2,0.4v0.2l0,0l-0.4,0.4c-0.2,0.4-0.7,0.9-0.9,1.3c-0.4,0.8-0.5,1.7-0.4,2.6c-0.1,1,0.1,2.1,0.4,3.1
	c0.2,0.5,0.5,0.9,0.9,1.3c0.4,0.4,1,0.7,1.5,0.9c0.9,0.3,1.8-0.2,2.1-1c0.1-0.2,0.1-0.5,0.1-0.7C91.4,102.4,91.4,102.4,91.4,102.2
	L91.4,102.2z"/>
<path id="Tracé_4261" class="st1" d="M98.2,100c-0.2-1.1-0.4-2-0.7-3.1c-0.2-1.1-0.4-2-0.7-3.1c-0.2-1.1-0.7-2.2-0.9-3.3
	c-0.2-0.9-1.5-0.9-1.5,0c0,1.1-0.4,2.2-0.4,3.3v3.5c0,1.1,0,2.2,0.2,3.3c0.2,1.3,0.2,2.9,1.3,3.5c0.6,0.4,1.4,0.3,2-0.2
	C98.4,102.8,98.6,101.4,98.2,100z"/>
<path id="Tracé_4262" class="st1" d="M105.3,94.7c0-1.3-0.2-2.6-0.2-4.2s-0.4-2.9-0.4-4.4c0-2-2.9-2.2-2.9-0.2
	c0,1.5-0.7,2.9-0.7,4.4c-0.2,1.5-0.3,2.9-0.2,4.4v4.4c-0.1,1.6,0.1,3.3,0.4,4.8c0.2,1.2,1.2,2,2.4,2c1.1,0,2.1-0.8,2.2-2
	C105.9,100.7,105.5,97.6,105.3,94.7z"/>
<path id="Tracé_4263" class="st1" d="M113.2,99.6c-0.2-0.9-0.3-1.9-0.2-2.9c-0.2-2-0.4-3.7-0.7-5.7c-0.1-0.7-0.7-1.2-1.4-1.1
	c-0.5,0.1-0.9,0.4-1.1,0.9c-0.5,2-0.8,3.9-1.1,5.9v3.3c0,1,0,2.1,0.2,3.1c0.2,1.2,1.4,2.1,2.6,2c1.2-0.2,2.1-1.4,2-2.6
	C113.6,101.5,113.4,100.5,113.2,99.6z"/>
<path id="Tracé_4264" class="st1" d="M119.1,92.5c0-1.8-0.2-3.3-0.2-5.1s0-3.7-0.9-5.1c-0.3-0.6-1-0.9-1.6-0.7
	c-0.2,0.1-0.4,0.3-0.6,0.5c-1.1,1.3-1.1,3.3-1.3,5.1c-0.2,1.8-0.3,3.7-0.2,5.5c-0.1,3.7,0.1,7.3,0.4,11c0.2,1.3,1.4,2.1,2.6,2
	c1.2-0.2,2.1-1.4,2-2.6C119.5,99.6,119.4,96,119.1,92.5z"/>
<path id="Tracé_4265" class="st1" d="M127.9,97.1c-0.2-2.9-0.7-5.9-0.9-8.8c-0.2-2.9-0.7-5.9-0.9-8.8c-0.2-2.4-0.2-5.7-2-7.7
	c-0.4-0.4-1.1-0.4-1.5,0c0,0,0,0,0,0c-1.3,2.2-0.9,5.3-0.7,7.7c0.2,3.1,0.4,6.2,0.7,9l0.7,8.8c0.2,2.4-0.2,6.4,2,8.1
	c0.7,0.4,1.6,0.2,2-0.4c0,0,0,0,0,0C129.3,103.1,128.2,99.3,127.9,97.1z"/>
</svg>
