<?xml version="1.0" encoding="utf-8"?>
<!-- Generator: Adobe Illustrator 25.0.0, SVG Export Plug-In . SVG Version: 6.00 Build 0)  -->
<svg version="1.1" id="Calque_1" xmlns="http://www.w3.org/2000/svg" xmlns:xlink="http://www.w3.org/1999/xlink" x="0px" y="0px"
	 viewBox="0 0 172 152" style="enable-background:new 0 0 172 152;" xml:space="preserve">
<style type="text/css">
	.st0{fill:#FFFFFF;}
	.st1{fill:#004461;}
</style>
<path id="Tracé_4170_1_" class="st0" d="M90.5,41.4c-22.9-7-44,7-46.9,29c-0.5,1.2-0.7,2.5-0.7,3.7V75c-0.8,3.8-0.7,7.7,0.4,11.4
	c1.3,4.2,3.5,8.6,7.7,10.1c0.2,0,0.4,0.2,0.7,0.2c2,2.9,4,5.7,6.2,8.6c5.1,6.4,14.1,1.1,13.6-6.2c-0.4-5.7,2.9-9,0-14.7
	c-2-3.7-5.5-11.4-2.9-15.6c2.5,0,4.9-1,6.6-2.9c0.2-0.4,0.7-0.7,0.9-1.1c0.4,1.1,3.7,0.7,4.6,0.9c2.8,0.6,5.3,2.1,7,4.4
	c2.9,3.5,4.6,8.1,0.7,11.4c-2,1.8-3.5,4.8-2.9,7.5c1.1,4.3,1.8,8.8,2.2,13.2c0.1,2.2,1.2,4.3,3.1,5.5c1.1,1,2.5,1.6,4,1.5
	c2,0.1,3.9-0.8,5.1-2.4c1-0.7,1.8-1.6,2.4-2.6c1.3-0.3,2.6-1,3.5-2C124.6,83.8,115.3,48.8,90.5,41.4z"/>
<path id="Tracé_4194_1_" class="st1" d="M137,59.6c-3.3-5.3-6.8-9.9-12.1-13.4c-5.5-3.8-11.9-6.1-18.5-6.8
	c-9.9-1.1-18.7,2.2-26.4,7.9c-2.4,1.1-4.5,2.6-6.4,4.4c-4.6,4.1-8,9.3-9.9,15.2v0.2c-0.7,1.9-1.3,3.8-1.8,5.7
	c-1.1,6.2,0.4,12.5,2.9,18.3c0.3,0.7,0.6,1.5,0.9,2.2c2.2,11.9,14.3,18.7,24.4,23.5c1.1,0.4,2.4-0.1,2.8-1.3c0,0,0,0,0-0.1
	c2.2-8.7,5.1-17.2,8.8-25.3c0.4-1.2-0.2-2.4-1.3-2.9c-3.5-1.5-5.6-5-5.3-8.8c0.4-4,3.7-6.2,7.5-6.4c4-0.2,7.5,1.8,8.4,5.7
	c1,4-1,8.1-4.6,9.9c-0.5,0.2-0.9,0.7-0.9,1.3c0,9.9,1.8,19.1,6.8,27.7c0.4,0.8,1.3,1.2,2.2,1.1c11.7-3.2,21.3-11.5,26-22.7
	C145.1,83.8,143.4,70.1,137,59.6z M138.5,90c-3.3,11.2-11.9,20.5-23.3,23.5c-3.9-7.3-6-15.3-6.4-23.5c4.3-2.7,6.5-7.7,5.7-12.8
	c-1-5.7-6.1-9.8-11.9-9.5C96.9,67.8,92,72,91,77.6c-0.6,5,1.7,10,5.9,12.8c-3,6.9-5.5,13.9-7.5,21.1c-5.7-2.9-11.4-6.4-15.2-11.2
	v-0.4c-1-2.1-2.1-4.1-3.5-5.9c-0.2-0.7-0.4-1.3-0.7-2.2c-0.2-0.6-0.5-1.1-0.9-1.5c-0.3-0.3-0.5-0.7-0.7-1.1
	c-0.7-1.8-1.3-3.6-1.8-5.5c-1.1-6-0.7-12.1,1.3-17.8c1.8-4.9,4.7-9.3,8.6-12.8c7.3-6.6,16.1-10.8,26.2-10.6
	c5.8,0.2,11.4,1.7,16.5,4.4c5.3,2.6,9.2,6.6,13,10.8C139.6,65.7,141.6,79.6,138.5,90L138.5,90z"/>
</svg>
