<?xml version="1.0" encoding="utf-8"?>
<!-- Generator: Adobe Illustrator 25.0.0, SVG Export Plug-In . SVG Version: 6.00 Build 0)  -->
<svg version="1.1" id="Calque_1" xmlns="http://www.w3.org/2000/svg" xmlns:xlink="http://www.w3.org/1999/xlink" x="0px" y="0px"
	 viewBox="0 0 172 152" style="enable-background:new 0 0 172 152;" xml:space="preserve">
<style type="text/css">
	.st0{fill:#FFFFFF;}
	.st1{fill:#004461;}
</style>
<g id="Groupe_1575" transform="translate(619.348 239.377)">
	<path id="Tracé_4181" class="st0" d="M-551.6-165.1"/>
	<path id="Tracé_4182" class="st0" d="M-528.7-172.4c-2-6.4-7.7-10.3-13.9-11.7c-3.1-2-8.4-0.7-11.2,1.3c-4.2,2.9-6.2,7.9-7,12.8
		c-0.6,2.7-0.5,5.5,0.2,8.1c0.9,2.2,2.4,4,4.4,5.3c0.8,0.6,1.6,1.1,2.4,1.5c0.2,0.2,0.4,0.2,0.7,0.4v0.9c0.2,1.6,0.7,3.2,1.5,4.6
		c0.3,1.1,0.8,2.2,1.5,3.1c0.8,0.7,1.8,1.2,2.9,1.3c-0.2,0.2-0.7,0.4-0.7,0.9c-0.2,0-0.2,0.2-0.4,0.4c-0.7,0.6-1.2,1.5-1.3,2.4
		c-0.4,1.1-0.7,2.3-0.9,3.5c-0.2,2.3-0.2,4.7,0,7c0.2,1.6,1.5,2.9,3.1,3.3c0.8,0.3,1.7,0.2,2.4-0.2c0.5,0.3,1.1,0.4,1.8,0.4
		c2.4,0.2,4.6-1.5,4.8-4c0.4-4,0.4-7.7,0.9-11.7c0.1-0.7-0.1-1.4-0.4-2c1.4-0.5,2.5-1.5,3.1-2.9c0.8-2.1,1.4-4.2,1.8-6.4
		c2-1.7,3.5-3.9,4.4-6.4C-527.4-164.1-527.4-168.4-528.7-172.4z"/>
</g>
<path id="Tracé_4235" class="st1" d="M98.1,51c-0.2-0.4-0.4-0.9-1.1-0.9c-0.4,0-0.9-0.2-1.3,0l-1.1,0.2c-0.9,0.2-1.5,0.4-2.2,0.7
	c-0.4,0.2-0.7,0.2-1.1,0.4c-0.2,0.2-0.5,0.4-0.9,0.4c-0.7,0.4-1.3,0.7-2,1.1c-0.2,0.2-0.2,0.4,0,0.4H93c0.8,0,1.5-0.2,2.2-0.4
	c0.4,0,0.7-0.2,1.1-0.2c0.3-0.1,0.6-0.2,0.9-0.4c0.2-0.2,0.2-0.4,0.2-0.2c0.1,0,0.2-0.1,0.2-0.2c0,0,0,0,0,0
	C98.1,52.1,98.3,51.5,98.1,51z"/>
<path id="Tracé_4236" class="st1" d="M116.6,67.3c-0.9-4.1-3.1-7.8-6.2-10.6c-3.3-3.1-6.8-4.4-11.2-5.1c-0.7,0-0.9,1.1-0.2,1.1
	c7.3,1.8,14.1,8.8,14.7,16.3c0.4,3.9-0.4,7.8-2.4,11.2c-1,1.8-2.2,3.4-3.7,4.8c-1.5,1.5-3.1,3.1-3.3,5.3v0.7l0,0
	c-0.2,0.2-0.2,0.4-0.2,0.7V94c-2.9-1.1-5.5-0.4-8.6,0c-1.5,0.2-3.5,0.2-4.8-0.9c-1.1-0.7-1.4-2.1-0.7-3.2c0.1-0.1,0.2-0.2,0.3-0.3
	c0.4-0.7,0.2-1.7-0.4-2.2c-5.1-3.1-9.7-7.7-10.8-13.6c-1.1-6.6,1-13.3,5.7-18l0,0c-5.1,4.6-7.9,11-7,18c0.7,6.4,3.7,12.3,9,15.6
	c-0.8,2.7,0.4,5.7,2.9,7c4.4,2.4,9.9,0.2,14.5,0.4c0.3,0,0.6,0,0.9-0.2c0.2,0.7,1.1,0.4,1.3,0l0,0c0.2-0.2,0.4-0.2,0.4-0.7
	c0-0.2,0.2-0.4,0.2-0.7v-2.9h0.2c1-0.7,1.8-1.6,2.4-2.6c0.9-0.9,1.8-1.9,2.6-2.9c1.5-1.8,2.7-3.8,3.5-5.9
	C117.3,76.6,117.6,71.9,116.6,67.3z"/>
<path id="Tracé_4237" class="st1" d="M107.8,80.1c-1-0.4-2-0.7-3.1-0.7c-1-0.1-2.1,0.1-3.1,0.4c-1.1,0.2-2.2,0.7-3.1,1.3
	c-0.2,0-0.2,0.2-0.4,0.4c0.2-0.9,0.3-1.9,0.2-2.9c0-1.5,0.2-3.3,0.2-4.8s0.2-3.3,0.2-4.8v-1.8h0.4c0.4-0.2,0.7-0.2,1.1-0.4
	c0.7-0.2,1.3-0.7,2-0.9h0.4c0.4,0,0.7-0.2,1.1-0.2c0.7-0.2,1.5,0,2.2-0.4c0.2,0,0.7-0.2,0.9-0.2c0.5-0.2,0.9-0.7,0.9-1.3
	c0-0.6-0.4-1.1-0.9-1.3c-0.3-0.2-0.7-0.3-1.1-0.2c-0.9-0.2-1.8-0.2-2.6,0l-2.6,0.7c-0.9,0.2-1.7,0.6-2.4,1.1
	c-0.3,0.2-0.6,0.4-0.9,0.7l-0.7,0.7h-0.2c-0.2,0-0.2,0.2-0.4,0.2c0-1.1-1.1-2-2-2.6c-0.9-0.5-1.7-0.9-2.6-1.3
	c-0.9-0.3-1.9-0.4-2.9-0.2c-0.3,0-0.6,0-0.9,0.2c-0.1,0-0.2,0.1-0.2,0.2c0,0,0,0,0,0h-0.2c-0.2,0-0.4,0.2-0.7,0.2l-0.2,0.2
	c0.2-0.2-0.2,0-0.2,0c-0.4,0.2-0.2,0.7,0.2,0.9h0.2c0.2,0,0.2,0.2,0.4,0.2c0.2,0,0.4,0,0.4,0.2c0.1,0.1,0.3,0.2,0.4,0.2
	c0.2,0,0.2,0,0.4,0.2c0.2,0.2,0.7,0.2,0.9,0.4c0.7,0.2,1.1,0.4,1.8,0.7c0.2,0,0.2,0.2,0.4,0.2h0.2c0.2,0.2,0.4,0.2,0.7,0.4
	c0.3,0.3,0.5,0.5,0.9,0.7c0.4,0.4,1,0.7,1.5,0.7H95c-0.2,0.9-0.3,1.8-0.2,2.6c0,1.5-0.2,3.1-0.2,4.4c0,1.5-0.2,3.1-0.2,4.4
	c0,0.7-0.2,1.5-0.2,2.4c-0.4-0.2-0.7-0.4-1.1-0.4l-0.2-0.2c-0.2,0-0.2-0.2-0.4-0.2c-0.2,0-0.3-0.1-0.4-0.2c-0.4-0.2-0.9-0.2-1.3-0.4
	c-0.9-0.3-1.7-0.5-2.6-0.7h-0.2c0-0.7-0.2-1.1-0.2-1.8c-0.2-1.3-0.2-2.9-0.4-4.2c-0.2-2.6-0.7-5.3-1.1-8.1c-0.1-0.6-0.7-1-1.3-0.9
	c-0.5,0.1-0.9,0.6-0.9,1.1c0.2,2.6,0.2,5.3,0.4,7.9c0,1.3,0.2,2.6,0.2,4c0,1.1,0,3.3,1.1,3.7c0.5,0.2,1.1,0.2,1.5,0h0.2
	c0.8,0.4,1.6,0.7,2.4,0.9c0.4,0,0.9,0.2,1.3,0.2c0.2,0,0.4,0,0.4,0.2c0.2,0,0.2,0,0.4,0.2h0.4c0.7,0.1,1.3,0.1,2,0
	c0,0.2,0.2,0.4,0.2,0.7c0.3,0.5,0.8,0.8,1.3,0.9c0.2,0.4,0.6,0.6,1,0.5c0,0,0,0,0.1,0c0.7-0.4,1.5-0.9,2.2-1.3
	c0.9-0.2,1.8-0.7,2.4-0.9c0.8-0.2,1.6-0.2,2.4-0.2c0.9,0,1.8,0.2,2.6,0.4c0.7,0,1.3-0.4,1.3-0.9C108.6,81,108.4,80.3,107.8,80.1z"/>
<path id="Tracé_4238" class="st1" d="M111.3,74.4c0-1.2,0-2.4-0.2-3.5c0-1.2,0-2.4-0.2-3.5c-0.2-0.7-0.5-1.4-0.9-2
	c-0.2-0.4-0.7-0.7-0.9-1.1c-0.1-0.2-0.4-0.2-0.6-0.1c0,0-0.1,0.1-0.1,0.1c-0.2,0.5-0.5,0.8-0.9,1.1c-0.4,0.6-0.6,1.3-0.7,2
	c-0.2,1.2-0.3,2.3-0.2,3.5v5.7c0.1,0.7,0.3,1.4,0.7,2c0.7,1.3,2.9,1.3,3.3,0l0.7-2L111.3,74.4z"/>
<path id="Tracé_4239" class="st1" d="M103.4,68.4h-0.4c-2.6-0.9-2.9,3.7,0,3.1h0.4C104.7,70.6,104.5,68.7,103.4,68.4z"/>
<path id="Tracé_4240" class="st1" d="M105.1,73.9c0-0.2,0-0.2-0.2-0.4c0-0.2-0.2-0.4-0.4-0.4c-0.4-0.4-1-0.5-1.5-0.4
	c-0.2,0-0.5,0.1-0.7,0.2H102c-0.2,0-0.4,0.2-0.7,0.2c-0.4,0.2-0.9,0.7-1.3,0.9l-0.2,0.2c0,0.1-0.1,0.2-0.2,0.2c0,0,0,0,0,0v0.9
	c0.2,0.5,0.6,0.8,1.1,0.9c1.3,0.2,3.3,0.4,4-1.3v-0.4C105.1,74.4,105.1,74.2,105.1,73.9z"/>
<path id="Tracé_4241" class="st1" d="M93.2,68.9c0-0.2,0-0.2-0.2-0.4c0-0.2-0.2-0.4-0.4-0.4l-0.2-0.2c-0.2-0.2-0.4-0.2-0.7-0.2h-2
	c-0.1,0-0.2,0.1-0.2,0.2c0,0,0,0,0,0L89.3,68v0.7l0,0c0,0.2,0.1,0.5,0.2,0.7l0.2,0.2c0,0.1,0.1,0.2,0.2,0.2c0,0,0,0,0,0l0,0l0.2,0.2
	l0.2,0.2c0.2,0.2,0.4,0.2,0.7,0.2h0.4c0.2,0,0.5-0.1,0.7-0.2l0,0c0.2,0,0.2-0.2,0.4-0.2l0.4-0.4c0.2,0.2,0.2,0,0.2,0L93.2,68.9
	L93.2,68.9z"/>
<path id="Tracé_4242" class="st1" d="M93,74.8c-0.2-0.2-0.2-0.2-0.4-0.2c-0.2,0-0.2-0.2-0.4-0.2h-0.2c-0.2,0-0.4-0.2-0.7-0.2h-0.7
	c-0.2,0-0.5,0.1-0.7,0.2c-0.2,0.2-0.4,0.2-0.4,0.4v0.4c0,0.2,0.2,0.4,0.4,0.7c0.2,0.2,0.4,0.2,0.7,0.4c0.2,0,0.3,0.1,0.4,0.2
	c0.2,0,0.4,0.2,0.7,0.2h0.4c0.2,0,0.4-0.2,0.7-0.2s0.2-0.2,0.2-0.4v-0.4C93.2,75.3,93.2,75,93,74.8z"/>
<path id="Tracé_4243" class="st1" d="M102.9,99.2c-0.7-0.9-2.4-1.1-3.5-1.3c-1.2-0.2-2.4-0.2-3.5,0c-1.5,0.1-3,0.5-4.4,1.1
	c-0.4-0.5-0.9-0.7-1.5-0.7c-2.9,0-3.3,4.4-0.4,4.4c1,0,1.9-0.8,2.2-1.8c1.5-0.2,2.9-0.3,4.4-0.2c1.1,0,2,0.2,3.1,0.2
	c1.1,0.2,2.2,0.7,3.3,0.2C103.4,101,103.4,99.9,102.9,99.2z"/>
<path id="Tracé_4244" class="st1" d="M102.7,106.1V105c-0.3-0.4-0.6-0.7-1.1-0.9c-0.4,0-0.9-0.2-1.5-0.2c-0.7,0-1.1-0.2-1.8-0.2
	h-2.9c-1.9,0.1-3.8,0.3-5.7,0.7c-0.5,0.1-0.8,0.7-0.7,1.2c0,0,0,0.1,0,0.1l0,0c-0.1,0.1-0.2,0.3-0.2,0.4c0,0.2-0.2,0.4-0.2,0.7
	c0,0.4,0.2,1.1,0.2,1.5c0.3,0.8,0.8,1.6,1.3,2.2c1.2,1.3,2.9,2.2,4.6,2.4c3.5,0.7,8.1-1.5,8.8-5.3
	C104,107.2,103.4,106.3,102.7,106.1z M99.6,107.8L99.6,107.8c-0.4,0.4-0.4,0.7-0.9,0.7c-0.2,0.2-0.2,0.2-0.4,0.2l0,0
	c-0.2,0.2-0.7,0.2-0.9,0.4H97c-0.2,0-0.7,0.2-0.9,0.2h-0.9c-0.3-0.1-0.6-0.2-0.9-0.4h-0.2c-0.2,0-0.2-0.2-0.4-0.2
	c-0.2-0.2-0.4-0.2-0.7-0.4l-0.2-0.2l-0.2-0.2l-0.7-0.7l-0.2-0.2c1.4,0.3,2.8,0.4,4.2,0.4h2.9c0.7,0,1.1-0.2,1.5-0.2h0.2l-0.2,0.2
	C99.8,107.6,99.6,107.6,99.6,107.8z"/>
<path id="Tracé_4245" class="st1" d="M72.1,71.1c-0.4-0.2-0.7-0.4-1.1-0.7l0.4,0.4c-0.9-0.8-2.1-1.2-3.3-1.3
	c-1.1-0.2-2.2-0.3-3.3-0.2c-1.2,0-2.4,0-3.5,0.2c-0.7,0-1.1,0.2-1.8,0.2c-0.6,0.2-1.2,0.5-1.8,0.9c-0.6,0.5-0.6,1.4-0.1,2
	c0.2,0.2,0.5,0.4,0.7,0.4c1.1,0.2,2.4-0.2,3.5-0.2s2-0.2,3.1-0.2h5.1c0.6,0,1.2,0,1.8-0.2C72.3,72.6,72.6,71.5,72.1,71.1z"/>
<path id="Tracé_4246" class="st1" d="M78.7,53.5c-1-0.8-1.9-1.7-2.6-2.6c-0.9-0.9-1.6-2-2.2-3.1c-1.3-2.1-2.2-4.4-2.6-6.8
	c-0.2-0.9-1.5-0.9-1.5,0c-0.1,1.4-0.1,2.8,0.2,4.2c0.4,1.4,1,2.7,1.8,4c0.8,1.2,1.7,2.2,2.9,3.1c1.1,0.8,2.4,1.4,3.7,1.8
	C78.7,53.9,78.9,53.7,78.7,53.5z"/>
<path id="Tracé_4247" class="st1" d="M98.5,32.3c0-0.9-1.3-1.1-1.8-0.4c-0.6,1-1,2.2-1.3,3.3c-0.2,0.4-0.2,1.1-0.4,1.8
	c0,0.2-0.2,0.4-0.4,0.9c-0.2,0.3-0.3,0.7-0.2,1.1c-0.3,2.3-0.4,4.7-0.2,7c0.1,0.7,0.7,1.1,1.4,1.1c0.6-0.1,1-0.5,1.1-1.1
	c0.4-2.2,0.7-4.4,1.1-6.6v-1.5c0-0.4,0.2-1.1,0.2-1.5C98.3,35,98.5,33.7,98.5,32.3z"/>
<path id="Tracé_4248" class="st1" d="M124.3,41.6c-0.7,0.4-1.1,0.7-1.8,1.1c-0.5,0.5-1,0.9-1.5,1.3c-1.1,0.8-2,1.8-2.9,2.9
	c-1,1-2,2-2.9,3.1c-1,1-1.8,2.1-2.4,3.3c-0.1,0.5,0.1,1,0.6,1.1c0.2,0.1,0.3,0.1,0.5,0c1.3-0.4,2.2-1.5,3.3-2.2
	c1.1-0.9,2-1.8,3.1-2.6c1-1,2-2,2.9-3.1l1.3-1.5c0.4-0.6,0.8-1.1,1.1-1.8C126.5,41.8,125.2,40.9,124.3,41.6z"/>
<path id="Tracé_4249" class="st1" d="M137.9,69.3c-0.6-0.2-1.2-0.4-1.8-0.4c-0.7-0.2-1.5-0.3-2.2-0.2h-8.1c-1.5,0-2.9,0-4,1.1
	c-0.7,0.4-0.4,1.5,0,2c1.1,0.9,2.6,0.9,4,0.9h8.1c0.7,0,1.5-0.2,2.2-0.2c0.7-0.2,1.3-0.2,1.8-0.4C138.8,71.1,138.8,69.8,137.9,69.3z
	"/>
</svg>
