<?xml version="1.0" encoding="utf-8"?>
<!-- Generator: Adobe Illustrator 25.0.0, SVG Export Plug-In . SVG Version: 6.00 Build 0)  -->
<svg version="1.1" id="Calque_1" xmlns="http://www.w3.org/2000/svg" xmlns:xlink="http://www.w3.org/1999/xlink" x="0px" y="0px"
	 viewBox="0 0 172 152" style="enable-background:new 0 0 172 152;" xml:space="preserve">
<style type="text/css">
	.st0{fill:#FFFFFF;}
	.st1{fill:#004461;}
</style>
<path id="Tracé_4193" class="st0" d="M112.8,91.8c-0.7-4.4,0.7-8.4,0.7-12.5c0.2-5.1-0.4-10.1-0.7-15c-0.2-2.4-0.2-4.6-0.4-7
	s-0.2-5.3-2-7c-1.1-1.1-2.6-2-4.2-1.5c-0.5,0.2-1,0.4-1.5,0.7c-0.3-2-1.5-3.7-3.3-4.6c1.3-2.4,0.5-5.4-1.9-6.7
	c-0.5-0.3-1.1-0.5-1.6-0.6c-8.1-0.8-16.3-1-24.4-0.7c-4,0.2-7.9,0.4-11.9,0.9c-3.7,0.4-8.8,0.4-11.9,2.9c-1.5,1.2-1.7,3.4-0.4,4.8
	c0.1,0.2,0.3,0.3,0.4,0.4c-1.1,3.4-1.4,7-0.9,10.6v3.3c0.2,4.1,0.7,8.1,1.3,12.1c-1.1,5.1-2.2,9.7-1.5,15c0.2,2,0.7,3.9,1.5,5.7v4.8
	c-0.1,3.2-0.1,6.5,0.2,9.7v0.2c-0.5,0.5-0.9,1.1-1.1,1.8c-0.3,0.7-0.4,1.5-0.2,2.2c0.2,1.5,1.2,2.8,2.6,3.3c1,0.4,2,0.5,3.1,0.4h0.7
	c0.5,0,0.9-0.2,1.3-0.4c0.8,0.3,1.6,0.4,2.4,0.4h0.7c0.3,0.3,0.7,0.5,1.1,0.7c2.4,0.9,5.1,0.4,7.5,0.4c2.4,0,5.1-0.2,7.5-0.2
	c4.8-0.2,9.5,0,14.3,0.2c4.4,0.2,9,1.1,13.4,0.7c2.2-0.2,4.2-1.1,5.7-2.6c0.5-0.6,0.8-1.3,0.9-2c1.8-1.6,3-3.8,3.5-6.2
	C114.4,100.6,113.3,96.2,112.8,91.8z M101,68.5c0.5-0.2,0.8-0.5,1.1-0.9c0.4-0.4,0.9-0.7,1.1-1.1v1.8
	C102.4,68.2,101.7,68.3,101,68.5z"/>
<path id="Tracé_4266" class="st1" d="M134.7,91.2c-0.9-10.6-2.9-21.1-1.5-31.9c0.4-3.7,0.9-8.8-1.8-11.9c-1.8-2-4.2-3.1-6.4-2.6
	c-0.4-2.4-0.7-5.1-1.1-7.5c-0.1-0.7-0.7-1.2-1.3-1.1c-10.1-1.2-20.2-1.7-30.4-1.5C87,34.8,81.9,35,76.9,35.7c-3.5,0.4-9,0-11.2,3.3
	c-2.2,2.9-1.1,7.7-1.1,11c0.2,5.3,0.2,10.6,0.2,15.8c0.2,10.8,0.4,21.6,0.4,32.6c0,4.2-0.7,9.5,0.9,13.4c1.5,3.7,5.1,5.1,8.6,5.9
	c9.5,2.2,19.8,0.7,29.5,0.4c5.3,0,10.6-0.2,15.6-0.2c3.5,0,9.2,1.1,12.1-1.8c2.6-2.6,3.1-7.9,3.3-11.4
	C135.4,100.3,135.2,95.7,134.7,91.2z M71.4,39.4c2.1-0.3,4.2-0.5,6.4-0.7c5.1-0.4,9.9-0.9,15-1.1c9.5-0.4,19,0,28.4,1.3
	c0.2,2.6,0.7,5.1,1.1,7.7c-0.1,0.4-0.1,0.9,0.2,1.3c-0.1,0.4,0,0.8,0.2,1.1c-0.9,4-0.2,8.4-0.4,12.3c-0.2,4.4,0,8.8,0.4,13.2
	c0.4,4.6,1.5,8.8,2.2,13.2c0.6,2,0.6,4.1,0,6.2c-0.4,1.5-0.9,2.9-1.3,4.4c-1.8-1.1-3.7-0.9-5.7-0.7c-3.1,0.3-6.3,0.4-9.5,0.2
	c-5.9-0.2-11.9-0.2-18-0.2c-5.3,0-10.6-0.7-15.8,0.2c-2.1,0.2-4,1-5.7,2.2v-2.6c-0.4-8.8-0.7-17.6-0.9-26.4S67,53.3,67.2,44.5
	C67.4,41.2,68.3,39.9,71.4,39.4z M131.4,101.5c0,1.6-0.2,3.2-0.4,4.8c-0.2,2-0.4,5.1-1.5,6.8c-1.3,2.2-4.6,1.5-6.6,1.5
	c-1.8,0.2-3.7,0.3-5.5,0.2c-4.6,0.2-9.5,0.2-14.1,0.4c-8.4,0.2-16.9,0.4-25.3-1.1c-3.3-0.7-7.7-1.1-8.6-5.1c-0.3-1.3-0.4-2.6-0.4-4
	c0.9-1.3,2.1-2.4,3.5-3.1c2.2-0.9,4.6-0.9,7-1.1c5.1,0,10.1-0.2,15.2-0.4c5.1,0,10.1-0.2,15.2-0.7c2.9-0.2,5.5,0,8.4,0h2.2
	c0,0.2,0.2,0.4,0.4,0.2c0.2,0,0.2-0.2,0.4-0.2h0.2l2-0.7h0.7c0.2,0,0.4-0.2,0.4-0.4c3.1-0.2,4.4-3.3,4.8-6.2c0.7-4.8-1.3-9.9-2-14.5
	c-0.9-5.1-1.1-10.3-1.8-15.6c-0.2-2.6-0.7-5.1-0.9-7.7c0-0.7-0.2-1.5-0.2-2.2c0.7,0,1.4-0.5,1.4-1.3c0-0.2,0-0.3-0.1-0.5
	c-0.2-0.9-0.2-2-0.4-2.9c1.2,0,2.4,0.5,3.3,1.3c1.8,1.5,2,3.7,1.8,5.9c-0.4,3.7-1.5,7.5-1.8,11.4c-0.4,7.7,0.9,15.2,1.8,22.9
	C131.2,93.6,131.5,97.5,131.4,101.5L131.4,101.5z"/>
<path id="Tracé_4267" class="st1" d="M126.6,107.2c-0.2,0-0.2,0-0.4-0.2v-0.2l0,0l0.2-0.2v-0.4l0,0l0.2-0.2v-0.2
	c0-0.2,0.2-0.4,0.2-0.7c0.1-1.1,0.1-2.2-0.2-3.3c-0.2-0.6-0.6-1.1-1.1-1.5l0,0c-0.2,0-0.2-0.2-0.4-0.2c-0.6-0.2-1.2,0-1.5,0.4
	c0,0.1-0.1,0.2-0.2,0.2c0,0,0,0,0,0c-0.4,0.4-0.6,1-0.4,1.5c0.2,0.9,0.2,1.8,0.4,2.6v0.2c0,0.2,0,0.4,0.2,0.4v0.4l0,0
	c-3.3-0.4-6.8,0-10.1,0c-4.4,0-9-0.2-13.4-0.2s-9-0.2-13.4-0.2c-2.4,0-4.6,0-7-0.2c-1.8,0-3.3-0.2-4.8,0.9c-0.4,0.4-0.4,1.1,0,1.5
	c0,0,0,0,0,0c1.5,1.3,3.5,1.1,5.3,1.1c2.4,0,4.6,0.2,7,0.2c4.4,0.2,8.6,0.2,13,0.4c4.4,0.2,8.6,0.2,13,0.2c4.2,0,9.2,1.1,13.4,0
	C127.7,109.9,128.1,107.9,126.6,107.2z"/>
<path id="Tracé_4268" class="st1" d="M110.3,57.5c-1.8-1.5-4.6-0.9-6.8-0.9c-2.4,0-4.6,0-7-0.2c-4.6-0.2-9.5-0.7-14.1-0.7
	c-1.8-0.7-3.5,2.9-0.7,3.5c4.6,1.1,9.7,1.1,14.3,1.3h10.8c1.3,0,2.4,0.2,3.3-0.9c0.7-0.5,0.8-1.4,0.3-2.1
	C110.4,57.6,110.4,57.5,110.3,57.5z"/>
<path id="Tracé_4269" class="st1" d="M110.8,66.3c-2-1.3-4.8-0.7-7.3-0.7H89.4c-2.4,0-5.1-0.2-7.3,0.4c-0.9,0.4-1.2,1.4-0.8,2.2
	c0.2,0.4,0.5,0.7,0.8,0.8c2.2,0.7,5.1,0.4,7.5,0.4h14.1c2.4,0,5.1,0.4,7.3-0.9c0.6-0.6,0.6-1.6,0-2.2
	C110.9,66.4,110.8,66.4,110.8,66.3z"/>
</svg>
