<?xml version="1.0" encoding="utf-8"?>
<!-- Generator: Adobe Illustrator 25.0.0, SVG Export Plug-In . SVG Version: 6.00 Build 0)  -->
<svg version="1.1" id="Calque_1" xmlns="http://www.w3.org/2000/svg" xmlns:xlink="http://www.w3.org/1999/xlink" x="0px" y="0px"
	 viewBox="0 0 172 152" style="enable-background:new 0 0 172 152;" xml:space="preserve">
<style type="text/css">
	.st0{fill:#FFFFFF;}
	.st1{fill:#004461;}
</style>
<path id="Tracé_4190" class="st0" d="M108.7,84.2c-0.8-1.8-2-3.4-3.5-4.6c-1.1-0.9-3.1-1.8-3.7-2.9c-0.4-1.1-0.5-2.2-0.4-3.3
	c-0.2-2.4-0.4-4.6-0.7-7c-0.4-4-0.9-7.7-1.3-11.7v-1.5c-0.4-1.6-1.4-3-2.9-3.7c-1.2-1.6-2.9-2.9-4.8-3.5c-2.9-1.1-6-1.5-9-1.3
	c-6.2,0.4-11,4.2-14.7,8.8c-6.8,8.6-9.7,19.6-8.1,30.4c-4,0-8.1,0-10.6,2.9c-1.5,1.8-1.1,4.4,0.2,6.2c1.2,1.6,3.1,2.3,5.1,2
	c0.5,0,1.1-0.2,1.5-0.4c1.5,0,3.1,0.2,4.6,0.2h16.1c-0.4,1.7-0.7,3.4-0.9,5.1c0,0.4,0,0.7,0.2,0.9v1.3c0.2,0.7,0.5,1.4,0.9,2
	l0.7,0.7c0.6,0.4,1.3,0.7,2,0.7c0.5,0,1,0,1.5-0.2c0.5-0.1,1-0.3,1.3-0.7c0.4-0.3,0.7-0.6,0.9-1.1c0.3-0.5,0.4-1,0.4-1.5v-1.1
	c-0.2-0.7-0.5-1.4-0.9-2l-0.7-0.7c-0.6-0.4-1.3-0.7-2-0.7h-0.2c0.2-0.8,0.5-1.7,0.9-2.4c4,0,7.7,0,11.7,0.2c2,0.2,4.2,0.4,6.2,0.7
	c2.2,0.4,4.2,0.9,6.4-0.2C108.7,93.2,110.4,88.4,108.7,84.2z"/>
<g id="Groupe_1579" transform="translate(33.162 475.254)">
	<path id="Tracé_4256" class="st1" d="M69-371.9L69-371.9C69.2-372.1,69.2-371.9,69-371.9z"/>
	<path id="Tracé_4257" class="st1" d="M99.2-392.2c-1-1.9-2.7-3.3-4.6-4.2c0-0.4,0.2-0.9,0.2-1.3c0-0.9-0.2-2-0.2-2.9
		c-0.2-2-0.4-4.2-0.7-6.2c-0.3-3.9-1-7.7-2-11.4c-2-6.2-5.9-11.2-12.3-13.4c-5.5-1.8-11.2-2.2-16.7,0.2c-2.7,1.3-5.2,3.1-7.3,5.3
		c-2.2,2.2-3.3,4.8-5.1,7.3c-2.2,2.9-3.1,6.4-4,9.9c-1.1,4.4-2,9-0.9,13.4c0.2,1.1,2.2,1.3,2.4,0c0.2-4.6-0.4-9.5,0.4-13.9
		c0.4-1.8,0.9-3.6,1.5-5.3c0.5-2,1.2-3.9,2.2-5.7c4-5.9,10.6-11.2,18-11.4s14.5,5.3,17.4,12.1c1.5,3.7,2,7.9,2.6,11.9
		c0.2,2.4,0.7,4.6,0.9,7c0.2,1.1,0.4,2.4,0.7,3.5c0,0.2,0.2,0.4,0.2,0.7c-0.3,0-0.6,0-0.9,0.2c-0.6,0.3-0.9,1-0.7,1.6
		c0.1,0.2,0.3,0.4,0.5,0.6c2.4,2.2,5.5,2.6,5.9,6.6c0.4,4.2-1.5,7.5-5.7,8.6c-3.5,0.9-6.6,0.4-10.1,0c-4.2-0.5-8.4-0.8-12.5-0.9
		c-7.9-0.4-15.8-0.4-23.8-1.1c-3.5-0.2-7-2.2-6.8-6.4c0-2.6,1.8-4,3.7-4.8v0.2c0.9,0.6,1.8,1,2.9,1.1l3.3,0.7c1.1,0,2.2,0.2,3.3,0.2
		c1.1,0.1,2.2-0.1,3.3-0.4c0.9-0.4,1.1-2,0-2.2c-1.1-0.3-2.2-0.4-3.3-0.2h-5.1c-4.2-3.1-10.1,2-10.3,6.4c-0.2,2.8,1.1,5.4,3.3,7
		c3.1,2.2,7.7,1.8,11.2,2c4,0.2,7.9,0.4,12.1,0.7l-0.2,0.2c-0.1,0.1-0.2,0.3-0.2,0.4l0,0v0.2c0,0.2-0.1,0.3-0.2,0.4
		c-0.4,0.8-0.5,1.8-0.2,2.6c0.5,1.8,1.6,3.5,3.1,4.6c1.5,1.1,3.4,1.5,5.3,1.1c1.9-0.5,3.5-1.7,4.6-3.3c0.6-0.9,1-2,1.1-3.1
		c0-0.5,0-1-0.2-1.5c-0.2-0.4-0.2-0.9-0.4-1.3l-0.2-0.2h4.8c2.4,0,4.6-0.4,7-0.4c1.7,0.1,3.4-0.1,5.1-0.4c3-0.6,5.6-2.2,7.5-4.6
		C100.9-385.2,100.9-389,99.2-392.2z M70.8-376.1v2.2l0,0c-0.2,0.2-0.2,0.4-0.2,0.7l0,0c0,0.2-0.2,0.2-0.2,0.4l-0.2,0.2l-0.2,0.2
		c-0.2,0.2-0.2,0.2-0.4,0.2h-0.2c-0.2,0-0.2,0.2-0.4,0.2h-1.3c-0.2,0-0.2,0-0.4-0.2h-0.2c-0.2-0.2-0.4-0.2-0.7-0.4l0,0l-0.2-0.2
		c0-0.2-0.2-0.2-0.2-0.4c0-0.1-0.1-0.2-0.2-0.2c0,0,0,0,0,0l0,0c0-0.2-0.2-0.2-0.2-0.4c-0.2-0.7-0.5-1.4-0.9-2
		c0-0.2-0.2-0.2-0.2-0.4c0,0.1,0.1,0.2,0.2,0.2c0,0,0,0,0,0l-0.2-0.2c0-0.1-0.1-0.2-0.2-0.2c0,0,0,0,0,0l0,0c0-0.2-0.2-0.4-0.2-0.7
		c2.6,0.2,5.1,0.2,7.7,0.2C70.8-376.8,70.8-376.5,70.8-376.1z"/>
</g>
</svg>
