<?xml version="1.0" encoding="utf-8"?>
<!-- Generator: Adobe Illustrator 25.0.0, SVG Export Plug-In . SVG Version: 6.00 Build 0)  -->
<svg version="1.1" id="Calque_1" xmlns="http://www.w3.org/2000/svg" xmlns:xlink="http://www.w3.org/1999/xlink" x="0px" y="0px"
	 viewBox="0 0 172 152" style="enable-background:new 0 0 172 152;" xml:space="preserve">
<style type="text/css">
	.st0{fill:#FFFFFF;}
	.st1{fill:#004461;}
</style>
<path id="Tracé_4176" class="st0" d="M59.9,48.4v-1.1c0-0.5-0.2-0.9-0.4-1.3c0-0.2-0.2-0.2-0.2-0.4c-0.2-0.5-0.5-0.9-0.9-1.3
	l-0.9-0.9c-0.1,0-0.2-0.1-0.2-0.2c0,0,0,0,0,0c-0.8-0.4-1.6-0.7-2.4-0.9h-1.5c-0.2,0-0.4,0-0.4,0.2h-0.7c-0.7,0-0.4,0-0.9,0.2
	c-0.2,0-0.4,0.2-0.7,0.2c-0.4,0.2-0.8,0.4-1.1,0.7c-0.4,0.2-0.7,0.7-0.9,0.9c-0.8,0.9-1.4,2.1-1.5,3.3v1.8c0.1,1,0.5,1.9,1.1,2.6
	c0.3,0.4,0.6,0.7,1.1,0.9c0.1,0.1,0.3,0.2,0.4,0.2l1.3,0.7c0.4,0.2,0.9,0.2,1.3,0.4c0.6,0.1,1.2,0.1,1.8,0c0.6,0,1.2-0.2,1.8-0.4
	c0.6-0.2,1.2-0.5,1.8-0.9c0.2,0,0.2-0.2,0.4-0.2c0.4-0.3,0.7-0.6,0.9-1.1c0.2-0.2,0.2-0.4,0.4-0.9c0.2-0.2,0.2-0.4,0.4-0.9
	c0.2-0.4,0.3-0.9,0.2-1.3C59.9,49,59.9,48.6,59.9,48.4z"/>
<path id="Tracé_4177" class="st0" d="M60.4,66.8c-0.3-2.2-2.2-3.8-4.4-3.7c-1.2,0-2.4,0.6-3.1,1.5c-0.2-0.4-0.5-0.7-0.9-0.9
	l-1.3-0.7c-0.2,0-0.4-0.2-0.9-0.2c0.7,0.2,0.7,0-0.4-0.2c-1.3-0.1-2.5,0.3-3.5,1.1c-1.1,0.7-2,1.7-2.6,2.9c-1.6,2.7-2.7,5.7-3.3,8.8
	c-0.3,1.3-0.4,2.6-0.4,4c-0.1,1.7,0.1,3.4,0.7,5.1c1,2.3,3.7,3.4,6,2.4c0.5-0.2,0.9-0.5,1.3-0.8c-0.2,2.2-0.2,4.4-0.2,6.4
	c-0.1,6.7,0.5,13.4,1.8,20c0.9,5.1,8.8,5.3,9-0.2c0.4-7.5,0.9-15,1.1-22.7c0.2-3.7,0.4-7.5,0.4-11.2C60.2,74.8,60.8,70.6,60.4,66.8z
	 M47.8,79.6v-1.3c0-0.8,0-1.6,0.2-2.4c0-0.4,0-0.8,0.2-1.1l0.2-0.9v0.9c0,0.7,0.2,1.3,0.2,1.8c0,0.2,0.1,0.5,0.2,0.7
	c-0.3,0.9-0.4,1.7-0.4,2.6C48.3,80,48.1,79.8,47.8,79.6L47.8,79.6z"/>
<path id="Tracé_4178" class="st0" d="M118.3,76.1c0-0.9-0.2-1.8-0.2-2.9l-0.7-5.3c-0.5-3.6-0.8-7.2-0.9-10.8
	c-0.1-0.7-0.4-1.3-0.9-1.8v-1.8c0.2-2.3,0.1-4.6-0.2-6.8c0.2-1.1,0.2-2.4,0.4-3.5c0.4-2.6-2.4-6.2-5.5-5.3
	c-4.8,1.3-9.9,0.7-14.7,0.2c-5.5-0.4-11-1.3-16.5-1.5c-2.6,0-4.4,1.3-4.8,3.3l0,0c-0.7-1.6-2.6-2.3-4.2-1.5c-1,0.4-1.6,1.4-1.8,2.4
	c-0.4,3.1,0.2,6.4,0.4,9.5c0.2,3.1,0.4,6.4,0.4,9.5v1.5h-1.5c-1.1,0-2.3,0.2-3.3,0.7H63c-0.4,0-0.8,0-1.1,0.2
	c-0.2,0-0.4,0.2-0.7,0.2c-0.2,0.2-0.4,0.2-0.7,0.4c0,0.2-0.2,0.2-0.2,0.4s-0.2,0.4-0.2,0.7v0.4c0,0.2,0.2,0.4,0.4,0.7l0.4,0.4h0.2
	c0.2,0.9,1,1.6,2,1.5h5.9c-0.2,4-0.4,7.7-0.7,11.7C68.3,82,70.9,84,74,84c6.6-0.2,13-0.4,19.6-0.4c3.1,0,6.2,0.4,9.2,1.1
	c2.9,0.8,6,0.3,8.4-1.5c1.1-0.8,1.8-2,2-3.3l0.2,0.2c1.1,1.3,3.1,1.5,4.4,0.3c0.4-0.3,0.7-0.7,0.9-1.2
	C118.6,78.1,118.5,77.1,118.3,76.1z"/>
<path id="Tracé_4199" class="st1" d="M81,44.5c-1-1.9-2.6-3.3-4.6-4c-1.2-0.3-2.4-0.3-3.5,0c-0.9,0.3-1.7,0.9-2.2,1.8
	c-0.4,0.5-0.4,1.3,0,1.8c0.4,0.5,0.9,0.8,1.5,0.9c0.2,0,0.5-0.1,0.7-0.2h1.8c0.2,0.2,0.4,0.2,0.7,0.2l0,0l0.2,0.2
	c0.2,0.2,0.4,0.2,0.7,0.4l0,0l0.4,0.4c0,0.1,0.1,0.2,0.2,0.2c0,0,0,0,0,0v0.2c0,0.1,0.1,0.2,0.2,0.2c0,0,0,0,0,0l0,0v1.8l0,0
	c0,0.2,0,0.2-0.2,0.4c0,0.2,0,0.2-0.2,0.4v0.2l0,0c-0.2,0.2-0.2,0.4-0.4,0.7c0,0.2-0.2,0.2-0.2,0.4l0,0c-0.3,0.3-0.5,0.5-0.9,0.7
	c-0.2,0-0.2,0.2-0.4,0.2c-0.1,0-0.2,0.1-0.2,0.2c0,0,0,0,0,0c-0.6,0.2-1.2,0.5-1.8,0.9c-0.6,0.2-1.2,0.3-1.8,0.2l-0.4-0.2l0,0
	c-0.2,0-0.2-0.2-0.4-0.2c0,0-0.4-0.4-0.4-0.2c-1.8-1.5-2-3.5-1.8-5.9c0.4-1.2,0.9-2.3,1.5-3.3c0.2-0.4,0.5-0.8,0.9-1.1
	c0.4-0.4,0.9-0.7,1.1-1.1v-0.2c-0.9-0.7-2.6,0-3.5,0.4c-1.3,0.9-2.2,2.2-2.6,3.7c-1,3.2-0.5,6.7,1.3,9.5c1.3,1.9,3.6,3,5.9,2.6
	c2.1-0.2,4.1-1.1,5.7-2.4C81,52.5,83,48.1,81,44.5z"/>
<path id="Tracé_4200" class="st1" d="M138.9,60.8c0.3-3.6,0.4-7.2,0.2-10.8c-0.3-3.3-1.1-6.5-2.4-9.5c0.7-0.4,0.9-1.3,0.5-2
	c-0.2-0.3-0.4-0.5-0.7-0.6c-3.7-1.8-8.6-0.9-12.5-0.9h-13c0.1-0.1,0.2-0.3,0.2-0.4v-0.2l0,0v-1.3l0,0c0-0.1-0.1-0.2-0.2-0.2
	c0,0,0,0,0,0c0-0.1-0.1-0.2-0.2-0.2c0,0,0,0,0,0c-0.2-0.2-0.4-0.4-0.7-0.4h-0.2c-0.4-0.2-0.9-0.3-1.3-0.2c-0.2,0-0.4,0.2-0.4,0.4
	c-0.2,0.2-0.2,0.4-0.2,0.7l0,0c0,0.2-0.2,0.7,0,0.9l0,0c0,0.2,0,0.2,0.2,0.4l0,0c0,0.2,0.2,0.2,0.2,0.4c0,0.1,0.1,0.2,0.2,0.2
	c0,0,0,0,0,0H85c-2,0-2.4,3.1-0.4,3.1h1.3c-1,3.3-1.6,6.7-1.8,10.1v5.5c-0.1,1.3,0.1,2.5,0.4,3.7c-3.6-0.1-7.1,0.3-10.6,1.1
	c-1.8-0.4-3.7-0.4-5.5,0c-2,0.3-3.9,1.2-5.5,2.4c-0.7,0.7-1.5,1.1-2.2,1.8c-0.6,0.7-1.1,1.5-1.3,2.4c-0.5,1-0.6,2-0.4,3.1v0.2
	c-0.2,0.4-0.4,0.8-0.7,1.1c-0.4,0.9-0.7,1.9-0.9,2.9c-0.5,2-0.6,4.1-0.4,6.2c0.3,2,0.8,3.9,1.8,5.7c0.3,0.9,0.9,1.7,1.8,2.2
	c0.8,0.3,1.7,0,2.2-0.7c0.3-0.4,0.3-0.9,0-1.3c0.2,0.2,0,0,0-0.2c0-0.2-0.2-0.4-0.4-0.4h-0.4c-0.2-0.2-0.2-0.4-0.2-0.9
	c-0.2-0.7-0.2-1.3-0.4-2l-0.7-4.6c-0.1-1.5-0.1-2.9,0-4.4c0-0.7,0-1.3,0.2-2h0.4c0.9-0.2,1.1-1.3,1.3-2.2c0.2-0.7,0.2-1.1,0.4-1.8
	c0-0.2,0.2-0.2,0.2-0.4c0,0.2,0.2-0.2,0.2-0.2c0.3-0.3,0.5-0.5,0.7-0.9c0.2-0.2,0.4-0.5,0.4-0.9c0.3-0.3,0.5-0.5,0.9-0.7
	c2.4-1.8,5.3-1.5,8.1-1.5l0,0c4.2,0,8.1-0.4,12.3-0.4c4.1,0,8.2,0.2,12.3,0.7c0.4,0,0.9,0.2,1.3,0.2h-0.4c-2.2,0.2-4.4,0-6.8,0.2
	h-6.2c-1.8,0-4.2-0.4-5.7,0.4c-0.3,0.2-0.4,0.5-0.4,0.9c-0.7,0.2-1.3,0.7-1.3,1.3c-0.9,3.7-0.2,8.4-0.2,12.3v13
	c-0.2,4.2-0.2,8.4-0.7,12.3c-0.2,2.9-0.2,7.9-2.6,10.1c0.1-1.3,0.1-2.7-0.2-4c-0.2-2-0.2-4-0.4-5.9c-0.2-4-0.2-7.7-0.2-11.7
	c0-1.1-1.8-1.5-2-0.2c-0.4,3.9-0.5,7.8-0.4,11.7v5.7c0,1.5-0.2,4,0.7,5.3c-2.6-0.2-3.3-4.2-3.5-6.4c-0.4-4-0.7-8.1-1.1-12.1
	c-0.2-4.4-0.4-8.6-0.7-13c-0.2-4.2,0-8.6-1.1-12.8c-0.2-0.7-1.3-1.1-1.5-0.2c-1.3,4.6-0.9,9.7-0.9,14.5c0,5.3,0.4,10.6,0.9,15.8
	s0.2,18.5,8.6,17.6c3.7-0.4,6.2-3.5,6.8-7c1.1-4.8,1.1-10.3,1.3-15.2l0.7-15.8c0.2-4.4,0.4-9.9-0.7-14.3c0.9,0.2,1.9,0.3,2.9,0.2
	h1.1v7.5c0,2.8,0.2,5.6,0.7,8.4c0,0.6,0.5,1.1,1.1,1.1v0.2C90.3,85,93.8,85,97.1,85c4,0,7.7,0,11.7,0.2H120c3.5,0,7.3,0.4,10.8-0.2
	c0.4,0,0.4-0.9,0-0.9c-3.5-0.9-7.5-0.7-11-0.7c-3.7,0-7.5-0.2-11.2-0.4c-3.7,0-7.5-0.2-11.2-0.2c-3.3,0-6.4-0.2-9.5,0.4
	c0.2-0.3,0.3-0.7,0.2-1.1c-0.4-2.6-0.7-5.5-0.9-8.1c-0.1-1.3-0.1-2.6,0-4V67h0.9c2.6,0,5.1,0.2,7.7,0.4c2,0,5.1,0.7,6.8-0.7
	c1.5-1.2,1.7-3.5,0.5-5c0,0,0-0.1-0.1-0.1c-1.3-1.8-3.7-2-5.7-2.2c-2.6-0.2-5.5-0.4-8.1-0.4H87c0-1.3,0-2.5-0.2-3.7
	c-0.2-1.8-0.3-3.5-0.2-5.3c-0.1-3.5,0.1-6.9,0.4-10.3c8.1,0.2,16.1,0.2,24.2,0.4c4.4,0,8.8,0.2,13.2,0.4c3.7,0.2,8.4,0.9,11.9-0.7
	c0.4,1.9,0.7,3.8,0.7,5.7c-0.2,1.7-0.3,3.4-0.2,5.1c-0.2,3.7-0.4,7.5-0.9,11.2c-0.2,3.7-0.7,7.5-0.7,11.2c0,2.9-0.2,7,1.5,9.5
	c0.4,0.7,1.5,0.2,1.8-0.4c0.2-1.8-0.4-3.5-0.4-5.3c-0.2-1.8-0.3-3.7-0.2-5.5C138.3,68.1,138.7,64.3,138.9,60.8z"/>
<path id="Tracé_4201" class="st1" d="M133.2,88.8c-3.3-0.7-7,0-10.6,0.2c-3.7,0.2-7.7,0.4-11.4,0.4c-7,0-14.3-1.1-21.3,0
	c-0.4,0-0.7,0.7,0,0.9c6.6,2,14.3,1.8,21.3,1.8c-0.4,0.7-0.6,1.6-0.7,2.4c-0.3,1.1-0.4,2.2-0.4,3.3v2.4c0,0.2,0.1,0.5,0.2,0.7
	c0-0.2-0.2,0,0,0.2v0.4c0,0.7,0.4,1.1,0.4,1.8c0.2,0.7,0.7,1.3,1.3,1.3l0,0c0,0.2-0.2,0.2-0.2,0.4c0.1,0.8,0.3,1.5,0.7,2.2
	c0.4,0.8,1,1.5,1.5,2.2c1.1,1.3,2.2,2.4,3.5,3.7c2.4,2.2,5,4.2,7.7,5.9c0.5,0.3,1.2,0.3,1.8,0c0.2-0.2,0.4-0.4,0.4-0.7
	c0.2-0.6,0-1.2-0.4-1.5c-2.4-2-4.8-4-7-6.2l-3.3-3.3c-0.6-0.5-1.2-1.1-1.8-1.8c-0.7-0.4-1.3-0.7-2-1.1c0.5-0.2,0.8-0.6,0.9-1.1
	c0-0.3,0-0.6,0.2-0.9c0-0.2,0.2-0.7,0.2-0.9v-3.3c0-1.1,0.2-2.2,0.2-3.3c0.2-1,0.1-1.9-0.2-2.9h8.6c3.5,0,7.3,0.2,10.8-0.9
	c0.7-0.5,0.9-1.4,0.4-2C133.8,89.1,133.5,88.9,133.2,88.8z"/>
<path id="Tracé_4202" class="st1" d="M110.5,105.3c-0.7,0.6-1.4,1.1-2.2,1.5c-0.7,0.4-1.5,1.1-2.2,1.5c-1.5,1.1-3.1,2.4-4.4,3.5
	s-2.9,2.4-4.2,3.5c-0.6,0.6-1.3,1.2-2,1.8c-0.7,0.7-1.5,1.3-1.8,2.2c-0.2,0.6,0.1,1.3,0.7,1.5c0.2,0.1,0.4,0.1,0.6,0
	c0.9-0.4,1.7-0.8,2.4-1.3c0.6-0.6,1.3-1.2,2-1.8c1.3-1.3,2.9-2.6,4.2-3.7c1.3-1.3,2.6-2.4,4-3.7s2.4-2.9,3.7-4.2
	C111.4,105.5,111,104.8,110.5,105.3z"/>
</svg>
