<svg xmlns="http://www.w3.org/2000/svg" xmlns:xlink="http://www.w3.org/1999/xlink" x="0px" y="0px" viewBox="0 0 304 187.1" style="enable-background:new 0 0 304 187.1;" xml:space="preserve"><style type="text/css">	.st0{fill:#FFFFFF;}	.st1{fill:#E84F2D;}	.st2{fill:#004661;}	.st3{fill:none;stroke:#004661;stroke-width:0;stroke-linecap:round;stroke-linejoin:round;}</style><g id="Calque_7">	<path class="st0" d="M313.4,7.4c0.4-1.7-0.2-3.2-1.4-4.2c0.1-0.7,0.2-1.4,0-2.1c0.3-0.3,0.5-0.6,0.8-0.9c2.8-2.8,0.2-8.1-3.8-6.2   c-0.6,0.3-1.2,0.7-1.8,1.1c-1.6-1.3-4.1-1.6-5.8,0.6c-0.2,0.3-0.5,0.6-0.7,0.9c-1.4-0.5-3-0.2-4.2,1.2c-1.5-1.1-3.7-1.2-5.3,0.9   c-0.3,0.4-0.6,0.9-1,1.3c-1.2-2.8-6-3.6-8.1-0.4c-1.5-1.7-4.3-2.3-6-0.6c-0.2,0.2-0.5,0.5-0.7,0.7c-1.1-1.4-3-2-4.6-0.4   c-4.7,4.7-8.4,10.1-11.7,15.8c-1.9,3.3,1,7.7,4.9,6c0.3-0.2,0.6-0.3,1-0.4c0.7,0.4,1.5,0.7,2.5,0.6c-3.4,5-6.4,10.5-8.6,16.1   c-1.2-0.4-2.5-0.1-3.7,0.7c-1.8,1.2-3.7,2.9-5,4.9c-0.6-0.7-1.4-1.2-2.4-1.5c-3.1-1.1-6.5,0.5-9.5,1.4c-3.6,1.1-7.3,2.4-10.3,4.8   c-0.8,0.6-1.2,1.4-1.3,2.2c-0.1,0-0.2,0-0.3,0c-4.6,0.3-8.4,5.4-11.5,8.4c-1.6,1.5-3.2,3-4.7,4.6c-0.6,0.7-1.2,1.4-1.7,2.2   c-0.1,0.1-0.2,0.5-0.4,1c-0.7,0.3-1.2,0.9-1.5,1.8c-0.2,0.8-0.4,1.5-0.5,2.3c-0.3,2.9,2.6,5,5.3,3.9c1.1-0.5,1.9-1.2,2.4-2   c1.1,0.3,2.4,0,3.4-0.7c0.7-0.5,1.4-1,2.1-1.5c0.5-0.4,0.9-0.8,1.1-1.3c0.8-0.6,1.7-1.2,2.5-1.7c1.8-1.1,2.9-3.1,2-5.1   c0.9-0.8,1.8-1.5,2.8-1.7c1-0.2,2-0.8,2.6-1.6c0.8,0.4,1.8,0.5,2.7,0.3c0.3,0.1,0.5,0.2,0.6,0.2c0.4,0.1,0.8,0.1,1.2,0.1   c0.7,0,1.5-0.2,2.1-0.5c0.1-0.1,0.4-0.1,0.5-0.2c0,0,0,0,0.1-0.1c0.6-0.2,1.1-0.5,1.6-0.8c0.6,0.3,1.3,0.4,2,0.5   c-0.7,0.4-1.3,1-1.5,1.7c-0.1,0.4-0.3,0.8-0.4,1.2c-0.7,0.1-1.4,0.3-1.9,0.7c-0.7,0.6-1.3,1.4-1.3,2.4c0,0.2,0,0.5,0,0.7   c0,0.3,0,0.6,0.1,0.9c0.1,0.2,0.1,0.4,0.2,0.5c0,0.1,0,0.1,0.1,0.2c-1.2,2.6-1.8,5.4-2.5,8.1c-0.1,0-0.1,0.1-0.2,0.1   c-1.8,1.9-3,4.3-4.1,6.7c-0.7,1.5-1.7,3.4-1.9,5.2c-0.8,1.8-1.5,3.6-2.2,5.2c-0.2,0.5-0.4,0.9-0.6,1.4c-4,4.4-6.3,10.6-8.5,16   c-0.9,2.2-2,4.6-2.5,6.9c-0.8,0.7-1.5,1.5-2.1,2.3c-0.9,1.2-2.1,2.7-3.1,4.3c-1-0.4-2.1-0.7-3.3-0.5c-0.2,0-0.4-0.1-0.7-0.1   c-1-0.4-2.2-0.4-3.2-0.5c-1.6-0.1-3.5-0.1-4.4,1.4c-0.6,1.1-0.8,2.6,0.1,3.7c0.7,0.8,2,1.3,3,1c0.1,0,0.2,0,0.3,0   c0.4,0.1,0.8,0.1,1.2,0.2c0.6,0.1,1.3,0.1,1.9,0.1c0.6,0.2,1.2,0.4,1.8,0.5c0.3,0.1,0.6,0.1,0.9,0.2c0.1,0,0.2,0.1,0.3,0.1   c0,0.2,0,0.3,0.1,0.5c0,0.1,0.1,0.2,0.1,0.3c-1.3,0.1-2.7,0.5-3.9,0.7c-1.7,0.3-3.7,0.5-5.3,1.4c-2.3-0.1-4.7,0.1-6.3,1   c-3.5,2-2.6,6.6,0.3,7.7c-0.3,0.2-0.6,0.5-0.9,0.7c-1,0.6-2,0.9-2.8,1.9c-1.3,1.8-1,4.6,1.1,5.7c0.5,0.3,1.1,0.5,1.7,0.5   c0.3,0.1,0.5,0.1,0.8,0c0.1,0,0.2,0,0.4-0.1c0,0,0.1,0,0.1,0l0,0c0.2,0,0.3-0.1,0.5-0.2c0.4-0.1,0.8-0.3,1.2-0.6   c0.6-0.4,1.2-0.7,1.8-1c1.8,0.1,3.7-0.8,5.5-1.4c2.8-1,6-2,7.9-4.3c0.1-0.1,0.2-0.2,0.2-0.4c2.4-1.1,5.1-2.1,7.1-3.9   c0.2-0.2,0.4-0.4,0.5-0.6c1.9-0.8,3.7-1.7,5.5-2.6c1.7-0.8,2.4-2.9,1.9-4.5c0.1,0,0.2-0.1,0.2-0.1c0,0,0,0,0,0c0.4,0,0.8,0,1.3-0.1   c0.4-0.1,0.9-0.2,1.3-0.3c0.8-0.1,1.6-0.4,2.3-0.9c0.3-0.3,0.6-0.6,0.8-1l0,0c0.3-0.3,0.5-0.7,0.6-1.1c0.5-0.8,0.9-1.6,0.9-2.6   c0-0.1,0-0.1,0-0.2c0.7-0.1,1.5-0.4,1.9-0.9c3.9-3.8,10.8-11,9.9-17.1c1.5,0,3.1-0.8,4-2.5c4.9-9.9,9.8-19.8,14.6-29.7   c3.9-8,8.8-17.1,9.5-26.2c1.2-2.4,2.1-5.1,3.7-6.9c1.8-2,4.5-2.8,6.3-4.8c0.7-0.8,1.3-1.6,1.8-2.5c0.6-0.3,1.2-0.7,1.7-1.3   c0.2-0.3,0.5-0.6,0.7-0.9c0.1,0.6,0.2,1.3,0.5,1.9c0.1,0.2,0.3,0.6,0.6,1c0,0.5,0.1,1.1,0.3,1.6c0,0.1,0.1,0.1,0.1,0.2   c-0.4,0.8-0.7,1.7-1,2.6c-1.9,3,3,8.3,6,4.1c2.4-3.4,4.1-7.4,6.2-11c0.1-0.1,0.1-0.2,0.2-0.3c0.7-0.2,1.5-0.7,2.1-1.4   c0.2-0.2,0.3-0.4,0.5-0.6c1-0.1,2.1-0.6,2.9-1.8c2.1-3.1,4.9-6.3,7-9.7c0.3-0.3,0.5-0.6,0.8-0.9c0.5-0.6,0.8-1.3,0.8-1.9   c0.4-0.8,0.8-1.6,1-2.5C314.8,9.8,314.4,8.4,313.4,7.4z M250.3,51.9c0-0.6-0.2-1.2-0.5-1.7c0.2-0.2,0.5-0.4,0.7-0.7   c0.2,0.1,0.4,0.2,0.6,0.2C250.8,50.4,250.5,51.1,250.3,51.9z M270.3,12.2c0.3-0.4,0.5-0.8,0.8-1.3c0.1,0.3,0.3,0.6,0.4,0.9   C271.2,12,270.7,12.1,270.3,12.2z"></path>	<polygon class="st0" points="166.9,41.5 132.3,152.5 133.5,155.3 168.4,159.9 191.6,104.1 205.7,53.1 216.6,17.1 217.5,11    208.1,8.1  "></polygon></g><g id="Calque_8">	<g>		<path class="st1" d="M153.5,122.5c1.8-9.8,4.4-19.4,8.4-31.1c0.6-0.7,1.6-2.8,2.3-5.1c0.9-2.7,1.1-4.6,0.6-4.3    c-0.6,0.3-1.7,2.7-2.6,5.3c-0.7,2.2-1,3.9-0.8,4.2c-4.2,12.3-6.9,22.3-8.8,32.5c-0.1,0.3,0,0.4,0,0.4c0,0,0.1-0.1,0.2-0.3    C153.1,123.8,153.4,123,153.5,122.5"></path>		<path class="st1" d="M158.4,109.4c-0.1,0-0.3-0.1-0.4-0.2c0.3-0.4,0.5-0.6,0.7-0.8c0.1-0.1,0.2-0.4,0.3-0.7c0.1-0.3,0.1-0.5,0-0.4    c-0.2,0.2-0.5,0.5-0.8,1c0.3-1,0.7-1.9,1-2.8c0.1-0.3,0.2-0.6,0.2-0.7c0-0.1-0.1,0.1-0.2,0.3c-0.4,0.9-0.7,1.9-1.1,2.9l0.4-1.8    c0.1-0.2,0-0.3-0.1-0.1c-0.1,0.2-0.2,0.5-0.3,0.7l-0.4,2c-0.2-0.1-0.4-0.2-0.5-0.2c-0.1,0-0.2,0.2-0.3,0.5    c-0.1,0.3-0.1,0.5-0.1,0.5c0.1,0,0.2,0.1,0.4,0.2c-0.2,0.4-0.5,0.8-0.8,1.4c-0.1,0.2-0.2,0.5-0.3,0.8c0,0.1,0,0.2,0,0.2    c0,0,0.1-0.1,0.1-0.1c0.4-0.8,0.8-1.5,1.1-2c-0.3,0.8-0.6,1.6-0.9,2.4c-0.1,0.3-0.2,0.6-0.1,0.6c0,0,0,0,0,0c0,0,0.1-0.2,0.2-0.4    c0.2-0.4,0.3-0.8,0.5-1.3l-0.4,2c0,0.2,0,0.3,0,0.2c0,0,0,0,0.1-0.1c0.1-0.2,0.2-0.5,0.3-0.7l0.6-2.7c0.2,0.1,0.3,0.2,0.4,0.2    c0,0,0,0,0,0c0.1,0,0.2-0.2,0.3-0.5C158.4,109.6,158.5,109.4,158.4,109.4"></path>		<path class="st1" d="M163.1,101.7l-0.5,0l0.8-1.5c0.1-0.2,0.2-0.6,0.3-0.8c0-0.2-0.1-0.2-0.2,0.1l-0.4,0.9    c0.1-0.4,0.3-0.8,0.4-1.1c0.1-0.3,0.2-0.6,0.1-0.6c0,0-0.2,0.2-0.3,0.5c-0.2,0.5-0.3,1-0.5,1.5c0.1-0.5,0.2-1,0.3-1.6    c0-0.2,0-0.2-0.1,0c-0.1,0.2-0.2,0.6-0.3,0.8c-0.1,0.7-0.2,1.3-0.3,1.9l-0.5,0c-0.1,0-0.2,0.2-0.3,0.6c-0.1,0.3-0.1,0.5-0.1,0.5    l0.4,0l-0.4,0.8c-0.1,0.2-0.2,0.6-0.3,0.8c0,0.1,0,0.1,0,0.1c0,0,0.1-0.1,0.1-0.2l0.5-1c-0.2,0.6-0.4,1.3-0.6,1.9    c-0.1,0.3-0.1,0.5-0.1,0.5l0,0c0.1,0,0.2-0.3,0.3-0.6c0.2-0.6,0.4-1.3,0.6-1.9c0,0.3-0.1,0.5-0.1,0.8c0,0.1,0,0.2,0,0.1    c0,0,0.1-0.1,0.1-0.2c0.1-0.2,0.2-0.6,0.3-0.8c0-0.1,0-0.3,0.1-0.4l0.3,0c0,0,0,0,0,0c0.1,0,0.2-0.3,0.3-0.6    C163.1,102,163.1,101.7,163.1,101.7"></path>		<path class="st1" d="M179.1,49.4c0-0.2,0-0.2-0.1,0l-0.8,1.4l0.5-1.5c0.1-0.3,0.1-0.5,0.1-0.5c0,0-0.2,0.2-0.3,0.5l-0.3,0.8    c0-0.2,0.1-0.4,0.1-0.6c0-0.2,0-0.2-0.1-0.1c-0.1,0.2-0.2,0.5-0.3,0.7c-0.1,0.3-0.1,0.6-0.2,0.9c-0.1,0-0.2-0.1-0.3-0.1    c0,0-0.1,0.2-0.2,0.4c-0.1,0.3-0.2,0.5-0.1,0.5c0.1,0.1,0.2,0.1,0.3,0.2l-0.8,1.5c-0.1,0.2-0.2,0.5-0.2,0.7c0,0.1,0,0.2,0,0.1    c0,0,0-0.1,0.1-0.1l0.7-1.2l-0.3,0.8c-0.1,0.3-0.1,0.5-0.1,0.5c0,0,0,0,0,0c0.1,0,0.2-0.2,0.2-0.5l0.4-1c-0.1,0.4-0.1,0.7-0.2,1    c0,0.1,0,0.1,0,0.1c0,0,0.1-0.1,0.1-0.2c0.1-0.2,0.2-0.5,0.2-0.7c0.1-0.3,0.1-0.7,0.2-1c0,0,0.1,0,0.1,0c0,0,0,0,0,0    c0.1,0,0.2-0.2,0.2-0.5c0.1-0.3,0.1-0.5,0.1-0.5c0,0,0,0-0.1,0l0.5-0.9C178.9,49.9,179,49.6,179.1,49.4"></path>		<path class="st1" d="M170.8,69c-0.1,0.8-0.1,1.5-0.2,2.1c0,0.1,0,0.2,0.1,0.1c0.1,0,0.2-0.2,0.3-0.5c0.2-0.5,0.4-1.1,0.4-1.4    c0-0.4,0.1-0.9,0.1-1.5c0.2-0.1,0.4-0.1,0.6-0.2c0,0,0,0,0,0c0.1-0.1,0.4-0.5,0.5-1.1c0.2-0.6,0.3-1,0.2-1    c-0.3,0.1-0.5,0.2-0.8,0.3c0.4-0.8,0.8-1.4,1.1-1.8c0.2-0.2,0.4-0.8,0.6-1.4c0.2-0.6,0.2-0.8,0-0.7c-0.4,0.4-0.9,1.3-1.4,2.3    l0.9-2.7c0.2-0.6,0.3-1,0.1-1c-0.1,0.1-0.4,0.6-0.6,1.2l-1,3c0.1-0.8,0.1-1.5,0.2-2c0-0.3-0.2-0.1-0.4,0.4    c-0.2,0.5-0.4,1.1-0.4,1.4c0,0.5-0.1,1.1-0.1,1.7c-0.2,0.2-0.5,0.3-0.7,0.5c-0.1,0.1-0.4,0.6-0.6,1.2c-0.2,0.6-0.2,0.9-0.1,0.8    c0.2-0.2,0.4-0.3,0.7-0.5c-0.5,1-0.9,2.1-1.4,3c-0.2,0.5-0.4,1.1-0.4,1.4c0,0.1,0,0.1,0.1,0.1c0.1,0,0.2-0.3,0.4-0.6    c0.4-0.9,0.8-1.8,1.2-2.7l-1.4,4c-0.2,0.6-0.3,1-0.1,1c0,0,0,0,0,0c0.1-0.1,0.4-0.6,0.5-1.1L170.8,69z"></path>		<path class="st1" d="M169,79.2c-0.1-0.2-0.2-0.2-0.4-0.3l0.7-1.4c0.2-0.3,0.3-0.7,0.3-1c0-0.2-0.1-0.2-0.2,0.1l-0.5,0.9    c0.1-0.4,0.3-0.8,0.4-1.2c0.1-0.4,0.2-0.7,0.1-0.7c-0.1,0-0.2,0.3-0.4,0.7c-0.2,0.5-0.4,1.1-0.6,1.6c0.1-0.6,0.2-1.1,0.3-1.7    c0-0.3,0-0.3-0.2,0c-0.1,0.3-0.3,0.7-0.3,1c-0.1,0.6-0.2,1.2-0.3,1.8c-0.2,0.1-0.4,0.3-0.7,0.5c-0.1,0.1-0.3,0.4-0.4,0.8    c-0.1,0.4-0.1,0.6,0,0.5c0.2-0.2,0.4-0.3,0.6-0.4l-0.6,1.3c-0.1,0.3-0.3,0.7-0.3,1c0,0.1,0,0.2,0,0.1c0,0,0.1-0.1,0.2-0.3l0.5-1.1    c-0.2,0.7-0.5,1.4-0.7,2.1c-0.1,0.4-0.2,0.6-0.1,0.6l0,0c0.1,0,0.3-0.4,0.4-0.8c0.2-0.7,0.5-1.4,0.7-2.1c0,0.3-0.1,0.5-0.1,0.8    c0,0.1,0,0.2,0,0.2c0,0,0.1-0.1,0.2-0.2c0.1-0.3,0.3-0.7,0.3-1c0-0.2,0.1-0.5,0.1-0.7c0.1,0,0.2,0.1,0.3,0.2c0,0,0,0,0,0    c0.1,0,0.2-0.3,0.3-0.6C169,79.7,169,79.3,169,79.2"></path>		<path class="st1" d="M165.5,71.6c-0.1,0-0.2-0.1-0.4-0.3c0.3-0.5,0.5-0.9,0.8-1.4c0.1-0.2,0.3-0.6,0.4-0.9c0.1-0.3,0-0.4-0.1-0.2    c-0.4,0.6-0.7,1.2-1,1.8c0.3-1,0.7-2,1-3c0.1-0.4,0.2-0.7,0.1-0.7c-0.1,0-0.2,0.3-0.3,0.6c-0.3,0.8-0.6,1.7-0.9,2.5    c0.1-0.6,0.2-1.2,0.4-1.9c0.1-0.3,0-0.3-0.1-0.1c-0.1,0.2-0.3,0.7-0.3,0.9c-0.1,0.7-0.3,1.3-0.4,1.9c-0.1-0.1-0.2-0.3-0.3-0.4    c0-0.1-0.2,0.2-0.3,0.5c-0.1,0.4-0.2,0.7-0.2,0.8c0.1,0.2,0.2,0.4,0.4,0.5c-0.4,0.8-0.8,1.7-1.2,2.6c-0.1,0.3-0.3,0.7-0.3,0.9    c0,0.1,0,0.1,0,0.1c0,0,0.1-0.1,0.2-0.3c0.4-0.8,0.7-1.6,1.1-2.4c-0.1,0.4-0.3,0.8-0.4,1.2c-0.1,0.4-0.3,0.8-0.4,1.2    c-0.1,0.3-0.1,0.6-0.1,0.5c0,0,0,0,0,0c0.1-0.1,0.2-0.4,0.4-0.8c0.1-0.4,0.3-0.8,0.4-1.2c0-0.1,0.1-0.3,0.1-0.4    c-0.1,0.6-0.2,1.2-0.3,1.9c0,0.1,0,0.2,0,0.2c0,0,0.1-0.1,0.1-0.2c0.1-0.3,0.3-0.7,0.3-0.9c0.1-0.7,0.2-1.4,0.3-2    c0.2,0.1,0.3,0.2,0.4,0.3c0,0,0,0,0,0c0.1,0,0.2-0.3,0.3-0.6C165.5,72,165.6,71.6,165.5,71.6"></path>		<path class="st1" d="M157.3,90.7c-0.1,0-0.1,0-0.2,0l0.5-1c0.1-0.2,0.2-0.5,0.2-0.6c0-0.1,0-0.1-0.1,0.1l-0.3,0.6    c0.1-0.2,0.2-0.5,0.2-0.7c0.1-0.2,0.1-0.4,0.1-0.4c0,0-0.1,0.2-0.2,0.4c-0.1,0.3-0.2,0.7-0.3,1c0.1-0.4,0.1-0.7,0.2-1.1    c0-0.2,0-0.2-0.1,0c-0.1,0.2-0.2,0.4-0.2,0.6c-0.1,0.4-0.1,0.8-0.2,1.1c-0.1,0-0.2,0.1-0.4,0.3c-0.1,0.1-0.2,0.3-0.2,0.5    c-0.1,0.2-0.1,0.4,0,0.3c0.2-0.2,0.3-0.2,0.3-0.2l-0.4,0.8c-0.1,0.2-0.2,0.4-0.2,0.6c0,0.1,0,0.1,0,0.1c0,0,0.1-0.1,0.1-0.2    l0.3-0.7c-0.1,0.4-0.3,0.9-0.4,1.3c-0.1,0.2-0.1,0.4-0.1,0.4l0,0c0,0,0.1-0.2,0.2-0.5c0.1-0.4,0.3-0.8,0.4-1.3    c0,0.2-0.1,0.3-0.1,0.5c0,0.1,0,0.1,0,0.1c0,0,0.1-0.1,0.1-0.1c0.1-0.2,0.2-0.4,0.2-0.6c0-0.1,0-0.2,0-0.3c0,0,0.1,0,0.1,0    c0,0,0,0,0,0c0,0,0.1-0.2,0.2-0.4C157.3,90.8,157.4,90.6,157.3,90.7"></path>		<path class="st1" d="M160.1,83.1c-0.2,0.1-0.3,0.3-0.5,0.5c0.3-0.7,0.6-1.4,1-2c0.1-0.2,0.2-0.4,0.2-0.6c0-0.2,0-0.2-0.1,0    c-0.3,0.5-0.6,1.1-0.9,1.8c0.2-0.7,0.4-1.3,0.6-2l0-0.1c0.1-0.2,0.1-0.4,0-0.3c-0.1,0.1-0.2,0.3-0.2,0.5l0,0.1    c-0.2,0.7-0.4,1.4-0.6,2.1l0-0.5c0-0.1-0.1,0-0.2,0.2c-0.1,0.2-0.2,0.5-0.2,0.6l0,0.6c-0.2,0.2-0.3,0.4-0.5,0.6    c-0.1,0.1-0.2,0.3-0.2,0.5c-0.1,0.2-0.1,0.3,0,0.3c0,0,0,0,0,0c0.1-0.2,0.3-0.3,0.4-0.5c-0.2,0.4-0.3,0.8-0.4,1.1    c-0.1,0.2-0.1,0.4-0.1,0.5c0,0,0,0,0,0c0,0,0.1-0.2,0.2-0.4c0.2-0.4,0.3-0.9,0.5-1.3c-0.3,1-0.5,1.9-0.6,2.6c0,0.1,0,0.2,0,0.1    c0,0,0,0,0.1-0.1c0.1-0.2,0.2-0.4,0.2-0.6c0.1-0.5,0.3-1.3,0.5-2l0,0.8c0,0,0,0,0,0c0,0,0.1-0.1,0.1-0.2c0.1-0.2,0.2-0.5,0.2-0.6    l0-0.6c0.1-0.1,0.2-0.2,0.3-0.3c0.1,0,0.2-0.3,0.2-0.5C160.2,83.3,160.2,83.1,160.1,83.1"></path>		<path class="st1" d="M173.5,57.7c-0.2,0-0.4,0.1-0.6,0.3c0.3-0.7,0.7-1.4,1.1-2.1c0.1-0.2,0.2-0.6,0.3-0.8c0-0.2,0-0.2-0.1,0    c-0.5,0.9-0.9,1.7-1.3,2.5c0.4-1.3,0.8-2.4,1.1-3.4c0.1-0.3,0.1-0.5,0.1-0.5c-0.1,0-0.2,0.3-0.3,0.6c-0.3,0.9-0.7,2.1-1.1,3.4    c0-0.4,0.1-0.8,0.2-1.4c0.1-0.3,0-0.3-0.1-0.2c-0.1,0.2-0.2,0.5-0.3,0.8c-0.2,0.7-0.3,1.2-0.3,1.7c-0.2,0.2-0.3,0.4-0.5,0.5    c-0.1,0.1-0.2,0.4-0.3,0.7c-0.1,0.3-0.1,0.4,0,0.4c0,0,0,0,0,0c0.1-0.1,0.3-0.3,0.4-0.4c-0.3,0.6-0.5,1.1-0.7,1.6    c-0.1,0.3-0.2,0.6-0.2,0.7c0,0.1,0,0.1,0,0.1c0,0,0.1-0.1,0.2-0.3c0.2-0.5,0.5-1.2,0.9-1.9c-0.4,1.2-0.7,2.3-1,3.2l-0.1,0.3    c-0.1,0.3-0.1,0.5,0,0.4c0,0,0,0,0,0c0.1-0.1,0.2-0.4,0.3-0.7l0.1-0.3c0.3-0.9,0.7-2.1,1-3.3c0,0,0,0.1,0,0.1c0,0.4,0,0.8,0,1.3    c0,0.1,0,0.1,0,0.1c0,0,0.1-0.1,0.1-0.2c0.1-0.2,0.2-0.6,0.3-0.8c0.1-0.5,0.1-0.9,0.1-1.3c0.2-0.1,0.4-0.2,0.5-0.2    c0,0,0.2-0.2,0.3-0.6C173.5,58,173.5,57.7,173.5,57.7"></path>		<path class="st1" d="M170.2,62.3c0-0.3,0-0.3-0.2,0l-1.1,2.2l0.8-2.4c0.1-0.4,0.2-0.6,0.1-0.6c-0.1,0.1-0.2,0.4-0.4,0.8l-0.4,1.3    c0.1-0.3,0.1-0.7,0.2-1c0.1-0.3,0-0.3-0.1,0c-0.1,0.3-0.3,0.7-0.3,1c-0.1,0.4-0.2,0.9-0.2,1.3c-0.1,0-0.3-0.1-0.4-0.1    c0,0-0.2,0.2-0.3,0.6c-0.1,0.4-0.2,0.7-0.2,0.7c0.1,0.1,0.3,0.1,0.5,0.2l-1.2,2.3c-0.1,0.3-0.3,0.7-0.3,0.9c0,0.2,0,0.2,0,0.2    c0,0,0.1-0.1,0.1-0.2l1-1.9l-0.7,2.2c-0.1,0.4-0.2,0.6-0.1,0.6l0,0c0.1-0.1,0.2-0.4,0.4-0.7l0.7-2.2c-0.1,0.5-0.2,1-0.2,1.5    c0,0.1,0,0.2,0,0.1c0,0,0.1-0.1,0.2-0.2c0.1-0.3,0.3-0.7,0.3-1c0.1-0.5,0.1-1,0.2-1.5c0.1,0,0.1,0,0.2,0c0,0,0,0,0,0    c0.1,0,0.2-0.3,0.3-0.7c0.1-0.4,0.2-0.7,0.1-0.7c0,0-0.1,0-0.1,0l0.8-1.5C170,63,170.2,62.6,170.2,62.3"></path>		<path class="st1" d="M177.3,63.3c-0.1-0.1-0.3-0.3-0.4-0.5c0.2-0.3,0.4-0.6,0.6-0.9c0.1-0.2,0.3-0.7,0.4-1c0.1-0.3,0-0.5-0.1-0.3    c-0.2,0.2-0.3,0.4-0.5,0.7l1.1-2.7c0.2-0.4,0.3-0.8,0.2-0.9c0-0.1-0.2,0.2-0.4,0.6l-1.5,3.7l0.5-2.5c0.1-0.3,0-0.3-0.2-0.1    c-0.1,0.3-0.3,0.7-0.4,1l-0.3,1.3c-0.1-0.2-0.1-0.3-0.2-0.5c0-0.1-0.2,0.1-0.3,0.5c-0.2,0.4-0.3,0.8-0.2,0.9    c0.1,0.2,0.1,0.4,0.2,0.6c-0.4,0.5-0.7,1-1,1.5c-0.1,0.2-0.3,0.6-0.4,1c-0.1,0.3-0.1,0.5,0,0.4c0,0,0,0,0.1-0.1    c0.5-0.6,0.9-1.3,1.4-1.9l-1.6,3.9c-0.2,0.4-0.3,0.8-0.2,0.9c0,0,0,0,0,0c0.1,0,0.2-0.2,0.3-0.5l1.3-3.3l-0.3,1.5    c0,0.2,0,0.3,0,0.2c0,0,0.1-0.1,0.1-0.2c0.1-0.3,0.3-0.7,0.4-1l0.3-1.5c0.1,0.2,0.3,0.4,0.4,0.5c0,0,0,0,0,0    c0.1,0,0.2-0.3,0.3-0.6C177.2,63.7,177.3,63.4,177.3,63.3"></path>		<path class="st1" d="M185.3,43.2l-1.7,2.7l1.2-3c0.2-0.6,0.3-1.1,0.3-1.2c-0.1-0.1-0.3,0.3-0.5,0.8l-0.9,2.2    c0.4-1.4,0.7-2.8,0.9-3.7c0.1-0.5,0.1-0.7-0.1-0.4c-0.2,0.3-0.4,0.9-0.6,1.4c-0.3,1.1-0.7,2.5-1,4.1c-0.2-0.2-0.3-0.3-0.5-0.5    c-0.1-0.1-0.3,0.3-0.5,0.8c-0.2,0.5-0.3,1.1-0.3,1.1c0.2,0.2,0.3,0.4,0.5,0.6l-1.7,2.8c-0.2,0.3-0.4,0.9-0.5,1.4    c-0.1,0.3-0.1,0.5,0,0.4c0,0,0.1-0.1,0.1-0.2l1.4-2.3l-0.6,1.5c-0.2,0.5-0.3,1.1-0.3,1.2c0,0,0,0,0.1,0c0.1-0.1,0.3-0.4,0.4-0.8    l0.9-2.3c-0.3,1.4-0.6,2.6-0.8,3.4c-0.1,0.3,0,0.4,0,0.4c0,0,0.1-0.1,0.2-0.2c0.2-0.4,0.4-1,0.5-1.4c0.2-0.8,0.5-2,0.8-3.4    c0.1,0.1,0.2,0.1,0.3,0.2c0,0,0,0,0,0c0.1-0.1,0.3-0.5,0.5-0.9c0.2-0.6,0.3-1,0.2-1.1c0,0-0.1,0-0.1-0.1l1.1-1.8    c0.2-0.3,0.5-1,0.6-1.4C185.6,43,185.5,42.9,185.3,43.2"></path>		<path class="st1" d="M187.7,49.4c-0.3,0.2-0.6,0.3-0.9,0.3c0.4-0.7,0.7-1.3,1.1-2c0.1-0.3,0.3-0.7,0.3-0.9c0-0.2-0.1-0.2-0.2,0.1    c-0.4,0.8-0.9,1.6-1.3,2.4c0.6-1.6,1.1-3.1,1.8-4.5c0.1-0.3,0.3-0.7,0.2-0.8c0-0.1-0.1,0-0.3,0.3c-0.7,1.5-1.3,3.1-1.9,4.6    l0.2-1.8c0-0.2-0.1-0.2-0.2,0.1c-0.1,0.3-0.3,0.7-0.3,0.9l-0.2,1.8c-0.2,0-0.4,0-0.5,0c-0.1,0-0.2,0.3-0.3,0.6    c-0.1,0.3-0.2,0.6-0.1,0.6c0.2,0,0.4,0.1,0.6,0c-0.6,1-1.2,2.1-1.7,3.1c-0.1,0.2-0.3,0.6-0.3,0.9c0,0.2,0,0.2,0,0.2    c0,0,0.1-0.1,0.1-0.1c0.6-1,1.1-2,1.7-3c-0.2,0.6-0.4,1.2-0.6,1.8c-0.3,1-0.7,2-1,3c-0.1,0.3-0.2,0.6-0.1,0.6c0,0,0,0,0,0    c0.1-0.1,0.2-0.3,0.3-0.7c0.4-1,0.7-2.1,1.1-3.1c0.2-0.6,0.4-1.3,0.6-1.9l-0.3,2.2c0,0.1,0,0.2,0,0.1c0,0,0.1-0.1,0.2-0.2    c0.1-0.3,0.3-0.7,0.3-0.9l0.2-1.9c0.3-0.1,0.6-0.2,0.9-0.3c0,0,0,0,0,0c0.1-0.1,0.2-0.4,0.4-0.7C187.7,49.6,187.7,49.4,187.7,49.4    "></path>		<path class="st1" d="M196.1,25.7c-0.2,0.1-0.4,0.3-0.6,0.4c0.2-0.4,0.4-0.9,0.6-1.3c0.4-0.7,0.7-1.4,0.9-1.8    c0.1-0.3,0.2-0.6,0.3-0.8c0-0.2-0.1-0.1-0.2,0.1c-0.2,0.5-0.5,1.1-0.9,1.9c-0.1,0.3-0.3,0.6-0.5,1c0.3-1,0.7-2,1-2.7    c0.1-0.3,0.1-0.5,0.1-0.5c-0.1,0-0.2,0.3-0.3,0.6c-0.3,0.8-0.6,1.7-0.9,2.6c0.1-0.4,0.1-0.9,0.2-1.3c0-0.2-0.1-0.1-0.2,0.1    c-0.1,0.2-0.2,0.6-0.3,0.8c-0.1,0.6-0.2,1.2-0.2,1.7c-0.3,0.2-0.5,0.3-0.6,0.3c0,0-0.2,0.2-0.3,0.5c-0.1,0.3-0.2,0.6-0.1,0.6    c0.1,0.1,0.3,0,0.6-0.2c-0.3,0.6-0.6,1.1-0.8,1.4c-0.1,0.2-0.2,0.5-0.3,0.7c0,0.2,0,0.3,0,0.2c0,0,0,0,0.1-0.1    c0.2-0.3,0.5-0.9,0.9-1.6c-0.2,0.5-0.3,1-0.5,1.4c-0.1,0.3-0.1,0.5,0,0.4l0,0c0.1-0.1,0.2-0.4,0.3-0.6c0.2-0.5,0.4-1.2,0.6-1.8    c0,0.2-0.1,0.5-0.1,0.7c0,0.1,0,0.1,0,0.1c0,0,0.1-0.1,0.2-0.2c0.1-0.3,0.2-0.6,0.2-0.7c0-0.1,0-0.2,0-0.3    c0.2-0.1,0.3-0.2,0.4-0.3c0,0,0,0,0,0c0.1-0.1,0.2-0.3,0.3-0.6C196.1,25.9,196.1,25.6,196.1,25.7"></path>		<path class="st1" d="M182.1,57.3l-0.8,1.5l0.6-1.6c0.1-0.3,0.1-0.5,0.1-0.5c-0.1,0-0.2,0.3-0.3,0.5l-0.3,0.9    c0-0.2,0.1-0.4,0.1-0.6c0-0.2,0-0.2-0.1,0c-0.1,0.2-0.2,0.5-0.3,0.7c-0.1,0.3-0.1,0.6-0.2,0.9c-0.1,0-0.2,0-0.3-0.1    c0,0-0.2,0.2-0.3,0.5c-0.1,0.3-0.2,0.5-0.1,0.5c0.1,0,0.2,0.1,0.4,0.1l-0.9,1.6c-0.1,0.2-0.2,0.5-0.3,0.7c0,0.1,0,0.2,0,0.1    c0,0,0.1-0.1,0.1-0.1l0.7-1.3L180,62c-0.1,0.3-0.1,0.5-0.1,0.5c0,0,0,0,0,0c0.1,0,0.2-0.3,0.3-0.5l0.4-1.1    c-0.1,0.4-0.1,0.7-0.2,1.1c0,0.1,0,0.1,0,0.1c0,0,0.1-0.1,0.1-0.2c0.1-0.2,0.2-0.5,0.2-0.7c0-0.3,0.1-0.7,0.2-1c0.1,0,0.1,0,0.2,0    c0,0,0,0,0,0c0.1,0,0.2-0.3,0.3-0.5c0.1-0.3,0.1-0.5,0.1-0.5c0,0-0.1,0-0.1,0l0.6-1c0.1-0.2,0.2-0.5,0.3-0.7    C182.2,57.1,182.2,57.1,182.1,57.3"></path>		<path class="st1" d="M170.1,84l-0.2-0.1c-0.1-0.1-0.2-0.1-0.3-0.2c0.3-0.6,0.7-1.1,1-1.6c0.2-0.4,0.5-1.1,0.6-1.5    c0.1-0.5,0-0.5-0.2-0.1c-0.4,0.7-0.9,1.6-1.4,2.4c1.2-3.3,2.3-6.5,2.6-7.6c0.2-0.6,0.2-0.9,0-0.8c-0.2,0.2-0.4,0.7-0.6,1.3    c-0.3,0.8-1.1,3.4-2.1,6.2c0.2-1.3,0.5-2.6,0.8-3.9c0.1-0.5,0.1-0.8-0.1-0.5c-0.2,0.2-0.4,0.9-0.6,1.4c-0.4,1.4-0.7,2.8-0.9,4.1    c-0.2-0.1-0.3-0.3-0.4-0.4c-0.1-0.1-0.3,0.3-0.5,0.8c-0.2,0.6-0.3,1.1-0.3,1.2c0.1,0.2,0.3,0.4,0.5,0.5c-0.3,0.5-0.5,0.9-0.8,1.3    c-0.2,0.4-0.5,1-0.5,1.5c-0.1,0.3,0,0.4,0,0.4c0,0,0.1-0.1,0.2-0.2c0.2-0.4,0.5-0.9,0.8-1.3c-0.7,1.8-1.2,3.4-1.5,4.2    c-0.2,0.6-0.3,1.1-0.3,1.2c0,0,0,0,0,0c0.1,0,0.3-0.4,0.5-0.9c0.3-0.8,1-2.6,1.7-4.7c0,0.4-0.1,0.7-0.1,1    c-0.1,0.8-0.2,1.5-0.3,1.9c0,0.2,0,0.3,0.1,0.3c0.1,0,0.1-0.1,0.2-0.3c0.2-0.4,0.5-1.1,0.5-1.5c0.1-0.5,0.2-1.2,0.3-2    c0-0.1,0-0.2,0-0.3c0.1,0.1,0.3,0.1,0.4,0.2l0.2,0.1c0,0,0,0,0,0c0.1-0.1,0.3-0.5,0.5-1C170.1,84.5,170.2,84,170.1,84"></path>		<path class="st1" d="M162.7,97.9c0-0.5,0-1.3,0-2c0.3-0.3,0.6-0.6,0.9-0.9c0.2-0.2,0.4-0.8,0.6-1.3c0.2-0.5,0.1-0.8,0-0.6    c-0.3,0.3-0.6,0.6-0.8,0.9c0.8-1.8,1.5-3.5,2-4.7c0.2-0.6,0.4-1.2,0.3-1.4c-0.1-0.2-0.3,0.2-0.5,0.8c-0.5,1.2-1.2,2.9-2,4.7    c0.3-1.2,0.7-2.3,1-3.5c0.2-0.5,0.2-0.8,0-0.7c-0.2,0.2-0.4,0.7-0.6,1.3c-0.2,0.8-0.5,1.7-0.7,2.5c0-0.7,0.1-1.4,0.1-1.9    c0-0.3-0.1-0.2-0.4,0.3c-0.2,0.5-0.5,1.2-0.5,1.6c-0.1,0.7-0.1,1.6-0.2,2.4c-0.3,0.3-0.7,0.7-1,1.1c-0.2,0.2-0.4,0.8-0.6,1.3    c-0.1,0.4-0.1,0.7-0.1,0.7c0,0,0,0,0.1,0c0.4-0.4,0.7-0.8,1-1.1c-0.7,1.7-1.4,3.2-1.9,4.1c-0.2,0.5-0.5,1.2-0.5,1.6    c0,0.2,0,0.3,0.1,0.3c0.1,0,0.2-0.2,0.3-0.4c0.5-1,1.2-2.5,1.9-4.2c-0.3,1.1-0.6,2.2-0.9,3.3c-0.1,0.4-0.1,0.6,0,0.6    c0,0,0.1,0,0.1-0.1c0.2-0.2,0.4-0.8,0.6-1.3c0.3-1,0.6-2.1,0.8-3.1c0,0.8,0,1.5-0.1,2c0,0.1,0,0.1,0.1,0.1c0.1,0,0.2-0.2,0.4-0.6    C162.5,98.9,162.7,98.2,162.7,97.9"></path>		<path class="st1" d="M168,72.8c0.2-0.6,0.2-0.9,0.1-0.9c-0.3,0.2-0.7,0.8-1.2,1.6c0.6-1.7,1.2-3.2,1.4-3.7    c0.2-0.5,0.4-1.1,0.5-1.4c0-0.3-0.1-0.2-0.3,0.2c-0.4,0.8-1,2.4-1.9,4.8c0.1-0.3,0.1-0.6,0.2-1c0.1-0.7,0.3-1.3,0.4-1.8    c0.1-0.4,0-0.5-0.2-0.2c-0.2,0.4-0.4,1-0.5,1.4c-0.1,0.5-0.2,1.2-0.4,1.9c0,0,0,0.1,0,0.1c-0.1-0.2-0.3-0.3-0.3-0.5    c0-0.1-0.2,0.2-0.5,0.7c-0.2,0.5-0.3,1.1-0.3,1.2c0.1,0.2,0.2,0.4,0.3,0.6c0,0,0,0.1,0.1,0.1c-0.4,0.7-0.8,1.5-1.2,2.1    c0,0-0.3,0.5-0.4,1.3c-0.1,0.6,0.1,0.3,0.1,0.3c0.3-0.5,0.7-1.2,1.1-1.9c-0.5,1.3-1,2.5-1.3,3.4c-0.2,0.5-0.3,1.1-0.3,1.2    c0,0,0,0,0.1,0c0.1,0,0.2-0.3,0.4-0.7c0.3-0.9,0.8-2,1.3-3.3c-0.2,0.8-0.4,1.5-0.5,2.1c-0.1,0.4-0.1,0.7,0,0.6c0,0,0,0,0.1-0.1    c0.2-0.2,0.4-0.8,0.6-1.3c0.2-0.9,0.5-1.8,0.7-2.8c0.1,0.3,0.1,0.7,0.1,1.2c0,0.2,0,0.2,0.1,0.2c0.1,0,0.1-0.2,0.3-0.4    c0.2-0.4,0.4-1.1,0.5-1.4c0.1-0.7,0.1-1.1,0-1.5c0.4-0.5,0.7-0.9,0.8-1.1C167.6,73.9,167.8,73.4,168,72.8"></path>		<path class="st1" d="M154.4,107.7c-0.2,0.1-0.3,0.1-0.5,0.1c0.2-0.3,0.4-0.7,0.6-0.9c0.1-0.2,0.3-0.6,0.3-0.9    c0.1-0.3,0-0.4-0.1-0.2c-0.2,0.3-0.4,0.6-0.6,0.9c0.2-0.4,0.3-0.8,0.5-1.1c0.2-0.4,0.3-0.8,0.5-1.1c0.1-0.3,0.2-0.7,0.2-0.8    c0-0.1-0.1,0-0.3,0.4c-0.1,0.3-0.3,0.7-0.4,1.1c-0.2,0.5-0.5,1.1-0.7,1.8l0.5-2.3c0.1-0.3,0-0.4-0.1-0.2c-0.1,0.2-0.3,0.6-0.3,0.9    l-0.5,2.3c0,0-0.1-0.1-0.1-0.1c-0.1-0.1-0.2-0.1-0.3-0.2c-0.1,0-0.2,0.2-0.3,0.6c-0.1,0.3-0.2,0.7-0.1,0.7c0.1,0,0.2,0.1,0.3,0.2    c0,0,0,0,0,0c-0.3,0.5-0.6,1-0.8,1.5c-0.1,0.2-0.3,0.6-0.3,0.9c0,0.2,0,0.3,0,0.3c0,0,0.1,0,0.1-0.1c0.3-0.5,0.7-1.1,1-1.7    c-0.4,1.2-0.8,2.4-1.2,3.7c-0.1,0.3-0.1,0.5,0,0.4c0,0,0,0,0,0c0.1-0.1,0.2-0.5,0.3-0.8c0.3-0.9,0.6-1.8,0.9-2.7l-0.6,2.5    c0,0.2,0,0.3,0,0.3c0,0,0,0,0.1-0.1c0.1-0.2,0.3-0.6,0.3-0.9l0.7-3c0.1,0.1,0.3,0.1,0.4,0c0.1,0,0.1,0,0.2-0.1    c0.1-0.1,0.2-0.4,0.3-0.7C154.5,107.9,154.5,107.6,154.4,107.7"></path>		<path class="st1" d="M154.3,112.5c0-0.2-0.1-0.5-0.1-0.8c0.3-0.4,0.5-0.7,0.7-0.9c0.1-0.1,0.2-0.4,0.3-0.7c0.1-0.3,0.1-0.4,0-0.3    c-0.2,0.2-0.4,0.5-0.7,0.9c0.3-0.7,0.6-1.3,0.8-1.6c0.1-0.2,0.2-0.5,0.3-0.7c0-0.2,0-0.3-0.1-0.1c-0.2,0.4-0.5,1.1-0.9,1.9    l0.5-1.8c0.1-0.3,0.1-0.4,0-0.3c-0.1,0.1-0.2,0.4-0.3,0.7l-0.5,2.1c0-0.4-0.1-0.7-0.1-0.9c0-0.1-0.1,0.1-0.2,0.3    c-0.1,0.3-0.2,0.6-0.2,0.6c0,0.2,0.1,0.5,0.1,0.9c-0.1,0.2-0.2,0.4-0.4,0.6c-0.2,0.3-0.3,0.5-0.5,0.7c-0.1,0.1-0.2,0.4-0.3,0.7    c0,0.2,0,0.3,0,0.3c0,0,0,0,0.1-0.1c0.1-0.2,0.3-0.5,0.5-0.7c0.1-0.1,0.2-0.3,0.3-0.4c-0.5,1.2-0.9,2.4-1.2,3.3    c-0.1,0.3-0.1,0.5-0.1,0.5l0,0c0.1,0,0.2-0.3,0.3-0.5c0.3-0.9,0.7-2.1,1.2-3.2l-0.6,2.1c-0.1,0.2-0.1,0.3,0,0.3c0,0,0,0,0,0    c0.1-0.1,0.2-0.4,0.3-0.7l0.5-1.8c0,0.3,0,0.6,0.1,0.7c0,0,0,0,0,0c0,0,0.1-0.2,0.2-0.4C154.3,112.9,154.4,112.6,154.3,112.5"></path>		<path class="st1" d="M154.4,103.2c0.2-0.9,0.4-1.8,0.6-2.7c0-0.1,0-0.2,0.1-0.3c0.1,0.3,0.2,0.5,0.3,0.8c0,0,0,0,0,0    c0.1,0,0.2-0.2,0.3-0.5c0.1-0.3,0.2-0.7,0.2-0.8c-0.1-0.3-0.2-0.6-0.3-0.9l1-1.9c0.1-0.2,0.3-0.6,0.3-0.9c0.1-0.3,0-0.3-0.1-0.1    l-0.9,1.6c0.3-0.8,0.6-1.7,1-2.4c0.1-0.3,0.2-0.7,0.2-0.9c0-0.2-0.1,0-0.2,0.3c-0.4,0.9-0.8,1.9-1.1,2.8c0.3-1,0.5-2.1,0.9-3.2    c0.1-0.3,0.1-0.6,0-0.5c-0.1,0.1-0.2,0.4-0.3,0.8c-0.4,1.4-0.8,2.6-1,3.8c-0.1-0.2-0.3-0.4-0.5-0.5c0,0-0.2,0.2-0.3,0.6    c-0.1,0.3-0.2,0.6-0.1,0.7c0.2,0.1,0.3,0.3,0.4,0.5l-1,1.8c-0.1,0.2-0.3,0.6-0.3,0.9c0,0.2,0,0.2,0,0.2c0,0,0.1-0.1,0.1-0.1    l0.8-1.5c-0.2,0.6-0.5,1.3-0.7,1.9c-0.3,0.9-0.6,1.8-1,2.6c-0.1,0.3-0.2,0.7-0.2,0.7c0,0,0,0,0,0c0.1,0,0.2-0.2,0.3-0.5    c0.3-0.9,0.6-1.8,1-2.7c0.3-0.7,0.5-1.4,0.8-2.1c0,0.2-0.1,0.4-0.1,0.5c-0.2,0.9-0.4,1.8-0.6,2.6c-0.1,0.2-0.1,0.3,0,0.3    c0,0,0,0,0.1-0.1C154.1,103.9,154.3,103.5,154.4,103.2"></path>		<path class="st1" d="M156.3,103.1c0.4-1.2,0.9-2.9,1.5-4.7c0,0.5,0,1,0.1,1.2c0,0,0,0,0,0c0.1,0,0.3-0.3,0.4-0.8    c0.2-0.5,0.3-1.1,0.3-1.2c-0.1-0.2-0.1-0.5-0.1-1c0.4-0.4,0.7-0.7,0.9-0.7c0.1,0,0.3-0.5,0.5-1c0.2-0.5,0.2-1,0.1-0.9    c-0.2,0.1-0.5,0.3-0.9,0.7c0.3-0.7,0.7-1.5,1-2.2c0.2-0.5,0.4-1.1,0.4-1.4c0-0.3-0.1-0.2-0.3,0.3c-0.3,0.7-0.6,1.4-1,2.1    c0-0.1,0.1-0.2,0.1-0.2c0.4-1.2,0.7-2.2,1-3.1c0.2-0.5,0.2-1,0.1-0.9c-0.1,0.1-0.4,0.6-0.5,1.1c-0.3,0.9-0.6,1.9-1,3.1    c-0.1,0.2-0.2,0.5-0.2,0.7c0-0.3,0.1-0.7,0.1-1c0-0.3,0.1-0.7,0.1-1c0-0.3-0.1-0.3-0.3,0.1c-0.2,0.4-0.4,1-0.4,1.4    c0,0.3-0.1,0.7-0.1,1c-0.1,0.5-0.1,1-0.2,1.4c-0.5,0.6-0.9,1.3-1.4,2.1c-0.2,0.3-0.4,0.9-0.5,1.3c-0.1,0.3-0.1,0.4,0,0.4    c0,0,0.1-0.1,0.1-0.2c0.3-0.6,0.7-1.1,1-1.6c-0.4,0.9-0.8,1.8-1.2,2.8c-0.2,0.5-0.4,1.1-0.4,1.3c0,0.1,0,0.1,0.1,0.1    c0.1,0,0.2-0.2,0.3-0.5c0.3-0.7,0.6-1.4,0.9-2.1c-0.4,1.4-0.9,2.7-1.2,3.7c-0.1,0.5-0.2,0.8-0.1,0.8c0,0,0,0,0,0    C155.9,104.1,156.1,103.6,156.3,103.1"></path>		<path class="st1" d="M161.5,85.3c-0.1-0.3-0.2-0.5-0.4-0.7l1.1-2.2c0.2-0.4,0.4-1,0.5-1.4c0-0.3-0.1-0.3-0.3,0.1l-0.5,1    c0.2-0.5,0.4-1.1,0.6-1.6c0.2-0.5,0.3-1,0.2-1.1c-0.1-0.1-0.3,0.3-0.5,0.9c-0.3,0.7-0.5,1.5-0.8,2.2c0.2-0.8,0.4-1.7,0.6-2.6    c0.1-0.5,0.1-0.6-0.1-0.3c-0.2,0.3-0.4,0.9-0.5,1.3c-0.3,1.1-0.5,2.2-0.8,3.3c-0.2,0-0.4,0-0.7,0.1c-0.1,0.1-0.3,0.5-0.5,1.1    c-0.2,0.5-0.2,0.9-0.1,0.9c0.2-0.1,0.4-0.1,0.6-0.1l-0.9,1.8c-0.2,0.4-0.4,1-0.4,1.4c0,0.2,0,0.3,0,0.2c0,0,0.1-0.1,0.2-0.3    l0.6-1.2c-0.3,1-0.7,2-1,3c-0.2,0.5-0.3,1-0.2,1c0,0,0,0,0,0c0.1,0,0.3-0.5,0.5-1c0.3-1,0.7-2,1-3c-0.1,0.4-0.2,0.7-0.2,1.1    c-0.1,0.3,0,0.4,0,0.4c0,0,0.1-0.1,0.2-0.2c0.2-0.3,0.4-0.9,0.5-1.4c0.1-0.4,0.2-0.8,0.3-1.3c0.1,0.2,0.2,0.3,0.2,0.6    c0,0,0,0,0.1,0c0.1,0,0.2-0.3,0.4-0.7C161.4,86,161.5,85.5,161.5,85.3"></path>	</g></g><g id="Calque_6">	<g>		<path class="st2" d="M229,124.5C229,124.5,229,124.5,229,124.5C229,124.5,229,124.5,229,124.5C229,124.5,229,124.6,229,124.5z"></path>		<path class="st2" d="M228.7,124.6C228.6,124.6,228.6,124.6,228.7,124.6L228.7,124.6z"></path>		<path class="st2" d="M228.4,124.6C228.4,124.6,228.4,124.6,228.4,124.6C228.5,124.6,228.5,124.6,228.4,124.6    C228.5,124.6,228.5,124.6,228.4,124.6z"></path>		<path class="st2" d="M227.5,123.1L227.5,123.1C227.5,123,227.5,123,227.5,123.1C227.5,123,227.5,123,227.5,123.1z"></path>		<path class="st2" d="M255.3,87.2c-0.8-1.2-1.9-2.2-2.9-3.2c-1.1-1.1-2.3-2-3.6-2.8c-1.3-0.8-2.7-1.3-4.1-1.7    c-1.4-0.4-3.1-0.9-4.5-0.8c0,0-0.1,0-0.1,0c0,0-0.1,0-0.1,0c-0.6,0.4-0.9,1-1.2,1.7c-0.3,0.7-0.6,1.4-0.9,2.1    c-0.7,1.5-1.4,3-2.2,4.5c-0.8,1.4-1.5,2.9-2.3,4.3c-0.4,0.8-0.8,1.5-1.2,2.3c-0.4,0.7-0.8,1.3-0.9,2c-0.1,0.5,0.5,0.7,0.8,0.5    c0.6,0.3,1.1,0.5,1.7,0.8c0.7,0.3,1.3,0.7,1.8,1.3c1,1,1.7,2.2,2.9,3c0.6,0.4,1.2,0.7,1.9,1c-1.3-0.3-2.6-0.4-3.9-0.7    c-0.7-0.2-1.5-0.4-2.1-1c-0.5-0.5-0.9-1.1-1.2-1.8c0-0.1-0.2-0.1-0.2,0c-0.4,1.3,0.7,2.5,1.7,3.2c1.5,1,3.4,1,5.1,1.4    c0.8,0.2,1.6,0.5,2.2,1.1c0.5,0.5,0.8,1.1,1.2,1.6c0.3,0.5,0.7,1.1,1.2,1.5c0.1,0.1,0.3,0.2,0.5,0.3c-0.2,0.3-0.5,0.7-0.7,1.1    c-0.5,0.8-1,1.6-1.4,2.4c-0.9,1.5-1.7,3.1-2.7,4.6c-0.8,1.3-1.7,2.5-2.6,3.8c-0.5,0.8-0.7,1.4-1.6,1.9c-0.5,0.3-1,0.5-1.5,0.8    c-0.1-0.1-0.2-0.1-0.4-0.1c-0.2,0-0.3,0.1-0.5,0.2c-0.2,0-0.5-0.1-0.7-0.2c-0.3-0.3-0.5-0.7-0.7-1.1c-0.3-0.5-0.6-0.9-0.9-1.3    c-0.6-0.8-1.3-1.6-1.9-2.4c-0.3-0.4-0.7-0.8-1.1-1c-0.4-0.2-0.8-0.4-1.2-0.6c0-0.4,0-0.8,0-1.2c0.1-0.7,0.2-1.5,0.2-2.2    c0.1-1.5,0.4-3.1,0.8-4.5c0.4-1.5,1-2.9,1.6-4.2c0.2-0.5,0.4-0.9,0.6-1.4c0.2,0.1,0.4,0,0.5-0.1c0.2-0.1,0.3-0.3,0.3-0.6    c0-0.3-0.1-0.5-0.2-0.8c0.2-0.5,0.5-1,0.8-1.4c0,0,0-0.1,0,0c-0.3,0.3-0.6,0.6-1,0.9c0-0.1-0.1-0.1-0.1-0.2    c-0.2-0.4-0.4-0.8-0.6-1.3c-0.2-0.4-0.4-0.8-0.6-1.3c-0.1-0.2-0.2-0.4-0.3-0.6c-0.1-0.1-0.1-0.2-0.2-0.4c-0.1-0.2-0.2-0.3-0.4-0.4    c-0.2-0.2-0.5-0.1-0.7,0c-0.2,0.1-0.3,0.4-0.3,0.6c0,0.5,0.3,1,0.6,1.5c0.2,0.4,0.4,0.8,0.6,1.3c0.2,0.4,0.4,0.8,0.6,1.3    c0.1,0.2,0.2,0.4,0.3,0.7c-0.4,0.5-0.7,0.9-1,1.4c-0.8,1.4-1.5,3-1.9,4.6c-0.5,1.6-0.7,3.2-0.9,4.8c-0.1,0.8-0.1,1.5,0.1,2.3    c0.1,0.7,0,1.6,0.5,2.2c0.1,0.2,0.4,0.1,0.5-0.1c0-0.1,0.1-0.2,0.1-0.2c0.1,0.3,0.3,0.6,0.5,0.9c0.3,0.4,0.6,0.8,1,1.2    c0.7,0.8,1.3,1.7,1.8,2.6c0,0.1,0.1,0.1,0.1,0.2c-0.1-0.1-0.3-0.2-0.4-0.2c-0.5-0.2-1.2-0.2-1.6,0.2c-0.3,0-0.7,0.1-1,0.3    c-0.3,0.2-0.5,0.3-0.6,0.6c-0.1,0.2-0.3,0.4-0.3,0.7c-0.2,0.5-0.2,1.1,0,1.6c0.1,0.5,0.5,0.9,0.9,1.2c0.8,0.6,2,0.7,2.8,0    c0.5-0.3,0.8-0.9,1-1.4c0.2-0.5,0.3-1,0.2-1.5c0.2,0.4,0.5,0.7,0.9,0.9c0.7,0.5,1.8,0.5,2.4-0.1c1.3-0.8,2.3-2,3.6-2.8    c1.2-0.8,2.2-2.4,3-3.6c0.9-1.5,1.8-3.1,2.7-4.6c0.5-0.9,1-1.9,1.5-2.8c0.3-0.6,0.7-1.3,0.9-2c0,0,0.1,0,0.1-0.1    c0.2-0.2,0.3-0.5,0.2-0.8c-0.3-0.5-0.9-0.6-1.3-1c-0.4-0.4-0.7-0.9-1.1-1.3c-0.5-0.6-1-1.1-1.6-1.6c0.6,0.3,1.1,0.6,1.7,0.9    c0.6,0.4,1.2,1,1.9,1c0.3,0,0.5-0.2,0.6-0.4c0.2,0.5,0.9,0.8,1.3,0.4c1.2-1.1,1.8-2.9,2.5-4.3c0.8-1.6,1.6-3.3,2.4-5    c0.7-1.6,1.5-3.2,2.2-4.8C255.5,89.7,256.1,88.5,255.3,87.2z M229.6,123.3c0,0.1,0,0.1,0,0.2c0,0,0,0.1,0,0.1c0,0,0,0,0,0    c0,0,0,0,0,0c0,0.1-0.1,0.2-0.1,0.3c0,0.1,0,0.1-0.1,0.2c0,0,0,0,0,0c0,0.1-0.1,0.2-0.2,0.2c0,0,0,0,0,0.1c0,0-0.1,0.1-0.1,0.1    c0,0,0,0,0,0c0,0,0,0,0,0c0,0,0,0,0,0c0,0,0,0,0,0c0,0,0,0,0,0c0,0-0.1,0-0.1,0c-0.1,0-0.1,0-0.2,0h0c0,0,0,0,0,0c0,0-0.1,0-0.1,0    c0,0-0.1,0-0.1,0c0,0,0,0,0,0c0,0,0,0,0,0c0,0,0,0,0,0c0,0,0,0,0,0c0,0-0.1,0-0.1,0c-0.1,0-0.1-0.1-0.2-0.1c0,0,0,0-0.1,0    c0,0,0,0,0,0c-0.1,0-0.1-0.1-0.2-0.1c0,0,0,0-0.1,0c0-0.1-0.1-0.1-0.1-0.2c0,0,0,0,0-0.1c0,0,0,0,0,0c0-0.1-0.1-0.1-0.1-0.2    c0,0,0-0.1,0-0.1c0,0,0,0,0,0c0-0.1,0-0.2,0-0.2c0,0,0,0,0-0.1c0,0,0-0.1,0-0.1c0-0.1,0-0.2,0-0.3c0,0,0,0,0,0c0,0,0-0.1,0,0    c0,0,0-0.1,0-0.1c0.1-0.2,0.2-0.4,0.2-0.6c0,0,0,0,0,0c0.2,0.3,0.6,0.4,0.9,0.3c0,0,0.1,0,0.1,0c0,0,0,0,0.1,0c0.1,0,0.1,0,0.2,0    c0,0,0.1,0,0.1,0c0,0,0.1,0,0.1,0c0,0,0.1,0,0.1,0c0,0,0.1,0,0.1,0.1c0,0,0,0,0,0c0,0,0,0,0,0c0,0,0,0,0,0c0,0,0,0,0,0    c0,0,0,0.1,0,0.1c0,0,0,0,0,0c0-0.1,0,0.1,0,0.1C229.6,123.1,229.6,123.2,229.6,123.3C229.6,123.3,229.6,123.3,229.6,123.3z     M252.4,92c-0.7,1.4-1.3,2.7-2,4.1c-0.7,1.4-1.4,2.7-2,4.1c-0.6,1.2-1.6,2.6-1.9,4c-0.3-0.7-1.1-1.1-1.7-1.4c-0.7-0.4-1.3-0.7-2-1    c-1.4-0.6-3-1.1-4.2-2c-1.2-0.9-1.9-2.2-3.1-3.1c-0.6-0.4-1.2-0.8-1.9-1c-0.5-0.1-0.9-0.1-1.3,0c0.4-0.5,0.6-1.1,0.9-1.6    c0.4-0.7,0.8-1.4,1.1-2.2c0.7-1.4,1.4-2.9,2.1-4.4c0.7-1.5,1.3-3,2-4.4c0.4-0.8,0.7-1.6,1.1-2.4c0.2-0.4,0.3-0.7,0.4-1    c1.2,0.6,2.7,0.7,3.9,1.1c1.4,0.4,2.8,0.9,4,1.6c1.2,0.7,2.3,1.7,3.2,2.6c0.9,0.9,2,1.8,2.6,2.9C254.3,89,252.9,91,252.4,92z"></path>	</g>	<g>		<path class="st2" d="M210.3,129.1C210.3,129.1,210.3,129.1,210.3,129.1C210.2,129.1,210.2,129.1,210.3,129.1z"></path>		<g>			<path class="st2" d="M212.8,126.9C212.7,126.9,212.7,126.9,212.8,126.9C212.7,126.9,212.7,126.9,212.8,126.9     C212.7,126.9,212.7,126.9,212.8,126.9z"></path>			<path class="st2" d="M234,124.8c-0.1-0.2-0.2-0.2-0.4-0.2c-0.2,0-0.4,0.1-0.5,0.2c-0.1,0.1-0.1,0.2-0.2,0.3     c-0.1,0.2-0.3,0.4-0.4,0.6c-0.2,0.2-0.3,0.4-0.5,0.6c-0.2,0.2-0.3,0.3-0.4,0.5c-0.3,0.3-0.7,0.7-1.1,1c-0.2,0.2-0.5,0.4-0.8,0.6     c-0.1,0-0.2-0.1-0.4-0.1c0,0,0-0.1-0.1-0.1c-0.2-0.1-0.4-0.2-0.6-0.2c-0.1,0-0.1,0-0.2-0.1c-0.1,0-0.1-0.1-0.2-0.1     c0,0,0.1,0,0.1,0c0.3,0,0.6,0,0.9-0.1c0.6-0.2,1.2-0.4,1.7-0.8c0.5-0.3,1-0.7,1.3-1.2c0.4-0.6,0.7-1.2,0.6-1.9     c-0.1-0.5-0.7-0.6-1-0.2c-0.1,0.1-0.2,0.3-0.3,0.4c0,0,0,0,0,0c0,0,0,0,0,0c0,0.1-0.1,0.2-0.1,0.3c0,0.1-0.1,0.1-0.1,0.2     c0,0,0,0,0,0c0,0,0,0,0,0c-0.1,0.1-0.1,0.2-0.2,0.3c-0.3,0.5-0.5,0.8-0.9,1.1c-0.4,0.3-0.7,0.5-1.2,0.7c-0.2,0.1-0.4,0.1-0.7,0.2     c-0.1,0-0.2,0.1-0.4,0.1c-0.1,0-0.1,0.1-0.2,0.1c0,0-0.1,0-0.1,0c-0.1,0-0.1,0-0.1,0.1c-0.4-0.4-0.8-0.9-1.2-1.4     c-0.6-0.9-1-1.9-1.3-2.9c-0.2-0.7-0.3-1.3-0.3-2c0-0.1,0-0.2,0-0.2c0.1,0,0.1-0.1,0.2-0.1c0.1-0.1,0.1-0.2,0.2-0.2     c0,0,0.1-0.1,0.1-0.1c0.2-0.1,0.3-0.2,0.5-0.3c0.1-0.1,0.1-0.1,0.2-0.2c0,0,0.1,0,0.1-0.1c0,0,0,0,0.1,0c0.1-0.1,0.3-0.2,0.4-0.2     c0,0,0.1,0,0.1,0c0,0,0,0,0,0c0.1,0,0.2,0,0.3-0.1c0.1,0,0.2,0,0.3,0c0.1,0,0.1,0,0.2,0c0,0,0,0,0,0c0,0,0,0,0,0     c0.2,0,0.3,0,0.5,0.1c0,0,0,0,0,0c0,0,0,0,0,0c0.1,0,0.2,0,0.2,0c0.1,0,0.2,0,0.3,0c0.6,0.1,0.8-0.7,0.4-1     c-0.2-0.2-0.4-0.3-0.7-0.3c-0.2,0-0.4-0.1-0.6-0.1c-0.5,0-1,0.1-1.4,0.3c-0.3,0.1-0.5,0.3-0.8,0.4c0-0.2-0.1-0.5-0.4-0.6     c-0.4-0.1-0.6,0.1-0.7,0.4c-0.7-0.1-1.5,0.1-2.3,0.3c-0.8-1.8-1-3.5-0.6-5.4c0.5-2.2,1.3-4.3,2-6.4c0.7-2,1.6-3.9,2.6-5.8     c0.5-0.9,1-1.8,1.5-2.7c0.4-0.7,1.1-1.3,0.9-2.2c0-0.2-0.2-0.4-0.4-0.3c-0.9,0.2-1.3,1.1-1.8,1.8c-0.6,1-1.2,2-1.7,3     c-1.2,2.2-2,4.6-2.8,6.9c-1,2.9-4,8.8-1.1,11.5c-0.8,0.2-1.6,0.4-2.4,0.7c-0.9,0.3-1.9,0.5-2.8,0.9c-0.8,0.3-1.8,0.7-2.1,1.5     c-0.1,0.3,0.1,0.5,0.4,0.5c-0.1,0.4-0.1,0.7-0.1,1.1c-0.2-0.1-0.5-0.2-0.7-0.3c-0.2,0-0.3-0.1-0.5-0.1c-0.1,0-0.1,0-0.2,0     c-0.3-0.1-0.6,0-0.9,0.1c0,0,0,0,0,0c-0.1,0-0.2,0-0.3,0.1c-0.1,0-0.3,0.1-0.4,0.2c0.3-0.3,0.6-0.6,0.8-1c0.2-0.4,0-0.9-0.5-0.9     c-0.1,0-0.1,0-0.2,0c0-0.1,0-0.1,0-0.2c-0.3-0.7-1-0.8-1.7-1c-0.8-0.2-1.6-0.4-2.4-0.6c-1.7-0.3-3.4-0.4-5.1-0.3     c-0.8,0.1-1.7,0.1-2.5,0.3c-0.6,0.1-1.3,0.3-1.7,0.8c-0.4,0.6-0.5,1.5-0.7,2.2c-0.2,0.9-0.4,1.8-0.6,2.7     c-0.1,0.3,0.2,0.7,0.5,0.7c2.1,0.6,4.3,1.3,6.4,1.8c0.4,0.1,0.9,0.2,1.3,0.4c-2.5-0.1-7.8,0.9-8.5,1c-1.3,0.3-2.6,0.7-3.8,1.2     c-1,0.5-2.6,1.1-3.2,2c-0.2,0.4,0.1,0.7,0.5,0.7c-0.1,0.5-0.2,1-0.2,1.6c0,0.6,0,1.1,0,1.7c0,0.5,0,1.3,0.5,1.7     c0.3,0.3,0.7,0.2,0.9-0.1c0.2-0.5,0-1.1,0-1.7c0-0.5-0.1-1,0-1.4c0-0.5,0.1-1,0.1-1.5c0-0.2,0.1-0.5,0.1-0.7c0-0.1,0-0.1,0-0.2     c0.1-0.1,0.3-0.2,0.4-0.3c0.6-0.3,1.1-0.6,1.7-0.8c1.2-0.5,2.5-0.8,3.9-1.1c2.9-0.5,5.9-0.6,8.7-1.2c0.2,0,0.4-0.2,0.4-0.4     c0,0,0-0.1,0-0.1c0,0,0,0,0,0c1.3,0.4,2.5,0.7,3.8,1.1c0.4,0.1,0.8-0.1,1-0.4c0.6,0.5,1.4,0.6,2.2,0.5c0.2,0,0.4,0,0.5,0     c0.2,0,0.4-0.1,0.6-0.2c0.2-0.1,0.4-0.1,0.6-0.3c0.1-0.1,0.3-0.2,0.3-0.4c0,0,0,0,0,0c0,0,0,0.1,0,0.1c0,0,0,0,0.1-0.1     c0.4,0.3,1,0.4,1.5,0.7c-0.1,0-0.3,0.1-0.4,0.1c-0.3,0.1-0.2,0.5,0.1,0.5c2.3,0.1,4.7-0.4,7.1-0.8c0.3,0,0.5-0.1,0.8-0.1     c0,0.2,0.1,0.4,0.3,0.5c0.1,0,0.2,0.1,0.3,0.1c-0.3,0-0.5-0.1-0.8-0.1c0,0-0.1,0-0.1,0c-0.3-0.1-0.5,0.3-0.3,0.5     c0,0,0.1,0.1,0.1,0.1c0.2,0.3,0.6,0.5,0.9,0.6c0.2,0.1,0.4,0.1,0.5,0.2c-0.2,0.3-0.5,0.6-0.7,0.9c-0.1,0.1-0.1,0.3,0.1,0.4     c0.1,0.1,0.3,0.1,0.4-0.1c0.3-0.3,0.6-0.7,0.9-1c0.4,0.1,0.8,0.1,1.2,0c0.2,0,0.4-0.1,0.6-0.2c0.2-0.1,0.3-0.2,0.5-0.3     c0.2-0.1,0.1-0.5-0.1-0.6c-0.2,0-0.4-0.1-0.5-0.1c-0.1,0-0.3-0.1-0.5-0.1c0,0-0.1,0-0.1,0c0-0.1,0.1-0.1,0.1-0.2     c0,0,0-0.1,0.1-0.1c0.1,0,0.2,0,0.3,0c0.4,0,0.9-0.1,1.3-0.2c0.2,0,0.4-0.1,0.6-0.2c0.2-0.1,0.4-0.2,0.7-0.2     c0.1,0,0.2-0.2,0.1-0.3c0.6,0.2,1.5,0.4,2,0c0.2-0.2,0.3-0.6,0.1-0.8c-0.1-0.1-0.1-0.1-0.2-0.1c0,0,0.1-0.1,0.1-0.1     c0.4-0.3,0.8-0.7,1.2-1c0.4-0.4,0.7-0.8,1-1.2c0.2-0.2,0.3-0.4,0.4-0.7c0.1-0.1,0.2-0.3,0.2-0.4C234.1,125.2,234.1,125,234,124.8     z M208,128.5c-1.6-0.4-3.1-0.8-4.7-1.3c-2-0.6-3.9-1.1-5.9-1.6c0.1-0.6,0.2-1.1,0.3-1.7c0.1-0.6,0.2-1.5,0.5-2     c0.3-0.5,1.4-0.5,2-0.6c0.7-0.1,1.5-0.2,2.2-0.2c1.4,0,2.8,0.1,4.2,0.4c0.7,0.1,1.4,0.3,2,0.6c0.4,0.1,0.8,0.3,1.1,0.3     c-1,0.7-1.7,2.2-1.9,3.2C207.7,126.6,207.7,127.6,208,128.5z M213.8,129.1c-0.2,0-0.4,0-0.6,0c0,0-0.1,0-0.1,0c0,0,0,0,0,0     c-0.1,0-0.1,0-0.2,0c-0.2,0-0.4,0-0.6,0c0,0,0,0,0,0c0,0-0.1,0-0.1,0c-0.1,0-0.2,0-0.2,0c-0.2,0-0.3,0-0.5,0c-0.2,0-0.4,0-0.6,0     c-0.1,0-0.2,0-0.2,0c0,0-0.1,0-0.1,0c-0.1,0-0.1,0-0.1,0c-0.1,0-0.1,0-0.1,0.1c0,0,0,0,0,0c-0.7-0.9-0.9-2.2-0.7-3.3     c0.1-0.5,0.3-1,0.6-1.4c0,0,0.1,0,0.1,0c0.3,0,0.5,0,0.8,0c0.1,0,0.2,0,0.3,0c0.1,0,0.3,0,0.4,0.1c0.2,0,0.2,0,0.3,0.1     c0.1,0,0.2,0.1,0.4,0.1c0.3,0.1,0.6,0.2,0.9,0.3c0.1,0,0.1,0,0.2,0c0,0,0,0.1,0,0.1c0,0.5,0.1,1,0.2,1.5c-0.1,0-0.2,0.1-0.3,0.1     c-0.2,0-0.3,0.1-0.5,0.1c0,0,0,0,0,0c0,0,0,0,0,0c0,0,0,0,0,0c0,0,0,0,0,0c0,0,0,0,0,0c0,0,0,0,0,0c0,0,0,0,0,0c0,0,0,0,0,0     c0,0,0,0,0,0c0,0,0,0,0,0c0,0,0,0-0.1-0.1c0,0,0-0.1,0-0.1c0,0,0,0,0,0c0,0,0,0,0,0c0,0,0,0,0,0c0,0,0,0,0-0.1c0,0,0,0,0-0.1     c0,0,0,0,0,0c0,0,0.1-0.1,0.1-0.1c0,0,0,0,0,0c0,0,0.1,0,0.1-0.1c0,0,0.1,0,0.1-0.1c0,0,0,0,0,0c0,0,0,0,0,0c0,0,0.2-0.1,0.2-0.1     c0,0,0.1-0.1,0.1-0.1c0,0,0,0,0,0c0,0,0-0.1,0-0.1c0,0,0,0,0,0c0,0,0,0,0,0c0,0,0,0,0,0c0,0,0,0,0.1,0c0.1,0,0-0.1-0.1-0.1     c0,0-0.1-0.1-0.1-0.1c0-0.1,0-0.1-0.1-0.1c0,0,0,0,0,0c0-0.1-0.1-0.1-0.2-0.2c-0.3-0.1-0.6-0.1-0.9,0c-0.2,0.1-0.5,0.3-0.6,0.5     c-0.3,0.5-0.3,1.2,0,1.7c0.2,0.3,0.5,0.6,0.8,0.8c0.3,0.1,0.7,0.1,1,0.1c0.1,0,0.3,0,0.4-0.1     C213.6,128.6,213.7,128.9,213.8,129.1C213.8,129.1,213.8,129.1,213.8,129.1z M226,128.3c-1.2,0.2-2.3,0.4-3.5,0.6     c-1.8,0.3-3.7,0.6-5.4,1.1c-0.2-0.7-1-1-1.6-1.2c-0.3-0.1-0.5-0.2-0.7-0.5c0-0.1-0.1-0.2-0.1-0.3c0-0.1-0.1,0,0.1-0.1     c0.1,0,0.1-0.1,0.1-0.1c0.2-0.2,0.3-0.5,0.1-0.7c-0.1-0.1-0.1-0.2-0.2-0.3c-0.4-1.3-0.8-2.7-1-4.1c0,0,0,0,0,0     c0.3-0.1,0.6-0.2,0.9-0.4c0.4-0.2,0.8-0.4,1.3-0.5c0.9-0.3,1.7-0.5,2.6-0.8c1-0.3,1.9-0.6,2.9-0.9c0.7-0.2,1.5-0.4,2.2-0.8     c0,0.1,0,0.1,0,0.2c-0.3,1.8,0.1,3.6,0.8,5.2c0.5,1.2,1.3,2.4,2.2,3.3C226.5,128.2,226.2,128.2,226,128.3z"></path>		</g>	</g>	<path class="st2" d="M233.7,71.2c-1.4,2.8-2.8,5.6-4.2,8.4c-0.7,1.4-1.4,2.7-2,4.1c-0.3,0.7-0.7,1.4-1,2.1   c-0.3,0.6-0.6,1.4-1.1,1.9c-0.2,0.3,0,0.7,0.2,0.8c0,0,0,0,0,0c-0.5,0.3-0.8,0.9-1.2,1.3c-0.7,0.9-1.3,1.7-1.9,2.6   c-1.2,1.8-2.2,3.6-3.2,5.5c-0.9,1.9-1.8,3.8-2.4,5.8c-0.3,1-0.7,2.1-0.9,3.1c-0.2,0.7-0.6,1.6-0.4,2.4c-0.1,0.2-0.2,0.4-0.2,0.6   c-0.3,0.9-0.6,1.7-0.9,2.6c0,0,0-0.1,0-0.1c0,0,0,0,0,0c0-0.1,0-0.1,0-0.2c0-0.1,0-0.2,0-0.3c0-0.1,0.1-0.2,0.1-0.3   c0-0.1,0-0.3,0-0.4c-0.1-0.3-0.4-0.4-0.7-0.3c-0.2,0.1-0.3,0.2-0.4,0.3c-0.1,0.1-0.1,0.3-0.2,0.4c0,0,0,0.1,0,0.1   c-0.1,0.2-0.3,0.4-0.4,0.6c-0.3,0.4-0.6,0.9-0.9,1.3c-0.5,1-1,2-1.5,3c-0.5,1-0.9,2-1.3,3c-0.4,0.8-0.7,2,0.2,2.6   c0.4,0.3,1.1,0.1,1.1-0.5c0-0.4,0-0.7,0.1-1c0.2-0.4,0.4-0.9,0.6-1.3c0.4-0.9,0.8-1.7,1.1-2.6c0.4-0.9,0.7-1.8,1-2.6   c0.1-0.4,0.2-0.7,0.3-1.1c0.1,0.1,0.1,0.2,0.2,0.2c0.1,0,0.1,0.1,0.2,0.1c0,0,0.1,0,0.1,0c0,0,0,0,0,0c-0.2,0.7-0.4,1.4-0.1,2.1   c0,0.1,0.1,0.2,0.2,0.2c0,0.1,0,0.3,0,0.4c0.1,0.5,0.2,1,0.4,1.4c0.2,0.5,0.4,0.9,0.7,1.3c0.1,0.2,0.3,0.4,0.4,0.6   c0.1,0.2,0.3,0.3,0.5,0.4c0,0,0.1,0,0,0c0.1,0.1,0.2,0.1,0.2,0.1c0,0,0.1,0,0.1,0c0.5,0.1,0.7-0.4,0.7-0.7c0-0.1-0.1-0.2-0.1-0.2   c0,0.1,0,0.1,0,0c0,0,0-0.1,0-0.1c0-0.2-0.2-0.3-0.3-0.4c-0.1-0.2-0.2-0.4-0.4-0.6c-0.1-0.2-0.2-0.3-0.4-0.5c0,0,0,0,0,0   c0-0.1-0.1-0.1-0.1-0.2c-0.1-0.1-0.2-0.3-0.2-0.4c0,0,0,0,0,0c0,0,0-0.1-0.1-0.1c-0.1-0.1-0.1-0.2-0.2-0.3   c-0.1-0.2-0.2-0.4-0.3-0.6c-0.1-0.1-0.2-0.3-0.3-0.4c0.4-0.5,0.6-1.2,0.8-1.8c0.3-1,0.6-2,1-2.9c0.7-1.9,1.5-3.7,2.3-5.6   c0.9-1.8,1.8-3.6,2.9-5.3c0.8-1.3,1.7-2.5,2.5-3.8c0.1,0.1,0.2,0.3,0.3,0.4c0.1,0.1,0.2,0.2,0.3,0.3c0.1,0.1,0.1,0.1,0.2,0.2   c0.1,0.1,0.2,0.2,0.4,0.3c0,0,0.1,0.1,0.1,0.1c0.2,0.1,0.5,0,0.7-0.1c0.2-0.1,0.2-0.3,0.2-0.5c0-0.1,0-0.1,0-0.2   c0-0.1,0-0.2-0.1-0.3c0-0.1-0.1-0.1-0.1-0.2c-0.1-0.2-0.2-0.4-0.3-0.5c-0.1-0.1-0.2-0.2-0.3-0.3c0,0-0.1-0.1-0.1-0.1   c0.1,0,0.1,0.1,0.2,0.1c0.7,0.1,0.7-0.9,0.7-1.3c0-0.5-0.1-1.1-0.1-1.6c0-0.8,0-1.6,0.1-2.4c0.1-0.2,0.1-0.4,0.1-0.7   c0,0,0-0.1,0-0.1c0-0.1,0-0.1,0-0.2c0-0.1,0-0.2,0-0.2c0.3-0.4,0.5-1,0.7-1.4c0.3-0.7,0.7-1.4,1-2.1c0.7-1.4,1.4-2.8,2.1-4.3   c1.4-2.9,2.9-5.8,4.3-8.7C235.4,70.9,234.1,70.4,233.7,71.2z M225.4,94.3c-0.1,0-0.1-0.1-0.2-0.1c-0.1-0.3-0.5-0.5-0.8-0.3   c-1.4,1.3-2.5,3.2-3.5,4.8c-0.2,0.4-0.5,0.8-0.7,1.2c0.2-0.4,0.3-0.7,0.5-1.1c0.9-1.8,1.9-3.6,3-5.3c0.4-0.7,0.9-1.4,1.4-2.1   c-0.1,0.6,0,1.2,0,1.7C225.2,93.6,225.3,94.1,225.4,94.3C225.5,94.3,225.4,94.3,225.4,94.3z"></path>	<path class="st2" d="M227,58c-0.1-0.1-0.2-0.2-0.3-0.2c0,0-0.1,0-0.1,0c0,0,0,0,0,0c0-0.1-0.3-0.2-0.4-0.2c-0.1,0-0.2-0.1-0.3-0.1   c-0.2-0.1-0.4-0.2-0.6-0.3c0,0,0,0,0,0c0,0-0.1-0.1-0.1-0.1c-0.1-0.1-0.2-0.1-0.3-0.2c-0.1-0.1-0.2-0.1-0.3-0.2   c0,0-0.1-0.1-0.1-0.1c0,0-0.2-0.2-0.1-0.1c0.1,0.1,0,0-0.1-0.1c0,0-0.1-0.1-0.1-0.1c-0.1-0.1-0.1-0.2-0.2-0.3   c-0.1-0.1-0.1-0.2-0.2-0.3c0,0-0.1-0.1-0.1-0.1c0,0,0,0,0,0c0,0,0,0,0,0c-0.1-0.1-0.1-0.3-0.2-0.4c0,0-0.1-0.1-0.1-0.1c0,0,0,0,0,0   c0,0,0,0,0,0c-0.2-0.4-0.9-0.4-1,0.1c-0.1,0.6,0,1.2,0.3,1.7c0.3,0.5,0.7,1,1.1,1.4c0.4,0.3,0.9,0.6,1.5,0.8   c0.4,0.1,0.8,0.2,1.2,0.1c0,0,0.1,0,0.1,0c-0.1,0-0.1,0-0.1,0c0.1,0,0.2,0,0.3-0.1c0.1-0.1,0.2-0.1,0.4-0.3   C227.3,58.5,227.3,58.2,227,58z"></path>	<path class="st2" d="M224.8,64.9c-0.7,0.2-1.3,0.8-1.9,1.2c-0.6,0.5-1.3,1-1.9,1.5c-1.3,1-2.6,1.9-4,2.7c-1.4,0.9-2.8,1.8-4.3,2.6   c-1.4,0.8-3.3,1.6-4.6,0.1c-0.9-1.1-1.7-3.1-1.4-4.5c0.2-0.9,0.7-1.4,1.2-2.1c0.5-0.6,1-1.2,1.5-1.8c1-1.2,2.1-2.4,3.2-3.6   c0.9-1,2.3-2.2,2.7-3.5c0-0.1,0-0.2-0.1-0.1c-1.2,0.3-2.3,1.4-3.2,2.3c-1,1-2,2-2.9,3.1c-1.7,1.9-4,4.5-3.4,7.2   c0.4,2.1,1.5,4.7,3.9,5c1.3,0.2,2.6-0.4,3.8-1c1.3-0.7,2.6-1.4,3.9-2.2c1.4-0.9,2.8-1.8,4.2-2.8c0.7-0.5,1.4-1,2.1-1.5   c0.7-0.5,1.5-1,1.9-1.8C225.9,65.3,225.4,64.8,224.8,64.9z"></path>	<g>		<path class="st2" d="M207.1,142.8C207.1,142.8,207.1,142.8,207.1,142.8C207.1,142.9,207.1,142.9,207.1,142.8z"></path>		<path class="st2" d="M207.3,139.2c-0.3-0.3-0.6-0.6-0.8-1c-0.5-0.7-0.9-1.5-1.1-2.3c-0.2-0.8-0.3-1.7-0.2-2.6    c0-0.4,0.1-0.9,0.2-1.3c0.1-0.4,0.3-0.8,0.3-1.3c0-0.2-0.2-0.3-0.3-0.2c-0.8,0.5-1.2,1.7-1.4,2.6c-0.2,1-0.2,2.1,0,3.1    c0.2,1.1,0.6,2,1.2,2.9c0.1,0.1,0.2,0.2,0.2,0.3c-2.4-0.5-5-0.4-7.4-0.5c-2.7-0.1-5.4-0.4-8.1,0.2c0,0-0.1,0.1,0,0.1    c0.2,0,0.3,0.1,0.5,0.1c-0.9,0.6-1.8,1.3-2.6,2.1c-0.4,0.4-0.8,0.8-1.2,1.3c-0.4,0.4-1.1,1-0.9,1.7c0.1,0.2,0.2,0.3,0.4,0.3    c0,0,0.1,0,0.1,0c0,0.1,0,0.1,0,0.2c0,0.5,0.2,0.9,0.3,1.3c0.3,0.9,0.8,1.7,1.3,2.4c0.9,1.3,2,2.8,3.7,2.7c0.3,0,0.5-0.3,0.6-0.5    c1-0.2,2.1-0.8,3-1.1c1.4-0.5,2.7-1.1,4-1.8c1.3-0.6,2.5-1.3,3.8-2c1.1-0.6,2.5-1.1,3.4-2.1c0.1-0.2,0-0.4-0.2-0.4c0,0,0,0,0,0    c0.1,0,0.2-0.1,0.2,0c0.2-0.1,0.3-0.2,0.4-0.4c0,0,0-0.1,0.1-0.2c0-0.1,0-0.1,0-0.2c0-0.2-0.1-0.3-0.2-0.4    c-0.1-0.2-0.4-0.3-0.6-0.3c0,0-0.1,0-0.1,0c0.1,0,0.1,0-0.2-0.1c-0.2,0-0.3,0-0.5,0c-0.1,0-0.1,0-0.2,0c0,0-0.1,0-0.1,0    c-0.3,0-0.6,0-0.9,0c-0.1,0-0.2,0-0.3,0c0,0,0,0,0,0c-0.1,0-0.1,0-0.2,0c-0.2,0-0.5,0-0.7-0.1c-0.1,0-0.1,0-0.2-0.1    c0,0-0.1,0-0.1-0.1c0,0-0.1-0.1-0.1-0.1c0,0,0,0,0,0c0,0,0,0,0,0c0,0-0.1-0.1-0.1-0.1c0,0,0,0,0,0c0-0.1-0.1-0.2-0.1-0.2    c0,0,0-0.1,0-0.1c0,0,0,0,0-0.1c0,0,0-0.1,0-0.1c0.1-0.5-0.5-0.7-0.9-0.5c-0.1,0.1-0.2,0.1-0.2,0.2c0,0,0,0.1-0.1,0.1c0,0,0,0,0,0    c0.1-0.1,0,0-0.1,0.1c-0.2,0.2-0.2,0.6-0.2,0.8c0,0.5,0.3,0.9,0.7,1.2c0.7,0.7,1.8,0.7,2.8,0.7c0.3,0,0.6,0,0.8,0c0,0,0,0,0,0    c-1,0.3-1.9,1-2.8,1.4c-1.3,0.6-2.6,1.1-3.9,1.7c-1.3,0.5-2.6,1.1-3.9,1.7c-1,0.5-2.2,0.8-3.2,1.4c-0.4-0.1-0.9-0.4-1.2-0.7    c-0.5-0.5-0.9-1.1-1.3-1.7c-0.4-0.6-0.9-1.3-1.3-1.9c-0.3-0.4-0.5-0.9-0.7-1.3c0,0,0,0,0,0c0.2-0.2,0.4-0.4,0.5-0.7    c0.3-0.4,0.7-0.8,1.1-1.2c0.8-0.8,1.7-1.5,2.5-2.2c0.2-0.1,0.2-0.4,0.2-0.6c2.2,0.4,4.4,0.5,6.6,0.6c2.6,0.1,5.5,0.6,8.1,0.1    c0.1,0,0.1,0,0.1-0.1c0.5,0.4,1,0.7,1.5,0.5c0.2-0.1,0.3-0.3,0.3-0.5C208.1,139.8,207.6,139.5,207.3,139.2z"></path>	</g>	<path class="st2" d="M226.1,132c-1.1,0.6-2.1,1.2-3.2,1.8c-0.5,0.3-1,0.6-1.5,0.8c0-0.1-0.1-0.2-0.3-0.2c-2.1,0.8-4.1,1.9-6.2,2.7   c-1,0.4-2.1,0.8-3.1,1.2c-1.1,0.4-2.1,0.8-3.2,1.1c-0.1,0,0,0.2,0.1,0.2c1.2-0.1,2.3-0.2,3.4-0.5c-0.4,0.2-0.8,0.4-1.2,0.6   c-0.6,0.3-1.3,0.7-1.9,1c0,0,0-0.1-0.1-0.1c0-0.1,0-0.1-0.1-0.2c0-0.1-0.1-0.2-0.2-0.3c0,0.1,0.1,0.1,0.1,0.2   c-0.2-0.3-0.3-0.6-0.4-0.9c0-0.1-0.2-0.3-0.4-0.3c-0.1,0-0.3-0.1-0.4,0c-0.3,0.1-0.5,0.4-0.5,0.7c0.1,0.3,0.1,0.6,0.3,0.9   c0.1,0.2,0.2,0.3,0.3,0.5c0.1,0.1,0.1,0.2,0.2,0.2c0,0,0.1,0.1,0.1,0.1c-0.5,0.3-0.9,0.6-1.4,0.9c-0.1,0.1,0,0.3,0.1,0.2   c1.5-0.6,3.1-1.1,4.6-1.7c0.7-0.3,1.5-0.5,2.2-0.8c0.8-0.3,1.6-0.6,2.2-1.2c0.2-0.2,0.2-0.7-0.2-0.7c-0.1,0-0.2,0-0.3,0   c0,0,0,0,0,0c1.4-0.5,2.9-1.2,4.2-2c0,0.2,0.2,0.5,0.4,0.5c0.3,0,0.7,0,1-0.2c0.3-0.1,0.6-0.2,0.8-0.4c0.6-0.3,1.2-0.7,1.7-1.1   c1.1-0.7,2-1.6,2.9-2.5C226.7,132.3,226.5,131.8,226.1,132z"></path>	<path class="st2" d="M270.7,34.5c-0.1-0.3-0.2-0.6-0.4-0.9c-0.1-0.3-0.3-0.6-0.4-0.8c-0.1-0.1-0.1-0.3-0.2-0.4   c-0.1-0.1-0.2-0.2-0.3-0.4c-0.1-0.2-0.3,0-0.3,0.1c0,0.2,0,0.3,0,0.5c0,0.1,0,0.3,0.1,0.4c0.1,0.3,0.1,0.6,0.2,0.9   c0.2,0.6,0.3,1.3,0.7,1.9c0.1,0.2,0.4,0.2,0.6,0.1c0.2-0.1,0.3-0.3,0.3-0.5C271,35.1,270.9,34.8,270.7,34.5z"></path>	<path class="st2" d="M275.6,36.9C275.6,36.9,275.6,36.9,275.6,36.9c0-0.3-0.2-0.4-0.4-0.5c-0.4-0.2-0.7-0.2-1.1-0.2   c-0.4,0-0.7-0.1-1.1-0.1c-0.7-0.1-1.4-0.2-2.1-0.1c-0.3,0-0.4,0.5-0.2,0.7c0.6,0.4,1.4,0.6,2.2,0.8c0.4,0.1,0.7,0.1,1.1,0.2   c0.2,0,0.4,0,0.6,0c0.2,0,0.5-0.1,0.7-0.1C275.5,37.5,275.6,37.2,275.6,36.9C275.6,37,275.6,37,275.6,36.9z"></path>	<path class="st2" d="M278.7,35c0,0-0.1,0-0.1,0c-0.2-0.1-0.4,0-0.6,0c-0.2,0.1-0.3,0.1-0.5,0.2c-0.2,0.1-0.4,0.3-0.6,0.4   c-0.1,0.1-0.2,0.2-0.3,0.2c-0.1,0.1-0.2,0.2-0.3,0.3c-0.1,0.1-0.2,0.2-0.2,0.3c0,0.1-0.1,0.1-0.1,0.2c0,0-0.1,0.1-0.1,0.1   c-0.1,0.2,0,0.5,0.2,0.4c0.1,0,0.1,0,0.2,0c0.1,0,0.1,0,0.2,0c0.1,0,0.2,0,0.3-0.1c0.3-0.1,0.5-0.2,0.8-0.3   c0.2-0.1,0.4-0.2,0.6-0.4c0.1-0.1,0.2-0.1,0.3-0.2c0,0,0.1-0.1,0.1-0.1c0.1-0.1,0.2-0.3,0.3-0.5c0,0,0-0.1,0-0.1   C279,35.3,278.9,35.1,278.7,35z"></path>	<path class="st2" d="M281.1,32.3c0-0.2-0.2-0.3-0.4-0.2c0,0-0.1,0-0.1,0.1c-0.1,0-0.2,0.1-0.2,0.2c-0.1,0.1-0.2,0.2-0.2,0.3   c-0.2,0.2-0.3,0.4-0.4,0.6c0,0,0,0,0,0c0,0,0,0-0.1,0c0,0-0.1,0-0.1,0c0,0-0.1,0-0.1,0.1c0,0-0.1,0.1-0.1,0.1c0,0,0,0,0,0.1   c0,0,0,0.1,0,0.1c0,0,0,0.1,0,0.1c0,0,0,0,0,0c0,0,0,0.1-0.1,0.1c-0.1,0.2-0.2,0.5-0.1,0.8c0,0.2,0.2,0.3,0.4,0.3   c0.3,0,0.5-0.3,0.7-0.5c0.1-0.2,0.2-0.4,0.4-0.7c0.1-0.2,0.2-0.5,0.4-0.8c0-0.1,0.1-0.2,0.1-0.3C281.1,32.6,281.1,32.4,281.1,32.3z   "></path>	<path class="st2" d="M268.2,26.7c-0.2,0.4-0.4,0.8-0.6,1.2c-0.2,0.4-0.4,0.7-0.6,1.1c-0.2,0.4-0.4,0.8-0.6,1.2   c-0.2,0.4-0.4,0.8-0.3,1.2c0.1,0.2,0.3,0.2,0.4,0.2c0.4-0.1,0.6-0.7,0.8-1c0.2-0.4,0.3-0.8,0.5-1.2c0.1-0.4,0.3-0.8,0.4-1.2   c0.1-0.4,0.2-0.8,0.3-1.3C268.6,26.7,268.3,26.6,268.2,26.7z"></path>	<path class="st2" d="M269,36.3c-0.1-0.2-0.2-0.3-0.3-0.5c-0.1-0.2-0.2-0.4-0.3-0.6c-0.2-0.4-0.4-0.8-0.5-1.2   c-0.1-0.2-0.1-0.4-0.2-0.5c-0.1-0.2-0.2-0.4-0.3-0.7c-0.1-0.3-0.5-0.3-0.6,0c0,0.2-0.1,0.5-0.1,0.7c0,0.2,0,0.4,0.1,0.7   c0.1,0.5,0.2,1,0.3,1.5c0.1,0.4,0.3,0.9,0.6,1.3c0.1,0.2,0.3,0.5,0.5,0.7c0.2,0.2,0.5,0.3,0.7,0.3c0.2,0,0.4-0.1,0.4-0.2   C269.5,37.1,269.2,36.7,269,36.3z"></path>	<path class="st2" d="M276.6,38.2c-0.5-0.1-1.1,0-1.6,0c-0.6,0-1.1-0.1-1.7-0.1c-0.6,0-1.1-0.1-1.6-0.1c-0.6,0-1.1-0.1-1.7-0.1   c-0.3,0-0.4,0.4-0.1,0.5c0.5,0.2,1.1,0.4,1.7,0.5c0.6,0.1,1.2,0.2,1.8,0.2c0.6,0,1.2,0,1.8-0.1c0.5-0.1,1.1-0.2,1.6-0.4   C276.8,38.5,276.7,38.2,276.6,38.2z"></path>	<path class="st2" d="M275.2,39.7c-0.4,0.5-0.8,0.9-1.2,1.4c-0.4,0.5-0.8,1-1.1,1.5c-0.3,0.5-0.7,1-1,1.5c-0.3,0.5-0.7,1.1-0.8,1.8   c0,0.5,0.5,0.7,0.9,0.5c0.5-0.3,0.8-0.9,1.1-1.5c0.3-0.5,0.6-1,0.9-1.6c0.6-1,1.2-2.1,1.8-3.1C276,39.7,275.5,39.3,275.2,39.7z"></path>	<path class="st2" d="M325.1-0.3c-2,1.2-3.5,3-5,4.7c-1.6,1.7-3.1,3.4-4.6,5.1c-3,3.5-5.9,7-8.8,10.6c-2.8,3.6-5.6,7.3-8.3,11   c-1.3,1.9-2.6,3.8-3.9,5.7c-1.1,1.7-2.4,3.5-2.9,5.5c0,0,0,0,0,0c-0.3,0.1-0.6,0.3-0.9,0.4c0,0-0.1,0-0.1,0c-0.1,0-0.1,0-0.2,0   c-0.2,0-0.3,0-0.5,0.1c0,0,0,0,0,0c0,0-0.1,0-0.1,0c-0.1,0-0.2,0-0.2,0c-0.2,0-0.3,0-0.5-0.1c0,0,0,0,0,0c0,0,0,0,0,0   c0,0-0.1,0-0.1,0c-0.1,0-0.2-0.1-0.2-0.1c-0.1,0-0.2-0.1-0.2-0.1c0,0-0.1,0-0.1-0.1c0,0-0.1,0-0.1-0.1c-0.1-0.1-0.2-0.1-0.4-0.2   c-0.1,0-0.2-0.1-0.3-0.1c0,0-0.1,0-0.1-0.1c0,0-0.2-0.1,0,0c-0.1-0.1-0.2-0.1-0.3-0.2c0.1,0.1,0,0,0,0c0,0-0.1,0-0.1-0.1   c-0.1,0-0.1-0.1-0.2-0.2c2.4-4.8,2-11.1-1.3-15.3c0-0.5-0.3-1-0.6-1.2c-0.2-0.2-0.5-0.2-0.8-0.3c-0.1-0.1-0.2-0.2-0.3-0.2   c-0.2-0.4-0.6-0.6-1-0.8c-0.2-0.6-0.8-1-1.4-1c-0.1-0.3-0.2-0.5-0.4-0.6c-0.5-0.3-1-0.3-1.4,0c-2.2-0.8-4.5-1.2-6.8-1.4   c-2.2-0.2-4.4-0.1-6.6-0.1c-1.8,0-4-0.5-5.8-0.1c-0.1-0.2-0.2-0.3-0.4-0.4c-0.4-0.2-0.9-0.2-1.3-0.2c-0.2,0-0.4,0-0.7,0   c0-0.1,0-0.4,0.1-0.5c0-0.2,0.1-0.4,0.1-0.6c0.1-0.4,0.2-0.9,0.3-1.3c0.4-1.6,1-3.2,1.6-4.8c0.1,0,0.1,0,0.2-0.1   c1.5-1.5,2.7-3.5,3.9-5.3c1.2-1.8,2.5-3.5,3.7-5.3c2.5-3.6,5.1-7.2,7.7-10.7c2.6-3.6,5.2-7.1,7.7-10.7c1.3-1.8,2.5-3.5,3.8-5.3   c0.7-1,1.3-1.9,2-2.9c0.5-0.7,1-1.3,0.9-2.2c0-0.2-0.3-0.4-0.5-0.4c-0.9,0.2-1.2,0.8-1.8,1.6c-0.7,0.9-1.4,1.9-2,2.8   c-1.3,1.8-2.5,3.5-3.7,5.3c-2.5,3.6-5,7.2-7.5,10.8c-2.5,3.6-5,7.2-7.6,10.8c-1.2,1.8-2.5,3.5-3.7,5.3c-1.2,1.8-2.8,3.5-3.7,5.5   c0,0.1,0,0.1,0,0.2c-0.9,1.1-1.6,2.4-2.1,3.7c-0.3,0.8-0.5,1.7-0.7,2.6c-0.1,0.7-0.4,1.8,0.1,2.4c0.3,0.3,0.6,0.4,1,0.4   c0.5,0,1,0,1.5,0c0.3,0,0.6-0.1,0.9-0.2c1.4,0.9,3.4,0.9,4.9,1c0.3,0,0.7,0,1,0c-0.9,0.6-1.7,1.3-2.3,2.3c-0.7,1.3-1.4,2.6-2,4   c-0.7,1.5-1.5,3-2.2,4.5c-0.4,0.8-0.7,1.6-1.1,2.4c-0.3,0.7-0.8,1.5-0.8,2.4c0,0.5,0.5,0.9,0.9,0.5c0.2-0.2,0.4-0.5,0.6-0.7   c-0.1,0.3-0.2,0.7-0.1,1c-1.3,0.3-2.2,1.6-2.8,2.6c-0.4,0.8-0.9,1.6-1.3,2.4c-1.4,1.4-2.7,2.9-4,4.4c-0.1-0.5-0.4-1-0.6-1.6   c-0.2-0.6-0.2-1.3-0.2-2c0.1-1.3,0.6-2.4,1.4-3.4c0.7-0.9,1.7-1.7,2.6-2.4c0.5-0.3,1-0.7,1.5-1c0.6-0.3,1.1-0.6,1.6-1.1   c0.4-0.4,0.2-1.2-0.5-1.1c-1.4,0.2-2.7,1.2-3.8,2c-1,0.7-1.9,1.4-2.6,2.3c-0.3,0-0.7,0-1,0.1c0,0,0,0,0,0c0.1-0.1,0.1-0.3-0.1-0.4   c-0.6-0.4-1.6-0.1-2.3,0.2c0-0.1,0-0.2-0.1-0.4c-0.5-0.6-1.4-0.3-2.1-0.1c-1.2,0.3-2.4,0.7-3.5,1.1c-2.4,0.8-4.8,1.6-7.1,2.5   c-2.1,0.8-4.3,1.6-6.3,2.6c-1.1,0.6-2.8,1.6-3,2.9c-0.1,0.2-0.1,0.3-0.1,0.5c-0.1-0.2-0.3-0.4-0.5-0.4c-0.9,0-1.8,0.6-2.5,1.1   c-0.8,0.5-1.5,1-2.2,1.5c-0.7,0.6-1.4,1.2-2,1.9c-0.3,0.3-0.6,0.7-0.8,1.1c-0.2,0.3-0.6,0.8-0.5,1.2c0.1,0.2,0.2,0.4,0.5,0.4   c0.4,0,0.7-0.5,1-0.7c0.3-0.3,0.6-0.6,0.9-0.9c0,0,0.1-0.1,0.1-0.1c0,0.2,0,0.4,0.1,0.5c0.3,0.6,0.9,0.8,1.5,0.7   c0.5-0.1,0.9-0.3,1.3-0.5c0.2-0.1,0.5-0.3,0.7-0.4c0.2-0.2,0.5-0.3,0.7-0.5c0.4-0.3,0.8-0.6,1-1.1c0.2-0.5,0.1-1-0.2-1.4   c-0.4-0.5-1.1-0.5-1.7-0.2c-0.1,0-0.1,0.1-0.2,0.1c0,0,0,0,0,0c0.2-0.1,0.3-0.2,0.5-0.3c0.3-0.2,0.7-0.4,1-0.6   c0.4-0.2,0.8-0.4,1.2-0.7c0.1-0.1,0.1-0.1,0.1-0.2c0,0.7,0.2,1.5,0.4,2.1c0.4,1.2,1,2.4,1.6,3.5c0.6,1,1.3,2.2,2.1,3   c0.3,0.4,0.7,0.7,1.1,0.9c-0.2,0.1-0.5,0.2-0.7,0.3c-0.5,0.2-1,0.3-1.5,0.4c-0.3,0.1-0.6,0.2-0.9,0.3c0,0,0-0.1,0-0.1   c-0.1-0.2-0.4-0.4-0.6-0.3c-0.3,0-0.5,0.2-0.6,0.4c-0.1,0.1-0.2,0.3-0.3,0.4c-0.2,0.3-0.4,0.6-0.5,0.9c0,0.1-0.1,0.1-0.1,0.2   c-0.8-0.8-1.8-1.3-2.8-1.9c-1.1-0.8-2.1-1.7-3.3-2.3c-0.6-0.3-1.2-0.5-1.8-0.5c-0.3,0-0.7,0-1,0.1c-0.3,0.1-0.4,0.4-0.6,0.6   c-0.2,0.2,0,0.5,0.2,0.5c0.3,0,0.5,0.2,0.8,0.2c0.3,0,0.5,0,0.8,0.1c0.5,0.1,1,0.3,1.4,0.6c0.9,0.6,1.7,1.5,2.7,2.1   c0.8,0.6,1.8,1,2.5,1.8c0.3,0.4,0.6,0.8,0.8,1.2c0.2,0.4,0.4,1,0.8,1.3c0.3,0.2,0.6,0.1,0.8-0.1c0.6-0.8,0-2-0.5-2.8   c0.2-0.2,0.3-0.3,0.4-0.5c0.2-0.3,0.3-0.6,0.5-0.8c0-0.1,0.1-0.2,0.1-0.2c0.4,0,0.8,0,1.2,0c0.6-0.1,1.2-0.2,1.7-0.4   c0.5-0.2,1.1-0.4,1.6-0.6c0.1-0.1,0.3-0.1,0.4-0.2c0.1,0.1,0.2,0.2,0.3,0.2c1.1,0.4,2.4,0.3,3.5,0.3c1.2,0,2.3-0.1,3.5-0.3   c0.6-0.1,1.1-0.2,1.7-0.3c0.6-0.1,1.2-0.2,1.7-0.6c0.3-0.3,0.3-0.8-0.2-0.9c-0.8-0.2-1.8,0-2.7,0.1c-1,0.1-1.9,0.2-2.9,0.2   c-0.9,0-1.8,0.1-2.7,0.1c-0.4,0-0.7,0-1.1,0c0-0.4-0.3-0.8-0.7-0.8c-1,0-1.7-0.4-2.4-1.2c-0.7-0.8-1.3-1.7-1.9-2.6   c-0.6-0.9-1.1-1.7-1.5-2.7c-0.2-0.4-0.4-0.9-0.5-1.4c0,0,0-0.1,0-0.1c0,0,0.1,0,0.1-0.1c0.6-0.5,0.9-1.2,1.5-1.7   c0.7-0.5,1.5-0.9,2.2-1.2c2.2-0.9,4.4-1.8,6.7-2.6c2.2-0.8,4.4-1.6,6.5-2.3c0.1,0,0.5-0.1,1-0.3c-0.3,0.2-0.6,0.4-0.9,0.6   c-1.9,1.4-3.6,3.4-4.7,5.6c-1.1,2.3-1.6,5-1.3,7.5c0.1,1.1,0.7,2,1.8,2.4c0.9,0.3,2.4,0.4,3.2-0.3c0.4-0.3,0.3-1-0.2-1.1   c-0.8-0.3-1.7,0.1-2.4-0.3c-0.8-0.4-0.7-1.8-0.7-2.5c0-2.2,0.6-4.2,1.6-6.2c0.9-1.7,2.2-3.2,3.7-4.3c0.1,0,0.2,0,0.3,0.1   c0.4,0,0.7-0.1,1.1-0.2c0.6-0.2,1.3-0.4,1.9-0.6c0.6-0.2,1.2-0.5,1.7-0.8c0.2-0.1,0.4-0.2,0.6-0.3c-0.6,1.1-1.1,2.3-1.1,3.6   c-0.1,1.4,0.2,3.5,1.4,4.4c0.1,0,0.1,0.1,0.2,0.1c-0.7,0.9-1.4,1.8-2.1,2.7c-1.2,1.6-2.5,3.3-3.6,5c-1,1.4-2,2.9-2.9,4.4   c-0.1-0.1-0.3-0.1-0.5-0.2c-0.3-0.1-0.7-0.2-1-0.3c-0.4-0.1-0.7-0.1-1.1-0.2c-0.3-0.1-0.7-0.2-1-0.2c-0.2,0-0.4,0.1-0.4,0.3   c0,0.2,0.1,0.4,0.2,0.5c0.3,0.2,0.6,0.3,1,0.5c0.3,0.1,0.6,0.4,0.9,0.5c0.3,0.1,0.6,0.3,0.9,0.4c0.1,0,0.2,0.1,0.3,0.1   c-0.5,0.8-1,1.7-1.6,2.5c-0.6,1-1.2,1.9-1.8,2.9c-0.5,0.8-1,1.5-1.4,2.3c-0.1-0.4-0.2-0.8-0.3-1.2c-0.1-0.9-0.1-1.7,0-2.6   c0.1-0.9,0.4-1.8,0.6-2.7c0.3-0.9,0.8-1.8,0.8-2.8c0-0.5-0.6-0.7-0.9-0.3c-0.6,0.8-0.9,1.9-1.2,2.8c-0.3,1-0.6,2-0.7,3   c-0.1,1-0.1,2,0,2.9c0.1,0.9,0.3,2,1.1,2.6c0.3,0.2,0.8,0,0.8-0.4c0-0.1,0-0.2,0-0.2c0,0,0.1-0.1,0.1-0.1c0,0,0,0,0,0   c0.7-0.9,1.3-1.9,1.9-2.8c0.6-1,1.3-1.9,1.9-2.9c0.6-0.9,1.2-1.9,1.8-2.8c0.4-0.7,0.9-1.5,1.3-2.3c0.7-0.8,1.3-1.7,2-2.5   c1.3-1.7,2.6-3.3,3.9-5c0.8-1,1.6-2.1,2.5-3.1c-0.5,1-0.9,2-1.4,3c-3.9,8.1-7.5,16.3-10.4,24.8c-0.1,0.4,0.2,0.8,0.6,0.7   c2.1-0.1,4.3,0.1,6.2,0.9c1.8,0.8,3.1,2.7,4.6,3.9c0.3,0.3,0.8-0.1,0.6-0.5c-0.4-1.1-1.2-1.8-2.1-2.5c-0.9-0.7-2-1-3-1.5   c-1.8-0.9-3.7-1.5-5.7-1.5c2.4-6.9,5.1-13.7,8.1-20.3c1.5-3.4,3.4-6.7,5.1-10.1c0.3-0.7,0.7-1.3,1-2c0.4-0.7,0.8-1.3,1.2-2   c0.1-0.1,0-0.2,0-0.3c0.2-0.3,0.3-0.6,0.5-0.8c0.6-0.9,2.1-2.4,3.3-2.2c0,0.5,0.3,1,0.9,1.1c0.8,0.1,1.1,0.8,1.6,1.4   c0.5,0.6,1,1.3,1.6,1.8c1.1,1.2,2.3,2.3,3.6,3.3c1,0.8,2.2,1.7,3.5,1.8c-1.4,3.3-2.8,6.6-4.2,10c-1.2,3-2.4,6-3.6,9   c-0.3,0.2-0.4,0.6-0.6,0.9c-0.4,0.7-0.8,1.5-1.2,2.2c-0.7,1.4-1.5,2.9-2.2,4.3c-0.7,1.4-1.5,2.9-2.2,4.3c-0.4,0.7-0.8,1.5-1.1,2.2   c-0.3,0.6-0.6,1.3-0.5,1.9c0,0.1,0,0.1,0.1,0.1c-0.1,0.2-0.2,0.5-0.3,0.7c-0.1,0.2-0.1,0.4-0.2,0.6c-0.1,0.3-0.2,0.5-0.3,0.8   c0,0,0,0,0,0c-0.1,0-0.1,0-0.2-0.1c0,0,0,0-0.1,0c0,0,0,0-0.1,0c0,0,0,0.1-0.1,0.1c0,0,0,0.1,0,0.1c0,0,0,0,0.1,0c0,0,0,0,0.1,0   c0.1,0,0.1,0,0.2-0.1c0,0,0,0,0,0c0,0,0,0,0,0c0,0,0.1,0,0.1,0c0.1-0.2,0.2-0.4,0.4-0.6c0.2-0.2,0.3-0.4,0.5-0.6   c0.3-0.4,0.5-0.8,0.7-1.2c0.2-0.3,0.3-0.6,0.4-0.9c0.1-0.2,0.2-0.3,0.3-0.5c0.4-0.7,0.8-1.5,1.2-2.2c0.8-1.6,1.6-3.2,2.4-4.7   c0.8-1.5,1.5-3.1,2.2-4.6c0.1-0.2,1.2-2.3,0.9-2.9c1.5-2.8,3.1-5.6,4.5-8.4c2-3.9,3.7-7.9,5.3-12c0.1-0.2,0.2-0.3,0.2-0.5   c0.3-1.1-1.2-1.8-1.7-0.7c-0.1,0.2-0.2,0.4-0.3,0.6c-0.7,0.7-3-1.3-3.5-1.7c-1.1-0.9-2.1-2-3-3.1c-1.1-1.3-2.6-4.6-4.8-3.4   c-0.1,0-0.1,0.1-0.2,0.1c-0.1,0-0.2-0.1-0.3-0.1c0-0.1,0.1-0.2,0.1-0.3c0.3-0.7,0.7-1.3,1.1-2c0.5-0.7,0.9-1.4,1.4-2.1   c1-1.6,2.1-3.2,3-4.8c0.3-0.5-0.4-1-0.7-0.5c-1.1,1.3-2,2.6-3,4c-0.5,0.7-1,1.3-1.4,2c-0.4,0.6-0.9,1.2-1.3,1.8   c0-0.1,0.1-0.2,0.1-0.3c0.4-0.8,0.7-1.5,1.1-2.3c0.7-1.5,1.4-2.9,2.1-4.4c0.6-1.3,1.2-2.7,1.9-4c0.3-0.6,0.7-1.2,1-1.9   c0.3-0.6,0.5-1.1,0.8-1.7c1.4,0.1,2.7,0.1,4.1,0.2c0.5,0,1.1,0.1,1.6,0.1c-0.1,0.1-0.1,0.2-0.1,0.2c-0.1-0.1-0.2-0.2-0.3-0.1   c0,0-0.1,0-0.1,0c-0.2,0-0.4,0.2-0.4,0.3c-0.1,0.3-0.1,0.6-0.1,0.9c-0.2,0.1-0.4,0.1-0.6,0.2c-0.3,0.1-0.6,0.3-0.9,0.4   c-0.3,0.1-0.6,0.2-0.9,0.3c0,0,0,0,0,0c0,0,0,0-0.1,0c-0.1,0-0.1,0-0.2,0.1c-0.2,0.1-0.5,0.1-0.6,0.3c-0.2,0.1-0.2,0.4-0.2,0.6   c0.1,0.2,0.2,0.3,0.5,0.4c0.4,0.1,0.8-0.1,1.1-0.2c0.3-0.1,0.7-0.3,1-0.4c0.3-0.2,0.5-0.4,0.7-0.6c0.1-0.1,0.2-0.2,0.3-0.3   c0.1,0.4,0.4,0.7,0.6,1c-0.1,0-0.1,0-0.2,0c-0.5,0.1-1,0.3-1.4,0.6c-0.3,0.2-0.6,0.4-0.5,0.8c0,0.2,0.1,0.3,0.3,0.4   c-0.4,0.5-0.7,0.9-1,1.4c-0.2,0.3-0.4,0.7-0.5,1.1c-0.2,0.4-0.4,1-0.2,1.3c0.1,0.2,0.4,0.4,0.7,0.3c0.2-0.1,0.3-0.2,0.3-0.3   c0-0.1,0.1-0.2,0.1-0.3c0.1-0.2,0.1-0.3,0.1-0.6c0.1-0.4,0.2-0.7,0.3-1.1c0.2-0.6,0.4-1.3,0.7-1.9c0.2-0.1,0.4-0.2,0.6-0.3   c0.1-0.1,0.2-0.1,0.3-0.2c0,0,0.1,0,0.1-0.1c0,0,0,0,0.1,0c0,0,0.1,0,0.1-0.1c0,0,0,0,0,0c0.2-0.1,0.4-0.3,0.7-0.4c0,0,0,0,0.1,0   c0.1,0.1,0.3,0.3,0.4,0.4c0.2,0.2,0.4,0.4,0.6,0.6c0,0,0,0,0,0c-0.3,0.1-0.5,0.1-0.8,0.2c-0.2,0.1-0.4,0.2-0.7,0.2   c-0.3,0.1-0.7,0.2-0.7,0.5c0,0.2,0,0.4,0.1,0.5c-0.2,0.2-0.3,0.4-0.5,0.7c-0.3,0.6-0.7,1.2-0.8,1.9c0,0.2,0.1,0.4,0.3,0.5   c0,0.1,0,0.1,0,0.2c0,0.2,0,0.5,0.1,0.7c0,0.2,0.1,0.4,0.1,0.6c0.1,0.3,0.1,0.5,0.2,0.7c0.1,0.3,0.2,0.6,0.4,0.8c0,0,0.1,0,0.1,0   c0,0.1,0.1,0.3,0.2,0.3c0.4,0.1,0.7,0.2,1.1,0.3c0.4,0.1,0.7,0.1,1.1,0.1c0.4,0,0.7,0,1.1,0c0.5,0,1-0.1,1.3-0.5c0,0,0,0,0-0.1   c0,0,0.1,0,0.1-0.1c0.1-0.1,0.2-0.2,0.4-0.3c0.3-0.2,0.5-0.5,0.8-0.7c0.2-0.2,0.4-0.5,0.6-0.7c0.2-0.2,0.4-0.5,0.6-0.8   c0.2-0.3,0.2-0.6-0.1-0.9c-0.2-0.2-0.6-0.2-0.9,0c-0.3,0.2-0.5,0.5-0.8,0.8c-0.2,0.2-0.4,0.5-0.6,0.7c-0.2,0.2-0.4,0.5-0.6,0.7   l-0.3,0.4c-0.2,0-0.4-0.1-0.5-0.1c-0.4,0-0.8,0-1.2,0c-0.4,0-0.7,0-1.1,0.1c-0.1,0-0.3,0-0.4,0.1c0-0.1,0-0.1,0-0.2   c0-0.1-0.1-0.2-0.1-0.3c0-0.1-0.1-0.2-0.1-0.3c-0.1-0.2-0.1-0.4-0.2-0.6c-0.1-0.2-0.2-0.4-0.3-0.6c-0.1-0.2-0.2-0.4-0.3-0.6   c0-0.1-0.1-0.1-0.1-0.2c0,0,0,0,0,0c0-0.1,0-0.1,0,0c0-0.1,0.1-0.1,0.1-0.2c0-0.1,0.1-0.1,0.1-0.2c0-0.1,0-0.2,0.1-0.3   c0,0.1,0-0.1,0-0.1c0.1-0.3,0.2-0.6,0.3-0.9c0.1-0.3,0.2-0.5,0.3-0.8c0,0,0-0.1,0.1-0.1c0.1,0,0.2-0.1,0.3-0.1l0.7-0.3   c0.2-0.1,0.4-0.2,0.6-0.3c0.1-0.1,0.2-0.2,0.4-0.2c0,0,0,0,0.1-0.1c0.7,0.6,1.4,1.2,2.1,1.6c1.3,0.8,2.6,1.5,4,2.2   c0.9,0.4,2,0.9,3.1,1.1c0,0,0,0-0.1,0.1c-0.3,0.4-0.7,0.7-1,1.1c0,0,0,0,0,0c-0.4,0.2-0.8,0.5-1.1,0.7c-0.5,0.4-1.1,0.8-1.6,1.3   c-0.5,0.4-1,0.8-1.5,1.2c-0.5,0.4-1.1,0.8-1.5,1.4c-0.2,0.3,0.1,0.7,0.5,0.6c0.6-0.3,1.1-0.7,1.7-1c0.5-0.4,1.1-0.8,1.6-1.2   c0.5-0.4,1.1-0.8,1.6-1.2c0.5-0.4,1-0.8,1.3-1.4c0.1-0.2,0-0.3-0.2-0.4c0.2-0.2,0.4-0.4,0.7-0.5c0.1-0.1,0.3-0.2,0.4-0.4   c0.2,0,0.5,0,0.7,0c0.8,0,1.1-0.8,0.9-1.5c0,0,0,0,0-0.1c0.1,0.2,0.1,0.5,0.2,0.7c0.6,3.3-0.2,6.4-0.9,9.6c-0.1,0.6,0.7,0.9,1,0.4   c0.1,0.2,0.3,0.4,0.5,0.5c0.1,0.1,0.2,0.1,0.4,0.2c0.1,0.1,0.3,0.1,0.4,0.1c0.1,0,0.2,0,0.3,0c0.2,0.3,0.5,0.4,0.8,0.5   c0.4,0.1,0.8,0.2,1.2,0.2c0.4,0,0.8-0.1,1.2-0.2c0.2-0.1,0.4-0.2,0.6-0.3c0.2-0.1,0.4-0.3,0.5-0.5c0.1-0.2,0-0.4-0.1-0.6   c1.5-1.3,2.7-3.1,3.9-4.7c1.4-1.8,2.7-3.7,4.1-5.5c2.7-3.6,5.4-7.2,8.3-10.7c2.8-3.5,5.7-7,8.7-10.3c1.5-1.7,3.1-3.4,4.6-5.1   c1.5-1.7,3.3-3.3,4.4-5.3C326.3,0.2,325.8-0.8,325.1-0.3z M222.6,52.9c0.2-0.1,0.3-0.2,0.5-0.3c0,0,0.1,0,0.1-0.1c0,0,0,0,0,0   c-0.1,0.1-0.2,0.2-0.4,0.3c0,0,0,0,0,0C222.8,52.9,222.7,52.9,222.6,52.9c0,0.1-0.1,0.2-0.2,0.2c-0.2,0.1-0.4,0.2-0.6,0.3   c-0.2,0.1-0.4,0.1-0.6,0.2c-0.1,0-0.1,0-0.2,0.1c0.2-0.2,0.4-0.4,0.7-0.6c0.1,0,0.3,0.1,0.4,0C222.3,53,222.5,53,222.6,52.9z"></path>	<path class="st2" d="M247.1,57c-1.3,1.1-2.2,2.9-3.1,4.4c-0.9,1.5-1.8,3-2.7,4.5c-0.9,1.5-1.8,3.1-2.7,4.6c-0.9,1.5-2,3.1-2.7,4.7   c-0.2,0.5,0.5,0.9,0.8,0.4c0,0,0,0,0,0c1-1.4,1.8-3.1,2.7-4.6c0.9-1.6,1.9-3.1,2.9-4.6c0.9-1.5,1.9-3,2.8-4.5   c0.9-1.4,2.1-2.9,2.6-4.6C247.8,57.1,247.4,56.7,247.1,57z"></path>	<path class="st2" d="M232.5,83.5c-0.6,0.7-1.1,1.6-1.6,2.4c-0.5,0.9-1.1,1.7-1.5,2.6c-0.5,0.8-1,1.7-1.4,2.5   c-0.4,0.7-1,1.6-0.9,2.5c0,0.1,0.1,0.2,0.3,0.1c0.8-0.3,1.3-1.3,1.7-2c0.5-0.9,1-1.7,1.5-2.6c0.5-0.8,0.9-1.7,1.4-2.5   c0.5-0.9,1-1.8,1.3-2.7C233.2,83.4,232.8,83.2,232.5,83.5z"></path>	<path class="st2" d="M233.5,76.4c-0.5,0.6-0.9,1.4-1.3,2.1c-0.4,0.7-0.7,1.4-1.1,2.1c-0.7,1.4-1.4,2.9-2.1,4.4c0,0,0,0,0,0   c1.1-1.2,2.1-2.6,2.9-4c0.8-1.4,1.8-2.8,2.1-4.4C234.1,76.3,233.6,76.2,233.5,76.4z"></path></g><g id="Calque_4">	<g>		<path class="st2" d="M132.1,153.9c0.1,0.1,0.1,0.3,0.2,0.4c0.2,0.3,0.5,0.6,0.8,0.8c0.2,0.1,0.4,0.2,0.6,0.3    c0.3,0.1,0.5,0.1,0.8,0.1c0.1,0,0.2,0,0.2-0.1c0.7,0.2,1.5,0.3,2.2,0.4c1.4,0.2,2.7,0.5,4.1,0.7c2.8,0.5,5.6,0.9,8.5,1.4    c2.9,0.5,5.8,0.9,8.7,1.3c2.7,0.4,5.5,1,8.2,1c0.1,0,0.2,0,0.3-0.1c0,0,0,0.1,0.1,0.1c0.1,0,0.1,0.1,0.2,0.1    c0.1,0.1,0.3,0.1,0.4,0.1c0.1,0,0.3,0,0.4,0c0.2,0,0.5-0.1,0.7-0.1c0.1,0,0.2-0.1,0.2-0.1c0,0,0.1-0.1,0.1-0.1    c0.5,0.2,1.1,0.2,1.3-0.5c0.8-2.4,1.7-4.7,2.5-7.1c4.3-9.1,8.1-18.5,11.7-27.8c3.5-9.1,6.7-18.3,9.6-27.6    c2.9-9.3,5.4-18.8,8.1-28.2c2.7-9.6,5.9-18.9,9.1-28.3c1.5-4.4,2.8-8.9,4.1-13.4c1.2-4.6,2.3-9.3,2.6-14c0-0.1,0-0.2-0.1-0.3    c0.1-0.7,0.2-1.3,0.3-2c0.1,0,0.2,0,0.3-0.1c0.4-0.2,0.4-0.7,0.2-1.1c-0.3-0.3-0.8-0.4-1.1-0.6c-0.9-0.3-1.8-0.6-2.7-0.9    c-0.9-0.3-1.9-0.6-2.8-0.9c-0.5-0.2-0.9-0.3-1.4-0.5c-0.2-0.1-0.3-0.1-0.5-0.1c0,0,0,0,0,0c0,0,0,0,0,0c0-0.2-0.2-0.4-0.5-0.4    c0,0,0,0,0,0c0.3-0.4-0.3-0.9-0.6-0.5c-0.1,0.1-0.2,0.2-0.2,0.2c-0.1,0.1-0.1,0.1-0.2,0.2c0,0,0,0-0.1,0c0,0,0,0,0,0    c-1.3-0.2-2.4,0.9-3.2,1.7c-0.5,0.5-0.9,1.1-1.4,1.5c-0.5,0.4-1,0.8-1.5,1.3c-2,1.7-4.1,3.4-6.1,5.1c-2,1.8-4,3.6-5.8,5.5    c-1.4,1.4-3,2.8-4.4,4.2c-0.1,0-0.2,0.1-0.3,0.1c-3.8,3-7.5,6-11.1,9.2c-2.4,2-4.8,4-7.2,6.1c-0.3,0.8-0.8,1.6-1,2.4    c-0.1,0.4-0.3,0.7-0.4,1c-2.6,6.2-4.1,12.8-5.8,19.2c-2.1,7.7-4.8,15.2-7.2,22.9c-1.2,3.8-2.3,7.6-3.6,11.4    c-1.3,3.7-2.7,7.4-3.9,11.1c-1.2,3.8-2.3,7.7-3.5,11.6c-1.2,3.9-2.6,7.8-3.9,11.6c-1.2,3.5-2.3,7.1-3.3,10.7    c-0.6,1.8-1.1,3.7-1.7,5.5c-0.5,1.5-1.3,3-1.6,4.5C130.9,153.5,131.5,154.1,132.1,153.9z M147.9,130.6c2.2-0.2,4.4-0.4,6.5-0.7    c2.2-0.3,4.3-0.5,6.5-0.8c1.1-0.2,2.2-0.3,3.4-0.5c0.9-0.1,1.8-0.2,2.6-0.5c-0.9,2.6-1.8,5.3-2.7,7.9c-0.8-0.3-1.7-0.1-2.6,0    c-1.2,0.1-2.3,0.2-3.5,0.2c-2.3,0.2-4.6,0.4-6.9,0.5c-2.4,0.2-4.8,0.4-7.2,0.4c-1.2,0-2.3,0-3.5,0c-0.7,0-1.5,0-2.2,0.1    c0.6-1.9,1.2-3.8,1.8-5.7c0.4,0,0.8,0,1.1,0c0.5,0,1-0.1,1.5-0.1c0.5-0.1,1-0.2,1.5-0.3c0.5-0.1,1-0.2,1.5-0.2c0,0,0.1,0,0.1,0    C146.6,130.8,147.3,130.7,147.9,130.6z M208.5,8.9c-0.1,0.4-0.2,0.8-0.3,1.2c-0.2,0.7-0.5,1.3-0.7,2c-0.1,0-0.1,0-0.2,0.1    c-1.6,2.2-2.2,4.9-3.2,7.4c-0.9,2.5-1.8,5-2.7,7.5c-1.8,5.2-3.6,10.4-5.4,15.6c-6.3,18.4-12.6,36.9-18.8,55.3    c-3.1,9.2-6.3,18.4-9.4,27.6c-0.2,0.6-0.4,1.3-0.6,1.9c-1,0-1.9,0.3-2.9,0.4c-1.1,0.2-2.2,0.4-3.4,0.6c-2.2,0.3-4.3,0.7-6.5,0.9    c-2.2,0.2-4.4,0.4-6.5,0.6c-2.1,0.2-4.3,0-6.4,0.5c0,0,0,0,0,0c0,0,0,0,0,0c-0.3,0-0.5,0-0.8,0.1c0-0.1,0.1-0.2,0.1-0.3    c2.5-7.7,4.5-15.6,7.1-23.2c1.3-3.7,2.7-7.4,4-11.1c1.3-3.8,2.4-7.7,3.6-11.5c2.4-7.4,5-14.7,7-22.3c1.9-7,3.6-14,6.8-20.5    c0.1-0.1,0.1-0.2,0.1-0.3c2.1-1.7,4.1-3.5,6.2-5.3c0.3-0.2,0.5-0.5,0.8-0.7c0.2,0,0.3,0,0.5-0.2c0.2-0.2,0.4-0.5,0.6-0.7    c2.7-2.3,5.3-4.5,7.9-6.9c0,0,0.1,0,0.1,0c1.1-0.8,2.2-1.8,3.2-2.7c1-0.9,2-1.7,3.1-2.5c2-1.6,4-3.3,6-4.9c2-1.7,4.1-3.4,6.1-5.1    c1.1-0.9,2.1-1.5,3.3-2.3C207.4,9.8,208,9.4,208.5,8.9z M178.2,136.2c1-3.1,2.1-6.2,3.1-9.4c6.5-19.3,12.7-38.6,18.9-57.9    c3.2-9.7,6.3-19.5,9.4-29.2c1.5-4.9,3.1-9.8,4.6-14.7c0.5-1.8,1.1-3.6,1.6-5.3c-0.6,3.2-1.4,6.3-2.3,9.4c-1.6,5-3.3,10-5,14.9    c-3.2,9.2-6.1,18.4-8.6,27.8c-2.6,9.6-5.3,19.2-8.4,28.7c-3,9.3-6.3,18.4-9.9,27.5C180.5,130.7,179.3,133.4,178.2,136.2z     M156.3,157.4C156.3,157.4,156.3,157.4,156.3,157.4c0.5-0.1,0.9-0.2,1.3-0.5c0.1-0.1,0.1-0.2,0.1-0.3c0.4-0.2,0.8-0.5,1.2-0.9    c0.3-0.3,0.6-0.6,0.8-1c0.3,0,0.6-0.2,0.8-0.6c2-5.1,3.6-10.4,5.4-15.6c1.8-5.2,3.6-10.4,5.3-15.6l18.8-55.3    c3.1-9.2,6.3-18.4,9.4-27.7c1.5-4.6,3.1-9.2,4.5-13.8c0.8-2.4,1.5-4.8,2.3-7.1c0.5-1.7,1.2-3.3,1.5-5c0.4-0.1,0.8-0.8,0.9-1.2    c0.4-1,0.8-2,1-3.1c0.1-0.5,0.2-1.1,0.3-1.6c0,0,0-0.1,0-0.1c0.3,0.1,0.7,0.2,1,0.3c0.7,0.3,1.5,0.5,2.2,0.8    c0.8,0.3,1.5,0.5,2.3,0.8l1.1,0.4c0.2,0.1,0.3,0.1,0.5,0.2c0.1,0,0.2,0.1,0.3,0.1c0,0,0.1,0.1,0.1,0.1c-1.4,2.4-2.2,5.3-3,7.9    c-0.9,2.7-1.7,5.3-2.6,8c-1.7,5.4-3.5,10.8-5.2,16.3c-6.2,19.3-12.3,38.7-18.8,57.9c-6.5,19.2-13.1,38.3-19.5,57.5    c0,0-0.1,0-0.1,0c0,0,0.1,0,0.1,0l0,0c-0.1,0-0.2,0-0.2,0.1c0,0-0.1,0-0.1,0c0,0-0.1,0-0.1,0c-0.3,0.1-0.5,0.1-0.8,0.1    c-0.3,0-0.5,0.2-0.7,0.5c0,0-0.1-0.1-0.2-0.1c-1.4-0.4-2.9-0.5-4.3-0.8c-1.4-0.3-2.9-0.5-4.4-0.7    C157.2,157.5,156.8,157.4,156.3,157.4z M133.5,152c0.6-1.2,1-2.5,1.4-3.6c0.7-1.9,1.4-3.9,1.9-5.9c0.4-1.4,0.9-2.8,1.3-4.2    c0.9,0.1,1.8,0,2.7,0c1.2-0.1,2.3-0.2,3.4-0.3c2.3-0.1,4.6-0.2,6.9-0.3c2.3-0.1,4.6-0.2,6.9-0.3c1.2-0.1,2.5-0.1,3.7-0.2    c0.7-0.1,1.4,0,2.1-0.2c-0.3,0.8-0.5,1.5-0.8,2.3c-1.4,4.3-3,8.6-4.3,12.9c-0.3,0.1-0.3,0.5-0.2,0.7c0,0.1-0.1,0.2-0.1,0.3    c-0.1,0.2,0,0.4,0,0.6c0,0,0,0.1-0.1,0.1c0,0,0,0,0,0.1c0,0-0.1,0.1-0.1,0.1c-0.1,0.1-0.1,0.2-0.2,0.3c0,0-0.1,0.1-0.1,0.1    c0,0,0,0-0.1,0.1c-0.1,0.1-0.2,0.2-0.3,0.2c-0.1,0-0.1,0.1-0.2,0.1c0,0,0,0,0,0c0,0,0,0,0,0c-0.1,0.1-0.2,0.1-0.3,0.2    c-0.2,0.1-0.5,0.2-0.7,0.3c0,0,0,0,0,0c-0.1,0-0.1,0-0.2,0c-0.1,0-0.2,0-0.3,0.1c-0.3,0-0.5,0.2-0.8,0.3c-0.2,0.1-0.3,0.3-0.3,0.4    c-0.3,0-0.6,0-0.9,0c-0.1,0-0.3,0-0.4,0c0,0,0,0,0,0c-0.9-0.1-1.9-0.3-2.7,0c-0.1,0-0.2,0.1-0.2,0.2c-0.3,0-0.6-0.1-1-0.1    c-2.8-0.5-5.6-0.9-8.5-1.4c-1.5-0.2-2.9-0.5-4.3-0.7c-0.7-0.1-1.4-0.3-2.2-0.3c-0.1,0-0.2-0.1-0.3-0.1c-0.1-0.1-0.2-0.1-0.2-0.2    c-0.1-0.1-0.2-0.2-0.2-0.3c0-0.1-0.1-0.2-0.1-0.3c0-0.1,0-0.2,0-0.3c0,0,0-0.1,0-0.1C133.6,152.3,133.5,152.1,133.5,152z"></path>		<path class="st2" d="M203.8,64.5c0.5-1.4,1-2.8,1.4-4.2c0.5-1.4,1-2.8,1.5-4.2c0.5-1.4,0.8-2.9,1.2-4.3c0.8-2.8,1.6-5.6,2.4-8.3    c0.9-2.9,1.6-5.9,2.8-8.7c0.1-0.2,0.5-0.1,0.4,0.1c-0.5,2.8-1.4,5.5-2.2,8.2c-0.9,2.8-1.8,5.6-2.7,8.4c-0.5,1.4-1.1,2.7-1.5,4.2    c-0.4,1.4-0.7,2.7-1.2,4.1c-0.4,1.4-0.9,2.8-1.3,4.2c-0.4,1.5-0.8,3.1-1.6,4.4c-0.1,0.2-0.4,0.1-0.4-0.1    C202.8,67,203.3,65.7,203.8,64.5z"></path>		<path class="st2" d="M201.5,72l0.3-0.7c0-0.1,0.1-0.2,0.2-0.4c0.1-0.1,0.1-0.3,0.2-0.4c0.1-0.3,0.2-0.5,0.3-0.8c0,0,0.1,0,0,0    c-0.1,0.3-0.1,0.6-0.1,0.9c0,0.1,0,0.2,0,0.4c0,0.1,0,0.3,0,0.4c0,0.3-0.1,0.5-0.1,0.8c0,0.1-0.1,0.3-0.1,0.4    c0,0.2-0.1,0.3-0.2,0.4c-0.1,0.2-0.5,0.1-0.5-0.2C201.3,72.5,201.4,72.3,201.5,72z"></path>	</g></g><g id="Calque_3">	<path class="st0" d="M161.7,73.8c-20.8-2.5-42.2-6.6-62.1,1.6c-0.6,0-1.3,0.1-1.9,0.4c-0.4,0.2-0.9,0.5-1.3,0.7   c-0.2,0.1-0.4,0.3-0.6,0.4c-2.7,1-6.6,0.4-9.3,1.2c-0.6,0.2-1.3,0.4-1.9,0.7c-1.3-0.1-2.6,0.1-3.9,0.6c-1.6,0.7-3,1.8-4.5,3   c-0.5,0.2-1,0.5-1.6,0.7c-7.2,3.3-14.1,7.2-20.8,11.3c-0.5,0-1,0.1-1.5,0.3c-8.9,4-17.4,9.3-26.1,13.7c-8.4,4.2-17.5,8.2-24.9,14.1   c-1.3,1.1-1.5,2.7-0.9,4c-2.6,4.3-1.2,11.1-1.7,15.7c-0.9,8-2.2,16-3.2,24.1c-0.6,4.8,5.6,5.8,7.6,2.4c5.9-4.2,10.8-10.7,16-15.6   c3.1-3,6.3-5.9,9.5-8.7c1.4-1.2,2.8-2.6,4.3-3.8c0.4,0,0.9-0.1,1.4-0.3c2.4-0.9,5-1.2,7.6-1.5c0.2,0.1,0.4,0.1,0.6,0.1   c0.6,0.1,1.3,0,1.9-0.3c0,0,0,0,0,0c0.2,0,0.4,0,0.6-0.1c1.1,0.6,2.6,0.6,3.8-0.6l0.5-0.5c0.1-0.1,0.2-0.2,0.3-0.3   c0.3-0.1,0.6-0.2,0.8-0.4c0.2-0.1,0.4-0.2,0.6-0.3c5.8,1.2,12.6,0.3,17.8-0.7c6.2-1.2,12.5-2.9,18.6-5c3.1,0.2,6.1,0.3,9.2,0.4   c0,0.2-0.1,0.3-0.2,0.5c-0.2,0.8-0.4,1.6-0.5,2.4c-0.1,0.6-0.1,1.2,0.1,1.7c0,0,0,0,0,0.1c0,0.2,0,0.4,0,0.7c0,0.1,0,0.2,0,0.2   c0,0,0,0,0,0.1c0,0,0,0.1,0,0.1c0,0.1,0.1,0.3,0.1,0.4c0,0.3,0.2,0.5,0.3,0.8c0,0,0,0,0,0.1c0,0,0,0,0,0c0.1,0.2,0.2,0.3,0.3,0.4   c0.4,0.4,0.8,0.8,1.3,1c0,0,0,0,0,0c0.5,0.4,1.1,0.6,1.7,0.6c0.3,0.1,0.6,0.1,0.9,0c0.3-0.1,0.6-0.1,0.9-0.3   c0.5-0.2,0.8-0.5,1.1-0.8c0.3-0.3,0.6-0.7,0.7-1.1c0.2-0.4,0.3-0.9,0.2-1.3c0-0.2,0-0.4,0-0.6c0,0,0,0,0,0c1.1-0.8,2.1-1.9,2.9-3   c0.4-0.5,0.8-1.1,1.1-1.6c0.3,0,0.6-0.1,0.8-0.1c0.6,0.1,1.3,0.2,1.9,0.2c-0.3,0.6-0.5,1.2-0.7,1.9c-0.2,0.3-0.4,0.7-0.6,1.1   c-0.3,0.8-0.3,1.7-0.3,2.5c-0.3,1-0.2,1.9,0.1,3c0,0.1,0,0.3,0,0.4c0,0,0,0.1,0,0.1c0,0.3,0,0.6,0,0.9c0.1,0.6,0.4,1.2,0.8,1.7   c0.2,0.2,0.4,0.4,0.7,0.6c0.5,0.4,1.1,0.6,1.7,0.6c0.4,0.1,0.7,0,1.1-0.1c0.1,0,0.2,0,0.3,0c2.5-0.1,4-2.2,3.9-4.5   c-0.1-1.4-0.2-2.9-0.3-4.3c0-1.1,0.5-2.2,0.3-3.4c-0.1-0.3-0.2-0.6-0.3-0.9c0.9-0.2,1.8-0.3,2.6-0.1c1.3,0.3,2.3-0.2,2.9-1.1   c0.8-0.4,1.6-0.9,2.3-1.7c3.7-4.1-0.6-11.8-5.8-9.1c0,0,0-0.1,0-0.1c1.3-0.9,2-2.4,2-4.1c0-2.2,0-5.1-0.8-7.2   c-0.9-2.1-2.6-3.5-4.6-4.5c-1.2-0.6-2.5-1.1-3.8-1.6l-2-0.8c0-0.2-0.1-0.4-0.2-0.6c2.2,0.8,4.9,0.8,7.1,0.2   c0.3-0.1,0.5-0.1,0.8-0.2c0.1,0.3,0.3,0.5,0.6,0.7c0.3,0.3,0.7,0.6,1.1,0.8c0.3,0.1,0.6,0.2,0.9,0.2c0.1,0,0.1,0,0.2,0   c-0.1,1.3,0.4,2.7,1.6,3.4c0.2,0.1,0.4,0.3,0.7,0.4c0,0.1,0.1,0.1,0.1,0.2c0.5,0.7,1,1.5,1.6,2.1c1.2,1.4,2.7,2.9,4.5,3.8   c0.3,4.3,1.4,9.6,4.1,12.2c0.3,1.7,1.3,2.6,2.4,3c0,0,0.1,0.1,0.1,0.1c0.2,0.1,0.5,0.3,0.7,0.4c0.4,0.2,0.8,0.2,1.2,0.2   c0.3,0,0.6,0,0.9-0.1c0.4-0.1,0.8-0.3,1.2-0.6c0.2-0.2,0.4-0.4,0.6-0.6c0.3-0.4,0.5-0.9,0.6-1.4c0.4-0.7,0.5-1.5,0.3-2.4   c0.3-7.1-0.4-13.8-4.1-20c-2.7-4.7-7.3-13.5-12-16.6c-0.4-0.2-2.6-1.1-4.7-1.4c-0.5-0.1,8.2-1.3,13.3-1.6   c7.2-0.4,21.9,0.4,22.5,0.5c0.2,0.2,2.9-0.2,3.1-0.3c1.3-0.4,3.1-0.4,4.2-1.5c0.1-0.1,0.5-0.2,0.6-0.3   C166.4,78.8,165.7,74.3,161.7,73.8z M111.9,110.6c0.3,0.3,0.5,0.4,0.6,0.5c0,0,0,0.1-0.1,0.2c-1.2-0.8-2.4-1.4-3.7-2   c0-0.1-0.1-0.1-0.1-0.2C109.9,109.4,111.3,109.9,111.9,110.6z"></path></g><g id="Calque_2">	<path class="st2" d="M128.1,88c-0.2-0.3-0.4-0.6-0.7-0.8c-0.5-0.5-1.1-1-1.8-1.3c-0.7-0.4-1.5-0.6-2.4-0.8   c-0.4-0.1-0.8-0.2-1.2-0.3c-0.2,0-0.4-0.1-0.6-0.1c0.2-0.1,0.3-0.2,0.5-0.2c0.3-0.1,0.6-0.2,1-0.2c0.2,0,0.3,0,0.5-0.1   c0.2,0,0.3,0,0.5-0.1c0.1,0,0.1-0.1,0-0.2c-0.3-0.2-0.7-0.1-1-0.1c-0.4,0-0.7,0.1-1.1,0.2c-0.3,0.1-0.6,0.2-0.9,0.4c0,0,0,0-0.1,0   c0,0,0,0-0.1,0c0-0.2,0-0.3,0-0.5c0-0.2,0-0.3,0-0.5c0-0.1-0.1-0.3-0.1-0.4c-0.1-0.2-0.1-0.4-0.2-0.6c-0.1-0.1-0.1-0.2-0.2-0.3   c-0.1-0.1-0.1-0.2-0.3-0.2c0,0,0,0,0,0c0,0-0.1,0-0.1,0l0,0c-0.1-0.1-0.3,0-0.3,0.1c0,0,0,0,0,0c0,0,0,0,0,0c0,0,0,0,0,0   c-0.1,0.1-0.2,0.2-0.2,0.3c0,0.1,0,0.2,0,0.3c0,0.3,0,0.5,0.1,0.8c0,0.3,0.1,0.5,0.2,0.8c0.1,0.2,0.2,0.5,0.4,0.7c0,0,0,0,0,0   c-0.1,0.1-0.2,0.1-0.3,0.2c-0.2,0.1-0.3,0.2-0.5,0.3c-0.2,0.1-0.3,0.2-0.4,0.4c-0.1,0.1-0.1,0.2-0.1,0.3c-2.1,0.9-4.2,2.1-6.3,3.1   c-2.6,1.3-5.4,2.4-8,3.6c-0.1,0,0,0.1,0,0.1c2.8-1,5.6-2.1,8.3-3.3c2.7-1.1,5.4-2.3,7.8-3.9c0.1,0,0.1-0.1,0-0.2   c0.2,0.2,0.5,0.3,0.8,0.3c0.4,0.1,0.8,0.2,1.2,0.3c0.8,0.2,1.6,0.4,2.3,0.8c0.6,0.3,1.2,0.6,1.8,1c0.3,0.2,0.5,0.4,0.7,0.6   c0.3,0.2,0.4,0.6,0.7,0.9c0.2,0.2,0.5,0,0.4-0.2C128.5,88.6,128.3,88.3,128.1,88z"></path>	<path class="st2" d="M139.9,81.8c-1.1-0.2-2.5,0.4-3.6,0.7c-1.3,0.3-2.6,0.5-4,0.6c-2.6,0.3-5.2,0.5-7.8,0.6c-0.1,0-0.1,0.1,0,0.1   c2.6,0,5.2-0.2,7.7-0.5c1.3-0.1,2.6-0.3,3.8-0.4c0.7,0,1.4-0.1,2.1-0.2c0.6-0.1,1.3-0.1,1.8-0.4C140.2,82.2,140.2,81.8,139.9,81.8z   "></path>	<path class="st2" d="M159.1,74.2c-1.3,0-2.6,0-3.9-0.2c0,0-0.1,0-0.1,0c0,0,0,0.1,0,0.1c-0.6-0.2-1.3-0.4-1.8-0.8c0,0,0.1,0,0.1,0   c0.1,0,0.1,0,0.1,0c-0.4-0.3-0.7-0.6-0.9-1c0,0,0,0,0,0l0,0c-0.2-0.2-0.3-0.5-0.4-0.8c0,0,0,0-0.1,0c-0.1-0.1-0.4-0.2-0.5-0.2   c-0.2,0-0.4-0.1-0.6-0.1c-0.2,0-0.4-0.1-0.6-0.1c-0.1,0-0.2,0-0.3-0.1c-0.1,0-0.2,0-0.3,0c0,0,0,0-0.1,0c0,0,0,0,0,0   c-1-0.2-2-0.5-3-0.6c-1.1-0.1-2.2-0.2-3.3-0.3c-2-0.2-4.1-0.4-6.2-0.5c-4.2-0.3-8.3-0.4-12.5-0.2c-4.2,0.2-8.3,0.5-12.4,1.3   c-4,0.8-7.7,2-11.6,3.2c-2.3,0.7-4.6,1.2-7,1.6c-1.2,0.2-2.4,0.3-3.5,0.3c-1.2,0.1-2.6,0-3.8,0.4c-0.3,0.1-0.4,0.4-0.3,0.6   c-4.3,1.3-8.4,3.2-12.4,5.3c-5,2.7-10.1,5.4-15.1,8.1c-10.2,5.5-20.4,11-30.5,16.5c-5.8,3.1-11.5,6.3-17.3,9.4   C5,119.1-0.9,122-6.6,125.3c-0.3,0.2-0.1,0.7,0.2,0.5c5.1-2.6,10.1-5.4,15.2-8.1c5.1-2.7,10.2-5.3,15.2-8   c10.1-5.4,20.3-10.6,30.5-16.1c5-2.7,10-5.3,15-8c4.8-2.6,9.6-5.4,14.8-7.2c1.2-0.4,2.5-0.8,3.7-1.2c-0.1-0.1-0.1-0.2-0.2-0.3   c1.5,0.1,3-0.1,4.4-0.2c2.1-0.1,4.2-0.4,6.2-1c4-1,7.8-2.5,11.7-3.4c8.3-1.9,16.7-2,25.1-1.5c2.3,0.1,4.6,0.3,6.9,0.5   c1.2,0.1,2.4,0.2,3.6,0.3c1.3,0.1,2.5,0.1,3.8,0.1c0.2,0,0.3-0.1,0.4-0.2c0.1,0,0.2,0,0.3,0.1c0.2,0,0.4,0.1,0.6,0.1   c0.2,0,0.4,0.1,0.6,0.1c0.1,0,0.1,0,0.2,0c0,0,0,0.1,0,0.1c0,0,0,0,0,0l0,0.1c0,0.1,0.1,0.1,0.1,0.2c0,0,0,0.1,0,0.1   c0,0.2-0.1,0.4-0.1,0.6c0.3,0.1,0.5,0.1,0.8,0.1c-0.1,0.1-0.1,0.3,0.1,0.4c0.7,0.6,1.6,1,2.5,1.2c0.4,0.1,0.9,0.2,1.3,0.2   c0.2,0,0.5,0,0.7,0c0,0,0,0,0,0c0.2,0,0.4,0.1,0.6,0.1c0.4,0.1,0.8,0.1,1.2,0.2c0.4,0,0.9,0.1,1.2-0.1c0.1-0.1,0.1-0.3,0-0.5   C159.9,74.3,159.5,74.3,159.1,74.2z"></path>	<path class="st2" d="M160.3,82.8c-0.7,0.1-1.4,0.3-2.1,0.3c-0.7,0-1.4,0.1-2.1,0.1c-0.7,0-1.4,0-2.1,0c-0.3,0-0.7,0-1,0.1   c-0.1,0-0.2,0.1-0.3,0.1c-0.1,0-0.1-0.1-0.2-0.1c0.1,0,0.2,0,0.3,0c0.1-0.1,0.2-0.2,0.3-0.3c-0.4,0-0.7,0-1.1,0.1c0,0,0,0,0,0   c-0.3-0.1-0.6-0.1-0.9-0.2c-1.1-0.2-2.2-0.1-3.3-0.1c-1.1,0-2.2,0.1-3.4,0c-0.9-0.1-1.8-0.4-2.6-0.7c0-0.1,0.1-0.2,0-0.2   c0-0.1,0-0.1-0.1-0.2c0-0.1-0.1-0.1-0.1-0.2c-0.1-0.1-0.1-0.3-0.2-0.4c0-0.1-0.1-0.2-0.1-0.4c0-0.1,0-0.1,0-0.2c0,0,0-0.1,0-0.1   c0,0,0-0.1,0-0.1c0-0.1,0-0.2,0-0.3c0-0.2-0.2-0.2-0.3,0c0,0.1,0,0.1,0,0.2c0,0.1,0,0.1,0,0.2c-0.1,0.1-0.1,0.3-0.1,0.4   c0,0.2,0,0.3,0,0.5c0,0.2,0.1,0.3,0.2,0.5c0,0.1,0.1,0.1,0.1,0.2c0,0,0,0,0,0c-0.2,0-0.3,0.2-0.2,0.3c0.1,0.1,0.1,0.1,0.2,0.2   c-0.2,0-0.3,0-0.5-0.1c0,0,0,0,0,0c0.2,0.1,0.5,0.2,0.7,0.3c1.3,1.2,3.7,1,5.4,0.9c0.1,0,0.2,0,0.3,0c0.3,0,0.6,0,0.8,0   c0.8,0,1.6,0,2.5,0.1c0.6,0,1.2,0.1,1.9,0.3c0,0,0.1,0,0.1,0c0.1-0.1,0.2-0.2,0.3-0.3c0.1,0.1,0.3,0.2,0.4,0.2   c0.3,0.1,0.7,0.2,1.1,0.2c0.7,0.1,1.5,0,2.2,0c0.7-0.1,1.5-0.2,2.2-0.4c0.7-0.2,1.5-0.3,2.1-0.5C160.7,83.1,160.5,82.8,160.3,82.8z   "></path>	<path class="st2" d="M162.5,74.7c0-0.1-0.1-0.2-0.1-0.2c-0.1-0.1-0.1-0.1-0.2-0.1c-0.2,0-0.5,0-0.7,0c-0.2,0-0.4,0-0.6,0.1   c-0.2,0-0.3,0.2-0.3,0.4l0,0c0,0,0,0,0,0c0,0,0,0,0,0.1c0,0,0,0,0,0c0,0.1,0.1,0.2,0.1,0.2c0.1,0.1,0.1,0.1,0.2,0.1   c0.2,0,0.5,0,0.7,0c0.2,0,0.4,0,0.6-0.1c0.1,0,0.2-0.1,0.2-0.1c0.1-0.1,0.1-0.1,0.1-0.2C162.5,74.8,162.5,74.7,162.5,74.7z"></path>	<path class="st2" d="M89.1,97.1C89.1,97.1,89.2,97.1,89.1,97.1c0-0.1,0-0.1,0-0.1c0,0,0-0.1,0-0.1c0,0,0,0,0-0.1c0,0,0-0.1,0-0.1   c0,0,0,0,0,0c0,0,0,0-0.1,0c0,0,0,0-0.1,0c0,0,0,0-0.1,0c0,0,0,0-0.1,0c0,0,0,0,0,0c0,0,0,0.1,0,0.1c0,0,0,0,0,0.1c0,0,0,0.1,0,0.1   c0,0,0,0,0,0.1c-0.3,0.3-0.3,0.6-0.4,1c-0.1,0.5-0.2,1-0.2,1.6c-0.2,1-0.3,2-0.4,3c-0.1,1-0.3,2-0.5,3c-0.1,0.5-0.1,1-0.1,1.6   c0,0.4-0.1,0.9-0.1,1.3c0,0,0.1,0.1,0.1,0c0.5-0.7,0.7-1.8,0.9-2.6c0.2-1,0.3-2,0.5-3c0.1-1,0.3-2,0.4-3c0.1-0.5,0.1-1.1,0.2-1.6   C89.3,97.9,89.3,97.5,89.1,97.1z"></path>	<path class="st2" d="M103.3,91.5c-0.1-0.3-0.2-0.6-0.4-0.8c-0.2-0.2-0.3-0.4-0.5-0.6c-0.2-0.2-0.3-0.4-0.5-0.6   c-0.1-0.1-0.2-0.2-0.3-0.3c0,0-0.1-0.1-0.2-0.1c-0.1-0.1-0.2-0.1-0.3-0.1c-0.2-0.1-0.4,0.1-0.4,0.3c0,0.1,0,0.2,0,0.3   c0,0.1,0,0.1,0.1,0.2c0.1,0.1,0.2,0.3,0.2,0.4c0.1,0.2,0.3,0.5,0.4,0.7c0.2,0.2,0.3,0.5,0.5,0.7c0.2,0.2,0.4,0.4,0.6,0.6   c0.1,0.1,0.4,0.1,0.5,0C103.3,91.9,103.4,91.7,103.3,91.5z"></path>	<path class="st2" d="M165.1,75.2c-0.4-0.4-0.9-0.6-1.3-0.5c0,0,0,0,0,0c0,0,0,0,0,0c0,0,0-0.1,0-0.1c0,0,0,0,0,0   c0.3,0.1,0.7,0.2,1,0.2c0.2,0,0.3-0.3,0.1-0.4c-0.6-0.4-1.4-0.6-2.1-0.8c-0.7-0.2-1.4-0.3-2.1-0.6c-0.7-0.2-1.4-0.4-2.1-0.6   c-0.4-0.1-0.7-0.1-1.1-0.2c-0.3,0-0.6-0.1-0.9,0c-0.1,0-0.2,0-0.3-0.1c-0.1,0-0.2,0-0.4,0c0,0,0,0-0.1,0c-0.1,0-0.1-0.1-0.2-0.1   c-0.1-0.1-0.2-0.1-0.3-0.1c-0.1,0-0.3-0.1-0.4-0.1c-0.1,0-0.2,0-0.4,0c-0.1,0-0.2,0-0.2,0.1c-0.3-0.1-0.5-0.1-0.8-0.2   c-0.2,0-0.3-0.1-0.5-0.1c-0.1,0-0.2,0-0.2,0c0,0-0.1,0-0.1,0c-0.1,0-0.1,0-0.1,0c-0.1,0-0.1,0.1,0,0.1c0,0,0.1,0.1,0.1,0.1   c0,0,0.1,0,0.1,0.1c0.1,0,0.2,0.1,0.2,0.1c0.2,0,0.3,0,0.5,0c0.3,0,0.5,0,0.8,0.1c0,0.1,0.1,0.1,0.1,0.2l0.3,0.2   c0.1,0.1,0.3,0.1,0.4,0.1c0.1,0,0.2,0.1,0.4,0.1l0.2,0c0.1,0,0.1,0,0.2,0c0.1,0,0.1,0.1,0.2,0.1c0.3,0.1,0.7,0.2,1,0.3   c0.2,0,0.3,0.1,0.5,0.1c0.1,0,0.1,0,0.2,0c0.1,0,0.2,0,0.3,0.1c0.7,0.2,1.5,0.3,2.2,0.4c0.8,0.1,1.5,0.3,2.2,0.6   c0.1,0,0.2,0.1,0.3,0.1c-0.1,0-0.3,0-0.4,0c0,0,0,0.1,0,0.1c0,0,0,0.1,0,0.1c0,0,0,0.1,0,0.1c0,0,0.1,0.1,0.1,0.1c0,0,0,0,0,0.1   c0,0,0,0,0,0c0,0,0.1,0.1,0.1,0.1c0,0,0,0,0,0l0,0c0,0,0,0,0.1,0l0.1,0.1c0,0,0,0,0,0c0,0,0,0,0.1,0c0,0,0.1,0,0.1,0c0,0,0,0,0,0   c0.7,0.1,1.4,0.5,1.7,1.2c0.3,0.8,0.1,1.8-0.1,2.6c-0.1,0.3-0.2,0.6-0.2,1c-0.1,0.1-0.1,0.2-0.2,0.2c-0.1,0.2-0.3,0.3-0.4,0.5   c-0.1,0.2-0.2,0.4-0.4,0.5c-0.2,0.1-0.3,0.3-0.5,0.4c-0.2,0.1-0.3,0.3-0.5,0.4c-0.2,0.1-0.4,0.2-0.6,0.3c-0.4,0.2-0.9,0.3-1.3,0.4   c-0.2,0.1-0.1,0.3,0,0.3c0.5-0.1,0.9-0.2,1.3-0.4c0.2-0.1,0.4-0.2,0.6-0.3c0.2-0.1,0.4-0.2,0.6-0.3c0.2-0.1,0.4-0.2,0.5-0.4   c0.2-0.1,0.4-0.2,0.6-0.4c0.2-0.1,0.3-0.3,0.4-0.4c0.2,0,0.5,0,0.7,0c0-0.1,0-0.1,0.1-0.2c0.3-1,0.6-2.1,0.6-3.1   C166.2,76.7,165.8,75.8,165.1,75.2z"></path>	<path class="st3" d="M152.8,71.9C152.8,71.9,152.8,71.9,152.8,71.9"></path>	<path class="st2" d="M141.9,123c0-0.2,0-0.5,0-0.7c0-0.2-0.1-0.4-0.2-0.7c0-0.1-0.1-0.2-0.2-0.3c0.1-1.8,0.1-3.5,0.1-5.3   c0-2.3-0.1-4.6-0.8-6.8c-0.7-2.2-1.8-4.2-2.9-6.2c-1.3-2.3-2.6-4.5-4.1-6.7c-1.5-2.1-2.8-4.6-4.7-6.3c-0.1-0.1-0.2,0-0.2,0.1   c0.8,1.7,2,3.2,3,4.7c1.1,1.8,2.2,3.7,3.2,5.5c1.9,3.4,4.2,7,4.7,11c0.5,4-0.1,8.2-0.1,12.2c0,1.9-0.2,3.5-2.2,4.1   c-2,0.5-3.6-1.7-4.4-3.2c-0.9-1.9-1.8-3.7-2.5-5.7c-0.8-2.2-1.1-4.4-1.3-6.7c0.1-0.1,0.1-0.1,0.2-0.2c0.4-0.4,0.8-0.8,1.2-1.1   c0.4-0.4,0.9-0.8,1.3-1.1c0.2-0.2,0.5-0.3,0.7-0.4c0.3-0.1,0.6-0.3,0.8-0.5c0.2-0.2,0.1-0.6-0.2-0.6c-0.3,0-0.6,0.2-0.9,0.3   c-0.3,0.1-0.5,0.2-0.8,0.3c-0.6,0.3-1.2,0.5-1.7,0.9c-0.5,0.4-0.9,0.8-1.3,1.2c0,0-0.1,0.1-0.1,0.1c-0.1-0.1-0.3-0.1-0.5-0.1   c-0.4,0-0.8,0-1.1-0.4c-0.2-0.2-0.4-0.5-0.6-0.7c-1-1.2-1.9-2.4-2.9-3.6c-0.5-0.6-0.9-1.2-1.4-1.7c-0.5-0.5-1-1-0.8-1.8   c0.1-0.7,0.4-1.4,0.6-2.1c0.2-0.6,0.6-1.2,0.3-1.9c-0.1-0.2-0.3-0.2-0.5-0.1c-0.6,0.4-0.7,1.3-0.9,1.9c-0.2,0.6-0.5,1.4-0.4,2.1   c0.1,0.6,0.5,1.2,0.8,1.8c0.3,0.6,0.8,1.2,1.2,1.8c1,1.3,2.1,2.6,3.1,3.8c0.4,0.5,0.7,0.8,1.3,1.1c0.2,0.1,0.5,0.2,0.7,0.2   c0.2,0,0.5,0,0.7,0c-0.3,0.4-0.7,0.8-0.7,1.3c0,0.3,0.2,0.5,0.5,0.5c0.2,2,0.7,4.1,1.3,6c0.6,2,1.3,4.1,2.5,5.8   c1,1.4,2.1,2.8,3.8,3.3c1.4,0.4,2.9,0.8,4.2-0.2c0.4-0.3,0.7-0.7,0.9-1.1c0,0,0,0,0,0.1c0.1,0.1,0.3,0.1,0.4-0.1   c0.1-0.3,0.1-0.5,0.1-0.8c0.4-0.6,0.5-1.3,0.6-2C141.9,123.8,141.9,123.4,141.9,123z"></path>	<path class="st2" d="M126.2,120c-1.1-1.3-2.4-2.4-3.9-3.2c0.4-0.7,0.2-1.7-0.2-2.4c-0.2-0.4-0.4-0.8-0.5-1.3c0-0.4,0-0.9,0-1.3   c0-0.9,0-1.8-0.1-2.7c-0.1-0.8-0.4-1.6-0.7-2.3c-0.3-0.7-0.7-1.4-1.2-2c-0.6-0.6-1.3-0.9-2.1-1.4c-0.4-0.2-0.6-0.5-1-0.7   c-0.5-0.2-1-0.4-1.5-0.5c-0.2-0.1-0.4-0.1-0.6-0.2c0,0,0,0,0.1,0c0.3-0.1,0.7-0.1,1-0.2c0.4-0.1,0.8-0.3,1.2-0.4   c0.3-0.2,0.6-0.4,0.8-0.6c0,0,0,0.1,0,0.1c0.1,0.2,0.2,0.3,0.3,0.4c0.1,0.1,0.2,0.1,0.3,0.2c0.1,0,0.2,0.1,0.2,0.1   c0.1,0,0.2,0,0.3,0.1c0,0,0.1,0,0.1,0c0.1,0,0.1,0,0.2,0c0,0,0,0,0,0l0,0c0,0,0.1,0,0.1,0c0,0,0,0,0,0c0.2,0.1,0.5,0,0.7-0.2   c0,0,0.1,0,0.1,0.1c0.1,0,0.2-0.1,0.1-0.2c0,0-0.1,0-0.1,0c0-0.1,0-0.3,0-0.4c0-0.1-0.1-0.3-0.2-0.4c-0.1-0.1-0.1-0.1-0.2-0.2   c-0.1-0.1-0.2-0.1-0.2-0.2c-0.1-0.1-0.2-0.1-0.3-0.1c0,0,0,0,0,0c0,0,0,0,0,0c0,0,0,0,0-0.1c0-0.1,0-0.1-0.1-0.2   c0.4-0.3,0.7-0.6,1-0.9c0.6-0.6,1-1.4,1.4-2.2c0-0.1-0.1-0.2-0.2-0.1c-0.7,1.1-1.6,2.1-2.7,2.8c-0.2,0-0.4,0-0.6,0.1   c0,0-0.1,0.1-0.1,0.1c0,0,0,0,0,0c0,0,0,0,0,0c0,0-0.1,0.1-0.1,0.1c0,0,0,0.1,0,0.1c-0.4,0.2-0.8,0.2-1.1,0.3   c-0.4,0.1-0.7,0.3-1.1,0.4c-0.2,0.1-0.4,0.1-0.6,0.1c0,0-0.1,0-0.1,0c-0.7,0.2-1.5,0.2-2.2,0.1c-0.4-0.1-0.8-0.2-1.2-0.2   c-0.3,0-0.4,0-0.7,0c-0.2-0.1-0.4-0.1-0.6-0.2c-0.9-0.3-1.6-0.7-2.4-1.2c-0.4-0.2-0.7-0.5-1.1-0.8c-0.3-0.3-0.6-0.5-1.1-0.6   c-0.2,0-0.3,0.1-0.4,0.2c0,0-0.1,0-0.1,0c0,0,0,0,0,0c0,0,0,0,0,0c-0.2,0.1-0.4,0.1-0.6,0.1c-0.2,0-0.4,0-0.6,0.1   c-0.1,0-0.3,0-0.4,0.1c-0.1,0.1-0.2,0.1-0.3,0.2c0-0.9,0-1.8,0.2-2.7c0.2-1.1,0.7-2.1,0.9-3.2l0,0c0.1,0,0.1,0,0.1-0.1c0,0,0,0,0,0   c0.1,0,0.1-0.1,0.1-0.2c0,0,0-0.1,0-0.1c0,0,0-0.1-0.1-0.1c0,0,0,0,0,0c0,0-0.1-0.1-0.1-0.1c-0.1,0-0.2,0-0.3,0   c-0.1,0-0.1,0-0.2,0.1c0,0-0.1,0.1-0.1,0.1c0,0,0,0.1,0,0.1c0,0,0,0.1,0,0.1c0,0,0,0.1,0.1,0.1c0,0,0.1,0,0.1,0.1c0,0,0,0,0,0   c-0.9,1.3-1.1,3.3-1.2,4.7c-0.1,1.1,0.1,2.3-0.2,3.4c-0.2,1.1-0.9,2.1-1.5,3.1c-1.1,1.7-2.3,3.3-3.6,4.8c-0.6,0.8-1.3,1.6-2,2.3   c-0.6,0.6-1.4,1-2,1.7c-2-0.3-4-0.7-6-1.2c0-0.1,0-0.3,0-0.4c0-0.1,0-0.3,0-0.4c0-0.1,0-0.3,0.1-0.4c0.1-0.3,0.1-0.5,0.2-0.8   c0.1-0.3,0.2-0.5,0.3-0.8c0,0,0,0,0,0c-0.3,0.5-0.6,1-0.7,1.6c-0.1,0.4-0.2,0.7-0.3,1.1c-0.3-0.1-0.7-0.2-1-0.3   c-0.1-0.1-0.2-0.2-0.3-0.2c-0.3-0.2-0.6-0.4-0.8-0.6c-0.3-0.2-0.5-0.5-0.7-0.8c-0.2-0.3-0.4-0.5-0.6-0.7c-0.2-0.3-0.5-0.5-0.7-0.7   c-0.2-0.2-0.5-0.5-0.7-0.8c-0.1-0.1-0.2-0.3-0.2-0.4c-0.1-0.2-0.2-0.2-0.4-0.3c-0.2-0.1-0.5,0.1-0.4,0.3c0.1,0.2,0.1,0.3,0.2,0.4   c0.1,0.1,0.2,0.2,0.4,0.3c0.3,0.2,0.5,0.5,0.7,0.7c0.2,0.3,0.4,0.5,0.7,0.8c0.3,0.2,0.5,0.5,0.8,0.7c0.3,0.2,0.5,0.4,0.8,0.6   c0.2,0.2,0.4,0.4,0.6,0.6c-0.2,0.1-0.3,0.5,0,0.7c3.8,1.8,8.2,2.3,12.4,2.5c4.4,0.1,8.8-0.1,13.2,0.4c4.3,0.4,8.8,1.1,12.5,3.5   c0.2,0.1,0.4,0.3,0.6,0.4c-0.4-0.1-0.9-0.1-1.3-0.1c-1-0.1-2.2-0.2-3.1,0.1c-0.3,0.1-0.2,0.5,0,0.6c-0.3,0.4-0.6,0.8-1,1.1   c-0.3,0.3-0.6,0.7-0.8,1c-0.5,0.8-0.9,1.7-1.4,2.6c-0.4,0.8-0.6,1.8-0.6,2.7c0,0.8,0,2.1,0.7,2.6c0.2,0.1,0.6,0.1,0.7-0.2   c0.2-0.8-0.2-1.6-0.2-2.4c0-0.9,0.2-1.7,0.3-2.5c0.2-0.9,0.7-1.8,1.1-2.5c0.2-0.3,0.4-0.7,0.5-1c0.2-0.5,0.4-0.9,0.7-1.3   c0,0,0,0,0,0c0.5,0.1,1,0.1,1.6,0c0.5,0,1,0,1.5,0c0.8,0,1.6,0.1,2.4,0.2c1,0.9,1.9,2.1,2.3,3.4c0.6,2.1,0.1,4.2-1.4,5.7   c-0.4,0.4-0.8,0.7-1.3,1c0,0,0,0,0,0c-0.3-0.1-0.6-0.1-0.9-0.2c-0.3,0-0.7,0-1,0c-0.6,0-1.2,0-1.9,0c-0.6,0-1.3,0.1-1.9,0   c-0.3,0-0.7,0-1,0c-0.3,0-0.6,0-0.8,0.1c-0.1,0-0.1,0.1-0.1,0.2c0,0,0,0,0,0c0,0,0,0.1,0,0.1c0,0,0,0,0.1,0c0,0,0,0.1,0,0.1   c0,0,0,0,0,0c0,0.1,0.1,0.1,0.1,0.2c0,0,0.1,0,0.1,0.1c0,0,0,0,0,0c0,0,0,0,0,0c0,0,0,0,0.1,0c0,0,0.1,0,0.1,0c0.1,0,0.1,0,0.2,0   c0,0,0,0,0,0c0,0,0,0,0,0c0.1,0,0.1,0,0.2,0c0.1,0,0.1-0.1,0.2-0.1c0,0,0.1-0.1,0.1-0.2c0,0,0,0,0,0c0.2,0,0.4,0.1,0.6,0.1   c0.6,0.1,1.3,0.2,1.9,0.2c0.6,0.1,1.3,0.1,1.9,0.1c0,0,0.1,0,0.1,0c-3.3,1.2-7.3,0.8-10.6,0.6c-5-0.3-10-0.9-15-1.1   c-4.8-0.2-9.5,0.4-14.1,1.7c-4.7,1.4-9.4,3-14.2,3.9c-2.7,0.5-5.4,0.8-8.2,0.9c-2.8,0.1-5.7,0.1-8.5-0.3c-2.8-0.5-5.6-0.9-8.3-1.5   c-2.3-0.6-4.6-1.2-6.9-0.1c-0.7,0.4-0.2,1.4,0.5,1.2c2.5-0.8,5.4,0.4,7.8,0.9c1.8,0.4,3.6,0.7,5.4,0.9c-1.8,0.7-3.7,1.1-5.6,1.3   c-2.4,0.3-4.7,0.1-7.1,0.2c-1.9,0.1-3.5,1.1-5.1,2.1c-1.8,1.2-3.6,2.5-5.2,3.9c-3.3,2.9-6.3,6-9.3,9.2c-3.3,3.5-6.7,6.9-10.1,10.3   c-3.8,3.8-8,7.3-11.3,11.5c-0.4,0.5,0.3,1.1,0.8,0.7c3.9-2.7,7.2-6.2,10.6-9.6c3.4-3.3,6.7-6.8,10-10.2c2.9-3.1,5.8-6.3,8.9-9.2   c3.1-2.9,6.5-6,10.4-7.8c1.5-0.7,3-0.4,4.5-0.1c1.1,0.2,2.1,0.3,3.2,0.3c2.4-0.1,4.8-0.8,7-1.8c0.3-0.1,0.4-0.4,0.4-0.6   c0.1,0,0.1,0,0.2,0c5.1,0.4,10.1,0.3,15.2-0.3c5.1-0.7,10-2.3,15-3.7c4.6-1.4,9.3-2.2,14.1-2.1c-0.2,0.4-0.4,0.8-0.5,1.1   c-0.3,0.7-0.4,1.5-0.5,2.3c-0.1,1.6,0.1,3.2,0.9,4.5c0.7,1.2,1.8,2.2,3.2,2.8c0.7,0.3,1.4,0.3,2.1,0.3c0.3,0,0.7,0,1.1-0.2   c0.2-0.1,0.5-0.3,0.6-0.5c0.1-0.2,0.1-0.4,0.2-0.6c0.2-0.3-0.1-0.6-0.4-0.7c0,0,0,0,0,0c0,0,0,0,0,0c0,0,0,0,0-0.1   c0.2-0.3,0.4-0.7,0.6-1c0.5-0.8,0.9-1.5,1.4-2.3c0.9-1.4,1.8-2.9,2.7-4.3c0.1-0.2,0.1-0.4,0.1-0.5c0.5,0,1.1,0.1,1.6,0.1   c-1.5,2.6-2,5.5-1.1,8.4c0.4,1.5,1.1,2.8,2.1,3.9c0.9,1,2.4,2.2,3.8,1.8c0.4-0.1,0.7-0.3,0.7-0.8c0.2-0.2,0.4-0.5,0.5-0.7   c0-0.1,0.1-0.2,0.1-0.2c0.1,0.1,0.2,0.1,0.3,0c0.3-0.2,0.5-0.3,0.7-0.6c0.2-0.3,0.4-0.7,0.6-1.1c0.3-0.7,0.7-1.5,1-2.2   c0.3-0.7,0.6-1.5,0.8-2.3c0.1-0.4,0.2-0.8,0.3-1.2c0-0.4-0.1-0.8-0.1-1.2c0-0.1,0-0.1-0.1-0.2c0.2-0.1,0.3-0.2,0.5-0.3   c0.6-0.3,1.1-0.7,1.5-1.3c0.3-0.4,0.9-1.3,0.6-1.8c0-0.1-0.1-0.3-0.1-0.4c0-0.1-0.1-0.1-0.1-0.1c0-0.1,0-0.1,0-0.2   c1.8-0.5,3.4-1.3,4.7-2.6C128.9,126.7,128.6,122.9,126.2,120z M120.9,116.1c-1.7-0.8-3.5-1.3-5.2-1.7c-5-1.2-10.2-0.8-15.3-0.9   c-2.1,0-4.2-0.2-6.3-0.4c0.3-0.3,0.7-0.6,1-0.8c0.5-0.4,0.9-0.8,1.3-1.3c0,0.1,0,0.2,0.1,0.2c0.3,0.5,0.8,0.8,1.3,1   c0.5,0.2,1.1,0.4,1.7,0.5c0.1,0,0.3,0.1,0.4,0.1c0.2,0.1,0.4,0.1,0.6,0.1c0.1,0,0.3,0,0.4,0c0.2,0,0.3,0,0.5,0   c0.3,0,0.3-0.4,0.1-0.6c-0.2-0.2-0.4-0.3-0.6-0.4c0,0,0,0,0,0c0,0,0,0,0,0c-0.1-0.1-0.1-0.1-0.2-0.2c-0.1-0.1-0.3-0.1-0.4-0.2   c-0.5-0.2-1-0.3-1.4-0.5c-0.2-0.1-0.4-0.1-0.6-0.2c-0.1,0-0.2-0.1-0.3-0.1c0,0-0.1,0-0.1-0.1c0,0,0,0,0,0c0,0,0,0,0,0   c-0.2-0.1-0.2-0.2-0.3-0.3c0,0-0.1-0.1-0.1-0.1c0,0,0,0,0,0c0-0.1,0-0.1,0-0.2c1.4-1.6,2.3-3.5,3.4-5.3c0.9-1.5,1.6-2.8,1.8-4.5   c0.1,0.4,0.3,0.8,0.4,1.1c0.1,0.2,0.1,0.4,0.3,0.6c0.1,0.2,0.2,0.4,0.4,0.7c0.1,0.2,0.4,0.1,0.4-0.1c-0.1-0.2-0.1-0.5-0.2-0.7   c-0.1-0.2-0.2-0.5-0.3-0.7c-0.2-0.5-0.4-0.9-0.6-1.4c-0.1-0.1-0.2-0.2-0.4-0.1c0,0,0,0,0,0c0-0.1,0-0.2,0-0.3c0,0,0.1,0.1,0.1,0.1   c0.1,0.1,0.2,0.1,0.3,0.1c0.1,0,0.2,0.1,0.4,0c0.1,0,0.1,0,0.2,0c0.3,0,0.5-0.1,0.7-0.2c0.3-0.1,0.5-0.3,0.8-0.4   c0.2,0.2,0.4,0.3,0.7,0.4c0.5,0.2,0.9,0.5,1.4,0.7c0.9,0.5,1.8,0.8,2.7,1.2c0.2,0.1,0.5,0.2,0.7,0.3c0.2,0.2,0.4,0.3,0.6,0.4   c0.4,0.1,0.8,0.2,1.2,0.3c0.5,0.5,1.4,0.4,2.1,0.7c0.8,0.3,1.5,0.7,2.3,1c1.6,0.5,2.7,2,3.2,3.6c0.2,0.7,0.1,1.5,0.2,2.2   c0,0.8,0,1.5,0,2.3c0,0.8,0,1.6,0.2,2.3c0.1,0.4,0.4,0.7,0.5,1.1C120.9,115.6,120.9,115.8,120.9,116.1z M103.6,136.3   c-0.4,0.7-0.9,1.5-1.4,2.2c0,0.1-0.1,0.1-0.1,0.2c0,0,0-0.1,0-0.1c0-0.2-0.1-0.4-0.3-0.5c0,0,0,0-0.1-0.1c0.2-0.2,0.3-0.4,0.4-0.6   c0.2-0.3,0.4-0.6,0.6-0.9c0.2-0.3,0.4-0.6,0.6-0.9c0.1-0.1,0.2-0.3,0.3-0.4c0,0,0,0,0,0c0,0.2,0,0.4,0.1,0.5c0,0,0,0.1,0.1,0.1   C103.9,135.9,103.7,136.1,103.6,136.3z M105.1,134c-0.1,0-0.2,0-0.3,0c-0.2,0-0.2,0.3,0,0.3c0,0,0.1,0,0.1,0c0,0,0,0,0,0   c-0.2,0.4-0.5,0.8-0.7,1.2c0,0,0,0-0.1-0.1c-0.1-0.1-0.1-0.3-0.1-0.4c0-0.2,0.1-0.3,0.2-0.5c0.1-0.1,0.2-0.2,0.3-0.3   c0,0,0.1,0,0.1,0c0,0,0.1,0,0-0.1c0-0.1-0.1-0.2-0.1-0.1c-0.2,0.1-0.3,0.2-0.5,0.4c-0.1,0-0.1-0.1-0.2,0c-0.2,0.1-0.3,0.1-0.5,0.2   c-0.2,0.1-0.4,0.2-0.5,0.4c-0.3,0.3-0.6,0.5-0.9,0.8c-0.2,0.3-0.4,0.6-0.6,0.9c-0.1,0.2-0.2,0.4-0.3,0.6c-0.1,0.2-0.1,0.4-0.1,0.6   c0,0,0,0,0,0c0,0.1-0.1,0.2-0.1,0.3c0,0.1,0.1,0.3,0.2,0.3c0,0,0.1,0.1,0.1,0.1c0,0,0.1,0.1,0.1,0.1c0,0.1,0.1,0.1,0.1,0.2   c0,0,0,0,0,0c0,0,0-0.1-0.1-0.1c0,0.1,0.1,0.1,0.1,0.2c0,0.1,0,0.2,0.1,0.2c0,0.1,0.1,0.1,0.2,0.1c0.1,0,0.1,0,0.2,0   c-0.1,0.1-0.1,0.2-0.2,0.3c-0.2,0.2-0.3,0.5-0.4,0.7c-0.5,0-0.9-0.1-1.3-0.2c-1-0.3-1.9-0.9-2.4-1.8c-0.6-1.1-0.8-2.4-0.7-3.6   c0-0.6,0.2-1.3,0.3-1.9c0.1-0.3,0.2-0.6,0.3-0.9c0.1-0.2,0.2-0.4,0.2-0.6c0,0,0.1,0,0.1,0c2.9,0.2,5.8,0.5,8.6,0.8   C105.9,132.7,105.5,133.3,105.1,134z M121.1,132.6c-0.4,0.1-0.5,0.4-0.7,0.7c-0.2,0.3-0.3,0.6-0.5,0.8c-0.4,0.4-0.8,0.7-1.3,0.9   c-0.5,0.2-1,0.5-1.5,0.8c-0.1,0.1-0.2,0.2-0.4,0.4c0,0,0,0,0,0c-0.1,0.1-0.1,0.1-0.2,0.2c-0.1,0.1-0.1,0.2-0.1,0.3   c0,0.1-0.1,0.2-0.2,0.4c-0.1,0.3-0.2,0.5-0.4,0.8c-0.1,0.3-0.2,0.5-0.4,0.8c-0.1,0.3-0.2,0.5-0.2,0.8c0,0.2,0.2,0.3,0.3,0.2   c0.2-0.2,0.4-0.4,0.5-0.6c0.1-0.2,0.3-0.5,0.4-0.7c0.1-0.2,0.2-0.3,0.3-0.5c0.1,0,0.2,0,0.3,0c0.2-0.1,0.3-0.2,0.4-0.4   c0.1-0.2,0-0.1,0.1-0.2c0.1-0.1,0.1-0.1,0.2-0.2c0.1-0.1,0.2-0.1,0.3-0.2c0.2-0.1,0.4-0.2,0.6-0.3c-0.1,0.2-0.3,0.3-0.4,0.5   c-0.1,0.1-0.2,0.3-0.3,0.5c-0.2,0.3-0.3,0.7-0.4,1c-0.3,0.7-0.5,1.5-0.8,2.2c-0.3,0.6-0.5,1.3-0.8,1.9c0-0.2,0-0.4-0.1-0.6   c-0.1-0.3-0.1-0.6-0.3-0.9c-0.1-0.1-0.2-0.3-0.3-0.5c-0.1-0.1-0.3-0.2-0.5-0.3c-0.3-0.1-0.6,0.1-0.6,0.4c0,0.1,0,0.3,0,0.4   c0,0.1,0.1,0.2,0.1,0.3c0,0,0,0,0,0c0,0,0,0,0,0.1c0,0.2,0.1,0.3,0.1,0.5c0,0,0,0,0,0c0,0,0,0,0,0c0,0.1,0,0.1,0,0.2   c0.1,0.5,0.1,0.8,0,1.3c-0.1,0.4-0.2,0.8-0.4,1.2c-0.1,0.1-0.2,0.3-0.2,0.4c-0.1,0-0.2-0.1-0.3-0.1c-0.6-0.1-1.2-0.3-1.7-0.6   c-1.1-0.7-1.8-2-2.3-3.2c-1-2.6-0.6-5.8,0.7-8.2c0.1-0.1,0.1-0.2,0.1-0.3c1.1,0.1,2.1,0.1,3.2,0.2c2.5,0.1,5.2,0.1,7.6-0.5   c-0.1,0.2-0.2,0.3-0.3,0.5C121,132.6,121.1,132.6,121.1,132.6z"></path>	<path class="st2" d="M112.5,110c-0.5,0.1-1,0.4-1.4,0.7c-0.2,0.2-0.4,0.4-0.6,0.6c-0.1,0.1-0.2,0.3-0.2,0.4   c-0.1,0.2-0.1,0.3-0.1,0.5c0,0.2,0.3,0.4,0.5,0.3c0.1-0.1,0.2-0.1,0.3-0.2c0.1-0.1,0.2-0.2,0.3-0.3c0.1-0.2,0.3-0.4,0.4-0.5   c0.1-0.1,0.1-0.2,0.2-0.3c0,0,0,0,0.1-0.1c0,0,0,0.1,0,0c0,0,0.1-0.1,0.1-0.1c0.2-0.2,0.3-0.3,0.5-0.5   C112.9,110.3,112.8,109.9,112.5,110z"></path>	<path class="st2" d="M98.8,110.7c0,0,0-0.1,0-0.1c0-0.1,0-0.1,0-0.2c0,0,0,0,0,0c0,0.1,0,0.1,0,0.2   C98.7,110.6,98.7,110.6,98.8,110.7l-0.1,0.1c0,0,0,0,0,0.1c0,0.1,0.1,0,0.1,0C98.8,110.8,98.8,110.7,98.8,110.7L98.8,110.7z"></path></g></svg>