<?xml version="1.0" encoding="UTF-8"?>
<svg id="Calque_1" data-name="Calque 1" xmlns="http://www.w3.org/2000/svg" viewBox="0 0 304 187.1">
  <defs>
    <style>
      .cls-1 {
        fill: #fff;
      }

      .cls-2 {
        fill: #004661;
      }

      .cls-3 {
        fill: #e84f2d;
      }
    </style>
  </defs>
  <g id="Calque_7" data-name="Calque 7">
    <path class="cls-1" d="M313.4,7.4c.4-1.7-.2-3.2-1.4-4.2.1-.7.2-1.4,0-2.1.3-.3.5-.6.8-.9,2.8-2.8.2-8.1-3.8-6.2-.6.3-1.2.7-1.8,1.1-1.6-1.3-4.1-1.6-5.8.6-.2.3-.5.6-.7.9-1.4-.5-3-.2-4.2,1.2-1.5-1.1-3.7-1.2-5.3.9-.3.4-.6.9-1,1.3-1.2-2.8-6-3.6-8.1-.4-1.5-1.7-4.3-2.3-6-.6-.2.2-.5.5-.7.7-1.1-1.4-3-2-4.6-.4-4.7,4.7-8.4,10.1-11.7,15.8-1.9,3.3,1,7.7,4.9,6,.3-.2.6-.3,1-.4.7.4,1.5.7,2.5.6-3.4,5-6.4,10.5-8.6,16.1-1.2-.4-2.5-.1-3.7.7-1.8,1.2-3.7,2.9-5,4.9-.6-.7-1.4-1.2-2.4-1.5-3.1-1.1-6.5.5-9.5,1.4-3.6,1.1-7.3,2.4-10.3,4.8-.8.6-1.2,1.4-1.3,2.2h-.3c-4.6.3-8.4,5.4-11.5,8.4-1.6,1.5-3.2,3-4.7,4.6-.6.7-1.2,1.4-1.7,2.2-.1.1-.2.5-.4,1-.7.3-1.2.9-1.5,1.8-.2.8-.4,1.5-.5,2.3-.3,2.9,2.6,5,5.3,3.9,1.1-.5,1.9-1.2,2.4-2,1.1.3,2.4,0,3.4-.7.7-.5,1.4-1,2.1-1.5.5-.4.9-.8,1.1-1.3.8-.6,1.7-1.2,2.5-1.7,1.8-1.1,2.9-3.1,2-5.1.9-.8,1.8-1.5,2.8-1.7s2-.8,2.6-1.6c.8.4,1.8.5,2.7.3.3.1.5.2.6.2.4.1.8.1,1.2.1.7,0,1.5-.2,2.1-.5.1-.1.4-.1.5-.2l.1-.1c.6-.2,1.1-.5,1.6-.8.6.3,1.3.4,2,.5-.7.4-1.3,1-1.5,1.7-.1.4-.3.8-.4,1.2-.7.1-1.4.3-1.9.7-.7.6-1.3,1.4-1.3,2.4v.7c0,.3,0,.6.1.9.1.2.1.4.2.5q0,.1.1.2c-1.2,2.6-1.8,5.4-2.5,8.1-.1,0-.1.1-.2.1-1.8,1.9-3,4.3-4.1,6.7-.7,1.5-1.7,3.4-1.9,5.2-.8,1.8-1.5,3.6-2.2,5.2-.2.5-.4.9-.6,1.4-4,4.4-6.3,10.6-8.5,16-.9,2.2-2,4.6-2.5,6.9-.8.7-1.5,1.5-2.1,2.3-.9,1.2-2.1,2.7-3.1,4.3-1-.4-2.1-.7-3.3-.5-.2,0-.4-.1-.7-.1-1-.4-2.2-.4-3.2-.5-1.6-.1-3.5-.1-4.4,1.4-.6,1.1-.8,2.6.1,3.7.7.8,2,1.3,3,1h.3c.4.1.8.1,1.2.2.6.1,1.3.1,1.9.1.6.2,1.2.4,1.8.5.3.1.6.1.9.2.1,0,.2.1.3.1,0,.2,0,.3.1.5,0,.1.1.2.1.3-1.3.1-2.7.5-3.9.7-1.7.3-3.7.5-5.3,1.4-2.3-.1-4.7.1-6.3,1-3.5,2-2.6,6.6.3,7.7-.3.2-.6.5-.9.7-1,.6-2,.9-2.8,1.9-1.3,1.8-1,4.6,1.1,5.7.5.3,1.1.5,1.7.5.3.1.5.1.8,0,.1,0,.2,0,.4-.1h.1c.2,0,.3-.1.5-.2.4-.1.8-.3,1.2-.6.6-.4,1.2-.7,1.8-1,1.8.1,3.7-.8,5.5-1.4,2.8-1,6-2,7.9-4.3.1-.1.2-.2.2-.4,2.4-1.1,5.1-2.1,7.1-3.9.2-.2.4-.4.5-.6,1.9-.8,3.7-1.7,5.5-2.6,1.7-.8,2.4-2.9,1.9-4.5.1,0,.2-.1.2-.1h0c.4,0,.8,0,1.3-.1.4-.1.9-.2,1.3-.3.8-.1,1.6-.4,2.3-.9.3-.3.6-.6.8-1h0c.3-.3.5-.7.6-1.1.5-.8.9-1.6.9-2.6v-.2c.7-.1,1.5-.4,1.9-.9,3.9-3.8,10.8-11,9.9-17.1,1.5,0,3.1-.8,4-2.5,4.9-9.9,9.8-19.8,14.6-29.7,3.9-8,8.8-17.1,9.5-26.2,1.2-2.4,2.1-5.1,3.7-6.9,1.8-2,4.5-2.8,6.3-4.8.7-.8,1.3-1.6,1.8-2.5.6-.3,1.2-.7,1.7-1.3.2-.3.5-.6.7-.9.1.6.2,1.3.5,1.9.1.2.3.6.6,1,0,.5.1,1.1.3,1.6,0,.1.1.1.1.2-.4.8-.7,1.7-1,2.6-1.9,3,3,8.3,6,4.1,2.4-3.4,4.1-7.4,6.2-11,.1-.1.1-.2.2-.3.7-.2,1.5-.7,2.1-1.4.2-.2.3-.4.5-.6,1-.1,2.1-.6,2.9-1.8,2.1-3.1,4.9-6.3,7-9.7.3-.3.5-.6.8-.9.5-.6.8-1.3.8-1.9.4-.8.8-1.6,1-2.5,1.2-1.8.8-3.2-.2-4.2ZM250.3,51.9c0-.6-.2-1.2-.5-1.7.2-.2.5-.4.7-.7.2.1.4.2.6.2-.3.7-.6,1.4-.8,2.2ZM270.3,12.2c.3-.4.5-.8.8-1.3.1.3.3.6.4.9-.3.2-.8.3-1.2.4Z"/>
    <polygon class="cls-1" points="166.9 41.5 132.3 152.5 133.5 155.3 168.4 159.9 191.6 104.1 205.7 53.1 216.6 17.1 217.5 11 208.1 8.1 166.9 41.5"/>
  </g>
  <g id="Calque_8" data-name="Calque 8">
    <g>
      <path class="cls-3" d="M153.5,122.5c1.8-9.8,4.4-19.4,8.4-31.1.6-.7,1.6-2.8,2.3-5.1.9-2.7,1.1-4.6.6-4.3-.6.3-1.7,2.7-2.6,5.3-.7,2.2-1,3.9-.8,4.2-4.2,12.3-6.9,22.3-8.8,32.5-.1.3,0,.4,0,.4,0,0,.1-.1.2-.3.3-.3.6-1.1.7-1.6"/>
      <path class="cls-3" d="M158.4,109.4c-.1,0-.3-.1-.4-.2.3-.4.5-.6.7-.8.1-.1.2-.4.3-.7.1-.3.1-.5,0-.4-.2.2-.5.5-.8,1,.3-1,.7-1.9,1-2.8.1-.3.2-.6.2-.7s-.1.1-.2.3c-.4.9-.7,1.9-1.1,2.9l.4-1.8c.1-.2,0-.3-.1-.1-.1.2-.2.5-.3.7l-.4,2c-.2-.1-.4-.2-.5-.2s-.2.2-.3.5-.1.5-.1.5c.1,0,.2.1.4.2-.2.4-.5.8-.8,1.4-.1.2-.2.5-.3.8v.2l.1-.1c.4-.8.8-1.5,1.1-2-.3.8-.6,1.6-.9,2.4-.1.3-.2.6-.1.6h0s.1-.2.2-.4c.2-.4.3-.8.5-1.3l-.4,2c0,.2,0,.3,0,.2l.1-.1c.1-.2.2-.5.3-.7l.6-2.7c.2.1.3.2.4.2h0c.1,0,.2-.2.3-.5.1-.2.2-.4.1-.4"/>
      <path class="cls-3" d="M163.1,101.7h-.5l.8-1.5c.1-.2.2-.6.3-.8,0-.2-.1-.2-.2.1l-.4.9c.1-.4.3-.8.4-1.1.1-.3.2-.6.1-.6,0,0-.2.2-.3.5-.2.5-.3,1-.5,1.5.1-.5.2-1,.3-1.6q0-.2-.1,0c-.1.2-.2.6-.3.8-.1.7-.2,1.3-.3,1.9h-.5c-.1,0-.2.2-.3.6-.1.3-.1.5-.1.5h.4l-.4.8c-.1.2-.2.6-.3.8v.1s.1-.1.1-.2l.5-1c-.2.6-.4,1.3-.6,1.9-.1.3-.1.5-.1.5h0c.1,0,.2-.3.3-.6.2-.6.4-1.3.6-1.9,0,.3-.1.5-.1.8,0,.1,0,.2,0,.1,0,0,.1-.1.1-.2.1-.2.2-.6.3-.8,0-.1,0-.3.1-.4h.3c.1,0,.2-.3.3-.6.1-.2.1-.5.1-.5"/>
      <path class="cls-3" d="M179.1,49.4q0-.2-.1,0l-.8,1.4.5-1.5c.1-.3.1-.5.1-.5,0,0-.2.2-.3.5l-.3.8c0-.2.1-.4.1-.6s0-.2-.1-.1c-.1.2-.2.5-.3.7-.1.3-.1.6-.2.9-.1,0-.2-.1-.3-.1,0,0-.1.2-.2.4-.1.3-.2.5-.1.5.1.1.2.1.3.2l-.8,1.5c-.1.2-.2.5-.2.7,0,.1,0,.2,0,.1,0,0,0-.1.1-.1l.7-1.2-.3.8c-.1.3-.1.5-.1.5h0c.1,0,.2-.2.2-.5l.4-1c-.1.4-.1.7-.2,1v.1s.1-.1.1-.2c.1-.2.2-.5.2-.7.1-.3.1-.7.2-1h.1c.1,0,.2-.2.2-.5.1-.3.1-.5.1-.5h-.1l.5-.9c.4-.2.5-.5.6-.7"/>
      <path class="cls-3" d="M170.8,69c-.1.8-.1,1.5-.2,2.1,0,.1,0,.2.1.1.1,0,.2-.2.3-.5.2-.5.4-1.1.4-1.4,0-.4.1-.9.1-1.5.2-.1.4-.1.6-.2h0c.1-.1.4-.5.5-1.1.2-.6.3-1,.2-1-.3.1-.5.2-.8.3.4-.8.8-1.4,1.1-1.8.2-.2.4-.8.6-1.4.2-.6.2-.8,0-.7-.4.4-.9,1.3-1.4,2.3l.9-2.7c.2-.6.3-1,.1-1-.1.1-.4.6-.6,1.2l-1,3c.1-.8.1-1.5.2-2,0-.3-.2-.1-.4.4s-.4,1.1-.4,1.4c0,.5-.1,1.1-.1,1.7-.2.2-.5.3-.7.5-.1.1-.4.6-.6,1.2-.2.6-.2.9-.1.8.2-.2.4-.3.7-.5-.5,1-.9,2.1-1.4,3-.2.5-.4,1.1-.4,1.4q0,.1.1.1c.1,0,.2-.3.4-.6.4-.9.8-1.8,1.2-2.7l-1.4,4c-.2.6-.3,1-.1,1h0c.1-.1.4-.6.5-1.1l1.6-4.3Z"/>
      <path class="cls-3" d="M169,79.2c-.1-.2-.2-.2-.4-.3l.7-1.4c.2-.3.3-.7.3-1,0-.2-.1-.2-.2.1l-.5.9c.1-.4.3-.8.4-1.2.1-.4.2-.7.1-.7s-.2.3-.4.7c-.2.5-.4,1.1-.6,1.6.1-.6.2-1.1.3-1.7q0-.3-.2,0c-.1.3-.3.7-.3,1-.1.6-.2,1.2-.3,1.8-.2.1-.4.3-.7.5-.1.1-.3.4-.4.8-.1.4-.1.6,0,.5.2-.2.4-.3.6-.4l-.6,1.3c-.1.3-.3.7-.3,1,0,.1,0,.2,0,.1,0,0,.1-.1.2-.3l.5-1.1c-.2.7-.5,1.4-.7,2.1-.1.4-.2.6-.1.6h0c.1,0,.3-.4.4-.8.2-.7.5-1.4.7-2.1,0,.3-.1.5-.1.8v.2s.1-.1.2-.2c.1-.3.3-.7.3-1,0-.2.1-.5.1-.7.1,0,.2.1.3.2h0c.1,0,.2-.3.3-.6.4-.2.4-.6.4-.7"/>
      <path class="cls-3" d="M165.5,71.6c-.1,0-.2-.1-.4-.3.3-.5.5-.9.8-1.4.1-.2.3-.6.4-.9.1-.3,0-.4-.1-.2-.4.6-.7,1.2-1,1.8.3-1,.7-2,1-3,.1-.4.2-.7.1-.7s-.2.3-.3.6c-.3.8-.6,1.7-.9,2.5.1-.6.2-1.2.4-1.9.1-.3,0-.3-.1-.1-.1.2-.3.7-.3.9-.1.7-.3,1.3-.4,1.9-.1-.1-.2-.3-.3-.4,0-.1-.2.2-.3.5-.1.4-.2.7-.2.8.1.2.2.4.4.5-.4.8-.8,1.7-1.2,2.6-.1.3-.3.7-.3.9v.1s.1-.1.2-.3c.4-.8.7-1.6,1.1-2.4-.1.4-.3.8-.4,1.2-.1.4-.3.8-.4,1.2-.1.3-.1.6-.1.5h0c.1-.1.2-.4.4-.8.1-.4.3-.8.4-1.2,0-.1.1-.3.1-.4-.1.6-.2,1.2-.3,1.9v.2s.1-.1.1-.2c.1-.3.3-.7.3-.9.1-.7.2-1.4.3-2,.2.1.3.2.4.3h0c.1,0,.2-.3.3-.6.3-.3.4-.7.3-.7"/>
      <path class="cls-3" d="M157.3,90.7h-.2l.5-1c.1-.2.2-.5.2-.6s0-.1-.1.1l-.3.6c.1-.2.2-.5.2-.7.1-.2.1-.4.1-.4,0,0-.1.2-.2.4-.1.3-.2.7-.3,1,.1-.4.1-.7.2-1.1q0-.2-.1,0c-.1.2-.2.4-.2.6-.1.4-.1.8-.2,1.1-.1,0-.2.1-.4.3-.1.1-.2.3-.2.5-.1.2-.1.4,0,.3.2-.2.3-.2.3-.2l-.4.8c-.1.2-.2.4-.2.6v.1s.1-.1.1-.2l.3-.7c-.1.4-.3.9-.4,1.3-.1.2-.1.4-.1.4h0s.1-.2.2-.5c.1-.4.3-.8.4-1.3,0,.2-.1.3-.1.5v.1l.1-.1c.1-.2.2-.4.2-.6v-.3h.1s.1-.2.2-.4c.3-.5.4-.7.3-.6"/>
      <path class="cls-3" d="M160.1,83.1c-.2.1-.3.3-.5.5.3-.7.6-1.4,1-2,.1-.2.2-.4.2-.6s0-.2-.1,0c-.3.5-.6,1.1-.9,1.8.2-.7.4-1.3.6-2v-.1c.1-.2.1-.4,0-.3s-.2.3-.2.5v.1c-.2.7-.4,1.4-.6,2.1v-.5c0-.1-.1,0-.2.2-.1.2-.2.5-.2.6v.6c-.2.2-.3.4-.5.6-.1.1-.2.3-.2.5-.1.2-.1.3,0,.3h0c.1-.2.3-.3.4-.5-.2.4-.3.8-.4,1.1-.1.2-.1.4-.1.5h0s.1-.2.2-.4c.2-.4.3-.9.5-1.3-.3,1-.5,1.9-.6,2.6,0,.1,0,.2,0,.1l.1-.1c.1-.2.2-.4.2-.6.1-.5.3-1.3.5-2v.8h0s.1-.1.1-.2c.1-.2.2-.5.2-.6v-.6c.1-.1.2-.2.3-.3.1,0,.2-.3.2-.5.1-.1.1-.3,0-.3"/>
      <path class="cls-3" d="M173.5,57.7c-.2,0-.4.1-.6.3.3-.7.7-1.4,1.1-2.1.1-.2.2-.6.3-.8q0-.2-.1,0c-.5.9-.9,1.7-1.3,2.5.4-1.3.8-2.4,1.1-3.4.1-.3.1-.5.1-.5-.1,0-.2.3-.3.6-.3.9-.7,2.1-1.1,3.4,0-.4.1-.8.2-1.4.1-.3,0-.3-.1-.2-.1.2-.2.5-.3.8-.2.7-.3,1.2-.3,1.7-.2.2-.3.4-.5.5-.1.1-.2.4-.3.7s-.1.4,0,.4h0c.1-.1.3-.3.4-.4-.3.6-.5,1.1-.7,1.6-.1.3-.2.6-.2.7v.1s.1-.1.2-.3c.2-.5.5-1.2.9-1.9-.4,1.2-.7,2.3-1,3.2l-.1.3c-.1.3-.1.5,0,.4h0c.1-.1.2-.4.3-.7l.1-.3c.3-.9.7-2.1,1-3.3v1.5s.1-.1.1-.2c.1-.2.2-.6.3-.8.1-.5.1-.9.1-1.3.2-.1.4-.2.5-.2,0,0,.2-.2.3-.6-.1,0-.1-.3-.1-.3"/>
      <path class="cls-3" d="M170.2,62.3q0-.3-.2,0l-1.1,2.2.8-2.4c.1-.4.2-.6.1-.6-.1.1-.2.4-.4.8l-.4,1.3c.1-.3.1-.7.2-1,.1-.3,0-.3-.1,0s-.3.7-.3,1c-.1.4-.2.9-.2,1.3-.1,0-.3-.1-.4-.1,0,0-.2.2-.3.6s-.2.7-.2.7c.1.1.3.1.5.2l-1.2,2.3c-.1.3-.3.7-.3.9v.2s.1-.1.1-.2l1-1.9-.7,2.2c-.1.4-.2.6-.1.6h0c.1-.1.2-.4.4-.7l.7-2.2c-.1.5-.2,1-.2,1.5,0,.1,0,.2,0,.1,0,0,.1-.1.2-.2.1-.3.3-.7.3-1,.1-.5.1-1,.2-1.5h.2c.1,0,.2-.3.3-.7.1-.4.2-.7.1-.7h-.1l.8-1.5c.1-.5.3-.9.3-1.2"/>
      <path class="cls-3" d="M177.3,63.3c-.1-.1-.3-.3-.4-.5.2-.3.4-.6.6-.9.1-.2.3-.7.4-1,.1-.3,0-.5-.1-.3-.2.2-.3.4-.5.7l1.1-2.7c.2-.4.3-.8.2-.9,0-.1-.2.2-.4.6l-1.5,3.7.5-2.5c.1-.3,0-.3-.2-.1-.1.3-.3.7-.4,1l-.3,1.3c-.1-.2-.1-.3-.2-.5,0-.1-.2.1-.3.5-.2.4-.3.8-.2.9.1.2.1.4.2.6-.4.5-.7,1-1,1.5-.1.2-.3.6-.4,1-.1.3-.1.5,0,.4l.1-.1c.5-.6.9-1.3,1.4-1.9l-1.6,3.9c-.2.4-.3.8-.2.9h0c.1,0,.2-.2.3-.5l1.3-3.3-.3,1.5c0,.2,0,.3,0,.2,0,0,.1-.1.1-.2.1-.3.3-.7.4-1l.3-1.5c.1.2.3.4.4.5h0c.1,0,.2-.3.3-.6.3-.3.4-.6.4-.7"/>
      <path class="cls-3" d="M185.3,43.2l-1.7,2.7,1.2-3c.2-.6.3-1.1.3-1.2-.1-.1-.3.3-.5.8l-.9,2.2c.4-1.4.7-2.8.9-3.7.1-.5.1-.7-.1-.4-.2.3-.4.9-.6,1.4-.3,1.1-.7,2.5-1,4.1-.2-.2-.3-.3-.5-.5-.1-.1-.3.3-.5.8s-.3,1.1-.3,1.1c.2.2.3.4.5.6l-1.7,2.8c-.2.3-.4.9-.5,1.4-.1.3-.1.5,0,.4,0,0,.1-.1.1-.2l1.4-2.3-.6,1.5c-.2.5-.3,1.1-.3,1.2h.1c.1-.1.3-.4.4-.8l.9-2.3c-.3,1.4-.6,2.6-.8,3.4-.1.3,0,.4,0,.4,0,0,.1-.1.2-.2.2-.4.4-1,.5-1.4.2-.8.5-2,.8-3.4.1.1.2.1.3.2h0c.1-.1.3-.5.5-.9.2-.6.3-1,.2-1.1,0,0-.1,0-.1-.1l1.1-1.8c.2-.3.5-1,.6-1.4.4-.5.3-.6.1-.3"/>
      <path class="cls-3" d="M187.7,49.4c-.3.2-.6.3-.9.3.4-.7.7-1.3,1.1-2,.1-.3.3-.7.3-.9s-.1-.2-.2.1c-.4.8-.9,1.6-1.3,2.4.6-1.6,1.1-3.1,1.8-4.5.1-.3.3-.7.2-.8,0-.1-.1,0-.3.3-.7,1.5-1.3,3.1-1.9,4.6l.2-1.8c0-.2-.1-.2-.2.1-.1.3-.3.7-.3.9l-.2,1.8h-.5c-.1,0-.2.3-.3.6s-.2.6-.1.6c.2,0,.4.1.6,0-.6,1-1.2,2.1-1.7,3.1-.1.2-.3.6-.3.9v.2l.1-.1c.6-1,1.1-2,1.7-3-.2.6-.4,1.2-.6,1.8-.3,1-.7,2-1,3-.1.3-.2.6-.1.6h0c.1-.1.2-.3.3-.7.4-1,.7-2.1,1.1-3.1.2-.6.4-1.3.6-1.9l-.3,2.2c0,.1,0,.2,0,.1,0,0,.1-.1.2-.2.1-.3.3-.7.3-.9l.2-1.9c.3-.1.6-.2.9-.3h0c.1-.1.2-.4.4-.7.2-.6.2-.8.2-.8"/>
      <path class="cls-3" d="M196.1,25.7c-.2.1-.4.3-.6.4.2-.4.4-.9.6-1.3.4-.7.7-1.4.9-1.8.1-.3.2-.6.3-.8,0-.2-.1-.1-.2.1-.2.5-.5,1.1-.9,1.9-.1.3-.3.6-.5,1,.3-1,.7-2,1-2.7.1-.3.1-.5.1-.5-.1,0-.2.3-.3.6-.3.8-.6,1.7-.9,2.6.1-.4.1-.9.2-1.3,0-.2-.1-.1-.2.1-.1.2-.2.6-.3.8-.1.6-.2,1.2-.2,1.7-.3.2-.5.3-.6.3,0,0-.2.2-.3.5s-.2.6-.1.6c.1.1.3,0,.6-.2-.3.6-.6,1.1-.8,1.4-.1.2-.2.5-.3.7,0,.2,0,.3,0,.2l.1-.1c.2-.3.5-.9.9-1.6-.2.5-.3,1-.5,1.4-.1.3-.1.5,0,.4h0c.1-.1.2-.4.3-.6.2-.5.4-1.2.6-1.8,0,.2-.1.5-.1.7v.1s.1-.1.2-.2c.1-.3.2-.6.2-.7v-.3c.2-.1.3-.2.4-.3h0c.1-.1.2-.3.3-.6.1-.5.1-.8.1-.7"/>
      <path class="cls-3" d="M182.1,57.3l-.8,1.5.6-1.6c.1-.3.1-.5.1-.5-.1,0-.2.3-.3.5l-.3.9c0-.2.1-.4.1-.6s0-.2-.1,0-.2.5-.3.7c-.1.3-.1.6-.2.9-.1,0-.2,0-.3-.1,0,0-.2.2-.3.5s-.2.5-.1.5.2.1.4.1l-.9,1.6c-.1.2-.2.5-.3.7,0,.1,0,.2,0,.1l.1-.1.7-1.3-.2.9c-.1.3-.1.5-.1.5h0c.1,0,.2-.3.3-.5l.4-1.1c-.1.4-.1.7-.2,1.1v.1s.1-.1.1-.2c.1-.2.2-.5.2-.7,0-.3.1-.7.2-1h.2c.1,0,.2-.3.3-.5.1-.3.1-.5.1-.5h-.1l.6-1c.1-.2.2-.5.3-.7q-.1-.4-.2-.2"/>
      <path class="cls-3" d="M170.1,84l-.2-.1c-.1-.1-.2-.1-.3-.2.3-.6.7-1.1,1-1.6.2-.4.5-1.1.6-1.5.1-.5,0-.5-.2-.1-.4.7-.9,1.6-1.4,2.4,1.2-3.3,2.3-6.5,2.6-7.6.2-.6.2-.9,0-.8-.2.2-.4.7-.6,1.3-.3.8-1.1,3.4-2.1,6.2.2-1.3.5-2.6.8-3.9.1-.5.1-.8-.1-.5-.2.2-.4.9-.6,1.4-.4,1.4-.7,2.8-.9,4.1-.2-.1-.3-.3-.4-.4-.1-.1-.3.3-.5.8-.2.6-.3,1.1-.3,1.2.1.2.3.4.5.5-.3.5-.5.9-.8,1.3-.2.4-.5,1-.5,1.5-.1.3,0,.4,0,.4,0,0,.1-.1.2-.2.2-.4.5-.9.8-1.3-.7,1.8-1.2,3.4-1.5,4.2-.2.6-.3,1.1-.3,1.2h0c.1,0,.3-.4.5-.9.3-.8,1-2.6,1.7-4.7,0,.4-.1.7-.1,1-.1.8-.2,1.5-.3,1.9,0,.2,0,.3.1.3s.1-.1.2-.3c.2-.4.5-1.1.5-1.5.1-.5.2-1.2.3-2v-.3c.1.1.3.1.4.2l.2.1h0c.1-.1.3-.5.5-1,.2-.6.3-1.1.2-1.1"/>
      <path class="cls-3" d="M162.7,97.9v-2c.3-.3.6-.6.9-.9.2-.2.4-.8.6-1.3.2-.5.1-.8,0-.6-.3.3-.6.6-.8.9.8-1.8,1.5-3.5,2-4.7.2-.6.4-1.2.3-1.4-.1-.2-.3.2-.5.8-.5,1.2-1.2,2.9-2,4.7.3-1.2.7-2.3,1-3.5.2-.5.2-.8,0-.7-.2.2-.4.7-.6,1.3-.2.8-.5,1.7-.7,2.5,0-.7.1-1.4.1-1.9,0-.3-.1-.2-.4.3-.2.5-.5,1.2-.5,1.6-.1.7-.1,1.6-.2,2.4-.3.3-.7.7-1,1.1-.2.2-.4.8-.6,1.3-.1.4-.1.7-.1.7h.1c.4-.4.7-.8,1-1.1-.7,1.7-1.4,3.2-1.9,4.1-.2.5-.5,1.2-.5,1.6,0,.2,0,.3.1.3s.2-.2.3-.4c.5-1,1.2-2.5,1.9-4.2-.3,1.1-.6,2.2-.9,3.3-.1.4-.1.6,0,.6,0,0,.1,0,.1-.1.2-.2.4-.8.6-1.3.3-1,.6-2.1.8-3.1,0,.8,0,1.5-.1,2q0,.1.1.1c.1,0,.2-.2.4-.6.3-.8.5-1.5.5-1.8"/>
      <path class="cls-3" d="M168,72.8c.2-.6.2-.9.1-.9-.3.2-.7.8-1.2,1.6.6-1.7,1.2-3.2,1.4-3.7s.4-1.1.5-1.4c0-.3-.1-.2-.3.2-.4.8-1,2.4-1.9,4.8.1-.3.1-.6.2-1,.1-.7.3-1.3.4-1.8.1-.4,0-.5-.2-.2-.2.4-.4,1-.5,1.4-.1.5-.2,1.2-.4,1.9v.1c-.1-.2-.3-.3-.3-.5,0-.1-.2.2-.5.7-.2.5-.3,1.1-.3,1.2.1.2.2.4.3.6,0,0,0,.1.1.1-.4.7-.8,1.5-1.2,2.1,0,0-.3.5-.4,1.3-.1.6.1.3.1.3.3-.5.7-1.2,1.1-1.9-.5,1.3-1,2.5-1.3,3.4-.2.5-.3,1.1-.3,1.2h.1c.1,0,.2-.3.4-.7.3-.9.8-2,1.3-3.3-.2.8-.4,1.5-.5,2.1-.1.4-.1.7,0,.6l.1-.1c.2-.2.4-.8.6-1.3.2-.9.5-1.8.7-2.8.1.3.1.7.1,1.2q0,.2.1.2c.1,0,.1-.2.3-.4.2-.4.4-1.1.5-1.4.1-.7.1-1.1,0-1.5.4-.5.7-.9.8-1.1-.3.1-.1-.4.1-1"/>
      <path class="cls-3" d="M154.4,107.7c-.2.1-.3.1-.5.1.2-.3.4-.7.6-.9.1-.2.3-.6.3-.9.1-.3,0-.4-.1-.2-.2.3-.4.6-.6.9.2-.4.3-.8.5-1.1.2-.4.3-.8.5-1.1.1-.3.2-.7.2-.8s-.1,0-.3.4c-.1.3-.3.7-.4,1.1-.2.5-.5,1.1-.7,1.8l.5-2.3c.1-.3,0-.4-.1-.2-.1.2-.3.6-.3.9l-.5,2.3-.1-.1c-.1-.1-.2-.1-.3-.2-.1,0-.2.2-.3.6-.1.3-.2.7-.1.7s.2.1.3.2h0c-.3.5-.6,1-.8,1.5-.1.2-.3.6-.3.9v.3s.1,0,.1-.1c.3-.5.7-1.1,1-1.7-.4,1.2-.8,2.4-1.2,3.7-.1.3-.1.5,0,.4h0c.1-.1.2-.5.3-.8.3-.9.6-1.8.9-2.7l-.6,2.5v.3l.1-.1c.1-.2.3-.6.3-.9l.7-3c.1.1.3.1.4,0q.1,0,.2-.1c.1-.1.2-.4.3-.7.1-.5.1-.8,0-.7"/>
      <path class="cls-3" d="M154.3,112.5c0-.2-.1-.5-.1-.8.3-.4.5-.7.7-.9.1-.1.2-.4.3-.7.1-.3.1-.4,0-.3-.2.2-.4.5-.7.9.3-.7.6-1.3.8-1.6.1-.2.2-.5.3-.7,0-.2,0-.3-.1-.1-.2.4-.5,1.1-.9,1.9l.5-1.8c.1-.3.1-.4,0-.3s-.2.4-.3.7l-.5,2.1c0-.4-.1-.7-.1-.9,0-.1-.1.1-.2.3-.1.3-.2.6-.2.6,0,.2.1.5.1.9-.1.2-.2.4-.4.6-.2.3-.3.5-.5.7-.1.1-.2.4-.3.7v.3l.1-.1c.1-.2.3-.5.5-.7.1-.1.2-.3.3-.4-.5,1.2-.9,2.4-1.2,3.3-.1.3-.1.5-.1.5h0c.1,0,.2-.3.3-.5.3-.9.7-2.1,1.2-3.2l-.6,2.1c-.1.2-.1.3,0,.3h0c.1-.1.2-.4.3-.7l.5-1.8c0,.3,0,.6.1.7h0s.1-.2.2-.4c0-.3.1-.6,0-.7"/>
      <path class="cls-3" d="M154.4,103.2c.2-.9.4-1.8.6-2.7,0-.1,0-.2.1-.3.1.3.2.5.3.8h0c.1,0,.2-.2.3-.5s.2-.7.2-.8c-.1-.3-.2-.6-.3-.9l1-1.9c.1-.2.3-.6.3-.9.1-.3,0-.3-.1-.1l-.9,1.6c.3-.8.6-1.7,1-2.4.1-.3.2-.7.2-.9s-.1,0-.2.3c-.4.9-.8,1.9-1.1,2.8.3-1,.5-2.1.9-3.2.1-.3.1-.6,0-.5s-.2.4-.3.8c-.4,1.4-.8,2.6-1,3.8-.1-.2-.3-.4-.5-.5,0,0-.2.2-.3.6-.1.3-.2.6-.1.7.2.1.3.3.4.5l-1,1.8c-.1.2-.3.6-.3.9v.2l.1-.1.8-1.5c-.2.6-.5,1.3-.7,1.9-.3.9-.6,1.8-1,2.6-.1.3-.2.7-.2.7h0c.1,0,.2-.2.3-.5.3-.9.6-1.8,1-2.7.3-.7.5-1.4.8-2.1,0,.2-.1.4-.1.5-.2.9-.4,1.8-.6,2.6-.1.2-.1.3,0,.3l.1-.1c0-.1.2-.5.3-.8"/>
      <path class="cls-3" d="M156.3,103.1c.4-1.2.9-2.9,1.5-4.7,0,.5,0,1,.1,1.2h0c.1,0,.3-.3.4-.8.2-.5.3-1.1.3-1.2-.1-.2-.1-.5-.1-1,.4-.4.7-.7.9-.7.1,0,.3-.5.5-1s.2-1,.1-.9c-.2.1-.5.3-.9.7.3-.7.7-1.5,1-2.2.2-.5.4-1.1.4-1.4s-.1-.2-.3.3c-.3.7-.6,1.4-1,2.1,0-.1.1-.2.1-.2.4-1.2.7-2.2,1-3.1.2-.5.2-1,.1-.9-.1.1-.4.6-.5,1.1-.3.9-.6,1.9-1,3.1-.1.2-.2.5-.2.7,0-.3.1-.7.1-1s.1-.7.1-1-.1-.3-.3.1-.4,1-.4,1.4c0,.3-.1.7-.1,1-.1.5-.1,1-.2,1.4-.5.6-.9,1.3-1.4,2.1-.2.3-.4.9-.5,1.3-.1.3-.1.4,0,.4,0,0,.1-.1.1-.2.3-.6.7-1.1,1-1.6-.4.9-.8,1.8-1.2,2.8-.2.5-.4,1.1-.4,1.3q0,.1.1.1c.1,0,.2-.2.3-.5.3-.7.6-1.4.9-2.1-.4,1.4-.9,2.7-1.2,3.7-.1.5-.2.8-.1.8h0c.4-.1.6-.6.8-1.1"/>
      <path class="cls-3" d="M161.5,85.3c-.1-.3-.2-.5-.4-.7l1.1-2.2c.2-.4.4-1,.5-1.4,0-.3-.1-.3-.3.1l-.5,1c.2-.5.4-1.1.6-1.6.2-.5.3-1,.2-1.1s-.3.3-.5.9c-.3.7-.5,1.5-.8,2.2.2-.8.4-1.7.6-2.6.1-.5.1-.6-.1-.3-.2.3-.4.9-.5,1.3-.3,1.1-.5,2.2-.8,3.3-.2,0-.4,0-.7.1-.1.1-.3.5-.5,1.1-.2.5-.2.9-.1.9.2-.1.4-.1.6-.1l-.9,1.8c-.2.4-.4,1-.4,1.4,0,.2,0,.3,0,.2,0,0,.1-.1.2-.3l.6-1.2c-.3,1-.7,2-1,3-.2.5-.3,1-.2,1h0c.1,0,.3-.5.5-1,.3-1,.7-2,1-3-.1.4-.2.7-.2,1.1-.1.3,0,.4,0,.4,0,0,.1-.1.2-.2.2-.3.4-.9.5-1.4.1-.4.2-.8.3-1.3.1.2.2.3.2.6h.1c.1,0,.2-.3.4-.7.2-.6.3-1.1.3-1.3"/>
    </g>
  </g>
  <g id="Calque_6" data-name="Calque 6">
    <path class="cls-2" d="M255.3,87.2c-.8-1.2-1.9-2.2-2.9-3.2-1.1-1.1-2.3-2-3.6-2.8s-2.7-1.3-4.1-1.7c-1.4-.4-3.1-.9-4.5-.8h-.2c-.6.4-.9,1-1.2,1.7s-.6,1.4-.9,2.1c-.7,1.5-1.4,3-2.2,4.5-.8,1.4-1.5,2.9-2.3,4.3-.4.8-.8,1.5-1.2,2.3-.4.7-.8,1.3-.9,2-.1.5.5.7.8.5.6.3,1.1.5,1.7.8.7.3,1.3.7,1.8,1.3,1,1,1.7,2.2,2.9,3,.6.4,1.2.7,1.9,1-1.3-.3-2.6-.4-3.9-.7-.7-.2-1.5-.4-2.1-1-.5-.5-.9-1.1-1.2-1.8,0-.1-.2-.1-.2,0-.4,1.3.7,2.5,1.7,3.2,1.5,1,3.4,1,5.1,1.4.8.2,1.6.5,2.2,1.1.5.5.8,1.1,1.2,1.6.3.5.7,1.1,1.2,1.5.1.1.3.2.5.3-.2.3-.5.7-.7,1.1-.5.8-1,1.6-1.4,2.4-.9,1.5-1.7,3.1-2.7,4.6-.8,1.3-1.7,2.5-2.6,3.8-.5.8-.7,1.4-1.6,1.9-.5.3-1,.5-1.5.8-.1-.1-.2-.1-.4-.1s-.3.1-.5.2c-.2,0-.5-.1-.7-.2-.3-.3-.5-.7-.7-1.1-.3-.5-.6-.9-.9-1.3-.6-.8-1.3-1.6-1.9-2.4-.3-.4-.7-.8-1.1-1l-1.2-.6v-1.2c.1-.7.2-1.5.2-2.2.1-1.5.4-3.1.8-4.5.4-1.5,1-2.9,1.6-4.2.2-.5.4-.9.6-1.4.2.1.4,0,.5-.1.2-.1.3-.3.3-.6s-.1-.5-.2-.8c.2-.5.5-1,.8-1.4,0,0,0-.1,0,0-.3.3-.6.6-1,.9,0-.1-.1-.1-.1-.2-.2-.4-.4-.8-.6-1.3-.2-.4-.4-.8-.6-1.3-.1-.2-.2-.4-.3-.6-.1-.1-.1-.2-.2-.4-.1-.2-.2-.3-.4-.4-.2-.2-.5-.1-.7,0s-.3.4-.3.6c0,.5.3,1,.6,1.5.2.4.4.8.6,1.3.2.4.4.8.6,1.3.1.2.2.4.3.7-.4.5-.7.9-1,1.4-.8,1.4-1.5,3-1.9,4.6-.5,1.6-.7,3.2-.9,4.8-.1.8-.1,1.5.1,2.3.1.7,0,1.6.5,2.2.1.2.4.1.5-.1,0-.1.1-.2.1-.2.1.3.3.6.5.9.3.4.6.8,1,1.2.7.8,1.3,1.7,1.8,2.6,0,.1.1.1.1.2-.1-.1-.3-.2-.4-.2-.5-.2-1.2-.2-1.6.2-.3,0-.7.1-1,.3-.3.2-.5.3-.6.6-.1.2-.3.4-.3.7-.2.5-.2,1.1,0,1.6.1.5.5.9.9,1.2.8.6,2,.7,2.8,0,.5-.3.8-.9,1-1.4s.3-1,.2-1.5c.2.4.5.7.9.9.7.5,1.8.5,2.4-.1,1.3-.8,2.3-2,3.6-2.8,1.2-.8,2.2-2.4,3-3.6.9-1.5,1.8-3.1,2.7-4.6.5-.9,1-1.9,1.5-2.8.3-.6.7-1.3.9-2,0,0,.1,0,.1-.1.2-.2.3-.5.2-.8-.3-.5-.9-.6-1.3-1-.4-.4-.7-.9-1.1-1.3-.5-.6-1-1.1-1.6-1.6.6.3,1.1.6,1.7.9.6.4,1.2,1,1.9,1,.3,0,.5-.2.6-.4.2.5.9.8,1.3.4,1.2-1.1,1.8-2.9,2.5-4.3.8-1.6,1.6-3.3,2.4-5,.7-1.6,1.5-3.2,2.2-4.8.3-1.3.9-2.5.1-3.8ZM229.6,123.3v.3h0c0,.1-.1.2-.1.3s0,.1-.1.2h0c0,.1-.1.2-.2.2v.1l-.1.1h-.6c-.1,0-.1-.1-.2-.1h-.1c-.1,0-.1-.1-.2-.1h-.1c0-.1-.1-.1-.1-.2v-.1h0c0-.1-.1-.1-.1-.2v-.1h0v-.7h0s0-.1,0,0v-.1c.1-.2.2-.4.2-.6h0c.2.3.6.4.9.3h.7s.1,0,.1.1h0v.1h0c0-.1,0,.1,0,.1,0,.2,0,.3,0,.4h0ZM252.4,92c-.7,1.4-1.3,2.7-2,4.1s-1.4,2.7-2,4.1c-.6,1.2-1.6,2.6-1.9,4-.3-.7-1.1-1.1-1.7-1.4-.7-.4-1.3-.7-2-1-1.4-.6-3-1.1-4.2-2s-1.9-2.2-3.1-3.1c-.6-.4-1.2-.8-1.9-1-.5-.1-.9-.1-1.3,0,.4-.5.6-1.1.9-1.6.4-.7.8-1.4,1.1-2.2.7-1.4,1.4-2.9,2.1-4.4.7-1.5,1.3-3,2-4.4.4-.8.7-1.6,1.1-2.4.2-.4.3-.7.4-1,1.2.6,2.7.7,3.9,1.1,1.4.4,2.8.9,4,1.6s2.3,1.7,3.2,2.6,2,1.8,2.6,2.9c.7,1.1-.7,3.1-1.2,4.1Z"/>
    <path class="cls-2" d="M234,124.8c-.1-.2-.2-.2-.4-.2s-.4.1-.5.2-.1.2-.2.3c-.1.2-.3.4-.4.6-.2.2-.3.4-.5.6s-.3.3-.4.5c-.3.3-.7.7-1.1,1-.2.2-.5.4-.8.6-.1,0-.2-.1-.4-.1,0,0,0-.1-.1-.1-.2-.1-.4-.2-.6-.2q-.1,0-.2-.1c-.1,0-.1-.1-.2-.1h.1c.3,0,.6,0,.9-.1.6-.2,1.2-.4,1.7-.8.5-.3,1-.7,1.3-1.2.4-.6.7-1.2.6-1.9-.1-.5-.7-.6-1-.2-.1.1-.2.3-.3.4h0c0,.1-.1.2-.1.3s-.1.1-.1.2h0c-.1.1-.1.2-.2.3-.3.5-.5.8-.9,1.1-.4.3-.7.5-1.2.7-.2.1-.4.1-.7.2-.1,0-.2.1-.4.1-.1,0-.1.1-.2.1h-.1q-.1,0-.1.1c-.4-.4-.8-.9-1.2-1.4-.6-.9-1-1.9-1.3-2.9-.2-.7-.3-1.3-.3-2v-.2c.1,0,.1-.1.2-.1.1-.1.1-.2.2-.2l.1-.1c.2-.1.3-.2.5-.3q.1-.1.2-.2s.1,0,.1-.1h.1c.1-.1.3-.2.4-.2h.1c.1,0,.2,0,.3-.1h.5c.2,0,.3,0,.5.1h.5c.6.1.8-.7.4-1-.2-.2-.4-.3-.7-.3-.2,0-.4-.1-.6-.1-.5,0-1,.1-1.4.3-.3.1-.5.3-.8.4,0-.2-.1-.5-.4-.6-.4-.1-.6.1-.7.4-.7-.1-1.5.1-2.3.3-.8-1.8-1-3.5-.6-5.4.5-2.2,1.3-4.3,2-6.4.7-2,1.6-3.9,2.6-5.8.5-.9,1-1.8,1.5-2.7.4-.7,1.1-1.3.9-2.2,0-.2-.2-.4-.4-.3-.9.2-1.3,1.1-1.8,1.8-.6,1-1.2,2-1.7,3-1.2,2.2-2,4.6-2.8,6.9-1,2.9-4,8.8-1.1,11.5-.8.2-1.6.4-2.4.7-.9.3-1.9.5-2.8.9-.8.3-1.8.7-2.1,1.5-.1.3.1.5.4.5-.1.4-.1.7-.1,1.1-.2-.1-.5-.2-.7-.3-.2,0-.3-.1-.5-.1h-.2c-.3-.1-.6,0-.9.1h0c-.1,0-.2,0-.3.1-.1,0-.3.1-.4.2.3-.3.6-.6.8-1s0-.9-.5-.9h-.2v-.2c-.3-.7-1-.8-1.7-1-.8-.2-1.6-.4-2.4-.6-1.7-.3-3.4-.4-5.1-.3-.8.1-1.7.1-2.5.3-.6.1-1.3.3-1.7.8-.4.6-.5,1.5-.7,2.2-.2.9-.4,1.8-.6,2.7-.1.3.2.7.5.7,2.1.6,4.3,1.3,6.4,1.8.4.1.9.2,1.3.4-2.5-.1-7.8.9-8.5,1-1.3.3-2.6.7-3.8,1.2-1,.5-2.6,1.1-3.2,2-.2.4.1.7.5.7-.1.5-.2,1-.2,1.6v1.7c0,.5,0,1.3.5,1.7.3.3.7.2.9-.1.2-.5,0-1.1,0-1.7,0-.5-.1-1,0-1.4,0-.5.1-1,.1-1.5,0-.2.1-.5.1-.7v-.2c.1-.1.3-.2.4-.3.6-.3,1.1-.6,1.7-.8,1.2-.5,2.5-.8,3.9-1.1,2.9-.5,5.9-.6,8.7-1.2.2,0,.4-.2.4-.4v-.1h0c1.3.4,2.5.7,3.8,1.1.4.1.8-.1,1-.4.6.5,1.4.6,2.2.5h.5c.2,0,.4-.1.6-.2.2-.1.4-.1.6-.3.1-.1.3-.2.3-.4h0v.1l.1-.1c.4.3,1,.4,1.5.7-.1,0-.3.1-.4.1-.3.1-.2.5.1.5,2.3.1,4.7-.4,7.1-.8.3,0,.5-.1.8-.1,0,.2.1.4.3.5.1,0,.2.1.3.1-.3,0-.5-.1-.8-.1h-.1c-.3-.1-.5.3-.3.5l.1.1c.2.3.6.5.9.6.2.1.4.1.5.2-.2.3-.5.6-.7.9-.1.1-.1.3.1.4.1.1.3.1.4-.1.3-.3.6-.7.9-1,.4.1.8.1,1.2,0,.2,0,.4-.1.6-.2.2-.1.3-.2.5-.3s.1-.5-.1-.6c-.2,0-.4-.1-.5-.1s-.3-.1-.5-.1h-.1c0-.1.1-.1.1-.2,0,0,0-.1.1-.1h.3c.4,0,.9-.1,1.3-.2.2,0,.4-.1.6-.2.2-.1.4-.2.7-.2.1,0,.2-.2.1-.3.6.2,1.5.4,2,0,.2-.2.3-.6.1-.8q-.1-.1-.2-.1l.1-.1c.4-.3.8-.7,1.2-1,.4-.4.7-.8,1-1.2.2-.2.3-.4.4-.7.1-.1.2-.3.2-.4-.4,0-.4-.2-.5-.4ZM208,128.5c-1.6-.4-3.1-.8-4.7-1.3-2-.6-3.9-1.1-5.9-1.6.1-.6.2-1.1.3-1.7s.2-1.5.5-2,1.4-.5,2-.6c.7-.1,1.5-.2,2.2-.2,1.4,0,2.8.1,4.2.4.7.1,1.4.3,2,.6.4.1.8.3,1.1.3-1,.7-1.7,2.2-1.9,3.2-.1,1-.1,2,.2,2.9ZM213.8,129.1h-3.3q-.1,0-.1.1h0c-.7-.9-.9-2.2-.7-3.3.1-.5.3-1,.6-1.4h1.2c.1,0,.3,0,.4.1q.2,0,.3.1c.1,0,.2.1.4.1.3.1.6.2.9.3h.2v.1c0,.5.1,1,.2,1.5-.1,0-.2.1-.3.1-.2,0-.3.1-.5.1h0l-.1-.1v-.1h0v-.2h0l.1-.1h0s.1,0,.1-.1c0,0,.1,0,.1-.1h0l.2-.1.1-.1h0v-.1h.1c.1,0,0-.1-.1-.1l-.1-.1q0-.1-.1-.1h0c0-.1-.1-.1-.2-.2-.3-.1-.6-.1-.9,0-.2.1-.5.3-.6.5-.3.5-.3,1.2,0,1.7.2.3.5.6.8.8.3.1.7.1,1,.1.1,0,.3,0,.4-.1-.3.2-.2.5-.1.7h0ZM226,128.3c-1.2.2-2.3.4-3.5.6-1.8.3-3.7.6-5.4,1.1-.2-.7-1-1-1.6-1.2-.3-.1-.5-.2-.7-.5,0-.1-.1-.2-.1-.3s-.1,0,.1-.1c.1,0,.1-.1.1-.1.2-.2.3-.5.1-.7-.1-.1-.1-.2-.2-.3-.4-1.3-.8-2.7-1-4.1h0c.3-.1.6-.2.9-.4.4-.2.8-.4,1.3-.5.9-.3,1.7-.5,2.6-.8,1-.3,1.9-.6,2.9-.9.7-.2,1.5-.4,2.2-.8v.2c-.3,1.8.1,3.6.8,5.2.5,1.2,1.3,2.4,2.2,3.3-.2.2-.5.2-.7.3Z"/>
    <path class="cls-2" d="M233.7,71.2c-1.4,2.8-2.8,5.6-4.2,8.4-.7,1.4-1.4,2.7-2,4.1-.3.7-.7,1.4-1,2.1-.3.6-.6,1.4-1.1,1.9-.2.3,0,.7.2.8h0c-.5.3-.8.9-1.2,1.3-.7.9-1.3,1.7-1.9,2.6-1.2,1.8-2.2,3.6-3.2,5.5-.9,1.9-1.8,3.8-2.4,5.8-.3,1-.7,2.1-.9,3.1-.2.7-.6,1.6-.4,2.4-.1.2-.2.4-.2.6-.3.9-.6,1.7-.9,2.6v-.1h0v-.5c0-.1.1-.2.1-.3v-.4c-.1-.3-.4-.4-.7-.3-.2.1-.3.2-.4.3-.1.1-.1.3-.2.4v.1c-.1.2-.3.4-.4.6-.3.4-.6.9-.9,1.3l-1.5,3c-.5,1-.9,2-1.3,3-.4.8-.7,2,.2,2.6.4.3,1.1.1,1.1-.5,0-.4,0-.7.1-1,.2-.4.4-.9.6-1.3.4-.9.8-1.7,1.1-2.6.4-.9.7-1.8,1-2.6.1-.4.2-.7.3-1.1.1.1.1.2.2.2s.1.1.2.1h.1c-.2.7-.4,1.4-.1,2.1,0,.1.1.2.2.2v.4c.1.5.2,1,.4,1.4.2.5.4.9.7,1.3.1.2.3.4.4.6.1.2.3.3.5.4,0,0,.1,0,0,0,.1.1.2.1.2.1h.1c.5.1.7-.4.7-.7,0-.1-.1-.2-.1-.2q0,.1,0,0v-.1c0-.2-.2-.3-.3-.4-.1-.2-.2-.4-.4-.6-.1-.2-.2-.3-.4-.5h0c0-.1-.1-.1-.1-.2-.1-.1-.2-.3-.2-.4h0s0-.1-.1-.1c-.1-.1-.1-.2-.2-.3-.1-.2-.2-.4-.3-.6-.1-.1-.2-.3-.3-.4.4-.5.6-1.2.8-1.8.3-1,.6-2,1-2.9.7-1.9,1.5-3.7,2.3-5.6.9-1.8,1.8-3.6,2.9-5.3.8-1.3,1.7-2.5,2.5-3.8.1.1.2.3.3.4s.2.2.3.3q.1.1.2.2c.1.1.2.2.4.3l.1.1c.2.1.5,0,.7-.1s.2-.3.2-.5v-.2c0-.1,0-.2-.1-.3,0-.1-.1-.1-.1-.2-.1-.2-.2-.4-.3-.5s-.2-.2-.3-.3l-.1-.1c.1,0,.1.1.2.1.7.1.7-.9.7-1.3,0-.5-.1-1.1-.1-1.6,0-.8,0-1.6.1-2.4.1-.2.1-.4.1-.7v-.5c.3-.4.5-1,.7-1.4.3-.7.7-1.4,1-2.1.7-1.4,1.4-2.8,2.1-4.3,1.4-2.9,2.9-5.8,4.3-8.7.7-1.2-.6-1.7-1-.9ZM225.4,94.3c-.1,0-.1-.1-.2-.1-.1-.3-.5-.5-.8-.3-1.4,1.3-2.5,3.2-3.5,4.8-.2.4-.5.8-.7,1.2.2-.4.3-.7.5-1.1.9-1.8,1.9-3.6,3-5.3.4-.7.9-1.4,1.4-2.1-.1.6,0,1.2,0,1.7.1.5.2,1,.3,1.2.1,0,0,0,0,0Z"/>
    <path class="cls-2" d="M227,58c-.1-.1-.2-.2-.3-.2h-.1c0-.1-.3-.2-.4-.2s-.2-.1-.3-.1c-.2-.1-.4-.2-.6-.3h0l-.1-.1c-.1-.1-.2-.1-.3-.2-.1-.1-.2-.1-.3-.2l-.1-.1s-.2-.2-.1-.1c.1.1,0,0-.1-.1l-.1-.1c-.1-.1-.1-.2-.2-.3-.1-.1-.1-.2-.2-.3l-.1-.1h0c-.1-.1-.1-.3-.2-.4l-.1-.1h0c-.2-.4-.9-.4-1,.1-.1.6,0,1.2.3,1.7s.7,1,1.1,1.4c.4.3.9.6,1.5.8.4.1.8.2,1.2.1h.1-.1c.1,0,.2,0,.3-.1s.2-.1.4-.3c.1-.3.1-.6-.2-.8Z"/>
    <path class="cls-2" d="M224.8,64.9c-.7.2-1.3.8-1.9,1.2-.6.5-1.3,1-1.9,1.5-1.3,1-2.6,1.9-4,2.7-1.4.9-2.8,1.8-4.3,2.6-1.4.8-3.3,1.6-4.6.1-.9-1.1-1.7-3.1-1.4-4.5.2-.9.7-1.4,1.2-2.1.5-.6,1-1.2,1.5-1.8,1-1.2,2.1-2.4,3.2-3.6.9-1,2.3-2.2,2.7-3.5,0-.1,0-.2-.1-.1-1.2.3-2.3,1.4-3.2,2.3-1,1-2,2-2.9,3.1-1.7,1.9-4,4.5-3.4,7.2.4,2.1,1.5,4.7,3.9,5,1.3.2,2.6-.4,3.8-1,1.3-.7,2.6-1.4,3.9-2.2,1.4-.9,2.8-1.8,4.2-2.8.7-.5,1.4-1,2.1-1.5.7-.5,1.5-1,1.9-1.8.4-.4-.1-.9-.7-.8Z"/>
    <path class="cls-2" d="M207.3,139.2c-.3-.3-.6-.6-.8-1-.5-.7-.9-1.5-1.1-2.3-.2-.8-.3-1.7-.2-2.6,0-.4.1-.9.2-1.3.1-.4.3-.8.3-1.3,0-.2-.2-.3-.3-.2-.8.5-1.2,1.7-1.4,2.6-.2,1-.2,2.1,0,3.1.2,1.1.6,2,1.2,2.9.1.1.2.2.2.3-2.4-.5-5-.4-7.4-.5-2.7-.1-5.4-.4-8.1.2,0,0-.1.1,0,.1.2,0,.3.1.5.1-.9.6-1.8,1.3-2.6,2.1-.4.4-.8.8-1.2,1.3-.4.4-1.1,1-.9,1.7.1.2.2.3.4.3h.1v.2c0,.5.2.9.3,1.3.3.9.8,1.7,1.3,2.4.9,1.3,2,2.8,3.7,2.7.3,0,.5-.3.6-.5,1-.2,2.1-.8,3-1.1,1.4-.5,2.7-1.1,4-1.8,1.3-.6,2.5-1.3,3.8-2,1.1-.6,2.5-1.1,3.4-2.1.1-.2,0-.4-.2-.4h0c.1,0,.2-.1.2,0,.2-.1.3-.2.4-.4,0,0,0-.1.1-.2v-.2c0-.2-.1-.3-.2-.4-.1-.2-.4-.3-.6-.3h-.1q.1,0-.2-.1h-2.2c-.2,0-.5,0-.7-.1q-.1,0-.2-.1s-.1,0-.1-.1l-.1-.1h0l-.1-.1h0c0-.1-.1-.2-.1-.2v-.3c.1-.5-.5-.7-.9-.5-.1.1-.2.1-.2.2,0,0,0,.1-.1.1h0c.1-.1,0,0-.1.1-.2.2-.2.6-.2.8,0,.5.3.9.7,1.2.7.7,1.8.7,2.8.7h.8c-1,.3-1.9,1-2.8,1.4-1.3.6-2.6,1.1-3.9,1.7-1.3.5-2.6,1.1-3.9,1.7-1,.5-2.2.8-3.2,1.4-.4-.1-.9-.4-1.2-.7-.5-.5-.9-1.1-1.3-1.7-.4-.6-.9-1.3-1.3-1.9-.3-.4-.5-.9-.7-1.3h0c.2-.2.4-.4.5-.7.3-.4.7-.8,1.1-1.2.8-.8,1.7-1.5,2.5-2.2.2-.1.2-.4.2-.6,2.2.4,4.4.5,6.6.6,2.6.1,5.5.6,8.1.1q.1,0,.1-.1c.5.4,1,.7,1.5.5.2-.1.3-.3.3-.5.5-.1,0-.4-.3-.7Z"/>
    <path class="cls-2" d="M226.1,132c-1.1.6-2.1,1.2-3.2,1.8-.5.3-1,.6-1.5.8,0-.1-.1-.2-.3-.2-2.1.8-4.1,1.9-6.2,2.7-1,.4-2.1.8-3.1,1.2-1.1.4-2.1.8-3.2,1.1-.1,0,0,.2.1.2,1.2-.1,2.3-.2,3.4-.5-.4.2-.8.4-1.2.6-.6.3-1.3.7-1.9,1,0,0,0-.1-.1-.1q0-.1-.1-.2c0-.1-.1-.2-.2-.3,0,.1.1.1.1.2-.2-.3-.3-.6-.4-.9,0-.1-.2-.3-.4-.3-.1,0-.3-.1-.4,0-.3.1-.5.4-.5.7.1.3.1.6.3.9.1.2.2.3.3.5.1.1.1.2.2.2l.1.1c-.5.3-.9.6-1.4.9-.1.1,0,.3.1.2,1.5-.6,3.1-1.1,4.6-1.7.7-.3,1.5-.5,2.2-.8.8-.3,1.6-.6,2.2-1.2.2-.2.2-.7-.2-.7h-.3c1.4-.5,2.9-1.2,4.2-2,0,.2.2.5.4.5.3,0,.7,0,1-.2.3-.1.6-.2.8-.4.6-.3,1.2-.7,1.7-1.1,1.1-.7,2-1.6,2.9-2.5.6-.2.4-.7,0-.5Z"/>
    <path class="cls-2" d="M270.7,34.5c-.1-.3-.2-.6-.4-.9-.1-.3-.3-.6-.4-.8-.1-.1-.1-.3-.2-.4-.1-.1-.2-.2-.3-.4-.1-.2-.3,0-.3.1v.5c0,.1,0,.3.1.4.1.3.1.6.2.9.2.6.3,1.3.7,1.9.1.2.4.2.6.1.2-.1.3-.3.3-.5,0-.3-.1-.6-.3-.9Z"/>
    <path class="cls-2" d="M275.6,36.9h0c0-.3-.2-.4-.4-.5-.4-.2-.7-.2-1.1-.2s-.7-.1-1.1-.1c-.7-.1-1.4-.2-2.1-.1-.3,0-.4.5-.2.7.6.4,1.4.6,2.2.8.4.1.7.1,1.1.2h.6c.2,0,.5-.1.7-.1.2-.1.3-.4.3-.7q0,.1,0,0Z"/>
    <path class="cls-2" d="M278.7,35h-.1c-.2-.1-.4,0-.6,0-.2.1-.3.1-.5.2-.2.1-.4.3-.6.4-.1.1-.2.2-.3.2-.1.1-.2.2-.3.3-.1.1-.2.2-.2.3s-.1.1-.1.2l-.1.1c-.1.2,0,.5.2.4h.4c.1,0,.2,0,.3-.1.3-.1.5-.2.8-.3.2-.1.4-.2.6-.4.1-.1.2-.1.3-.2l.1-.1c.1-.1.2-.3.3-.5v-.1c.1-.1,0-.3-.2-.4Z"/>
    <path class="cls-2" d="M281.1,32.3c0-.2-.2-.3-.4-.2,0,0-.1,0-.1.1-.1,0-.2.1-.2.2-.1.1-.2.2-.2.3-.2.2-.3.4-.4.6h-.2s-.1,0-.1.1l-.1.1v.3h0s0,.1-.1.1c-.1.2-.2.5-.1.8,0,.2.2.3.4.3.3,0,.5-.3.7-.5.1-.2.2-.4.4-.7.1-.2.2-.5.4-.8,0-.1.1-.2.1-.3-.1-.1-.1-.3-.1-.4Z"/>
    <path class="cls-2" d="M268.2,26.7c-.2.4-.4.8-.6,1.2-.2.4-.4.7-.6,1.1s-.4.8-.6,1.2c-.2.4-.4.8-.3,1.2.1.2.3.2.4.2.4-.1.6-.7.8-1,.2-.4.3-.8.5-1.2.1-.4.3-.8.4-1.2.1-.4.2-.8.3-1.3.1-.2-.2-.3-.3-.2Z"/>
    <path class="cls-2" d="M269,36.3c-.1-.2-.2-.3-.3-.5-.1-.2-.2-.4-.3-.6-.2-.4-.4-.8-.5-1.2-.1-.2-.1-.4-.2-.5-.1-.2-.2-.4-.3-.7-.1-.3-.5-.3-.6,0,0,.2-.1.5-.1.7s0,.4.1.7c.1.5.2,1,.3,1.5.1.4.3.9.6,1.3.1.2.3.5.5.7s.5.3.7.3.4-.1.4-.2c.2-.7-.1-1.1-.3-1.5Z"/>
    <path class="cls-2" d="M276.6,38.2c-.5-.1-1.1,0-1.6,0-.6,0-1.1-.1-1.7-.1s-1.1-.1-1.6-.1c-.6,0-1.1-.1-1.7-.1-.3,0-.4.4-.1.5.5.2,1.1.4,1.7.5s1.2.2,1.8.2,1.2,0,1.8-.1c.5-.1,1.1-.2,1.6-.4,0-.1-.1-.4-.2-.4Z"/>
    <path class="cls-2" d="M275.2,39.7c-.4.5-.8.9-1.2,1.4-.4.5-.8,1-1.1,1.5-.3.5-.7,1-1,1.5s-.7,1.1-.8,1.8c0,.5.5.7.9.5.5-.3.8-.9,1.1-1.5.3-.5.6-1,.9-1.6.6-1,1.2-2.1,1.8-3.1.2-.5-.3-.9-.6-.5Z"/>
    <path class="cls-2" d="M325.1-.3c-2,1.2-3.5,3-5,4.7-1.6,1.7-3.1,3.4-4.6,5.1-3,3.5-5.9,7-8.8,10.6-2.8,3.6-5.6,7.3-8.3,11-1.3,1.9-2.6,3.8-3.9,5.7-1.1,1.7-2.4,3.5-2.9,5.5h0c-.3.1-.6.3-.9.4h-.3c-.2,0-.3,0-.5.1h-.3c-.2,0-.3,0-.5-.1h-.1c-.1,0-.2-.1-.2-.1-.1,0-.2-.1-.2-.1,0,0-.1,0-.1-.1,0,0-.1,0-.1-.1-.1-.1-.2-.1-.4-.2-.1,0-.2-.1-.3-.1,0,0-.1,0-.1-.1,0,0-.2-.1,0,0-.1-.1-.2-.1-.3-.2.1.1,0,0,0,0,0,0-.1,0-.1-.1-.1,0-.1-.1-.2-.2,2.4-4.8,2-11.1-1.3-15.3,0-.5-.3-1-.6-1.2-.2-.2-.5-.2-.8-.3-.1-.1-.2-.2-.3-.2-.2-.4-.6-.6-1-.8-.2-.6-.8-1-1.4-1-.1-.3-.2-.5-.4-.6-.5-.3-1-.3-1.4,0-2.2-.8-4.5-1.2-6.8-1.4-2.2-.2-4.4-.1-6.6-.1-1.8,0-4-.5-5.8-.1-.1-.2-.2-.3-.4-.4-.4-.2-.9-.2-1.3-.2h-.7c0-.1,0-.4.1-.5,0-.2.1-.4.1-.6.1-.4.2-.9.3-1.3.4-1.6,1-3.2,1.6-4.8q.1,0,.2-.1c1.5-1.5,2.7-3.5,3.9-5.3,1.2-1.8,2.5-3.5,3.7-5.3,2.5-3.6,5.1-7.2,7.7-10.7,2.6-3.6,5.2-7.1,7.7-10.7,1.3-1.8,2.5-3.5,3.8-5.3.7-1,1.3-1.9,2-2.9.5-.7,1-1.3.9-2.2,0-.2-.3-.4-.5-.4-.9.2-1.2.8-1.8,1.6-.7.9-1.4,1.9-2,2.8-1.3,1.8-2.5,3.5-3.7,5.3-2.5,3.6-5,7.2-7.5,10.8-2.5,3.6-5,7.2-7.6,10.8-1.2,1.8-2.5,3.5-3.7,5.3s-2.8,3.5-3.7,5.5v.2c-.9,1.1-1.6,2.4-2.1,3.7-.3.8-.5,1.7-.7,2.6-.1.7-.4,1.8.1,2.4.3.3.6.4,1,.4h1.5c.3,0,.6-.1.9-.2,1.4.9,3.4.9,4.9,1h1c-.9.6-1.7,1.3-2.3,2.3-.7,1.3-1.4,2.6-2,4-.7,1.5-1.5,3-2.2,4.5-.4.8-.7,1.6-1.1,2.4-.3.7-.8,1.5-.8,2.4,0,.5.5.9.9.5.2-.2.4-.5.6-.7-.1.3-.2.7-.1,1-1.3.3-2.2,1.6-2.8,2.6-.4.8-.9,1.6-1.3,2.4-1.4,1.4-2.7,2.9-4,4.4-.1-.5-.4-1-.6-1.6-.2-.6-.2-1.3-.2-2,.1-1.3.6-2.4,1.4-3.4.7-.9,1.7-1.7,2.6-2.4.5-.3,1-.7,1.5-1,.6-.3,1.1-.6,1.6-1.1.4-.4.2-1.2-.5-1.1-1.4.2-2.7,1.2-3.8,2-1,.7-1.9,1.4-2.6,2.3-.3,0-.7,0-1,.1h0c.1-.1.1-.3-.1-.4-.6-.4-1.6-.1-2.3.2,0-.1,0-.2-.1-.4-.5-.6-1.4-.3-2.1-.1-1.2.3-2.4.7-3.5,1.1-2.4.8-4.8,1.6-7.1,2.5-2.1.8-4.3,1.6-6.3,2.6-1.1.6-2.8,1.6-3,2.9-.1.2-.1.3-.1.5-.1-.2-.3-.4-.5-.4-.9,0-1.8.6-2.5,1.1-.8.5-1.5,1-2.2,1.5-.7.6-1.4,1.2-2,1.9-.3.3-.6.7-.8,1.1-.2.3-.6.8-.5,1.2.1.2.2.4.5.4.4,0,.7-.5,1-.7.3-.3.6-.6.9-.9l.1-.1c0,.2,0,.4.1.5.3.6.9.8,1.5.7.5-.1.9-.3,1.3-.5.2-.1.5-.3.7-.4.2-.2.5-.3.7-.5.4-.3.8-.6,1-1.1s.1-1-.2-1.4c-.4-.5-1.1-.5-1.7-.2-.1,0-.1.1-.2.1h0c.2-.1.3-.2.5-.3.3-.2.7-.4,1-.6.4-.2.8-.4,1.2-.7q.1-.1.1-.2c0,.7.2,1.5.4,2.1.4,1.2,1,2.4,1.6,3.5.6,1,1.3,2.2,2.1,3,.3.4.7.7,1.1.9-.2.1-.5.2-.7.3-.5.2-1,.3-1.5.4-.3.1-.6.2-.9.3v-.1c-.1-.2-.4-.4-.6-.3-.3,0-.5.2-.6.4-.1.1-.2.3-.3.4-.2.3-.4.6-.5.9,0,.1-.1.1-.1.2-.8-.8-1.8-1.3-2.8-1.9-1.1-.8-2.1-1.7-3.3-2.3-.6-.3-1.2-.5-1.8-.5-.3,0-.7,0-1,.1s-.4.4-.6.6c-.2.2,0,.5.2.5.3,0,.5.2.8.2s.5,0,.8.1c.5.1,1,.3,1.4.6.9.6,1.7,1.5,2.7,2.1.8.6,1.8,1,2.5,1.8.3.4.6.8.8,1.2s.4,1,.8,1.3c.3.2.6.1.8-.1.6-.8,0-2-.5-2.8.2-.2.3-.3.4-.5.2-.3.3-.6.5-.8,0-.1.1-.2.1-.2h1.2c.6-.1,1.2-.2,1.7-.4s1.1-.4,1.6-.6c.1-.1.3-.1.4-.2.1.1.2.2.3.2,1.1.4,2.4.3,3.5.3,1.2,0,2.3-.1,3.5-.3.6-.1,1.1-.2,1.7-.3.6-.1,1.2-.2,1.7-.6.3-.3.3-.8-.2-.9-.8-.2-1.8,0-2.7.1-1,.1-1.9.2-2.9.2-.9,0-1.8.1-2.7.1h-1.1c0-.4-.3-.8-.7-.8-1,0-1.7-.4-2.4-1.2s-1.3-1.7-1.9-2.6c-.6-.9-1.1-1.7-1.5-2.7-.2-.4-.4-.9-.5-1.4v-.1s.1,0,.1-.1c.6-.5.9-1.2,1.5-1.7.7-.5,1.5-.9,2.2-1.2,2.2-.9,4.4-1.8,6.7-2.6,2.2-.8,4.4-1.6,6.5-2.3.1,0,.5-.1,1-.3-.3.2-.6.4-.9.6-1.9,1.4-3.6,3.4-4.7,5.6-1.1,2.3-1.6,5-1.3,7.5.1,1.1.7,2,1.8,2.4.9.3,2.4.4,3.2-.3.4-.3.3-1-.2-1.1-.8-.3-1.7.1-2.4-.3-.8-.4-.7-1.8-.7-2.5,0-2.2.6-4.2,1.6-6.2.9-1.7,2.2-3.2,3.7-4.3.1,0,.2,0,.3.1.4,0,.7-.1,1.1-.2.6-.2,1.3-.4,1.9-.6.6-.2,1.2-.5,1.7-.8.2-.1.4-.2.6-.3-.6,1.1-1.1,2.3-1.1,3.6-.1,1.4.2,3.5,1.4,4.4.1,0,.1.1.2.1-.7.9-1.4,1.8-2.1,2.7-1.2,1.6-2.5,3.3-3.6,5-1,1.4-2,2.9-2.9,4.4-.1-.1-.3-.1-.5-.2-.3-.1-.7-.2-1-.3-.4-.1-.7-.1-1.1-.2-.3-.1-.7-.2-1-.2-.2,0-.4.1-.4.3s.1.4.2.5c.3.2.6.3,1,.5.3.1.6.4.9.5.3.1.6.3.9.4.1,0,.2.1.3.1-.5.8-1,1.7-1.6,2.5-.6,1-1.2,1.9-1.8,2.9-.5.8-1,1.5-1.4,2.3-.1-.4-.2-.8-.3-1.2-.1-.9-.1-1.7,0-2.6s.4-1.8.6-2.7c.3-.9.8-1.8.8-2.8,0-.5-.6-.7-.9-.3-.6.8-.9,1.9-1.2,2.8-.3,1-.6,2-.7,3-.1,1-.1,2,0,2.9s.3,2,1.1,2.6c.3.2.8,0,.8-.4v-.2l.1-.1h0c.7-.9,1.3-1.9,1.9-2.8.6-1,1.3-1.9,1.9-2.9.6-.9,1.2-1.9,1.8-2.8.4-.7.9-1.5,1.3-2.3.7-.8,1.3-1.7,2-2.5,1.3-1.7,2.6-3.3,3.9-5,.8-1,1.6-2.1,2.5-3.1-.5,1-.9,2-1.4,3-3.9,8.1-7.5,16.3-10.4,24.8-.1.4.2.8.6.7,2.1-.1,4.3.1,6.2.9,1.8.8,3.1,2.7,4.6,3.9.3.3.8-.1.6-.5-.4-1.1-1.2-1.8-2.1-2.5-.9-.7-2-1-3-1.5-1.8-.9-3.7-1.5-5.7-1.5,2.4-6.9,5.1-13.7,8.1-20.3,1.5-3.4,3.4-6.7,5.1-10.1.3-.7.7-1.3,1-2,.4-.7.8-1.3,1.2-2,.1-.1,0-.2,0-.3.2-.3.3-.6.5-.8.6-.9,2.1-2.4,3.3-2.2,0,.5.3,1,.9,1.1.8.1,1.1.8,1.6,1.4.5.6,1,1.3,1.6,1.8,1.1,1.2,2.3,2.3,3.6,3.3,1,.8,2.2,1.7,3.5,1.8-1.4,3.3-2.8,6.6-4.2,10-1.2,3-2.4,6-3.6,9-.3.2-.4.6-.6.9-.4.7-.8,1.5-1.2,2.2-.7,1.4-1.5,2.9-2.2,4.3s-1.5,2.9-2.2,4.3c-.4.7-.8,1.5-1.1,2.2-.3.6-.6,1.3-.5,1.9q0,.1.1.1c-.1.2-.2.5-.3.7s-.1.4-.2.6c-.1.3-.2.5-.3.8h0q-.1,0-.2-.1h-.2s0,.1-.1.1v.1h.2q.1,0,.2-.1h.1c.1-.2.2-.4.4-.6s.3-.4.5-.6c.3-.4.5-.8.7-1.2.2-.3.3-.6.4-.9.1-.2.2-.3.3-.5.4-.7.8-1.5,1.2-2.2.8-1.6,1.6-3.2,2.4-4.7s1.5-3.1,2.2-4.6c.1-.2,1.2-2.3.9-2.9,1.5-2.8,3.1-5.6,4.5-8.4,2-3.9,3.7-7.9,5.3-12,.1-.2.2-.3.2-.5.3-1.1-1.2-1.8-1.7-.7-.1.2-.2.4-.3.6-.7.7-3-1.3-3.5-1.7-1.1-.9-2.1-2-3-3.1-1.1-1.3-2.6-4.6-4.8-3.4-.1,0-.1.1-.2.1s-.2-.1-.3-.1c0-.1.1-.2.1-.3.3-.7.7-1.3,1.1-2,.5-.7.9-1.4,1.4-2.1,1-1.6,2.1-3.2,3-4.8.3-.5-.4-1-.7-.5-1.1,1.3-2,2.6-3,4-.5.7-1,1.3-1.4,2-.4.6-.9,1.2-1.3,1.8,0-.1.1-.2.1-.3.4-.8.7-1.5,1.1-2.3.7-1.5,1.4-2.9,2.1-4.4.6-1.3,1.2-2.7,1.9-4,.3-.6.7-1.2,1-1.9.3-.6.5-1.1.8-1.7,1.4.1,2.7.1,4.1.2.5,0,1.1.1,1.6.1-.1.1-.1.2-.1.2-.1-.1-.2-.2-.3-.1h-.1c-.2,0-.4.2-.4.3-.1.3-.1.6-.1.9-.2.1-.4.1-.6.2-.3.1-.6.3-.9.4s-.6.2-.9.3h-.1q-.1,0-.2.1c-.2.1-.5.1-.6.3-.2.1-.2.4-.2.6.1.2.2.3.5.4.4.1.8-.1,1.1-.2.3-.1.7-.3,1-.4.3-.2.5-.4.7-.6.1-.1.2-.2.3-.3.1.4.4.7.6,1h-.2c-.5.1-1,.3-1.4.6-.3.2-.6.4-.5.8,0,.2.1.3.3.4-.4.5-.7.9-1,1.4-.2.3-.4.7-.5,1.1-.2.4-.4,1-.2,1.3.1.2.4.4.7.3.2-.1.3-.2.3-.3s.1-.2.1-.3c.1-.2.1-.3.1-.6.1-.4.2-.7.3-1.1.2-.6.4-1.3.7-1.9.2-.1.4-.2.6-.3.1-.1.2-.1.3-.2,0,0,.1,0,.1-.1h.1s.1,0,.1-.1h0c.2-.1.4-.3.7-.4h.1c.1.1.3.3.4.4.2.2.4.4.6.6h0c-.3.1-.5.1-.8.2-.2.1-.4.2-.7.2-.3.1-.7.2-.7.5,0,.2,0,.4.1.5-.2.2-.3.4-.5.7-.3.6-.7,1.2-.8,1.9,0,.2.1.4.3.5v.2c0,.2,0,.5.1.7,0,.2.1.4.1.6.1.3.1.5.2.7.1.3.2.6.4.8h.1c0,.1.1.3.2.3.4.1.7.2,1.1.3s.7.1,1.1.1h1.1c.5,0,1-.1,1.3-.5v-.1s.1,0,.1-.1c.1-.1.2-.2.4-.3.3-.2.5-.5.8-.7.2-.2.4-.5.6-.7s.4-.5.6-.8.2-.6-.1-.9c-.2-.2-.6-.2-.9,0s-.5.5-.8.8c-.2.2-.4.5-.6.7-.2.2-.4.5-.6.7l-.3.4c-.2,0-.4-.1-.5-.1h-1.2c-.4,0-.7,0-1.1.1-.1,0-.3,0-.4.1v-.2c0-.1-.1-.2-.1-.3s-.1-.2-.1-.3c-.1-.2-.1-.4-.2-.6-.1-.2-.2-.4-.3-.6-.1-.2-.2-.4-.3-.6,0-.1-.1-.1-.1-.2h0q0-.1,0,0c0-.1.1-.1.1-.2s.1-.1.1-.2,0-.2.1-.3c0,.1,0-.1,0-.1.1-.3.2-.6.3-.9.1-.3.2-.5.3-.8,0,0,0-.1.1-.1s.2-.1.3-.1l.7-.3c.2-.1.4-.2.6-.3.1-.1.2-.2.4-.2l.1-.1c.7.6,1.4,1.2,2.1,1.6,1.3.8,2.6,1.5,4,2.2.9.4,2,.9,3.1,1.1l-.1.1c-.3.4-.7.7-1,1.1h0c-.4.2-.8.5-1.1.7-.5.4-1.1.8-1.6,1.3-.5.4-1,.8-1.5,1.2s-1.1.8-1.5,1.4c-.2.3.1.7.5.6.6-.3,1.1-.7,1.7-1,.5-.4,1.1-.8,1.6-1.2s1.1-.8,1.6-1.2,1-.8,1.3-1.4c.1-.2,0-.3-.2-.4.2-.2.4-.4.7-.5.1-.1.3-.2.4-.4h.7c.8,0,1.1-.8.9-1.5v-.1c.1.2.1.5.2.7.6,3.3-.2,6.4-.9,9.6-.1.6.7.9,1,.4.1.2.3.4.5.5.1.1.2.1.4.2.1.1.3.1.4.1h.3c.2.3.5.4.8.5.4.1.8.2,1.2.2s.8-.1,1.2-.2c.2-.1.4-.2.6-.3s.4-.3.5-.5,0-.4-.1-.6c1.5-1.3,2.7-3.1,3.9-4.7,1.4-1.8,2.7-3.7,4.1-5.5,2.7-3.6,5.4-7.2,8.3-10.7,2.8-3.5,5.7-7,8.7-10.3,1.5-1.7,3.1-3.4,4.6-5.1,1.5-1.7,3.3-3.3,4.4-5.3.5.7,0-.3-.7.2ZM222.6,52.9c.2-.1.3-.2.5-.3,0,0,.1,0,.1-.1h0c-.1.1-.2.2-.4.3h0c0,.1-.1.1-.2.1,0,.1-.1.2-.2.2-.2.1-.4.2-.6.3-.2.1-.4.1-.6.2q-.1,0-.2.1c.2-.2.4-.4.7-.6.1,0,.3.1.4,0,.2-.1.4-.1.5-.2Z"/>
    <path class="cls-2" d="M247.1,57c-1.3,1.1-2.2,2.9-3.1,4.4-.9,1.5-1.8,3-2.7,4.5s-1.8,3.1-2.7,4.6-2,3.1-2.7,4.7c-.2.5.5.9.8.4h0c1-1.4,1.8-3.1,2.7-4.6.9-1.6,1.9-3.1,2.9-4.6.9-1.5,1.9-3,2.8-4.5.9-1.4,2.1-2.9,2.6-4.6.1-.2-.3-.6-.6-.3Z"/>
    <path class="cls-2" d="M232.5,83.5c-.6.7-1.1,1.6-1.6,2.4-.5.9-1.1,1.7-1.5,2.6-.5.8-1,1.7-1.4,2.5-.4.7-1,1.6-.9,2.5,0,.1.1.2.3.1.8-.3,1.3-1.3,1.7-2,.5-.9,1-1.7,1.5-2.6.5-.8.9-1.7,1.4-2.5.5-.9,1-1.8,1.3-2.7-.1-.4-.5-.6-.8-.3Z"/>
    <path class="cls-2" d="M233.5,76.4c-.5.6-.9,1.4-1.3,2.1-.4.7-.7,1.4-1.1,2.1-.7,1.4-1.4,2.9-2.1,4.4h0c1.1-1.2,2.1-2.6,2.9-4,.8-1.4,1.8-2.8,2.1-4.4.1-.3-.4-.4-.5-.2Z"/>
  </g>
  <g id="Calque_4" data-name="Calque 4">
    <g>
      <path class="cls-2" d="M132.1,153.9c.1.1.1.3.2.4.2.3.5.6.8.8.2.1.4.2.6.3.3.1.5.1.8.1.1,0,.2,0,.2-.1.7.2,1.5.3,2.2.4,1.4.2,2.7.5,4.1.7,2.8.5,5.6.9,8.5,1.4s5.8.9,8.7,1.3c2.7.4,5.5,1,8.2,1,.1,0,.2,0,.3-.1,0,0,0,.1.1.1s.1.1.2.1c.1.1.3.1.4.1h.4c.2,0,.5-.1.7-.1.1,0,.2-.1.2-.1l.1-.1c.5.2,1.1.2,1.3-.5.8-2.4,1.7-4.7,2.5-7.1,4.3-9.1,8.1-18.5,11.7-27.8,3.5-9.1,6.7-18.3,9.6-27.6,2.9-9.3,5.4-18.8,8.1-28.2,2.7-9.6,5.9-18.9,9.1-28.3,1.5-4.4,2.8-8.9,4.1-13.4,1.2-4.6,2.3-9.3,2.6-14,0-.1,0-.2-.1-.3.1-.7.2-1.3.3-2,.1,0,.2,0,.3-.1.4-.2.4-.7.2-1.1-.3-.3-.8-.4-1.1-.6-.9-.3-1.8-.6-2.7-.9-.9-.3-1.9-.6-2.8-.9-.5-.2-.9-.3-1.4-.5-.2-.1-.3-.1-.5-.1h0c0-.2-.2-.4-.5-.4h0c.3-.4-.3-.9-.6-.5-.1.1-.2.2-.2.2q-.1.1-.2.2h-.1c-1.3-.2-2.4.9-3.2,1.7-.5.5-.9,1.1-1.4,1.5s-1,.8-1.5,1.3c-2,1.7-4.1,3.4-6.1,5.1-2,1.8-4,3.6-5.8,5.5-1.4,1.4-3,2.8-4.4,4.2-.1,0-.2.1-.3.1-3.8,3-7.5,6-11.1,9.2-2.4,2-4.8,4-7.2,6.1-.3.8-.8,1.6-1,2.4-.1.4-.3.7-.4,1-2.6,6.2-4.1,12.8-5.8,19.2-2.1,7.7-4.8,15.2-7.2,22.9-1.2,3.8-2.3,7.6-3.6,11.4-1.3,3.7-2.7,7.4-3.9,11.1-1.2,3.8-2.3,7.7-3.5,11.6s-2.6,7.8-3.9,11.6c-1.2,3.5-2.3,7.1-3.3,10.7-.6,1.8-1.1,3.7-1.7,5.5-.5,1.5-1.3,3-1.6,4.5-.6.7,0,1.3.6,1.1ZM147.9,130.6c2.2-.2,4.4-.4,6.5-.7,2.2-.3,4.3-.5,6.5-.8,1.1-.2,2.2-.3,3.4-.5.9-.1,1.8-.2,2.6-.5-.9,2.6-1.8,5.3-2.7,7.9-.8-.3-1.7-.1-2.6,0-1.2.1-2.3.2-3.5.2-2.3.2-4.6.4-6.9.5-2.4.2-4.8.4-7.2.4h-3.5c-.7,0-1.5,0-2.2.1.6-1.9,1.2-3.8,1.8-5.7h1.1c.5,0,1-.1,1.5-.1.5-.1,1-.2,1.5-.3s1-.2,1.5-.2h.1c.8-.1,1.5-.2,2.1-.3ZM208.5,8.9c-.1.4-.2.8-.3,1.2-.2.7-.5,1.3-.7,2q-.1,0-.2.1c-1.6,2.2-2.2,4.9-3.2,7.4-.9,2.5-1.8,5-2.7,7.5-1.8,5.2-3.6,10.4-5.4,15.6-6.3,18.4-12.6,36.9-18.8,55.3-3.1,9.2-6.3,18.4-9.4,27.6-.2.6-.4,1.3-.6,1.9-1,0-1.9.3-2.9.4-1.1.2-2.2.4-3.4.6-2.2.3-4.3.7-6.5.9s-4.4.4-6.5.6c-2.1.2-4.3,0-6.4.5h0c-.3,0-.5,0-.8.1,0-.1.1-.2.1-.3,2.5-7.7,4.5-15.6,7.1-23.2,1.3-3.7,2.7-7.4,4-11.1,1.3-3.8,2.4-7.7,3.6-11.5,2.4-7.4,5-14.7,7-22.3,1.9-7,3.6-14,6.8-20.5.1-.1.1-.2.1-.3,2.1-1.7,4.1-3.5,6.2-5.3.3-.2.5-.5.8-.7.2,0,.3,0,.5-.2s.4-.5.6-.7c2.7-2.3,5.3-4.5,7.9-6.9h.1c1.1-.8,2.2-1.8,3.2-2.7,1-.9,2-1.7,3.1-2.5,2-1.6,4-3.3,6-4.9,2-1.7,4.1-3.4,6.1-5.1,1.1-.9,2.1-1.5,3.3-2.3.2-.3.8-.7,1.3-1.2ZM178.2,136.2c1-3.1,2.1-6.2,3.1-9.4,6.5-19.3,12.7-38.6,18.9-57.9,3.2-9.7,6.3-19.5,9.4-29.2,1.5-4.9,3.1-9.8,4.6-14.7.5-1.8,1.1-3.6,1.6-5.3-.6,3.2-1.4,6.3-2.3,9.4-1.6,5-3.3,10-5,14.9-3.2,9.2-6.1,18.4-8.6,27.8-2.6,9.6-5.3,19.2-8.4,28.7-3,9.3-6.3,18.4-9.9,27.5-1.1,2.7-2.3,5.4-3.4,8.2ZM156.3,157.4h0c.5-.1.9-.2,1.3-.5.1-.1.1-.2.1-.3.4-.2.8-.5,1.2-.9.3-.3.6-.6.8-1,.3,0,.6-.2.8-.6,2-5.1,3.6-10.4,5.4-15.6,1.8-5.2,3.6-10.4,5.3-15.6l18.8-55.3c3.1-9.2,6.3-18.4,9.4-27.7,1.5-4.6,3.1-9.2,4.5-13.8.8-2.4,1.5-4.8,2.3-7.1.5-1.7,1.2-3.3,1.5-5,.4-.1.8-.8.9-1.2.4-1,.8-2,1-3.1.1-.5.2-1.1.3-1.6v-.1c.3.1.7.2,1,.3.7.3,1.5.5,2.2.8.8.3,1.5.5,2.3.8l1.1.4c.2.1.3.1.5.2.1,0,.2.1.3.1l.1.1c-1.4,2.4-2.2,5.3-3,7.9-.9,2.7-1.7,5.3-2.6,8-1.7,5.4-3.5,10.8-5.2,16.3-6.2,19.3-12.3,38.7-18.8,57.9s-13.1,38.3-19.5,57.5h-.1.1c-.1,0-.2,0-.2.1h-.2c-.3.1-.5.1-.8.1s-.5.2-.7.5c0,0-.1-.1-.2-.1-1.4-.4-2.9-.5-4.3-.8-1.4-.3-2.9-.5-4.4-.7-.3.1-.7,0-1.2,0ZM133.5,152c.6-1.2,1-2.5,1.4-3.6.7-1.9,1.4-3.9,1.9-5.9.4-1.4.9-2.8,1.3-4.2.9.1,1.8,0,2.7,0,1.2-.1,2.3-.2,3.4-.3,2.3-.1,4.6-.2,6.9-.3,2.3-.1,4.6-.2,6.9-.3,1.2-.1,2.5-.1,3.7-.2.7-.1,1.4,0,2.1-.2-.3.8-.5,1.5-.8,2.3-1.4,4.3-3,8.6-4.3,12.9-.3.1-.3.5-.2.7,0,.1-.1.2-.1.3-.1.2,0,.4,0,.6,0,0,0,.1-.1.1v.1l-.1.1c-.1.1-.1.2-.2.3l-.1.1-.1.1c-.1.1-.2.2-.3.2s-.1.1-.2.1h0c-.1.1-.2.1-.3.2-.2.1-.5.2-.7.3h-.2c-.1,0-.2,0-.3.1-.3,0-.5.2-.8.3-.2.1-.3.3-.3.4h-1.3c-.9-.1-1.9-.3-2.7,0-.1,0-.2.1-.2.2-.3,0-.6-.1-1-.1-2.8-.5-5.6-.9-8.5-1.4-1.5-.2-2.9-.5-4.3-.7-.7-.1-1.4-.3-2.2-.3-.1,0-.2-.1-.3-.1-.1-.1-.2-.1-.2-.2-.1-.1-.2-.2-.2-.3s-.1-.2-.1-.3v-.4c-.1-.3-.2-.5-.2-.6Z"/>
      <path class="cls-2" d="M203.8,64.5c.5-1.4,1-2.8,1.4-4.2.5-1.4,1-2.8,1.5-4.2s.8-2.9,1.2-4.3c.8-2.8,1.6-5.6,2.4-8.3.9-2.9,1.6-5.9,2.8-8.7.1-.2.5-.1.4.1-.5,2.8-1.4,5.5-2.2,8.2-.9,2.8-1.8,5.6-2.7,8.4-.5,1.4-1.1,2.7-1.5,4.2-.4,1.4-.7,2.7-1.2,4.1-.4,1.4-.9,2.8-1.3,4.2-.4,1.5-.8,3.1-1.6,4.4-.1.2-.4.1-.4-.1.2-1.3.7-2.6,1.2-3.8Z"/>
      <path class="cls-2" d="M201.5,72l.3-.7c0-.1.1-.2.2-.4.1-.1.1-.3.2-.4.1-.3.2-.5.3-.8,0,0,.1,0,0,0-.1.3-.1.6-.1.9v.8c0,.3-.1.5-.1.8,0,.1-.1.3-.1.4,0,.2-.1.3-.2.4-.1.2-.5.1-.5-.2-.2-.3-.1-.5,0-.8Z"/>
    </g>
  </g>
  <g id="Calque_3" data-name="Calque 3">
    <path class="cls-1" d="M161.7,73.8c-20.8-2.5-42.2-6.6-62.1,1.6-.6,0-1.3.1-1.9.4-.4.2-.9.5-1.3.7-.2.1-.4.3-.6.4-2.7,1-6.6.4-9.3,1.2-.6.2-1.3.4-1.9.7-1.3-.1-2.6.1-3.9.6-1.6.7-3,1.8-4.5,3-.5.2-1,.5-1.6.7-7.2,3.3-14.1,7.2-20.8,11.3-.5,0-1,.1-1.5.3-8.9,4-17.4,9.3-26.1,13.7-8.4,4.2-17.5,8.2-24.9,14.1C0,123.6-.2,125.2.4,126.5c-2.6,4.3-1.2,11.1-1.7,15.7-.9,8-2.2,16-3.2,24.1-.6,4.8,5.6,5.8,7.6,2.4,5.9-4.2,10.8-10.7,16-15.6,3.1-3,6.3-5.9,9.5-8.7,1.4-1.2,2.8-2.6,4.3-3.8.4,0,.9-.1,1.4-.3,2.4-.9,5-1.2,7.6-1.5.2.1.4.1.6.1.6.1,1.3,0,1.9-.3h0c.2,0,.4,0,.6-.1,1.1.6,2.6.6,3.8-.6l.5-.5c.1-.1.2-.2.3-.3.3-.1.6-.2.8-.4.2-.1.4-.2.6-.3,5.8,1.2,12.6.3,17.8-.7,6.2-1.2,12.5-2.9,18.6-5,3.1.2,6.1.3,9.2.4,0,.2-.1.3-.2.5-.2.8-.4,1.6-.5,2.4-.1.6-.1,1.2.1,1.7v1.2c0,.1.1.3.1.4,0,.3.2.5.3.8v.1h0c.1.2.2.3.3.4.4.4.8.8,1.3,1h0c.5.4,1.1.6,1.7.6.3.1.6.1.9,0s.6-.1.9-.3c.5-.2.8-.5,1.1-.8.3-.3.6-.7.7-1.1.2-.4.3-.9.2-1.3v-.6h0c1.1-.8,2.1-1.9,2.9-3,.4-.5.8-1.1,1.1-1.6.3,0,.6-.1.8-.1.6.1,1.3.2,1.9.2-.3.6-.5,1.2-.7,1.9-.2.3-.4.7-.6,1.1-.3.8-.3,1.7-.3,2.5-.3,1-.2,1.9.1,3v1.4c.1.6.4,1.2.8,1.7.2.2.4.4.7.6.5.4,1.1.6,1.7.6.4.1.7,0,1.1-.1h.3c2.5-.1,4-2.2,3.9-4.5-.1-1.4-.2-2.9-.3-4.3,0-1.1.5-2.2.3-3.4-.1-.3-.2-.6-.3-.9.9-.2,1.8-.3,2.6-.1,1.3.3,2.3-.2,2.9-1.1.8-.4,1.6-.9,2.3-1.7,3.7-4.1-.6-11.8-5.8-9.1v-.1c1.3-.9,2-2.4,2-4.1,0-2.2,0-5.1-.8-7.2-.9-2.1-2.6-3.5-4.6-4.5-1.2-.6-2.5-1.1-3.8-1.6l-2-.8c0-.2-.1-.4-.2-.6,2.2.8,4.9.8,7.1.2.3-.1.5-.1.8-.2.1.3.3.5.6.7.3.3.7.6,1.1.8.3.1.6.2.9.2h.2c-.1,1.3.4,2.7,1.6,3.4.2.1.4.3.7.4,0,.1.1.1.1.2.5.7,1,1.5,1.6,2.1,1.2,1.4,2.7,2.9,4.5,3.8.3,4.3,1.4,9.6,4.1,12.2.3,1.7,1.3,2.6,2.4,3l.1.1c.2.1.5.3.7.4.4.2.8.2,1.2.2.3,0,.6,0,.9-.1.4-.1.8-.3,1.2-.6.2-.2.4-.4.6-.6.3-.4.5-.9.6-1.4.4-.7.5-1.5.3-2.4.3-7.1-.4-13.8-4.1-20-2.7-4.7-7.3-13.5-12-16.6-.4-.2-2.6-1.1-4.7-1.4-.5-.1,8.2-1.3,13.3-1.6,7.2-.4,21.9.4,22.5.5.2.2,2.9-.2,3.1-.3,1.3-.4,3.1-.4,4.2-1.5.1-.1.5-.2.6-.3,2.7-2.7,2-7.2-2-7.7ZM111.9,110.6c.3.3.5.4.6.5,0,0,0,.1-.1.2-1.2-.8-2.4-1.4-3.7-2,0-.1-.1-.1-.1-.2,1.3.3,2.7.8,3.3,1.5Z"/>
  </g>
  <g id="Calque_2" data-name="Calque 2">
    <path class="cls-2" d="M128.1,88c-.2-.3-.4-.6-.7-.8-.5-.5-1.1-1-1.8-1.3-.7-.4-1.5-.6-2.4-.8-.4-.1-.8-.2-1.2-.3-.2,0-.4-.1-.6-.1.2-.1.3-.2.5-.2.3-.1.6-.2,1-.2.2,0,.3,0,.5-.1.2,0,.3,0,.5-.1.1,0,.1-.1,0-.2-.3-.2-.7-.1-1-.1-.4,0-.7.1-1.1.2-.3.1-.6.2-.9.4h-.2v-1c0-.1-.1-.3-.1-.4-.1-.2-.1-.4-.2-.6-.1-.1-.1-.2-.2-.3-.1-.1-.1-.2-.3-.2h-.1c-.1-.1-.3,0-.3.1h0c-.1.1-.2.2-.2.3v.3c0,.3,0,.5.1.8,0,.3.1.5.2.8.1.2.2.5.4.7h0c-.1.1-.2.1-.3.2-.2.1-.3.2-.5.3-.2.1-.3.2-.4.4-.1.1-.1.2-.1.3-2.1.9-4.2,2.1-6.3,3.1-2.6,1.3-5.4,2.4-8,3.6-.1,0,0,.1,0,.1,2.8-1,5.6-2.1,8.3-3.3,2.7-1.1,5.4-2.3,7.8-3.9.1,0,.1-.1,0-.2.2.2.5.3.8.3.4.1.8.2,1.2.3.8.2,1.6.4,2.3.8.6.3,1.2.6,1.8,1,.3.2.5.4.7.6.3.2.4.6.7.9.2.2.5,0,.4-.2.1-.6-.1-.9-.3-1.2Z"/>
    <path class="cls-2" d="M139.9,81.8c-1.1-.2-2.5.4-3.6.7-1.3.3-2.6.5-4,.6-2.6.3-5.2.5-7.8.6-.1,0-.1.1,0,.1,2.6,0,5.2-.2,7.7-.5,1.3-.1,2.6-.3,3.8-.4.7,0,1.4-.1,2.1-.2.6-.1,1.3-.1,1.8-.4.3-.1.3-.5,0-.5Z"/>
    <path class="cls-2" d="M159.1,74.2c-1.3,0-2.6,0-3.9-.2h-.1v.1c-.6-.2-1.3-.4-1.8-.8h.2c-.4-.3-.7-.6-.9-1h0c-.2-.2-.3-.5-.4-.8h-.1c-.1-.1-.4-.2-.5-.2-.2,0-.4-.1-.6-.1s-.4-.1-.6-.1c-.1,0-.2,0-.3-.1h-.4c-1-.2-2-.5-3-.6-1.1-.1-2.2-.2-3.3-.3-2-.2-4.1-.4-6.2-.5-4.2-.3-8.3-.4-12.5-.2-4.2.2-8.3.5-12.4,1.3-4,.8-7.7,2-11.6,3.2-2.3.7-4.6,1.2-7,1.6-1.2.2-2.4.3-3.5.3-1.2.1-2.6,0-3.8.4-.3.1-.4.4-.3.6-4.3,1.3-8.4,3.2-12.4,5.3-5,2.7-10.1,5.4-15.1,8.1-10.2,5.5-20.4,11-30.5,16.5-5.8,3.1-11.5,6.3-17.3,9.4-5.8,3-11.7,5.9-17.4,9.2-.3.2-.1.7.2.5,5.1-2.6,10.1-5.4,15.2-8.1,5.1-2.7,10.2-5.3,15.2-8,10.1-5.4,20.3-10.6,30.5-16.1,5-2.7,10-5.3,15-8,4.8-2.6,9.6-5.4,14.8-7.2,1.2-.4,2.5-.8,3.7-1.2-.1-.1-.1-.2-.2-.3,1.5.1,3-.1,4.4-.2,2.1-.1,4.2-.4,6.2-1,4-1,7.8-2.5,11.7-3.4,8.3-1.9,16.7-2,25.1-1.5,2.3.1,4.6.3,6.9.5,1.2.1,2.4.2,3.6.3,1.3.1,2.5.1,3.8.1.2,0,.3-.1.4-.2.1,0,.2,0,.3.1.2,0,.4.1.6.1s.4.1.6.1h.2v.1h0v.1c0,.1.1.1.1.2v.1c0,.2-.1.4-.1.6.3.1.5.1.8.1-.1.1-.1.3.1.4.7.6,1.6,1,2.5,1.2.4.1.9.2,1.3.2h.7c.2,0,.4.1.6.1.4.1.8.1,1.2.2.4,0,.9.1,1.2-.1.1-.1.1-.3,0-.5-.1-.2-.5-.2-.9-.3Z"/>
    <path class="cls-2" d="M160.3,82.8c-.7.1-1.4.3-2.1.3s-1.4.1-2.1.1h-2.1c-.3,0-.7,0-1,.1-.1,0-.2.1-.3.1s-.1-.1-.2-.1h.3c.1-.1.2-.2.3-.3-.4,0-.7,0-1.1.1h0c-.3-.1-.6-.1-.9-.2-1.1-.2-2.2-.1-3.3-.1s-2.2.1-3.4,0c-.9-.1-1.8-.4-2.6-.7,0-.1.1-.2,0-.2q0-.1-.1-.2c0-.1-.1-.1-.1-.2-.1-.1-.1-.3-.2-.4,0-.1-.1-.2-.1-.4v-.7c0-.2-.2-.2-.3,0v.4c-.1.1-.1.3-.1.4v.5c0,.2.1.3.2.5,0,.1.1.1.1.2h0c-.2,0-.3.2-.2.3q.1.1.2.2c-.2,0-.3,0-.5-.1h0c.2.1.5.2.7.3,1.3,1.2,3.7,1,5.4.9h1.1c.8,0,1.6,0,2.5.1.6,0,1.2.1,1.9.3h.1c.1-.1.2-.2.3-.3.1.1.3.2.4.2.3.1.7.2,1.1.2.7.1,1.5,0,2.2,0,.7-.1,1.5-.2,2.2-.4.7-.2,1.5-.3,2.1-.5,0-.1-.2-.4-.4-.4Z"/>
    <path class="cls-2" d="M162.5,74.7c0-.1-.1-.2-.1-.2q-.1-.1-.2-.1h-.7c-.2,0-.4,0-.6.1-.2,0-.3.2-.3.4h0v.1h0c0,.1.1.2.1.2q.1.1.2.1h.7c.2,0,.4,0,.6-.1.1,0,.2-.1.2-.1q.1-.1.1-.2v-.2Z"/>
    <path class="cls-2" d="M89.1,97.1s.1,0,0,0v-.4h-.4v.4c-.3.3-.3.6-.4,1-.1.5-.2,1-.2,1.6-.2,1-.3,2-.4,3s-.3,2-.5,3c-.1.5-.1,1-.1,1.6,0,.4-.1.9-.1,1.3,0,0,.1.1.1,0,.5-.7.7-1.8.9-2.6.2-1,.3-2,.5-3,.1-1,.3-2,.4-3,.1-.5.1-1.1.2-1.6.2-.5.2-.9,0-1.3Z"/>
    <path class="cls-2" d="M103.3,91.5c-.1-.3-.2-.6-.4-.8s-.3-.4-.5-.6-.3-.4-.5-.6l-.3-.3s-.1-.1-.2-.1c-.1-.1-.2-.1-.3-.1-.2-.1-.4.1-.4.3v.3q0,.1.1.2c.1.1.2.3.2.4.1.2.3.5.4.7.2.2.3.5.5.7l.6.6c.1.1.4.1.5,0,.3-.3.4-.5.3-.7Z"/>
    <path class="cls-2" d="M165.1,75.2c-.4-.4-.9-.6-1.3-.5h0v-.1h0c.3.1.7.2,1,.2.2,0,.3-.3.1-.4-.6-.4-1.4-.6-2.1-.8-.7-.2-1.4-.3-2.1-.6-.7-.2-1.4-.4-2.1-.6-.4-.1-.7-.1-1.1-.2-.3,0-.6-.1-.9,0-.1,0-.2,0-.3-.1h-.5c-.1,0-.1-.1-.2-.1-.1-.1-.2-.1-.3-.1s-.3-.1-.4-.1h-.4c-.1,0-.2,0-.2.1-.3-.1-.5-.1-.8-.2-.2,0-.3-.1-.5-.1h-.4c-.1,0-.1.1,0,.1l.1.1s.1,0,.1.1c.1,0,.2.1.2.1h.5c.3,0,.5,0,.8.1,0,.1.1.1.1.2l.3.2c.1.1.3.1.4.1s.2.1.4.1h.4c.1,0,.1.1.2.1.3.1.7.2,1,.3.2,0,.3.1.5.1h.2c.1,0,.2,0,.3.1.7.2,1.5.3,2.2.4.8.1,1.5.3,2.2.6.1,0,.2.1.3.1h-.4v.3l.1.1v.1h0l.1.1h.1l.1.1h.2c.7.1,1.4.5,1.7,1.2.3.8.1,1.8-.1,2.6-.1.3-.2.6-.2,1-.1.1-.1.2-.2.2-.1.2-.3.3-.4.5-.1.2-.2.4-.4.5s-.3.3-.5.4-.3.3-.5.4l-.6.3c-.4.2-.9.3-1.3.4-.2.1-.1.3,0,.3.5-.1.9-.2,1.3-.4l.6-.3.6-.3c.2-.1.4-.2.5-.4.2-.1.4-.2.6-.4.2-.1.3-.3.4-.4h.7q0-.1.1-.2c.3-1,.6-2.1.6-3.1.3-.7-.1-1.6-.8-2.2Z"/>
    <path class="cls-2" d="M141.9,123v-.7c0-.2-.1-.4-.2-.7,0-.1-.1-.2-.2-.3.1-1.8.1-3.5.1-5.3,0-2.3-.1-4.6-.8-6.8-.7-2.2-1.8-4.2-2.9-6.2-1.3-2.3-2.6-4.5-4.1-6.7-1.5-2.1-2.8-4.6-4.7-6.3-.1-.1-.2,0-.2.1.8,1.7,2,3.2,3,4.7,1.1,1.8,2.2,3.7,3.2,5.5,1.9,3.4,4.2,7,4.7,11s-.1,8.2-.1,12.2c0,1.9-.2,3.5-2.2,4.1-2,.5-3.6-1.7-4.4-3.2-.9-1.9-1.8-3.7-2.5-5.7-.8-2.2-1.1-4.4-1.3-6.7q.1-.1.2-.2c.4-.4.8-.8,1.2-1.1.4-.4.9-.8,1.3-1.1.2-.2.5-.3.7-.4.3-.1.6-.3.8-.5s.1-.6-.2-.6-.6.2-.9.3c-.3.1-.5.2-.8.3-.6.3-1.2.5-1.7.9s-.9.8-1.3,1.2l-.1.1c-.1-.1-.3-.1-.5-.1-.4,0-.8,0-1.1-.4-.2-.2-.4-.5-.6-.7-1-1.2-1.9-2.4-2.9-3.6-.5-.6-.9-1.2-1.4-1.7s-1-1-.8-1.8c.1-.7.4-1.4.6-2.1.2-.6.6-1.2.3-1.9-.1-.2-.3-.2-.5-.1-.6.4-.7,1.3-.9,1.9-.2.6-.5,1.4-.4,2.1.1.6.5,1.2.8,1.8.3.6.8,1.2,1.2,1.8,1,1.3,2.1,2.6,3.1,3.8.4.5.7.8,1.3,1.1.2.1.5.2.7.2h.7c-.3.4-.7.8-.7,1.3,0,.3.2.5.5.5.2,2,.7,4.1,1.3,6,.6,2,1.3,4.1,2.5,5.8,1,1.4,2.1,2.8,3.8,3.3,1.4.4,2.9.8,4.2-.2.4-.3.7-.7.9-1.1v.1c.1.1.3.1.4-.1.1-.3.1-.5.1-.8.4-.6.5-1.3.6-2,.2-.2.2-.6.2-1Z"/>
    <path class="cls-2" d="M126.2,120c-1.1-1.3-2.4-2.4-3.9-3.2.4-.7.2-1.7-.2-2.4-.2-.4-.4-.8-.5-1.3v-1.3c0-.9,0-1.8-.1-2.7-.1-.8-.4-1.6-.7-2.3-.3-.7-.7-1.4-1.2-2-.6-.6-1.3-.9-2.1-1.4-.4-.2-.6-.5-1-.7-.5-.2-1-.4-1.5-.5-.2-.1-.4-.1-.6-.2h.1c.3-.1.7-.1,1-.2.4-.1.8-.3,1.2-.4.3-.2.6-.4.8-.6v.1c.1.2.2.3.3.4.1.1.2.1.3.2.1,0,.2.1.2.1.1,0,.2,0,.3.1h.4c.2.1.5,0,.7-.2,0,0,.1,0,.1.1.1,0,.2-.1.1-.2h-.1v-.4c0-.1-.1-.3-.2-.4l-.2-.2c-.1-.1-.2-.1-.2-.2-.1-.1-.2-.1-.3-.1h0v-.1q0-.1-.1-.2c.4-.3.7-.6,1-.9.6-.6,1-1.4,1.4-2.2,0-.1-.1-.2-.2-.1-.7,1.1-1.6,2.1-2.7,2.8-.2,0-.4,0-.6.1l-.1.1h0l-.1.1v.1c-.4.2-.8.2-1.1.3-.4.1-.7.3-1.1.4-.2.1-.4.1-.6.1h-.1c-.7.2-1.5.2-2.2.1-.4-.1-.8-.2-1.2-.2h-.7c-.2-.1-.4-.1-.6-.2-.9-.3-1.6-.7-2.4-1.2-.4-.2-.7-.5-1.1-.8-.3-.3-.6-.5-1.1-.6-.2,0-.3.1-.4.2h-.1c-.2.1-.4.1-.6.1s-.4,0-.6.1c-.1,0-.3,0-.4.1s-.2.1-.3.2c0-.9,0-1.8.2-2.7.2-1.1.7-2.1.9-3.2h0q.1,0,.1-.1h0c.1,0,.1-.1.1-.2v-.1s0-.1-.1-.1h0l-.1-.1h-.3q-.1,0-.2.1l-.1.1v.2s0,.1.1.1c0,0,.1,0,.1.1h0c-.9,1.3-1.1,3.3-1.2,4.7-.1,1.1.1,2.3-.2,3.4-.2,1.1-.9,2.1-1.5,3.1-1.1,1.7-2.3,3.3-3.6,4.8-.6.8-1.3,1.6-2,2.3-.6.6-1.4,1-2,1.7-2-.3-4-.7-6-1.2v-.8c0-.1,0-.3.1-.4.1-.3.1-.5.2-.8s.2-.5.3-.8h0c-.3.5-.6,1-.7,1.6-.1.4-.2.7-.3,1.1-.3-.1-.7-.2-1-.3-.1-.1-.2-.2-.3-.2-.3-.2-.6-.4-.8-.6-.3-.2-.5-.5-.7-.8s-.4-.5-.6-.7c-.2-.3-.5-.5-.7-.7s-.5-.5-.7-.8c-.1-.1-.2-.3-.2-.4-.1-.2-.2-.2-.4-.3-.2-.1-.5.1-.4.3.1.2.1.3.2.4s.2.2.4.3c.3.2.5.5.7.7.2.3.4.5.7.8.3.2.5.5.8.7s.5.4.8.6l.6.6c-.2.1-.3.5,0,.7,3.8,1.8,8.2,2.3,12.4,2.5,4.4.1,8.8-.1,13.2.4,4.3.4,8.8,1.1,12.5,3.5.2.1.4.3.6.4-.4-.1-.9-.1-1.3-.1-1-.1-2.2-.2-3.1.1-.3.1-.2.5,0,.6-.3.4-.6.8-1,1.1-.3.3-.6.7-.8,1-.5.8-.9,1.7-1.4,2.6-.4.8-.6,1.8-.6,2.7,0,.8,0,2.1.7,2.6.2.1.6.1.7-.2.2-.8-.2-1.6-.2-2.4,0-.9.2-1.7.3-2.5.2-.9.7-1.8,1.1-2.5.2-.3.4-.7.5-1,.2-.5.4-.9.7-1.3h0c.5.1,1,.1,1.6,0h1.5c.8,0,1.6.1,2.4.2,1,.9,1.9,2.1,2.3,3.4.6,2.1.1,4.2-1.4,5.7-.4.4-.8.7-1.3,1h0c-.3-.1-.6-.1-.9-.2h-2.9c-.6,0-1.3.1-1.9,0h-1c-.3,0-.6,0-.8.1-.1,0-.1.1-.1.2h0v.1h.1v.1h0c0,.1.1.1.1.2,0,0,.1,0,.1.1h.6c.1,0,.1-.1.2-.1,0,0,.1-.1.1-.2h0c.2,0,.4.1.6.1.6.1,1.3.2,1.9.2.6.1,1.3.1,1.9.1h.1c-3.3,1.2-7.3.8-10.6.6-5-.3-10-.9-15-1.1-4.8-.2-9.5.4-14.1,1.7-4.7,1.4-9.4,3-14.2,3.9-2.7.5-5.4.8-8.2.9-2.8.1-5.7.1-8.5-.3-2.8-.5-5.6-.9-8.3-1.5-2.3-.6-4.6-1.2-6.9-.1-.7.4-.2,1.4.5,1.2,2.5-.8,5.4.4,7.8.9,1.8.4,3.6.7,5.4.9-1.8.7-3.7,1.1-5.6,1.3-2.4.3-4.7.1-7.1.2-1.9.1-3.5,1.1-5.1,2.1-1.8,1.2-3.6,2.5-5.2,3.9-3.3,2.9-6.3,6-9.3,9.2-3.3,3.5-6.7,6.9-10.1,10.3-3.8,3.8-8,7.3-11.3,11.5-.4.5.3,1.1.8.7,3.9-2.7,7.2-6.2,10.6-9.6,3.4-3.3,6.7-6.8,10-10.2,2.9-3.1,5.8-6.3,8.9-9.2s6.5-6,10.4-7.8c1.5-.7,3-.4,4.5-.1,1.1.2,2.1.3,3.2.3,2.4-.1,4.8-.8,7-1.8.3-.1.4-.4.4-.6h.2c5.1.4,10.1.3,15.2-.3,5.1-.7,10-2.3,15-3.7,4.6-1.4,9.3-2.2,14.1-2.1-.2.4-.4.8-.5,1.1-.3.7-.4,1.5-.5,2.3-.1,1.6.1,3.2.9,4.5.7,1.2,1.8,2.2,3.2,2.8.7.3,1.4.3,2.1.3.3,0,.7,0,1.1-.2.2-.1.5-.3.6-.5s.1-.4.2-.6c.2-.3-.1-.6-.4-.7h0v-.1c.2-.3.4-.7.6-1,.5-.8.9-1.5,1.4-2.3.9-1.4,1.8-2.9,2.7-4.3.1-.2.1-.4.1-.5.5,0,1.1.1,1.6.1-1.5,2.6-2,5.5-1.1,8.4.4,1.5,1.1,2.8,2.1,3.9.9,1,2.4,2.2,3.8,1.8.4-.1.7-.3.7-.8.2-.2.4-.5.5-.7,0-.1.1-.2.1-.2.1.1.2.1.3,0,.3-.2.5-.3.7-.6s.4-.7.6-1.1c.3-.7.7-1.5,1-2.2s.6-1.5.8-2.3c.1-.4.2-.8.3-1.2,0-.4-.1-.8-.1-1.2q0-.1-.1-.2c.2-.1.3-.2.5-.3.6-.3,1.1-.7,1.5-1.3.3-.4.9-1.3.6-1.8,0-.1-.1-.3-.1-.4s-.1-.1-.1-.1v-.2c1.8-.5,3.4-1.3,4.7-2.6,2-2.3,1.7-6.1-.7-9ZM120.9,116.1c-1.7-.8-3.5-1.3-5.2-1.7-5-1.2-10.2-.8-15.3-.9-2.1,0-4.2-.2-6.3-.4.3-.3.7-.6,1-.8.5-.4.9-.8,1.3-1.3,0,.1,0,.2.1.2.3.5.8.8,1.3,1s1.1.4,1.7.5c.1,0,.3.1.4.1.2.1.4.1.6.1h.9c.3,0,.3-.4.1-.6-.2-.2-.4-.3-.6-.4h0l-.2-.2c-.1-.1-.3-.1-.4-.2-.5-.2-1-.3-1.4-.5-.2-.1-.4-.1-.6-.2-.1,0-.2-.1-.3-.1,0,0-.1,0-.1-.1h0c-.2-.1-.2-.2-.3-.3l-.1-.1h0v-.2c1.4-1.6,2.3-3.5,3.4-5.3.9-1.5,1.6-2.8,1.8-4.5.1.4.3.8.4,1.1.1.2.1.4.3.6.1.2.2.4.4.7.1.2.4.1.4-.1-.1-.2-.1-.5-.2-.7s-.2-.5-.3-.7c-.2-.5-.4-.9-.6-1.4-.1-.1-.2-.2-.4-.1h0v-.3l.1.1c.1.1.2.1.3.1s.2.1.4,0h.2c.3,0,.5-.1.7-.2.3-.1.5-.3.8-.4.2.2.4.3.7.4.5.2.9.5,1.4.7.9.5,1.8.8,2.7,1.2.2.1.5.2.7.3.2.2.4.3.6.4.4.1.8.2,1.2.3.5.5,1.4.4,2.1.7.8.3,1.5.7,2.3,1,1.6.5,2.7,2,3.2,3.6.2.7.1,1.5.2,2.2v2.3c0,.8,0,1.6.2,2.3.1.4.4.7.5,1.1-.1.2-.1.4-.1.7ZM103.6,136.3c-.4.7-.9,1.5-1.4,2.2,0,.1-.1.1-.1.2v-.1c0-.2-.1-.4-.3-.5l-.1-.1c.2-.2.3-.4.4-.6.2-.3.4-.6.6-.9.2-.3.4-.6.6-.9.1-.1.2-.3.3-.4h0c0,.2,0,.4.1.5,0,0,0,.1.1.1.1.1-.1.3-.2.5ZM105.1,134h-.3c-.2,0-.2.3,0,.3h.1c-.2.4-.5.8-.7,1.2l-.1-.1c-.1-.1-.1-.3-.1-.4,0-.2.1-.3.2-.5.1-.1.2-.2.3-.3h.1s.1,0,0-.1c0-.1-.1-.2-.1-.1-.2.1-.3.2-.5.4-.1,0-.1-.1-.2,0-.2.1-.3.1-.5.2-.2.1-.4.2-.5.4-.3.3-.6.5-.9.8-.2.3-.4.6-.6.9l-.3.6c-.1.2-.1.4-.1.6h0c0,.1-.1.2-.1.3s.1.3.2.3l.1.1.1.1c0,.1.1.1.1.2h0s0-.1-.1-.1c0,.1.1.1.1.2s0,.2.1.2c0,.1.1.1.2.1h.2c-.1.1-.1.2-.2.3-.2.2-.3.5-.4.7-.5,0-.9-.1-1.3-.2-1-.3-1.9-.9-2.4-1.8-.6-1.1-.8-2.4-.7-3.6,0-.6.2-1.3.3-1.9.1-.3.2-.6.3-.9.1-.2.2-.4.2-.6h.1c2.9.2,5.8.5,8.6.8-.4.6-.8,1.2-1.2,1.9ZM121.1,132.6c-.4.1-.5.4-.7.7s-.3.6-.5.8c-.4.4-.8.7-1.3.9s-1,.5-1.5.8c-.1.1-.2.2-.4.4h0q-.1.1-.2.2c-.1.1-.1.2-.1.3s-.1.2-.2.4c-.1.3-.2.5-.4.8-.1.3-.2.5-.4.8-.1.3-.2.5-.2.8,0,.2.2.3.3.2.2-.2.4-.4.5-.6.1-.2.3-.5.4-.7s.2-.3.3-.5h.3c.2-.1.3-.2.4-.4s0-.1.1-.2q.1-.1.2-.2c.1-.1.2-.1.3-.2.2-.1.4-.2.6-.3-.1.2-.3.3-.4.5-.1.1-.2.3-.3.5-.2.3-.3.7-.4,1-.3.7-.5,1.5-.8,2.2-.3.6-.5,1.3-.8,1.9,0-.2,0-.4-.1-.6-.1-.3-.1-.6-.3-.9-.1-.1-.2-.3-.3-.5-.1-.1-.3-.2-.5-.3-.3-.1-.6.1-.6.4v.4c0,.1.1.2.1.3h0v.1c0,.2.1.3.1.5h0v.2c.1.5.1.8,0,1.3-.1.4-.2.8-.4,1.2-.1.1-.2.3-.2.4-.1,0-.2-.1-.3-.1-.6-.1-1.2-.3-1.7-.6-1.1-.7-1.8-2-2.3-3.2-1-2.6-.6-5.8.7-8.2.1-.1.1-.2.1-.3,1.1.1,2.1.1,3.2.2,2.5.1,5.2.1,7.6-.5-.1.2-.2.3-.3.5.3-.4.4-.4.4-.4Z"/>
    <path class="cls-2" d="M112.5,110c-.5.1-1,.4-1.4.7l-.6.6c-.1.1-.2.3-.2.4-.1.2-.1.3-.1.5s.3.4.5.3c.1-.1.2-.1.3-.2l.3-.3c.1-.2.3-.4.4-.5s.1-.2.2-.3l.1-.1s0,.1,0,0l.1-.1.5-.5c.3-.2.2-.6-.1-.5Z"/>
    <path class="cls-2" d="M98.8,110.7v-.3h0v.2q-.1,0,0,.1l-.1.1v.1c0,.1.1,0,.1,0v-.2h0Z"/>
  </g>
</svg>