<?xml version="1.0" encoding="utf-8"?>
<!-- Generator: Adobe Illustrator 25.0.0, SVG Export Plug-In . SVG Version: 6.00 Build 0)  -->
<svg version="1.1" xmlns="http://www.w3.org/2000/svg" xmlns:xlink="http://www.w3.org/1999/xlink" x="0px" y="0px"
	 viewBox="0 0 400 300" style="enable-background:new 0 0 400 300;" xml:space="preserve">
<style type="text/css">
	.st0{fill:#FFFFFF;}
	.st1{fill:#003549;}
	.st2{fill:#004460;}
	.st3{fill:#E84F2D;}
</style>
<g id="fond_blanc">
	<path class="st0" d="M382.7,196.5c-0.8-0.8-1.9-0.9-3-0.9c-0.1,0-0.2,0-0.3,0c-0.1-0.1-0.1-0.1-0.2-0.2c-0.3-0.2-0.5-0.5-0.8-0.7
		c0.1-0.2,0.3-0.4,0.3-0.7c0.1-0.3,0.1-0.6,0-0.9c0-0.3-0.1-0.6-0.3-0.8c-0.1-0.1-0.2-0.3-0.3-0.4c-0.2-0.3-0.4-0.5-0.6-0.8
		c-0.2-0.2-0.4-0.5-0.6-0.7c-0.3-0.3-0.8-0.6-1.1-0.9c-0.1-0.1-0.2-0.2-0.3-0.2c-0.1,0-0.1-0.1-0.2-0.1c-0.1-0.1-0.2-0.1-0.3-0.1
		c-0.1,0-0.1-0.1-0.2-0.1c0-0.3-0.1-0.5-0.3-0.8c-0.1-0.2-0.3-0.4-0.4-0.6c-0.2-0.2-0.5-0.4-0.7-0.5c0-0.1,0-0.1,0-0.2
		c0-0.2-0.1-0.3-0.2-0.5c-0.1-0.1-0.2-0.3-0.3-0.4c0,0-0.1-0.1-0.1-0.1c-0.1-0.1-0.1-0.1-0.2-0.2c-0.2-0.2-0.5-0.4-0.8-0.6
		c-0.1-0.1-0.3-0.2-0.4-0.2c-0.1,0-0.1-0.1-0.2-0.1c-0.1,0-0.2-0.1-0.2-0.1c0,0-0.1-0.1-0.1-0.1c-0.3-0.3-0.6-0.6-1-0.9
		c-0.4-0.4-0.9-0.7-1.3-1c-0.3-0.2-0.6-0.4-1-0.6c0,0,0-0.1,0-0.1c-0.2-0.5-0.4-1-0.7-1.4c-0.3-0.4-0.6-0.9-1-1.3
		c-0.3-0.4-0.7-0.7-1.1-1c0,0,0,0-0.1-0.1c-0.3-0.4-0.5-0.7-0.7-1.1c-0.1-0.2-0.2-0.4-0.2-0.6c0-0.2-0.1-0.3-0.1-0.5
		c-0.2-0.6-0.4-0.9-0.8-1.3c-0.6-0.7-1.6-1.2-2.4-1.4c-0.1,0-0.2-0.1-0.4-0.1c-0.9-1.3-1.8-2.7-2.6-4.2c0.1,0,0.2,0,0.3-0.1
		c0.5,0,1,0,1.5-0.2c0.9-0.1,1.8-0.3,2.7-0.6c0.1,0.1,0.1,0.2,0.2,0.2c0.2,0.1,0.3,0.2,0.5,0.3c0.3,0.2,0.7,0.3,1.1,0.3
		c0.1,0,0.1,0,0.2,0c0.1,0,0.2,0,0.4,0c0.3,0,0.6-0.1,0.8-0.3c0.1-0.1,0.1-0.1,0.2-0.2c0,0,0,0,0,0c0.3-0.2,0.5-0.4,0.7-0.7
		c0.2-0.3,0.3-0.6,0.3-1c0-0.3-0.1-0.5-0.2-0.8c0.8-0.8,1.1-1.8,0.7-2.9c-0.2-0.4-0.5-0.8-0.9-1.1c0-0.1-0.1-0.2-0.1-0.2
		c-0.5-0.8-1.3-1.2-2.1-1.2c-0.1-0.1-0.1-0.1-0.2-0.2c-0.2-0.9-0.8-1.4-1.7-1.5c0,0,0.1,0,0.1-0.1c0.3-0.2,0.6-0.4,0.8-0.7
		c0.4-0.5,0.6-1,0.6-1.6c0-0.5-0.1-0.9-0.4-1.4c-0.2-0.4-0.7-0.8-1.2-1.1c0,0-0.1-0.1-0.1-0.1c0-0.3,0-0.6-0.1-0.8
		c-0.2-0.6-0.7-1.2-1.2-1.5c0,0,0,0-0.1-0.1c0-0.3-0.1-0.6-0.1-0.8c0.1-0.3,0.2-0.6,0.2-0.9c0-0.5-0.2-1-0.5-1.4
		c-0.3-0.4-0.7-0.7-1.2-0.8c-0.1,0-0.1,0-0.2,0c0.5-0.3,1-0.9,1.1-1.4c0.3-1.3-0.4-2.6-1.7-2.9c-0.6-0.2-1.2-0.4-1.9-0.4
		c-0.1,0-0.3,0-0.4,0.1c-0.1-1.5-0.4-3-0.7-4.5c0.1-0.1,0.1-0.1,0.2-0.1c0.1-0.1,0.2-0.2,0.3-0.3c0,0,0,0,0,0l0.3-0.2l0.3-0.4
		c0.1-0.2,0.1-0.3,0.2-0.5c0.1-0.4,0.1-0.9-0.1-1.3c-0.1-0.3-0.3-0.6-0.6-0.8c-0.3-0.2-0.8-0.5-1.2-0.4c-0.1,0-0.2,0-0.2,0
		c-0.1,0-0.2,0-0.3,0c0,0,0,0,0,0c0-0.1-0.1-0.2-0.1-0.4c0,0,0.1,0,0.1,0c0.6-0.4,1-0.9,1.2-1.5c0.2-0.6,0.1-1.4-0.3-2
		c-0.1-0.2-0.3-0.4-0.5-0.6c-0.1-0.1-0.2-0.2-0.3-0.3c-0.1-0.3-0.2-0.5-0.4-0.7c-0.3-0.3-0.5-0.4-0.9-0.5c0.1,0.1,0.3,0.1,0.4,0.2
		c-0.2-0.1-0.4-0.2-0.5-0.2c-0.1,0-0.1,0-0.2,0c0,0,0,0,0.1,0c0,0-0.1,0-0.1,0c0,0,0,0,0,0c0,0,0,0,0,0c-0.5-0.1-1-0.1-1.4,0
		c-0.1-0.2-0.2-0.4-0.4-0.6c0.2-0.1,0.3-0.3,0.4-0.4c0.8-1.1,0.9-2.4-0.2-3.3c-0.9-0.7-1.9-0.4-2.9,0.1c-0.7-0.8-1.4-1.5-2.1-2.3
		c0.1-0.7-0.1-1.3-0.8-1.8c-0.5-0.4-1.1-0.4-1.7-0.3c-0.6-0.4-1.2-0.9-1.8-1.3c-0.8-0.5-1.6-1-2.5-1.5c0.6-0.3,1.2-0.6,1.8-0.9
		c1.2-0.6,1.6-2.2,1.1-3.4c-0.5-1.3-1.8-1.8-3.2-1.6c-0.4,0.1-0.7,0.1-1.1,0.2c0,0,0,0,0,0c0,0-0.1,0-0.1,0c-0.2,0-0.3,0-0.5,0.1
		c-0.8,0.1-1.6,0.1-2.4,0.1c-1.6,0-3.1-0.2-4.7-0.2c-1,0-1.9,0.7-2.2,1.5c-0.6-0.2-1.3-0.3-1.9-0.4c1.2-1.1,2.4-2.3,3.7-3.4
		c1.5-1.3,3.1-2.6,4.7-3.9c0.8-0.6,1.6-1.2,2.4-1.9c0.4-0.3,0.9-0.6,1.3-1c0.4-0.4,0.7-0.9,1-1.3c0.9-1.3-0.6-2.8-1.9-2.5
		c-0.7,0.2-1.4,0.4-2.1,0.8c-0.1,0-0.2-0.1-0.3-0.1c-0.2,0-0.5,0-0.7-0.1v0c-2.3,0.1-4.6,0.1-6.8,0c-1.6-0.1-3.8-0.7-5.5-0.3
		c0.1-0.1,0.2-0.2,0.3-0.3c0.5-0.4,1-0.9,1.4-1.4c0.4-0.5,0.9-0.9,1.3-1.4c0.3-0.3,0.6-0.7,0.8-1c0.1-0.1,0.2-0.3,0.3-0.4
		c0,0,0-0.1,0-0.1c0,0,0,0,0,0c0,0,0,0,0,0c0.6-0.1,1-0.3,1.5-0.5c0.7-0.3,1.1-1.3,1-2.1c-0.1-0.8-0.7-1.6-1.5-1.7
		c-0.4-0.1-0.8-0.2-1.2-0.1c-0.3,0-0.5,0.1-0.8,0.1c-0.7,0.1-1.4,0.2-2.1,0.3c-1,0.1-2.1,0.3-3.1,0.5c-1,0.2-2.1,0.4-3.1,0.7
		c-0.4,0.1-0.8,0.2-1.1,0.4c-2.3,0-4.6,0-6.9,0c-1.8,0-3.6,0-5.3-0.1c-1.7,0-3.6-0.2-5.3,0.2c-0.8,0-1.5,0-2.3,0.1
		c0.1-0.4,0.1-0.7,0.2-1.1c0.2-1.4,0.4-2.8,0.6-4.2c1.3-1.4,1-4-0.7-4.9c-0.6-0.7-1.7-0.9-2.5-0.4c-31.8-0.2-63.6-0.2-95.4,0.7
		c-2.8,0.1-5.5,0.2-8.3,0.3c0,0-0.1,0-0.1,0c-0.7-0.5-1.6-0.8-2.7-0.4c-0.1,0-0.2,0.1-0.4,0.2c-0.5,0-1,0-1.5,0.1
		c-0.5,0.1-1,0.2-1.5,0.3c-1.3,0.1-2.5,0.1-3.8,0.2c-3.1,0.1-6.2,0.2-9.4,0.4c-0.8,0-1.4,0.3-1.9,0.8c-2.4-0.1-4.8-0.2-7.2-0.4
		c-0.4,0-0.8,0.1-1.2,0.3c-0.8-0.6-2-0.6-2.7,0.2c-2.3,2.7-3.9,5.9-5.4,9.2c-1.4,3.1-2.7,6.3-3.9,9.5c-2.5,6.8-4.5,13.7-6.5,20.7
		c-4.3,14.5-8.2,29-11.9,43.6c-1,4.1-2.1,8.2-3.1,12.3c-1,4.2-2.2,8.3-3.2,12.6c-0.2,1.1,0.1,2,0.7,2.6c-5.6,0.6-11.1,1.4-16.7,2
		c-6.9,0.8-13.8,1.6-20.7,2.4c-13.8,1.6-27.6,3.3-41.4,4.9c-3.9,0.5-7.8,0.9-11.7,1.4c-3.8,0.4-8,0.6-11.7,1.7
		c-2.4,0.7-1.8,4,0.6,4.2c1.3,0.1,2.6,0,4-0.1c0.1,0.3,0.3,0.5,0.6,0.7c1.4,1,3,1.3,4.6,1.7c1.7,0.4,3.4,0.8,5,1.2
		c3.2,0.8,6.3,1.7,9.5,2.6c6.4,1.9,12.7,4.1,18.9,6.3c12.4,4.5,24.8,9.4,37.3,13.8c3.5,1.2,7,2.4,10.6,3.5c1.8,0.6,3.6,1.1,5.5,1.7
		c1.7,0.5,3.3,1,5,1.2c1.4,0.6,2.8,1.1,4.1,1.7c3,1.2,6,2.3,9,3.5c2.9,1.1,5.7,2.3,8.6,3.1c2.9,0.9,6,1,9,0.6
		c0.2,0.1,0.5,0.2,0.8,0.2c2,0.1,4.2-0.3,6.2-0.6c2-0.3,4-0.6,6.1-0.9c4-0.6,8.1-1.2,12.1-1.8c4-0.6,8-1.3,11.9-2.2
		c3.8-0.9,7.6-2.2,11.4-3.3c7.4-2.2,14.9-4,22.5-5.4c7.5-1.5,15.1-2.7,22.5-4.5c4.2-1,8.4-2.2,12.5-3.7c1.4-0.5,2.7-1,3.8-2
		c0,0,0.1,0,0.1,0c1.1-0.2,1.9-0.9,2.3-1.8c0.4-0.1,0.8-0.3,1.2-0.4c1.2-0.1,2.4-0.7,3.5-1c2-0.6,4-1.3,6-1.9
		c0.9-0.3,1.9-0.5,2.8-0.8c0,0.5,0,1,0,1.5c0,2.5-0.2,5.6,0.8,7.9c0.1,0.2,0.2,0.3,0.4,0.5c-0.5,0.7-0.1,1.9,1,1.9
		c0.7,0,1-0.5,1.1-1c0.2,0,0.3,0.1,0.5,0.1c2.2,0,2.5-2.8,1-3.7c0,0,0-0.1,0.1-0.1c0.1-0.2,0.1-0.5,0-0.7c0-0.2,0-0.3-0.1-0.5
		c-0.1-0.2-0.2-0.4-0.4-0.6c-0.1-0.1-0.2-0.2-0.4-0.3c-0.1,0-0.1,0-0.2-0.1c-0.1-1.3-0.1-2.6-0.2-4c0-0.7,0-1.3,0-2
		c5.8-1.6,11.6-3,17.5-4.3c16.4-3.6,32.9-6.3,49.3-9.7c9.3-2,18.6-4.1,27.7-6.8c0.1,0,0.3-0.1,0.4-0.2c0.5,0,1-0.1,1.5-0.1
		c1-0.1,2.2-0.2,2.9-1C383.3,198.2,383.4,197.2,382.7,196.5z M117.9,200.9c-2.8,0.2-5.6,0.4-8.5,0.5c0,0-0.1,0-0.1,0
		c3-0.3,6-0.6,9-0.9C118.1,200.6,118,200.7,117.9,200.9z M228.6,88.3c-0.7-0.5-1.5-0.8-2.4-1.1c4.7,0,9.4-0.1,14.1-0.1
		C236.5,87.6,232.5,88,228.6,88.3z M324.8,104.5c-0.1-0.3-0.1-0.5-0.2-0.8c0.3,0,0.6,0.1,0.9,0.1C325.3,104.1,325,104.3,324.8,104.5
		z"/>
</g>
<g id="Calque_1">
	<path class="st1" d="M246.4,211.1c-1.1-1-2.7-1-4.2-1.3c-1.4-0.2-2.8-0.4-4.3-0.6c-2.8-0.4-5.8-1.2-8.7-0.8
		c-1.1,0.1-1.4,1.6-0.9,2.4c-0.1,0-0.2,0-0.3-0.1c-2.9-0.6-5.8-1.2-8.8-1.8c-5.9-1.2-11.7-2.2-17.6-3.3c-11.8-2.1-23.6-4-35.4-5.9
		c-3.1-0.5-6.2-1.1-9.4-1.5c-3.6-0.4-7.1-0.7-10.7-1.2c-0.4-0.1-0.6,0.6-0.2,0.7c2.9,0.5,5.8,1.3,8.7,1.9c2.9,0.7,5.8,1.2,8.8,1.7
		c6,1.1,11.9,2.2,17.9,3.3c11.7,2.2,23.4,4.5,35.2,6.8c3.3,0.6,6.6,1.2,9.9,1.9c1.7,0.3,3.3,0.6,5,0.9c1.7,0.3,3.3,0.2,5,0.4
		c0.9,0.1,1-1.2,0.2-1.5c-0.2-0.1-0.3-0.1-0.5-0.2c0.3,0,0.6,0.1,1,0.1c1.4,0.2,2.7,0.4,4.1,0.7c1.6,0.3,3.2,0.8,4.8,0.1
		C247,213.5,247.2,211.8,246.4,211.1z"/>
	<path class="st1" d="M109.2,231.5c-4.5-0.9-8.9-1.7-13.2-3c-4.4-1.3-8.6-3-12.9-4.6c-4.3-1.6-8.6-3.4-13-4.7
		c-4.3-1.3-8.6-2.7-13.1-3.5c0,0,0-0.1-0.1-0.1l-0.1,0c-0.1-0.1-0.1-0.1-0.2-0.2c-0.2-0.2-0.5-0.3-0.7-0.4c2,0,3.9-0.5,5.9-0.9
		c2.9-0.5,5.8-0.7,8.6-1.2c2.8-0.4,5.5-1,8.3-1.5c1.4-0.2,2.8-0.5,4.1-0.7c1.5-0.3,2.9-0.4,4.4-0.9c0.5-0.2,0.5-1-0.1-1
		c-2.6,0-5.3,0.6-7.9,1.1c-2.9,0.5-5.7,0.8-8.6,1.3c-2.8,0.5-5.6,1.2-8.4,1.6c-2.7,0.4-5.4,0.4-7.7,1.7c-0.1,0.1-0.1,0.2,0,0.3
		c-0.2,0-0.3,0.1-0.5,0.1c-0.3,0.1-0.3,0.6,0.1,0.6c0.3,0,0.5,0.1,0.7,0.2c0.3,0.1,0.5,0.1,0.8,0.2c0,0,0.1,0,0.1,0c0,0,0,0,0,0
		c0,0,0,0,0,0c0.1,0,0.2,0.1,0.2,0.1c0.1,0,0.1,0,0.2,0.1c0,0,0,0,0,0c0,0,0.1,0,0.1,0c0.1,0.1,0.2,0.1,0.4,0.2
		c0.2,0.1,0.3,0.2,0.5,0.2c0,0,0.1,0,0.1-0.1c4.5,1,8.8,2.2,13.1,3.9c4.2,1.7,8.5,3.3,12.8,5c4.2,1.6,8.6,3.1,13,4.3
		c4.3,1.2,8.8,2.2,13.3,2.2C109.4,231.9,109.4,231.6,109.2,231.5z"/>
	<path class="st1" d="M140.7,227c-2,0-4.1,0.6-6,1c-2.2,0.4-4.4,1-6.6,1.4c-4.3,0.8-8.7,1.2-13,1.9c-0.3,0-0.2,0.4,0.1,0.4
		c4.4-0.1,8.7-0.7,13-1.4c2.2-0.3,4.3-0.6,6.4-1c2.1-0.4,4.4-0.7,6.3-1.7C141.2,227.5,141,227,140.7,227z"/>
	<path class="st1" d="M242.1,220.1c-4.4,0.2-8.5,1.8-12.7,3c-4.2,1.2-8.6,2-12.9,3c-4.3,1-8.4,2.5-12.7,3.6
		c-2.2,0.6-4.4,1.1-6.5,1.7c-1,0.3-2,0.6-3,0.8c-0.9,0.2-1.8,0.2-2.6,0.4c-0.1-0.3-0.3-0.6-0.6-0.7c-3.8-1.1-7.9-1.6-11.7-2.5
		c-4-0.9-7.9-2.1-11.9-3c-3.3-0.8-6.6-1.6-9.8-2.5c0.5-0.2,1-0.4,1.6-0.5c0.9-0.3,1.8-0.7,2.7-1.1c0.2-0.1,0.2-0.3,0.2-0.5
		c-0.1-0.2-0.3-0.3-0.5-0.2c-1,0.1-1.9,0.3-2.8,0.5c-0.9,0.2-1.9,0.4-2.8,0.8c-0.2,0.1-0.3,0.3-0.3,0.5c-3.7-1-7.3-2.2-10.9-3.3
		c0,0,0,0,0,0c-0.2-0.1-0.4-0.2-0.6-0.3c-0.2-0.1-0.4-0.1-0.6-0.1c0.1,0,0.2-0.1,0.3-0.1c0.1,0,0.1-0.1,0-0.2c0-0.1-0.1-0.1-0.2,0
		c-0.2,0.1-0.4,0.2-0.6,0.3c-0.1,0-0.2,0-0.3,0c-0.4,0-0.8-0.1-1.2-0.1c0,0-0.1,0-0.1,0c0.3-0.2,0.4-0.7,0-0.8c-2.2-1-4.8-1.5-7.1-2
		c-2.6-0.6-5.1-1.1-7.7-1.6c-4.8-1-9.7-1.9-14.5-2.4c-2-0.3-4-0.6-6-1.1c-3.8-0.8-7.5-1.9-11.2-3c-3.8-1.1-7.5-2.2-11.3-3.3
		c-2-0.6-3.9-1.1-5.9-1.7c-1.8-0.5-3.7-1.1-5.6-1.1c-0.1,0-0.2,0-0.3,0.1c0,0,0,0,0,0c-0.1-0.1-0.2-0.1-0.3-0.2
		c-0.1,0-0.2-0.1-0.2-0.1c-0.2-0.1-0.5-0.2-0.7-0.2c0.7-0.1,1.4-0.2,2.1-0.3c0.5-0.1,1-0.2,1.5-0.3c0.3-0.1,0.5-0.1,0.8-0.2
		c0.3-0.1,0.5-0.2,0.8-0.3c0.5-0.2,0.2-1-0.3-1c-1.1,0-2.1,0.3-3.1,0.7c-1,0.3-2,0.6-3,1c-0.3,0.1-0.3,0.6,0.1,0.6c0,0,0,0,0,0
		c0,0,0,0,0,0c-0.2,0-0.3,0-0.5,0c-0.1,0-0.1,0.1,0,0.1c0.1,0.1,0.3,0.1,0.4,0.2c0.1,0.3,0.5,0.5,0.7,0.6c0.4,0.2,0.7,0.2,1.1,0.3
		c0.1,0,0.2,0,0.4,0c0.1,0,0.2,0,0.2,0c0.1,0,0.3,0,0.4,0.1c1.5,0.8,3.3,1.3,4.9,1.9c2,0.6,3.9,1.2,5.9,1.7
		c3.9,1.1,7.7,2.2,11.6,3.3c2.6,0.7,5.2,1.3,7.9,1.9c0,0,0,0.1,0.1,0.1c1.5,0.5,3,1,4.5,1.4c1.6,0.4,3.3,0.8,4.9,1.2
		c3.1,0.8,6.3,1.8,9.4,2.6c3,0.8,6.1,1.8,9.1,2.7c3.1,0.9,6.1,2.1,9.2,2.5c0.4,0,0.5-0.5,0.2-0.7c-2.8-1.4-5.9-2-8.9-2.8
		c-3.1-0.9-6.3-1.6-9.4-2.5c-3-0.8-6.1-1.6-9.2-2.4c-0.9-0.2-1.8-0.5-2.7-0.7c1.9,0.3,3.7,0.6,5.6,0.7c3.7,1,7.4,1.8,11.1,2.6
		c2.5,0.5,4.9,1.1,7.4,1.5c2,0.4,4.1,0.9,6.1,1c0,0.1,0.1,0.1,0.1,0.1c0.4,0.1,0.9,0.2,1.3,0.3c0.4,0.1,0.8,0.3,1.2,0.4
		c0.4,0.1,0.8,0.3,1.3,0.4c0.2,0,0.4,0,0.7,0c0.1,0,0.3-0.1,0.4-0.2c7.4,2.6,14.9,5.2,22.5,7.5c3.8,1.1,7.7,2,11.6,3
		c3.8,0.9,7.6,2.1,11.4,2.6c0,0.2,0.2,0.4,0.5,0.4c1.1-0.1,1.8-0.7,2.8-1c1.1-0.3,2.2-0.5,3.3-0.7c2.2-0.5,4.4-1.1,6.5-1.6
		c4.4-1.1,8.8-1.8,13.2-3c4.3-1.2,8.6-2.6,13-3.5c4.2-0.9,8.6-1.4,12.5-3.4C242.4,220.5,242.3,220.1,242.1,220.1z"/>
	<path class="st1" d="M154.8,204.2c-2.8-0.8-5.8-1.4-8.6-2.1c-2.7-0.6-5.4-1.4-8.1-2.1c-5.6-1.3-11.2-2.7-16.8-4
		c-0.6-0.1-0.8,0.8-0.2,0.9c5.6,1.3,11.2,2.6,16.8,3.9c2.5,0.6,5.1,1.1,7.6,1.6c-0.2,0.1-0.5,0.2-0.7,0.3c-0.3,0.1-0.5,0.2-0.8,0.4
		c-0.2,0.1-0.5,0.3-0.7,0.4c-0.2,0.2-0.5,0.3-0.7,0.5c-0.2,0.2,0,0.4,0.2,0.4c0.3,0,0.5-0.2,0.8-0.3c0.3-0.1,0.5-0.2,0.8-0.3
		c0.3-0.1,0.5-0.3,0.8-0.4c0.3-0.1,0.5-0.3,0.8-0.4c0.2-0.1,0.2-0.3,0.1-0.5c0,0,0,0,0,0c0,0,0,0,0,0c2.9,0.7,5.8,1.4,8.7,2
		C154.9,204.5,155,204.2,154.8,204.2z"/>
	<path class="st1" d="M166.3,210.1c-1.3-0.4-2.7-0.7-4-1c-0.1,0-0.1,0-0.2,0.1c-3.9-1.1-7.9-2-11.9-3c-0.2,0-0.3,0.2-0.1,0.3
		c4.8,1.4,9.7,2.8,14.6,3.8c0.1,0,0.2-0.1,0.2-0.2c0.4,0.1,0.9,0.2,1.3,0.3C166.4,210.4,166.5,210.1,166.3,210.1z"/>
	<path class="st1" d="M196.4,214.8c-1.1,0-2.2,0-3.3,0.2c-0.5,0.1-1,0.2-1.5,0.4c0,0-0.1,0-0.1,0c-4.9-1-9.8-2-14.7-3
		c0,0-0.1,0.1,0,0.1c4.8,1,9.7,2,14.5,3c-0.1,0.1-0.3,0.1-0.4,0.2c-0.2,0.1-0.5,0.2-0.7,0.4c-0.1,0.2-0.1,0.5,0.1,0.5
		c0.2,0,0.5,0,0.7,0c0.3,0,0.5-0.1,0.8-0.1c0.5-0.1,1-0.2,1.5-0.3c0.2-0.1,0.4-0.1,0.7-0.1c0.6,0.1,1.2,0.3,1.8,0.4
		c0.1,0,0.1-0.1,0-0.1c-0.5-0.1-1-0.2-1.5-0.3c0.7-0.1,1.3-0.2,2-0.3C197,215.7,197,214.8,196.4,214.8z"/>
	<path class="st1" d="M147.4,210c-2.6-1.1-5.5-1.6-8.3-2.3c-3-0.8-6-1.6-8.9-2.6c-2.9-0.9-5.7-1.9-8.6-2.8c-1.4-0.5-2.8-0.9-4.2-1.4
		c-1.4-0.5-2.8-1.2-4.3-1.1c-0.1,0-0.2,0.2-0.1,0.3c0.9,0.9,2.1,1.2,3.3,1.6c1.5,0.5,2.9,1,4.4,1.5c2.9,1,5.9,1.8,8.9,2.7
		c2.9,0.8,5.8,1.7,8.7,2.6c2.9,0.8,5.9,2,8.9,2.3C147.6,210.8,147.8,210.1,147.4,210z"/>
	<path class="st1" d="M180,219.9c-1.7-0.8-3.6-1.2-5.4-1.7c-1.9-0.5-3.8-0.9-5.7-1.3c-3.9-0.8-7.8-1.4-11.7-1.9
		c-0.1,0-0.2,0.2,0,0.2c3.8,0.6,7.6,1.4,11.4,2.4c1.8,0.5,3.6,1,5.4,1.4c1.9,0.5,3.9,1.3,5.8,1.6C180.1,220.6,180.4,220.1,180,219.9
		z"/>
	<path class="st1" d="M108.8,203.7c-1-0.5-2.1-0.7-3.1-1c-1-0.3-2.1-0.6-3.2-0.8c-2.1-0.5-4.3-0.7-6.5-1c-0.4,0-0.4,0.5-0.1,0.6
		c2.1,0.5,4.2,1.1,6.4,1.6c1,0.2,2.1,0.5,3.1,0.7c1.1,0.2,2.1,0.5,3.2,0.6C109,204.5,109.2,203.9,108.8,203.7z"/>
	<path class="st1" d="M154.3,218.6c-3.6-1-7.1-1.9-10.7-2.9c0,0,0.1,0,0.1,0c0.7-0.2,1.4-0.4,2.1-0.6c0.4-0.1,0.2-0.7-0.2-0.6
		c-0.7,0.1-1.4,0.3-2.2,0.4c-0.3,0.1-0.7,0.1-1.1,0.2c-0.2,0.1-0.3,0.1-0.5,0.2c-1.2-0.3-2.4-0.6-3.6-1c-2.6-0.7-5.3-1.4-7.9-2
		c-2.5-0.6-5.2-1.6-7.8-1.4c-0.1,0-0.1,0.1,0,0.2c2.2,1.4,5,1.8,7.5,2.4c2.6,0.6,5.3,1.3,7.9,1.9c5.4,1.2,10.8,2.5,16.2,3.6
		C154.4,218.9,154.5,218.6,154.3,218.6z"/>
	<path class="st1" d="M187.1,225.9c-1-0.5-2.2-0.8-3.3-1.2c-1.1-0.4-2.1-0.7-3.2-1c-2.2-0.7-4.4-1.4-6.7-1.9
		c-0.5-0.1-0.6,0.5-0.2,0.7c2.1,0.9,4.4,1.5,6.6,2.2c1.1,0.3,2.1,0.7,3.2,1c1.1,0.3,2.2,0.8,3.3,0.9
		C187.3,226.7,187.4,226.1,187.1,225.9z"/>
	<path class="st1" d="M214.9,216.9c0,0-0.1,0-0.1,0c-0.1,0-0.1,0-0.2,0c-0.1,0-0.1,0-0.2,0.1c-0.1,0-0.1,0-0.2,0.1
		c-4.8-1.5-9.8-2.6-14.7-3.8c-2.5-0.6-4.9-1.3-7.4-1.9c-2.4-0.6-4.8-1.3-7.3-1.5c-0.3,0-0.3,0.4-0.1,0.5c2.4,1,5.1,1.5,7.6,2.1
		c2.4,0.6,4.8,1.1,7.1,1.6c2,0.5,3.9,1,5.9,1.4c-0.5,0-1.1,0.2-1.6,0.3c-0.1,0-0.3,0.1-0.4,0.1c-0.1,0-0.2,0.1-0.4,0.2
		c-0.3,0.1-0.5,0.2-0.8,0.3c-0.2,0.1-0.1,0.4,0.1,0.3c0.3,0,0.6-0.1,0.8-0.1c0.1,0,0.2,0,0.3-0.1c0.1,0,0.3-0.1,0.4-0.1
		c0.5-0.2,1-0.4,1.5-0.6c0.1-0.1,0.1-0.2,0-0.3c2.6,0.6,5.1,1.2,7.7,1.7c-0.2,0.1-0.4,0.1-0.6,0.3c0,0-0.1,0.1-0.1,0.1
		c0,0-0.1,0-0.1,0.1c-0.1,0.1-0.1,0.1-0.2,0.2c-0.1,0.1-0.1,0.2-0.1,0.3c-0.1,0.1,0,0.4,0.2,0.4c0.1,0,0.2,0.1,0.3,0.1
		c0.1,0,0.2,0,0.2,0c0.1,0,0.1,0,0.2,0c0,0,0.1,0,0.1,0c0.3,0,0.6-0.2,0.8-0.4c0.2-0.1,0.4-0.2,0.6-0.3c0.1-0.1,0.2-0.1,0.3-0.2
		c0.1,0,0.1-0.1,0.2-0.1c0.1-0.1,0.1-0.1,0.2-0.2c0,0,0,0,0.1-0.1C215.3,217.3,215.2,216.9,214.9,216.9z"/>
	<path class="st1" d="M123.6,198.4c-0.2,0-0.4,0-0.5,0.1c-0.2,0-0.3,0.1-0.5,0.1c-0.3,0.1-0.6,0.2-0.9,0.2c-0.3,0.1-0.6,0.2-0.9,0.3
		c-0.3,0.1-0.6,0.2-0.9,0.4c-0.3,0.2-0.2,0.6,0.2,0.6c0.3,0,0.7-0.1,1-0.1c0.3-0.1,0.6-0.1,0.9-0.2c0.3-0.1,0.6-0.2,0.9-0.2
		c0.2,0,0.3-0.1,0.5-0.1c0.2-0.1,0.3-0.1,0.5-0.2C124.2,199,124,198.3,123.6,198.4z"/>
	<path class="st1" d="M137.7,201.6c-0.4,0.1-0.7,0.3-1.1,0.4l-0.5,0.2c-0.2,0.1-0.3,0.2-0.5,0.3c-0.2,0.1-0.1,0.5,0.2,0.4
		c0.2-0.1,0.4-0.1,0.5-0.2c0.2-0.1,0.3-0.2,0.5-0.3c0.3-0.2,0.7-0.4,1-0.6C138,201.8,137.8,201.6,137.7,201.6z"/>
	<path class="st1" d="M170.2,207.5c-0.8,0.2-1.5,0.5-2.3,0.7c-0.4,0.1-0.7,0.2-1.1,0.4c-0.4,0.1-0.8,0.2-1.2,0.5
		c-0.2,0.1-0.1,0.5,0.1,0.5c0.4,0,0.8-0.2,1.2-0.2c0.4-0.1,0.8-0.2,1.1-0.3c0.8-0.2,1.5-0.5,2.3-0.7
		C170.9,208.1,170.7,207.4,170.2,207.5z"/>
	<path class="st1" d="M176.8,210.7c-1.3-0.3-2.7,0-3.7,0.9c-0.1,0.1,0.1,0.4,0.2,0.3c1-0.7,2.2-1.2,3.4-1.1
		C176.9,210.9,176.9,210.7,176.8,210.7z"/>
	<path class="st1" d="M187.4,211.4c-0.4-0.1-0.8-0.3-1.2-0.3c-0.5,0-0.9,0-1.4,0.1c-0.4,0.1-0.8,0.2-1.2,0.3
		c-0.2,0.1-0.4,0.2-0.6,0.3c-0.2,0.1-0.4,0.3-0.6,0.5c-0.2,0.2-0.2,0.6,0,0.8c0.2,0.3,0.5,0.3,0.8,0.2c0.2-0.1,0.3-0.1,0.6-0.2
		c0.2-0.1,0.3-0.2,0.5-0.2c0.3-0.1,0.6-0.3,1-0.4c0.3-0.1,0.7-0.1,1-0.2c0.4,0,0.8-0.1,1.1-0.1C187.8,212.2,187.8,211.6,187.4,211.4
		z"/>
	<path class="st1" d="M155.2,215.2c-0.1-0.2-0.3-0.4-0.6-0.3c-0.3,0.1-0.7,0.2-1,0.3c-0.2,0-0.3,0.1-0.5,0.1c-0.1,0-0.2,0.1-0.3,0.1
		c-0.1,0-0.1,0-0.2,0.1c-0.1,0-0.1,0.1-0.2,0.1c-0.2,0.2-0.1,0.5,0.2,0.6c0.1,0,0.1,0.1,0.2,0.1c0.1,0,0.1,0,0.2,0
		c0.1,0,0.2,0,0.3-0.1c0.2,0,0.3-0.1,0.5-0.1c0.3-0.1,0.7-0.2,1-0.3C155.1,215.7,155.3,215.4,155.2,215.2z"/>
	<path class="st1" d="M123.4,209.3c-1-0.5-2.3-0.5-3.4-0.7c0.3-0.1,0.6-0.2,0.9-0.4c0.6-0.2,0.2-1.2-0.4-1c-0.8,0.3-1.7,0.6-2.5,0.9
		c-0.1,0-0.2,0.1-0.3,0.1c-0.5-0.1-1-0.1-1.5-0.2c-2.5-0.3-5-0.5-7.6-0.8c-0.5-0.1-0.6,0.8-0.1,0.9c2.2,0.4,4.4,0.9,6.7,1.3
		c-0.1,0.1-0.1,0.3-0.1,0.5c0,0,0,0.1,0.1,0.2c0.2,0.2,0.4,0.4,0.7,0.3c0.5-0.1,1.1-0.3,1.6-0.6c0.7,0.1,1.4,0.2,2.1,0.3
		c1.2,0.2,2.5,0.5,3.7,0.3C123.8,210.3,123.9,209.5,123.4,209.3z"/>
	<path class="st1" d="M106.5,207.1c-0.4,0.1-0.8,0.3-1.3,0.4c-0.2,0-0.4,0.1-0.6,0.1c-0.2,0.1-0.4,0.1-0.6,0.2
		c-0.4,0.1-0.8,0.3-1.2,0.4c-0.5,0.2-1.1,0.4-1.3,0.9c-0.1,0.2,0,0.6,0.3,0.7c0.3,0.2,0.6,0.1,0.9,0c0.2-0.1,0.4-0.2,0.7-0.3
		c0.4-0.2,0.8-0.4,1.2-0.6c0.2-0.1,0.4-0.2,0.6-0.3c0.2-0.1,0.3-0.2,0.5-0.4c0.4-0.3,0.8-0.5,1.2-0.7
		C107.1,207.5,106.9,207,106.5,207.1z"/>
	<path class="st1" d="M146,218.2c-0.1-0.1-0.2-0.2-0.4-0.1l-0.8,0.5c0,0,0,0,0,0c0,0-0.1-0.1-0.1-0.1l-0.5,0c-0.1,0-0.1,0.1-0.1,0.1
		c0,0.1,0.1,0.1,0.1,0.1c0.1,0,0.2,0,0.3,0c-0.1,0.1-0.2,0.2-0.4,0.3c-0.1,0.1-0.1,0.2,0,0.3c0.1,0.1,0.2,0.1,0.3,0.1
		c0.1-0.1,0.3-0.1,0.4-0.2c0.1-0.1,0.3-0.2,0.4-0.3l0.7-0.5C146,218.5,146.1,218.4,146,218.2z"/>
	<path class="st1" d="M179.7,225c-0.1-0.2-0.4-0.4-0.6-0.3c-0.7,0.2-1.3,0.4-2,0.7c-0.3,0.1-0.6,0.3-0.9,0.4
		c-0.3,0.1-0.7,0.5-0.9,0.8c-0.2,0.3,0.1,0.7,0.4,0.7c0.1,0,0.3,0,0.4,0c0.2,0,0.5-0.1,0.7-0.2c0.3-0.1,0.6-0.3,0.9-0.4
		c0.6-0.3,1.1-0.6,1.7-1C179.7,225.5,179.8,225.2,179.7,225z"/>
	<path class="st1" d="M211.4,220.3c0,0-0.1,0-0.1,0c0,0,0,0,0,0c0,0,0,0-0.1,0c-0.1,0-0.3,0-0.4,0c-0.1,0-0.1,0-0.2,0
		c-0.1,0-0.2,0-0.3,0c-0.1,0-0.2,0.1-0.2,0.1c-0.2,0.1-0.3,0.1-0.5,0.2c-0.2,0.1-0.4,0.1-0.6,0.3l-0.4,0.3c-0.2,0.1-0.3,0.3-0.3,0.5
		c0,0.2,0,0.3,0,0.5c0.2,0.4,0.5,0.5,0.9,0.4c0.2,0,0.3-0.1,0.5-0.1c0.2,0,0.4-0.2,0.6-0.3c0.1-0.1,0.3-0.2,0.4-0.2
		c0.2-0.1,0.3-0.2,0.5-0.3c0.1-0.1,0.2-0.1,0.2-0.2c0.1-0.1,0.2-0.2,0.2-0.3c0,0,0,0,0,0c0,0,0.1-0.1,0.1-0.1
		C211.9,220.7,211.7,220.3,211.4,220.3z"/>
	<path class="st1" d="M202.6,221.5c-0.7-0.4-1.6-0.8-2.4-1.1c-0.8-0.3-1.6-0.5-2.4-0.7c-1.6-0.4-3.4-0.6-5-0.3
		c-0.3,0.1-0.2,0.4,0,0.5c1.3,0.5,2.8,0.7,4.2,1c-0.7,0.2-1.4,0.3-2.1,0.5c-0.4,0.1-0.7,0.2-1.1,0.3c-0.2,0.1-0.4,0.1-0.6,0.2
		c-0.2,0.1-0.4,0.2-0.6,0.3c-0.2,0.1-0.3,0.4-0.3,0.6c0.1,0.2,0.3,0.4,0.5,0.4c0.2,0,0.5,0,0.7-0.1c0.2,0,0.4-0.1,0.6-0.2
		c0.4-0.1,0.8-0.3,1.2-0.5c0.7-0.3,1.5-0.6,2.2-1c0.2-0.1,0.2-0.3,0.1-0.5c0.7,0.2,1.4,0.4,2.1,0.5c0.8,0.2,1.6,0.4,2.4,0.6
		C202.7,222.3,203,221.8,202.6,221.5z"/>
	<path class="st1" d="M246.1,219.6c-2.6-1-5.5-1.2-8.2-1.8c-2.5-0.5-5.1-1-7.6-1.6c-5.3-1.1-10.5-2.2-15.8-3.2
		c-0.2,0-0.3,0.3-0.1,0.3l16,3.5c2.6,0.6,5.3,1.1,7.9,1.7c2.5,0.6,5.1,1.5,7.7,1.6C246.3,220.1,246.4,219.7,246.1,219.6z"/>
	<path class="st1" d="M205.9,238.5c-1.2,0-1.2,1.8,0,1.8C207.1,240.3,207.1,238.5,205.9,238.5z"/>
	<path class="st1" d="M201.9,239c-1.2,0-1.2,1.8,0,1.8C203.1,240.8,203.1,239,201.9,239z"/>
	<path class="st1" d="M198.8,241.1c0-0.2-0.1-0.3-0.3-0.4c-0.1-0.1-0.1-0.1-0.2-0.2c-0.2-0.1-0.3-0.1-0.5-0.1c-0.1,0-0.2,0-0.3,0
		c-0.1,0-0.2,0.1-0.3,0.2c-0.1,0.1-0.2,0.2-0.2,0.3c-0.1,0.1-0.1,0.1-0.2,0.2c-0.1,0.1-0.1,0.2-0.1,0.3c0,0.1,0,0.2,0.1,0.3
		c0,0.1,0.1,0.1,0.2,0.2c0,0.1,0.1,0.1,0.1,0.2c0.1,0.1,0.2,0.2,0.3,0.2c0.1,0.1,0.2,0.1,0.4,0.1c0.1,0,0.3,0,0.4-0.1
		c0.1,0,0.2-0.1,0.3-0.2c0.1-0.1,0.2-0.2,0.2-0.3c0.1-0.1,0.1-0.2,0.1-0.4C198.8,241.3,198.8,241.2,198.8,241.1z"/>
	<path class="st1" d="M223.7,234.5c-0.1-0.5-0.7-0.7-1.2-0.7c-1.1,0.2-2.2,0.3-3.3,0.5c-0.5,0.1-1,0.2-1.6,0.4
		c-0.5,0.1-1.1,0.3-1.6,0.5c-0.4,0.2-0.3,0.9,0.1,1c0.6,0.1,1.1,0.1,1.7,0.1c0.6,0,1.2-0.1,1.8-0.1c1.1-0.2,2.2-0.3,3.3-0.5
		C223.6,235.6,223.9,235,223.7,234.5z"/>
	<path class="st1" d="M234.1,232.1c-0.5-0.1-1-0.1-1.6-0.1c-0.5,0-1,0.1-1.5,0.2c-0.5,0.1-0.9,0.2-1.4,0.4c-0.2,0.1-0.5,0.2-0.7,0.3
		c-0.2,0.1-0.3,0.1-0.4,0.3c0,0-0.1,0-0.1,0c-0.2,0.1-0.2,0.5,0.1,0.4c0.1,0,0.2,0,0.3,0c0.1,0,0.2,0,0.3,0c0.2,0,0.5,0.1,0.7,0.1
		c0.4,0,0.9,0,1.3,0c0.5,0,0.9,0,1.4,0c0.5,0,1,0,1.6-0.1C234.9,233.4,234.8,232.3,234.1,232.1z"/>
	<path class="st1" d="M244.2,230.6c-0.1-0.2-0.2-0.3-0.3-0.5c-0.2-0.1-0.4-0.2-0.6-0.2c-0.1,0-0.3,0-0.4,0c-0.4,0-0.7,0-1,0.1
		c-0.3,0.1-0.5,0.2-0.8,0.2c-0.1,0-0.3,0.1-0.4,0.1c-0.2,0.1-0.4,0.1-0.5,0.3c-0.1,0.1-0.1,0.1-0.1,0.2c-0.2,0.1-0.3,0.3-0.2,0.6
		c0,0.3,0.2,0.5,0.4,0.5c0.2,0.1,0.4,0.2,0.7,0.2c0.1,0,0.3,0,0.4,0c0.3,0,0.6,0,0.9-0.1c0.2,0,0.4,0,0.6-0.1c0.1,0,0.3-0.1,0.4-0.1
		c0.2-0.1,0.4-0.2,0.5-0.2C244.1,231.4,244.4,231,244.2,230.6z"/>
	<path class="st1" d="M150.6,193.6c-1.4-0.4-2.9-0.6-4.4-0.8c-1.4-0.2-2.7-0.5-4.1-0.7c-2.4-0.4-4.8-0.8-7.3-1.2
		c-0.4-0.4-0.9-0.5-1.4-0.2c-0.9,0.4-0.9,1.5-0.4,2.2c0.6,1,2,1.1,3,1.3c2.3,0.5,4.6,0.9,6.9,1.3c1.1,0.2,2.3,0.4,3.4,0.7
		c1.2,0.2,2.5,0.6,3.7,0.6C152.1,196.9,152.3,194.2,150.6,193.6z"/>
	<path class="st1" d="M338.2,98c-0.9-0.6-2.3-0.6-3.3-0.7c-1.2-0.1-2.5-0.1-3.7-0.1c-1.2,0-2.4-0.1-3.6-0.1c-1.3,0-2.5,0.1-3.7,0.2
		c-0.6,0-0.8,1-0.2,1.1c1.2,0.2,2.5,0.5,3.7,0.5c1.2,0.1,2.4,0.2,3.6,0.2c1.2,0.1,2.4,0.1,3.6,0.2c1.1,0,2.6,0.2,3.6-0.4
		C338.6,98.9,338.5,98.3,338.2,98z"/>
	<path class="st1" d="M341.5,110.3c-0.4-0.4-0.9-0.4-1.5-0.4c-0.5,0-1,0-1.5,0c-1,0-2,0.1-2.9,0.2c-2,0.1-3.9,0.4-5.9,1
		c-0.4,0.1-0.5,0.8,0,0.9c2,0.4,3.9,0.4,5.9,0.3c1,0,2-0.1,2.9-0.2c0.5,0,1-0.1,1.5-0.1c0.5-0.1,1.1,0,1.5-0.5
		C341.8,111.2,341.9,110.7,341.5,110.3z"/>
	<path class="st1" d="M357.5,131.4c0-0.1-0.1-0.2-0.2-0.3c0,0,0,0,0-0.1c0,0,0,0,0,0c-0.1-0.2-0.2-0.5-0.4-0.7
		c-0.1-0.2-0.3-0.4-0.4-0.5c-0.3-0.4-0.5-0.8-0.9-1.1c-0.1-0.2-0.3-0.3-0.4-0.5c-0.1-0.1-0.1-0.2-0.2-0.2c-0.1-0.1-0.2-0.2-0.3-0.2
		c0,0-0.1-0.1-0.1-0.1c-0.1,0-0.1-0.1-0.2-0.1c0,0,0,0,0,0c-0.1-0.1-0.3-0.1-0.4-0.1c0,0,0,0-0.1,0c-0.3-0.2-0.6,0.1-0.5,0.4l0,0
		c-0.1,0.2,0,0.4,0,0.6c0,0,0,0.1,0,0.1c0,0.1,0,0.2,0.1,0.3c0,0.1,0,0.3,0.1,0.4c0,0.1,0.1,0.2,0.1,0.2c0.1,0.2,0.2,0.4,0.3,0.5
		c0.2,0.4,0.4,0.7,0.7,1c0.3,0.4,0.5,0.8,0.9,1.1c0.4,0.3,0.7,0.8,1.3,0.8c0.2,0,0.5-0.1,0.6-0.4c0.1-0.2,0.1-0.3,0.1-0.5
		C357.6,131.7,357.6,131.6,357.5,131.4z"/>
	<path class="st1" d="M360,143.3c-0.2-0.3-0.4-0.5-0.7-0.8c-0.5-0.5-1.1-0.9-1.7-1.3c-0.6-0.4-1.2-0.8-1.8-1
		c-0.2-0.1-0.3-0.1-0.5-0.1c-0.2,0-0.3-0.1-0.5-0.2c-0.1,0-0.2,0-0.3,0c0.1,0-0.1-0.1-0.1-0.1c-0.2-0.1-0.3-0.1-0.5-0.1
		c-0.2,0-0.3,0.3-0.2,0.5c0.2,0.2,0.3,0.3,0.5,0.4c0.1,0.2,0.3,0.3,0.5,0.4c0.2,0.2,0.5,0.5,0.8,0.7c0.5,0.3,0.9,0.7,1.3,1.1
		c0.4,0.4,0.9,0.7,1.4,1.1c0.2,0.2,0.5,0.4,0.7,0.6c0.3,0.2,0.5,0.5,0.9,0.6c0.5,0.1,0.9-0.3,0.8-0.8
		C360.5,143.9,360.2,143.6,360,143.3z"/>
	<path class="st1" d="M292.9,196.3c4.2-2.1,8.5-3.9,13-5.2c5.4-1.5,11-2.4,16.5-2.8c12.2-0.7,24.4,1,36.4,3.1
		c6.9,1.2,13.7,2.7,20.7,3.4c0.8,0.1,1-1.3,0.2-1.4c-6.4-1.2-12.9-2.2-19.4-3.3c-6.3-1.1-12.7-2.1-19.1-2.7
		c-11.5-1.2-23.4-1.1-34.6,1.8c-0.4,0.1-0.9,0.2-1.3,0.4c2.4-1,4.8-1.9,7.2-2.6c12.7-3.8,26.3-4.6,39.4-2.4
		c7.3,1.2,14.5,3.8,21.9,3.7c0.2,0.4,0.4,0.8,0.7,1.1c0.6,0.7,1.2,1.3,2,1.9c0.4,0.3,1.1,0.9,1.6,0.7c0.5-0.2,0.8-0.6,0.7-1.2
		c-0.1-0.3-0.3-0.5-0.5-0.6c0,0-0.1,0-0.1-0.1c0,0,0,0-0.1,0c-0.7-0.5-1.3-1.1-1.9-1.7c-0.1-0.1-0.1-0.1-0.2-0.2
		c0.7-0.1,1.4-0.2,2.1-0.3c1.1-0.2,0.7-1.7-0.3-1.9c-4.4-0.5-7.4-3.6-10.1-6.9c-2.5-3.1-4.9-7.1-8.4-9.2c0-0.1,0-0.2-0.1-0.3
		c0.1,0,0.2,0,0.4,0c0.9,0,1.8,0,2.6,0c0.9,0,1.8,0.1,2.6,0.2c0.5,0,0.9,0.1,1.4,0.1c0.4,0,0.8,0.1,1.1-0.1c0,0,0-0.1,0.1-0.1
		c0.1,0.1,0.1,0.1,0.2,0.2c0.1,0.1,0.2,0.3,0.4,0.4c0.2,0.2,0.5,0,0.5-0.2c0-0.4-0.1-0.9-0.2-1.3c-0.2-0.4-0.4-0.7-0.6-1.1
		c-0.5-0.7-1-1.4-1.5-2c-0.3-0.4-1,0.1-0.7,0.5c0.5,0.7,0.9,1.3,1.3,2.1c0.1,0.3,0.3,0.6,0.4,0.8c-0.6-0.3-1.5-0.4-2.1-0.5
		c-0.9-0.1-1.9-0.2-2.8-0.2c-0.9,0-1.9,0-2.8,0c-0.5,0-0.9,0-1.4,0.1c-0.2,0-0.4,0-0.6,0c-0.2,0-0.5,0.2-0.7,0.2
		c-0.4,0.1-0.4,0.5-0.1,0.7c-16.4,1-33.5,3-48.8,9.1c1-0.6,2.1-1.2,3.1-1.8c9.2-3.5,18.9-5.6,28.6-7c7.3-1.1,14.6-2,21.9-3
		c0.2,0,0.2-0.3,0-0.2c-6.6,0.3-13.2,0.6-19.7,1.4c-6.4,0.8-12.9,1.8-19.2,3.4c-0.1,0-0.3,0.1-0.4,0.1c6.6-2.8,13.3-5.2,20.2-7.2
		c3.7-1.1,7.5-2.2,11.2-3.2c3.3-0.9,6.6-1.7,9.8-2.8c-0.1,0.2,0,0.5,0.1,0.7c0,0.1,0,0.1,0,0.1c0,0.1,0.1,0.2,0.2,0.3
		c0.1,0.1,0.1,0.2,0.2,0.2c0,0,0,0,0,0c0.2,0.2,0.3,0.5,0.5,0.7c0.3,0.5,0.6,1,0.9,1.5c0.1,0.1,0.1,0.2,0.2,0.4
		c0,0.1,0.1,0.1,0.1,0.2c0,0,0,0,0,0c0.1,0.3,0.2,0.6,0.3,0.8c0.1,0.3,0.2,0.6,0.2,0.9c0.1,0.5,0.3,0.9,0.7,1.2
		c0.5,0.3,1.1,0,1.4-0.4c0.3-0.4,0.2-1,0.1-1.4c-0.1-0.3-0.1-0.6-0.2-0.9c-0.2-0.7-0.5-1.3-0.8-2c-0.3-0.6-0.7-1.2-1.2-1.7
		c-0.2-0.2-0.4-0.4-0.7-0.6c-0.2-0.1-0.3-0.3-0.5-0.4c-0.1-0.1-0.3-0.1-0.4-0.1c0,0,0,0,0,0c0.2-0.1,0.4-0.1,0.5-0.2
		c0.2-0.1,0.2-0.4,0-0.5c0.2-0.1,0.2-0.4,0.2-0.6c-0.4-1.6-1.2-3-2-4.5c-0.7-1.5-1.6-2.8-2.5-4.2c-0.2-0.3-0.6-0.1-0.6,0.2
		c0.3,1.7,0.8,3.2,1.5,4.8c0.3,0.8,0.7,1.5,1.1,2.3c0.4,0.8,0.9,1.4,1.4,2c0,0,0,0,0.1,0c-6.8,0.7-13.5,2.8-20,4.7
		c-6.7,1.9-13.2,4.1-19.6,6.8c-4.1,1.7-8.2,3.6-12.2,5.7c-2.1,0.7-4.1,1.5-6.1,2.4c5-4.1,10.3-7.9,15.7-11.4
		c5.7-3.6,11.6-6.6,17.6-9.7c1.9-1,3.9-1.6,5.8-2.5c1.7-0.7,3.3-1.7,5-2.2c1.8-0.5,3.5-1,5.2-1.7c1.9-0.7,3.6-1.6,5.5-2.3
		c0.2-0.1,0.1-0.3-0.1-0.3c-3.3,1-6.5,1.6-9.6,3.1c-3,1.5-6.1,2.6-9.1,4.1c-3,1.5-6.2,2.9-9.3,4.4c-3.1,1.5-6,3.3-9,5
		c-8,4.7-15.6,9.9-22.7,15.7c-2.3,1.2-4.5,2.4-6.6,3.8c1.2-1.3,2.4-2.6,3.7-3.9c5.5-5.6,11.3-10.8,17.4-15.6
		c3.1-2.5,6.2-5.1,9.4-7.4c3.2-2.3,6.6-4.5,9.9-6.7c1.8-1.2,3.7-2.2,5.7-3.2c1.9-1,3.8-2.1,5.7-3.2c3.8-2.1,7.8-4.1,11.2-6.8
		c0,0,0,0,0-0.1c0,0,0.1,0,0.1,0c0.2,0.1,0.3,0.1,0.5,0.1c0.2,0,0.5,0.1,0.7,0.1c0.5,0,0.8-0.3,0.9-0.8c0.1-0.5-0.2-0.9-0.7-1
		c-0.3-0.1-0.6-0.2-0.9-0.3c-0.2,0-0.3-0.1-0.5-0.1c-0.1,0-0.1-0.1-0.2-0.1c0,0-0.2-0.1-0.1-0.1c0,0-0.1,0-0.1,0
		c-0.1,0-0.1-0.1-0.2-0.1c-0.1-0.1-0.2-0.1-0.4-0.2c-0.3,0-0.3,0-0.1,0c0,0-0.1,0-0.1,0c-0.1,0-0.1-0.1-0.2-0.1c0,0,0,0,0,0
		c0,0,0,0,0,0c-0.1,0-0.1-0.1-0.2-0.1c-0.1-0.1-0.2-0.1-0.4-0.1c-0.4-0.4-1,0.2-0.6,0.6c0,0,0,0,0,0c0,0.1,0,0.2,0.1,0.3
		c0.1,0.1,0.2,0.2,0.2,0.3c0,0,0,0,0.1,0.1c0,0,0,0,0,0c0,0.1,0.2,0.2,0.2,0.3c0,0,0.1,0.1,0.1,0.1c0,0,0,0,0,0
		c0,0.1,0.1,0.1,0.1,0.2c0.1,0.1,0.2,0.1,0.3,0.2c0.1,0.1,0.3,0.2,0.4,0.3c0,0,0.1,0,0.1,0.1c-3.5,1.2-6.8,3.2-10.1,5.1
		c-1.7,1-3.4,2-5,3c-1.7,1.1-3.3,2.4-5,3.5c-3.3,2.2-6.7,4.2-10,6.4c-3.3,2.3-6.7,4.5-9.9,6.9c-10.7,8.1-20.7,17.3-29.2,27.6
		c-0.4,0.3-0.8,0.7-1.3,1c3.2-4.8,6.6-9.4,10.2-13.9c1-1.2,1.9-2.3,2.9-3.5c10-10.4,21.2-19.6,33.6-27.1c3.5-2.1,7.1-4.1,10.8-5.9
		c3.7-1.9,7.4-3.8,11.1-5.7c0.1-0.1,0-0.3-0.1-0.3c-3.5,1.1-6.9,2.3-10.2,3.9c-3.4,1.7-6.8,3.5-10.1,5.4
		c-6.4,3.7-12.6,7.9-18.4,12.4c-0.9,0.7-1.9,1.5-2.8,2.2c5.6-5.5,11.6-10.8,17.9-15.6c3.6-2.7,7.3-5.4,11-7.9
		c3.7-2.5,7.6-4.8,11.1-7.6c0.3-0.2,0-0.8-0.4-0.7c-3.6,1.5-7,3.7-10.3,5.8c-3.5,2.2-6.9,4.6-10.2,7.1c-6.5,4.9-12.7,10.2-18.7,15.7
		c-3.5,3.2-6.8,6.6-10,10.1c7.6-9.3,15.9-18.2,24.8-26.4c3.4-3.2,6.9-6.3,10.5-9.3c2-1.7,4-3.3,6-5c0.1,0.1,0.2,0.1,0.3,0.1
		c0.6,0.1,1.2,0.3,1.7,0.4c0.6,0.1,1.2,0.2,1.8,0.3c0.6,0.1,1.2,0.2,1.8,0.3c0.7,0.1,1.4,0.3,2.1,0.1c0.7-0.2,0.8-1.1,0.2-1.5
		c-0.5-0.4-1.2-0.4-1.8-0.5c-0.6-0.1-1.2-0.2-1.9-0.3c-0.6-0.1-1.3-0.2-1.9-0.3c-0.3,0-0.5,0-0.8,0c0.9-0.8,1.9-1.7,2.8-2.5
		c0.5-0.1,1.1-0.2,1.6-0.4c0.5-0.3,0.4-1.2-0.2-1.3c-1-0.2-2.2,0-3.3,0c-1.2,0.1-2.3,0.1-3.5,0.2c-1.1,0.1-2.2,0.1-3.3,0.1
		c-0.6,0-1.1,0.1-1.7,0.2c-0.2,0-0.3,0-0.5,0.1c0.3-0.3,0.6-0.6,0.9-0.8c1.7-1.6,3.3-3.2,5-4.8c0.1-0.1,0-0.2-0.1-0.1
		c-1.6,1-3.2,2-4.7,3.2c-1.6,1.2-3.2,2.5-4.7,3.8c-3.2,2.7-6.2,5.4-9.2,8.3c-5.9,5.6-11.4,11.6-16.7,17.8
		c-10.6,12.3-19.9,25.7-27.8,39.9c-1.2,2.2-2.4,4.3-3.6,6.6c1.3-3.6,2.7-7.2,4.2-10.7c3.1-7.4,6.6-14.6,10.5-21.6
		c7.8-14,17.3-27.2,28.1-39.1c3-3.4,6.2-6.7,9.4-9.9c1.6-1.6,3.2-3.1,4.7-4.7c1.6-1.6,3.2-3.4,4.8-5c0.1-0.1,0-0.4-0.2-0.3
		c-3.2,2.4-6.3,4.8-9.2,7.5c-3,2.8-5.9,5.7-8.7,8.6c-5.5,5.9-10.7,12.1-15.5,18.6c-8.4,11.3-15.7,23.4-21.8,36
		c1.6-4.1,2.9-8.3,4.5-12.4c2.3-6.2,4.8-12.4,7.5-18.4c5.4-12,11.8-23.5,19.9-33.9c4.4-5.7,9.3-11.1,14.6-16c0,0,0,0,0.1,0
		c0.2-0.1,0.3-0.2,0.2-0.4c0-0.3-0.4-0.6-0.7-0.4c0,0,0,0-0.1,0c-2.6-0.2-5.3,0.1-7.9,0.2c-2.7,0.1-5.4,0.2-8.1,0.3
		c-2.7,0.1-5.4,0.1-8.1,0c-2.6-0.1-5.2-0.2-7.8,0c0-0.1,0-0.2,0.1-0.3c0.6-3,2.3-8.8-1.6-10.4c-0.2-0.1-0.4,0-0.5,0.1
		c-0.2-0.1-0.4-0.3-0.7-0.3c-9.2-0.2-18.4,0.1-27.5,0.2c-9,0.1-18,0.2-27,0.4c-18,0.3-36-0.2-54,0.6c-5,0.2-9.9,0.5-14.8,1.1
		c-2.4,0.3-4.9,0.5-7.3,0.9c-0.5,0.1-0.9,0.2-1.4,0.3c-0.1-0.1-0.1-0.1-0.2-0.2c-3.5-2.1-7.6,0.4-9.5,3.5c-1.1,1.8-1.8,3.9-2.5,6
		c-0.8,2.5-1.7,5-2.5,7.5c-3.3,10-6.9,19.8-9.9,29.8c-0.9,2.9-1.6,5.8-2.3,8.7c-0.1,0.4-0.2,0.8-0.3,1.1c-0.6,1.5-1.1,3.1-1.5,4.7
		c-0.3,0.8-0.5,1.7-0.8,2.5c-0.1,0.4-0.2,0.8-0.3,1.2c-0.1,0.4-0.3,0.7-0.3,1.1c0,0.1-0.1,0.2-0.1,0.3c0,0.2,0.2,0.4,0.4,0.2
		c0,0,0,0,0.1,0c-1.2,4.2-2.4,8.5-3.6,12.7c-1,3.7-1.9,7.4-2.9,11c-0.5,1.9-1.1,3.8-1.7,5.7c-0.6,1.8-1.3,3.5-1.5,5.4
		c-0.1,0.7,1,1,1.3,0.4c0.6-1.5,0.8-2.9,1.1-4.4c0.4-1.8,0.7-3.6,1.2-5.3c0.9-3.3,1.9-6.6,2.8-9.9c1.7-5.8,3.4-11.6,5.2-17.4
		c-0.3,0-0.6-0.1-1-0.1c0.1-0.2,0.1-0.4,0.2-0.6c0,0.1,0,0.2-0.1,0.3c0,0.2,0.2,0.2,0.2,0.1c0.6-2.3,1.4-4.5,2.1-6.8
		c0.6-2.3,1.3-4.6,2-6.8c1.4-4.5,2.8-9.1,4.2-13.6c2.9-9.1,6.3-18.1,9.6-27.1c0.8-2.2,1.5-4.6,2.9-6.5c1.2-1.6,3.2-2.7,5.1-2.4
		c0.1,0.1,0.1,0.3,0.2,0.4c0.3,0,0.7,0,1-0.1c0.4,0.2,0.7,0.1,0.9-0.1c0.3,0,0.5,0,0.8,0c2.4-0.2,4.7-0.6,7.1-0.8
		c4.4-0.5,8.8-0.8,13.2-1.1c8.8-0.5,17.6-0.7,26.5-0.7c18-0.2,35.9-0.1,53.9-0.1c10.3,0,20.6,0.2,30.9-0.1c0.6,0,0.9-0.4,0.9-0.9
		c1.5,1.2,1.4,3.5,1.2,5.3c-0.3,2.2-0.9,4.4-1.4,6.6c-1,4.7-2.1,9.4-3.2,14.1c-2.3,9.5-4.8,18.9-7.4,28.3
		c-5.1,18.6-10.6,37.2-14.4,56.2c-1.1,5.3-2,10.7-2.8,16c-0.4,2.6-0.7,5.2-1,7.9c-0.3,2.5-0.7,5-0.9,7.4c0-0.1-0.1-0.2-0.1-0.2
		c-0.2-0.5-0.8-0.5-1.1-0.2c0-0.9-0.9-1.8-2-1.3c-7.1,3.3-15.1,4.6-22.6,6.2c-8.2,1.7-16.4,3.3-24.5,5.3c-7.9,1.9-15.8,4.1-23.5,6.7
		c-7.6,2.6-15.1,5.7-22.8,7.8c-7.7,2.1-15.9,3.1-23.9,1.7c-8-1.4-15.9-4.4-23.5-7.2c-8.1-3-16.4-5.4-24.6-8.1
		c-8-2.6-16-5.4-24.2-7.4c-4.7-1.2-9.3-3.1-13.8-4.7c-2.3-0.8-4.5-1.8-6.9-2.5c-2.1-0.6-4.4-1.2-6.5-1.9c-4.6-1.6-9.2-3.1-13.9-4.7
		c-2.3-0.8-4.6-1.6-6.9-2.4c-0.8-0.3-4.2-1.2-4.9-2.5c2.9-0.1,5.8-0.6,8.7-1c3.2-0.4,6.5-0.8,9.7-1.3c6.8-0.9,13.6-2.1,20.4-3
		c13.2-1.8,26.5-3.9,39.8-4.9c7.5-0.6,15-1.4,22.4-2.4c0.1,0.1,0.2,0.3,0.4,0.3c3.4,0.8,6.8,1.4,10.3,1.8c1.8,0.2,3.6,0.5,5.5,0.9
		c1.6,0.3,3.3,0.8,5,0.9c0.1,0,0.1,0,0.1-0.1c1.2,0.4,2.4,0.8,3.7,1.1c1.5,0.4,2.9,0.7,4.4,1.1c2.7,0.6,5.5,1.3,8.2,1.9
		c5.6,1.3,11.2,2.6,16.8,3.6c11.3,2.1,22.5,5.4,33.9,7.3c0.2,0,0.3-0.2,0.1-0.3c-11.1-3.2-22.5-5-33.7-7.9
		c-5.5-1.5-11.1-2.7-16.7-3.9c-2.8-0.6-5.5-1.2-8.3-1.8c-3-0.7-5.9-1.1-8.9-1.6c-0.1,0-0.2,0.1-0.3,0.2c-1.4-0.4-3-0.7-4.4-1
		c-1.7-0.3-3.4-0.7-5.1-1.2c-2.9-0.9-5.8-1.5-8.8-2.1c0.2-0.4,0.3-0.8,0.4-1.2c0.4,0.2,0.9,0.4,1.4,0.5c1,0.2,2,0.5,3,0.6
		c1.1,0,2.1,0.2,3.1,0.4c1,0.2,2,0.4,3,0.5c0.2,0,0.2-0.3,0-0.4c-1-0.4-2.1-0.6-3.1-0.9c-1-0.3-1.9-0.6-2.8-1.1
		c-0.9-0.4-1.9-0.6-2.8-0.8c-0.5-0.1-1-0.2-1.5-0.2c0.1-0.6,0.2-1.3,0.3-1.9c0.4-1.6,0.9-3.3,1.3-4.9c0-0.1-0.1-0.1-0.2,0
		c-0.6,1.6-1.1,3.1-1.7,4.7c-0.1,0.4-0.3,0.8-0.5,1.2c-0.2,0.3-0.3,0.7-0.5,1c-0.1,0-0.1,0-0.2,0c-0.4,0-0.4,0.5-0.1,0.6
		c0,0,0,0,0,0c-0.1,0.3-0.2,0.5-0.3,0.8c-0.1-0.4-0.5-0.7-1.1-0.7c-13.4,1.6-26.7,4-40.1,5.7c-13.4,1.7-26.7,3.2-40.1,5
		c-3.6,0.5-7.2,1-10.8,1.5c-3.3,0.5-6.7,0.8-10,1.5c-0.1-0.6-0.9-0.9-1.3-0.3c-0.2,0.3-0.3,0.5-0.4,0.8c-0.2,0.2-0.2,0.5-0.1,0.7
		c0,0.2,0.1,0.3,0.1,0.5c-0.3,1.1,0.3,2.4,1.3,3.2c0.9,0.7,1.9,1.1,2.9,1.4c1.6,0.5,3.2,1,4.8,1.4c3,0.9,6.1,1.8,9.1,2.7
		c1.6,0.5,3.2,0.9,4.8,1.4c1.5,0.4,3,1.1,4.6,1.1c0.2,0,0.4-0.1,0.5-0.2c4.4,1.8,8.8,3.6,13.2,5.3c2.5,0.9,4.9,1.9,7.4,2.8
		c2.2,0.8,4.4,1.8,6.7,2.2c1.8,0.9,3.7,1.6,5.7,2.2c2.3,0.7,4.7,1.5,7,2.3c4.7,1.5,9.4,3,14,4.6c9.3,3.2,18.5,6.7,27.7,10.1
		c2.6,1,5.3,1.9,7.9,3c2.6,1,5.2,2.4,7.9,3.1c0.4,0.1,0.7-0.2,0.7-0.5c3,0.4,6.1,0.8,9.1,0.9c3.5,0.1,6.9-0.3,10.3-0.7
		c3.3-0.4,6.5-0.9,9.7-1.6c2.1-0.4,4.4-0.7,6.6-1.3c0,0.3,0.3,0.6,0.8,0.5c6.3-1.8,12.4-4.3,18.7-6c6.3-1.7,12.7-3.4,19-5
		c6.4-1.5,12.8-2.9,19.2-4.1c6.3-1.1,12.6-1.9,18.9-3.1c2.8-0.5,5.5-1.5,7.3-3.8c0.5-0.6,0.9-1.3,1.2-2c0.2,0.2,0.5,0.4,0.8,0.2
		c1.2-0.6,2.4-1.2,3.7-1.6c1.3-0.4,2.6-0.6,3.9-0.7c0.3,0,0.5-0.2,0.7-0.5c0,0,0.1,0,0.1,0c0.3-0.1,0.6-0.2,0.9-0.3
		c0.6-0.2,1.2-0.4,1.9-0.6c0.2-0.1,0.3-0.2,0.4-0.3c0.1,5,0.1,10,0,14.9c0,1.2,1.8,1.3,2,0.2c0.3,0,0.6-0.1,0.8-0.4
		c0.2-0.5,0.5-0.9,0.7-1.4c0.2-0.4,0.3-0.8,0.4-1.2c0.1-0.5,0.3-1,0.5-1.5c0.1,0.1,0.3,0.2,0.4,0.1c0,0,0,0,0,0
		c0.3,0.2,0.8,0.2,1.1,0.3c0.4,0.1,0.8,0.2,1.2,0.3c0.1,0,0.1,0,0.2,0.1c0.1,0.6,0.3,1.1,0.4,1.7c0.3,1.3,2.3,0.7,2-0.5
		c0-0.1,0-0.2-0.1-0.2c0.2-0.1,0.4-0.4,0.3-0.7c0-0.3-0.2-0.5-0.4-0.7c-0.1-0.1-0.1-0.2-0.2-0.2c-0.1-0.1,0,0,0,0
		c-0.1-0.1-0.1-0.1-0.2-0.2c-1.6-5.9-2.7-11.9-2.7-18c0-1.2,0.1-2.4,0.1-3.6c1.9-1.1,3.6-2.4,5.6-3.3c2.7-1.3,5.4-2.4,8.3-3.3
		c5.7-1.8,11.6-2.8,17.5-3.4c6.2-0.7,12.5-1,18.8-1.5c7-0.5,14-1,21-1.5c7.9-0.6,15.8-0.8,23.6-2.3c0.4-0.1,0.3-0.6-0.1-0.6
		c-0.9,0-1.9,0-2.8,0c0.7-0.1,1.3-0.3,2-0.5c0.4-0.1,0.3-0.8-0.1-0.8c-3.3-0.2-6.7,0.2-10,0.4c-3.3,0.2-6.7,0.4-10,0.4
		c-6.7,0.2-13.4-0.1-20.1,0c-12,0-24.3,0.6-36,3.4c-3.2,0.8-6.3,1.7-9.4,2.8c-2.7,1-5.6,2.1-8.1,3.6c-0.1-1.4-0.2-2.9-0.6-4.3
		c0.6,0,1.1,0.1,1.6,0.2C288.1,199.8,290.5,198,292.9,196.3z M254.2,231.6c-6,0.8-11.9,1.8-17.8,3c-11.9,2.3-23.8,5-35.3,8.6
		c-5.5,1.8-11.2,3.3-16.6,5.3c-0.1-0.1-0.2-0.2-0.4-0.2c-3.1,0-6.3,1-9.4,1.6c-3.4,0.7-6.9,1.3-10.3,1.7c-6.5,0.8-13.3,1.5-19.8,0.8
		c-1.9-1-4-1.7-6-2.5c-2.4-0.9-4.7-1.9-7.1-2.8c-4.5-1.9-9.2-3.6-13.8-5.3c-9.3-3.4-18.7-6.6-28.1-9.8c-2.6-0.9-5.2-1.7-7.8-2.5
		c-2.1-0.7-4.2-1.3-6.4-1.7c0,0-0.1-0.1-0.1-0.1c-2.1-1.3-4.6-2.1-6.9-2.9c-1.6-0.6-3.3-1.2-4.9-1.8c3.7,1.1,7.3,2.1,10.9,3.5
		c4.2,1.7,8.5,3,12.7,4.5c8.5,3.1,17.1,5.8,25.6,8.6c4.2,1.4,8.4,2.7,12.6,3.9c4.1,1.2,8.1,2.6,12.1,3.8c4,1.2,8.1,2.2,12.3,2.9
		c4,0.7,8.1,0.5,12.1,0c8-1,15.7-3.8,23.3-6.5c8.1-2.9,16.3-5.6,24.6-7.8c9.3-2.5,18.7-4.5,28.2-6.3c9.1-1.8,18.2-2.6,26.6-6.8
		c0.1-0.1,0.2-0.1,0.3-0.2c0,0,0,0.1,0,0.1C266.2,229.1,258.8,231,254.2,231.6z M292.9,203.6c2.7-1.1,5.4-1.9,8.2-2.7
		c5.8-1.6,11.7-2.6,17.6-3.2c12.6-1.2,25.4-0.7,38.1-0.7c2.2,0,4.5,0,6.7,0c-2,0.2-3.9,0.4-5.9,0.5c-7.1,0.6-14.2,1.2-21.2,1.7
		c-12.2,0.9-24.9,1.5-36.7,4.7c-3.1,0.8-6.2,1.9-9.2,3.3c-1.8,0.8-3.8,1.7-5.5,2.9c0-1,0-1.9,0-2.9
		C287.6,206.1,290.2,204.7,292.9,203.6z M272.9,193.5c1.9-9.7,4.1-19.4,6.5-29c4.8-19.4,10.5-38.5,15.1-58
		c1.2-5.1,2.3-10.3,3.3-15.5c2.4,0.4,4.9,0.4,7.3,0.4c2.9,0,5.8,0,8.7,0c2.8,0,5.6-0.1,8.4-0.1c2.1-0.1,4.3-0.1,6.4-0.4
		c-9.7,8-17.5,17.8-23.8,28.6c-6.7,11.5-12.3,23.5-17.2,35.9c-2.8,7-5.8,14.2-7.5,21.5c-0.1,0.5,0.4,0.9,0.8,0.8
		c-1.8,4.1-3.5,8.2-5,12.4c-1.5,4.1-3.5,8.6-3.9,13c0,0.1,0,0.2,0,0.2c-0.5,1.1-0.9,2.1-1.3,3.2
		C271.3,202.2,272.1,197.8,272.9,193.5z M277.5,221.8c-0.6,0.2-1.3,0.3-1.9,0.5c-0.3,0.1-0.6,0.2-0.9,0.3c-0.2,0.1-0.4,0.1-0.6,0.2
		c-0.2,0.1-0.3,0.2-0.4,0.3c-0.1,0.1-0.2,0.2-0.3,0.4c-1.1,0-2.3,0.3-3.3,0.6c-1.3,0.4-2.5,1.1-3.6,2c0.1-0.5,0.2-1.1,0.2-1.6
		c0.8,0.5,2.1,0.1,2.3-1.1c0.2-2.1,0.3-4.3,0.5-6.4c0-0.1,0.1-0.1,0.1-0.2c0.1,0,0.1,0,0.2,0c0.3,0.6,1.4,0.9,1.8,0.1
		c2.2-4.1,4.4-8.1,6.8-12.1c-0.2,2.6,0,5.3,0,7.9c0,2.8,0.1,5.6,0.1,8.4c0,0.3,0,0.7,0,1C278.2,221.8,277.9,221.7,277.5,221.8z
		 M278,195.8c1.1-2.3,2.3-4.5,3.5-6.8c3.8-7.1,8-14,12.5-20.7c8.9-13.3,19.1-26,30.5-37.2c3.2-3.2,6.5-6.2,9.8-9.3
		c0.9-0.9,1.9-1.7,2.9-2.6c0,0,0,0,0,0c0.3,0.1,0.6,0.3,0.9,0.3c0.2,0,0.5,0.1,0.7,0.1c0.6,0.1,1.2,0.2,1.8,0.2c1.1,0.1,2.2,0,3.3,0
		c0.9,0,1.8-0.1,2.6-0.2c-6.3,4-11.9,9.2-17.4,14.2c-6.2,5.6-12.1,11.6-17.7,17.8c-9.8,10.7-18.7,22.2-26.7,34.4
		c-0.2,0.2-0.3,0.4-0.5,0.6C282.2,189.5,280.1,192.6,278,195.8z M285.1,232.8c-0.1,0-0.2-0.1-0.3-0.1c-0.3-0.1-0.7-0.1-1,0
		c-0.1,0-0.2,0-0.3,0.1c-0.1,0-0.2,0.1-0.3,0.2c0,0-0.1,0-0.1,0c0-0.4-0.3-0.8-0.7-0.9c-0.4-0.1-0.9,0.1-1.1,0.5
		c-0.3,0.6-0.5,1.3-0.7,2c0-4.5,0-9.1-0.1-13.6c-0.1-2.9-0.1-5.8-0.2-8.7c-0.1-2.8-0.1-5.7-0.6-8.5c0-0.1-0.1-0.2-0.2-0.3
		c0.9-1,1.8-2.1,2.8-3.1c0.2,1,0.5,1.9,0.7,2.9c0.3,1.6,0.4,3.2,0.4,4.9c0,1.2,0,2.4-0.1,3.6c-0.3,0.3-0.6,0.6-0.8,0.9
		c-0.4,0.5,0.1,1.1,0.7,0.9c0,0,0.1,0,0.1,0c0,1.3-0.1,2.6,0,3.9C283.1,222.4,284,227.6,285.1,232.8z M284,200.7
		c0-0.1-0.1-0.2-0.1-0.3c0,0,0,0,0,0c0.3,0.1,0.5-0.3,0.3-0.5c-0.3-0.3-0.7-0.7-1-1c2.5-2.8,5.2-5.6,8-8.1c1.7-1.5,3.5-3,5.3-4.4
		c0.6-0.4,1.1-0.8,1.7-1.1c11.3-6.8,24-10.7,37-12.7c7.7-1.2,15.5-1.9,23.3-2.3c0,0,0,0,0,0.1c1.5,1.8,3,3.5,4.5,5.4
		c1.5,1.8,2.9,3.8,4.4,5.5c1.7,2,3.7,3.9,6,5.1c0,0,0,0,0,0c-6.9,0.1-13.8-2.4-20.5-3.7c-6.6-1.3-13.3-1.7-20-1.4
		c-13.2,0.6-26.5,4.2-37.9,11C291,194.8,287.3,197.5,284,200.7z"/>
	<path class="st1" d="M386.2,195.7c-0.6-0.2-1.3-0.3-2-0.4c-0.4-0.1-0.7-0.1-1.1-0.1c-0.2,0-0.4,0-0.5,0c-0.2,0-0.3,0-0.5,0.1
		c-0.1,0-0.2,0-0.2,0c-0.4,0-0.5,0.5-0.2,0.7c0.1,0,0.1,0.1,0.2,0.1c0.1,0.1,0.2,0.2,0.3,0.3c0.1,0.1,0.3,0.2,0.5,0.2
		c0.1,0,0.2,0.1,0.3,0.1c0,0,0,0,0.1,0c0,0,0,0,0.1,0c0.2,0.1,0.4,0.2,0.6,0.2c0.6,0.2,1.3,0.4,1.9,0.6c0.5,0.1,1-0.1,1.2-0.7
		C387,196.4,386.7,195.9,386.2,195.7z"/>
	<path class="st1" d="M385.5,197.8c-3.2,0.2-6.4,1.2-9.5,1.9c-3.2,0.7-6.4,1.4-9.6,2.3c-6.3,1.7-12.8,2.9-19.2,4.5
		c-12.9,3.2-25.8,5.9-38.8,8.8c-3.7,0.8-7.3,1.7-11,2.6c-3.7,0.9-7.3,1.7-10.9,2.9c-0.3,0.1-0.3,0.6,0.1,0.6
		c6.5-0.7,12.9-2.5,19.2-3.9c6.4-1.5,12.8-2.9,19.2-4.6c6.4-1.7,13-3,19.5-4.4c6.4-1.4,12.8-2.9,19.3-4.4c3.7-0.9,7.3-1.6,11-2.4
		c1.7-0.4,3.5-0.8,5.2-1.2c1.9-0.5,3.9-0.8,5.7-1.6C386.2,198.6,386.2,197.7,385.5,197.8z"/>
	<path class="st1" d="M289.1,88.1c-0.2,0.2-0.3,0.5-0.4,0.7c-0.1-0.4-0.4-0.8-1-0.8c-34.6-1.9-69.4-1.3-103.9,0.9
		c-4.8,0.3-9.7,0.6-14.5,1c-4.8,0.4-9.9,0.4-14.6,1.9c-0.2-0.1-0.5,0-0.7,0.2c-0.7,1-0.9,2.1-1.1,3.3c-0.4,1.5-0.7,2.9-1.1,4.4
		c-0.6,2.6-1.3,5.3-1.9,7.9c-1.3,5.4-2.6,10.7-3.9,16.1c-2.6,10.8-5.3,21.6-8.1,32.4c-0.8,3-1.5,6-2.3,9c-0.8,3.1-1.8,6.2-2.3,9.3
		c-0.2,1.1,0.9,1.7,1.7,1.3c0,0,0,0,0.1,0c3.9,1.2,8.1,1.6,12.2,2.1c4.3,0.6,8.7,1.1,13,1.7c8.4,1.2,16.7,2.4,25,3.7
		c16.7,2.6,33.3,5.5,49.9,8.7c4.6,0.9,9.3,1.8,13.9,2.7c4.1,0.8,8.1,1.8,12.2,2.5c-0.1,0.3-0.1,0.5-0.2,0.8
		c-0.2,1.5,1.9,2.8,2.7,1.1c1.7-3.3,2.5-7.2,3.2-10.9c0.8-3.6,1.7-7.1,2.5-10.7c1.7-7.2,3.1-14.5,4.5-21.7
		c2.9-14.6,5.6-29.2,9.3-43.6c1-4,2.2-8,3.4-12c0.6-1.9,1.2-3.8,1.8-5.7c0.7-2,1.5-3.9,1.6-5.9C290.4,87.7,289.4,87.7,289.1,88.1z
		 M285,98.2c-1.2,3.5-2.2,7.1-3.2,10.7c-1.9,7-3.6,14.1-5.1,21.3c-3,14.5-5.6,29.1-9,43.5c-0.9,4.1-1.9,8.1-3.1,12.1
		c-0.9,3.1-2.2,6.2-3.1,9.4c-3.5-0.8-7-1.4-10.5-2.1c-4.2-0.8-8.4-1.6-12.6-2.4c-8.4-1.6-16.8-3.1-25.2-4.5c-16.6-2.8-33.3-5.6-50-8
		c-4.8-0.7-9.5-1.5-14.3-2.1c-4.5-0.6-9.1-1.5-13.7-1.3c0,0,0,0,0,0c0.9-2.6,1.4-5.5,2.1-8.2c0.7-2.7,1.3-5.5,2-8.2
		c1.3-5.4,2.5-10.8,3.8-16.1c2.5-10.8,5.2-21.7,7.8-32.5c0.7-3.1,1.5-6.2,2.2-9.3c0.3-1.5,0.7-2.9,1-4.4c0.3-1.3,0.7-2.5,0.6-3.8
		c4.3,0.5,8.8-0.2,13.2-0.6c4.3-0.4,8.5-0.7,12.8-1c8.6-0.6,17.1-1.1,25.7-1.4c17.3-0.7,34.7-0.8,52-0.5c9.7,0.2,19.4,0.6,29.1,1.1
		c0.1,0,0.2,0,0.3,0c-0.4,0.9-0.7,1.8-1.1,2.8C286.3,94.6,285.6,96.4,285,98.2z"/>
</g>
<g id="Calque_3">
	<g>
		<path class="st2" d="M188.6,162.9c1.5,0.2,2.2,0.2,3.7,0.4c0.2,0,0.2,0,0.3-0.2c0.3-1.1-0.3-2-1.5-2.1
			C189.6,160.8,188.8,161.6,188.6,162.9 M196.3,154.9c-0.1,0.5-0.5,0.9-1.1,1.1c-1.3,0.5-2,0.7-3.3,1.1c-0.3,0.1-0.6,0.1-0.8,0.1
			c-0.8-0.1-1.3-0.7-1.1-1.5c0.1-0.5,0.5-0.9,1.1-1.1c1.3-0.4,2-0.7,3.3-1.1c0.3-0.1,0.6-0.1,0.8-0.1
			C196,153.6,196.5,154.2,196.3,154.9 M195.8,163.8c0,0.2-0.1,0.3-0.1,0.5c-0.2,0.9-0.9,1.6-2,1.5c-2.2-0.2-3.3-0.4-5.6-0.6
			c0,0.1,0,0.1,0,0.2c-0.2,1,0.6,1.7,1.9,1.8c0.9,0.1,1.5,0,2.1-0.2c0.5-0.1,0.8-0.2,1.1-0.2c0.8,0.1,1.4,0.8,1.2,1.7
			c-0.1,0.5-0.5,1.1-1.4,1.4c-0.9,0.3-2.2,0.5-3.8,0.4c-3-0.3-4.9-2.6-4.5-5.3c0.1-0.9,0.4-2.3,0.6-2.9c0.9-2.8,3.4-4.3,6.5-4
			C194.7,158.4,196.5,160.6,195.8,163.8"/>
		<path class="st2" d="M201.3,164.3c-0.1,0.4-0.3,1.4-0.4,1.8c-0.2,1.1,0.3,1.9,1.5,2c0.6,0.1,1.5-0.2,1.8-0.4
			c0.4-1.7,0.6-2.6,1-4.3c-0.3-0.2-1-0.6-1.7-0.6C202.3,162.6,201.6,163.2,201.3,164.3 M210.2,158.2c-1.1,4.5-1.7,6.8-2.7,11.4
			c-0.1,0.6-0.4,0.9-0.9,1.1c-0.8,0.4-2.7,1.1-5.1,0.9c-3.1-0.3-4.7-2.6-4.4-5.3c0.1-0.8,0.4-2.3,0.7-3.1c0.9-2.6,3-4.2,6-3.9
			c0.7,0.1,1.6,0.3,2.2,0.6c0.2-0.9,0.3-1.3,0.5-2.1c0.2-1,1.3-1.7,2.3-1.6C209.9,156.3,210.5,157.2,210.2,158.2"/>
		<path class="st2" d="M222.4,163.1c-0.8,3.2-1.2,4.8-2,8.1c-0.1,0.6-0.4,0.9-0.9,1.2c-0.8,0.4-2.6,1-5,0.7c-3.3-0.4-4.7-2.4-4-5.6
			c0.5-2.2,0.8-3.3,1.3-5.4c0.3-1.1,1.1-1.8,2.2-1.7c1.1,0.1,1.7,1,1.4,2.1c-0.5,2.1-0.8,3.1-1.3,5.3c-0.3,1.1,0.3,1.7,1.2,1.8
			c0.7,0.1,1.3-0.1,1.7-0.2c0.6-2.6,1-3.9,1.6-6.5c0.3-1,1.2-1.8,2.3-1.7C222.1,161.2,222.7,162.1,222.4,163.1"/>
		<path class="st2" d="M234.8,166.1c-0.3,1-1.2,1.7-2.2,1.6c-0.5-0.1-1-0.4-1.2-0.9c-0.3-0.7-0.7-1.1-1.6-1.2
			c-1.1-0.1-1.9,0.4-2.3,1.5c-0.2,0.5-0.4,1.5-0.5,2c-0.2,1.2,0.3,1.9,1.4,2c0.8,0.1,1.4-0.1,2-0.8c0.4-0.4,1-0.6,1.5-0.5
			c1,0.1,1.5,1,1.3,2c-0.5,1.8-3.1,3.1-5.8,2.8c-2.8-0.3-4.5-2.6-4.1-5.3c0.1-0.8,0.5-2.1,0.8-3.2c0.9-2.6,3.6-4.3,6.5-4
			C233.4,162.4,235.3,164.2,234.8,166.1"/>
		<path class="st2" d="M160.4,160.1c0.2-0.7,0.4-1.5,0.5-2.3c0.2-1.8-0.9-3.2-2.8-3.5c-1.9-0.2-3.6,0.8-4.1,2.6
			c-0.2,0.7-0.4,1.5-0.5,2.3c-0.3,1.9,0.9,3.4,2.8,3.7C158.2,163.1,159.9,161.9,160.4,160.1 M149.5,159.2c0.1-1.2,0.4-2.2,0.7-3.2
			c1-3.2,4.6-5.2,8.5-4.8s6.5,3.3,6.1,6.6c-0.1,1.1-0.3,2.1-0.7,3.2c-1,3.3-4.6,5.9-8.6,5.3C151.6,165.9,149.2,162.6,149.5,159.2"/>
		<path class="st2" d="M177.6,161.6c-0.5,2.1-0.7,3.2-1.1,5.4c-0.2,1-1.2,1.8-2.2,1.7c-1-0.1-1.7-1.1-1.5-2.1
			c0.4-2.2,0.6-3.2,1.1-5.3c0.2-1.1-0.4-1.6-1.3-1.7c-0.7-0.1-1.4,0-1.8,0.2c-0.5,2.5-0.8,3.8-1.3,6.4c-0.2,1-1.2,1.8-2.2,1.7
			c-1-0.1-1.7-1.1-1.5-2.1c0.6-3.3,1-4.8,1.6-7.8c0.1-0.6,0.4-0.8,0.9-1.1c0.8-0.4,2.7-0.8,5.1-0.6
			C176.9,156.6,178.3,158.5,177.6,161.6"/>
		<path class="st3" d="M237.5,173.1c-0.2,0.7-0.3,1-0.4,1.7c-0.1,0.5-0.6,0.9-1.1,0.8c-0.5-0.1-0.8-0.5-0.7-1c0.2-0.7,0.3-1,0.4-1.7
			c0.1-0.5,0.6-0.9,1.1-0.8C237.4,172.2,237.7,172.6,237.5,173.1"/>
		<path class="st3" d="M250.3,160.9c0.4,0.2,0.5,0.5,0.4,0.9c-0.1,0.5-0.6,0.8-1.1,0.7c-0.1,0-0.3-0.1-0.4-0.1
			c-0.3-0.1-0.6-0.2-1.2-0.3c-1.2-0.2-2,0.8-2.4,2.1c-0.1,0.4-0.2,0.6-0.3,0.9c1.2,0.2,1.8,0.2,3,0.4c0.4,0.1,0.8,0.5,0.6,1
			c-0.1,0.5-0.6,0.8-1.1,0.7c-1.2-0.2-1.8-0.2-3-0.4c-1,3.5-1.4,5.2-2.3,8.6c-0.1,0.5-0.6,0.9-1.1,0.8c-0.5-0.1-0.8-0.5-0.6-1
			c0.9-3.4,1.3-5.2,2.3-8.6c-0.2,0-0.3,0-0.4-0.1c-0.5-0.1-0.8-0.5-0.6-0.9c0.1-0.5,0.6-0.8,1.1-0.8c0.2,0,0.3,0,0.4,0.1
			c0.1-0.5,0.2-0.8,0.3-1.3c0.6-2.2,2.2-3.5,4.5-3.3C249,160.4,249.8,160.6,250.3,160.9"/>
		<path class="st3" d="M256.3,166.7c0.3,0.2,0.6,0.5,0.5,1c-0.1,0.5-0.6,0.9-1.1,0.8c-0.2,0-0.4-0.1-0.7-0.2
			c-0.1-0.1-0.5-0.1-0.9-0.2c-1.3-0.2-2,0.3-2.4,1.7c-0.7,2.7-1.1,4-1.8,6.7c-0.1,0.5-0.6,0.9-1.1,0.8c-0.5-0.1-0.8-0.5-0.6-1
			c0.7-2.7,1.1-4.1,1.9-6.9c0.6-2.2,2.2-3.4,4.5-3.1C255.2,166.3,255.9,166.5,256.3,166.7"/>
		<path class="st3" d="M214.6,147.5c-3.3-6.2-4.2-16.1-1.7-18.2c0.5-0.5,2.7-1.3,3-2.6c0.4-1.5-0.7-2.7-2.4-2.6
			c-1.7,0-3.4,1.2-3.7,2.6c-0.3,1.2,1.5,2.3,1.6,2.5c0.9,1.7-1.6,12.5,1.8,19c0.1,0.2,0.3,0.3,0.5,0.3c0.2,0,0.3,0,0.5-0.1
			C214.6,148.3,214.8,147.8,214.6,147.5"/>
		<path class="st3" d="M218.7,140.3c-0.4-0.1-1.5-0.3-1.5-0.3c0,0,1.1-0.2,1.5-0.3c0.2,0,0.4-0.2,0.4-0.3c0-0.2-0.1-0.3-0.3-0.3
			c-0.5,0.1-1.8,0.4-1.8,0.4c0,0,0.4-1.1,0.8-1.5c0.1-0.2,0.1-0.3-0.1-0.4c-0.2-0.1-0.4,0-0.5,0.1c-0.4,0.5-0.6,1-0.8,1.6
			c-0.2-0.4-0.2-0.7-0.4-1.1c-0.1-0.1-0.2-0.2-0.4-0.1c-0.2,0.1-0.3,0.3-0.2,0.4c0.2,0.5,0.3,0.7,0.4,1.2c-0.7-0.1-1.4-0.3-2-0.3
			c-0.2,0-0.4,0.1-0.4,0.3c-0.1,0.2,0,0.3,0.2,0.3c0.4,0.1,1.4,0.2,1.4,0.2c0,0-0.8,0.4-1.3,0.7c-0.2,0.1-0.2,0.3-0.1,0.4
			c0,0.1,0.1,0.1,0.2,0.1c0.1,0,0.2,0,0.2-0.1c0.7-0.4,1.9-0.9,1.9-0.9c0,0-0.3,0.9-0.6,1.3c-0.1,0.2,0,0.3,0.1,0.4c0,0,0.1,0,0.1,0
			c0.1,0,0.3-0.1,0.4-0.2c0.1-0.2,0.2-0.5,0.4-0.7c0.2,0.5,0.3,0.7,0.4,1.2c0,0.1,0.1,0.2,0.2,0.2c0.1,0,0.1,0,0.2,0
			c0.2-0.1,0.3-0.3,0.2-0.4c-0.2-0.7-0.3-1-0.6-1.6c0.6,0.1,1.2,0.2,1.7,0.3c0,0,0,0,0,0c0.2,0,0.3-0.1,0.4-0.3
			C219,140.4,218.9,140.3,218.7,140.3"/>
		<path class="st3" d="M226.8,136.7c-0.6-0.1-0.9-0.1-1.5-0.2c0.4-0.3,0.6-0.5,1.1-0.8c0.2-0.1,0.2-0.3,0.1-0.4
			c-0.1-0.1-0.3-0.1-0.5,0c-0.2,0.2-0.4,0.3-0.6,0.4c0.1-0.2,0.2-0.4,0.3-0.6c0.1-0.2,0-0.3-0.2-0.4c-0.2,0-0.4,0.1-0.4,0.2
			c-0.1,0.3-0.3,0.8-0.3,0.8c0,0-0.4-0.6-0.6-1c-0.1-0.1-0.3-0.2-0.5-0.1c-0.2,0.1-0.3,0.3-0.2,0.4c0.2,0.4,0.5,0.8,0.7,1.2
			c-0.7-0.1-1-0.1-1.6-0.2c-0.2,0-0.4,0.1-0.4,0.3c-0.1,0.2,0,0.3,0.2,0.3c0.5,0.1,0.8,0.1,1.4,0.2c-0.2,0.2-0.4,0.3-0.6,0.4
			c-0.2,0.1-0.2,0.3-0.1,0.4c0,0.1,0.1,0.1,0.2,0.1c0.1,0,0.2,0,0.3-0.1c0.3-0.2,0.4-0.3,0.7-0.5c-0.1,0.4-0.2,0.7-0.3,1.1
			c0,0.2,0.1,0.3,0.3,0.3c0,0,0,0,0,0c0.2,0,0.4-0.1,0.4-0.3c0.1-0.4,0.3-1.1,0.3-1.1c0,0,0.2,0.3,0.3,0.5c0,0.1,0.1,0.1,0.2,0.1
			c0.1,0,0.2,0,0.3-0.1c0.2-0.1,0.2-0.3,0.1-0.4c-0.1-0.1-0.1-0.2-0.2-0.3c0.4,0,0.6,0.1,1,0.1c0,0,0,0,0,0c0.2,0,0.4-0.1,0.4-0.3
			C227.1,136.9,227,136.7,226.8,136.7"/>
		<path class="st3" d="M229.9,107.9c-0.1-0.1-0.2-0.1-0.4-0.1c-0.5,0.3-0.7,0.4-1.1,0.6c0.1-0.3,0.2-0.5,0.3-0.8
			c0.1-0.1,0-0.3-0.2-0.3c-0.1,0-0.3,0.1-0.4,0.2c-0.1,0.2-0.1,0.3-0.2,0.4c-0.1-0.1-0.1-0.2-0.2-0.4c-0.1-0.1-0.2-0.2-0.4-0.1
			c-0.2,0.1-0.2,0.2-0.2,0.3c0.1,0.2,0.2,0.5,0.2,0.5c0,0-0.6-0.1-0.9-0.2c-0.1,0-0.3,0.1-0.4,0.2c-0.1,0.1,0,0.3,0.1,0.3
			c0.4,0.1,0.8,0.1,1.2,0.2c-0.5,0.3-0.7,0.4-1.2,0.7c-0.1,0.1-0.2,0.2-0.2,0.4c0,0.1,0.1,0.1,0.2,0.1c0.1,0,0.1,0,0.2,0
			c0.4-0.2,0.6-0.3,1-0.5c-0.1,0.2-0.1,0.3-0.2,0.4c-0.1,0.1,0,0.3,0.2,0.3c0,0,0,0,0,0c0.1,0,0.3-0.1,0.3-0.2
			c0.1-0.2,0.1-0.3,0.2-0.5c0.1,0.2,0.2,0.4,0.4,0.6c0,0.1,0.1,0.1,0.2,0.1c0.1,0,0.1,0,0.2-0.1c0.1-0.1,0.2-0.3,0.1-0.4
			c-0.1-0.2-0.4-0.6-0.4-0.6c0,0,0.3,0,0.5,0.1c0,0,0,0,0,0c0.1,0,0.3-0.1,0.3-0.2c0.1-0.1,0-0.3-0.2-0.3c-0.1,0-0.2,0-0.2,0
			c0.3-0.2,0.5-0.3,0.8-0.4C229.8,108.1,229.9,108,229.9,107.9"/>
		<path class="st3" d="M221.4,117.7c0.5,0.5,1,1,1.4,1.3c0.1,0.1,0.2,0.1,0.4,0.1c0.2,0,0.4-0.1,0.6-0.2c0.3-0.2,0.3-0.6,0.1-0.8
			c-0.3-0.3-1-0.9-1-0.9c0,0,1.3,0.1,1.9,0.1c0,0,0,0,0.1,0c0.3,0,0.7-0.2,0.8-0.5c0.1-0.3-0.1-0.6-0.4-0.6c-0.8,0-2.3-0.1-2.3-0.1
			c0,0,1.4-0.6,2-0.8c0.4-0.1,0.7-0.4,0.7-0.7c0-0.3-0.3-0.5-0.6-0.4c-0.8,0.2-1.7,0.5-2.6,1c0.2-0.6,0.3-0.9,0.4-1.5
			c0.1-0.3-0.1-0.6-0.5-0.6c-0.4,0-0.7,0.2-0.8,0.5c-0.2,0.6-0.3,1-0.5,1.6c-0.5-0.5-1-0.9-1.4-1.2c-0.2-0.2-0.6-0.1-0.9,0.1
			c-0.3,0.2-0.3,0.6-0.1,0.8c0.4,0.3,1.2,1.1,1.2,1.1c0,0-1.4,0-2,0.1c-0.4,0-0.7,0.3-0.8,0.6c-0.1,0.3,0.2,0.5,0.5,0.5
			c0.6,0,1.8-0.1,1.8-0.1c0,0-1.2,1-1.6,1.5c-0.2,0.3-0.2,0.6,0,0.8c0.1,0.1,0.2,0.1,0.3,0.1c0.2,0,0.5-0.1,0.6-0.3
			c0.4-0.4,0.9-0.9,1.5-1.4c-0.3,0.9-0.4,1.3-0.7,2.2c-0.1,0.3,0.1,0.6,0.5,0.6c0,0,0,0,0,0c0.3,0,0.7-0.2,0.8-0.5
			C220.9,119.1,221.1,118.6,221.4,117.7z"/>
		<path class="st3" d="M225.2,123.8c-0.5-0.2-1-0.3-1.6-0.3c0.4-0.3,0.5-0.4,0.9-0.7c0.2-0.1,0.3-0.4,0.1-0.5
			c-0.1-0.1-0.4-0.1-0.6,0c-0.3,0.2-0.4,0.3-0.6,0.5c0.1-0.2,0.2-0.4,0.3-0.6c0.1-0.2,0-0.4-0.2-0.4c-0.2,0-0.5,0.1-0.6,0.3
			c-0.1,0.3-0.3,0.8-0.3,0.8c0,0-0.5-0.7-0.7-1c-0.1-0.2-0.4-0.2-0.6-0.1c-0.2,0.1-0.3,0.4-0.2,0.5c0.2,0.4,0.7,1.1,0.7,1.1
			c0,0.1-1.2,0-1.8,0.1c-0.2,0-0.5,0.2-0.5,0.4c0,0.2,0.1,0.4,0.4,0.3c0.5,0,1.1-0.1,1.7-0.1c-0.3,0.2-0.5,0.4-0.9,0.6
			c-0.2,0.1-0.3,0.4-0.1,0.5c0.1,0.1,0.2,0.1,0.3,0.1c0.1,0,0.2,0,0.3-0.1c0.3-0.2,0.4-0.3,0.7-0.5c-0.1,0.4-0.2,0.8-0.3,1.1
			c0,0.2,0.1,0.4,0.3,0.4c0,0,0,0,0,0c0.2,0,0.5-0.2,0.5-0.4c0.1-0.4,0.3-1.1,0.3-1.1c0,0,0.2,0.3,0.4,0.5c0.1,0.1,0.2,0.1,0.3,0.1
			c0.1,0,0.2,0,0.3-0.1c0.2-0.1,0.3-0.4,0.2-0.5c-0.1-0.1-0.3-0.4-0.3-0.4c0,0,0.8,0.1,1.2,0.3c0,0,0.1,0,0.1,0
			c0.2,0,0.4-0.1,0.5-0.3C225.5,124,225.4,123.8,225.2,123.8"/>
		<path class="st3" d="M205.5,117.6c-0.3-0.1-1.8-0.3-1.8-0.3c0,0,1-0.4,1.6-0.6c0.2-0.1,0.4-0.3,0.3-0.5c-0.1-0.2-0.3-0.3-0.5-0.2
			c-0.7,0.3-1.9,0.8-1.9,0.8c0,0,0.3-1.1,0.6-1.6c0.1-0.2,0-0.4-0.2-0.4c-0.2,0-0.5,0.1-0.6,0.3c-0.2,0.5-0.5,1.4-0.5,1.4
			c0,0-0.4-0.7-0.7-1.1c-0.1-0.2-0.3-0.2-0.6-0.1c-0.2,0.1-0.3,0.3-0.2,0.5c0.2,0.4,0.7,1.1,0.7,1.1c0,0-1.1-0.2-1.6-0.4
			c-0.2-0.1-0.5,0.1-0.6,0.2c-0.1,0.2,0,0.4,0.2,0.4c0.6,0.2,2,0.5,2,0.5c0,0.1-1.3,0.8-1.8,1.3c-0.2,0.2-0.2,0.4,0,0.5
			c0.1,0,0.1,0.1,0.2,0.1c0.1,0,0.3-0.1,0.4-0.1c0.5-0.4,1.7-1.2,1.7-1.2c0,0-0.1,0.5-0.1,0.7c0,0.2-0.1,0.4-0.1,0.6
			c0,0.2,0.1,0.3,0.3,0.3c0,0,0,0,0,0c0.2,0,0.5-0.2,0.5-0.4c0-0.2,0.1-0.4,0.1-0.7c0-0.1,0-0.2,0-0.2c0,0,0.6,0.7,0.9,1.1
			c0.1,0.1,0.2,0.1,0.3,0.1c0.1,0,0.2,0,0.3-0.1c0.2-0.1,0.3-0.4,0.2-0.5c-0.4-0.4-1-1.2-1-1.2c0,0,1.4,0.2,1.7,0.3c0,0,0.1,0,0.1,0
			c0.2,0,0.4-0.1,0.5-0.3C205.8,117.8,205.7,117.6,205.5,117.6"/>
		<path class="st3" d="M195.3,127.2c-0.3,0-0.5-0.1-0.8-0.1c0.3-0.2,0.4-0.3,0.7-0.5c0.1-0.1,0.2-0.2,0.1-0.3
			c-0.1-0.1-0.3-0.1-0.4,0c-0.2,0.1-0.2,0.2-0.4,0.3c0.1-0.1,0.1-0.3,0.1-0.4c0.1-0.1,0-0.2-0.2-0.3c-0.1,0-0.3,0.1-0.4,0.2
			c-0.1,0.2-0.2,0.5-0.2,0.5c0,0-0.3-0.4-0.5-0.6c-0.1-0.1-0.2-0.1-0.4,0c-0.1,0.1-0.2,0.2-0.1,0.3c0.2,0.2,0.5,0.7,0.5,0.7
			c0,0-0.8,0-1.2,0c-0.2,0-0.3,0.1-0.3,0.3c0,0.1,0.1,0.2,0.3,0.2c0.4-0.1,0.8,0,1.1,0c-0.2,0.1-0.3,0.2-0.6,0.4
			c-0.1,0.1-0.2,0.2-0.1,0.3c0,0,0.1,0.1,0.2,0.1c0.1,0,0.2,0,0.2-0.1c0.2-0.1,0.3-0.2,0.5-0.3c-0.1,0.2-0.1,0.5-0.2,0.7
			c0,0.1,0.1,0.2,0.2,0.2c0,0,0,0,0,0c0.2,0,0.3-0.1,0.3-0.2c0.1-0.2,0.2-0.7,0.2-0.7c0,0,0.2,0.2,0.3,0.3c0,0,0.1,0.1,0.2,0.1
			c0.1,0,0.1,0,0.2-0.1c0.1-0.1,0.2-0.2,0.1-0.3c-0.1-0.1-0.1-0.2-0.1-0.2c0,0,0.3,0,0.5,0.1c0,0,0,0,0,0c0.1,0,0.3-0.1,0.3-0.2
			C195.6,127.3,195.5,127.2,195.3,127.2"/>
		<path class="st3" d="M197.7,123.2c-0.5,0-1.5,0.1-1.5,0.1c0,0,0.9-0.7,1.5-0.9c0.1-0.1,0.2-0.2,0.2-0.3c-0.1-0.1-0.2-0.1-0.4-0.1
			c-0.5,0.3-1.4,0.9-1.4,0.9c0,0,0-0.7,0.1-1.1c0,0,0,0,0-0.1c0-0.1-0.1-0.2-0.3-0.2c-0.2,0-0.3,0.1-0.3,0.3c0,0,0,0,0,0.1
			c0,0.4-0.1,0.8-0.1,1.2c-0.2-0.1-0.4-0.2-0.6-0.4c-0.1-0.1-0.3,0-0.4,0.1c-0.1,0.1-0.1,0.2,0,0.3c0.3,0.2,0.4,0.2,0.7,0.4
			c-0.4,0.1-0.9,0.1-1.3,0.2c-0.2,0-0.3,0.2-0.3,0.3c0,0.1,0.1,0.2,0.2,0.2c0,0,0,0,0.1,0c0.3-0.1,1.1-0.2,1.1-0.2
			c0,0-0.3,0.4-0.4,0.6c-0.1,0.1,0,0.2,0.1,0.3c0,0,0,0,0.1,0c0.1,0,0.3-0.1,0.3-0.2c0.1-0.2,0.5-0.7,0.5-0.7c0,0,0.2,1.1,0.4,1.5
			c0,0.1,0.1,0.1,0.2,0.1c0.1,0,0.1,0,0.2,0c0.1-0.1,0.2-0.2,0.1-0.3c-0.2-0.3-0.3-0.7-0.4-1.2c0.3,0.2,0.5,0.3,0.9,0.5
			c0,0,0.1,0,0.1,0c0.1,0,0.2,0,0.3-0.1c0.1-0.1,0.1-0.3,0-0.3c-0.3-0.2-0.4-0.2-0.6-0.4c0.3,0,0.6,0,0.9-0.1c0.2,0,0.3-0.1,0.3-0.2
			C198,123.3,197.9,123.2,197.7,123.2"/>
		<path class="st3" d="M219.3,111.2c-0.6-0.1-1.8,0-1.8,0c0,0,1.1-0.6,1.7-1c0.2-0.1,0.3-0.3,0.2-0.4c-0.1-0.1-0.3-0.2-0.5-0.1
			c-0.7,0.4-2,1.2-2,1.2c0,0,0.3-1.3,0.4-1.8c0-0.2-0.1-0.3-0.2-0.3c-0.2,0-0.4,0.1-0.4,0.3c-0.2,0.5-0.4,1.8-0.4,1.8
			c0,0-0.5-0.5-0.6-0.8c0-0.1-0.2-0.2-0.4-0.1c-0.2,0.1-0.3,0.2-0.3,0.4c0.1,0.4,0.7,1,0.7,1c0,0-0.8,0.1-1.3,0.2
			c-0.2,0-0.4,0.2-0.4,0.3c0,0.1,0.1,0.2,0.3,0.2c0,0,0,0,0,0c0.3,0,1-0.1,1-0.1c0,0-0.7,0.5-0.9,0.8c-0.1,0.1-0.2,0.3,0,0.4
			c0.1,0,0.1,0.1,0.2,0.1c0.1,0,0.2,0,0.3-0.1c0.3-0.3,1.2-0.9,1.2-0.9c0,0-0.2,1.2-0.3,1.7c0,0.1,0,0.1,0,0.2
			c0,0.2,0.1,0.3,0.3,0.3c0,0,0,0,0,0c0.2,0,0.4-0.2,0.4-0.3c0-0.1,0-0.1,0-0.2c0.1-0.5,0.2-1.8,0.3-1.8c0,0,0.1,0.1,0.2,0.1
			c0.5,0.3,0.9,0.5,1.2,0.8c0.1,0.1,0.1,0.1,0.2,0.1c0.1,0,0.2,0,0.2-0.1c0.2-0.1,0.2-0.3,0.1-0.4c-0.3-0.3-1.1-0.8-1.1-0.8
			c0,0,1,0,1.5,0c0.2,0,0.4-0.1,0.5-0.3C219.6,111.4,219.5,111.3,219.3,111.2"/>
		<path class="st3" d="M212.6,113.1c-0.1-0.2-0.4-0.2-0.6,0c-0.7,0.4-1,0.6-1.7,1c0.1-0.5,0.2-0.8,0.3-1.3c0.1-0.2-0.1-0.4-0.3-0.4
			c-0.2,0-0.5,0.2-0.5,0.4c-0.1,0.3-0.1,0.4-0.2,0.7c-0.1-0.2-0.2-0.4-0.4-0.6c-0.1-0.2-0.3-0.2-0.6-0.1c-0.2,0.1-0.3,0.3-0.2,0.5
			c0.1,0.3,0.5,0.8,0.5,0.8c0,0-1-0.1-1.5-0.2c-0.2,0-0.5,0.1-0.6,0.3c-0.1,0.2,0,0.4,0.2,0.4c0.6,0.1,1.3,0.2,2,0.3
			c-0.7,0.4-1.1,0.6-1.9,1.1c-0.2,0.1-0.3,0.4-0.2,0.5c0.1,0.1,0.2,0.1,0.3,0.1c0.1,0,0.2,0,0.3-0.1c0.6-0.4,0.9-0.5,1.5-0.9
			c-0.1,0.5-0.2,0.7-0.3,1.2c-0.1,0.2,0.1,0.4,0.3,0.4c0,0,0,0,0,0c0.2,0,0.5-0.2,0.5-0.4c0.1-0.5,0.2-0.7,0.3-1.2
			c0.2,0.3,0.5,0.6,0.7,0.9c0.1,0.1,0.2,0.1,0.3,0.1c0.1,0,0.2,0,0.3-0.1c0.2-0.1,0.3-0.4,0.1-0.5c-0.3-0.3-0.7-0.9-0.7-0.9
			c0,0,0.5,0,0.8,0.1c0,0,0,0,0.1,0c0.2,0,0.4-0.1,0.5-0.3c0.1-0.2,0-0.4-0.3-0.4c-0.2,0-0.3,0-0.5,0c0.5-0.3,0.7-0.4,1.2-0.7
			C212.6,113.5,212.7,113.2,212.6,113.1"/>
		<path class="st3" d="M236.7,116.3c-0.6-0.1-1.6-0.5-1.6-0.5c0,0,0.7-0.2,1-0.4c0.2-0.1,0.4-0.3,0.4-0.5c0-0.2-0.3-0.3-0.5-0.2
			c-0.3,0.1-0.5,0.2-0.8,0.3c0.4-0.5,0.5-0.8,0.9-1.3c0.1-0.2,0.1-0.4-0.1-0.5c-0.2-0.1-0.5,0-0.6,0.2c-0.5,0.8-0.8,1.1-1.3,1.9
			c-0.3-0.6-0.4-0.9-0.7-1.5c-0.1-0.2-0.3-0.2-0.6-0.1c-0.2,0.1-0.3,0.4-0.3,0.5c0.2,0.3,0.2,0.5,0.4,0.8c-0.3-0.1-0.7-0.3-1-0.4
			c-0.2-0.1-0.5,0-0.6,0.2c-0.1,0.2-0.1,0.4,0.1,0.5c0.4,0.2,1.2,0.5,1.2,0.5c0,0-1.3,0.4-2,0.6c-0.2,0.1-0.4,0.3-0.4,0.5
			c0,0.2,0.2,0.3,0.3,0.3c0,0,0.1,0,0.1,0c0.9-0.2,1.8-0.5,2.6-0.8c-0.5,0.8-0.8,1.2-1.4,2c-0.1,0.2-0.1,0.4,0.1,0.5
			c0,0,0.1,0,0.2,0c0.2,0,0.3-0.1,0.5-0.2c0.5-0.7,0.7-1,1.1-1.7c0.2,0.4,0.3,0.5,0.4,0.9c0.1,0.1,0.2,0.2,0.3,0.2
			c0.1,0,0.2,0,0.2-0.1c0.2-0.1,0.3-0.4,0.3-0.5c-0.2-0.4-0.2-0.5-0.4-0.9c0.5,0.2,1.1,0.3,1.7,0.5c0,0,0.1,0,0.1,0
			c0.2,0,0.4-0.1,0.5-0.3C237,116.5,236.9,116.3,236.7,116.3"/>
		<path class="st3" d="M243.3,106.3c-1,0.4-1.5,0.6-2.6,1.1c0.4-0.6,0.6-0.9,0.9-1.5c0.2-0.3,0.1-0.6-0.2-0.7
			c-0.3-0.1-0.6,0.1-0.8,0.3c-0.3,0.4-0.4,0.7-0.7,1.1c-0.2-0.8-0.4-1.5-0.5-2.1c0-0.3-0.3-0.4-0.7-0.3c-0.3,0.1-0.5,0.4-0.5,0.7
			c0.1,0.6,0.5,2.3,0.5,2.3c-0.1,0.1-1.3-0.3-1.9-0.5c-0.3-0.1-0.6,0.1-0.8,0.3c-0.2,0.3-0.1,0.6,0.2,0.6c0.7,0.2,1.4,0.4,2.1,0.6
			c-1.1,0.5-1.7,0.7-2.8,1.1c-0.3,0.1-0.5,0.4-0.4,0.7c0.1,0.2,0.2,0.3,0.5,0.3c0.1,0,0.2,0,0.2-0.1c0.9-0.4,1.4-0.6,2.3-0.9
			c-0.2,0.3-0.3,0.4-0.5,0.7c-0.2,0.3-0.1,0.6,0.2,0.7c0.1,0,0.1,0,0.2,0c0.2,0,0.5-0.1,0.6-0.3c0.3-0.5,0.4-0.7,0.7-1.2
			c0.2,0.8,0.5,1.4,0.6,1.9c0.1,0.2,0.2,0.3,0.4,0.2c0.1,0,0.2,0,0.3-0.1c0.3-0.1,0.5-0.5,0.4-0.7c-0.2-0.5-0.6-1.9-0.6-1.9
			c0,0,0.7,0.2,1.1,0.2c0,0,0.1,0,0.1,0c0.3,0,0.5-0.2,0.6-0.4c0.1-0.3,0-0.6-0.3-0.6c-0.1,0-0.2-0.1-0.4-0.1c0.7-0.3,1-0.4,1.7-0.7
			c0.3-0.1,0.5-0.4,0.4-0.7C243.9,106.2,243.6,106.1,243.3,106.3"/>
		<path class="st3" d="M254.8,111.3c-0.7,0-2.1-0.2-2.1-0.2c0,0,0.9-0.6,1.3-0.9c0.2-0.1,0.2-0.3,0.2-0.5c-0.1-0.1-0.3-0.2-0.5,0
			c-0.5,0.3-1.6,1-1.6,1c0,0,0.7-1.5,1.3-2.2c0.1-0.1,0.1-0.3,0-0.4c-0.1-0.1-0.3-0.1-0.5,0.1c-0.6,0.7-1.1,1.5-1.4,2.3
			c-0.3-0.4-0.5-0.7-0.8-1.1c-0.1-0.1-0.3-0.1-0.5,0c-0.2,0.1-0.2,0.3-0.1,0.4c0.3,0.4,0.5,0.6,0.8,1.1c-0.5-0.1-1-0.2-1.5-0.3
			c-0.2,0-0.4,0.1-0.5,0.3c-0.1,0.2,0,0.3,0.2,0.4c0.6,0.1,1.7,0.3,1.7,0.3c0,0-1.5,0.9-2.3,1.3c-0.2,0.1-0.3,0.3-0.2,0.4
			c0,0.1,0.1,0.1,0.3,0.1c0.1,0,0.1,0,0.2-0.1c0.8-0.4,2.3-1.3,2.3-1.3c0,0-0.2,0.6-0.2,0.9c-0.1,0.5-0.3,1.1-0.4,1.6
			c-0.1,0.2,0.1,0.3,0.2,0.3c0,0,0,0,0,0c0.2,0,0.4-0.1,0.4-0.3c0.2-0.5,0.3-1.1,0.4-1.6c0.1-0.3,0.2-0.7,0.2-1
			c0.4,0.5,0.6,0.8,0.9,1.3c0,0.1,0.1,0.1,0.2,0.1c0.1,0,0.2,0,0.2-0.1c0.2-0.1,0.2-0.3,0.1-0.5c-0.3-0.5-0.5-0.7-0.8-1.2
			c0.7,0.1,1.4,0.1,2.1,0.2c0,0,0,0,0,0c0.2,0,0.4-0.1,0.4-0.3C255.1,111.5,255,111.3,254.8,111.3"/>
		<path class="st3" d="M258.6,99.6c-0.4,0-1.2,0-1.2,0c0,0,0.4-0.4,0.6-0.5c0.3-0.3,0.6-0.6,0.9-0.8c0.1-0.1,0.2-0.3,0.1-0.4
			c-0.1-0.1-0.3-0.1-0.4,0c-0.2,0.2-0.5,0.5-0.9,0.8c-0.1,0.1-0.5,0.4-0.5,0.4c0,0,0.3-0.9,0.4-1.3c0-0.1,0-0.3-0.2-0.3
			c-0.1,0-0.3,0.1-0.4,0.2c-0.1,0.4-0.4,1.3-0.4,1.3c0,0-0.4-0.5-0.6-0.8c-0.1-0.1-0.3-0.1-0.4,0c-0.1,0.1-0.2,0.3-0.1,0.4
			c0.2,0.3,0.8,1,0.8,1c0,0-1.1,0-1.5-0.1c-0.1,0-0.3,0-0.4,0.2c-0.1,0.1,0,0.3,0.1,0.3c0.4,0.1,1.4,0.1,1.4,0.1
			c0,0-0.7,0.5-0.9,0.5c-0.2,0.1-0.3,0.2-0.2,0.3c0,0.1,0.1,0.2,0.2,0.2c0,0,0.1,0,0.1,0c0.3-0.1,1.1-0.7,1.1-0.7
			c0,0-0.1,0.5-0.1,0.7c0,0.1,0.1,0.3,0.2,0.2c0,0,0,0,0,0c0.2,0,0.3-0.1,0.3-0.3c0-0.3,0.2-0.9,0.2-0.9c0,0,0.2,0.3,0.4,0.4
			c0,0,0.1,0.1,0.2,0.1c0.1,0,0.1,0,0.2-0.1c0.1-0.1,0.2-0.3,0.1-0.4c0-0.1-0.1-0.2-0.1-0.2c0,0,0.6,0,0.9,0c0,0,0,0,0,0
			c0.1,0,0.3-0.1,0.3-0.2C258.8,99.7,258.7,99.6,258.6,99.6"/>
		<path class="st3" d="M245.8,114.2c-0.4,0.3-0.7,0.4-1.1,0.7c0.1-0.3,0.2-0.5,0.3-0.8c0-0.1,0-0.3-0.2-0.3c-0.1,0-0.3,0.1-0.4,0.2
			c-0.1,0.2-0.1,0.3-0.1,0.4c-0.1-0.1-0.1-0.2-0.2-0.4c-0.1-0.1-0.2-0.2-0.4-0.1c-0.2,0.1-0.2,0.2-0.2,0.4c0.1,0.2,0.3,0.5,0.3,0.5
			c0,0-0.6-0.1-0.9-0.2c-0.1,0-0.3,0.1-0.4,0.2c-0.1,0.1,0,0.3,0.1,0.3c0.4,0.1,0.8,0.1,1.2,0.2c-0.5,0.3-0.7,0.4-1.2,0.7
			c-0.1,0.1-0.2,0.3-0.2,0.4c0,0.1,0.1,0.1,0.2,0.1c0.1,0,0.1,0,0.2-0.1c0.4-0.2,0.6-0.4,1-0.6c-0.1,0.2-0.1,0.3-0.1,0.5
			c0,0.1,0,0.3,0.2,0.3c0,0,0,0,0,0c0.1,0,0.3-0.1,0.3-0.2c0.1-0.2,0.1-0.3,0.2-0.6c0.1,0.2,0.3,0.4,0.4,0.6c0,0.1,0.1,0.1,0.2,0.1
			c0.1,0,0.1,0,0.2-0.1c0.1-0.1,0.2-0.3,0.1-0.4c-0.1-0.2-0.4-0.6-0.4-0.6c0,0,0.3,0,0.5,0.1c0,0,0,0,0,0c0.1,0,0.3-0.1,0.3-0.2
			c0.1-0.1,0-0.3-0.2-0.3c-0.1,0-0.2,0-0.2,0c0.3-0.2,0.5-0.3,0.8-0.5c0.1-0.1,0.2-0.3,0.2-0.4C246.1,114.1,245.9,114.1,245.8,114.2
			"/>
		<path class="st3" d="M232.9,127.3c-0.3-0.1-0.5-0.1-0.8-0.2c-0.4-0.1-1.2-0.2-1.2-0.2c0,0,1.1-0.5,1.5-0.7
			c0.3-0.2,0.5-0.5,0.4-0.8c-0.1-0.3-0.5-0.3-0.8-0.2c-0.6,0.3-2.3,1.1-2.3,1.1c-0.1-0.1,1.3-3.5,1.3-4.1c0-0.3-0.2-0.5-0.6-0.5
			c-0.4,0-0.7,0.3-0.7,0.7c0,0.5-1.1,3.4-1.1,3.4c-0.1,0-0.9-1.6-0.9-2.3c0-0.3-0.3-0.5-0.7-0.4c-0.4,0.1-0.6,0.4-0.6,0.7
			c0.1,0.8,0.9,2.4,0.9,2.4c0,0.1-1.4-0.3-1.8-0.4c-0.3-0.1-0.7,0.1-0.9,0.4c-0.2,0.3-0.1,0.6,0.2,0.7c0.5,0.1,2.2,0.5,2.2,0.5
			c0,0-0.9,0.4-1.3,0.6c-0.3,0.2-0.5,0.5-0.4,0.8c0.1,0.2,0.3,0.3,0.5,0.3c0.1,0,0.2,0,0.4-0.1c0.4-0.2,1.3-0.6,1.3-0.6
			c0.1,0.1-0.8,1.8-1.1,2.2c-0.2,0.3-0.1,0.6,0.2,0.7c0.1,0,0.1,0,0.2,0c0.3,0,0.6-0.2,0.7-0.4c0.3-0.5,1.2-2.6,1.2-2.6
			c0,0,0.3,0.4,0.5,0.6c0.4,0.5,0.7,0.9,0.9,1.2c0.1,0.1,0.2,0.2,0.4,0.2c0.1,0,0.3,0,0.4-0.1c0.3-0.2,0.5-0.6,0.3-0.8
			c-0.2-0.3-0.5-0.8-0.9-1.3c0-0.1-0.1-0.2-0.1-0.2c0,0,0.9,0.2,1.3,0.3c0.3,0.1,0.5,0.1,0.8,0.2c0,0,0.1,0,0.1,0
			c0.3,0,0.6-0.2,0.7-0.5C233.4,127.7,233.2,127.4,232.9,127.3"/>
		<path class="st3" d="M221.9,133.9c-0.5-0.4-1.8-1.4-1.8-1.4c0,0,1.3-0.2,2-0.3c0.4-0.1,0.6-0.4,0.6-0.7c0-0.3-0.3-0.5-0.6-0.4
			c-0.6,0.1-1.9,0.3-1.9,0.3c0-0.1,1.6-1.8,2-2.5c0.2-0.3,0.1-0.7-0.2-0.8c-0.3-0.1-0.8,0-1,0.3c-0.4,0.6-2,2.4-2,2.4c0,0,0-1.3,0-2
			c0-0.3-0.3-0.5-0.6-0.4c-0.4,0.1-0.7,0.3-0.7,0.7c0,0.5,0,1.4,0,1.4c-0.1,0-1-0.9-1.5-1.2c-0.2-0.2-0.7-0.2-1,0.1
			c-0.3,0.3-0.4,0.7-0.1,0.9c0.5,0.5,1.8,1.6,1.8,1.6c0,0.1-1.6,0.2-2.4,0.4c-0.4,0.1-0.6,0.4-0.6,0.7c0,0.3,0.2,0.4,0.5,0.4
			c0,0,0.1,0,0.2,0c0.8-0.1,2.5-0.4,2.5-0.4c0,0.1-1.8,1.6-2.5,2.1c-0.3,0.2-0.4,0.6-0.2,0.9c0.1,0.1,0.3,0.2,0.4,0.2
			c0.2,0,0.4,0,0.5-0.2c0.7-0.5,2.5-2.1,2.5-2.1c0.1,0,0.1,1.3,0.2,1.9c0,0.2,0.2,0.4,0.5,0.4c0.1,0,0.1,0,0.2,0
			c0.4-0.1,0.6-0.4,0.6-0.7c-0.1-0.6-0.2-1.8-0.2-1.8c0.1,0,1.2,1,1.8,1.4c0.1,0.1,0.2,0.1,0.4,0.1c0.2,0,0.5-0.1,0.7-0.3
			C222.1,134.5,222.2,134.2,221.9,133.9"/>
		<path class="st3" d="M215.7,119.2c0.1-0.3-0.2-0.5-0.5-0.5c-0.8,0-2.7,0.6-2.7,0.6c0,0,1.1-1.7,1.3-1.9c0.3-0.2,0.4-0.6,0.2-0.8
			c-0.2-0.2-0.6-0.2-0.9,0c-0.5,0.4-1.8,2.5-1.8,2.5c0,0-0.2-0.4-0.3-0.6c-0.2-0.4-0.4-0.8-0.5-1.1c-0.1-0.3-0.5-0.3-0.8-0.2
			c-0.3,0.2-0.5,0.5-0.4,0.7c0.2,0.3,0.3,0.7,0.6,1.1c0,0,0,0.1,0,0.1c0,0-1.3-0.3-1.7-0.4c-0.3-0.1-0.7,0-0.9,0.3
			c-0.2,0.3-0.1,0.6,0.2,0.7c0.5,0.2,1.2,0.3,1.9,0.5c0.1,0,0.4,0.1,0.4,0.1c0,0-1.5,0.7-2.1,0.9c0,0-0.4,0.2-0.2,0.7
			c0.2,0.3,0.6,0.2,0.6,0.2c0.5-0.2,1.9-0.9,1.9-0.9c0,0-0.8,1.3-1.1,1.8c-0.2,0.3-0.1,0.6,0.2,0.7c0.1,0,0.1,0,0.2,0
			c0.3,0,0.5-0.1,0.7-0.3c0.3-0.5,1.1-1.7,1.1-1.7c0,0,0.3,0.8,0.3,1.2c0,0.2,0.2,0.4,0.5,0.4c0.1,0,0.1,0,0.2,0
			c0.4-0.1,0.6-0.4,0.6-0.7c0-0.5-0.4-1.6-0.4-1.6c0,0,1.2,0.5,1.4,0.8c0.1,0.1,0.2,0.2,0.4,0.2c0.2,0,0.3-0.1,0.5-0.2
			c0.3-0.2,0.4-0.6,0.2-0.8c-0.4-0.4-1.7-1-1.7-1c0,0,1.4-0.4,1.9-0.4C215.3,119.8,215.6,119.5,215.7,119.2"/>
		<path class="st3" d="M203.1,137.6c-0.5,0-1.7-0.1-1.7-0.1c0,0,0.8-0.3,1.2-0.4c0.2-0.1,0.4-0.3,0.3-0.5c-0.1-0.2-0.3-0.3-0.5-0.2
			c-0.4,0.1-1.2,0.4-1.2,0.4c0,0,0.3-0.4,0.5-0.6c0.2-0.2,0.3-0.4,0.5-0.6c0.1-0.2,0.1-0.4-0.1-0.5c-0.2-0.1-0.5,0-0.6,0.2
			c-0.1,0.2-0.3,0.4-0.5,0.6c-0.2,0.3-0.5,0.6-0.8,0.9c-0.2-0.5-0.3-0.8-0.5-1.3c-0.1-0.2-0.3-0.3-0.5-0.2c-0.2,0.1-0.4,0.3-0.3,0.5
			c0.2,0.6,0.3,0.8,0.5,1.4c-0.2,0-0.3-0.1-0.5-0.1c-0.5-0.1-0.9-0.2-1.2-0.2c-0.2,0-0.5,0.1-0.6,0.3c-0.1,0.2,0,0.4,0.3,0.4
			c0.3,0.1,0.7,0.1,1.2,0.2c0,0,0,0,0,0c0,0-1.1,0.5-1.6,0.7c-0.2,0.1-0.3,0.3-0.2,0.5c0.1,0.1,0.2,0.2,0.3,0.2c0.1,0,0.2,0,0.2,0
			c0.6-0.3,1.9-0.8,1.9-0.8c0,0-0.5,1.3-0.5,2.1c0,0.2,0.1,0.3,0.3,0.3c0,0,0.1,0,0.1,0c0.2,0,0.4-0.2,0.4-0.4c0-0.5,0.1-1,0.3-1.5
			c0.2,0.6,0.3,0.9,0.5,1.5c0,0.1,0.2,0.2,0.3,0.2c0.1,0,0.1,0,0.2,0c0.2-0.1,0.4-0.3,0.3-0.5c-0.2-0.7-0.4-1.1-0.6-1.8
			c0.6,0.1,1.2,0.2,1.7,0.2c0.2,0,0.4,0,0.5,0c0.2,0,0.4-0.2,0.5-0.4C203.5,137.8,203.3,137.6,203.1,137.6"/>
		<path class="st3" d="M207.7,140.9c-0.3-0.1-1.2-0.6-1.2-0.6c0,0,1.1-0.3,1.5-0.4c0.2,0,0.3-0.2,0.3-0.4c0-0.2-0.2-0.3-0.4-0.2
			c-0.4,0.1-1.4,0.4-1.4,0.4c0,0,0.7-0.7,1-0.8c0.2-0.1,0.3-0.3,0.2-0.4c-0.1-0.1-0.3-0.2-0.4-0.1c-0.4,0.2-0.9,0.5-1.3,1
			c-0.1-0.4-0.1-0.6-0.2-1c0-0.2-0.2-0.2-0.4-0.2c-0.2,0-0.3,0.2-0.3,0.4c0.1,0.5,0.1,0.7,0.2,1.2c-0.5-0.3-1-0.5-1.4-0.7
			c-0.2-0.1-0.4,0-0.5,0.2c-0.1,0.1-0.1,0.3,0.1,0.4c0.3,0.1,1.3,0.7,1.3,0.7c0,0-0.5,0.2-0.7,0.3c-0.4,0.1-0.7,0.2-1,0.3
			c-0.2,0.1-0.3,0.2-0.3,0.4c0,0.1,0.1,0.2,0.3,0.2c0,0,0.1,0,0.1,0c0.3-0.1,0.6-0.2,1-0.3c0.2-0.1,0.5-0.2,0.5-0.2
			c0,0-0.7,1.3-0.9,1.9c0,0.2,0.1,0.3,0.3,0.3c0,0,0,0,0,0c0.2,0,0.4-0.1,0.4-0.3c0.1-0.5,0.5-1.2,0.9-1.8c0.1,0.5,0.1,0.8,0.2,1.3
			c0,0.1,0.1,0.2,0.3,0.2c0,0,0.1,0,0.1,0c0.2,0,0.3-0.2,0.3-0.4c-0.1-0.4-0.1-0.7-0.2-1.1c0.4,0.2,0.7,0.4,1,0.5c0,0,0.1,0,0.1,0
			c0.1,0,0.3-0.1,0.4-0.2C207.9,141.1,207.9,140.9,207.7,140.9"/>
		<path class="st3" d="M197.9,134.5c-0.1-0.5-0.4-1.1-0.7-1.6c0-0.1-0.1-0.2-0.1-0.2c0,0,1.2,0.4,1.8,0.6c0,0,0.1,0,0.1,0
			c0.2,0,0.3-0.1,0.4-0.2c0.1-0.2,0-0.4-0.2-0.5c-0.7-0.2-1.4-0.5-2.1-0.7c0.7-0.4,1.1-0.5,1.8-0.9c0.2-0.1,0.3-0.3,0.2-0.5
			c-0.1-0.2-0.3-0.2-0.6-0.1c-0.6,0.3-0.9,0.4-1.5,0.7c0.3-0.4,0.6-0.9,1-1.3c0.2-0.2,0.1-0.4,0-0.5c-0.2-0.1-0.5,0-0.6,0.1
			c-0.5,0.5-1.2,1.5-1.2,1.5c-0.1,0-0.3-1.2-0.2-1.8c0-0.2-0.2-0.3-0.4-0.3c-0.2,0-0.4,0.2-0.5,0.4c-0.1,0.8,0.3,2.2,0.3,2.2
			c-0.1,0.1-1.6-0.4-2.4-0.5c-0.2,0-0.5,0.1-0.6,0.3c-0.1,0.2,0,0.4,0.2,0.4c0.8,0.1,1.6,0.3,2.4,0.5c-0.7,0.3-1,0.5-1.7,0.8
			c-0.2,0.1-0.3,0.3-0.2,0.5c0.1,0.1,0.2,0.2,0.3,0.2c0.1,0,0.2,0,0.3-0.1c0.6-0.3,0.9-0.4,1.4-0.7c-0.2,0.3-0.3,0.7-0.5,1
			c-0.3,0.5-0.5,1-0.7,1.4c-0.1,0.2,0,0.4,0.2,0.4c0,0,0.1,0,0.1,0c0.2,0,0.4-0.1,0.5-0.2c0.3-0.5,0.5-0.9,0.8-1.5
			c0.2-0.4,0.6-1.2,0.6-1.2c0,0,0.1,0.2,0.1,0.3c0.3,0.5,0.5,1.1,0.6,1.5c0,0.1,0.2,0.2,0.3,0.2c0.1,0,0.1,0,0.2,0
			C197.8,134.9,198,134.7,197.9,134.5"/>
		<path class="st3" d="M205,135.2c0.1-0.7,0.4-2.6,0.5-2.6c0.1,0,1.1,0.7,1.7,0.9c0.1,0,0.1,0,0.2,0c0.3,0,0.6-0.1,0.7-0.4
			c0.2-0.3,0.1-0.6-0.2-0.7c-0.5-0.2-1.4-0.7-1.4-0.7c0-0.1,1.9-0.2,2.6-0.2c0.3,0,0.7-0.2,0.8-0.5c0.1-0.3-0.1-0.6-0.5-0.6
			c-0.6,0-2.4,0.1-2.4,0.1c0,0,0.9-0.7,1.3-1.1c0.3-0.2,0.3-0.6,0.1-0.8c-0.2-0.2-0.6-0.2-0.9,0.1c-0.4,0.4-1.3,1.1-1.3,1.1
			c0,0,0-0.1,0-0.1c0.2-0.6,0.3-1.2,0.4-1.7c0.1-0.3-0.2-0.5-0.5-0.5c-0.3,0-0.7,0.2-0.8,0.5c-0.1,0.5-0.2,1.1-0.4,1.7
			c0,0.1-0.1,0.4-0.1,0.4c0,0-0.4-0.4-0.6-0.6c-0.2-0.2-0.4-0.4-0.6-0.6c-0.2-0.2-0.6-0.2-0.9,0c-0.3,0.2-0.4,0.5-0.2,0.7
			c0.2,0.2,0.4,0.4,0.6,0.6c0.3,0.3,0.8,0.9,0.8,0.9c0,0.1-2.1,0.6-2.9,0.9c-0.3,0.1-0.5,0.5-0.4,0.7c0.1,0.2,0.3,0.3,0.5,0.3
			c0.1,0,0.2,0,0.3-0.1c0.6-0.3,2.1-0.7,2.1-0.7c0,0-1,1-1.4,1.4c-0.2,0.2-0.2,0.6,0,0.7c0.1,0.1,0.2,0.1,0.3,0.1
			c0.2,0,0.5-0.1,0.6-0.2c0.3-0.4,1.1-1.1,1.1-1.1c0,0-0.3,1.5-0.4,2.1c0,0.3,0.2,0.5,0.5,0.5c0,0,0.1,0,0.1,0
			C204.6,135.7,204.9,135.5,205,135.2"/>
		<path class="st3" d="M205.3,125.2c-0.6-0.2-1.3-0.4-2.1-0.6c0.6-0.4,1-0.6,1.6-1.1c0.3-0.2,0.4-0.5,0.2-0.8
			c-0.2-0.2-0.6-0.2-0.9,0c-0.3,0.2-0.4,0.3-0.7,0.5c0.1-0.3,0.3-0.6,0.4-0.9c0.2-0.3,0-0.6-0.3-0.6c-0.3-0.1-0.7,0.1-0.9,0.4
			c-0.2,0.4-0.6,1.2-0.6,1.2c0,0-0.4-1-0.6-1.5c-0.1-0.3-0.4-0.4-0.8-0.2c-0.3,0.1-0.6,0.4-0.5,0.7c0.2,0.6,0.7,1.9,0.7,1.9
			c-0.1,0.1-1.6-0.2-2.4-0.2c-0.4,0-0.7,0.2-0.8,0.5c-0.1,0.3,0.2,0.5,0.5,0.5c0.7,0,1.4,0.1,2.2,0.2c-0.5,0.4-0.8,0.5-1.3,0.9
			c-0.3,0.2-0.4,0.5-0.2,0.7c0.1,0.1,0.3,0.2,0.4,0.2c0.2,0,0.3,0,0.5-0.1c0.4-0.2,0.5-0.4,0.9-0.6c-0.2,0.5-0.4,1.1-0.6,1.6
			c-0.1,0.3,0.1,0.6,0.4,0.6c0,0,0,0,0.1,0c0.3,0,0.6-0.2,0.8-0.5c0.2-0.5,0.6-1.6,0.6-1.6c0,0,0.2,0.4,0.3,0.6
			c0.1,0.2,0.3,0.3,0.5,0.3c0.1,0,0.2,0,0.4-0.1c0.3-0.2,0.5-0.5,0.4-0.7c-0.1-0.2-0.3-0.7-0.3-0.7c0,0,1.1,0.3,1.5,0.5
			c0.1,0,0.1,0,0.2,0c0.3,0,0.5-0.1,0.7-0.3C205.7,125.6,205.6,125.3,205.3,125.2"/>
	</g>
</g>
</svg>
