<?xml version="1.0" encoding="utf-8"?>
<!-- Generator: Adobe Illustrator 25.0.0, SVG Export Plug-In . SVG Version: 6.00 Build 0)  -->
<svg version="1.1" xmlns="http://www.w3.org/2000/svg" xmlns:xlink="http://www.w3.org/1999/xlink" x="0px" y="0px"
	 viewBox="0 0 426.5 209" style="enable-background:new 0 0 426.5 209;" xml:space="preserve">
<style type="text/css">
	.st0{fill:#FFFFFF;}
	.st1{fill:#EA5436;}
	.st2{fill:#0F3548;}
	.st3{fill:#E45E47;}
	.st4{font-family:'MyriadPro-Regular';}
	.st5{font-size:76.7662px;}
	.st6{fill:none;stroke:#E45E47;stroke-width:3;stroke-linecap:round;stroke-miterlimit:10;}
</style>
<g id="Calque_3">
	<path class="st0" d="M373.6,59.9c0.3-1.5,0.6-3,1-4.5c0.8-2.9,0.7-5.9-0.1-8.5c-0.1-0.9-0.2-1.8-0.6-2.7c-0.3-1.6-1-3-2.1-4.3
		c-0.8-0.7-1.5-1.4-2.3-2.1c-1.2-1-2.6-1.6-4.2-1.8c-0.9-0.3-1.8-0.4-2.7-0.4c-0.3-0.1-0.7-0.2-1-0.3c-0.8-0.1-1.5-0.1-2.3-0.1
		c-0.2-1.1-0.6-2.1-1.1-3c-0.2-0.6-0.4-1.2-0.7-1.8c-4.6-0.5-8.3-2.6-12-5.5c-0.3-0.3-0.6-0.6-0.8-0.9c-1.1,0.1-2.1,0.4-3.1,0.9
		c-0.6,0.4-1.1,0.7-1.7,1.1c-0.1-0.1-0.1-0.2-0.2-0.3c0,0,0,0,0-0.1c-0.8-0.7-1.5-1.4-2.3-2.1c-0.5-0.4-1.1-0.6-1.6-0.9
		c-0.5-0.3-1-0.6-1.6-0.8c-0.5-0.1-1-0.3-1.5-0.4c-0.5-0.2-1-0.4-1.6-0.4c0,0-0.1,0-0.1,0c-1,0-2.1,0-3.1,0.1c-0.1,0-0.2,0-0.3,0
		c-0.5,0.1-1,0.2-1.4,0.3c0,0.1,0,0.1-0.1,0.2c-3.5,8.3-6.2,16.9-6.3,25.9c-0.1,2.7-1.8,4.2-3.8,4.7c-0.2,0.5-0.4,0.9-0.7,1.3
		c0.5,0.8,0.9,1.5,1.4,2.3c0.5,0.6,1.1,1.2,1.7,1.6c-0.9-0.2-1.7-0.2-2.6-0.1c-1.1-0.1-2.2,0-3.2,0.5c-1.6,0.3-3.1,1.1-4.4,2.2
		c-0.1,0.1-0.2,0.2-0.3,0.3c-0.4-0.2-0.9-0.3-1.4-0.4c0-0.3,0-0.6-0.1-1c-0.1-2.1-1.1-4.1-2.6-5.8c0.8-0.6,1.6-1.4,2.2-2.3
		c0.1-0.1,0.1-0.2,0.1-0.2c0,0,0-0.1,0-0.1c0-5.1-0.6-10.3-0.6-15.4c0-0.4,0-0.7,0.1-1c-0.2-0.2-0.4-0.4-0.6-0.5
		c-1-1.2-2.3-2-3.8-2.5c-1-0.2-2-0.5-3-0.7c-0.6-0.1-1.2-0.1-1.8,0c-1-0.2-1.9-0.5-2.9-0.7c-1.6-0.2-3.2-0.1-4.7,0.5
		c-1.1,0.2-2.1,0.6-3,1.3c-1.4,0.7-2.6,1.8-3.5,3.2c-0.2,0.4-0.4,0.8-0.6,1.1c1.2,0.3,2.2,1.1,2.9,2.2c1.8,2.6,2.3,6,0.8,8.8
		c-0.7,1.2-1.7,2.2-3,2.8l0.5,0.8c-1.3,0.2-2.7,0.4-4,0.6c-0.5,0.1-2.5,0.2-3.9,0.5c-0.4-0.2-0.7-0.3-1.1-0.5
		c0.2-0.3,0.4-0.6,0.5-0.9c-1.5-0.6-2.6-1.4-3.5-2.7c-0.9-1.3-1.1-3.1-0.7-4.7c0.6-2.2,2.4-3.8,4.3-4.9c-0.5-0.9-1-1.7-1.6-2.4
		c0,0,0,0,0.1,0.1c-0.1-0.1-0.1-0.2-0.2-0.2c-0.1-0.1-0.2-0.2-0.3-0.3c-0.7-0.8-1.6-1.6-2.5-2.1c-1-0.6-2-1.2-3.1-1.6
		c-0.7-0.3-2.3-0.6-3.1-0.8c-0.1,0-0.2,0-0.3-0.1c-0.1,0-0.1,0-0.2,0c-0.5,0-2.8,0-3.3,0.1c-0.1,0-0.2,0-0.3,0
		c-0.6,0.1-2.6,0.7-3.2,1c-0.1,0-0.1,0.1-0.2,0.1c-0.1,0.1-0.3,0.1-0.5,0.3c-0.5-0.2-1.1-0.3-1.7-0.4c-0.5-0.1-1.6,0-2.6,0
		c0.6,0-1.3,0-1.5,0c-0.8,0-1.6-0.1-2.5-0.2c-2.8-0.1-5.4,0.4-7.8,1.9c-1,0.6-1.9,1.4-2.6,2.1c-0.9-0.3-1.9-0.6-2.9-0.8
		c-5.1-0.9-10.6-0.1-15.7,0.2c-1.4,0.1-2.8,0.1-4.2,0.2c0.3-0.3,0.7-0.7,1-1c0.1-0.1,0.2-0.2,0.3-0.2c-0.6-0.2-1.2-0.4-1.7-0.9
		c-1.8-1.4-2.7-4.4-1.3-6.5c0.7-1.1,1.5-2.1,2.4-3.1c0.1-0.2,0.3-0.3,0.4-0.5c0,0,0-0.1,0-0.1c0.2-0.4,0.5-0.7,0.8-1.1
		c0.3-0.5,0.7-0.9,1.1-1.2c-0.5-1-1.1-1.9-1.8-2.7c-1.3-1.6-3-2.8-5-3.6c-1-0.2-2-0.5-3-0.7c-2.1-0.2-4.2,0.1-6.2,1
		c-1.5,0.6-2.8,1.6-3.8,2.8c-1.2,1-2,2.3-2.5,3.8c-0.2,0.4-0.3,0.9-0.4,1.3c0.1,0,0.1-0.1,0.2-0.1c0.4-0.1,0.9-0.1,1.3-0.2
		c0.9,0,1.7,0.2,2.5,0.7c0.3,0.3,0.7,0.5,1,0.8c0.5,0.5,0.8,1,1,1.6c0.3,0.6,0.5,1.2,0.4,1.9c0,0.7-0.1,1.3-0.4,1.9
		c-0.2,0.6-0.5,1.2-1,1.6l-0.6,0.6c-0.6,0.6-1.4,1-2.2,1.3c-0.1,0-0.1,0-0.2,0c0.3,0.5,0.7,0.9,1.1,1.3c-5.1-0.6-9.7,0-15,0.9
		c-0.2,0-1.6,0.2-2.1,0.3c-0.4,0-1.3-0.1-1.9-0.1c-0.1-0.1-0.2-0.3-0.4-0.6c-3-3.7-8.1-5.1-12.6-4c-0.5,0.3-1,0.4-1.6,0.5
		c-0.5,0.2-1,0.4-1.5,0.7c-0.3-0.3-0.6-0.6-1-0.9c-3.9-0.8-9.3,0.6-12.9-1.8c-1,0.4-1.9,0.9-2.7,1.7c-0.7,0.8-1.4,1.5-2.1,2.3
		c-1,1.3-1.6,2.7-1.8,4.2c-0.4,1-0.5,2-0.3,3.1c-0.1,1.6,0.2,3.2,0.9,4.7c0,0,0,0.1,0.1,0.1c0.2,0.6,0.3,1.1,0.6,1.6
		c0.3,0.7,0.6,1.3,1,1.9c-2.6,0.9-5.2,2-7.8,2.6c-2.1,0.5-4.2,0.9-6.3,1.2c-0.9,0.1-1.8,0.2-2.7,0.3c-1.6-1.1-3.2-2-5-2.5
		c2.8-3.6,3.8-8.7,1.7-13c-3-6-10.4-9.6-16.8-6.4c-0.7,0.3-1.1,0.5-1.2,0.5c-0.3,0-0.5,0.1-0.4,0.1c-0.8-0.1-0.8,0,0,0.3
		c-1.3-0.3-2.7-0.7-4-1c-3.5-0.4-7,0.5-9.7,2.4c-1-1.1-2.3-1.9-3.7-2.4c-1-0.2-2-0.5-3-0.7c-1.1,0-2.1,0-3.2,0.1
		c-0.7,0.1-1.3,0.2-1.9,0.4c-0.4,0-0.9,0-1.3,0c-0.3,0-0.6,0.1-0.8,0.2c-1.5,0.4-3,0.8-4.4,1.5c-0.2,0.1-0.4,0.2-0.6,0.3
		c-0.6,0-1.1,0-1.7,0c-0.3-0.3-0.7-0.5-1-0.8c-0.4-0.2-0.9-0.5-1.3-0.7c0.5-0.4,1-0.8,1.4-1.4c0.3-0.3,0.6-0.6,0.9-0.9
		c-0.4-0.5-0.7-1.1-0.9-1.8c-1.1-3.9-0.3-7.5-0.2-11.4c0-1.1,0.3-1.9,0.8-2.6c-1.4-1.6-3-2.8-5-3.5c-1.5-0.6-3.1-0.9-4.7-0.7
		c-1.7-0.1-3.3,0.2-4.8,1c-1.6,0.6-2.9,1.6-3.9,2.9c-1.2,1.1-2.1,2.4-2.6,3.9c-0.8,2-1,4.1-0.7,6.3c0.1,1.3,0.3,2.4,1,3.6
		c0.6,0.9,1.2,1.9,1.7,2.8c0.2,0.2,0.5,0.5,0.7,0.7c-2.1-0.5-4.4-0.5-6.7,0.2c-1.8,0.6-3.3,1.4-4.5,2.4c-6.9-4.7-19.3-1.8-19.9,8.4
		c-0.2,3.1-0.2,6.2-0.2,9.4c0.2,0.2,0.5,0.5,0.7,0.8c0.4,0.5,0.7,1,0.9,1.7c0.2,0.7,0.2,1.3,0.1,2c0,0.7-0.2,1.3-0.6,1.9
		c-0.1,0.1-0.1,0.2-0.2,0.3c-0.3,0.4-0.6,0.8-0.9,1.1c-0.2,0.2-0.4,0.3-0.5,0.4c-0.2,0.1-0.4,0.3-0.5,0.4c-0.4,0.2-0.8,0.4-1.3,0.5
		c-0.9,0.2-2,0.3-2.9,0c-0.3-0.1-0.7-0.3-1-0.4c0,0,0,0-0.2-0.1c0,0,0,0,0,0c0,0,0,0-0.1,0c0,0,0.1,0,0.1,0c0.1,0,0.1,0.1,0.2,0.1
		c-0.1-0.1-1.2-0.8-1.4-1c0,0,0,0-0.1-0.1c-0.3-0.3-0.5-0.7-0.8-1c0-0.1-0.1-0.1-0.1-0.2c-0.2-0.5-0.5-1-0.6-1.5
		c-0.2-0.5-0.2-1.1-0.3-1.6c-0.4,0-0.8,0-1.1,0.1c-0.1,0-0.1,0-0.2,0c-0.1,0-0.2,0-0.3,0c-1.7,0.2-3.2,0.8-4.6,1.8
		c-1.5,0.7-2.7,1.8-3.6,3.2c-0.5,0.9-1,1.9-1.5,2.8c-0.6,1.5-0.9,3.1-0.7,4.7c-0.1,1.1,0,2.2,0.5,3.2c0.3,1.7,1.1,3.1,2.2,4.4
		c0.8,0.7,1.6,1.5,2.3,2.2c1.8,1.2,3.7,2,5.9,2.2c0.1,0,0.2,0,0.3,0c0.1,0,0.1,0,0.2,0c0.9,0.1,1.9,0.1,2.8,0
		c0.1-0.2,0.2-0.4,0.3-0.6c0.3-0.3,0.5-0.7,0.8-1c0.5-0.5,1-0.8,1.6-1c0.6-0.3,1.2-0.5,1.9-0.4c0.7,0,1.3,0.1,1.8,0.4c0,0,0,0,0.1,0
		c1.6-1.3,2.8-2.9,3.6-4.8c1,4.6,1.4,9-0.2,13.7c-0.3,0.5-0.6,1.1-0.8,1.6c-0.2,1-0.5,2-0.7,3.1c-0.1,0.8-0.1,1.6,0,2.4
		c0,1.1,0.2,2.1,0.6,3.2c0.3,1.5,1,2.9,2.1,4.1c0.7,0.7,1.5,1.4,2.2,2.1c1.2,0.9,2.6,1.5,4.1,1.8c1,0.4,1.9,0.5,2.9,0.3
		c1,0.1,1.9,0,2.8-0.3c2.6-0.2,5.2-1.2,7.4-3.3c0.1,0,0.2,0,0.2,0.1c-0.7,0.5-1.3,1.1-1.8,1.8c-0.5,0.4-0.9,0.9-1.3,1.5
		c0.4,0.1,0.7,0.3,1.1,0.5c0.4,0.2,0.7,0.5,1.1,0.8c0.6,0.5,1,1.2,1.6,1.7c0.6,0.6,1,1.4,1.3,2.2c0.1,0.4,0.1,0.9,0.2,1.3
		c0,0.9-0.2,1.7-0.7,2.5c-0.3,0.3-0.5,0.7-0.8,1c-0.5,0.5-1,0.8-1.6,1c-0.6,0.3-1.2,0.5-1.9,0.4c-0.6,0-1.1-0.1-1.6-0.3
		c0.1,0.3,0.2,0.6,0.4,0.8c0.5,1,1.1,1.9,1.8,2.9c1.4,1.7,3.1,2.9,5.1,3.7c1.5,0.6,3.1,0.9,4.7,0.7c1.7,0.1,3.3-0.2,4.8-1
		c2-0.9,3.7-2.3,5-4.1c0.3-0.4,0.6-0.9,0.8-1.4c0.1-0.1,0.1-0.2,0.2-0.4c-2.1-0.4-3.6-2.8-3.6-4.8v-0.6c0-3.6,3.2-5.3,6.3-4.8
		c2.4,0.3,4.8,1,7.3,1.5c2.2-1.4,4-3.5,5.2-6.1c4.3,2.2,8.8,3.2,13.6,4.2c3.1,0.7,6.7,1.1,10.1,0.7c1.3,0.5,2.7,0.7,4.1,0.5
		c1.6,0.1,3.2-0.2,4.7-1c1.6-0.6,2.8-1.6,3.9-2.9c1.2-1.1,2-2.4,2.6-3.9c0.2-1,0.5-2,0.7-3c0.2-2.1-0.1-4.1-0.9-6
		c1.1-0.2,2.2-0.5,3.3-0.7c2.5-0.6,5.7-2.1,8.2-2.3c2.3-0.2,4.7,0.9,6.8,1.8c-0.4-0.2,0.5,0.2,1.4,0.6c-0.6,1.2-1,2.5-1.2,4
		c-0.6,5.8,4.1,13.1,10.5,13.1c3.6,0,7-1.1,9.4-3.3c2.1,1,4.5,1.4,7.1,1.3c3.8-0.2,7.4-2.1,10.8-2.5c3-0.3,6.1,0.1,9.1,0.1
		c1.8,0,3.6-0.3,5.2-0.8c0.4,0.8,0.9,1.5,1.4,2.1l-0.6,0.7c0,0,0,0,0,0c-0.1,0.1-0.1,0.1-0.1,0.2c0,0,0,0,0,0.1
		c-0.5,0.9-1,1.8-1.5,2.8c0,0,0,0.1,0,0.1c-0.2,1-0.5,2-0.7,3.1c0,0,0,0,0,0.1c0,0,0,0.1,0,0.1c0,0.3,0,3,0.1,3.2
		c0,0.1,0.9,3.1,0.9,3.2c0,0,0,0,0,0.1c0.6,0.9,1.2,1.9,1.7,2.8c0,0,0,0,0,0c0.3,0.4,1.1,1,1.2,1.1c1.5,1.5,0.7,0.9,2.6,1.9
		c0.5,0.3,1,0.6,1.5,0.8c0.1,0,3,0.7,3.1,0.8c0,0,0.1,0,0.1,0c0,0,0,0,0,0c0.5,0,1.1,0,1.6,0c-0.4,0,1.1,0,1.7,0
		c0.1,0,3.1-0.9,3.2-0.9c0,0,1.8-1.1,2.6-1.6c0.5-4,1.6-8.3,0.2-12.2c-0.8-2.2,0.5-4.6,2.5-5.7c-0.1-0.1-0.1-0.2-0.2-0.3
		c0.3-0.2,0.5-0.4,0.8-0.6c0.7-0.8,1.5-1.6,2.2-2.3c0.1-0.1,0.1-0.2,0.2-0.3c2.7,2.7,6.4,3.6,10.2,3.1c2.1,1,4.3,1.8,6.5,2.1
		c2.5,0.4,5.1,0.3,7.5-0.3c0.2,0,0.4-0.1,0.6-0.2c0.7,1,1.4,1.9,2.4,2.7c0.8-0.3,1.7-0.4,2.7-0.2c4.7,0.9,9.4,1.2,14,2.1
		c0.3-0.1,0.5-0.3,0.8-0.4c0.5,0.1,1,0.3,1.6,0.4c0,0,0.1,0,0.1,0c1.1,0.2,2.2,0.1,3.3-0.1c0.1,0,0.1,0,0.2,0
		c0.6-0.1,1.1-0.3,1.6-0.5c0.5-0.2,1.1-0.3,1.6-0.5c0.1,0,0.1-0.1,0.2-0.1c0.8-0.5,1.6-1,2.4-1.5c-1.2-2.9-0.9-5.8,0.2-8.5
		c-0.2-0.3-0.4-0.5-0.6-0.8c-0.1-0.2-0.4-0.6-0.5-0.6c-0.1-0.1-0.1-0.2-0.2-0.2c-1.7-2.1-2.1-5,0-7.1c1.8-1.8,5.4-2.1,7.1,0
		c0.1,0.2,0.3,0.4,0.4,0.5c1.7-0.5,3.6-0.1,4.9,1.2c0.3-0.2,0.5-0.3,0.8-0.5c0.4-0.2,0.8-0.5,1.1-0.7c0.3,0.3,0.6,0.5,0.9,0.7
		l0.2,0.8c0.1,0.3,0.2,0.5,0.4,0.7c-0.3,0.8-0.5,1.6-0.6,2.5c0,0.1,0,0.1,0,0.2c0,1.1,0,2.1,0.1,3.2c0,0,0,0,0,0.1
		c0,0.2,0.9,3.1,0.9,3.2c0,0,0,0,0,0c0,0.1,0.1,0.2,0.1,0.2c0.1,0.2,1.6,2.7,1.8,2.9c0.2,0.2,2.1,2,2.4,2.2c0,0,0.1,0.1,0.1,0.1
		c0,0,0,0,0.1,0l2.2,1.2c0.2,0.1,0.3,0.2,0.5,0.4c0.9,0.5,1.9,1,2.8,1.5c1,0.3,2.1,0.5,3.1,0.8c1.7,0.3,3.3,0.1,4.9-0.5
		c1.7-0.3,3.2-1.1,4.5-2.2c0.1-0.1,0.2-0.2,0.2-0.2c0.4-0.4,0.8-0.8,1.2-1.2c0.4-0.4,0.8-0.8,1.2-1.2c0.1-0.2,0.3-0.4,0.4-0.6
		c0.7-1,1.4-2.1,1.8-3.2c0.3-1,0.5-2.1,0.8-3.1c0,0,0-0.1,0-0.1c0-0.1,0-0.2,0.1-0.3c0-0.2,0-0.4,0-0.6c0.2,0.4,0.5,0.7,0.8,1
		c0,0,0,0.1,0.1,0.1c0.8,0.7,1.6,1.5,2.4,2.2c0.9,0.6,0.6,0.5,2.9,1.6c0.1,0,0.1,0,0.2,0.1c0.5,0.2,1.1,0.3,1.6,0.4
		c0.5,0.1,1.1,0.3,1.6,0.4c0.1,0,0.1,0,0.2,0c1.8,1.5,4,2.5,6.4,2.8c0.8,0.1,1.7,0.2,2.5,0.2c0.1,0,0.3,0,0.4,0
		c0.4,0.3,0.7,0.6,1.1,0.9c-0.4,0.3-0.8,0.5-1.1,0.8c-0.7,0.8-1.5,1.6-2.2,2.3c-1.3,1.8-2,3.7-2.3,5.9c-0.2,1.3-0.3,2.4,0,3.8
		c0.2,1.7,0.8,3.3,1.8,4.6c0.7,1.4,1.7,2.6,3.1,3.5c1.2-1.1,2.9-1.6,4.6-1.1c2.5,0.7,4.9,0.5,7.4,0c0.2,0,0.4-0.1,0.6-0.1
		c0,0,0-0.1,0-0.1c0.1-1.7,0.7-3.2,1.9-4.4c0.6-0.7,1.5-1.1,2.4-1.3c-0.2-0.2-0.4-0.3-0.6-0.5c-0.2-0.2-0.5-0.5-0.6-0.8
		c-0.2-0.1-0.4-0.3-0.6-0.4c-0.6-0.6-1-1.4-1.3-2.2c-0.1-0.4-0.1-0.9-0.2-1.3c0-0.7,0.1-1.3,0.4-1.9c0.2-0.6,0.5-1.2,1-1.6
		c0.5-0.5,1-0.8,1.6-1c0.3-0.2,0.6-0.3,1-0.4c-0.2-0.4-0.5-0.8-0.8-1.2c1.3-0.7,2.5-1.6,3.4-2.7c0.1,0,0.2-0.1,0.3-0.1
		c0,0,0.1,0,0.1,0c0.5-0.3,1-0.6,1.5-0.9c0.5-0.3,1-0.6,1.5-0.9c1-0.7,1.9-1.7,2.5-2.7c0.2-0.2,0.3-0.4,0.4-0.6
		c4.8,1,10.1-0.3,12.9-4.8c4.7-7.5,8-15,10-23.6C381.5,67.2,377.9,62.1,373.6,59.9z M255.7,60.4c-1-1.7-2.2-3.1-3.7-4.2
		c1.4-0.1,2.7-0.2,4-0.6c0.5,0.3,1.1,0.5,1.6,0.7C256.7,57.5,256.1,58.9,255.7,60.4z M311.4,81.9c0,0-0.1,0.1-0.1,0.1
		c-0.5,0.9-1,1.9-1.5,2.8c-0.6,1.3-0.8,2.6-0.8,4c-0.2-0.4-0.5-0.8-0.8-1.2c-0.3-0.4-0.6-0.7-0.9-1c0-0.5,0.1-0.9,0-1.4
		c0-0.4-0.1-0.9-0.1-1.3c0.7-0.2,1.5-0.6,2.1-0.9c0,0,0.1,0,0.1-0.1c0.4-0.2,0.8-0.5,1.1-0.7c0.3-0.2,0.7-0.4,0.9-0.6c0,0,0,0,0,0
		C311.6,81.7,311.5,81.8,311.4,81.9z"/>
	<path class="st0" d="M440.3,7.1c-3.6-5.6-9.5-6.8-15.6-4.9c-8.4,2.7-12.2,10.9-17.7,16.7c-2.6,2.8-5.9,4.7-9.3,6.5
		c-0.9,2.3-3.5,3.7-5.9,3.3c-1.6,1-3.2,2.1-4.6,3.4c0.1-0.2,0.3-0.4,0.4-0.6c0.3-0.4,0.6-0.9,0.8-1.4c0.5-0.8,0.9-1.7,1.2-2.6
		c-0.3-0.3-0.6-0.7-0.9-1.1c-3.1-5.5-6.9-9.9-12.4-13c-0.6-0.4-1.1-0.8-1.5-1.2c-0.8,0.2-1.6,0.4-2.4,0.8c-1.6,0.6-2.9,1.6-3.9,2.9
		c-1.2,1.1-2.1,2.4-2.6,4c-0.3,0.8-0.5,1.6-0.6,2.4c0,0.1,0,0.1,0,0.2c-0.1,0.7-0.2,1.4-0.2,2.2c0,1.6,0.4,3.2,1,4.7
		c0,0.1,0.1,0.2,0.1,0.3c0.3,0.9,0.8,1.7,1.5,2.4c0,0,0.1,0.1,0.1,0.1c0,0,0,0,0,0c0,0,0,0.1,0.1,0.1c0,0,0,0,0,0c0,0,0,0,0,0
		c0,0,0,0,0,0c0,0,0.1,0.1,0.1,0.1c0.1,0.1,0.2,0.2,0.3,0.4c0.4,0.4,0.8,0.8,1.3,1.2c1,0.9,2.1,1.7,3.5,2.1c1,0.2,2,0.5,3.1,0.7
		c2.2,0.2,4.3-0.1,6.4-1c0,0,2.8-1.7,2.8-1.7c0,0,0,0,0,0c0.1-0.1,0.1-0.1,0.2-0.2c-0.3,0.3-0.6,0.7-0.9,1c-5,6.5-0.6,18.2,8.2,18.4
		c4,0.1,8.1-1,12.1-2.7c0.1,0.3,0.2,0.6,0.4,0.8c0.7,1.6,1.7,3,3,4c1.1,1.2,2.5,2.1,4.1,2.7c1.1,0.3,2.1,0.5,3.2,0.8
		c1.7,0.3,3.4,0.1,4.9-0.5c0.3,0,0.6-0.1,0.8-0.2c4.2-0.8,8-3.8,9.4-7.9c0-0.1,0-0.1,0.1-0.2c0.3-1.1,0.5-2.1,0.8-3.2
		c0-0.5,0-1.1,0-1.6c0.3-0.5,0.5-1,0.8-1.6c0.3-1,0.5-2.1,0.8-3.1c0-1.1,0-2.2-0.1-3.2c-0.4-2.5-1.6-4.8-3.3-6.6
		c0.2-0.3,0.5-0.6,0.7-0.9c2.7-3.6,3.2-4.1,7.1-6.7C442.7,19.8,443.3,11.9,440.3,7.1z"/>
	<g>
		<path class="st0" d="M381.2,189.5c-0.1-0.1-0.2-0.1-0.3-0.2C380.9,189.4,381,189.4,381.2,189.5z"/>
		<path class="st0" d="M438.7,188.9c-0.3-0.6-1.6-3.9-1.4-2.8c-0.4-1.8-0.6-3.7-0.8-5.5c-0.4-2.9-0.9-5.7-1.5-8.5
			c2.9-2.5,4.1-7.3,3.6-10.9c-0.7-4.4-3.7-8.3-7.9-9.8c-4.4-1.6-9.3-1-13.7,0.6c-2.7-6.8-7.3-13.2-12-18.3
			c-3.3-3.6-6.7-7.4-10.6-10.3c-2.2-1.6-4.7-2.8-7.1-4c-0.1-0.1-1-0.5-1.4-0.7c0.1-0.1-1.4-1.5-0.3-0.2c-3-3.6-7.8-5.1-12.3-4.1
			c-0.4-0.2-0.9-0.3-1.3-0.5c3.4-0.8,6.5-3,8.7-7c2.1-1.6,3.7-3.8,4.5-6.3c0.5-1.5,0.7-3,0.7-4.4c1.6-5.2,3.2-10.3,4.8-15.5
			c1.1-3.3,2.2-6.6,3.3-10c1-3,3-6.9,3-10.1c0-4.1-1-8.9-5-11.2c-0.1-0.1-0.3-0.2-0.4-0.2c-2-1.1-4.1-1.8-6.2-2
			c-0.3-1.4-0.8-2.7-1.7-3.8c-0.7-1.5-1.8-2.7-3.2-3.6c-0.4-0.3-0.9-0.6-1.3-0.9c-0.4-0.4-0.6-0.6-1-0.9c-0.5-0.8-1-1.5-1.4-2.3
			c-1.4-1.7-3.1-2.9-5.1-3.7c-1-0.4-2.1-0.7-3.2-0.8c0,0,0,0,0,0c-0.1,0-3.1,0.1-3.2,0.1c-1.1,0.1-2.2,0.4-3.3,0.9c0,0,0,0,0,0
			c0,0-0.5,0.3-1.1,0.7c-0.9,0.3-1.8,0.7-2.6,1.3c-1,0.4-1.8,1.1-2.4,2c-1.2,1.1-2,2.3-2.5,3.9c0,0.1-0.1,0.2-0.1,0.4c0,0,0,0,0,0
			c-0.6,1.5-0.9,3.1-0.7,4.7c-0.1,1.1,0,2.2,0.5,3.2c0.3,1.7,1.1,3.1,2.2,4.4c0.1,0.2,0.3,0.3,0.4,0.5c0.8,0.7,1.5,1.5,2.3,2.2
			c0.6,0.5,1.3,0.9,1.9,1.2c-0.6,1-1.1,2-1.5,3.1c-0.1,0-0.1,0-0.2,0c-2.3-0.2-4.4,0.1-6.5,1c-1,0.6-1.9,1.2-2.9,1.8
			c-1.7,1.4-3,3.2-3.8,5.2c-0.1,0.1-0.1,0.2-0.2,0.3c-0.3,0.6-0.3,1.1-0.5,1.8c-0.2,0.7-0.4,1.4-0.5,2.2c0,1.1,0,2.2,0.1,3.2
			c0.2,1.7,0.8,3.3,1.8,4.6c0.5,1,1.1,1.9,2.1,2.5c1,1.1,2.3,2,3.8,2.5c-0.2,1.2-0.5,2.4-0.7,3.7c-1.2,2.1-2.1,4.5-2.6,7.3
			c-1.3,7.3,5.2,13.8,12.2,14.3c1,1,2.2,1.9,3.4,2.5c-0.8,0.2-1.7,0.4-2.5,0.8c-1.6,0.7-2.9,1.8-4.1,3c-1.7,1.7-2.9,3.9-3.3,6.7
			c0.1,0.4,0.2,0.8,0.2,1.2c0,0.3,0,0.6-0.1,1c0,0.3,0.1,0.5,0.1,0.8c0,0.3,0,0.6-0.1,0.9c0.8,3.9,3.3,7.7,6.9,9.4
			c-0.1,1-0.1,2,0.1,3c0,0.2,0.1,0.4,0.1,0.6c0.6,4.1,3.7,8.2,7.7,9.8c0,0.3-0.1,0.5-0.1,0.4c-0.6,5.5,0.1,9.7,1.6,14.9
			c1.9,6.6,1.7,14.4,6.7,20.2c1.3,1.5,2.8,2.7,4.4,3.8c0,0,5.2,3.1,4.3,2.3c3.4,2.7,6.4,6.3,9.6,9.3c6.5,6,13.1,11.8,21.1,15.7
			c8.1,4,16.5-3.8,16.9-11.6c0.9-0.4,1.7-0.9,2.4-1.5C439.1,200.4,441.4,193.5,438.7,188.9z"/>
	</g>
</g>
<g id="Calque_1">
	<path class="st1" d="M320.8,65.5c-0.3-0.3-0.7-0.5-1-0.7c-0.3-0.2-0.7-0.4-1-0.6c-0.3-0.2-0.7-0.4-1.1-0.6
		c-0.3-0.2-0.7-0.4-1.1-0.5c-0.4-0.1-0.6,0.5-0.4,0.8c0.1,0.2,0.3,0.3,0.5,0.4c0.1,0.1,0.3,0.2,0.4,0.3c0.3,0.2,0.7,0.4,1,0.6
		c0.3,0.2,0.6,0.4,1,0.6c0.2,0.1,0.3,0.2,0.5,0.3c0.1,0.1,0.2,0.1,0.3,0.2c0.1,0.1,0.3,0.1,0.4,0.1
		C320.8,66.5,321.1,65.8,320.8,65.5z"/>
	<path class="st1" d="M325.6,55.3c-0.3-0.3-0.7-0.5-1-0.7c-0.3-0.2-0.7-0.4-1-0.6c-0.3-0.2-0.7-0.4-1.1-0.6
		c-0.3-0.2-0.7-0.4-1.1-0.5c-0.4-0.1-0.6,0.5-0.4,0.8c0.1,0.2,0.3,0.3,0.5,0.4c0.1,0.1,0.3,0.2,0.4,0.3c0.3,0.2,0.7,0.4,1,0.6
		c0.3,0.2,0.6,0.4,1,0.6c0.2,0.1,0.3,0.2,0.5,0.3c0.1,0.1,0.2,0.1,0.3,0.2c0.1,0.1,0.3,0.1,0.4,0.1
		C325.6,56.3,325.9,55.7,325.6,55.3z"/>
	<path class="st2" d="M422.2,48.4c-0.8,0.1-1.5,0.5-2.3,0.8c-0.8,0.3-1.7,0.5-2.5,0.7c-1.6,0.3-3.3,0.4-4.9,0.4
		c-1.7,0-3.3-0.2-4.9-0.5c-1.7-0.3-3.3-0.7-5-0.5c-0.3,0-0.4,0.5-0.2,0.7c1.5,0.8,3.3,1.1,5,1.4c1.8,0.3,3.7,0.5,5.6,0.6
		c1.7,0,3.5-0.1,5.2-0.4c1.5-0.3,3.7-0.8,4.7-2.2C423.2,49,422.7,48.4,422.2,48.4z"/>
	<path class="st2" d="M423.3,57.4c-1,0-2-0.1-3.1-0.1c-1.1,0.1-2.3,0.1-3.4,0.1c-2.1,0-4.1-0.2-6.1-0.9c-1.6-0.5-3-1.3-4.3-2.4
		c-0.6-0.6-1.2-1.2-1.7-1.9c-0.3-0.3-0.5-0.7-0.8-1c-0.2-0.2-0.4-0.3-0.6-0.4c-0.1-0.1-0.3,0-0.3,0.1c-0.1,0.4-0.2,0.5-0.1,0.9
		c0.1,0.4,0.2,0.8,0.4,1.1c0.4,0.8,1,1.5,1.6,2.1c1.3,1.3,3,2.3,4.7,3c2,0.8,4.2,1.1,6.4,1.2c1.2,0,2.3,0,3.5,0
		c1.3-0.1,2.5-0.3,3.8-0.6C424,58.5,424,57.4,423.3,57.4z"/>
	<path class="st2" d="M374.2,131.8c-0.3-1.6-0.6-3.2-0.9-4.8c-0.3-1.6-0.7-3.2-1.1-4.8c-0.4-1.5-1.2-2.9-1.7-4.4
		c0-0.1-0.2-0.1-0.2,0.1c0.3,1.6,0.3,3.3,0.6,4.9c0.3,1.6,0.6,3.1,0.9,4.7c0.3,1.6,0.6,3.1,0.8,4.7c0.2,1.4,0.3,3.1,1.1,4.4
		c0.2,0.3,0.7,0.2,0.8-0.1C375,134.8,374.5,133.2,374.2,131.8z"/>
	<path class="st2" d="M377.6,187.6c-2.8-1.9-5-4.4-6.3-7.5c-1.5-3.7-1.8-7.7-1.8-11.6c0-3.8,0.1-7.6-0.3-11.4
		c-0.2-1.8-0.4-3.6-0.9-5.4c-0.6-2-1.9-3.9-1.8-6c0-0.1,0-0.1,0-0.2c0.1-0.2,0.3-0.4,0.5-0.6c0.3-0.2,0.6-0.5,0.8-0.8
		c0.3-0.3,0.7-0.7,1.1-1c0.8-0.6,1.7-1.1,2.5-1.8c0.8-0.6,1.5-1.4,2-2.3c0.4-0.8,0.7-1.9,0.4-2.7c-0.1-0.2-0.4-0.1-0.4,0.1
		c-0.1,0.5-0.2,1-0.4,1.6c-0.2,0.5-0.5,0.9-0.9,1.3c-0.7,0.8-1.6,1.5-2.5,2.1c-0.8,0.6-1.7,1.2-2.4,1.9c-0.3,0.3-0.7,0.7-0.8,1.2
		c-0.1,0.2-0.1,0.4-0.2,0.7c-0.3-0.1-0.6,0-0.6,0.3c0,0,0,0,0,0c-1.4-1.8-2.8-3.6-4-5.6c-1.4-2.2-2.6-4.4-3.6-6.8
		c-1-2.2-1.8-4.4-2.5-6.7c-0.8-2.5-1.2-5.2-1.9-7.7c-0.1-0.4-0.6-0.3-0.6,0.1c0.1,2.6,0.8,5.2,1.5,7.7c0.7,2.4,1.5,4.8,2.5,7.1
		c2,4.6,4.6,9.4,8,13.1c0.1,0.1,0.3,0.2,0.4,0.2c0.1,1.3,0.8,2.5,1.3,3.7c0.8,2,1.4,4.1,1.7,6.3c0.5,4.5,0,9,0.1,13.5
		c0.1,6.5,1.8,15.6,8.8,18.2C377.7,188.7,378.1,187.9,377.6,187.6z"/>
	<path class="st2" d="M369.9,115.7c-1.2-0.7-2.7-0.7-4.1-0.7c-1.4,0-2.7,0-4.1,0.2c-1.4,0.2-2.7,0.5-4,0.9c-0.7,0.2-1.4,0.5-2,0.7
		c-0.3,0.1-0.6,0.2-0.8,0.4c-0.3,0.2-0.5,0.6-0.7,0.8c-0.1,0,0,0.2,0.1,0.1c0.3-0.1,0.7,0,1-0.1c0.3-0.1,0.6-0.2,0.9-0.3
		c0.6-0.2,1.2-0.5,1.8-0.7c1.3-0.4,2.6-0.7,4-0.9c1.3-0.2,2.7-0.2,4.1-0.2c1.3,0.1,2.6,0.4,3.9,0.2
		C370.2,116.3,370.1,115.9,369.9,115.7z"/>
	<path class="st2" d="M410.2,208.5c-1.6-5.7-7.8-8.6-12.6-11.2c-6.2-3.3-12.3-7-18.8-9.4c-0.1,0-0.1,0.1-0.1,0.1
		c5.3,3.9,11.3,6.9,17,10.1c2.6,1.5,5.4,2.8,7.8,4.7c2.3,1.7,3.8,4.1,5.7,6.1C409.6,209.1,410.3,209,410.2,208.5z"/>
	<path class="st2" d="M417.1,151.7c0.1-0.2,0-0.3-0.2-0.4c0,0,0,0,0,0c-0.1-0.2-0.2-0.3-0.3-0.5c-0.1-0.2-0.2-0.3-0.3-0.5
		c-0.2-0.3-0.4-0.6-0.6-0.8c-0.4-0.6-0.8-1.1-1.2-1.7c-0.3-0.4-0.9,0-0.7,0.4c0.3,0.6,0.6,1.2,1,1.8c0.2,0.3,0.3,0.6,0.5,0.9
		c0.1,0.2,0.2,0.3,0.3,0.5c0.1,0.2,0.2,0.3,0.3,0.5c0,0,0.1,0,0.1,0.1c-0.1,0.1-0.1,0.1-0.2,0.2c0,0-0.1,0.1-0.1,0.1
		c0,0-0.1,0.1,0,0c-0.2,0.1-0.4,0.2-0.6,0.4c-0.2,0.1-0.3,0.3-0.5,0.4c0,0-0.1,0.1-0.1,0.1c0,0,0,0,0,0c-0.1,0-0.2,0.1-0.3,0.1
		c-0.2,0.1-0.4,0.2-0.5,0.2c-0.4,0.2-0.8,0.3-1.1,0.5c-0.4,0.2-0.6,0.6-0.4,1c0.1,0.4,0.5,0.6,0.9,0.6c1-0.1,1.9-0.7,2.6-1.4
		c0.4-0.4,0.7-0.7,0.9-1.2c0,0.1,0,0,0-0.1c0,0,0.1-0.1,0.1-0.1c0.1-0.1,0.1-0.2,0.2-0.4C417,152.2,417.1,152,417.1,151.7
		c-0.1,0.1-0.1,0.2-0.1,0.2C417.1,151.8,417.1,151.8,417.1,151.7z"/>
	<path class="st2" d="M423.7,151.4c-0.3-0.1-0.5-0.1-0.8-0.1c-0.2,0-0.5,0.1-0.7,0.1c-0.5,0.1-0.9,0.2-1.4,0.3
		c-1,0.2-1.9,0.4-2.8,0.7c-0.3,0.1-0.5,0.5-0.4,0.8c0.1,0.3,0.4,0.5,0.7,0.5c0.9-0.1,1.9-0.3,2.8-0.4c0.4-0.1,0.9-0.2,1.3-0.3
		c0.5-0.1,1.1-0.2,1.5-0.6C424.2,152.1,424.2,151.5,423.7,151.4z"/>
	<path class="st2" d="M363.9,140c-0.1,0.1-0.2,0.1-0.2,0.2c-0.1,0.1-0.1,0.2-0.2,0.2c-0.1,0.2-0.3,0.3-0.4,0.5c0,0,0,0.1,0,0
		c0.2-0.1,0.3-0.3,0.5-0.4c0.1-0.1,0.2-0.1,0.2-0.2l0.2-0.2C364.1,140.1,364.1,140,363.9,140C364,140,364,140,363.9,140z"/>
	<path class="st2" d="M425.9,0c-1.9,0.3-3.6,2-5.2,3.1c-1.7,1.3-3.4,2.7-5.1,4.2c-3.2,2.9-6.2,6-9.1,9.3c-1.2,1.3-2.3,2.8-3.4,4.2
		c0-0.4-0.4-0.8-0.9-0.6c-4.2,2.2-8.2,4.8-12,7.6c-3.1,2.3-7.2,4.9-8.1,8.9c-0.1,0.2,0.1,0.5,0.2,0.6c0,0.2-0.1,0.5-0.1,0.6
		c0,0.6,0.1,1.1,0.3,1.5c-1.7,0-4,0.1-4.9-1.7c-0.7-1.6,1.4-2.9,2.5-3.7c2.3-1.6,4.9-2.9,6.6-5.1c1.9-2.5,1.8-5.7,0.2-8.3
		c-1.9-3.1-5.5-4.5-8.7-5.8c-3.2-1.3-7-2.4-10.2-0.5c-2.3,1.4-3.6,3.9-4.1,6.4c-0.3,1.4-0.3,2.8,0,4.2c0.3,1.4,1.9,4.1,0.5,5.1
		c-1.2,0.9-3.4,0.1-4.7-0.3c-2.2-0.6-4.3-1.2-6.5-1.8c-9.6-2.7-19.1-5.7-28.7-8.2c-0.1,0-0.2,0-0.3,0c-0.3-0.3-0.8-0.3-0.9,0.2
		c-2.8,9.6-5.4,19.2-7.8,28.9c-0.7,3-1.3,7,1.9,8.8c2.5,1.4,5.5,0,7.9-0.9c3.1-1.1,6.8-1.7,8.4,1.9c1.4,3.4,0.5,7.5-0.9,10.7
		c-0.8,1.9-2.1,3.9-4,4.8c-0.8,0.4-1.6,0.6-2.5,0.7c0.7-1.9,0.8-4.2,0.7-6.2c-0.1-2.2-0.6-4.5-1.7-6.5c-1.9-3.2-5.3-3.8-8.4-1.8
		c-2.2,1.4-5.1,5.6-8.1,4.1c-2.3-1.2-2.6-4.2-2.8-6.5c-0.2-2.9-0.4-5.8-0.5-8.6c-0.1-3.2-0.2-6.5-0.2-9.7c0-1.7,0-3.3,0-5
		c0-1.3,0.3-3-0.4-4.2c0,0-0.1-0.1-0.1-0.1c0-0.3-0.2-0.7-0.6-0.7c-4.3-0.5-8.9-0.1-13.2,0.2c-2.1,0.1-4.4,0.1-6.5,0.5
		c-1.4,0.3-2.6,1.1-2.9,2.5c-0.9,3.4,2.2,5.4,3.7,7.9c1.1,1.8,0.5,3.9-0.9,5.3c-1.4,1.4-3.3,2-5.2,2.3c-1.9,0.2-3.8,0.2-5.7,0
		c-1.5-0.2-3.3-0.5-4.2-1.9c-1.5-2.3,0.9-5.1,2.2-6.9c1.2-1.8,2.5-4,1.7-6.1c-1-2.9-4.3-3.4-6.9-3.4c-9.9-0.2-19.9,0.1-29.8,0.8
		c-0.6,0-0.5,1,0.1,1c9-0.6,18.1-0.9,27.1-0.7c2.6,0.1,8.2-0.3,8.4,3.5c0.1,2.5-2.4,4.7-3.6,6.7c-1.2,2-1.9,4.4-0.3,6.4
		c1.8,2.4,5.4,2.5,8.1,2.5c3.5,0,7.2-0.5,9.5-3.3c1-1.2,1.6-2.6,1.6-4.1c0-1.5-0.8-2.9-1.6-4.2c-1-1.5-2.7-2.9-2.4-4.9
		c0.1-1.2,1-1.4,2.1-1.5c1.2-0.1,2.4-0.2,3.6-0.3c2.5-0.2,5.1-0.3,7.6-0.4c2.5-0.1,4.9-0.1,7.4-0.4c-0.3,0.8-0.3,1.8-0.3,2.7
		c-0.1,1.5-0.1,3-0.1,4.5c0,2.7-0.1,5.4,0,8.2c0.1,2.9,0.2,5.8,0.3,8.7c0.1,2.5,0.1,5.2,1,7.6c1.3,3.5,4.9,5.2,8.2,3.2
		c1.4-0.8,2.6-2,3.8-3c1.1-0.9,2.5-2,4-1.7c2.5,0.4,3.5,3.3,3.9,5.4c0.3,1.5,0.4,3.1,0.3,4.6c-0.1,1.2-0.4,2.4-0.7,3.6
		c-0.2,0-0.5-0.1-0.7-0.2c-1.9-0.7-2.4-2.4-3.6-3.9c-1.1-1.3-2.7-1.9-4.4-1.7c-3.8,0.5-5.5,3.8-6.7,7c-0.9-0.5-2-0.3-2.9,0.3
		c-1.2,0.8-1.8,2.2-2.1,3.6c-0.4,1.6-0.4,3.3-0.4,4.9c0,0.9,0.1,1.7,0.2,2.6c0.1,0.8,0.2,1.7,0.7,2.3c-0.5,1.5-0.9,3-1.4,4.5
		c-0.1,0.4,0,0.6,0.2,0.8c-0.4,0.1-0.5,0.8,0,0.9c0.6,0.1,1.1,0.3,1.7,0.4c-0.1,0.3-0.1,0.5-0.1,0.8c0,0.4,0,0.8,0,1.2
		c0,0.9,0,1.7,0,2.6c0,0.9,0,1.7,0,2.6c0,0.4,0,0.8,0,1.2c0,0.2,0,0.3,0,0.4c-0.1-0.1-0.2-0.2-0.4-0.2c-4.2,0-8.5,0.2-12.7,0.3
		c-3.5,0.1-8.1,0.5-10.6-2.6c-1.1-1.3-1.4-3-0.6-4.6c0.6-1.3,1.7-2.4,2.3-3.7c1.4-2.8,0.2-6-2.5-7.6c-3-1.8-7.1-1.5-10.5-1.1
		c-3.1,0.4-6.3,1.8-7.5,5c-1.2,2.9,0.3,5.2,2.5,7c1.1,0.9,2.6,1.9,2.4,3.6c-0.2,1.9-2,3.2-3.7,3.7c-2.1,0.6-4.5,0.5-6.7,0.4
		c-2.3,0-4.6-0.1-6.9-0.3c-2.3-0.2-4.6-0.4-6.9-0.7c-2.3-0.3-4.7-0.9-7-1c0.1-0.1,0.1-0.3,0.1-0.5c-0.3-4.7-1-9.4-1.2-14.2
		c-0.1-2.4-0.2-4.9-0.2-7.3c0-2.1-0.2-4.6,0.5-6.6c0.7-1.8,2.7-3,4.2-1.4c1.2,1.2,1.9,2.5,3.4,3.3c2.6,1.5,6.1,1.3,8.8-0.1
		c3-1.6,4.9-4.3,5.7-7.6c0.8-3.3,0.9-7.3-0.7-10.4c-1.5-2.8-4.5-4.4-7.7-4.3c-1.5,0-2.9,0.5-4.2,1.3c-1.6,1-2.9,2.8-4.7,3.5
		c-1,0.3-2.3,0.6-3.1-0.2c-0.7-0.7-0.8-1.8-0.8-2.7c-0.2-2.6-0.1-5.2,0-7.7c0.1-2.7,0.3-5.3,0.5-8c0.2-2.3,0.9-4.9,0.2-7.2
		c0,0,0-0.1-0.1-0.1c0-0.6-0.4-1.2-1.2-1.2c-4.7,0.1-9.4,0.2-14,0.3c-2.8,0-7.1,0.7-9.3-1.5c-2.1-2.1,0.5-4.9,1.7-6.7
		c1.5-2.1,2.9-4.7,1.7-7.3c-1.5-3.6-5.6-4.3-9.1-4.2c-3.6,0-7.9,0-10.7,2.6c-2.3,2.1-3.1,5.3-1.2,8c0.9,1.2,2.1,2.2,2.9,3.4
		c1.2,1.6,0.9,3.5-0.8,4.6c-2,1.4-4.7,1-6.9,0.8c-2.6-0.2-5.1-0.5-7.7-0.7c-5.2-0.4-10.4-0.8-15.6-1.2c-0.8-0.1-0.9,1.1-0.1,1.2
		c4.6,0.5,9.2,1,13.8,1.5c2.3,0.3,4.6,0.5,6.9,0.7c2.1,0.2,4.2,0.5,6.3,0.4c3.1-0.1,6.7-2.1,6.5-5.6c-0.2-3.2-3.7-4.5-4.3-7.4
		c-0.4-1.8,0.8-3.5,2.1-4.5c1.7-1.2,3.8-1.5,5.8-1.6c2.1-0.1,4.3-0.3,6.3,0.2c1.7,0.4,3.8,1.5,4,3.5c0.3,2.6-2.5,4.8-3.7,6.8
		c-1.4,2.3-1.8,5.1,0.2,7.2c2.4,2.4,6.5,2.2,9.7,2.1c5.3-0.1,10.5-0.3,15.8-0.4c0,0,0.1,0,0.1,0c-0.7,1.6-0.8,3.5-1,5.2
		c-0.3,2.3-0.5,4.7-0.6,7c-0.1,2.3-0.2,4.7-0.2,7.1c0,1.8-0.1,3.7,0.5,5.4c1.4,3.6,5.4,2.8,7.8,0.9c1.6-1.2,2.8-2.9,4.8-3.4
		c1.6-0.4,3.3-0.2,4.7,0.5c3.7,1.8,4.5,6.4,4.1,10.2c-0.4,3.5-2.3,7.5-5.8,8.8c-1.6,0.6-3.4,0.8-5.1,0.3c-1.7-0.5-2.8-1.7-3.8-3.1
		c-1-1.3-2.2-2.3-3.8-2.3c-1.6,0.1-3,1.1-3.9,2.4c-1.2,1.9-1.2,4.2-1.2,6.3c0,2.6,0,5.2,0.2,7.9c0.2,5.1,0.5,10.4,1.5,15.4
		c-4.4-0.6-8.8-0.8-13.1-1c-4.4-0.2-8.9-0.4-13.3-0.3c-2.5,0-6,0.7-6.5,3.6c-0.6,3.5,3.5,4.6,4.5,7.4c1.2,3.3-0.7,7-3.7,8.5
		c-3.2,1.5-7.3,1.5-10.3-0.2c-3-1.7-5.5-5-3.7-8.5c1.3-2.6,3.9-5.2,1.9-8.2c-2.4-3.6-7-3-10.8-2.8c-2.5,0.1-5.1,0.3-7.6,0.4
		c-2.5,0.1-5.1,0.1-7.6,0.6c0-0.2,0-0.3-0.1-0.4c0.2-7,0.8-14,1.9-20.9c0.2-1.4,0.6-2.7,2.2-2.9c1.2-0.2,2.5,0.2,3.6,0.7
		c3.2,1.2,6.3,2.9,9.3,4.4c0.4,0.2,0.9,0,1.2-0.4c2.9-3.9,4.6-8.7,4.8-13.6c0.1-3.7-0.6-9.4-5.6-8.9c-2.2,0.2-4.1,1.6-5.7,2.9
		c-1.8,1.5-4.5,3.8-6.9,2.3c-1.7-1-2.1-3.4-2.3-5.2c-0.2-2.6,0-5.3,0-8c0-3.3,0.1-6.6,0.1-9.9c0-1.5,0-3.1,0-4.6
		c-0.1-1.9-0.5-3.7-0.5-5.6c0-0.1-0.1-0.1-0.1,0c-0.1,1.4-0.3,2.8-0.5,4.2c-0.2,1.5-0.2,3-0.2,4.4c-0.1,2.9-0.1,5.8-0.2,8.7
		c0,2.9,0,5.8-0.1,8.7c0,1.8,0,3.7,0.6,5.5c0.5,1.5,1.5,2.9,3,3.6c2,0.9,4.1,0.1,5.9-1c2-1.3,3.6-3.2,5.8-4c2.8-1,4.3,0.9,4.7,3.5
		c0.6,5.3-0.9,10.8-3.9,15.1c-1.6-0.8-3.3-1.6-4.9-2.4c-1.6-0.8-3.1-1.7-4.8-2.2c-2.5-0.8-5.6-0.8-6.9,1.8c-0.8,1.5-0.9,3.5-1.1,5.2
		c-0.3,2.1-0.6,4.2-0.8,6.3c-0.4,3.9-0.6,7.9-0.7,11.8c-1.5,0.1-3,0.3-4.5,0.5l-6.4,0.8c-2.2,0.3-4.4,0.6-6.6,0.8
		c-2.1,0.3-4.2,0.6-6.2,0.7c-1.9,0-3.8-0.3-5.3-1.5c-1.4-1.1-2-2.8-1.4-4.5c1.2-3.1,4.4-4.9,4.4-8.5c0-3.5-3.6-4.6-6.4-5.1
		c-3.6-0.6-7.4-0.2-10.7,1.2c-2.6,1.1-5.4,3.3-4.3,6.5c0.6,1.6,1.9,2.8,2.7,4.3c0.7,1.4,1.4,3.2,0.9,4.7c-0.7,2-3,2.2-4.8,2.4
		c-2.4,0.2-4.7,0.3-7.1,0.4c-4.7,0.2-9.4,0.1-14.1-0.2c0.9-9,1.2-18,0.7-27c-0.1-2.8-0.6-6.6-3.7-7.7c-2.8-1-5.3,1.2-7.4,2.7
		c-1.3,0.9-2.7,1.9-4.3,1.9c-1.9,0-3.6-1.2-4.6-2.7c-2.1-3.1-1.8-8.4-0.2-11.6c2.1-4.1,6.8-3,10.3-1.6c2.9,1.1,7,3.8,9.7,0.9
		c1.1-1.2,1.4-3.1,1.5-4.7c0.1-2.5,0-5.1,0-7.6c0-5.3-0.1-10.6-0.6-15.9c7.1-0.9,14.3-0.9,21.4,0.1c2.6,0.4,6.7,0.8,7.8,3.7
		c0.9,2.3-0.9,4.8-1.9,6.8c-1,1.9-1.9,4.1-1.2,6.2c0.8,2.3,3.1,3.5,5.4,4c3.2,0.7,6.6,0.6,9.9,0.3c2.9-0.3,6.4-0.7,8.7-2.5
		c2.5-2,2.6-5.3,1.6-8.1c-1.2-3.1-3.8-5.5-4.9-8.5c8.3-1.6,16.9-1.6,25.2,0.1c1.1,0.2,1.2-1.4,0.2-1.6c-8.8-1.8-17.9-1.8-26.7,0
		c-0.4,0.1-0.9,0.5-0.7,1c0.8,2.9,2.8,5.1,4.4,7.7c1.4,2.4,2.5,6.1-0.1,8.1c-1.2,0.9-2.7,1.3-4.1,1.6c-1.7,0.4-3.5,0.6-5.2,0.8
		c-3,0.2-6.5,0.4-9.4-0.8c-5.8-2.3-0.6-8.2,0.3-12c0.5-2,0-4.1-1.7-5.4c-1.9-1.6-4.5-1.9-6.8-2.2c-7.2-0.9-14.5-0.8-21.7,0.2
		c0-0.3-0.1-0.7-0.6-0.7c-2.1-0.2-4.2,0.1-6.2,0.3c-2.2,0.2-4.3,0.4-6.5,0.6c-3.5,0.3-8.1,0.7-10.5-2.6c-2-2.8,0.1-6.3,0.8-9.2
		c0.7-2.9,0-5.8-2.8-7.3c-2.7-1.5-6.1-1.3-9.1-1c-3.4,0.4-6.9,1.5-8.8,4.5c-1.6,2.6-1.6,5.5,0.3,8c0.9,1.1,2.1,2.1,2.7,3.4
		c0.6,1.4-0.2,2.6-1.5,3.3c-1.5,0.8-3.3,0.9-5,0.9c-2.5,0.1-4.9,0.2-7.4,0.3c-5,0.2-10.1,0.3-15.1,0.5c-0.1,0-0.3,0.1-0.3,0.2
		c-0.1,0-0.2,0-0.3,0.1c-0.7,1.1-0.6,2.7-0.7,4c0,1.3,0,2.7,0.1,4c0.1,1.4,0.3,2.7,0.5,4.1c0.2,1.3,0.5,2.8,1.2,3.9
		c0.2,0.3,0.7,0.1,0.8-0.2c0.1-1.3-0.3-2.7-0.5-3.9c-0.2-1.3-0.4-2.6-0.5-4c-0.1-1.4-0.2-2.7-0.2-4.1c0-1,0.1-2.1-0.1-3.2
		c4.3,0,8.6-0.1,12.8-0.2c2.3,0,4.5-0.1,6.8-0.1c1.8,0,3.6,0,5.4-0.2c2.3-0.3,5.1-1.2,5.7-3.8c0.7-3-2.4-4.8-3.7-7.1
		c-1.8-3.4,1.5-6.7,4.5-7.8c1.8-0.6,3.8-0.8,5.7-0.9c1.6-0.1,3.2,0,4.7,0.6c1.4,0.5,2.6,1.6,2.8,3.1c0.2,1.6-0.4,3.2-0.9,4.7
		c-1,2.9-1.6,5.9,0.3,8.5c2.4,3.2,6.6,3.7,10.3,3.5c2.4-0.2,4.7-0.4,7.1-0.6c2.2-0.2,4.5-0.2,6.6-0.7c-0.2,4.7,0,9.4,0,14.1
		c0,2.4,0,4.8,0,7.2c0,1.7,0.1,3.6-0.7,5.1c-1.2,2.3-3.7,0.8-5.4,0c-1.8-0.8-3.6-1.6-5.5-2.2c-3.3-0.9-7-0.6-9.2,2.4
		c-2.1,2.8-2.5,7.2-2,10.5c0.5,3.4,2.7,6.7,6.1,7.6c3.3,0.9,5.8-1.1,8.3-2.9c1.1-0.8,2.4-1.9,3.9-1.8c1.8,0.1,2.6,1.7,2.9,3.3
		c0.5,2.2,0.3,4.6,0.4,6.8c0,2.6,0,5.3,0,7.9c-0.1,4.7-0.4,9.5-0.9,14.2c-4-0.5-8.2-0.5-12.2-0.5c-4.1,0-8.3,0.1-12.4,0.5
		c-2.7,0.2-6.7,0.1-8.2,3c-1.2,2.2,0.2,4.6,1.3,6.5c1.3,2.2,3.1,5.1,0.4,7.1c-1.2,0.9-2.8,1.3-4.3,1.6c-2,0.4-4,0.8-6,0.7
		c-3.7-0.1-7.7-2.7-6.5-6.9c0.8-3.1,3.2-5.6,2.7-9c-0.5-3.7-4.1-3.9-7.2-4c-0.1,0-0.1,0-0.2,0c-0.1,0-0.2,0-0.2,0
		c-2.5-0.1-5.1-0.2-7.7-0.3c-0.5-0.1-1.1-0.1-1.6-0.2c-0.3,0-0.5,0-0.6,0.1c-1.3,0-2.7,0-4,0c0.2-4.1,0.4-8.2,0.5-12.3
		c0.1-2,0.1-4,0.1-5.9c0-1.9,0.3-3.8,0.2-5.8c-0.1-1.3-0.4-2.5-1.3-3.4c-0.9-0.9-2.2-1.1-3.4-1.2c-2.9-0.2-5.2,1.9-7.7,3.1
		c-3,1.4-6.2,0.5-8.5-2c-2.4-2.6-2.8-6.3-2-9.6c0.7-3,2.3-6.9,4.9-8.7c3.3-2.3,6.3,1.3,9,2.7c2,1.1,5.1,1.7,6.9-0.2
		c1.2-1.2,1.1-3.4,1.4-5c0.4-2.3,0.4-4.1-0.1-6.4c0-0.1-0.1-0.1-0.2,0c-0.1,1.8-0.3,3.6-0.2,5.4c0.1,2,0,5.3-2.1,6.2
		c-3,1.2-6-2.2-8.2-3.6c-2.3-1.5-5-2.1-7.4-0.4c-2.5,1.8-4.1,5.1-5,7.9C-1.1,67.9,0.2,74.7,6,77.4c2.7,1.2,5.4,0.9,7.8-0.7
		c2.1-1.3,6.3-5.3,8.8-2.3c1.2,1.5,0.7,4.3,0.6,6.1c-0.1,2.3-0.3,4.6-0.4,6.9c-0.2,4.6-0.4,9.2-0.6,13.8c0,0.7,0.7,1.1,1.3,0.9
		c0.1,0.2,0.2,0.4,0.5,0.4c1.2,0.1,2.5,0.2,3.7,0.2c0.1,0.2,0.4,0.4,0.7,0.5c3.3,0.5,6.7,0.6,10,0.4c0.4,0,0.7-0.4,0.8-0.7
		c1,0,2.1,0.1,3,0.4c1.8,0.6,2.2,2.5,2,4.2c-0.5,3.3-3.4,6-2.9,9.5c0.4,2.8,2.9,4.9,5.5,5.6c3.2,0.9,7,0.3,10.2-0.6
		c2.4-0.7,5-2,5.5-4.7c0.4-2.5-1.1-4.7-2.3-6.8c-0.5-1-1.2-2.2-1-3.3c0.3-1.6,1.9-2.1,3.3-2.3c9.2-1.4,18.6-0.6,27.9-0.3
		c0,0.1,0,0.1,0,0.2c-0.1,1.3,1.9,1.5,2,0.2c0,0,0,0,0,0c4,0.3,8,0.4,12,0.4c2,0,4-0.1,6.1-0.2c1.9-0.1,4-0.1,5.9-0.5
		c2.9-0.7,4.3-3.2,3.7-6.1c-0.3-1.4-0.9-2.8-1.7-4.1c-0.9-1.4-2.6-3.2-1.5-4.9c0.9-1.4,2.9-2.1,4.5-2.6c1.8-0.6,3.8-0.8,5.8-0.8
		c1.9,0.1,3.9,0.4,5.7,1.1c2.1,0.8,2,2.8,1.1,4.6c-1.4,2.8-4.6,4.8-4.2,8.3c0.4,3.1,3.3,5.1,6.2,5.7c2.1,0.4,4.3,0.1,6.4-0.2
		c2.5-0.3,4.9-0.6,7.4-0.9c2.4-0.3,4.7-0.6,7.1-0.9c1.9-0.2,4-0.4,5.9-0.8c0.5,0.4,1.3,0.3,1.6-0.3c0,0,0,0,0,0c2.2,0.2,4.3,0,6.5,0
		c2.2-0.1,4.4-0.2,6.6-0.2c2.3-0.1,4.6-0.3,6.8-0.2c1.9,0.1,4.1,0.7,5,2.6c0.9,1.8-0.2,3.4-1.3,4.8c-0.9,1.3-1.7,2.5-1.9,4.1
		c-0.4,3.2,1.7,6.1,4.2,7.9c5.2,3.6,14,3,17.2-3.1c1.4-2.6,1.5-5.9-0.2-8.4c-0.8-1.3-2.2-2.2-3-3.5c-0.9-1.5,0.3-2.6,1.7-3
		c2-0.6,4.2-0.3,6.2-0.3c2.5,0,4.9,0.1,7.4,0.2c5.2,0.2,10.3,0.7,15.4,0.9c0.5,0,0.8-0.2,0.9-0.6c0,0,0,0,0,0
		c-0.1,0.2,0,0.5,0.3,0.6c1.8,0.8,3.8,1.1,5.7,1.4c2,0.3,4.1,0.6,6.2,0.8c4.1,0.4,8.3,0.6,12.4,0.5c3.1-0.1,6.7-0.6,8.4-3.6
		c1.6-2.8,0-5.2-2.2-7c-1.1-1-2.3-2-2.2-3.6c0.1-1.6,1.2-3.1,2.5-3.8c1.6-0.9,3.5-1.2,5.3-1.3c2-0.1,4.3-0.2,6.2,0.4
		c1.6,0.5,3.2,1.9,3.3,3.7c0,1.5-1.1,2.8-1.9,4c-1.8,2.7-2.1,5.6,0.1,8.2c2.5,3.1,6.6,3.4,10.3,3.3c4.9-0.1,9.9-0.3,14.7-0.6
		c0.3,0,0.5-0.2,0.6-0.5c0.3,0.5,1.1,0.4,1.3-0.1c0.1-0.5,0.2-0.9,0.2-1.4c0-0.4,0-0.8,0-1.2c0-0.9,0-1.7-0.1-2.6
		c-0.1-0.9-0.1-1.7-0.1-2.6c0-0.4,0-0.8-0.1-1.2c0-0.2,0-0.3-0.1-0.5c8.8,2.3,17.5,5,25.8,8.8c0.1,2.6-2.3,4.5-4.2,6
		c-2.1,1.5-4.2,3.1-5.3,5.5c-2.4,5.8,5.3,7.9,9.4,8.7c3.1,0.6,6.3,0.6,9.4,0.1c2.2-0.3,4.8-0.8,5.8-3.1c1.4-3.4-1.9-6.6-2.5-9.8
		c-0.2-1-0.1-2,0.7-2.7c1-0.9,2.6-0.6,3.8-0.4c2.6,0.5,5.2,1.5,7.7,2.3c-0.8,0.1-1.5,0.2-2.3,0.5c-0.9,0.4-2.2,1.1-2,2.3
		c0,0.1,0.1,0.1,0.2,0.1c0.3-0.3,0.6-0.6,0.8-0.9c0,0,0,0,0,0c-0.1,0.1-0.1,0.2-0.2,0.3l-0.2,0.3c-0.1,0.2-0.3,0.4-0.4,0.7
		c-0.1,0.1-0.1,0.2-0.2,0.3c-0.1,0.1-0.1,0.3-0.1,0.4c0,0.2,0.3,0.4,0.5,0.3c0.1,0,0.1-0.1,0.2-0.2c0-0.1,0.1-0.1,0.1-0.2l0.2-0.4
		c0.1-0.2,0.2-0.5,0.3-0.7c0.1-0.2,0.2-0.4,0.3-0.7c0.1-0.3,0.2-0.5,0.3-0.7c0,0,0-0.1,0-0.1c0.6-0.3,1.3-0.4,2-0.5
		c1.1-0.1,2.2-0.2,3.3-0.2c0,0,0,0,0,0c0.1,0,0.2,0,0.3,0c0.6,0,1.3,0,1.9,0c3.8-0.1,7.5,0,11.3,0.6c3.9,0.6,7.6,1.9,11,4
		c3.3,2,6.1,4.6,9.2,6.9c0.5,0.4,0.9,0,1-0.5c1.2,1.4,2.3,2.8,3.5,4.2c1.8,2,3.5,4.1,5.2,6.2c1.6,2.1,3.1,4.2,4.5,6.4
		c1.4,2.2,2.6,4.8,4.4,6.7c0.3,0.3,0.9,0.1,0.8-0.4c-0.6-2.5-2.2-4.7-3.6-6.8c-1.5-2.3-3.1-4.6-4.8-6.8c-1.6-2.1-3.3-4.2-5.2-6.2
		c-1.9-2-4-3.6-6.1-5.4c-0.2-0.2-0.5,0.1-0.3,0.3c0,0,0,0,0,0c-2.8-2.4-5.7-4.7-9-6.4c-3.7-2-7.7-3.1-11.8-3.5
		c-3.8-0.4-7.7-0.4-11.5-0.2c0-0.2-0.2-0.4-0.4-0.5c-2-0.9-4.2-1.5-6.3-2.1c-1.7-0.5-3.4-1.2-5.2-1.4c-2.5-0.3-5.4,0.5-5.9,3.3
		c-0.4,2.2,0.9,4.4,1.8,6.4c1.1,2.4,1.9,5.1-1.4,6c-3.9,1-8.2,0.8-12.1,0c-1.9-0.4-4.1-0.9-5.7-2c-1.8-1.3-1.8-3.3-0.7-5
		c1.8-2.9,5.2-4.2,7.3-6.8c0.9-1.1,1.5-2.4,1.5-3.8c0-0.5,0-1.1-0.4-1.4c-0.6-0.5-1.8-0.8-2.6-1.1c-8-3.3-16.2-6-24.6-7.8
		c-0.1-0.1-0.3-0.1-0.4-0.1c-0.4-0.1-0.8-0.2-1.2-0.3c0.2-0.1,0.3-0.2,0.4-0.4c1.7-4.6,3.2-9.4,4.8-14c1.1-3.4,2.2-9.6,6.7-9.9
		c2.3-0.1,2.9,2.1,4.2,3.5c1,1.2,2.5,1.9,4.1,2.1c3.4,0.5,6.6-1.6,8.5-4.2c1.9-2.8,2.9-6.6,2.8-9.9c0-2.9-1.1-6.1-3.9-7.3
		c-2.8-1.1-5.9,0.2-8.6,0.9c-1.3,0.4-2.8,0.9-4.2,0.6c-2-0.4-2.7-2.4-2.7-4.3c0.1-2.4,0.9-4.8,1.4-7.2c0.7-2.8,1.3-5.6,2.1-8.4
		c1.3-5,2.7-10,4.1-15c8.5,2.6,17.1,4.7,25.7,7.1c2.2,0.6,4.3,1.2,6.5,1.8c1.8,0.5,3.7,1.2,5.6,1.5c3,0.5,5.8-1.1,4.9-4.5
		c-0.4-1.6-1-2.9-1-4.6c0-1.4,0.3-2.9,0.9-4.2c1.7-3.6,5.3-4.1,8.8-3c3.6,1.1,8.1,2.6,10.2,5.9c2,3.2,0.3,6-2.4,7.9
		c-1.4,1-2.9,1.8-4.2,2.8c-1.3,0.9-2.7,2-3.2,3.6c-0.4,1.6,0.4,3.2,1.7,4.1c1.6,1.1,3.6,1.1,5.5,0.8c0.2,0,0.3-0.1,0.4-0.2
		c0.9,1.1,2.2,1.9,3.6,2.4c1.4,0.5,2.9,0.6,4.3,1c1.3,0.4,2.6,0.9,3.8,1.6c1.2,0.7,2.2,1.6,3.1,2.6c0.2,0.2,0.3,0.4,0.5,0.6
		c-1,1.5-1.4,3.5-1.9,5.2c-0.7,2.1-1.4,4.3-2,6.4c-1.3,4.1-2.6,8.2-3.8,12.3c-2.6,8.3-5.3,16.6-8,24.8c-1.5,4.7-3.1,9.4-4.5,14.2
		c-0.3,1.1,1.3,1.8,1.7,0.6c2.8-8.3,5.1-16.8,7.7-25.2c2.5-8.4,5.2-16.8,7.8-25.2c0.7-2.3,1.5-4.6,2.1-6.9c0.5-1.8,1.4-3.8,1.6-5.7
		c0,0.1,0.1,0.1,0.2,0.2c0.4,0.5,0.8,1.2,1.4,1.5c0.5,0.3,1.1,0,1.1-0.7c0-1-0.9-1.9-1.5-2.6c-0.7-0.8-1.4-1.5-2.2-2.1
		c-1.6-1.2-3.4-2.2-5.3-2.8c-2.1-0.7-4.5-0.8-6.5-1.9c-0.8-0.4-1.6-1.3-2.1-2.1c-0.2-0.4-0.3-0.9-0.3-1.3c0.2,0.2,0.4,0.4,0.6,0.5
		c0.5,0.3,1,0.6,1.6,0.6c1.6-0.1,1.9-2,2.5-3.1c1.6-3.3,5-5.4,8-7.5c1.6-1.1,3.2-2.1,4.5-3.5c1.5-1.5,2.8-3.3,4.2-5
		c2.9-3.4,6-6.6,9.3-9.7c1.9-1.7,3.9-3.4,5.9-5c1-0.8,2-1.5,3-2.3c1-0.8,2-1.4,2.7-2.5C426.6,0.5,426.4-0.1,425.9,0z M308.7,78.4
		c-0.9,2.9-1.9,5.8-2.8,8.7c-0.1-0.5-0.1-1-0.2-1.5c-0.1-1.4-0.1-2.8,0.1-4.2c0.1-1.2,0.4-2.4,1.2-3.3c0.6-0.6,1.4-1,2.3-1.1
		C309,77.4,308.9,77.9,308.7,78.4z M398.1,26.3c-2.7,2.2-5.9,4-8.3,6.6c-0.6,0.7-1.2,1.3-1.6,2.1c-0.5,0.8-0.7,1.9-1.3,2.6
		c-0.8,0.9-1.5-0.3-2.2-0.8c0,0-0.1,0-0.1-0.1c0-0.3-0.2-0.6-0.4-0.7c1.5-3.2,4.8-5.4,7.5-7.4c3.5-2.6,7.1-4.8,10.9-7
		C401.3,23.3,399.8,24.9,398.1,26.3z"/>
	<text transform="matrix(1 0 0 1 41.3245 91.4056)" class="st3 st4 st5">?</text>
	<g>
		<line class="st2" x1="108.9" y1="66.7" x2="150.2" y2="66.7"/>
		<g>
			<line class="st6" x1="108.9" y1="66.7" x2="137.1" y2="66.7"/>
			<g>
				<polygon class="st3" points="150.2,66.7 131.7,74.3 136.1,66.7 131.7,59.1 				"/>
			</g>
		</g>
	</g>
	<g>
		<line class="st2" x1="263" y1="66.7" x2="294.5" y2="66.7"/>
		<g>
			<line class="st6" x1="263" y1="66.7" x2="281.4" y2="66.7"/>
			<g>
				<polygon class="st3" points="294.5,66.7 276,74.3 280.4,66.7 276,59.1 				"/>
			</g>
		</g>
	</g>
	<g>
		<g>
			<path class="st1" d="M224.7,77c0-0.1,0-0.1,0-0.2l0-0.2c0-0.2,0-0.3,0-0.5c0-0.3,0-0.7,0-1c0-0.7-0.1-1.3-0.2-2l0.1,0.1l-2.9-0.6
				l-0.1,0l0-0.1l-0.2-0.8l-0.1-0.4l-0.1-0.4l-0.1-0.2l0.1-0.1l2.1-2.1l-0.1,0.4c-0.5-1.2-1.2-2.3-2-3.3l0.4,0.1l-2.8,0.9l-0.2,0.1
				l-0.2-0.2c-0.4-0.4-0.8-0.8-1.2-1.2l-0.2-0.2l0.1-0.3l0.8-2.9l0.2,0.5c-1-0.8-2.2-1.4-3.4-1.9l0.5-0.1l-2,2.2l-0.2,0.2l-0.3-0.1
				c-0.5-0.2-1.1-0.3-1.7-0.4l-0.3-0.1l-0.1-0.3l-0.7-2.9l0.4,0.3c-0.6-0.1-1.3-0.1-1.9-0.1c-0.6,0-1.3,0-1.9,0.1l0.3-0.3l-0.7,2.9
				l0,0.2l-0.2,0l-0.8,0.2l-0.4,0.1l-0.4,0.1l-0.2,0.1l-0.1-0.1l-2.1-2.1l0.3,0c-1.2,0.5-2.3,1.2-3.4,2l0.1-0.2
				c0.3,1,0.6,1.9,0.8,2.9l0,0.1l-0.1,0.1c-0.4,0.4-0.8,0.8-1.2,1.2l-0.1,0.1l-0.1,0l-2.9-0.8l0.2-0.1c-0.8,1.1-1.4,2.2-1.9,3.4
				l0-0.2l2.2,2l0.1,0.1l0,0.1c-0.2,0.6-0.3,1.1-0.4,1.7l0,0.1l-0.1,0l-2.9,0.8l0.2-0.2c-0.1,1.3-0.1,2.6,0.1,3.9l-0.3-0.3l2.9,0.6
				l0.2,0l0.1,0.2l0.2,0.8l0.1,0.4l0.1,0.4l0.1,0.2l-0.2,0.2l-2.1,2.1l0.1-0.5c0.5,1.2,1.2,2.3,2,3.3l-0.5-0.2l2.8-0.9l0.3-0.1
				l0.2,0.2c0.4,0.4,0.8,0.8,1.2,1.2l0.2,0.2l-0.1,0.3l-0.8,2.9l-0.2-0.5c1,0.7,2.2,1.4,3.4,1.8l-0.6,0.1l2-2.2l0.2-0.2l0.3,0.1
				c0.5,0.2,1.1,0.3,1.6,0.4l0.3,0.1l0.1,0.3l0.8,2.9l-0.5-0.4c1.3,0.1,2.6,0.1,3.8,0l-0.4,0.4l0.7-2.9l0.1-0.3l0.3-0.1l0.8-0.2
				l0.4-0.1l0.4-0.1l0.3-0.1l0.2,0.2l2.1,2.1l-0.5-0.1c1.2-0.5,2.3-1.2,3.3-1.9l-0.1,0.4l-0.8-2.9l-0.1-0.2l0.2-0.2
				c0.4-0.4,0.8-0.8,1.2-1.2l0.1-0.2l0.2,0.1l2.9,0.8l-0.3,0.1c0.8-1,1.4-2.2,2-3.4l0.1,0.3l-2.1-2.1l-0.1-0.1l0-0.1
				c0.2-0.6,0.3-1.1,0.5-1.7l0-0.1l0.1,0C222.8,77.4,223.7,77.2,224.7,77z M224.8,77.1c-0.9,0.3-1.9,0.6-2.9,0.9l0.1-0.1
				c-0.1,0.6-0.2,1.2-0.4,1.7l0-0.2l2.2,2l0.1,0.1l-0.1,0.2c-0.5,1.3-1.1,2.4-1.9,3.5l-0.1,0.2l-0.2-0.1l-2.9-0.7l0.4-0.1
				c-0.4,0.5-0.8,0.9-1.2,1.3l0.1-0.4l0.9,2.8l0.1,0.3l-0.2,0.2c-1.1,0.8-2.2,1.6-3.5,2.1l-0.3,0.1l-0.2-0.2l-2.1-2.1l0.5,0.1
				l-0.4,0.2l-0.4,0.1l-0.9,0.2l0.4-0.4l-0.7,2.9l-0.1,0.3l-0.4,0.1c-1.4,0.2-2.7,0.2-4.1,0.1l-0.4,0l-0.1-0.4l-0.8-2.9l0.4,0.4
				c-0.6-0.1-1.2-0.3-1.8-0.5l0.6-0.1l-2,2.2l-0.2,0.3l-0.3-0.1c-1.3-0.5-2.5-1.2-3.6-2l-0.3-0.2l0.1-0.3l0.8-2.9l0.2,0.5
				c-0.5-0.4-0.9-0.8-1.3-1.3l0.5,0.1l-2.9,0.8l-0.3,0.1l-0.2-0.2c-0.8-1.1-1.5-2.3-2.1-3.5l-0.1-0.3l0.2-0.2l2.1-2.1L195,80
				l-0.1-0.4l-0.1-0.4l-0.2-0.9l0.3,0.3l-2.9-0.7l-0.2-0.1l0-0.2c-0.2-1.3-0.2-2.7,0-4l0-0.2l0.2,0l2.9-0.7l-0.2,0.2
				c0.1-0.6,0.3-1.2,0.5-1.7l0.1,0.2l-2.1-2.1l-0.1-0.1l0-0.1c0.5-1.2,1.2-2.4,2-3.5l0.1-0.1l0.1,0l2.9,0.8l-0.2,0
				c0.4-0.5,0.8-0.9,1.2-1.3l0,0.2c-0.3-0.9-0.6-1.9-0.9-2.8l0-0.1l0.1-0.1c1.1-0.8,2.2-1.5,3.4-2.1l0.1-0.1l0.1,0.1l2.1,2.1
				l-0.3-0.1l0.4-0.2l0.4-0.1l0.9-0.2l-0.2,0.2l0.6-2.9l0.1-0.2l0.2,0c0.7-0.1,1.3-0.2,2-0.2c0.7,0,1.4,0,2,0.1l0.3,0l0.1,0.3
				l0.8,2.9l-0.3-0.3c0.6,0.1,1.2,0.3,1.8,0.4l-0.5,0.1l2-2.2l0.2-0.2l0.3,0.1c1.3,0.5,2.4,1.2,3.5,2l0.2,0.2l-0.1,0.3l-0.8,2.9
				l-0.1-0.4c0.5,0.4,0.9,0.8,1.3,1.3l-0.4-0.1l2.9-0.8l0.2-0.1l0.2,0.2c0.8,1.1,1.5,2.3,2,3.5l0.1,0.2l-0.2,0.1l-2.1,2.1l0.1-0.3
				l0.1,0.4l0.1,0.4l0.2,0.9l-0.2-0.2l2.9,0.7l0.1,0l0,0.1c0.1,0.7,0.1,1.3,0.1,2c0,0.3,0,0.7,0,1c0,0.2,0,0.3,0,0.5l0,0.2
				C224.8,76.9,224.8,77,224.8,77.1z"/>
			<path class="st1" d="M210.5,84.8l-0.9,0.2c-0.3,0-0.6,0-1,0.1c-0.3,0-0.6,0-1,0c-0.3,0-0.6-0.1-1-0.1c-1.3-0.2-2.5-0.6-3.7-1.2
				l-0.8-0.5c-0.3-0.2-0.5-0.4-0.8-0.6c-0.2-0.2-0.5-0.5-0.7-0.7c-0.2-0.3-0.4-0.5-0.6-0.8c-0.8-1.1-1.3-2.3-1.6-3.6
				c-0.2-1.3-0.2-2.6,0-3.9c0.1-0.3,0.2-0.6,0.2-0.9c0.1-0.3,0.2-0.6,0.3-0.9l0.4-0.9L200,70c1.4-2.2,3.6-3.8,6.1-4.5
				c1.3-0.3,2.6-0.4,3.9-0.2c1.3,0.2,2.6,0.7,3.7,1.4c1.1,0.7,2.1,1.6,2.9,2.7c0.8,1.1,1.3,2.3,1.6,3.6c0.3,1.3,0.3,2.7,0,4
				c-0.3,1.3-0.8,2.6-1.6,3.6C215.3,82.8,212.9,84.3,210.5,84.8z M210.4,84.7l0.9-0.3c0.3-0.1,0.6-0.2,0.9-0.4
				c0.3-0.1,0.6-0.3,0.8-0.4c0.3-0.2,0.5-0.4,0.8-0.5c1-0.8,1.8-1.7,2.4-2.8c1.2-2.1,1.6-4.7,1-7c-0.5-2.3-2-4.5-4-5.8
				c-2-1.3-4.6-1.9-7-1.4c-1.2,0.2-2.4,0.7-3.4,1.4c-1,0.7-1.9,1.6-2.6,2.7c-0.2,0.3-0.3,0.5-0.4,0.8c-0.1,0.3-0.2,0.6-0.4,0.9
				c-0.1,0.3-0.2,0.6-0.3,0.9c-0.1,0.3-0.1,0.6-0.2,0.9c-0.2,1.2-0.1,2.5,0.2,3.6c0.6,2.4,2,4.5,4,5.9c1,0.7,2.2,1.2,3.4,1.5
				c0.3,0.1,0.6,0.1,0.9,0.1c0.3,0,0.6,0,0.9,0c0.3,0,0.6,0,0.9-0.1L210.4,84.7z"/>
		</g>
	</g>
	<g>
		<g>
			<path class="st1" d="M227.7,51.6c0,0,0-0.1,0-0.1l0-0.1c0-0.1,0-0.2,0-0.3c0-0.2,0-0.4,0-0.6c0-0.4-0.1-0.7-0.1-1.1l0.1,0.1
				l-1.7-0.3l-0.1,0l0-0.1l-0.1-0.5l-0.1-0.2l-0.1-0.2l0-0.1l0.1-0.1l1.2-1.2l0,0.2c-0.3-0.7-0.7-1.3-1.2-1.9l0.2,0.1l-1.6,0.5
				l-0.1,0l-0.1-0.1c-0.2-0.2-0.5-0.5-0.7-0.7l-0.1-0.1l0-0.1l0.4-1.6l0.1,0.3c-0.6-0.4-1.2-0.8-1.9-1.1l0.3-0.1l-1.2,1.2l-0.1,0.1
				l-0.2,0c-0.3-0.1-0.6-0.2-0.9-0.2l-0.2,0l0-0.2l-0.4-1.6l0.2,0.2c-0.4,0-0.7-0.1-1.1-0.1c-0.4,0-0.7,0-1.1,0.1l0.2-0.2l-0.4,1.6
				l0,0.1l-0.1,0l-0.5,0.1l-0.2,0.1l-0.2,0.1l-0.1,0l-0.1-0.1l-1.2-1.2l0.1,0c-0.7,0.3-1.3,0.7-1.9,1.1l0-0.1
				c0.2,0.5,0.3,1.1,0.5,1.6l0,0.1l0,0c-0.2,0.2-0.5,0.5-0.7,0.7l0,0l-0.1,0l-1.6-0.4l0.1,0c-0.4,0.6-0.8,1.3-1.1,2l0-0.1l1.2,1.1
				l0.1,0.1l0,0.1c-0.1,0.3-0.2,0.6-0.2,1l0,0.1l-0.1,0l-1.6,0.5l0.1-0.1c-0.1,0.7,0,1.5,0.1,2.2l-0.1-0.2l1.6,0.4l0.1,0l0,0.1
				l0.1,0.5l0.1,0.2l0.1,0.2l0,0.1l-0.1,0.1l-1.2,1.2l0.1-0.3c0.3,0.7,0.7,1.3,1.1,1.9l-0.3-0.1l1.6-0.5l0.2-0.1l0.1,0.1
				c0.2,0.2,0.5,0.5,0.7,0.7l0.1,0.1l0,0.2l-0.4,1.6l-0.1-0.3c0.6,0.4,1.2,0.8,1.9,1l-0.3,0.1l1.2-1.2l0.1-0.1l0.2,0.1
				c0.3,0.1,0.6,0.2,0.9,0.2l0.2,0l0,0.2l0.4,1.6l-0.3-0.2c0.7,0.1,1.5,0.1,2.2,0l-0.2,0.2l0.4-1.6l0-0.2l0.2,0l0.5-0.1l0.2-0.1
				l0.2-0.1l0.2-0.1l0.1,0.1l1.2,1.2l-0.3-0.1c0.7-0.3,1.3-0.7,1.9-1.1l-0.1,0.3l-0.5-1.6l0-0.1l0.1-0.1c0.2-0.2,0.5-0.4,0.7-0.7
				l0.1-0.1l0.1,0L226,56l-0.2,0.1c0.4-0.6,0.8-1.2,1.1-1.9l0,0.1l-1.2-1.2l0,0l0-0.1c0.1-0.3,0.2-0.6,0.3-1l0,0l0,0
				C226.6,51.9,227.1,51.8,227.7,51.6z M227.7,51.7c-0.5,0.2-1.1,0.3-1.6,0.5l0.1-0.1c-0.1,0.3-0.1,0.7-0.2,1l0-0.1l1.3,1.1l0.1,0.1
				l0,0.1c-0.3,0.7-0.6,1.4-1.1,2l-0.1,0.1l-0.1,0l-1.6-0.4l0.2-0.1c-0.2,0.3-0.5,0.5-0.7,0.7l0.1-0.2l0.5,1.6l0,0.2l-0.1,0.1
				c-0.6,0.5-1.3,0.9-2,1.2l-0.2,0.1l-0.1-0.1l-1.2-1.2l0.3,0.1l-0.2,0.1l-0.2,0.1l-0.5,0.1l0.2-0.2L220,60l0,0.2l-0.2,0
				c-0.8,0.1-1.5,0.1-2.3,0l-0.2,0l-0.1-0.2l-0.4-1.6l0.2,0.2c-0.3-0.1-0.7-0.2-1-0.3l0.3-0.1l-1.2,1.2l-0.1,0.2l-0.2-0.1
				c-0.7-0.3-1.4-0.7-2-1.1l-0.2-0.1l0.1-0.2l0.4-1.6l0.1,0.3c-0.3-0.2-0.5-0.5-0.7-0.7l0.3,0.1l-1.6,0.5l-0.2,0.1l-0.1-0.1
				c-0.5-0.6-0.9-1.3-1.2-2l-0.1-0.2l0.1-0.1l1.2-1.2l-0.1,0.2l-0.1-0.2l-0.1-0.2l-0.1-0.5l0.2,0.2l-1.6-0.4l-0.1,0l0-0.1
				c-0.1-0.8-0.1-1.5,0-2.3l0-0.1l0.1,0l1.6-0.4l-0.1,0.1c0.1-0.3,0.2-0.7,0.3-1l0,0.1l-1.2-1.2l-0.1,0l0-0.1c0.3-0.7,0.7-1.4,1.1-2
				l0,0l0.1,0l1.6,0.4l-0.1,0c0.2-0.3,0.5-0.5,0.7-0.7l0,0.1c-0.2-0.5-0.3-1.1-0.5-1.6l0-0.1l0.1,0c0.6-0.5,1.3-0.9,1.9-1.2l0.1,0
				l0.1,0.1l1.2,1.2l-0.2,0l0.2-0.1l0.2-0.1l0.5-0.1l-0.1,0.1l0.4-1.6l0-0.1l0.1,0c0.4-0.1,0.8-0.1,1.1-0.1c0.4,0,0.8,0,1.2,0l0.2,0
				l0,0.2l0.4,1.6l-0.2-0.2c0.3,0.1,0.7,0.1,1,0.3l-0.3,0.1l1.2-1.2l0.1-0.1l0.2,0.1c0.7,0.3,1.4,0.7,2,1.1l0.1,0.1l0,0.2l-0.4,1.6
				l-0.1-0.2c0.3,0.2,0.5,0.5,0.7,0.7l-0.2-0.1l1.6-0.5l0.1,0l0.1,0.1c0.5,0.6,0.8,1.3,1.1,2l0,0.1l-0.1,0.1l-1.2,1.2l0-0.2l0.1,0.2
				l0.1,0.2l0.1,0.5l-0.1-0.1l1.6,0.4l0.1,0l0,0.1c0,0.4,0.1,0.8,0.1,1.1c0,0.2,0,0.4,0,0.6c0,0.1,0,0.2,0,0.3l0,0.1
				C227.8,51.6,227.7,51.6,227.7,51.7z"/>
			<path class="st1" d="M219.6,56.1l-0.5,0.1c-0.2,0-0.4,0-0.5,0c-0.2,0-0.4,0-0.5,0c-0.2,0-0.4,0-0.5,0c-0.7-0.1-1.4-0.3-2.1-0.7
				l-0.5-0.3c-0.1-0.1-0.3-0.2-0.4-0.4c-0.1-0.1-0.3-0.3-0.4-0.4c-0.1-0.1-0.2-0.3-0.4-0.4c-0.4-0.6-0.7-1.3-0.9-2.1
				c-0.1-0.7-0.1-1.5,0-2.2c0-0.2,0.1-0.4,0.1-0.5c0.1-0.2,0.1-0.3,0.2-0.5l0.2-0.5l0.3-0.5c0.8-1.2,2-2.2,3.5-2.5
				c0.7-0.2,1.5-0.2,2.2-0.1c0.7,0.1,1.5,0.4,2.1,0.8c0.6,0.4,1.2,0.9,1.7,1.5c0.4,0.6,0.8,1.3,0.9,2.1c0.2,0.7,0.2,1.5,0,2.3
				c-0.1,0.7-0.5,1.4-0.9,2.1C222.3,54.9,221,55.8,219.6,56.1z M219.6,56l0.5-0.2c0.2-0.1,0.3-0.1,0.5-0.2c0.2-0.1,0.3-0.2,0.5-0.3
				c0.2-0.1,0.3-0.2,0.4-0.3c0.6-0.4,1-1,1.4-1.6c0.7-1.2,0.9-2.7,0.6-4c-0.3-1.3-1.1-2.5-2.3-3.3c-1.2-0.7-2.6-1.1-4-0.8
				c-0.7,0.1-1.4,0.4-1.9,0.8c-0.6,0.4-1.1,0.9-1.5,1.5c-0.1,0.2-0.2,0.3-0.3,0.5c-0.1,0.2-0.1,0.3-0.2,0.5c0,0.2-0.1,0.3-0.1,0.5
				c0,0.2-0.1,0.3-0.1,0.5c-0.1,0.7,0,1.4,0.1,2.1c0.3,1.3,1.2,2.5,2.3,3.3c0.6,0.4,1.2,0.7,1.9,0.9c0.2,0,0.4,0.1,0.5,0.1
				c0.2,0,0.4,0,0.5,0c0.2,0,0.4,0,0.5,0L219.6,56z"/>
		</g>
	</g>
	<path class="st1" d="M369.2,42.4c-1.2,0.9-1.8,2.3-2.6,3.5c-0.8,1.3-1.6,2.7-2.5,4c-0.8,1.3-1.6,2.6-2.5,3.9
		c-0.4,0.6-0.8,1.3-1.3,1.9c-0.3,0.5-0.9,1-0.8,1.7c0,0.2,0.2,0.4,0.4,0.3c0.6-0.2,0.9-0.7,1.2-1.2c0.5-0.7,0.9-1.3,1.4-2
		c0.9-1.3,1.8-2.6,2.6-3.9c0.8-1.3,1.7-2.6,2.5-3.8c0.8-1.3,1.8-2.5,2-4C369.9,42.4,369.5,42.2,369.2,42.4z"/>
	<path class="st1" d="M381.7,56.7c-1.4,0.2-2.7,1-4,1.6c-1.4,0.6-2.7,1.3-4,1.9c-1.3,0.6-2.7,1.3-4.1,1.9c-0.6,0.3-1.3,0.6-1.9,0.9
		c-0.6,0.3-1.4,0.5-1.7,1c-0.2,0.3,0,0.6,0.3,0.7c0.7,0.1,1.3-0.3,2-0.6c0.6-0.3,1.3-0.6,1.9-0.8c1.4-0.6,2.7-1.2,4.1-1.8
		c1.4-0.6,2.7-1.2,4.1-1.9c1.3-0.6,2.7-1.2,3.7-2.2C382.3,57.1,382.1,56.6,381.7,56.7z"/>
	<path class="st1" d="M385.4,74.1c-0.6-0.2-1.3-0.2-1.9-0.2c-0.7,0-1.4,0-2.1-0.1c-1.3-0.1-2.7-0.1-4-0.2c-2.7-0.2-5.5-0.4-8.2-0.6
		c-0.8-0.1-1,1.2-0.1,1.3c2.8,0.3,5.6,0.5,8.4,0.7c1.4,0.1,2.8,0.2,4.2,0.2c1.2,0.1,2.7,0.3,3.9,0C385.9,75,385.8,74.2,385.4,74.1z"
		/>
	<path class="st1" d="M378.6,89.6c-0.4-0.5-0.9-0.8-1.4-1.1c-0.5-0.3-1-0.6-1.5-0.8c-1.1-0.6-2.1-1.2-3.2-1.8
		c-1-0.6-2.1-1.2-3.1-1.7c-1-0.5-2.1-1.1-3.3-1.2c-0.1,0-0.2,0.1-0.1,0.2c0.7,0.9,1.7,1.5,2.6,2.1c1.1,0.6,2.1,1.2,3.2,1.9
		c1,0.6,2.1,1.2,3.2,1.7c0.5,0.3,1,0.6,1.5,0.8c0.5,0.3,1.1,0.6,1.7,0.6C378.6,90.4,378.8,90,378.6,89.6z"/>
	<path class="st1" d="M353,36.1c-0.1-0.4-0.6-0.5-0.8-0.1c-1.2,2.8-1.1,6.2-1.4,9.2c-0.1,1.5-0.2,3.1-0.2,4.6c0,0.8,0,1.6-0.1,2.5
		c0,0.7-0.1,1.4,0.2,2.1c0.2,0.5,0.9,0.4,1.1,0c0.3-0.7,0.3-1.5,0.3-2.2c0-0.7,0.1-1.4,0.2-2.1c0.1-1.6,0.2-3.2,0.3-4.7
		C352.9,42.3,353.6,39,353,36.1z"/>
	<path class="st1" d="M341.7,52.3c-0.7-1.5-1.7-2.9-2.6-4.2c-0.9-1.3-1.8-2.7-2.5-4.2c-0.4-0.7-0.7-1.5-0.9-2.3
		c-0.2-0.7-0.3-1.6-0.7-2.2c-0.3-0.4-0.9-0.2-1.1,0.2c-0.3,0.6-0.1,1.5,0,2.2c0.2,0.8,0.4,1.6,0.7,2.4c0.6,1.5,1.5,3,2.4,4.3
		c0.9,1.4,1.8,2.7,2.6,4.1c0.4,0.7,0.8,1.5,1.2,2.3c0.3,0.7,0.4,1.4,1.1,1.8c0.2,0.1,0.5,0,0.6-0.2
		C343.4,55.4,342.2,53.3,341.7,52.3z"/>
	<path class="st1" d="M362.2,62.1c-2.1-2.7-5.1-3.8-8.4-4.3c-6.6-1-13.2,1.5-16.5,7.5c-1.8,3.2-2.2,6.8-1.6,10.5
		c0.4,2.2,0.9,4.4,0.6,6.7c-0.2,2.2-0.6,4.2-0.1,6.3c0.1,0.3,0.3,0.5,0.5,0.6c0.2,0.4,0.5,0.7,1,0.8c3.9,0.7,7.7,1.6,11.4,2.8
		c1.5,0.5,2.8,1.1,4-0.2c1.1-1.2,1.6-2.9,2.3-4.4c1.4-3.3,4.2-5.6,6.1-8.5c1.9-2.8,3.3-6.3,3.2-9.8C365,67.3,364,64.4,362.2,62.1z
		 M345.2,79.9c0.8,0.4,1.7,0.5,2.7,0.3c0.6,0.4,1.3,0.6,2.1,0.7c-0.2,0.6-0.5,1.1-0.6,1.7c-0.3,0.8-0.4,1.7-0.8,2.5
		c-0.6,1.5-0.8,3.3-1.1,4.9c-1.7-0.6-3.5-1.1-5.2-1.5c0.7-1.5,1.1-3.1,1.6-4.7C344.3,82.5,344.8,81.2,345.2,79.9z M344.8,78.4
		c-0.4-0.3-0.8-0.7-1-1.2c-0.5-0.8-0.8-1.7-0.9-2.6c-0.1-0.6-0.1-1.3,0.3-1.9c0.7-0.8,1.4,0,1.6,0.7C345.3,75,345.1,76.7,344.8,78.4
		z M347.2,75.8c0.4-1,1.2-2.1,2.2-2.4c1.4-0.4,1.3,1,1.1,2c-0.3,1.2-0.8,2.3-1.8,3c-0.3,0.2-0.5,0.3-0.8,0.4
		C347.2,78,346.8,76.8,347.2,75.8z M360.1,78c-1.6,2.5-3.9,4.5-5.5,7.1c-0.8,1.3-1.4,2.8-2,4.2c-0.2,0.5-0.6,1.9-1.2,2.1
		c-0.2,0.1-1.1-0.4-1.3-0.5c-0.4-0.2-0.9-0.3-1.3-0.5c-0.1-0.1-0.3-0.1-0.4-0.1c0.2-1,0.4-2,0.7-3c0.3-1,0.3-2.2,0.7-3.2
		c0.4-1.1,0.9-2.2,1.5-3.3c0.1,0,0.2,0,0.3,0c1.4-0.3,2.8-1.1,3.8-2.2c0.6-0.6,1.4-1.9,0.7-2.8c-0.3-0.4-0.9-0.6-1.4-0.6
		c-0.7,0-1.2,0.4-1.7,0.9c-1,1.1-1.9,2.3-2.5,3.6c-0.4,0-0.8-0.1-1.2-0.2c0,0,0,0,0,0c1.2-0.7,2.1-2,2.4-3.4
		c0.3-1.1,0.5-2.7-0.6-3.4c-0.9-0.6-2.1-0.6-2.9,0.1c-1,1-1.4,2.3-1.7,3.7c-0.1,0.7-0.3,1.1,0,1.8c0.1,0.3,0.2,0.5,0.3,0.7
		c-0.5,0-0.9-0.1-1.3-0.3c0-0.1,0.1-0.2,0.1-0.3c0.4-1.6,0.6-3.2,0.3-4.8c-0.2-1-0.8-2.3-2-2.5c-1.4-0.2-2.1,1.2-2.1,2.4
		c0,1.3,0.4,2.8,1.1,3.9c0.4,0.8,1,1.4,1.6,1.9c-0.2,0.7-0.4,1.4-0.6,2c-0.4,1.3-0.8,2.5-1.2,3.8c-0.3,1-0.7,2-0.9,3.1
		c-1.2-0.3-2.4-0.6-3.6-0.8c0.3-2.8,1-5.6,0.6-8.4c-0.5-3.2-1.5-6-0.8-9.3c1.2-5.8,6.5-10,12.4-9.9c2.9,0,6.3,0.6,8.5,2.5
		c1.9,1.7,3.1,4.1,3.4,6.6C362.7,72.2,361.8,75.4,360.1,78z M351.9,79.6c0.1-0.2,0.3-0.5,0.4-0.7c0.6-0.8,1.1-1.7,1.8-2.3
		c0.1-0.1,0.3-0.4,0.4-0.4c0.6-0.2,1.1,0.3,0.8,0.7c-0.3,0.5-0.9,1-1.3,1.4C353.5,78.8,352.8,79.3,351.9,79.6z"/>
	<path class="st1" d="M349,94.3c-0.3-0.4-0.7-0.5-1.2-0.6c-0.5-0.1-0.9-0.2-1.4-0.4c-0.9-0.2-1.8-0.5-2.7-0.7
		c-0.9-0.2-1.8-0.5-2.7-0.7c-0.9-0.2-1.9-0.7-2.8-0.7c-0.9-0.1-1,1-0.3,1.4c0.8,0.4,1.9,0.6,2.8,0.8c0.9,0.2,1.8,0.5,2.7,0.7
		c0.9,0.2,1.8,0.5,2.7,0.7c0.5,0.1,0.9,0.2,1.4,0.4c0.4,0.1,0.9,0.2,1.3,0C349.2,95,349.3,94.6,349,94.3z"/>
	<path class="st1" d="M349,97.2c-0.4-0.5-0.9-0.5-1.5-0.7c-0.5-0.1-1-0.2-1.5-0.4c-1-0.3-2-0.5-3-0.8c-1-0.3-2-0.6-3-0.9
		c-1-0.3-1.9-0.8-3-0.6c-0.3,0.1-0.5,0.4-0.3,0.7c0.7,0.8,1.7,1.1,2.7,1.4c1,0.4,2,0.7,3.1,1c1,0.3,2.1,0.6,3.1,0.9
		c0.5,0.1,1,0.2,1.5,0.4c0.5,0.1,1.1,0.3,1.6,0.1C349.1,98,349.2,97.6,349,97.2z"/>
	<path class="st1" d="M348.1,99.4c-0.9-0.6-2.2-0.8-3.2-1.1c-1-0.3-2.1-0.6-3.1-0.9c-1-0.3-2.1-0.6-3.1-0.9
		c-0.5-0.2-1.1-0.5-1.7-0.4c-0.4,0.1-0.8,0.3-0.8,0.8c0.1,1,1.6,1.3,2.4,1.5c1,0.3,2,0.7,3,1c1,0.3,2,0.6,3,1c1,0.3,2.1,0.8,3.2,0.7
		C348.6,101,348.7,99.8,348.1,99.4z"/>
	<g>
		<path class="st1" d="M339.8,100.2C339.8,100.2,339.8,100.1,339.8,100.2C339.8,100.2,339.8,100.2,339.8,100.2z"/>
		<path class="st1" d="M343.5,100.5c-0.1-0.1-0.4-0.2-0.5-0.3c-0.2-0.1-0.4-0.1-0.7-0.1c-0.1,0-0.3-0.1-0.4-0.1
			c-0.3-0.1-0.6-0.1-0.9-0.1c-0.2,0-0.4,0-0.7,0c0.2-0.1-0.1,0-0.1,0c-0.1,0-0.2,0.1-0.3,0.1c0,0,0,0-0.1,0.1
			c-0.1,0.1-0.2,0.3-0.1,0.5c0-0.1,0-0.1,0,0.1c0,0.1,0.1,0.2,0.2,0.2c0,0,0.2,0.2,0.1,0.1c0.2,0.2,0.4,0.2,0.6,0.4
			c0.3,0.1,0.6,0.3,0.9,0.3c0.7,0.2,2.1,0.7,2.4-0.4C343.9,101.1,343.7,100.7,343.5,100.5z"/>
	</g>
</g>
</svg>
