<?xml version="1.0" encoding="UTF-8"?>
<svg id="Calque_1" data-name="Calque 1" xmlns="http://www.w3.org/2000/svg" viewBox="0 0 580.15 283.45">
  <defs>
    <style>
      .cls-1 {
        fill: #004460;
      }

      .cls-2 {
        fill: #fff;
      }

      .cls-3 {
        fill: #004461;
      }

      .cls-4 {
        fill: #e84f2d;
      }
    </style>
  </defs>
  <g id="fond_blanc" data-name="fond blanc">
    <path class="cls-2" d="M572.96,183.59c-1.2-1.2-2.93-1.46-4.66-1.46h-.53q-.13-.13-.27-.27c-.53-.27-.8-.8-1.2-1.07.13-.27.53-.67.53-1.07.13-.53.13-.93,0-1.46,0-.53-.13-.93-.53-1.2-.13-.13-.27-.53-.53-.67-.27-.53-.67-.8-.93-1.2-.27-.27-.67-.8-.93-1.07-.53-.53-1.2-.93-1.73-1.46-.13-.13-.27-.27-.53-.27-.13,0-.13-.13-.27-.13-.13-.13-.27-.13-.53-.13s-.13-.13-.27-.13c0-.53-.13-.8-.53-1.2-.13-.27-.53-.67-.67-.93-.27-.27-.8-.67-1.07-.8v-.27c0-.27-.13-.53-.27-.8-.13-.13-.27-.53-.53-.67l-.13-.13-.27-.27c-.27-.27-.8-.67-1.2-.93-.13-.13-.53-.27-.67-.27s-.13-.13-.27-.13-.27-.13-.27-.13l-.13-.13c-.53-.53-.93-.93-1.6-1.46-.67-.67-1.46-1.07-2-1.6-.53-.27-.93-.67-1.6-.93v-.13c-.27-.8-.67-1.6-1.07-2.13-.53-.67-.93-1.46-1.6-2-.53-.67-1.07-1.07-1.73-1.6l-.13-.13c-.53-.67-.8-1.07-1.07-1.73-.13-.27-.27-.67-.27-.93s-.13-.53-.13-.8c-.27-.93-.67-1.46-1.2-2-.93-1.07-2.53-1.86-3.73-2.13-.13,0-.27-.13-.67-.13-1.46-2-2.8-4.26-3.99-6.52.13,0,.27,0,.53-.13.8,0,1.6,0,2.4-.27,1.46-.13,2.8-.53,4.26-.93.13.13.13.27.27.27.27.13.53.27.8.53.53.27,1.07.53,1.73.53h.93c.53,0,.93-.13,1.2-.53l.27-.27h0c.53-.27.8-.67,1.07-1.07s.53-.93.53-1.6c0-.53-.13-.8-.27-1.2,1.2-1.2,1.73-2.8,1.07-4.53-.27-.67-.8-1.2-1.46-1.73,0-.13-.13-.27-.13-.27-.8-1.2-2-1.86-3.33-1.86l-.27-.27c-.27-1.46-1.2-2.13-2.66-2.4,0,0,.13,0,.13-.13.53-.27.93-.67,1.2-1.07.67-.8.93-1.6.93-2.53,0-.8-.13-1.46-.67-2.13-.27-.67-1.07-1.2-1.86-1.73l-.13-.13c0-.53,0-.93-.13-1.2-.27-.93-1.07-1.86-1.86-2.4l-.13-.13c0-.53-.13-.93-.13-1.2.13-.53.27-.93.27-1.46,0-.8-.27-1.6-.8-2.13-.53-.67-1.07-1.07-1.86-1.2h-.27c.8-.53,1.6-1.46,1.73-2.13.53-2-.67-3.99-2.66-4.53-.93-.27-1.86-.67-2.93-.67-.13,0-.53,0-.67.13-.13-2.4-.67-4.66-1.07-7.06q.13-.13.27-.13c.13-.13.27-.27.53-.53h0l.53-.27.53-.67c.13-.27.13-.53.27-.8.13-.67.13-1.46-.13-2-.13-.53-.53-.93-.93-1.2-.53-.27-1.2-.8-1.86-.67h-.8c0-.13-.13-.27-.13-.67h.13c.93-.67,1.6-1.46,1.86-2.4.27-.93.13-2.13-.53-3.06-.13-.27-.53-.67-.8-.93-.13-.13-.27-.27-.53-.53-.13-.53-.27-.8-.67-1.07-.53-.53-.8-.67-1.46-.8.13.13.53.13.67.27-.27-.13-.67-.27-.8-.27h-.27.13-.13c-.8-.13-1.6-.13-2.13,0-.13-.27-.27-.67-.67-.93.27-.13.53-.53.67-.67,1.2-1.73,1.46-3.73-.27-5.19-1.46-1.07-2.93-.67-4.53.13-1.07-1.2-2.13-2.4-3.33-3.59.13-1.07-.13-2-1.2-2.8-.8-.67-1.73-.67-2.66-.53-.93-.67-1.86-1.46-2.8-2-1.2-.8-2.53-1.6-3.86-2.4.93-.53,1.86-.93,2.8-1.46,1.86-.93,2.53-3.46,1.73-5.33-.8-2-2.8-2.8-5.06-2.53-.67.13-1.07.13-1.73.27h-.13c-.27,0-.53,0-.8.13-1.2.13-2.53.13-3.73.13-2.53,0-4.79-.27-7.32-.27-1.6,0-2.93,1.07-3.46,2.4-.93-.27-2-.53-2.93-.67,1.86-1.73,3.73-3.59,5.73-5.33,2.4-2,4.79-3.99,7.32-6.12,1.2-.93,2.53-1.86,3.73-2.93.67-.53,1.46-.93,2-1.6.67-.67,1.07-1.46,1.6-2,1.46-2-.93-4.39-2.93-3.86-1.07.27-2.13.67-3.33,1.2-.13,0-.27-.13-.53-.13s-.8,0-1.07-.13h0c-3.59.13-7.19.13-10.65,0-2.53-.13-5.99-1.07-8.52-.53.13-.13.27-.27.53-.53.8-.67,1.6-1.46,2.13-2.13.67-.8,1.46-1.46,2-2.13.53-.53.93-1.07,1.2-1.6.13-.13.27-.53.53-.67v-.13h0c.93-.13,1.6-.53,2.4-.8,1.07-.53,1.73-2,1.6-3.33-.13-1.2-1.07-2.53-2.4-2.66-.67-.13-1.2-.27-1.86-.13-.53,0-.8.13-1.2.13-1.07.13-2.13.27-3.33.53-1.6.13-3.33.53-4.79.8-1.6.27-3.33.67-4.79,1.07-.67.13-1.2.27-1.73.67h-10.78c-2.8,0-5.59,0-8.25-.13-2.66,0-5.59-.27-8.25.27-1.2,0-2.4,0-3.59.13.13-.67.13-1.07.27-1.73.27-2.13.67-4.39.93-6.52,2-2.13,1.6-6.26-1.07-7.59-.93-1.07-2.66-1.46-3.86-.67-49.66-.27-99.32-.27-148.85,1.07-4.39.13-8.52.27-12.91.53h-.13c-1.07-.8-2.53-1.2-4.26-.67-.13,0-.27.13-.67.27-.8,0-1.6,0-2.4.13s-1.6.27-2.4.53c-2,.13-3.86.13-5.99.27-4.79.13-9.72.27-14.65.67-1.2,0-2.13.53-2.93,1.2-3.73-.13-7.46-.27-11.18-.67-.67,0-1.2.13-1.86.53-1.2-.93-3.06-.93-4.26.27-3.59,4.26-6.12,9.19-8.39,14.38-2.13,4.79-4.26,9.85-6.12,14.78-3.86,10.65-7.06,21.44-10.12,32.35-6.66,22.63-12.78,45.27-18.51,68.03-1.6,6.39-3.33,12.78-4.79,19.17-1.6,6.52-3.46,12.91-5.06,19.7-.27,1.73.13,3.06,1.07,3.99-8.79.93-17.31,2.13-26.1,3.06-10.78,1.2-21.57,2.53-32.35,3.73-21.57,2.53-43.14,5.19-64.57,7.59-6.12.8-12.12,1.46-18.24,2.13-5.99.67-12.52.93-18.24,2.66-3.73,1.07-2.8,6.26.93,6.52,2,.13,3.99,0,6.26-.13.13.53.53.8.93,1.07,2.13,1.6,4.66,2,7.19,2.66,2.66.67,5.33,1.2,7.86,1.86,5.06,1.2,9.85,2.66,14.78,3.99,9.99,2.93,19.84,6.39,29.56,9.85,19.31,7.06,38.74,14.65,58.18,21.57,5.46,1.86,10.92,3.73,16.51,5.46,2.8.93,5.59,1.73,8.52,2.66,2.66.8,5.19,1.6,7.86,1.86,2.13.93,4.39,1.73,6.39,2.66,4.66,1.86,9.32,3.59,14.11,5.46,4.53,1.73,8.92,3.59,13.45,4.79,4.53,1.46,9.32,1.6,14.11.93.27.13.8.27,1.2.27,3.06.13,6.52-.53,9.72-.93,3.2-.4,6.26-.93,9.59-1.46,6.26-.93,12.65-1.86,18.91-2.8,6.26-.93,12.52-2,18.51-3.46s11.85-3.46,17.84-5.19c11.58-3.46,23.3-6.26,35.15-8.39,11.72-2.4,23.57-4.26,35.15-7.06,6.52-1.6,13.05-3.46,19.57-5.73,2.13-.8,4.26-1.6,5.99-3.06h.13c1.73-.27,2.93-1.46,3.59-2.8.67-.13,1.2-.53,1.86-.67,1.86-.13,3.73-1.07,5.46-1.6,3.06-.93,6.26-2,9.32-2.93,1.46-.53,2.93-.8,4.39-1.2v2.4c0,3.86-.27,8.79,1.2,12.38.13.27.27.53.67.8-.8,1.07-.13,2.93,1.6,2.93,1.07,0,1.6-.8,1.73-1.6.27,0,.53.13.8.13,3.46,0,3.86-4.39,1.6-5.73,0,0,0-.13.13-.13.13-.27.13-.8,0-1.07,0-.27,0-.53-.13-.8-.13-.27-.27-.67-.67-.93-.13-.13-.27-.27-.67-.53q-.13,0-.27-.13c-.13-2-.13-3.99-.27-6.26v-3.06c9.05-2.53,18.11-4.66,27.29-6.66,25.56-5.59,51.39-9.85,76.96-15.18,14.51-3.06,29.02-6.39,43.27-10.65.13,0,.53-.13.67-.27.8,0,1.6-.13,2.4-.13,1.6-.13,3.46-.27,4.53-1.6.67-1.73.8-3.33-.27-4.39ZM159.69,190.38c-4.39.27-8.79.67-13.31.8h-.13c4.66-.53,9.32-.93,14.11-1.46-.4.27-.53.4-.67.67ZM332.37,14.77c-1.07-.8-2.4-1.2-3.73-1.73,7.32,0,14.65-.13,21.97-.13-5.86.67-12.12,1.33-18.24,1.86ZM482.56,39.93c-.13-.53-.13-.8-.27-1.2.53,0,.93.13,1.46.13-.4.53-.93.8-1.2,1.07Z"/>
  </g>
  <g id="Calque_1-2" data-name="Calque 1">
    <path class="cls-3" d="M360.73,206.72c-1.73-1.6-4.26-1.6-6.52-2-2.13-.27-4.39-.67-6.66-.93-4.39-.67-9.05-1.86-13.58-1.2-1.73.13-2.13,2.53-1.46,3.73-.13,0-.27,0-.53-.13-4.53-.93-9.05-1.86-13.71-2.8-9.19-1.86-18.24-3.46-27.43-5.19-18.37-3.33-36.88-6.26-55.25-9.19-4.79-.8-9.72-1.73-14.65-2.4-5.59-.67-11.05-1.07-16.64-1.86-.67-.13-.93.93-.27,1.07,4.53.8,9.05,2,13.58,2.93,4.53,1.07,9.05,1.86,13.71,2.66,9.32,1.73,18.51,3.46,27.96,5.19,18.24,3.46,36.48,7.06,54.99,10.65,5.19.93,10.25,1.86,15.44,2.93,2.66.53,5.19.93,7.86,1.46,2.66.53,5.19.27,7.86.67,1.46.13,1.6-1.86.27-2.4-.27-.13-.53-.13-.8-.27.53,0,.93.13,1.6.13,2.13.27,4.26.67,6.39,1.07,2.53.53,5.06,1.2,7.46.13,1.33-.53,1.6-3.2.4-4.26Z"/>
    <path class="cls-3" d="M146.64,238.54c-7.06-1.46-13.85-2.66-20.64-4.66-6.92-2-13.45-4.66-20.1-7.19s-13.45-5.33-20.24-7.32c-6.66-2-13.45-4.26-20.5-5.46,0,0,0-.13-.13-.13h-.13q-.13-.13-.27-.27c-.27-.27-.8-.53-1.07-.67,3.06,0,6.12-.8,9.19-1.46,4.53-.8,9.05-1.07,13.45-1.86,4.39-.67,8.52-1.6,12.91-2.4,2.13-.27,4.39-.8,6.39-1.07,2.4-.53,4.53-.67,6.92-1.46.8-.27.8-1.6-.13-1.6-3.99,0-8.25.93-12.38,1.73-4.53.8-8.92,1.2-13.45,2-4.39.8-8.79,1.86-13.05,2.53s-8.39.67-11.98,2.66c-.13.13-.13.27,0,.53-.27,0-.53.13-.8.13-.53.13-.53.93.13.93.53,0,.8.13,1.07.27.53.13.8.13,1.2.27h.13c.13,0,.27.13.27.13q.13,0,.27.13h.13c.13.13.27.13.67.27.27.13.53.27.8.27,0,0,.13,0,.13-.13,7.06,1.6,13.71,3.46,20.5,6.12,6.52,2.66,13.31,5.19,19.97,7.86,6.52,2.53,13.45,4.79,20.24,6.66,6.66,1.86,13.71,3.46,20.77,3.46,0,.4,0-.13-.27-.27Z"/>
    <path class="cls-3" d="M195.77,231.49c-3.06,0-6.39.93-9.32,1.6-3.46.67-6.92,1.6-10.25,2.13-6.66,1.2-13.58,1.86-20.24,2.93-.53,0-.27.67.13.67,6.92-.13,13.58-1.07,20.24-2.13,3.46-.53,6.66-.93,9.99-1.6s6.92-1.07,9.85-2.66c.4-.13,0-.93-.4-.93Z"/>
    <path class="cls-3" d="M354.08,220.84c-6.92.27-13.31,2.8-19.84,4.66-6.52,1.86-13.45,3.06-20.1,4.66-6.66,1.6-13.05,3.86-19.84,5.59-3.46.93-6.92,1.73-10.12,2.66-1.6.53-3.06.93-4.66,1.2-1.46.27-2.8.27-3.99.67-.13-.53-.53-.93-.93-1.07-5.99-1.73-12.38-2.53-18.24-3.86-6.26-1.46-12.38-3.33-18.51-4.66-5.19-1.2-10.25-2.53-15.31-3.86.8-.27,1.6-.67,2.53-.8,1.46-.53,2.8-1.07,4.26-1.73.27-.13.27-.53.27-.8-.13-.27-.53-.53-.8-.27-1.6.13-2.93.53-4.39.8-1.46.27-2.93.67-4.39,1.2-.27.13-.53.53-.53.8-5.73-1.6-11.45-3.46-17.04-5.19h0c-.27-.13-.67-.27-.93-.53-.27-.13-.67-.13-.93-.13.13,0,.27-.13.53-.13s.13-.13,0-.27c0-.13-.13-.13-.27,0-.27.13-.67.27-.93.53h-.53c-.67,0-1.2-.13-1.86-.13h-.13c.53-.27.67-1.07,0-1.2-3.46-1.6-7.46-2.4-11.05-3.06-3.99-.93-7.99-1.73-11.98-2.53-7.46-1.6-15.18-2.93-22.63-3.73-3.06-.53-6.26-.93-9.32-1.73-5.99-1.2-11.72-2.93-17.44-4.66-5.99-1.73-11.72-3.46-17.57-5.19-3.06-.93-6.12-1.73-9.19-2.66-2.8-.8-5.73-1.73-8.79-1.73-.13,0-.27,0-.53.13h0c-.13-.13-.27-.13-.53-.27-.13,0-.27-.13-.27-.13-.27-.13-.8-.27-1.07-.27,1.07-.13,2.13-.27,3.33-.53.8-.13,1.6-.27,2.4-.53.53-.13.8-.13,1.2-.27.53-.13.8-.27,1.2-.53.8-.27.27-1.6-.53-1.6-1.73,0-3.33.53-4.79,1.07-1.6.53-3.06.93-4.66,1.6-.53.13-.53.93.13.93h-.8c-.13,0-.13.13,0,.13.13.13.53.13.67.27.13.53.8.8,1.07.93.67.27,1.07.27,1.73.53h.93c.13,0,.53,0,.67.13,2.4,1.2,5.19,2,7.59,2.93,3.06.93,6.12,1.86,9.19,2.66,6.12,1.73,11.98,3.46,18.11,5.19,3.99,1.07,8.12,2,12.38,2.93,0,0,0,.13.13.13,2.4.8,4.66,1.6,7.06,2.13,2.53.67,5.19,1.2,7.59,1.86,4.79,1.2,9.85,2.8,14.65,3.99,4.66,1.2,9.59,2.8,14.25,4.26,4.79,1.46,9.59,3.33,14.38,3.86.67,0,.8-.8.27-1.07-4.39-2.13-9.19-3.06-13.85-4.39-4.79-1.46-9.85-2.53-14.65-3.86-4.66-1.2-9.59-2.53-14.38-3.73-1.46-.27-2.8-.8-4.26-1.07,2.93.53,5.73.93,8.79,1.07,5.73,1.6,11.58,2.8,17.31,3.99,3.86.8,7.59,1.73,11.58,2.4,3.06.67,6.39,1.46,9.59,1.6,0,.13.13.13.13.13.67.13,1.46.27,2,.53.67.13,1.2.53,1.86.67s1.2.53,2,.67h1.07c.13,0,.53-.13.67-.27,11.58,3.99,23.3,8.12,35.15,11.72,5.99,1.73,11.98,3.06,18.11,4.66,5.99,1.46,11.85,3.33,17.84,3.99,0,.27.27.67.8.67,1.73-.13,2.8-1.07,4.39-1.6,1.73-.53,3.46-.8,5.19-1.07,3.46-.8,6.92-1.73,10.12-2.53,6.92-1.73,13.71-2.8,20.64-4.66,6.66-1.86,13.45-3.99,20.24-5.46,6.52-1.46,13.45-2.13,19.57-5.33-.53-.93-.67-1.46-.93-1.46Z"/>
    <path class="cls-3" d="M217.74,195.94c-4.39-1.2-9.05-2.13-13.45-3.33-4.26-.93-8.39-2.13-12.65-3.33-8.79-2-17.44-4.26-26.23-6.26-.93-.13-1.2,1.2-.27,1.46,8.79,2,17.44,3.99,26.23,6.12,3.86.93,7.99,1.73,11.85,2.53-.27.13-.8.27-1.07.53-.53.13-.8.27-1.2.67-.27.13-.8.53-1.07.67-.27.27-.8.53-1.07.8-.27.27,0,.67.27.67.53,0,.8-.27,1.2-.53.53-.13.8-.27,1.2-.53s.8-.53,1.2-.67c.53-.13.8-.53,1.2-.67.27-.13.27-.53.13-.8h0c4.53,1.07,9.05,2.13,13.58,3.06.27.13.53-.4.13-.4Z"/>
    <path class="cls-3" d="M235.71,205.13c-2-.67-4.26-1.07-6.26-1.6q-.13,0-.27.13c-6.12-1.73-12.38-3.06-18.51-4.66-.27,0-.53.27-.13.53,7.46,2.13,15.18,4.39,22.77,5.99.13,0,.27-.13.27-.27.67.13,1.46.27,2,.53.27-.13.4-.67.13-.67Z"/>
    <path class="cls-3" d="M282.71,212.45c-1.73,0-3.46,0-5.19.27-.8.13-1.6.27-2.4.67h-.13c-7.59-1.6-15.31-3.06-22.9-4.66,0,0-.13.13,0,.13,7.46,1.6,15.18,3.06,22.63,4.66-.13.13-.53.13-.67.27-.27.13-.8.27-1.07.67-.13.27-.13.8.13.8h1.07c.53,0,.8-.13,1.2-.13.8-.13,1.6-.27,2.4-.53.27-.13.67-.13,1.07-.13.93.13,1.86.53,2.8.67.13,0,.13-.13,0-.13-.8-.13-1.6-.27-2.4-.53,1.07-.13,2-.27,3.06-.53,1.33,0,1.33-1.46.4-1.46Z"/>
    <path class="cls-3" d="M206.16,204.99c-3.99-1.73-8.52-2.53-12.91-3.59-4.66-1.2-9.32-2.53-13.85-3.99-4.53-1.46-8.92-2.93-13.45-4.39-2.13-.8-4.39-1.46-6.52-2.13-2.13-.8-4.39-1.86-6.66-1.73-.13,0-.27.27-.13.53,1.46,1.46,3.33,1.86,5.19,2.53,2.4.8,4.53,1.6,6.92,2.4,4.53,1.6,9.19,2.8,13.85,4.26,4.53,1.2,9.05,2.66,13.58,3.99,4.53,1.2,9.19,3.06,13.85,3.59.53-.13.8-1.33.13-1.46Z"/>
    <path class="cls-3" d="M257.15,220.44c-2.66-1.2-5.59-1.86-8.39-2.66-2.93-.8-5.99-1.46-8.92-2-6.12-1.2-12.12-2.13-18.24-2.93-.13,0-.27.27,0,.27,5.99.93,11.85,2.13,17.84,3.73,2.8.8,5.59,1.6,8.39,2.13,2.93.8,6.12,2,9.05,2.53.4,0,.8-.67.27-1.07Z"/>
    <path class="cls-3" d="M145.98,195.14c-1.6-.8-3.33-1.07-4.79-1.6s-3.33-.93-5.06-1.2c-3.33-.8-6.66-1.07-10.12-1.6-.67,0-.67.8-.13.93,3.33.8,6.52,1.73,9.99,2.53,1.6.27,3.33.8,4.79,1.07,1.73.27,3.33.8,5.06.93.53.27.93-.67.27-1.07Z"/>
    <path class="cls-3" d="M216.94,218.44c-5.59-1.6-11.05-2.93-16.64-4.53h.13c1.07-.27,2.13-.67,3.33-.93.67-.13.27-1.07-.27-.93-1.07.13-2.13.53-3.46.67-.53.13-1.07.13-1.73.27-.27.13-.53.13-.8.27-1.86-.53-3.73-.93-5.59-1.6-3.99-1.07-8.25-2.13-12.38-3.06-3.86-.93-8.12-2.53-12.12-2.13-.13,0-.13.13,0,.27,3.46,2.13,7.86,2.8,11.72,3.73,3.99.93,8.25,2,12.38,2.93,8.39,1.86,16.91,3.86,25.3,5.59.4-.13.53-.53.13-.53Z"/>
    <path class="cls-3" d="M268.2,229.89c-1.6-.8-3.46-1.2-5.19-1.86-1.73-.67-3.33-1.07-5.06-1.6-3.46-1.07-6.92-2.13-10.52-2.93-.8-.13-.93.8-.27,1.07,3.33,1.46,6.92,2.4,10.25,3.46,1.73.53,3.33,1.07,5.06,1.6s3.46,1.2,5.19,1.46c.8,0,.93-.93.53-1.2Z"/>
    <path class="cls-3" d="M311.6,215.78h-.4q-.13,0-.27.13t-.27.13c-7.46-2.4-15.31-3.99-22.9-5.99-3.86-.93-7.59-2-11.58-2.93-3.73-.93-7.46-2-11.45-2.4-.53,0-.53.67-.13.8,3.73,1.6,7.99,2.4,11.85,3.33,3.73.93,7.46,1.73,11.05,2.53,3.06.8,6.12,1.6,9.19,2.13-.8,0-1.73.27-2.53.53-.13,0-.53.13-.67.13s-.27.13-.67.27c-.53.13-.8.27-1.2.53-.27.13-.13.67.13.53.53,0,.93-.13,1.2-.13.13,0,.27,0,.53-.13.13,0,.53-.13.67-.13.8-.27,1.6-.67,2.4-.93.13-.13.13-.27,0-.53,3.99.93,7.99,1.86,11.98,2.66-.27.13-.67.13-.93.53l-.13.13s-.13,0-.13.13l-.27.27c-.13.13-.13.27-.13.53-.13.13,0,.67.27.67.13,0,.27.13.53.13h.67c.53,0,.93-.27,1.2-.67.27-.13.67-.27.93-.53.13-.13.27-.13.53-.27.13,0,.13-.13.27-.13l.27-.27.13-.13c.4-.27.27-.93-.13-.93Z"/>
    <path class="cls-3" d="M169.01,186.89c-.27,0-.67,0-.8.13-.27,0-.53.13-.8.13-.53.13-.93.27-1.46.27-.53.13-.93.27-1.46.53-.53.13-.93.27-1.46.67-.53.27-.27.93.27.93s1.07-.13,1.6-.13c.53-.13.93-.13,1.46-.27.53-.13.93-.27,1.46-.27.27,0,.53-.13.8-.13.27-.13.53-.13.8-.27.67-.67.27-1.73-.4-1.6Z"/>
    <path class="cls-3" d="M191.11,191.95c-.67.13-1.07.53-1.73.67l-.8.27c-.27.13-.53.27-.8.53-.27.13-.13.8.27.67.27-.13.67-.13.8-.27.27-.13.53-.27.8-.53.53-.27,1.07-.67,1.6-.93.27-.13,0-.4-.13-.4Z"/>
    <path class="cls-3" d="M241.84,201.13c-1.2.27-2.4.8-3.59,1.07-.67.13-1.07.27-1.73.67-.67.13-1.2.27-1.86.8-.27.13-.13.8.13.8.67,0,1.2-.27,1.86-.27.67-.13,1.2-.27,1.73-.53,1.2-.27,2.4-.8,3.59-1.07.93-.53.67-1.6-.13-1.46Z"/>
    <path class="cls-3" d="M252.09,206.06c-2-.53-4.26,0-5.73,1.46-.13.13.13.67.27.53,1.6-1.07,3.46-1.86,5.33-1.73.27.13.27-.27.13-.27Z"/>
    <path class="cls-3" d="M268.6,207.26c-.67-.13-1.2-.53-1.86-.53-.8,0-1.46,0-2.13.13s-1.2.27-1.86.53c-.27.13-.67.27-.93.53-.27.13-.67.53-.93.8-.27.27-.27.93,0,1.2.27.53.8.53,1.2.27.27-.13.53-.13.93-.27.27-.13.53-.27.8-.27.53-.13.93-.53,1.6-.67.53-.13,1.07-.13,1.6-.27.67,0,1.2-.13,1.73-.13.53-.13.53-1.07-.13-1.33Z"/>
    <path class="cls-3" d="M218.41,213.11c-.13-.27-.53-.67-.93-.53-.53.13-1.07.27-1.6.53-.27,0-.53.13-.8.13-.13,0-.27.13-.53.13s-.13,0-.27.13c-.13,0-.13.13-.27.13-.27.27-.13.8.27.93.13,0,.13.13.27.13h.27c.13,0,.27,0,.53-.13.27,0,.53-.13.8-.13.53-.13,1.07-.27,1.6-.53.53,0,.8-.53.67-.8Z"/>
    <path class="cls-3" d="M168.74,203.93c-1.6-.8-3.59-.8-5.33-1.07.53-.13.93-.27,1.46-.67.93-.27.27-1.86-.67-1.6-1.2.53-2.66.93-3.86,1.46-.13,0-.27.13-.53.13-.8-.13-1.6-.13-2.4-.27-3.86-.53-7.86-.8-11.85-1.2-.8-.13-.93,1.2-.13,1.46,3.46.67,6.92,1.46,10.52,2-.13.13-.13.53-.13.8,0,0,0,.13.13.27.27.27.67.67,1.07.53.8-.13,1.73-.53,2.53-.93,1.07.13,2.13.27,3.33.53,1.86.27,3.86.8,5.73.53.8-.4.93-1.73.13-2Z"/>
    <path class="cls-3" d="M142.38,200.47c-.67.13-1.2.53-2,.67-.27,0-.67.13-.93.13-.27.13-.67.13-.93.27-.67.13-1.2.53-1.86.67-.8.27-1.73.67-2,1.46-.13.27,0,.93.53,1.07.53.27.93.13,1.46,0,.27-.13.67-.27,1.07-.53.67-.27,1.2-.67,1.86-.93.27-.13.67-.27.93-.53s.53-.27.8-.67c.67-.53,1.2-.8,1.86-1.07.13.13-.13-.67-.8-.53Z"/>
    <path class="cls-3" d="M204.03,217.77c-.13-.13-.27-.27-.67-.13l-1.2.8h0l-.13-.13h-.8c-.13,0-.13.13-.13.13,0,.13.13.13.13.13h.53c-.13.13-.27.27-.67.53-.13.13-.13.27,0,.53s.27.13.53.13c.13-.13.53-.13.67-.27.13-.13.53-.27.67-.53l1.07-.8c0,.13.13,0,0-.4Z"/>
    <path class="cls-3" d="M256.62,228.43c-.13-.27-.67-.67-.93-.53-1.07.27-2,.67-3.06,1.07-.53.13-.93.53-1.46.67-.53.13-1.07.8-1.46,1.2s.13,1.07.67,1.07h.67c.27,0,.8-.13,1.07-.27.53-.13.93-.53,1.46-.67.93-.53,1.73-.93,2.66-1.6.4-.13.53-.67.4-.93Z"/>
    <path class="cls-3" d="M306.15,221.1h-1.73c-.13,0-.27.13-.27.13-.27.13-.53.13-.8.27-.27.13-.67.13-.93.53l-.67.53c-.27.13-.53.53-.53.8v.8c.27.67.8.8,1.46.67.27,0,.53-.13.8-.13s.67-.27.93-.53c.13-.13.53-.27.67-.27.27-.13.53-.27.8-.53.13-.13.27-.13.27-.27.13-.13.27-.27.27-.53h0l.13-.13c.4-.67,0-1.33-.4-1.33Z"/>
    <path class="cls-3" d="M292.43,222.97c-1.07-.67-2.53-1.2-3.73-1.73-1.2-.53-2.53-.8-3.73-1.07-2.53-.67-5.33-.93-7.86-.53-.53.13-.27.67,0,.8,2,.8,4.39,1.07,6.52,1.6-1.07.27-2.13.53-3.33.8-.67.13-1.07.27-1.73.53-.27.13-.67.13-.93.27-.27.13-.67.27-.93.53s-.53.67-.53.93c.13.27.53.67.8.67s.8,0,1.07-.13c.27,0,.67-.13.93-.27.67-.13,1.2-.53,1.86-.8,1.07-.53,2.4-.93,3.46-1.6.27-.13.27-.53.13-.8,1.07.27,2.13.67,3.33.8,1.2.27,2.53.67,3.73.93,1.07.27,1.46-.53.93-.93Z"/>
    <path class="cls-3" d="M360.2,220.04c-3.99-1.6-8.52-1.86-12.78-2.8-3.86-.8-7.99-1.6-11.85-2.53-8.25-1.73-16.38-3.46-24.63-5.06-.27,0-.53.53-.13.53l25.03,5.46c3.99.93,8.25,1.73,12.38,2.66,3.86.93,7.99,2.4,11.98,2.53.4,0,.53-.67,0-.8Z"/>
    <path class="cls-3" d="M297.49,249.46c-1.86,0-1.86,2.8,0,2.8s1.86-2.8,0-2.8Z"/>
    <path class="cls-3" d="M291.23,250.26c-1.86,0-1.86,2.8,0,2.8s1.86-2.8,0-2.8Z"/>
    <path class="cls-3" d="M286.44,253.59c0-.27-.13-.53-.53-.67l-.27-.27c-.27-.13-.53-.13-.8-.13h-.53c-.13,0-.27.13-.53.27s-.27.27-.27.53l-.27.27c-.13.13-.13.27-.13.53s0,.27.13.53c0,.13.13.13.27.27,0,.13.13.13.13.27.13.13.27.27.53.27.13.13.27.13.67.13.13,0,.53,0,.67-.13.13,0,.27-.13.53-.27.13-.13.27-.27.27-.53.13-.13.13-.27.13-.67,0-.13,0-.27,0-.4Z"/>
    <path class="cls-3" d="M325.32,243.2c-.13-.8-1.07-1.07-1.86-1.07-1.73.27-3.46.53-5.19.8-.8.13-1.6.27-2.53.67-.8.13-1.73.53-2.53.8-.67.27-.53,1.46.13,1.6.93.13,1.73.13,2.66.13s1.86-.13,2.8-.13c1.73-.27,3.46-.53,5.19-.8,1.2-.27,1.6-1.2,1.33-2Z"/>
    <path class="cls-3" d="M341.56,239.48c-.8-.13-1.6-.13-2.53-.13-.8,0-1.6.13-2.4.27-.8.13-1.46.27-2.13.67-.27.13-.8.27-1.07.53-.27.13-.53.13-.67.53h-.13c-.27.13-.27.8.13.67h1.07c.27,0,.8.13,1.07.13h4.13c.8,0,1.6,0,2.53-.13,1.2-.53,1.07-2.13,0-2.53Z"/>
    <path class="cls-3" d="M357.27,237.21c-.13-.27-.27-.53-.53-.8-.27-.13-.67-.27-.93-.27h-.67c-.67,0-1.07,0-1.6.13-.53.13-.8.27-1.2.27-.13,0-.53.13-.67.13-.27.13-.67.13-.8.53q-.13.13-.13.27c-.27.13-.53.53-.27.93,0,.53.27.8.67.8.27.13.67.27,1.07.27h.67c.53,0,.93,0,1.46-.13.27,0,.67,0,.93-.13.13,0,.53-.13.67-.13.27-.13.67-.27.8-.27.4-.4.93-1.07.53-1.6Z"/>
    <path class="cls-3" d="M211.22,179.43c-2.13-.67-4.53-.93-6.92-1.2-2.13-.27-4.26-.8-6.39-1.07-3.73-.67-7.46-1.2-11.45-1.86-.67-.67-1.46-.8-2.13-.27-1.46.67-1.46,2.4-.67,3.46.93,1.6,3.06,1.73,4.66,2,3.59.8,7.19,1.46,10.78,2,1.73.27,3.59.67,5.33,1.07,1.86.27,3.86.93,5.73.93,3.46.13,3.73-4.13,1.07-5.06Z"/>
    <path class="cls-3" d="M503.99,30.18c-1.46-.93-3.59-.93-5.19-1.07-1.86-.13-3.86-.13-5.73-.13s-3.73-.13-5.59-.13c-2,0-3.86.13-5.73.27-.93,0-1.2,1.6-.27,1.73,1.86.27,3.86.8,5.73.8,1.86.13,3.73.27,5.59.27,1.86.13,3.73.13,5.59.27,1.73,0,3.99.27,5.59-.67.67.13.53-.8,0-1.33Z"/>
    <path class="cls-3" d="M509.19,49.35c-.67-.67-1.46-.67-2.4-.67h-2.4c-1.6,0-3.06.13-4.53.27-3.06.13-6.12.67-9.19,1.6-.67.13-.8,1.2,0,1.46,3.06.67,6.12.67,9.19.53,1.6,0,3.06-.13,4.53-.27.8,0,1.6-.13,2.4-.13.8-.13,1.73,0,2.4-.8.4-.53.53-1.33,0-2Z"/>
    <path class="cls-3" d="M534.08,82.37c0-.13-.13-.27-.27-.53v-.13h0c-.13-.27-.27-.8-.67-1.07-.13-.27-.53-.67-.67-.8-.53-.67-.8-1.2-1.46-1.73-.13-.27-.53-.53-.67-.8-.13-.13-.13-.27-.27-.27-.13-.13-.27-.27-.53-.27l-.13-.13c-.13,0-.13-.13-.27-.13h0c-.13-.13-.53-.13-.67-.13h-.13c-.53-.27-.93.13-.8.67h0c-.13.27,0,.67,0,.93v.13c0,.13,0,.27.13.53,0,.13,0,.53.13.67,0,.13.13.27.13.27.13.27.27.67.53.8.27.67.67,1.07,1.07,1.6.53.67.8,1.2,1.46,1.73.67.53,1.07,1.2,2,1.2.27,0,.8-.13.93-.67.13-.27.13-.53.13-.8.13-.67.13-.8,0-1.07Z"/>
    <path class="cls-3" d="M538.08,100.88c-.27-.53-.67-.8-1.07-1.2-.8-.8-1.73-1.46-2.66-2-.93-.67-1.86-1.2-2.8-1.6-.27-.13-.53-.13-.8-.13s-.53-.13-.8-.27h-.53c.13,0-.13-.13-.13-.13-.27-.13-.53-.13-.8-.13s-.53.53-.27.8c.27.27.53.53.8.67.13.27.53.53.8.67.27.27.8.8,1.2,1.07.8.53,1.46,1.07,2,1.73.67.67,1.46,1.07,2.13,1.73.27.27.8.67,1.07.93.53.27.8.8,1.46.93.8.13,1.46-.53,1.2-1.2-.13-.93-.53-1.33-.8-1.86Z"/>
    <path class="cls-3" d="M433.29,183.69c6.52-3.33,13.31-6.12,20.24-8.12,8.39-2.4,17.18-3.73,25.7-4.39,19.04-1.07,38.08,1.6,56.85,4.79,10.78,1.86,21.44,4.26,32.35,5.33,1.2.13,1.6-2,.27-2.13-9.99-1.86-20.1-3.46-30.22-5.19-9.85-1.73-19.84-3.33-29.82-4.26-17.97-1.86-36.48-1.73-54.06,2.8-.67.13-1.46.27-2,.67,3.73-1.6,7.46-2.93,11.18-3.99,19.84-5.99,41.01-7.19,61.51-3.73,11.45,1.86,22.63,5.99,34.22,5.73.27.67.67,1.2,1.07,1.73.93,1.07,1.86,2,3.06,2.93.67.53,1.73,1.46,2.53,1.07.8-.27,1.2-.93,1.07-1.86-.13-.53-.53-.8-.8-.93,0,0-.13,0-.13-.13h-.13c-1.07-.8-2-1.73-2.93-2.66q-.13-.13-.27-.27c1.07-.13,2.13-.27,3.33-.53,1.73-.27,1.07-2.66-.53-2.93-6.92-.8-11.58-5.59-15.71-10.78-3.86-4.79-7.59-11.05-13.05-14.38,0-.13,0-.27-.13-.53h4.66c1.46,0,2.8.13,3.99.27.8,0,1.46.13,2.13.13s1.2.13,1.73-.13c0,0,0-.13.13-.13l.27.27c.13.13.27.53.67.67.27.27.8,0,.8-.27,0-.67-.13-1.46-.27-2-.27-.67-.67-1.07-.93-1.73-.8-1.07-1.6-2.13-2.4-3.06-.53-.67-1.6.13-1.07.8.8,1.07,1.46,2,2,3.33.13.53.53.93.67,1.2-.93-.53-2.4-.67-3.33-.8-1.46-.13-2.93-.27-4.39-.27h-4.39c-.8,0-1.46,0-2.13.13h-.93c-.27,0-.8.27-1.07.27-.67.13-.67.8-.13,1.07-25.56,1.6-52.32,4.66-76.16,14.25,1.6-.93,3.33-1.86,4.79-2.8,14.38-5.46,29.56-8.79,44.6-10.92,11.45-1.73,22.77-3.06,34.22-4.66.27,0,.27-.53,0-.27-10.25.53-20.64.93-30.76,2.13-9.99,1.2-20.1,2.8-29.96,5.33-.13,0-.53.13-.67.13,10.25-4.39,20.77-8.12,31.55-11.18,5.73-1.73,11.72-3.46,17.44-5.06,5.19-1.46,10.25-2.66,15.31-4.39-.13.27,0,.8.13,1.07v.13c0,.13.13.27.27.53.13.13.13.27.27.27h0c.27.27.53.8.8,1.07.53.8.93,1.6,1.46,2.4.13.13.13.27.27.67,0,.13.13.13.13.27h0c.13.53.27.93.53,1.2.13.53.27.93.27,1.46.13.8.53,1.46,1.07,1.86.8.53,1.73,0,2.13-.67.53-.67.27-1.6.13-2.13s-.13-.93-.27-1.46c-.27-1.07-.8-2-1.2-3.06-.53-.93-1.07-1.86-1.86-2.66-.27-.27-.67-.67-1.07-.93-.27-.13-.53-.53-.8-.67-.13-.13-.53-.13-.67-.13h0c.27-.13.67-.13.8-.27.27-.13.27-.67,0-.8.27-.13.27-.67.27-.93-.67-2.53-1.86-4.66-3.06-7.06-1.07-2.4-2.53-4.39-3.86-6.52-.27-.53-.93-.13-.93.27.53,2.66,1.2,5.06,2.4,7.46.53,1.2,1.07,2.4,1.73,3.59.67,1.2,1.46,2.13,2.13,3.06h.13c-10.65,1.07-21.04,4.39-31.15,7.32-10.52,2.93-20.64,6.39-30.62,10.65-6.39,2.66-12.78,5.59-19.04,8.92-3.33,1.07-6.39,2.4-9.59,3.73,7.86-6.39,16.11-12.38,24.5-17.84,8.92-5.59,18.11-10.25,27.43-15.18,2.93-1.6,6.12-2.53,9.05-3.86,2.66-1.07,5.19-2.66,7.86-3.46,2.8-.8,5.46-1.6,8.12-2.66,2.93-1.07,5.59-2.53,8.52-3.59.27-.13.13-.53-.13-.53-5.19,1.6-10.12,2.53-15.04,4.79-4.66,2.4-9.59,3.99-14.25,6.39s-9.72,4.53-14.51,6.92c-4.79,2.4-9.32,5.19-13.98,7.86-12.52,7.32-24.36,15.44-35.42,24.5-3.59,1.86-7.06,3.73-10.25,5.99,1.86-2,3.73-3.99,5.73-6.12,8.52-8.79,17.57-16.91,27.16-24.36,4.79-3.86,9.72-7.99,14.65-11.58,5.06-3.59,10.25-7.06,15.44-10.52,2.8-1.86,5.73-3.46,8.92-5.06,2.93-1.6,5.99-3.33,8.92-5.06,5.99-3.33,12.12-6.39,17.44-10.65v-.13h.13c.27.13.53.13.8.13s.8.13,1.07.13c.8,0,1.2-.53,1.46-1.2.13-.8-.27-1.46-1.07-1.6-.53-.13-.93-.27-1.46-.53-.27,0-.53-.13-.8-.13-.13,0-.13-.13-.27-.13,0,0-.27-.13-.13-.13h-.13c-.13,0-.13-.13-.27-.13-.13-.13-.27-.13-.67-.27q-.53,0-.13,0h-.13c-.13,0-.13-.13-.27-.13h0c-.13,0-.13-.13-.27-.13-.13-.13-.27-.13-.67-.13-.67-.67-1.6.27-.93.93h0c0,.13,0,.27.13.53.13.13.27.27.27.53l.13.13h0c0,.13.27.27.27.53l.13.13h0c0,.13.13.13.13.27.13.13.27.13.53.27.13.13.53.27.67.53,0,0,.13,0,.13.13-5.46,1.86-10.65,5.06-15.71,7.99-2.66,1.6-5.33,3.06-7.86,4.66-2.66,1.73-5.19,3.73-7.86,5.46-5.19,3.46-10.52,6.52-15.58,9.99-5.19,3.59-10.52,7.06-15.44,10.78-16.64,12.65-32.35,27.03-45.53,43.14-.67.53-1.2,1.07-2,1.6,5.06-7.46,10.25-14.65,15.98-21.7,1.6-1.86,2.93-3.59,4.53-5.46,15.58-16.24,33.15-30.62,52.46-42.34,5.46-3.33,11.05-6.39,16.91-9.19,5.73-2.93,11.58-5.99,17.31-8.92.13-.13,0-.53-.13-.53-5.46,1.73-10.78,3.59-15.98,6.12-5.33,2.66-10.65,5.46-15.71,8.39-9.99,5.73-19.7,12.38-28.76,19.31-1.46,1.07-2.93,2.4-4.39,3.46,8.79-8.52,18.11-16.91,27.96-24.36,5.59-4.26,11.45-8.39,17.18-12.38,5.73-3.86,11.85-7.46,17.31-11.85.53-.27,0-1.2-.67-1.07-5.59,2.4-10.92,5.73-16.11,9.05-5.46,3.46-10.78,7.19-15.98,11.05-10.12,7.59-19.84,15.98-29.16,24.5-5.46,5.06-10.65,10.25-15.58,15.71,11.85-14.51,24.76-28.36,38.74-41.14,5.33-5.06,10.78-9.85,16.38-14.51,3.06-2.66,6.26-5.19,9.32-7.86.13.13.27.13.53.13.93.13,1.86.53,2.66.67.93.13,1.86.27,2.8.53.93.13,1.86.27,2.8.53,1.07.13,2.13.53,3.33.13,1.07-.27,1.2-1.73.27-2.4-.8-.67-1.86-.67-2.8-.8s-1.86-.27-2.93-.53c-.93-.13-2-.27-2.93-.53h-1.2c1.46-1.2,2.93-2.66,4.39-3.86.8-.13,1.73-.27,2.53-.67.8-.53.67-1.86-.27-2-1.6-.27-3.46,0-5.19,0-1.86.13-3.59.13-5.46.27-1.73.13-3.46.13-5.19.13-.93,0-1.73.13-2.66.27-.27,0-.53,0-.8.13.53-.53.93-.93,1.46-1.2,2.66-2.53,5.19-5.06,7.86-7.46.13-.13,0-.27-.13-.13-2.53,1.6-5.06,3.06-7.32,5.06-2.53,1.86-5.06,3.86-7.32,5.99-5.06,4.26-9.72,8.39-14.38,12.91-9.19,8.79-17.84,18.11-26.1,27.83-16.51,19.17-31.02,40.08-43.4,62.31-1.86,3.46-3.73,6.66-5.59,10.25,2-5.59,4.26-11.18,6.52-16.64,4.79-11.58,10.25-22.77,16.38-33.68,12.12-21.84,27.03-42.47,43.8-60.98,4.66-5.33,9.72-10.52,14.65-15.44,2.53-2.53,5.06-4.79,7.32-7.32,2.53-2.53,5.06-5.33,7.46-7.86.13-.13,0-.67-.27-.53-5.06,3.73-9.85,7.46-14.38,11.72-4.66,4.39-9.19,8.92-13.58,13.45-8.52,9.19-16.64,18.91-24.23,29.02-13.05,17.57-24.5,36.48-34.08,56.19,2.53-6.39,4.53-12.91,7.06-19.31,3.59-9.72,7.46-19.31,11.72-28.76,8.39-18.77,18.37-36.61,31.02-52.86,6.92-8.92,14.51-17.31,22.77-25.03h.13c.27-.13.53-.27.27-.67,0-.53-.67-.93-1.07-.67h-.13c-3.99-.27-8.25.13-12.38.27-4.26.13-8.39.27-12.65.53-4.26.13-8.39.13-12.65,0-3.99-.13-8.12-.27-12.12,0,0-.13,0-.27.13-.53.93-4.66,3.59-13.71-2.53-16.24-.27-.13-.67,0-.8.13-.27-.13-.67-.53-1.07-.53-14.38-.27-28.76.13-42.87.27-14.11.13-28.09.27-42.21.67-28.09.53-56.19-.27-84.28.93-7.86.27-15.44.8-23.03,1.73-3.73.53-7.59.8-11.45,1.46-.67.53-1.2.67-2,.93q-.13-.13-.27-.27c-5.46-3.33-11.85.67-14.78,5.46-1.73,2.8-2.8,6.12-3.86,9.32-1.2,3.86-2.66,7.86-3.86,11.72-5.19,15.58-10.78,30.89-15.44,46.47-1.46,4.53-2.53,9.05-3.59,13.58-.13.67-.27,1.2-.53,1.73-.93,2.4-1.73,4.79-2.4,7.32-.53,1.2-.8,2.66-1.2,3.86-.13.67-.27,1.2-.53,1.86-.13.67-.53,1.07-.53,1.73,0,.13-.13.27-.13.53s.27.67.67.27h.13c-1.86,6.52-3.73,13.31-5.59,19.84-1.6,5.73-2.93,11.58-4.53,17.18-.8,2.93-1.73,5.99-2.66,8.92-.93,2.8-2,5.46-2.4,8.39-.13,1.07,1.6,1.6,2,.67.93-2.4,1.2-4.53,1.73-6.92.67-2.8,1.07-5.59,1.86-8.25,1.46-5.19,2.93-10.25,4.39-15.44,2.66-9.05,5.33-18.11,8.12-27.16-.53,0-.93-.13-1.6-.13.13-.27.13-.67.27-.93,0,.13,0,.27-.13.53,0,.27.27.27.27.13.93-3.59,2.13-7.06,3.33-10.65.93-3.59,2-7.19,3.06-10.65,2.13-7.06,4.39-14.25,6.52-21.17,4.53-14.25,9.85-28.23,15.04-42.34,1.2-3.46,2.4-7.19,4.53-10.12,1.86-2.53,5.06-4.26,7.99-3.73.13.13.13.53.27.67.53,0,1.07,0,1.6-.13.67.27,1.07.13,1.46-.13h1.2c3.73-.27,7.32-.93,11.05-1.2,6.92-.8,13.71-1.2,20.64-1.73,13.71-.8,27.43-1.07,41.41-1.07,28.09-.27,56.05-.13,84.15-.13,16.11,0,32.09.27,48.2-.13.93,0,1.46-.67,1.46-1.46,2.4,1.86,2.13,5.46,1.86,8.25-.53,3.46-1.46,6.92-2.13,10.25-1.6,7.32-3.33,14.65-5.06,21.97-3.59,14.78-7.59,29.42-11.58,44.07-7.99,29.02-16.51,58.05-22.5,87.74-1.73,8.25-3.06,16.64-4.39,25.03-.67,3.99-1.07,8.12-1.6,12.38-.53,3.86-1.07,7.86-1.46,11.58,0-.13-.13-.27-.13-.27-.27-.8-1.2-.8-1.73-.27,0-1.46-1.46-2.8-3.06-2-11.05,5.19-23.57,7.19-35.28,9.72-12.78,2.66-25.56,5.19-38.21,8.25-12.38,2.93-24.63,6.39-36.61,10.52-11.85,3.99-23.57,8.92-35.55,12.12-11.98,3.33-24.76,4.79-37.28,2.66s-24.76-6.92-36.61-11.18c-12.65-4.66-25.56-8.39-38.34-12.65-12.52-3.99-25.03-8.39-37.81-11.58-7.32-1.86-14.51-4.79-21.57-7.32-3.59-1.2-7.06-2.8-10.78-3.86-3.33-.93-6.92-1.86-10.12-2.93-7.19-2.53-14.38-4.79-21.7-7.32-3.59-1.2-7.19-2.53-10.78-3.73-1.2-.53-6.52-1.86-7.59-3.86,4.53-.13,9.05-.93,13.58-1.6,5.06-.67,10.12-1.2,15.18-2,10.65-1.46,21.17-3.33,31.82-4.66,20.64-2.8,41.41-6.12,62.18-7.59,11.72-.93,23.43-2.13,35.02-3.73.13.13.27.53.67.53,5.33,1.2,10.65,2.13,16.11,2.8,2.8.27,5.59.8,8.52,1.46,2.53.53,5.19,1.2,7.86,1.46q.13,0,.13-.13c1.86.67,3.73,1.2,5.73,1.73,2.4.67,4.53,1.07,6.92,1.73,4.26.93,8.52,2,12.78,2.93,8.79,2,17.44,3.99,26.23,5.59,17.57,3.33,35.15,8.39,52.86,11.45.27,0,.53-.27.13-.53-17.31-5.06-35.15-7.86-52.59-12.38-8.52-2.4-17.31-4.26-26.1-6.12-4.39-.93-8.52-1.86-12.91-2.8-4.66-1.07-9.19-1.73-13.85-2.53-.13,0-.27.13-.53.27-2.13-.67-4.66-1.07-6.92-1.6-2.66-.53-5.33-1.07-7.99-1.86-4.53-1.46-9.05-2.4-13.71-3.33.27-.67.53-1.2.67-1.86.67.27,1.46.67,2.13.8,1.6.27,3.06.8,4.66.93,1.73,0,3.33.27,4.79.67,1.6.27,3.06.67,4.66.8.27,0,.27-.53,0-.67-1.6-.67-3.33-.93-4.79-1.46-1.6-.53-2.93-.93-4.39-1.73-1.46-.67-2.93-.93-4.39-1.2-.8-.13-1.6-.27-2.4-.27.13-.93.27-2,.53-2.93.67-2.53,1.46-5.19,2-7.59,0-.13-.13-.13-.27,0-.93,2.53-1.73,4.79-2.66,7.32-.13.67-.53,1.2-.8,1.86l-.8,1.6h-.27c-.67,0-.67.8-.13.93h0c-.13.53-.27.8-.53,1.2-.13-.67-.8-1.07-1.73-1.07-20.9,2.53-41.67,6.26-62.58,8.92-20.9,2.66-41.67,5.06-62.58,7.86-5.59.8-11.18,1.6-16.91,2.4-5.19.8-10.52,1.2-15.58,2.4-.13-.93-1.46-1.46-2-.53-.27.53-.53.8-.67,1.2-.27.27-.27.8-.13,1.07,0,.27.13.53.13.8-.53,1.73.53,3.73,2,5.06,1.46,1.07,2.93,1.73,4.53,2.13,2.53.8,5.06,1.6,7.46,2.13,4.66,1.46,9.59,2.8,14.25,4.26,2.53.8,5.06,1.46,7.46,2.13,2.4.67,4.66,1.73,7.19,1.73.27,0,.67-.13.8-.27,6.92,2.8,13.71,5.59,20.64,8.25,3.86,1.46,7.59,2.93,11.58,4.39,3.46,1.2,6.92,2.8,10.52,3.46,2.8,1.46,5.73,2.53,8.92,3.46,3.59,1.07,7.32,2.4,10.92,3.59,7.32,2.4,14.65,4.66,21.84,7.19,14.51,5.06,28.89,10.52,43.27,15.71,3.99,1.6,8.25,2.93,12.38,4.66,3.99,1.6,8.12,3.73,12.38,4.79.67.13,1.07-.27,1.07-.8,4.66.67,9.59,1.2,14.25,1.46,5.46.13,10.78-.53,16.11-1.07,5.19-.67,10.12-1.46,15.18-2.53,3.33-.67,6.92-1.07,10.25-2,0,.53.53.93,1.2.8,9.85-2.8,19.31-6.66,29.16-9.32,9.85-2.66,19.84-5.33,29.69-7.86,9.99-2.4,19.97-4.53,29.96-6.39,9.85-1.73,19.7-2.93,29.56-4.79,4.39-.8,8.52-2.4,11.45-5.99.8-.93,1.46-2,1.86-3.06.27.27.8.67,1.2.27,1.86-.93,3.73-1.86,5.73-2.53s3.99-.93,6.12-1.07c.53,0,.8-.27,1.07-.8h.13c.53-.13.93-.27,1.46-.53.93-.27,1.86-.67,2.93-.93.27-.13.53-.27.67-.53.13,7.86.13,15.58,0,23.3,0,1.86,2.8,2,3.06.27.53,0,.93-.13,1.2-.67.27-.8.8-1.46,1.07-2.13.27-.67.53-1.2.67-1.86.13-.8.53-1.6.8-2.4.13.13.53.27.67.13h0c.53.27,1.2.27,1.73.53.67.13,1.2.27,1.86.53q.13,0,.27.13c.13.93.53,1.73.67,2.66.53,2,3.59,1.07,3.06-.8,0-.13,0-.27-.13-.27.27-.13.67-.67.53-1.07,0-.53-.27-.8-.67-1.07-.13-.13-.13-.27-.27-.27-.13-.13,0,0,0,0q-.13-.13-.27-.27c-2.53-9.19-4.26-18.51-4.26-28.09,0-1.86.13-3.73.13-5.59,2.93-1.73,5.59-3.73,8.79-5.19,4.26-2,8.39-3.73,12.91-5.19,8.92-2.8,18.11-4.39,27.29-5.33,9.72-1.07,19.57-1.6,29.29-2.4,10.92-.8,21.84-1.6,32.75-2.4,12.38-.93,24.63-1.2,36.88-3.59.67-.13.53-.93-.13-.93h-4.39c1.07-.13,2-.53,3.06-.8.67-.13.53-1.2-.13-1.2-5.19-.27-10.52.27-15.58.67-5.19.27-10.52.67-15.58.67-10.52.27-20.9-.13-31.42,0-18.77,0-37.95.93-56.19,5.33-5.06,1.2-9.85,2.66-14.65,4.39-4.26,1.6-8.79,3.33-12.65,5.59-.13-2.13-.27-4.53-.93-6.66.93,0,1.73.13,2.53.27,3.46-2.8,7.19-5.59,10.92-8.25ZM372.85,238.68c-9.32,1.2-18.51,2.8-27.83,4.66-18.51,3.59-37.15,7.86-55.12,13.45-8.52,2.8-17.44,5.19-25.96,8.25-.13-.13-.27-.27-.67-.27-4.79,0-9.85,1.6-14.65,2.53-5.33,1.07-10.78,2-16.11,2.66-10.12,1.2-20.77,2.4-30.89,1.2-2.93-1.6-6.26-2.66-9.32-3.86-3.73-1.46-7.32-2.93-11.05-4.39-7.06-2.93-14.38-5.59-21.57-8.25-14.51-5.33-29.16-10.25-43.8-15.31-3.99-1.46-8.12-2.66-12.12-3.86-3.33-1.07-6.52-2-9.99-2.66l-.13-.13c-3.33-2-7.19-3.33-10.78-4.53-2.53-.93-5.19-1.86-7.59-2.8,5.73,1.73,11.45,3.33,17.04,5.46,6.52,2.66,13.31,4.66,19.84,7.06,13.31,4.79,26.63,9.05,39.94,13.45,6.52,2.13,13.05,4.26,19.7,6.12,6.39,1.86,12.65,3.99,18.91,5.99,6.26,1.86,12.65,3.46,19.17,4.53,6.26,1.07,12.65.8,18.91,0,12.52-1.6,24.5-5.99,36.35-10.12,12.65-4.53,25.43-8.79,38.34-12.12,14.51-3.86,29.16-7.06,44.07-9.85,14.25-2.8,28.36-3.99,41.54-10.65.13-.13.27-.13.53-.27v.13c2,9.72-9.59,12.65-16.78,13.58ZM433.29,195.01c4.26-1.73,8.39-2.93,12.78-4.26,9.05-2.53,18.24-3.99,27.43-5.06,19.7-1.86,39.68-1.07,59.51-1.07h10.52c-3.06.27-6.12.67-9.19.8-11.05.93-22.1,1.86-33.15,2.66-19.04,1.46-38.88,2.4-57.25,7.32-4.79,1.2-9.72,2.93-14.38,5.19-2.8,1.2-5.99,2.66-8.52,4.53v-4.53c3.99-1.73,7.99-3.86,12.25-5.59ZM402.14,179.3c2.93-15.18,6.39-30.22,10.12-45.27,7.46-30.22,16.38-60.05,23.57-90.54,1.86-7.99,3.59-16.11,5.19-24.23,3.73.67,7.59.67,11.45.67h13.58c4.39,0,8.79-.13,13.05-.13,3.33-.13,6.66-.13,9.99-.67-15.18,12.52-27.43,27.83-37.15,44.6-10.52,17.97-19.17,36.61-26.89,56.05-4.39,10.92-9.05,22.1-11.72,33.55-.13.8.67,1.46,1.2,1.2-2.8,6.39-5.46,12.78-7.86,19.31-2.4,6.39-5.46,13.45-6.12,20.24v.27c-.8,1.73-1.46,3.33-2,5.06,1.07-6.52,2.26-13.45,3.59-20.1ZM409.33,223.37c-.93.27-2,.53-2.93.8-.53.13-.93.27-1.46.53-.27.13-.67.13-.93.27-.27.13-.53.27-.67.53-.13.13-.27.27-.53.67-1.73,0-3.59.53-5.19.93-2,.67-3.86,1.73-5.59,3.06.13-.8.27-1.73.27-2.53,1.2.8,3.33.13,3.59-1.73.27-3.33.53-6.66.8-9.99,0-.13.13-.13.13-.27h.27c.53.93,2.13,1.46,2.8.13,3.46-6.39,6.92-12.65,10.65-18.91-.27,3.99,0,8.25,0,12.38,0,4.39.13,8.79.13,13.05v1.6c-.27-.53-.8-.67-1.33-.53ZM410,182.89c1.73-3.59,3.59-7.06,5.46-10.65,5.99-11.05,12.52-21.84,19.57-32.35,13.85-20.77,29.82-40.61,47.66-58.05,5.06-5.06,10.12-9.72,15.31-14.51,1.46-1.46,2.93-2.66,4.53-3.99h0c.53.13.93.53,1.46.53.27,0,.8.13,1.07.13.93.13,1.86.27,2.8.27,1.73.13,3.46,0,5.19,0,1.46,0,2.8-.13,3.99-.27-9.85,6.26-18.51,14.38-27.16,22.1-9.72,8.79-18.91,18.11-27.56,27.83-15.31,16.64-29.16,34.62-41.67,53.66-.27.27-.53.67-.8.93-3.2,4.53-6.52,9.32-9.85,14.38ZM421.18,240.54c-.13,0-.27-.13-.53-.13-.53-.13-1.07-.13-1.6,0-.13,0-.27,0-.53.13-.13,0-.27.13-.53.27h-.13c0-.67-.53-1.2-1.07-1.46-.67-.13-1.46.13-1.73.8-.53.93-.8,2-1.07,3.06,0-7.06,0-14.25-.13-21.17-.13-4.53-.13-9.05-.27-13.58-.13-4.39-.13-8.92-.93-13.31,0-.13-.13-.27-.27-.53,1.46-1.6,2.8-3.33,4.39-4.79.27,1.6.8,2.93,1.07,4.53.53,2.53.67,5.06.67,7.59,0,1.86,0,3.73-.13,5.59-.53.53-.93.93-1.2,1.46-.67.8.13,1.73,1.07,1.46h.13c0,2-.13,3.99,0,6.12-.4,7.86,1.07,15.84,2.8,23.97ZM419.45,190.48c0-.13-.13-.27-.13-.53h0c.53.13.8-.53.53-.8-.53-.53-1.07-1.07-1.6-1.6,3.86-4.39,8.12-8.79,12.52-12.65,2.66-2.4,5.46-4.66,8.25-6.92.93-.67,1.73-1.2,2.66-1.73,17.57-10.65,37.41-16.64,57.78-19.84,11.98-1.86,24.23-2.93,36.35-3.59v.13c2.4,2.8,4.66,5.46,7.06,8.39,2.4,2.8,4.53,5.99,6.92,8.52,2.66,3.06,5.73,6.12,9.32,7.99h0c-10.78.13-21.57-3.73-31.95-5.73-10.25-2-20.77-2.66-31.15-2.13-20.64.93-41.41,6.52-59.11,17.18-6.52,4.13-12.38,8.39-17.44,13.31Z"/>
    <path class="cls-3" d="M578.95,182.76c-.93-.27-2-.53-3.06-.67-.67-.13-1.07-.13-1.73-.13h-.8c-.27,0-.53,0-.8.13h-.27c-.67,0-.8.8-.27,1.07.13,0,.13.13.27.13.13.13.27.27.53.53.13.13.53.27.8.27.13,0,.27.13.53.13h.27c.27.13.67.27.93.27.93.27,2,.67,2.93.93.8.13,1.6-.13,1.86-1.07,0-.53-.4-1.33-1.2-1.6Z"/>
    <path class="cls-3" d="M577.89,185.95c-5.06.27-9.99,1.86-14.78,2.93-5.06,1.07-9.99,2.13-15.04,3.59-9.85,2.66-19.97,4.53-29.96,7.06-20.1,5.06-40.21,9.19-60.58,13.71-5.73,1.2-11.45,2.66-17.18,3.99-5.73,1.46-11.45,2.66-17.04,4.53-.53.13-.53.93.13.93,10.12-1.07,20.1-3.86,29.96-6.12,9.99-2.4,19.97-4.53,29.96-7.19,9.99-2.66,20.24-4.66,30.49-6.92,9.99-2.13,19.97-4.53,30.09-6.92,5.73-1.46,11.45-2.53,17.18-3.73,2.66-.67,5.46-1.2,8.12-1.86,2.93-.8,6.12-1.2,8.92-2.53.8-.13.8-1.6-.27-1.46Z"/>
    <path class="cls-3" d="M427.44,14.74c-.27.27-.53.8-.67,1.07-.13-.67-.67-1.2-1.6-1.2-54.06-2.93-108.38-2-162.17,1.46-7.46.53-15.18.93-22.63,1.6-7.46.67-15.44.67-22.77,2.93-.27-.13-.8,0-1.07.27-1.07,1.6-1.46,3.33-1.73,5.19-.67,2.4-1.07,4.53-1.73,6.92-.93,3.99-2,8.25-2.93,12.38-2,8.39-3.99,16.64-6.12,25.16-3.99,16.91-8.25,33.68-12.65,50.59-1.2,4.66-2.4,9.32-3.59,14.11s-2.8,9.72-3.59,14.51c-.27,1.73,1.46,2.66,2.66,2h.13c6.12,1.86,12.65,2.53,19.04,3.33,6.66.93,13.58,1.73,20.24,2.66,13.05,1.86,26.1,3.73,39.01,5.73,26.1,3.99,51.92,8.52,77.89,13.58,7.19,1.46,14.51,2.8,21.7,4.26,6.39,1.2,12.65,2.8,19.04,3.86-.13.53-.13.8-.27,1.2-.27,2.4,2.93,4.39,4.26,1.73,2.66-5.19,3.86-11.18,5.06-17.04,1.2-5.59,2.66-11.05,3.86-16.64,2.66-11.18,4.79-22.63,7.06-33.82,4.53-22.77,8.79-45.53,14.51-68.03,1.6-6.26,3.46-12.52,5.33-18.77.93-2.93,1.86-5.99,2.8-8.92,1.07-3.06,2.4-6.12,2.53-9.19.4-1.46-1.2-1.46-1.6-.93ZM420.91,30.58c-1.86,5.46-3.46,11.05-5.06,16.64-2.93,10.92-5.59,21.97-7.99,33.29-4.66,22.63-8.79,45.4-14.11,67.9-1.46,6.39-2.93,12.65-4.79,18.91-1.46,4.79-3.46,9.72-4.79,14.65-5.46-1.2-10.92-2.13-16.38-3.33-6.52-1.2-13.05-2.53-19.7-3.73-13.05-2.53-26.23-4.79-39.28-7.06-25.96-4.39-51.92-8.79-78.02-12.52-7.46-1.07-14.78-2.4-22.37-3.33-7.06-.93-14.25-2.4-21.44-2h0c1.46-3.99,2.13-8.52,3.33-12.78,1.07-4.26,2-8.52,3.06-12.78,2-8.39,3.86-16.91,5.99-25.16,3.86-16.91,8.12-33.82,12.12-50.73,1.07-4.79,2.4-9.72,3.46-14.51.53-2.4,1.07-4.53,1.6-6.92.53-2,1.07-3.86.93-5.99,6.66.8,13.71-.27,20.64-.93,6.66-.67,13.31-1.07,19.97-1.6,13.45-.93,26.63-1.73,40.08-2.13,27.03-1.07,54.19-1.2,81.22-.8,15.18.27,30.22.93,45.4,1.73h.53c-.67,1.46-1.07,2.8-1.73,4.39-.53,3.06-1.73,5.99-2.66,8.79Z"/>
  </g>
  <g>
    <path class="cls-1" d="M263.72,107.33c.13-.46.24-.91.32-1.37.16-1.06-.43-1.89-1.47-1.97s-1.95.63-2.3,1.68c-.13.45-.24.91-.32,1.36-.17,1.09.41,1.92,1.46,2s1.99-.62,2.32-1.7h0ZM258.97,107.04c.09-.51.21-1.02.36-1.53.46-1.49,1.91-2.6,3.46-2.48s2.5,1.4,2.26,2.93c-.09.52-.21,1.03-.35,1.55-.47,1.54-1.96,2.61-3.51,2.48s-2.45-1.39-2.21-2.94h0Z"/>
    <path class="cls-1" d="M270.81,105.9l-.88,3.87c-.04.17-.12.28-.26.36-.33.18-1.11.5-2.12.41-1.29-.11-1.95-.92-1.65-2.22l.62-2.7c.07-.29.29-.5.6-.48.29.02.43.27.37.55l-.61,2.67c-.16.69.21,1.13.92,1.19.55.05.99-.09,1.25-.22l.8-3.49c.07-.29.31-.47.6-.45.24-.01.42.24.36.5h0Z"/>
    <path class="cls-1" d="M273.6,104.91l-.17.75,1.4.11c.26.02.42.24.36.5-.05.23-.33.42-.57.4l-1.4-.11-.6,2.64c-.11.49.02.83.57.87.23.02.44,0,.7-.06.06-.02.15-.02.21-.01.26.02.39.24.34.47-.05.2-.2.34-.42.41-.29.09-.69.15-1.1.12-1.16-.1-1.49-.89-1.28-1.82l.98-4.31c.07-.29.32-.5.61-.48.27,0,.42.24.35.53h0Z"/>
    <path class="cls-1" d="M277.51,106.42l-.97,4.28c-.07.29-.32.48-.61.45s-.45-.25-.39-.54l.97-4.28c.07-.29.32-.48.61-.46.26.02.45.27.39.53h0ZM277.97,104.65c-.07.32-.4.56-.72.54s-.5-.3-.43-.62.36-.53.68-.51.53.3.46.6h0Z"/>
    <path class="cls-1" d="M280.56,104.84l-1.36,6.08c-.07.29-.32.48-.62.46-.27-.02-.45-.28-.39-.54l1.36-6.07c.07-.29.32-.51.62-.49.27.02.45.27.39.56h0Z"/>
    <path class="cls-1" d="M286.72,105.3l2.11,5.63h.03c.16-1.01.56-2.82.83-4.03l.29-1.33c.07-.3.36-.51.63-.49.3.02.47.27.4.57l-1.28,5.78c-.1.45-.49.84-1.04.79-.43-.04-.62-.26-.76-.64l-2.08-5.57h-.03c-.14.88-.47,2.39-.71,3.48l-.41,1.86c-.07.3-.29.49-.62.46-.3-.03-.46-.28-.4-.54l1.26-5.65c.11-.5.53-.86,1.04-.82.39.03.64.17.74.5h0Z"/>
    <path class="cls-1" d="M296.98,107.92l-.88,4.01c-.04.18-.13.29-.27.37-.36.18-1.18.51-2.26.42-1.38-.12-2.1-.97-1.81-2.3l.62-2.79c.07-.3.3-.52.64-.49.28.02.47.28.4.58l-.61,2.77c-.16.72.24,1.17,1.01,1.24.59.05,1.06-.1,1.34-.22l.79-3.62c.07-.3.33-.49.64-.47.25-.01.45.25.39.52h0Z"/>
    <path class="cls-1" d="M305.92,110.11l-.64,2.97c-.07.3-.33.5-.65.47s-.49-.26-.43-.56l.63-2.91c.16-.73-.11-1.15-.87-1.2-.47-.04-.93.14-1.23.33,0,.18-.02.4-.08.67l-.63,2.93c-.07.3-.33.5-.65.47s-.49-.26-.42-.56l.63-2.89c.16-.75-.1-1.14-.86-1.2-.38-.03-.85.12-1.13.25l-.8,3.67c-.07.3-.33.49-.64.47s-.48-.28-.42-.56l.88-4.02c.05-.21.13-.29.28-.4.4-.21,1.27-.45,2.02-.39s1.15.3,1.44.69c.47-.27,1.13-.49,1.89-.44,1.49.11,1.95.95,1.68,2.22h0Z"/>
    <path class="cls-1" d="M312.06,106.79c-.04.18-.16.3-.34.35l-1.63.59c-.1.02-.17.05-.24.04-.26-.02-.41-.22-.36-.46.04-.18.16-.3.33-.35l1.63-.59c.07-.03.17-.05.24-.04.26.02.41.22.36.46h0ZM308.32,110.68l2.66.21c.1,0,.14-.02.16-.14.25-.85-.22-1.44-1.08-1.51-.94-.04-1.54.5-1.74,1.44h0ZM312.18,110.83l-.07.31c-.08.37-.36.62-.85.58l-3.11-.25-.03.15c-.18.85.36,1.36,1.22,1.43.48.04.89-.02,1.2-.12.17-.05.28-.07.41-.06.26.02.44.25.39.5-.04.18-.17.33-.45.43-.43.15-1.04.26-1.78.19-1.51-.13-2.2-1.11-2.05-2.43.05-.4.17-.94.27-1.28.38-1.3,1.54-2.04,2.92-1.93,1.48.11,2.22,1.1,1.93,2.47h0Z"/>
    <path class="cls-1" d="M316.96,108.99c.22.08.42.22.35.53-.06.28-.34.5-.6.48-.1,0-.22-.05-.35-.09-.1,0-.22-.05-.45-.07-.55-.04-.9.18-1.02.76l-.69,3.25c-.06.28-.34.5-.66.48-.29-.02-.5-.29-.44-.57l.72-3.4c.22-1.04,1.01-1.63,2.21-1.54.36,0,.74.09.93.16h0Z"/>
    <path class="cls-1" d="M319.42,109.65l-.96,4.53c-.07.31-.34.51-.67.48s-.51-.26-.45-.57l.96-4.53c.06-.31.34-.51.67-.48.33.03.51.29.45.57h0ZM319.91,107.78c-.07.34-.43.59-.79.57s-.56-.32-.49-.66.39-.56.75-.54.6.33.53.63h0Z"/>
    <path class="cls-1" d="M321.84,111.53c-.1.34-.23.96-.26,1.24-.13.78.24,1.25,1.14,1.32.6.05,1.2-.09,1.47-.23l.62-2.95c-.2-.17-.79-.44-1.32-.48-.82-.1-1.41.3-1.65,1.1h0ZM325.94,110.21c.11.1.13.2.1.35l-1.29,6.2c-.07.31-.34.51-.68.48-.3-.03-.52-.3-.46-.58l.36-1.74c-.4.12-1,.23-1.53.19-1.46-.12-2.15-1-1.98-2.31.05-.37.2-1.12.31-1.48.41-1.29,1.44-2.05,2.97-1.94,1.06.08,1.9.62,2.2.83h0Z"/>
    <path class="cls-1" d="M332.96,110.69l-.87,4.21c-.04.19-.13.31-.29.39-.39.19-1.29.53-2.47.43-1.52-.13-2.33-1.02-2.03-2.43l.61-2.93c.06-.31.32-.54.69-.52.3.02.52.29.46.6l-.6,2.9c-.16.75.29,1.23,1.14,1.3.64.05,1.16-.1,1.46-.23l.78-3.79c.06-.31.35-.51.69-.49.31,0,.5.26.44.54h0Z"/>
    <path class="cls-1" d="M335.37,112.83l2.86.23c.1,0,.14-.02.17-.15.25-.88-.26-1.5-1.19-1.57-1.04-.05-1.67.51-1.84,1.49h0ZM339.5,113l-.06.32c-.08.38-.38.65-.9.6l-3.34-.27-.03.16c-.18.88.41,1.41,1.34,1.49.52.04.95-.02,1.29-.12.19-.05.3-.07.43-.06.28.02.47.26.42.52-.04.19-.18.34-.48.44-.45.16-1.11.26-1.9.2-1.61-.14-2.38-1.16-2.24-2.53.05-.41.17-.98.27-1.32.38-1.34,1.62-2.11,3.09-2,1.59.12,2.4,1.15,2.1,2.57h0Z"/>
    <path class="cls-1" d="M349.77,107.77c-.04.19-.17.31-.36.36l-1.77.61c-.11.02-.19.05-.26.05-.28-.02-.45-.23-.4-.48.04-.19.17-.31.36-.36l1.77-.62c.11-.02.19-.05.26-.05.28.05.45.26.41.48h0ZM350.8,110.18c-.06.29-.36.53-.71.5l-3.82-.29-.45,2.23,3.6.28c.32.03.52.27.47.56s-.35.49-.67.47l-3.6-.29-.46,2.27,3.85.32c.32.03.56.27.5.56s-.36.53-.71.5l-4.1-.34c-.6-.05-.87-.46-.77-.94l1.19-5.86c.09-.45.49-.83,1.12-.79l4.06.3c.37-.04.57.2.51.52h0Z"/>
    <path class="cls-1" d="M352.8,113.95c-.09.29-.23.96-.26,1.29-.1.84.35,1.34,1.32,1.42.54.04,1.27-.13,1.52-.27l.62-3.1c-.23-.15-.83-.43-1.48-.48-.97-.08-1.48.31-1.72,1.14h0ZM357.78,110.6l-1.24,6.28c-.04.19-.09.29-.3.4-.36.17-1.44.57-2.62.47-1.65-.14-2.44-1.12-2.31-2.49.04-.39.2-1.16.3-1.51.41-1.34,1.47-2.11,3.01-1.99.61.05,1.19.25,1.56.45l.33-1.68c.06-.32.4-.53.72-.5.41-.04.61.24.55.56h0Z"/>
    <path class="cls-1" d="M364.8,113.14l-.86,4.38c-.04.2-.14.32-.3.41-.41.2-1.38.55-2.66.44-1.64-.14-2.53-1.07-2.24-2.53l.6-3.05c.06-.32.33-.57.73-.54.36.03.57.31.5.63l-.6,3.02c-.15.78.34,1.28,1.25,1.36.7.06,1.25-.1,1.57-.24l.77-3.95c.06-.33.37-.53.73-.51.34,0,.54.27.49.57h0Z"/>
    <path class="cls-1" d="M371.95,114.77c-.06.3-.37.54-.75.51-.22-.02-.42-.17-.5-.37-.15-.58-.71-.86-1.34-.91-.93-.07-1.66.4-1.89,1.18-.1.33-.22.95-.24,1.25-.09.83.41,1.4,1.38,1.48.63.05,1.28-.16,1.65-.67.15-.19.36-.31.63-.28.34.03.59.28.53.61-.13.66-1.34,1.6-3.02,1.46s-2.56-1.22-2.41-2.54c.04-.4.17-1.05.29-1.47.33-1.3,1.7-2.16,3.3-2.04,1.74.03,2.51,1.13,2.39,1.79h0Z"/>
    <path class="cls-1" d="M374.03,117.48c-.12.63.34,1,1.29,1.08.61.05,1.25-.1,1.59-.27l.25-1.3c-.54-.18-.98-.31-1.47-.35-1.07-.05-1.56.35-1.66.84h0ZM378.63,115.76l-.56,2.93c-.04.2-.1.3-.31.41-.38.17-1.41.49-2.74.38-1.74-.15-2.45-1.01-2.24-2.1.19-.99,1.14-1.76,2.88-1.62.61.05,1.09.15,1.67.33l.08-.43c.15-.76-.2-1.19-1.22-1.27-.45-.04-1,.02-1.45.16-.16.02-.24.05-.35.04-.3-.02-.52-.28-.47-.54.03-.17.15-.39.51-.46.41-.14,1.16-.25,1.95-.19,1.71.13,2.53.87,2.25,2.36h0Z"/>
    <path class="cls-1" d="M382.44,113.12l-.16.87,1.85.14c.35.03.57.28.52.58-.05.27-.4.48-.71.45l-1.85-.14-.58,3.04c-.11.57.09.96.82,1.02.31.03.58.01.91-.06.12-.02.2-.02.28-.01.35.03.54.28.49.55-.04.23-.23.39-.52.47-.37.11-.89.16-1.43.12-1.54-.13-2.03-1.05-1.82-2.12l.94-4.96c.06-.33.38-.58.77-.55s.57.28.51.61h0Z"/>
    <path class="cls-1" d="M387.67,114.91l-.93,4.94c-.06.34-.38.55-.77.52s-.62-.29-.55-.63l.93-4.93c.06-.34.38-.55.77-.52.39.03.61.32.55.62h0ZM388.17,112.87c-.07.37-.48.64-.9.61s-.68-.36-.61-.73.43-.61.86-.58.72.36.66.69h0Z"/>
    <path class="cls-1" d="M394.14,112.8c.3.12.42.31.38.54-.05.27-.37.49-.73.46-.12,0-.23-.05-.31-.06-.19-.05-.42-.1-.74-.12-.67-.05-1.01.3-1.13.91l-.06.34,1.73.13c.32.02.59.25.53.59-.05.27-.41.48-.73.46l-1.69-.13-.8,4.29c-.06.34-.38.55-.77.52-.35-.03-.62-.33-.56-.63l.8-4.28-.39-.03c-.35-.03-.58-.28-.53-.55.06-.3.37-.52.73-.49l.39.03.08-.4c.23-1.21,1.15-1.89,2.56-1.79.4,0,.9.1,1.24.23h0Z"/>
    <path class="cls-1" d="M305.91,90.57l4.48.24c.19.01.27-.08.32-.29.32-1.31-.37-2.28-1.86-2.36-1.67-.08-2.62.92-2.94,2.41h0ZM315.09,80.66c-.13.63-.59,1.12-1.33,1.42l-3.99,1.57c-.39.16-.65.21-.97.2-.91-.04-1.5-.81-1.32-1.67.13-.62.59-1.11,1.32-1.41l3.97-1.58c.39-.16.65-.21.97-.2.92.03,1.53.81,1.34,1.67h0ZM314.6,91.22l-.12.57c-.23,1.08-1.02,1.89-2.43,1.81l-6.74-.38-.05.21c-.27,1.22.76,1.92,2.24,2.01,1.08.06,1.88-.1,2.54-.3.59-.18.92-.25,1.31-.23.99.06,1.68.92,1.47,1.89-.12.57-.57,1.28-1.66,1.67s-2.67.71-4.57.59c-3.65-.24-5.78-2.63-5.42-5.74.13-1.01.48-2.61.74-3.4,1.03-3.26,4.05-5.27,7.63-5.11,3.68.17,5.87,2.6,5.06,6.41h0Z"/>
    <path class="cls-1" d="M321.57,91.44c-.17.51-.4,1.58-.46,2.19-.22,1.34.47,2.15,1.92,2.24.79.05,1.82-.26,2.25-.52l1.08-5.16c-.35-.26-1.24-.62-2.19-.67-1.42-.04-2.3.71-2.59,1.92h0ZM332.44,83.75l-2.85,13.69c-.15.71-.46,1.06-1.1,1.4-.99.53-3.4,1.44-6.48,1.24-3.93-.25-5.96-2.78-5.61-5.92.1-.91.49-2.75.78-3.65.96-3.12,3.55-5.16,7.28-4.99.89.04,2.03.31,2.72.65l.54-2.58c.25-1.21,1.52-2.14,2.78-2.09,1.4.03,2.2,1.04,1.95,2.26h0Z"/>
    <path class="cls-1" d="M348.77,88.9l-1.97,9.74c-.15.76-.44,1.12-1.14,1.43-1.03.54-3.46,1.28-6.6,1.08-4.48-.29-6.34-2.58-5.55-6.38l1.34-6.48c.27-1.29,1.29-2.27,2.78-2.2,1.39.06,2.25,1.1,1.97,2.43l-1.3,6.33c-.26,1.28.53,1.95,1.77,2.02.93.05,1.74-.15,2.27-.37l1.6-7.83c.26-1.28,1.5-2.22,2.85-2.16,1.36.06,2.24,1.11,1.98,2.4h0Z"/>
    <path class="cls-1" d="M366.09,91.58c-.23,1.19-1.52,2.09-2.9,2.02-.69-.04-1.45-.46-1.71-.96-.49-.86-1.17-1.25-2.29-1.31-1.54-.08-2.58.61-3.06,1.93-.2.66-.39,1.78-.45,2.41-.11,1.44.67,2.26,2.18,2.35,1.15.07,1.94-.24,2.76-1.04.46-.46,1.37-.8,2.05-.76,1.38.08,2.29,1.11,2.05,2.3-.45,2.29-4.06,3.98-7.92,3.74s-6.52-2.89-6.21-6.2c.09-.95.42-2.59.77-3.82.89-3.17,4.43-5.35,8.46-5.17,3.85.21,6.71,2.24,6.27,4.52h0Z"/>
    <path class="cls-1" d="M273.97,89.33c.28-.85.49-1.76.6-2.62.36-2.11-.82-3.65-2.88-3.75s-3.8,1.3-4.42,3.38c-.25.84-.47,1.77-.6,2.59-.35,2.12.76,3.68,2.78,3.8,2.09.12,3.93-1.3,4.52-3.4h0ZM262.51,89.31c.19-1.3.47-2.5.85-3.67,1.22-3.81,5.03-6.67,9.2-6.5s6.82,3.4,6.29,7.27c-.21,1.32-.47,2.46-.85,3.75-1.23,3.88-5.23,6.71-9.45,6.44-4.17-.27-6.59-3.45-6.04-7.29h0Z"/>
    <path class="cls-1" d="M293.14,89.75l-1.37,6.21c-.26,1.17-1.38,2.06-2.59,1.98-1.11-.07-1.87-1.07-1.61-2.24l1.34-6c.28-1.25-.47-1.84-1.48-1.9-.78-.04-1.54.16-1.98.37l-1.64,7.3c-.26,1.16-1.36,2.03-2.54,1.96-1.09-.07-1.85-1.06-1.59-2.21l2.02-8.95c.16-.69.44-1.02,1.01-1.31.92-.51,3.02-1.22,5.73-1.1,3.9.18,5.51,2.28,4.71,5.9h0Z"/>
    <path class="cls-4" d="M370.95,100.01l-.42,2.15c-.13.65-.75,1.14-1.52,1.09-.7-.05-1.23-.61-1.1-1.25l.42-2.14c.13-.65.78-1.13,1.56-1.09.7.04,1.2.6,1.07,1.25h0Z"/>
    <path class="cls-4" d="M387.58,84.17c.58.22.81.59.73,1.02-.11.56-.69.99-1.42.96-.23,0-.45-.09-.63-.13-.45-.08-.99-.24-1.91-.28-1.78-.08-2.77,1.09-3.07,2.69l-.22,1.14,4.52.21c.65.03,1.21.52,1.1,1.14-.11.56-.81.99-1.49.95l-4.52-.23-2.07,10.8c-.13.66-.76,1.15-1.51,1.1-.68-.04-1.18-.61-1.05-1.26l2.07-10.77-.64-.03c-.71-.04-1.19-.52-1.08-1.07.12-.62.77-1.04,1.48-1.01l.64.03.3-1.56c.52-2.72,2.59-4.4,5.92-4.27.9.1,2.06.28,2.85.54h0Z"/>
    <path class="cls-4" d="M397.56,90.56c.53.16,1.02.52.89,1.18s-.76,1.1-1.47,1.07c-.27-.01-.65-.13-1.07-.22-.23-.04-.73-.14-1.39-.17-1.91-.1-3.02.62-3.35,2.34l-1.6,8.5c-.12.63-.81,1.16-1.58,1.11-.74-.05-1.21-.62-1.09-1.28l1.65-8.74c.52-2.77,2.73-4.32,6.19-4.16,1.18.02,2.25.21,2.82.37h0Z"/>
    <path class="cls-4" d="M234.29,106.38c-3.18-6.86-3.57-13.2-1.31-20.51,1.34-.26,2.58-1.39,2.91-2.79.4-1.66-.57-3.03-2.13-3.1s-3.15,1.21-3.55,2.83c-.33,1.36.28,2.55,1.37,2.96-2.35,7.64-1.95,14.28,1.37,21.45.11.2.29.33.5.35.16.01.33-.03.48-.13.35-.25.54-.71.36-1.06h0Z"/>
    <path class="cls-4" d="M238.38,98.35c-.41-.06-.89-.17-1.42-.29.54-.16,1.04-.23,1.48-.29.19-.01.34-.2.35-.36.02-.19-.14-.32-.3-.3-.49.05-1.07.15-1.76.35.2-.6.44-1.19.75-1.7.12-.16.09-.38-.08-.45-.14-.09-.37-.02-.46.16-.37.56-.6,1.18-.82,1.77l-.37-1.21c-.04-.17-.23-.24-.41-.17s-.28.29-.24.45l.41,1.38c-.7-.16-1.38-.32-1.88-.41-.18-.01-.36.09-.43.27-.07.19.02.36.19.4.38.05.85.17,1.38.29-.39.19-.79.44-1.23.72-.16.1-.23.32-.14.46.03.09.13.12.21.13s.16-.02.23-.07c.66-.45,1.27-.77,1.86-1.03-.18.51-.35,1.03-.59,1.48-.09.16-.03.36.11.42h.08c.13.02.29-.08.37-.22.14-.27.26-.51.35-.78l.42,1.37c.03.11.12.18.25.19.05,0,.1,0,.17-.04.18-.07.28-.29.24-.46l-.55-1.82c.6.15,1.16.28,1.62.36h.03c.16.01.35-.11.39-.28.09-.16,0-.33-.18-.35h0Z"/>
    <path class="cls-4" d="M246.33,94.58l-1.52-.24,1.03-.8c.17-.13.22-.35.11-.47-.1-.15-.31-.16-.45-.03l-.6.47c.08-.22.16-.46.24-.68.07-.19-.02-.36-.18-.4-.18-.04-.37.09-.44.25-.12.3-.22.6-.32.87-.19-.35-.4-.72-.55-1.09-.07-.17-.28-.18-.44-.08-.19.1-.24.32-.16.46.21.46.45.92.68,1.35l-1.61-.24c-.19-.01-.38.12-.42.28-.05.19.05.36.21.37l1.33.2-.56.44c-.17.13-.22.35-.11.47.04.06.13.12.21.13s.17-.02.27-.09l.7-.54c-.09.38-.22.8-.31,1.18-.05.19.08.34.24.35h0c.19.01.36-.14.4-.31.09-.39.18-.77.31-1.18.12.18.21.38.33.55.03.09.13.12.21.13s.17-.02.23-.07c.17-.13.21-.32.11-.47-.06-.09-.11-.2-.17-.32l1.05.15h.03c.16.01.35-.12.4-.31.03-.14-.06-.31-.25-.32h0Z"/>
    <path class="cls-4" d="M249.82,62.68c-.05-.14-.23-.17-.35-.09l-1.13.63.32-.88c.06-.16,0-.3-.16-.33-.15-.03-.31.08-.37.24l-.16.45c-.05-.14-.09-.27-.14-.41-.05-.14-.19-.19-.34-.11s-.24.24-.19.37c.06.19.12.38.21.57-.3-.09-.59-.17-.89-.26-.15-.03-.3.05-.39.18-.06.16-.02.29.1.35.37.11.71.23,1.09.32l-1.18.65c-.15.08-.22.26-.17.37.03.08.1.14.2.14.05,0,.11,0,.17-.05l.98-.54-.17.48c-.06.16,0,.3.16.33h.03c.13,0,.29-.1.32-.24l.22-.59c.1.24.2.49.33.71.03.08.11.11.19.11.05,0,.14-.02.17-.05.16-.1.2-.27.14-.37-.11-.22-.21-.46-.32-.68.15.03.3.06.43.09h.05c.13,0,.26-.1.32-.24.06-.16,0-.3-.16-.33-.08,0-.15-.03-.23-.06l.76-.42c.15-.05.24-.24.16-.35h0Z"/>
    <path class="cls-4" d="M241.36,73.09c.46.58.92,1.11,1.31,1.56.09.08.2.14.33.15.18,0,.39-.07.53-.23.27-.26.32-.67.11-.89-.3-.31-.62-.7-.95-1.11.59.07,1.2.15,1.79.22h.05c.32.01.64-.22.74-.54.11-.35-.06-.65-.39-.69-.74-.1-1.49-.18-2.21-.26.67-.38,1.34-.63,1.91-.73.35-.04.64-.36.67-.71.03-.35-.23-.57-.59-.53-.77.11-1.64.47-2.49.95l.49-1.6c.11-.35-.08-.65-.41-.68-.33-.04-.68.22-.79.57l-.53,1.78c-.44-.55-.86-1.1-1.26-1.48-.21-.22-.61-.18-.88.08s-.32.66-.11.88c.33.36.72.8,1.09,1.29-.65-.02-1.29-.04-1.89-.03-.33-.01-.66.27-.72.62-.08.35.13.62.48.61.55,0,1.12,0,1.71.03-.6.55-1.12,1.09-1.59,1.61-.23.29-.24.66,0,.86.09.06.19.09.29.09.21,0,.44-.09.59-.3.4-.47.89-.99,1.42-1.46l-.74,2.4c-.11.35.08.65.41.69h.03c.31.01.66-.24.74-.57l.83-2.59Z"/>
    <path class="cls-4" d="M244.84,80.13c-.49-.19-.98-.34-1.5-.42l.89-.7c.2-.16.26-.43.14-.6s-.38-.18-.58-.02l-.62.49c.08-.24.16-.46.25-.7.08-.21-.03-.44-.23-.5-.23-.04-.45.12-.56.33-.13.32-.23.62-.36.94-.2-.39-.42-.78-.62-1.17-.09-.19-.34-.23-.56-.1s-.31.4-.22.59c.22.42.41.83.63,1.22-.6-.03-1.18-.02-1.71-.02-.24.02-.44.2-.47.44-.03.24.14.41.35.4.5,0,1.06,0,1.6.02l-.81.65c-.2.15-.26.42-.14.59.06.08.15.14.25.15s.22-.02.32-.12l.72-.57c-.1.43-.23.84-.32,1.24-.05.22.09.41.32.43h0c.24.01.44-.17.5-.41.1-.41.2-.84.32-1.24.11.2.22.39.34.56.06.08.15.14.26.15s.22-.02.32-.1c.2-.16.26-.43.17-.59-.12-.17-.21-.34-.3-.51.4.1.8.2,1.17.35.05,0,.07.03.13.03.16,0,.37-.09.47-.28.13-.21.05-.44-.14-.53h0Z"/>
    <path class="cls-4" d="M226.73,72.03c-.3-.09-.91-.27-1.61-.47.46-.22.93-.42,1.46-.64.22-.07.36-.33.33-.52-.05-.21-.25-.3-.45-.22-.64.24-1.23.52-1.78.81.15-.6.34-1.2.62-1.79.1-.21,0-.45-.18-.48-.26-.06-.5.09-.6.3-.22.49-.4,1.01-.55,1.53-.18-.4-.34-.82-.52-1.3-.08-.19-.29-.24-.51-.15-.2.13-.31.36-.26.54.18.48.35.9.52,1.3-.48-.17-.96-.34-1.39-.51-.18-.08-.43.04-.53.25s-.06.44.12.53c.51.23,1.13.43,1.72.66-.65.43-1.21.88-1.71,1.39-.17.18-.21.44-.07.58.06.05.13.08.2.09.12,0,.23-.04.33-.15.44-.46.96-.86,1.55-1.26-.06.26-.1.52-.17.78s-.1.5-.16.73c-.05.21.08.4.27.41h.02c.22,0,.42-.19.47-.4.06-.24.1-.5.16-.76l.06-.24c.24.46.48.89.74,1.37.05.11.14.14.27.14.1,0,.18-.02.27-.1.19-.15.27-.39.17-.58-.3-.51-.56-.97-.8-1.45.67.21,1.24.36,1.52.45h.07c.17,0,.36-.12.45-.3.19-.26.12-.47-.07-.53h0Z"/>
    <path class="cls-4" d="M216.99,82.81c-.26-.04-.48-.08-.68-.14l.68-.55c.12-.1.17-.28.1-.39s-.24-.12-.37-.02l-.37.3c.06-.16.1-.31.16-.44.06-.16,0-.29-.14-.32s-.29.07-.35.22c-.08.21-.15.41-.23.62-.13-.27-.27-.51-.37-.78-.04-.13-.2-.17-.33-.07-.14.07-.21.25-.14.36.13.27.26.54.39.81-.33-.04-.67-.06-1.1,0-.15.02-.26.15-.27.3s.09.24.24.22c.38-.06.7-.04.98.02l-.52.42c-.12.1-.17.28-.1.39.04.05.1.08.15.09s.13-.02.19-.07l.49-.4c-.07.29-.16.55-.23.83-.04.16.06.27.18.27h0c.15,0,.28-.12.31-.27.06-.26.14-.55.23-.81.07.11.14.24.21.35.04.05.1.08.15.09.07,0,.13-.02.19-.07.12-.1.17-.28.1-.39-.04-.05-.09-.14-.12-.22.14.03.26.04.4.07h.02c.12,0,.27-.09.31-.25.06-.02-.01-.16-.15-.19h0Z"/>
    <path class="cls-4" d="M219.38,78.24c-.42,0-.88.04-1.34.1.41-.38.88-.75,1.42-1.05.14-.07.21-.25.16-.36-.04-.13-.21-.17-.32-.09-.49.27-.94.59-1.32.95.04-.45.09-.86.15-1.28l.02-.08c.01-.16-.08-.27-.23-.25s-.28.15-.3.3l-.02.08c-.06.44-.1.91-.15,1.39l-.53-.44c-.1-.08-.25-.06-.36.06s-.12.28-.02.37l.61.52c-.41.06-.82.12-1.21.21-.15.02-.26.17-.27.3s.07.21.19.22h.05c.31-.06.62-.1.95-.17-.16.23-.29.46-.39.69-.06.16-.02.29.12.32h.05c.12,0,.24-.07.3-.2.11-.26.28-.54.49-.77,0,.66.08,1.27.28,1.75.03.08.1.11.17.11.05,0,.1-.02.16-.05.14-.07.21-.25.14-.36-.15-.38-.23-.88-.25-1.38l.72.59s.09.06.13.06c.07,0,.18-.04.25-.12.11-.13.12-.29.02-.37l-.55-.47c.28-.01.53-.03.8-.04.15,0,.28-.12.32-.28-.01-.16-.11-.27-.23-.27h0Z"/>
    <path class="cls-4" d="M239.77,65.72c-.52-.12-1.1-.16-1.72-.17.49-.31,1.01-.64,1.58-.98.18-.1.26-.31.19-.45-.06-.16-.26-.19-.42-.09-.69.41-1.33.8-1.89,1.18.15-.74.33-1.45.49-2.01.04-.18-.04-.35-.22-.35-.15,0-.36.13-.41.31-.16.55-.33,1.27-.49,2.01-.24-.27-.42-.59-.47-.94-.04-.16-.2-.24-.37-.17-.17.08-.29.26-.26.42.07.45.3.85.59,1.18-.39.02-.78.06-1.18.11-.18.02-.35.18-.37.36-.01.16.08.29.23.3h.05c.29-.02.58-.06.89-.08-.35.28-.68.57-.91.8-.14.16-.16.34-.03.45.04.05.11.06.17.06.1,0,.19-.05.29-.13.27-.29.66-.62,1.13-.96-.15.71-.26,1.38-.34,1.93l-.04.19c-.04.16.08.32.23.33h.03c.18,0,.35-.15.39-.34l.04-.19c.11-.56.22-1.25.35-1.99.04.03.11.08.15.11.44.33.85.66,1.07,1.04.03.08.13.11.21.11s.16-.02.23-.07c.16-.13.23-.31.13-.45-.23-.35-.57-.65-.96-.96.49.01.94.05,1.36.14.15.03.35-.07.43-.26.08-.24.02-.4-.15-.46h0Z"/>
    <path class="cls-4" d="M233.46,67.35c-.08-.19-.33-.22-.54-.09l-1.65,1.04.38-1.47c.06-.24-.07-.42-.28-.43-.23,0-.45.17-.5.38l-.19.76c-.1-.21-.19-.45-.29-.69-.08-.19-.29-.24-.53-.12-.21.13-.32.36-.24.57.1.29.24.59.37.88-.45-.12-.9-.23-1.35-.35-.19-.06-.44.07-.53.3-.1.21-.03.45.18.51.56.17,1.16.32,1.76.44l-1.74,1.11c-.21.13-.3.39-.22.57.05.11.16.16.26.17.08,0,.16-.02.24-.07l1.44-.94-.35,1.31c-.06.24.07.43.27.43h0c.2,0,.42-.17.5-.38l.36-1.37c.19.38.41.73.63,1.08.06.08.14.14.27.14.1,0,.18-.02.3-.1.19-.15.28-.42.17-.58-.22-.35-.41-.7-.6-1.08.25.03.46.09.71.13h.05c.2,0,.39-.15.47-.36s-.02-.43-.22-.46c-.15-.03-.29-.06-.46-.09l1.15-.74c.15-.08.26-.34.15-.53h0Z"/>
    <path class="cls-4" d="M256.23,72.4c-.56-.18-1.08-.39-1.6-.63.35-.1.68-.23,1-.33.24-.08.4-.32.37-.54s-.25-.34-.49-.23c-.27.1-.53.18-.79.25l.91-1.43c.13-.22.08-.46-.11-.55-.2-.09-.47.01-.6.23l-1.29,2.02-.64-1.66c-.09-.19-.32-.25-.53-.15-.22.13-.33.37-.27.57l.36.88c-.31-.17-.65-.35-.96-.49-.19-.11-.45-.01-.61.2-.16.21-.11.46.08.58.38.2.77.41,1.15.61-.63.17-1.3.37-1.93.51-.23.05-.42.29-.42.51,0,.19.14.31.33.31h.11c.86-.21,1.72-.43,2.6-.71l-1.37,2.15c-.13.21-.08.46.11.55.05.03.1.03.15.03.16,0,.35-.1.44-.26l1.16-1.8.38,1.03c.05.14.17.2.31.2.08,0,.17-.02.23-.05.22-.13.33-.37.27-.57l-.39-1c.55.21,1.07.45,1.62.63.03,0,.07.03.1.03.19,0,.38-.1.48-.29.13-.3.05-.55-.16-.61h0Z"/>
    <path class="cls-4" d="M263.07,61.74l-2.6,1.02.97-1.57c.18-.3.12-.63-.16-.74-.27-.11-.63.02-.81.32l-.74,1.16c-.17-.9-.3-1.72-.36-2.29-.04-.3-.3-.47-.62-.36s-.56.4-.52.7c.06.65.23,1.58.41,2.54-.63-.23-1.25-.46-1.84-.71-.27-.11-.63.04-.78.31-.18.3-.09.62.16.71.66.28,1.34.54,2.01.8l-2.78,1.09c-.3.13-.51.45-.44.73.03.22.22.33.43.34.08,0,.17-.02.23-.05l2.27-.88-.48.78c-.18.3-.12.63.15.74.05.03.13.03.18.03.22,0,.47-.13.6-.34l.78-1.24c.21.85.41,1.63.59,2.15.06.19.24.28.43.29.08,0,.2-.02.29-.08.31-.16.47-.48.4-.76-.18-.53-.38-1.3-.57-2.13.36.12.72.21,1.08.32h.14c.25,0,.53-.15.65-.42.15-.3.03-.6-.25-.69-.13-.03-.23-.06-.36-.12l1.76-.68c.31-.13.52-.46.45-.73-.03-.22-.34-.33-.66-.23h0Z"/>
    <path class="cls-4" d="M274.75,67.83c-.76-.05-1.48-.15-2.23-.25.47-.3.93-.57,1.4-.86.17-.11.25-.33.17-.47-.08-.14-.3-.17-.47-.07-.56.35-1.1.7-1.66,1.02.31-.86.72-1.63,1.36-2.34.15-.16.14-.36.02-.47-.14-.11-.35-.06-.5.07-.67.71-1.15,1.54-1.46,2.39l-.82-1.22c-.11-.14-.3-.17-.47-.04s-.25.33-.14.47l.8,1.19c-.52-.1-1.02-.22-1.53-.34-.19-.03-.38.07-.48.24-.07.19,0,.36.16.42.56.15,1.15.28,1.72.38-.78.45-1.59.91-2.39,1.31-.19.11-.27.3-.22.47.03.11.13.17.27.17.06,0,.15-.02.18-.05.8-.42,1.58-.85,2.39-1.3l-.23,1c-.13.56-.26,1.14-.42,1.7-.04.19.06.37.25.37h.03c.17,0,.37-.13.42-.32.16-.58.3-1.17.43-1.75l.24-1.06.97,1.48c.04.09.14.12.23.12s.18-.02.25-.08c.17-.14.25-.33.14-.47l-.85-1.28c.75.1,1.49.21,2.25.25h.03c.17,0,.37-.13.42-.33.03-.14-.07-.31-.27-.34h0Z"/>
    <path class="cls-4" d="M279.07,55.2c-.39-.03-.85-.03-1.3-.06.22-.19.46-.38.67-.58.39-.33.72-.63.95-.8.14-.11.18-.28.1-.42-.09-.11-.29-.11-.43,0-.27.19-.6.5-1.02.83-.17.14-.32.27-.5.44.18-.52.35-1.02.5-1.44.07-.17-.02-.3-.18-.33-.16-.03-.33.08-.4.25-.15.39-.32.88-.49,1.38-.19-.31-.38-.58-.56-.89-.09-.11-.25-.14-.42-.03-.14.11-.2.27-.15.41.22.39.47.78.73,1.14-.59-.03-1.14-.09-1.51-.2-.16-.06-.32.03-.41.19-.09.16-.04.3.12.36.37.11.9.17,1.42.23-.38.27-.7.46-.98.57-.15.05-.28.22-.25.36.03.11.13.17.24.17.03,0,.08,0,.12-.03.34-.11.73-.35,1.17-.65l-.17.75c-.04.17.08.28.22.28h0c.17,0,.32-.14.35-.3l.22-.97c.1.17.24.33.35.47.04.06.12.08.18.08.09,0,.15-.03.22-.08.14-.11.18-.3.1-.42-.04-.06-.08-.14-.16-.2.34,0,.65.03.96.06h.03c.14,0,.31-.11.35-.27.18-.17.1-.3-.07-.31h0Z"/>
    <path class="cls-4" d="M265.34,70.57l-1.14.69.3-.91c.04-.17-.04-.31-.21-.31s-.33.1-.36.24l-.14.47c-.05-.14-.13-.28-.18-.42s-.21-.17-.37-.09c-.16.08-.22.24-.17.38.07.2.17.37.26.56-.32-.06-.64-.13-.95-.22-.16-.03-.32.05-.38.21-.07.16-.02.3.14.34.39.1.76.19,1.16.28l-1.22.71c-.16.08-.23.27-.15.38.04.08.11.11.19.12.06,0,.12-.02.18-.05l1-.61-.14.5c-.04.17.04.31.18.31h.03c.14,0,.3-.1.34-.27l.2-.61c.14.23.25.48.39.71.04.06.11.12.2.12.06,0,.15-.02.21-.08.14-.11.2-.27.12-.41-.14-.23-.26-.45-.37-.68.16.03.32.07.49.07h.03c.14,0,.3-.1.34-.24.07-.17-.01-.31-.17-.34-.08,0-.16-.03-.24-.04l.78-.45c.16-.08.23-.27.15-.39-.15-.06-.31-.09-.48.01h0Z"/>
    <path class="cls-4" d="M252.35,84.37l-.8-.21c-.36-.1-.77-.2-1.21-.31.55-.25,1.07-.5,1.54-.73.34-.18.52-.59.4-.87-.12-.31-.5-.41-.82-.2-.62.33-1.45.71-2.29,1.08.7-1.93,1.28-3.81,1.36-4.5.03-.36-.23-.62-.57-.57-.36.04-.67.33-.7.69-.04.52-.53,2.01-1.11,3.67-.46-.9-.81-1.8-.87-2.57-.03-.33-.33-.54-.67-.47-.34.1-.61.44-.61.77.04.85.38,1.8.83,2.7-.73-.2-1.32-.42-1.69-.55-.29-.12-.68.05-.86.37s-.08.68.21.81c.44.19,1.27.42,2.17.71-.45.2-.88.43-1.28.63-.34.18-.51.58-.39.86.09.2.25.29.44.3.11,0,.25-.02.37-.09.37-.2.8-.4,1.25-.63-.42,1.09-.8,2.01-1.04,2.44-.18.32-.06.69.24.82.05.03.1.03.15.04.27.01.55-.16.7-.43.25-.49.69-1.55,1.18-2.8.16.26.32.49.48.72.36.55.69,1.01.85,1.35.1.17.24.26.43.27.13,0,.28-.04.44-.12.32-.21.47-.62.32-.9-.19-.37-.53-.86-.91-1.44-.04-.06-.08-.12-.12-.2.46.13.9.24,1.28.34l.8.21h.14c.3.02.62-.18.75-.49.12-.27-.01-.64-.35-.71h0Z"/>
    <path class="cls-4" d="M241.48,91.39c-.49-.42-1.07-.98-1.68-1.56.63-.07,1.27-.18,1.9-.28.34-.06.63-.41.63-.74s-.29-.57-.63-.5c-.64.13-1.25.21-1.85.28.83-1.03,1.56-1.98,2.03-2.7.22-.35.16-.76-.18-.92-.31-.15-.74,0-.99.36-.43.69-1.17,1.67-2.02,2.67.02-.74.01-1.48.06-2.22.03-.35-.25-.59-.59-.52-.35.04-.64.38-.64.7-.02.52-.05,1.06-.07,1.58-.51-.52-.96-1.04-1.35-1.47-.23-.26-.65-.22-.96.06-.3.28-.36.72-.13.97.47.54,1.08,1.18,1.71,1.84-.76.09-1.52.19-2.29.34-.33.06-.62.4-.62.73,0,.3.19.5.48.52.05,0,.1,0,.16-.02.8-.15,1.58-.24,2.34-.33-.88.94-1.75,1.79-2.43,2.33-.32.25-.43.69-.23.97.1.14.26.24.41.25s.35-.03.51-.16c.71-.56,1.57-1.39,2.48-2.32.04.72.08,1.41.15,2.13.01.28.21.46.47.47.05,0,.13,0,.22-.01.34-.09.61-.43.56-.77-.05-.67-.11-1.33-.13-2.02.6.59,1.19,1.15,1.67,1.57.09.09.21.12.34.13.21.01.47-.08.66-.29.26-.43.26-.87,0-1.08h0Z"/>
    <path class="cls-4" d="M235.94,74.49c.08-.35-.16-.62-.47-.63-.72-.02-1.6.21-2.52.53.54-.97,1.07-1.86,1.33-2.09.29-.23.38-.63.19-.87-.17-.25-.55-.26-.85,0-.46.41-1.01,1.33-1.79,2.74-.08-.22-.15-.43-.23-.65-.17-.46-.32-.89-.44-1.24-.11-.3-.43-.41-.76-.24s-.51.54-.41.84c.11.38.29.81.45,1.27,0,.03.02.03.01.05-.59-.21-1.14-.41-1.5-.61-.27-.14-.63,0-.84.32-.2.31-.14.66.13.8.43.23,1.03.46,1.73.7.12.03.23.09.33.12-.72.35-1.37.69-1.95.99,0,0-.42.25-.19.79.15.41.55.26.55.26.49-.25,1.11-.57,1.75-.89-.41.76-.8,1.49-1.12,1.99-.2.31-.14.66.13.81.07.03.14.06.21.06.23,0,.49-.14.65-.37.33-.52.7-1.2,1.11-1.94.13.51.2.97.2,1.4.01.27.2.46.48.48.05,0,.1,0,.16-.02.33-.07.61-.4.61-.73-.02-.56-.12-1.21-.29-1.86.57.32,1.06.63,1.3,1.02.1.14.24.2.39.2s.32-.04.45-.17c.29-.23.39-.63.21-.88-.33-.47-.87-.87-1.51-1.24.67-.22,1.3-.35,1.76-.36.33.04.65-.22.71-.57h0Z"/>
    <path class="cls-4" d="M223.53,95.11c-.44.03-.98-.07-1.54-.16.4-.16.79-.33,1.13-.47.23-.09.36-.33.31-.55s-.25-.31-.48-.22c-.34.14-.7.28-1.1.44.16-.23.34-.46.49-.67.18-.23.34-.44.47-.67.15-.21.11-.45-.06-.57-.17-.12-.42-.03-.58.18-.15.21-.3.41-.46.65-.23.34-.5.7-.77,1.08l-.37-1.56c-.05-.22-.25-.31-.48-.19-.22.09-.36.33-.29.55l.38,1.62c-.14-.04-.29-.07-.43-.11-.43-.11-.8-.21-1.09-.29-.19-.04-.43.11-.51.32-.08.21.02.43.21.47.28.07.67.15,1.07.26h.02c-.54.26-1.06.52-1.52.76-.21.12-.31.36-.26.55.04.14.15.2.28.21.07,0,.15-.02.22-.07.55-.29,1.18-.59,1.82-.93-.33.73-.53,1.53-.57,2.42,0,.19.12.33.29.35h.1c.21-.03.39-.24.4-.48,0-.62.14-1.21.35-1.74l.41,1.74c.04.14.15.23.3.24.05,0,.12,0,.19-.04.23-.09.36-.33.29-.55l-.48-2.07c.53.12,1.07.21,1.54.24.18.01.33.02.48,0,.23-.01.43-.19.46-.43.11-.13-.03-.3-.23-.31h0Z"/>
    <path class="cls-4" d="M227.75,98.9c-.3-.16-.7-.41-1.1-.71.51-.18,1.01-.34,1.4-.42.19-.04.31-.22.33-.39,0-.19-.16-.31-.32-.27-.38.08-.86.24-1.36.4.34-.44.7-.77,1-.92.18-.1.28-.28.21-.45-.06-.17-.23-.21-.41-.14-.41.22-.82.6-1.22,1.09l-.12-1.18c-.01-.16-.16-.28-.36-.22-.16.04-.31.22-.28.42l.12,1.4c-.46-.33-.92-.64-1.27-.8-.14-.06-.36,0-.45.16-.09.16-.07.38.07.44.32.16.76.46,1.22.79-.23.09-.48.18-.71.28-.34.14-.65.25-.9.34-.17.07-.29.25-.26.44.02.14.13.2.23.21.05,0,.1,0,.13-.02.25-.09.57-.23.91-.37.17-.07.32-.14.48-.18-.42.76-.73,1.53-.9,2.12-.05.19.05.33.22.35h0c.18.01.34-.14.38-.3.14-.59.48-1.33.88-2.04l.14,1.44c.02.14.1.23.25.24.03,0,.08,0,.11-.02.17-.04.31-.22.28-.42l-.11-1.24c.35.24.69.46.97.59.03,0,.07.03.1.03.13,0,.27-.06.36-.19.17-.18.12-.38-.02-.47h0Z"/>
    <path class="cls-4" d="M218.91,91.47c-.1-.6-.29-1.25-.51-1.91-.01-.05-.04-.14-.05-.19.54.25,1.1.52,1.64.77.05,0,.07.03.12.03.15,0,.32-.09.42-.27.13-.21.06-.45-.12-.54-.63-.3-1.24-.58-1.86-.88l1.7-1c.21-.12.32-.38.24-.57s-.31-.26-.52-.14l-1.43.83c.3-.52.65-1,1.01-1.46.14-.18.16-.44-.01-.56-.15-.11-.41-.07-.56.13-.43.54-.82,1.1-1.17,1.69-.13-.7-.2-1.42-.06-2.16.03-.24-.13-.38-.33-.39-.2.02-.42.19-.45.43-.12.9-.06,1.75.1,2.58-.7-.28-1.41-.5-2.11-.68-.21-.04-.42.08-.52.32-.08.21,0,.42.2.49.67.17,1.39.4,2.09.68l-1.62.94c-.2.12-.32.38-.24.57.05.11.16.17.28.18.07,0,.15-.02.24-.07l1.33-.77c-.17.39-.34.78-.51,1.17-.27.6-.51,1.14-.76,1.66-.1.21-.04.45.15.52h.1c.17.02.35-.11.45-.29.26-.55.52-1.09.77-1.69.18-.44.39-.89.61-1.35.04.14.09.25.11.38.19.65.39,1.25.47,1.82.03.16.14.25.29.26.05,0,.1,0,.15-.02.29-.06.42-.3.38-.51h0Z"/>
    <path class="cls-4" d="M225.35,92.35c.09-.78.31-1.88.56-3.02.46.43.96.79,1.56,1.04.04.03.12.03.17.04.25.02.52-.13.66-.4.18-.32.09-.67-.19-.8-.49-.19-.88-.48-1.26-.83.92-.11,1.76-.17,2.39-.11.3.02.65-.23.75-.55.08-.35-.1-.63-.4-.67-.6-.06-1.41-.02-2.27.07.41-.41.82-.85,1.25-1.23.27-.26.31-.66.11-.88s-.59-.19-.86.06c-.41.41-.81.79-1.21,1.2l.04-.16c.18-.74.32-1.41.46-1.97.08-.35-.12-.65-.45-.64-.33-.02-.65.26-.73.61-.14.56-.27,1.22-.46,1.96l-.12.48c-.17-.25-.31-.5-.5-.75-.17-.25-.31-.5-.5-.75-.17-.25-.54-.27-.82-.04-.28.23-.38.62-.21.87.17.25.33.5.5.75.24.36.46.72.7,1.06-.98.27-1.92.59-2.69.98-.31.14-.51.53-.41.84.05.19.23.31.43.32.1,0,.21-.01.32-.06.55-.29,1.22-.52,1.93-.72-.46.54-.95,1.08-1.39,1.62-.22.28-.24.66,0,.86.09.06.18.09.28.1.2.01.43-.08.58-.29.33-.41.68-.82,1.03-1.21-.2.91-.34,1.71-.43,2.38-.05.32.17.55.45.57h.08c.35-.08.65-.36.69-.71h0Z"/>
    <path class="cls-4" d="M226.11,80.82c-.52-.26-1.18-.53-1.88-.78l1.52-1.16c.28-.23.4-.6.24-.87-.17-.25-.51-.29-.82-.06l-.68.53c.16-.34.31-.65.47-.99.15-.31.04-.66-.24-.75s-.65.11-.81.42c-.21.44-.42.88-.63,1.35-.16-.59-.29-1.15-.42-1.74-.07-.32-.39-.44-.7-.32-.33.15-.52.51-.47.8.16.75.33,1.49.53,2.22-.71-.16-1.45-.27-2.17-.31-.32-.01-.63.24-.71.58s.12.61.42.63c.59.03,1.27.11,1.95.27l-1.26.98c-.28.23-.4.59-.24.86.09.14.23.2.37.2s.31-.04.43-.14l.87-.68c-.22.6-.45,1.23-.68,1.83-.11.34.04.64.36.68h.05c.3.02.6-.21.71-.52.2-.6.45-1.23.68-1.83.09.24.16.49.25.73.05.19.23.3.43.31.1,0,.21-.02.32-.09.32-.17.49-.54.38-.84-.08-.3-.19-.57-.27-.87.48.18.94.39,1.37.6.07.03.14.06.19.06.23.01.49-.14.65-.37.14-.26.08-.64-.19-.76h0Z"/>
  </g>
</svg>