<?xml version="1.0" encoding="utf-8"?>
<!-- Generator: Adobe Illustrator 25.0.0, SVG Export Plug-In . SVG Version: 6.00 Build 0)  -->
<svg version="1.1" id="Calque_5" xmlns="http://www.w3.org/2000/svg" xmlns:xlink="http://www.w3.org/1999/xlink" x="0px" y="0px"
	 viewBox="0 0 430.4 324.9" style="enable-background:new 0 0 430.4 324.9;" xml:space="preserve">
<style type="text/css">
	.st0{clip-path:url(#SVGID_2_);}
	.st1{clip-path:url(#SVGID_4_);}
	.st2{clip-path:url(#SVGID_6_);fill:#FDEBE2;}
	.st3{fill:#003549;}
	.st4{fill:#FFFFFF;}
	.st5{fill:#004761;}
	.st6{fill:#F05A38;}
</style>
<g>
	<defs>
		<rect id="SVGID_1_" width="430.4" height="324.9"/>
	</defs>
	<clipPath id="SVGID_2_">
		<use xlink:href="#SVGID_1_"  style="overflow:visible;"/>
	</clipPath>
	<g id="Illustration_2_1_" class="st0">
		<g>
			<defs>
				<rect id="SVGID_3_" x="4.4" y="12" width="360.2" height="330.2"/>
			</defs>
			<clipPath id="SVGID_4_">
				<use xlink:href="#SVGID_3_"  style="overflow:visible;"/>
			</clipPath>
			<g class="st1">
				<defs>
					<rect id="SVGID_5_" x="4.4" y="12" width="360.2" height="330.2"/>
				</defs>
				<clipPath id="SVGID_6_">
					<use xlink:href="#SVGID_5_"  style="overflow:visible;"/>
				</clipPath>
				<path class="st2" d="M170.4,335c-29.7-38.7-41.7-75.9-38.6-120.2c8-1.9,14-9,14-17.6c0-10-8.1-18.1-18.1-18.1
					c-10,0-18.1,8.1-18.1,18.1c0,8.3,5.6,15.2,13.2,17.3c-3.1,46.4,9.5,85.4,40.5,125.9c0.9,1.1,2.2,1.7,3.5,1.7
					c0.9,0,1.9-0.3,2.7-0.9C171.6,339.8,171.9,337,170.4,335"/>
				<path class="st2" d="M183.5,286.5c-2.5-0.2-5.7-0.7-9.1-1.2c3.2-1.1,6.1-1.8,8.6-2.2c1.1-0.2,1.8-1.2,1.6-2.3
					c-0.2-1.1-1.3-1.8-2.3-1.6c-2.9,0.5-6.4,1.4-10.3,2.8c0.4-3.6,0.9-7.1,2.2-10.2c0.4-1-0.1-2.2-1.1-2.6c-1-0.4-2.2,0.1-2.6,1.1
					c-1.4,3.4-2,7.1-2.4,10.7l-4-7c-0.5-1-1.8-1.3-2.7-0.7c-1,0.6-1.3,1.8-0.7,2.7l4.6,7.9c-4.5-0.7-8.9-1.4-12.2-1.7
					c-1.1-0.1-2.1,0.7-2.2,1.8c-0.1,1.1,0.7,2.1,1.8,2.2c2.4,0.2,5.6,0.7,8.9,1.2c-2.1,1.4-4.3,2.9-6.4,4.8c-0.8,0.7-0.9,2-0.2,2.8
					c0.4,0.5,1,0.7,1.5,0.7c0.5,0,0.9-0.2,1.3-0.5c3.4-2.9,6.7-5.1,9.8-6.8c-0.3,3.1-0.6,6.1-1.4,8.9c-0.3,1.1,0.3,2.2,1.4,2.5
					c0.2,0.1,0.4,0.1,0.6,0.1c0.9,0,1.7-0.6,1.9-1.4c0.4-1.5,0.7-3.1,1-4.7l4.5,7.7c0.4,0.6,1,1,1.7,1c0.3,0,0.7-0.1,1-0.3
					c1-0.6,1.3-1.8,0.7-2.7l-6-10.3c3.8,0.6,7.5,1.1,10.3,1.4c0.1,0,0.1,0,0.2,0c1,0,1.9-0.8,2-1.8
					C185.4,287.6,184.6,286.6,183.5,286.5"/>
				<path class="st2" d="M225.9,261.5l-9.4-0.7l5.1-5.1c0.8-0.8,0.8-2.1,0-2.8c-0.8-0.8-2.1-0.8-2.8,0l-3,3c0.2-1.4,0.3-2.8,0.5-4.1
					c0.2-1.1-0.6-2.1-1.7-2.3c-1.1-0.1-2.1,0.6-2.3,1.7c-0.3,1.7-0.5,3.5-0.7,5.3c-1.7-2-3.3-4.1-4.9-6.2c-0.7-0.9-1.9-1.1-2.8-0.4
					c-0.9,0.7-1.1,1.9-0.4,2.8c2,2.6,4,5.1,6.1,7.6l-10-0.8c-1.1-0.1-2.1,0.7-2.2,1.8c-0.1,1.1,0.7,2.1,1.8,2.2l8.3,0.7l-2.8,2.8
					c-0.8,0.8-0.8,2.1,0,2.8c0.4,0.4,0.9,0.6,1.4,0.6c0.5,0,1-0.2,1.4-0.6l3.4-3.4c-0.1,2.3-0.1,4.6-0.1,6.9c0,1.1,0.9,2,2,2h0
					c1.1,0,2-0.9,2-2c0-2.3,0-4.6,0.1-6.9c0.9,1,1.8,2.1,2.8,3.1c0.4,0.4,0.9,0.6,1.5,0.6c0.5,0,1-0.2,1.4-0.5
					c0.8-0.8,0.8-2,0.1-2.8c-0.5-0.6-1-1.2-1.5-1.7l6.4,0.5c0.1,0,0.1,0,0.2,0c1,0,1.9-0.8,2-1.8C227.9,262.5,227,261.6,225.9,261.5
					"/>
				<path class="st2" d="M201.4,72.2c-0.5-0.8-1.5-1-2.3-0.5l-6,3.8l0.7-5.3c0.1-0.9-0.5-1.8-1.4-1.9c-0.9-0.1-1.8,0.5-1.9,1.4
					l-0.4,2.8c-0.5-0.8-1-1.6-1.5-2.4c-0.5-0.8-1.5-1.1-2.3-0.7c-0.8,0.4-1.1,1.5-0.7,2.3c0.6,1.2,1.4,2.3,2.1,3.4
					c-1.9-0.5-3.9-0.9-5.8-1.5c-0.9-0.2-1.8,0.3-2.1,1.2c-0.2,0.9,0.3,1.8,1.2,2.1c2.4,0.7,4.7,1.2,7.1,1.8l-6.4,4.1
					c-0.8,0.5-1,1.5-0.5,2.3c0.3,0.5,0.9,0.8,1.4,0.8c0.3,0,0.6-0.1,0.9-0.3l5.3-3.4l-0.4,2.9c-0.1,0.9,0.5,1.8,1.4,1.9
					c0.1,0,0.1,0,0.2,0c0.8,0,1.5-0.6,1.7-1.5l0.5-3.5c1,1.4,2,2.9,3,4.2c0.3,0.4,0.8,0.6,1.3,0.6c0.4,0,0.7-0.1,1-0.4
					c0.7-0.6,0.9-1.6,0.3-2.4c-1-1.3-2-2.7-2.9-4.1c0.9,0.2,1.9,0.4,2.8,0.6c0.1,0,0.2,0,0.3,0c0.8,0,1.5-0.6,1.6-1.4
					c0.1-0.9-0.5-1.8-1.4-1.9c-0.5-0.1-1-0.2-1.5-0.3l4-2.6C201.7,74,201.9,73,201.4,72.2"/>
				<path class="st2" d="M164.7,136.2c3.7,3.4,7.2,6.6,10.3,9c0.7,0.5,1.5,0.8,2.3,0.8c1.1,0,2.2-0.5,3-1.4c1.3-1.6,1-4-0.6-5.3
					c-2.3-1.8-4.8-4-7.5-6.5c3.8,0.3,7.6,0.6,11.3,0.9c0.1,0,0.3,0,0.4,0c1.9,0,3.5-1.4,3.7-3.4c0.2-2.1-1.3-3.9-3.4-4.1
					c-4.6-0.5-9.3-0.8-14-1.1c3.6-2.4,7.3-4.1,10.8-4.7c2.1-0.4,3.4-2.3,3-4.4c-0.4-2-2.3-3.4-4.4-3c-4.6,0.8-9.3,3.1-13.9,6.1
					l0.6-9.8c0.1-2.1-1.5-3.9-3.5-4c-2.1-0.1-3.9,1.5-4,3.5l-0.7,10.9c-3.6-3.3-7-6.4-10.1-8.8c-1.6-1.3-4-1-5.3,0.6
					c-1.3,1.6-1,4,0.6,5.3c2.6,2.1,5.7,4.8,8.8,7.7c-4.1,0-8,0-11.8,0.2c-2.1,0.1-3.7,1.8-3.6,3.9c0.1,2.1,1.8,3.7,3.9,3.6
					c3.4-0.1,7-0.2,10.7-0.2c-2.9,3.3-5.4,6.8-7.4,10.1c-1.1,1.8-0.5,4.1,1.3,5.2c0.6,0.4,1.3,0.5,1.9,0.5c1.3,0,2.5-0.7,3.2-1.9
					c1.8-3,4.1-6.1,6.6-9.1l-0.9,14.6c-0.1,2.1,1.5,3.9,3.5,4c0.1,0,0.2,0,0.2,0c2,0,3.6-1.5,3.8-3.5L164.7,136.2z"/>
				<path class="st2" d="M196.3,177.4c-3.3-1-6.5-1.7-9.8-2.2l4.4-4.4c1-1,1-2.6,0-3.5c-1-1-2.6-1-3.5,0l-3,3
					c0.2-1.4,0.3-2.8,0.5-4.2c0.2-1.4-0.7-2.6-2.1-2.9c-1.4-0.2-2.7,0.7-2.9,2.1c-0.3,1.9-0.5,3.8-0.7,5.7c-1.8-2.2-3.7-4.5-5.4-6.8
					c-0.8-1.1-2.4-1.3-3.5-0.5c-1.1,0.8-1.3,2.4-0.5,3.5c1.8,2.4,3.8,4.8,5.7,7.2c-3.7,0-7.2,0.2-10.5,0.4c-1.4,0.1-2.4,1.3-2.3,2.7
					c0.1,1.4,1.4,2.5,2.7,2.3c3.1-0.2,6.5-0.4,9.9-0.4l-4.1,4.1c-1,1-1,2.6,0,3.6c0.5,0.5,1.1,0.7,1.8,0.7c0.6,0,1.3-0.2,1.8-0.7
					l3.6-3.6c-0.1,2.5-0.1,5-0.1,7.5c0,1.4,1.1,2.5,2.5,2.5h0c1.4,0,2.5-1.2,2.5-2.5c0-2.5,0-5,0.1-7.5c1,1.1,1.9,2.2,2.9,3.3
					c0.5,0.5,1.2,0.8,1.8,0.8c0.6,0,1.2-0.2,1.7-0.7c1-1,1.1-2.5,0.1-3.5c-0.9-1-1.8-2-2.7-3c2.6,0.4,5.1,1,7.6,1.8
					c0.3,0.1,0.5,0.1,0.8,0.1c1.1,0,2.1-0.7,2.4-1.8C198.3,179.2,197.6,177.8,196.3,177.4"/>
				<path class="st2" d="M70.6,132.7c-2.1-0.5-6.3-1.4-11.3-2.6c2.6-1.4,5.3-2.8,8.4-4.2c1.3-0.6,1.8-2.1,1.3-3.3
					c-0.6-1.3-2.1-1.8-3.3-1.3c-3.8,1.7-7.2,3.4-10.3,5.3c0.1-3.8,0.4-7.5,1.1-11.2c0.3-1.4-0.6-2.7-2-2.9c-1.4-0.3-2.7,0.6-2.9,2
					c-0.6,3.2-0.9,6.4-1.1,9.5c-1.7-2.4-3.5-5-5.4-8c-0.8-1.2-2.3-1.5-3.5-0.7c-1.2,0.8-1.5,2.3-0.7,3.5c1.9,2.9,3.7,5.5,5.4,8
					c-3.5-1-6.9-2-9.9-3c-1.3-0.4-2.7,0.3-3.2,1.6c-0.4,1.3,0.3,2.7,1.6,3.2c3.8,1.2,8.1,2.5,12.4,3.6c-3.5,2.8-6.5,5.7-8.8,8.9
					c-0.8,1.1-0.6,2.7,0.5,3.5c0.5,0.3,1,0.5,1.5,0.5c0.8,0,1.5-0.3,2-1c2.2-2.9,4.9-5.6,8.2-8.1c0.1,1.6,0.1,3.2,0.2,4.8
					c0.1,1.6,0.2,3.1,0.2,4.6c0.1,1.4,1.2,2.4,2.5,2.4c0,0,0.1,0,0.1,0c1.4-0.1,2.5-1.2,2.4-2.6c-0.1-1.5-0.1-3.1-0.2-4.6
					c0-0.5-0.1-1-0.1-1.5c2.2,2.7,4.5,5.3,7,8.2c0.5,0.6,1.2,0.9,1.9,0.9c0.6,0,1.2-0.2,1.7-0.6c1-0.9,1.1-2.5,0.2-3.5
					c-2.7-3.1-5.1-5.9-7.4-8.7c4.7,1.1,8.5,2,10.5,2.4c0.2,0,0.4,0.1,0.5,0.1c1.2,0,2.2-0.8,2.4-2C72.8,134.3,71.9,133,70.6,132.7"
					/>
				<path class="st2" d="M24.6,201.2c-1.7-0.1-3.2-0.4-4.7-0.6l3.5-3.5c0.7-0.7,0.7-1.7,0-2.4c-0.7-0.6-1.7-0.7-2.4,0l-2,2
					c0.1-0.9,0.2-1.9,0.3-2.8c0.1-0.9-0.5-1.8-1.4-1.9c-0.9-0.1-1.8,0.5-1.9,1.4c-0.2,1.3-0.3,2.6-0.4,3.9c-1.3-1.6-2.5-3.1-3.8-4.7
					c-0.6-0.7-1.6-0.9-2.3-0.3c-0.7,0.6-0.9,1.6-0.3,2.3c1.3,1.7,2.6,3.3,3.9,4.9c-2.2-0.2-4.6-0.2-7.3,0.3c-0.9,0.2-1.5,1-1.4,1.9
					c0.2,0.9,1,1.5,1.9,1.4c2.5-0.4,4.5-0.4,6.6-0.2l-2.8,2.8c-0.6,0.7-0.6,1.7,0,2.4c0.3,0.3,0.8,0.5,1.2,0.5
					c0.4,0,0.9-0.2,1.2-0.5l2.5-2.5c-0.1,1.7-0.2,3.5-0.1,5.2c0,0.9,0.8,1.7,1.7,1.7h0c0.9,0,1.7-0.8,1.7-1.7c0-1.7,0.1-3.4,0.1-5
					c0.6,0.7,1.3,1.5,1.9,2.2c0.3,0.4,0.8,0.5,1.2,0.5c0.4,0,0.8-0.2,1.1-0.5c0.7-0.6,0.7-1.7,0.1-2.4c-0.4-0.4-0.7-0.8-1.1-1.3
					c0.9,0.1,1.8,0.3,2.7,0.3c0,0,0.1,0,0.1,0c0.9,0,1.6-0.7,1.7-1.5C26.2,202.1,25.5,201.3,24.6,201.2"/>
				<path class="st2" d="M32.8,172.5c-2.8,0.2-5.7,0.5-8.6,0.9c2.1-2.5,4.6-4.8,7.6-6.8c0.8-0.5,1-1.6,0.5-2.3
					c-0.5-0.8-1.6-1-2.3-0.5c-2.7,1.8-5.1,3.9-7.2,6.1c-0.5-2.7-0.9-5.4-1.2-7.9l-0.1-0.5c-0.1-0.9-1-1.6-1.9-1.4
					c-0.9,0.1-1.6,1-1.4,1.9l0.1,0.5c0.4,2.7,0.8,5.6,1.3,8.6l-4.2-2.6c-0.8-0.5-1.8-0.3-2.3,0.5c-0.5,0.8-0.3,1.8,0.5,2.3l4.8,3
					c-2.6,0.5-5.1,1-7.6,1.5c-0.9,0.2-1.5,1.1-1.2,2c0.2,0.8,0.9,1.3,1.6,1.3c0.1,0,0.3,0,0.4,0c2-0.5,4-0.9,6-1.3
					c-0.6,1.4-1.2,2.9-1.5,4.3c-0.2,0.9,0.4,1.8,1.2,2c0.1,0,0.3,0,0.4,0c0.8,0,1.5-0.5,1.6-1.3c0.4-1.7,1-3.3,1.9-5
					c1.1,4,2.6,7.8,4.7,10.7c0.3,0.5,0.8,0.7,1.4,0.7c0.3,0,0.7-0.1,1-0.3c0.7-0.5,0.9-1.6,0.4-2.3c-1.7-2.3-2.9-5.3-3.9-8.5
					l5.8,3.7c0.3,0.2,0.6,0.3,0.9,0.3c0.6,0,1.1-0.3,1.4-0.8c0.5-0.8,0.3-1.8-0.5-2.3l-4.4-2.8c1.7-0.2,3.4-0.3,5.1-0.5
					c0.9-0.1,1.6-0.9,1.6-1.8C34.5,173.1,33.6,172.4,32.8,172.5"/>
				<path class="st2" d="M143.7,92c-3.5-0.6-7.2-0.8-11-0.8c2.6-2,5.4-4.1,8.5-6.2c0.9-0.6,1.1-1.9,0.5-2.8
					c-0.6-0.9-1.9-1.1-2.8-0.5c-3.8,2.6-7.1,5-10,7.4c-0.1-4.6-0.2-9,0.1-12.3c0.1-1.1-0.8-2.1-1.9-2.1c-1.1-0.1-2.1,0.8-2.1,1.9
					c-0.2,3.4-0.2,7.8-0.1,12.4c-1.9-1.7-3.5-3.5-4.4-5.7c-0.4-1-1.6-1.5-2.6-1c-1,0.4-1.5,1.6-1,2.6c1.2,2.8,3.2,5.1,5.5,7.1
					c-2.4,0.2-4.8,0.5-7.2,0.9c-1.1,0.1-1.9,1.2-1.7,2.3c0.1,1,1,1.7,2,1.7c0.1,0,0.2,0,0.3,0c1.8-0.2,3.6-0.5,5.4-0.7
					c-1.8,1.8-3.4,3.5-4.5,5.1c-0.7,0.9-0.5,2.2,0.4,2.8c0.4,0.3,0.8,0.4,1.2,0.4c0.6,0,1.2-0.3,1.6-0.8c1.3-1.8,3.2-3.8,5.6-6
					c0.2,4.3,0.5,8.5,0.7,11.8l0.1,1.1c0.1,1.1,1,1.9,2,1.9c0,0,0.1,0,0.1,0c1.1-0.1,1.9-1,1.9-2.1l-0.1-1.1
					c-0.2-3.4-0.5-7.7-0.7-12.2c0.4,0.2,0.7,0.5,1.1,0.7c3.2,2,6.3,3.9,8.2,6.1c0.4,0.4,0.9,0.7,1.5,0.7c0.5,0,1-0.2,1.3-0.5
					c0.8-0.7,0.9-2,0.2-2.8c-2-2.2-4.6-4-7.4-5.8c3.1,0,6,0.2,8.8,0.7c1.1,0.2,2.1-0.5,2.3-1.6C145.5,93.2,144.8,92.2,143.7,92"/>
				<path class="st2" d="M106.5,102.8c-0.8-1.1-2.4-1.3-3.5-0.5l-8.9,6.7l0.2-9c0-1.4-1.1-2.5-2.5-2.6c-1.4,0-2.5,1.1-2.6,2.5
					l-0.1,4.7c-1-1.4-1.9-2.7-2.9-4.1c-0.8-1.1-2.3-1.5-3.5-0.7c-1.2,0.8-1.5,2.3-0.7,3.5c1.2,1.8,2.5,3.6,3.7,5.4
					c-3.1-0.6-6.1-1.2-9.2-1.9c-1.3-0.3-2.7,0.5-3,1.9c-0.3,1.3,0.5,2.7,1.9,3c4,0.9,7.9,1.7,11.9,2.5l-9.5,7.2
					c-1.1,0.8-1.3,2.4-0.5,3.5c0.5,0.7,1.2,1,2,1c0.5,0,1.1-0.2,1.5-0.5l7.9-5.9l-0.2,8.1c0,1.4,1.1,2.5,2.5,2.6h0
					c1.4,0,2.5-1.1,2.5-2.5l0.2-8.4c1.8,2.2,3.7,4.4,5.6,6.5c0.5,0.5,1.2,0.8,1.9,0.8c0.6,0,1.2-0.2,1.7-0.7c1-0.9,1.1-2.5,0.2-3.5
					c-1.9-2.1-3.7-4.2-5.5-6.4c1.5,0.2,3.1,0.4,4.6,0.6c0.1,0,0.2,0,0.3,0c1.3,0,2.3-0.9,2.5-2.2c0.2-1.4-0.8-2.6-2.2-2.8
					c-1-0.1-2-0.3-3-0.4l6.1-4.6C107.1,105.5,107.3,103.9,106.5,102.8"/>
				<path class="st2" d="M253.7,129.2c-3.5-1-7-2.2-10.5-3.4c1.9-0.7,3.7-1.4,5.5-2.2c1.3-0.5,1.9-2,1.4-3.3c-0.5-1.3-2-1.9-3.3-1.4
					c-1.4,0.6-2.9,1.1-4.4,1.7l3.5-8.6c0.5-1.3-0.1-2.7-1.4-3.3c-1.3-0.5-2.7,0.1-3.3,1.4l-4.9,12.2l-6.2-9.7
					c-0.7-1.2-2.3-1.5-3.5-0.8c-1.2,0.7-1.5,2.3-0.8,3.5l3.3,5.2c-2.2-0.9-4.4-1.8-6.5-2.8c-1.3-0.6-2.7,0-3.3,1.2
					c-0.6,1.3,0,2.7,1.2,3.3c2.6,1.2,5.2,2.3,7.8,3.4c-3.6,1.2-7.2,2.4-10.9,3.5c-1.3,0.4-2.1,1.8-1.7,3.1c0.3,1.1,1.3,1.8,2.4,1.8
					c0.2,0,0.5,0,0.7-0.1c4.9-1.4,9.8-3,14.6-4.6l-5.2,12.9c-0.5,1.3,0.1,2.7,1.4,3.3c0.3,0.1,0.6,0.2,0.9,0.2c1,0,1.9-0.6,2.3-1.6
					l4.3-10.9l3.8,5.9c0.5,0.7,1.3,1.2,2.1,1.2c0.5,0,0.9-0.1,1.3-0.4c1.2-0.7,1.5-2.3,0.8-3.5l-3.8-5.9c3.5,1.2,7,2.4,10.6,3.4
					c0.2,0.1,0.5,0.1,0.7,0.1c1.1,0,2.1-0.7,2.4-1.8C255.8,131,255,129.6,253.7,129.2"/>
				<path class="st2" d="M279.3,65.4l-14,6.3l3.6-9.4c0.7-1.7-0.2-3.7-1.9-4.3c-1.7-0.7-3.7,0.2-4.3,1.9l-2.7,6.9
					c-2.2-5.3-4.2-10.2-5.4-13.6c-0.6-1.8-2.5-2.7-4.2-2.1c-1.8,0.6-2.7,2.5-2.1,4.2c1.3,3.9,3.5,9.3,6,15.1c-4-1.3-8.1-2.6-12-4.1
					c-1.7-0.6-3.7,0.3-4.3,2c-0.6,1.7,0.3,3.7,2,4.3c4.3,1.6,8.8,3.1,13.2,4.5L238.1,84c-1.7,0.8-2.4,2.7-1.7,4.4
					c0.6,1.2,1.8,2,3.1,2c0.5,0,0.9-0.1,1.4-0.3l12.3-5.6l-1.8,4.7c-0.7,1.7,0.2,3.7,1.9,4.3c0.4,0.2,0.8,0.2,1.2,0.2
					c1.3,0,2.6-0.8,3.1-2.1l2.9-7.4c2.4,5,4.6,9.5,6.4,12.7c0.6,1.1,1.8,1.7,2.9,1.7c0.6,0,1.1-0.1,1.7-0.4c1.6-0.9,2.2-3,1.3-4.6
					c-1.7-3.1-4-7.6-6.4-12.6c2.3,0.6,4.6,1.2,6.8,1.8c0.3,0.1,0.5,0.1,0.8,0.1c1.5,0,2.9-1,3.2-2.5c0.4-1.8-0.7-3.6-2.5-4
					c-0.7-0.2-1.5-0.4-2.2-0.6l9.5-4.3c1.7-0.8,2.4-2.7,1.7-4.4C283,65.4,281,64.6,279.3,65.4"/>
				<path class="st2" d="M354.9,99.6c-4.3-0.2-8.6-0.7-12.9-1.2c2.3-1.7,4.6-3.5,6.8-5.2c0.9-0.7,1-2,0.3-2.8c-0.7-0.9-2-1-2.8-0.3
					c-2.7,2.1-5.4,4.2-8.2,6.2c0.6-5,1.9-9.6,4.7-13.7c0.6-0.9,0.4-2.2-0.5-2.8c-0.9-0.6-2.2-0.4-2.8,0.5c-3,4.3-4.5,9.1-5.2,14.1
					l-6.3-7c-0.7-0.8-2-0.9-2.8-0.2c-0.8,0.7-0.9,2-0.2,2.8l6.1,6.8c-3.1-0.5-6.1-1.1-9.2-1.8c-1.1-0.2-2.2,0.4-2.4,1.5
					c-0.2,1.1,0.5,2.2,1.5,2.4c3.5,0.8,6.9,1.4,10.4,2c-3.9,2.7-7.9,5.4-12,8c-0.9,0.6-1.2,1.8-0.6,2.8c0.4,0.6,1,0.9,1.7,0.9
					c0.4,0,0.7-0.1,1.1-0.3c4-2.5,8-5.2,11.9-7.9c0,1.9-0.1,3.9-0.1,5.8c0,3.3,0,6.7-0.2,9.9c-0.1,1.1,0.8,2.1,1.9,2.1
					c0,0,0.1,0,0.1,0c1.1,0,1.9-0.8,2-1.9c0.2-3.4,0.2-6.8,0.2-10.2c0-2.1,0-4.2,0.1-6.2l7.5,8.3c0.4,0.4,0.9,0.7,1.5,0.7
					c0.5,0,1-0.2,1.3-0.5c0.8-0.7,0.9-2,0.2-2.8l-6.6-7.3c4.4,0.5,8.8,1,13.1,1.2c0,0,0.1,0,0.1,0c1.1,0,1.9-0.8,2-1.9
					C356.8,100.6,356,99.7,354.9,99.6"/>
				<path class="st2" d="M363.1,25.7c-2.3-0.2-4.9-0.2-7.4-0.3c1.1-1.1,2.1-2.3,3.1-3.4c1.8-2,3.3-3.7,4.4-4.7
					c0.7-0.6,0.7-1.7,0.1-2.4c-0.6-0.7-1.7-0.7-2.4-0.1c-1.2,1.2-2.8,2.9-4.6,4.9c-0.7,0.8-1.5,1.7-2.3,2.5c0.3-3.1,0.6-6.1,1-8.4
					c0.1-0.9-0.5-1.8-1.4-1.9c-0.9-0.2-1.8,0.5-1.9,1.4c-0.4,2.3-0.7,5.2-0.9,8.1c-1.5-1.7-3-3.4-4.4-5.2c-0.6-0.7-1.6-0.8-2.4-0.2
					c-0.7,0.6-0.8,1.6-0.3,2.4c1.8,2.3,3.8,4.5,5.7,6.7c-3.4-0.2-6.6-0.4-8.9-1.2c-0.9-0.3-1.8,0.2-2.1,1.1
					c-0.3,0.9,0.2,1.8,1.1,2.1c2.3,0.7,5.3,1.1,8.4,1.2c-1.8,1.6-3.4,2.8-4.8,3.3c-0.9,0.3-1.3,1.3-0.9,2.2c0.3,0.7,0.9,1.1,1.6,1.1
					c0.2,0,0.4,0,0.6-0.1c1.8-0.7,3.8-2.2,5.8-4c0,1.6-0.1,3.1,0,4.4c0,0.9,0.8,1.6,1.7,1.6h0c0.9,0,1.7-0.8,1.7-1.7
					c0-1.7,0-3.7,0.1-5.8c0.9,0.9,1.7,1.8,2.6,2.7c0.3,0.3,0.7,0.5,1.2,0.5c0.4,0,0.9-0.2,1.2-0.5c0.7-0.7,0.7-1.7,0-2.4
					c-0.4-0.4-0.7-0.8-1.1-1.1c1.9,0.1,3.7,0.1,5.5,0.3c0,0,0.1,0,0.1,0c0.9,0,1.6-0.7,1.7-1.5C364.7,26.6,364,25.8,363.1,25.7"/>
				<path class="st2" d="M304.6,116.9l-5.8,4.2l0.4-5.4c0.1-0.9-0.6-1.7-1.5-1.8c-0.9-0.1-1.7,0.6-1.8,1.5l-0.2,2.9
					c-0.5-0.8-1.1-1.6-1.6-2.4c-0.5-0.8-1.5-1-2.3-0.5c-0.8,0.5-1,1.5-0.5,2.3c0.7,1.1,1.5,2.2,2.2,3.3c-2-0.4-3.9-0.7-5.9-1.2
					c-0.9-0.2-1.8,0.4-2,1.3c-0.2,0.9,0.4,1.8,1.3,2c2.4,0.5,4.8,1,7.2,1.4l-6.2,4.4c-0.8,0.5-0.9,1.6-0.4,2.3
					c0.3,0.5,0.8,0.7,1.4,0.7c0.3,0,0.7-0.1,1-0.3l5.1-3.7l-0.2,2.9c-0.1,0.9,0.6,1.7,1.5,1.8c0,0,0.1,0,0.1,0
					c0.9,0,1.6-0.7,1.7-1.5l0.3-3.6c1.1,1.4,2.1,2.8,3.3,4.1c0.3,0.4,0.8,0.6,1.3,0.6c0.4,0,0.8-0.1,1.1-0.4
					c0.7-0.6,0.8-1.7,0.2-2.4c-1.1-1.3-2.1-2.6-3.1-3.9c1,0.1,1.9,0.3,2.9,0.4c0.1,0,0.1,0,0.2,0c0.8,0,1.6-0.6,1.7-1.5
					c0.1-0.9-0.6-1.7-1.5-1.8c-0.5-0.1-1-0.2-1.5-0.2l3.9-2.8c0.8-0.5,0.9-1.6,0.4-2.3C306.4,116.5,305.4,116.3,304.6,116.9"/>
				<path class="st2" d="M247.4,200.2l-5.1-1c-2.2-0.4-4.9-1-7.7-1.5c3-1.6,5.8-3.3,8.1-4.8c1.7-1.1,2.2-3.5,1.1-5.2
					c-1.1-1.7-3.5-2.2-5.2-1.1c-3.3,2.2-7.7,4.6-12.2,7c1.4-11.5,2.3-22.7,1.7-26.7c-0.3-2.1-2.2-3.5-4.2-3.2
					c-2.1,0.3-3.5,2.2-3.2,4.3c0.4,3-0.3,12-1.4,21.9c-4.1-5.1-7.5-10.4-8.9-14.9c-0.6-2-2.7-3.1-4.7-2.5c-2,0.6-3.1,2.7-2.5,4.7
					c1.5,5.1,4.9,10.5,8.9,15.8c-4.7-1.1-8.7-2-11.1-2.8c-2-0.6-4.1,0.5-4.7,2.5c-0.6,2,0.5,4.1,2.5,4.7c3,0.9,8.2,2.2,14.1,3.5
					c-2.5,1.4-4.8,2.7-6.8,4c-1.7,1.1-2.2,3.5-1.1,5.2c0.7,1.1,1.9,1.7,3.1,1.7c0.7,0,1.4-0.2,2.1-0.6c1.9-1.3,4.2-2.6,6.7-4
					c-1,6.5-2,11.9-2.8,14.6c-0.6,2,0.6,4.1,2.6,4.7c0.4,0.1,0.7,0.2,1,0.2c1.6,0,3.1-1.1,3.6-2.7c0.9-3,2-9.3,3.1-16.6
					c1.3,1.4,2.7,2.8,3.9,4.1c3,3.1,5.5,5.8,7,7.6c0.7,0.9,1.8,1.4,2.9,1.4c0.8,0,1.7-0.3,2.4-0.8c1.6-1.3,1.9-3.7,0.6-5.3
					c-1.7-2.1-4.3-4.8-7.4-8.1c-0.3-0.4-0.7-0.7-1-1.1c3,0.6,5.7,1.1,8,1.6l5,1c0.3,0,0.5,0.1,0.8,0.1c1.8,0,3.3-1.2,3.7-3
					C250.7,202.6,249.4,200.6,247.4,200.2"/>
				<path class="st2" d="M192.3,244.6c-3.6-2.3-7.9-5.3-12.5-8.6c3.7-0.7,7.4-1.4,11.1-2.3c2-0.5,3.3-2.5,2.8-4.5
					c-0.5-2-2.5-3.3-4.5-2.8c-3.7,0.9-7.3,1.6-10.9,2.3c3.6-6.3,6.6-12.2,8.4-16.5c0.8-2.2-0.2-4.6-2.4-5.4
					c-2.1-0.8-4.6,0.2-5.4,2.4c-1.7,4.3-4.7,10.2-8.4,16.4c-1.1-4.4-2.1-8.8-2.9-13.2c-0.4-2-2.4-3.4-4.4-3c-2,0.4-3.4,2.4-3,4.4
					c0.6,3.1,1.3,6.3,2,9.4c-3.9-3-7.6-5.8-10.6-8.2c-1.8-1.5-4.4-1.2-5.9,0.6c-1.5,1.8-1.2,4.4,0.6,5.9c3.7,3,8.4,6.6,13.4,10.3
					c-4.5,0.8-9,1.6-13.7,2.8c-2,0.5-3.3,2.5-2.8,4.5c0.4,1.7,2,2.9,3.7,2.9c0.3,0,0.6,0,0.9-0.1c4.7-1.1,9.4-2,14-2.8
					c-4.1,5.9-8.2,11.2-11.6,14.5c-1.6,1.6-1.7,4.3,0,5.9c0.8,0.8,1.9,1.2,3,1.2c1.1,0,2.1-0.4,2.9-1.2c3.6-3.5,7.7-8.8,11.8-14.6
					c1.3,4.2,2.6,8.3,4,12.4c0.5,1.6,2,2.5,3.6,2.5c0.4,0,0.8-0.1,1.2-0.2c2-0.7,3-2.8,2.3-4.8c-1.3-3.9-2.6-7.9-3.8-11.8
					c4.6,3.2,9,6.2,12.6,8.6c0.7,0.5,1.5,0.7,2.3,0.7c1.4,0,2.7-0.7,3.5-1.9C194.8,248.5,194.2,245.9,192.3,244.6"/>
				<path class="st2" d="M133.1,145.7c0-2.1-1.9-3.7-3.8-3.7c-4.5,0.1-9.7,1.6-15.1,3.8c1.9-6,3.8-11.6,5.2-13
					c1.4-1.5,1.4-3.9-0.1-5.3c-1.5-1.4-3.9-1.4-5.3,0.1c-2.4,2.5-4.6,8.2-7.3,17c-0.8-1.3-1.7-2.6-2.5-3.9c-1.8-2.8-3.4-5.3-4.7-7.5
					c-1.1-1.8-3.4-2.4-5.2-1.3c-1.8,1.1-2.4,3.4-1.3,5.2c1.3,2.2,3,4.9,4.8,7.7c0.1,0.1,0.2,0.2,0.2,0.4c-4.1-1.2-7.9-2.3-10.5-3.4
					c-1.9-0.8-4.1,0.1-4.9,2c-0.8,1.9,0.1,4.1,2,4.9c3.1,1.3,7.3,2.5,12.1,3.9c0.8,0.2,1.5,0.5,2.3,0.7c-4,2.3-7.7,4.5-10.8,6.4
					c0,0-2.3,1.6,0,4.9c1.6,2.4,3.9,1.5,3.9,1.5c2.7-1.6,6.1-3.7,9.8-5.8c-1.4,4.8-2.8,9.2-4.1,12.4c-0.8,1.9,0.2,4.1,2.1,4.9
					c0.5,0.2,0.9,0.3,1.4,0.3c1.5,0,2.9-0.9,3.5-2.4c1.3-3.2,2.6-7.4,4-12c1.5,3,2.8,5.9,3.4,8.4c0.4,1.7,2,2.8,3.6,2.8
					c0.3,0,0.6,0,1-0.1c2-0.5,3.2-2.6,2.7-4.6c-0.9-3.4-2.6-7.2-4.7-11.3c4,1.7,7.6,3.6,9.8,5.8c0.7,0.7,1.7,1.1,2.7,1.1
					c1,0,1.9-0.4,2.7-1.1c1.5-1.5,1.5-3.8,0-5.3c-2.8-2.8-6.8-5.1-11.3-7.1c3.9-1.5,7.6-2.5,10.6-2.5
					C131.5,149.5,133.2,147.8,133.1,145.7"/>
				<path class="st2" d="M86.3,273.5c-2.7,0.3-6.3,0-10.1-0.4c2.3-1.2,4.5-2.3,6.5-3.2c1.3-0.6,1.8-2.1,1.2-3.3
					c-0.6-1.3-2.1-1.8-3.3-1.2c-2,0.9-4.1,2-6.3,3.1c0.7-1.5,1.4-2.9,2.1-4.3c0.7-1.5,1.4-2.9,2-4.2c0.6-1.3,0-2.8-1.2-3.3
					c-1.3-0.6-2.8,0-3.3,1.2c-0.6,1.2-1.2,2.6-2,4c-1,2.1-2.2,4.3-3.2,6.7l-4.8-9.3c-0.6-1.2-2.2-1.7-3.4-1.1
					c-1.2,0.6-1.7,2.2-1.1,3.4l5,9.6c-1-0.2-2-0.3-2.9-0.5c-2.9-0.5-5.5-1-7.5-1.2c-1.4-0.2-2.6,0.8-2.8,2.2
					c-0.2,1.4,0.8,2.6,2.1,2.8c2,0.3,4.5,0.7,7.3,1.2c0.1,0,0.1,0,0.2,0c-3.1,1.8-6,3.6-8.6,5.2c-1.2,0.8-1.5,2.3-0.7,3.5
					c0.5,0.7,1.3,1.1,2.1,1.1c0.5,0,0.9-0.1,1.4-0.4c3.1-2,6.6-4.1,10.3-6.3c-0.9,4.5-1.1,9.5,0.2,14.8c0.3,1.1,1.3,1.9,2.4,1.9
					c0.2,0,0.4,0,0.6-0.1c1.3-0.3,2.2-1.7,1.8-3c-0.9-3.7-0.9-7.3-0.5-10.6l5.4,10.2c0.4,0.9,1.3,1.3,2.2,1.3c0.4,0,0.8-0.1,1.2-0.3
					c1.2-0.6,1.7-2.2,1.1-3.4l-6.3-12.1c3.6,0.5,7.1,0.8,10.2,0.8c1.1,0,2.1,0,3.1-0.1c1.4-0.1,2.4-1.3,2.3-2.7
					C88.9,274.4,87.7,273.3,86.3,273.5"/>
				<path class="st2" d="M118.8,294.2c-2.1-0.8-5-2.2-8-3.7c3-1.3,5.8-2.4,8.1-3.1c1.1-0.3,1.7-1.4,1.4-2.5
					c-0.3-1.1-1.4-1.7-2.5-1.4c-2.3,0.7-5.1,1.7-7.9,3c1.5-2.7,3.2-4.9,4.9-5.9c0.9-0.6,1.2-1.8,0.6-2.8c-0.6-0.9-1.8-1.2-2.8-0.6
					c-2.2,1.4-4.3,3.9-6,7l-2.5-7c-0.4-1-1.5-1.6-2.6-1.2c-1,0.4-1.6,1.5-1.2,2.6l3,8.2c-3.5-1.7-6.8-3.3-9.2-4.2
					c-1-0.4-2.2,0.1-2.6,1.2c-0.4,1,0.1,2.2,1.2,2.6c2.3,0.9,5.5,2.4,8.9,4.1c-1.4,0.7-2.7,1.3-4,1.9c-1.9,0.9-3.7,1.8-5.2,2.5
					c-1,0.5-1.4,1.7-1,2.7c0.3,0.7,1.1,1.2,1.8,1.2c0.3,0,0.6-0.1,0.9-0.2c1.5-0.7,3.3-1.6,5.2-2.5c0.9-0.4,1.8-0.9,2.8-1.4
					c-1.5,4.7-2.3,9.4-2.4,12.9c0,1.1,0.9,2,2,2h0c1.1,0,2-0.9,2-2c0.1-3.5,1-8.1,2.5-12.5l3,8.4c0.3,0.8,1.1,1.3,1.9,1.3
					c0.2,0,0.5,0,0.7-0.1c1-0.4,1.6-1.5,1.2-2.6l-2.6-7.3c2.6,1.3,5.1,2.4,7,3.2c0.2,0.1,0.5,0.1,0.7,0.1c0.8,0,1.6-0.5,1.9-1.3
					C120.3,295.7,119.8,294.6,118.8,294.2"/>
				<path class="st2" d="M51.1,253.2c-1.6-3.6-3.9-7.4-6.3-11.4c-0.2-0.4-0.5-0.8-0.7-1.2c3.9,1.3,7.9,2.7,11.8,4.1
					c0.3,0.1,0.5,0.1,0.8,0.1c1,0,1.9-0.7,2.3-1.7c0.5-1.3-0.3-2.8-1.6-3.2c-4.5-1.6-9-3.2-13.5-4.7l9.5-6.6
					c1.1-0.8,1.4-2.4,0.6-3.5c-0.8-1.1-2.4-1.4-3.5-0.6l-7.9,5.5c1.2-3.2,2.5-6.3,4.3-9.3c0.7-1.2,0.3-2.7-0.9-3.4
					c-1.2-0.7-2.7-0.3-3.4,0.9c-2,3.4-3.6,7-4.8,10.7c-2-4.2-3.5-8.6-4-13.1c-0.1-1.4-1.4-2.4-2.8-2.2c-1.4,0.1-2.4,1.4-2.2,2.8
					c0.6,5.5,2.5,10.7,4.9,15.7c-5-1.4-10-2.6-14.9-3.4c-1.4-0.2-2.7,0.7-2.9,2.1c-0.2,1.4,0.7,2.7,2.1,2.9c4.8,0.8,9.7,2,14.8,3.4
					l-9,6.3c-1.1,0.8-1.4,2.4-0.6,3.5c0.5,0.7,1.3,1.1,2.1,1.1c0.5,0,1-0.1,1.4-0.5l7.5-5.2c-0.5,2.5-1,4.9-1.5,7.3
					c-0.7,3.6-1.4,7.1-2.2,10.3c-0.3,1.3,0.5,2.7,1.8,3c0.2,0.1,0.4,0.1,0.6,0.1c1.1,0,2.1-0.8,2.4-1.9c0.8-3.4,1.5-6.9,2.3-10.6
					c0.6-2.8,1.1-5.6,1.7-8.3c0.5,0.8,0.9,1.5,1.4,2.2c2.3,3.9,4.5,7.5,6,10.9c0.4,0.9,1.3,1.5,2.3,1.5c0.3,0,0.7-0.1,1-0.2
					C51.1,256,51.6,254.5,51.1,253.2"/>
				<path class="st2" d="M93.7,256.1c-0.6-4.8-1-11.3-1.2-18.3c3.5,2.4,7.3,4.3,11.5,5.6c0.4,0.1,0.7,0.2,1.1,0.2
					c1.6,0,3.1-1,3.6-2.6c0.6-2-0.5-4.1-2.5-4.7c-3.3-1-6.4-2.6-9.3-4.5c5.6-1.1,10.9-1.6,14.9-1.4c2,0.1,3.8-1.6,3.9-3.6
					c0.1-2.1-1.5-3.8-3.6-3.9c-3.9-0.1-8.8,0.3-14.2,1.2c2-2.7,4-5.3,6-7.9c1.3-1.6,1-4-0.6-5.3c-1.6-1.3-4-1-5.3,0.6
					c-2,2.5-3.9,5.1-5.9,7.7c0-0.3,0-0.6,0-0.9c-0.1-4.5-0.1-8.6-0.2-12c-0.1-2.1-1.7-3.8-3.9-3.7c-2.1,0.1-3.7,1.8-3.7,3.9
					c0.1,3.4,0.1,7.5,0.2,11.9c0,0.9,0,1.9,0,2.9c-1.4-1.4-2.8-2.9-4.3-4.4c-1.4-1.4-2.8-2.9-4.3-4.4c-1.5-1.5-3.8-1.5-5.3,0
					c-1.5,1.5-1.5,3.8,0,5.3c1.5,1.5,2.9,3,4.3,4.4c2.1,2.1,4.1,4.2,6.1,6.1c-5.8,1.9-11.3,4.2-15.7,6.8c-1.8,1.1-2.4,3.4-1.3,5.2
					c0.7,1.2,2,1.8,3.2,1.8c0.7,0,1.3-0.2,1.9-0.5c3.1-1.9,7-3.6,11.2-5.1c-2.2,3.4-4.3,6.8-6.4,10.3c-1.1,1.8-0.5,4.1,1.3,5.2
					c0.6,0.4,1.3,0.5,1.9,0.5c1.3,0,2.5-0.7,3.2-1.9c1.5-2.6,3.1-5.1,4.7-7.7c0.2,5.4,0.6,10.4,1.1,14.4c0.2,1.9,1.9,3.3,3.7,3.3
					c0.2,0,0.3,0,0.5,0C92.5,260.1,94,258.2,93.7,256.1"/>
				<path class="st2" d="M80.6,186.4c-3.8-1.5-8.4-3-13.4-4.3l7.9-7.5c1.5-1.4,1.6-3.8,0.1-5.3c-1.4-1.5-3.8-1.6-5.3-0.1l-3.6,3.5
					c0.5-2,0.9-4.1,1.4-6.1c0.5-2-0.7-4.1-2.8-4.6c-2-0.5-4.1,0.7-4.6,2.8c-0.7,2.8-1.3,5.6-1.9,8.4c-1.9-3.5-3.7-7-5.4-10.6
					c-0.9-1.9-3.2-2.6-5-1.7c-1.9,0.9-2.6,3.2-1.7,5c2.2,4.6,4.6,9,7,13.5c-4.9-0.7-9.9-1.2-14.7-1.2c-2.1,0-3.8,1.7-3.8,3.8
					c0,2.1,1.7,3.8,3.8,3.8c4,0,8.5,0.4,13.1,1.1l-6.7,6.4c-1.5,1.4-1.6,3.8-0.1,5.3c0.7,0.8,1.7,1.2,2.7,1.2c0.9,0,1.9-0.3,2.6-1
					l4.5-4.3c-0.5,3.8-1,7.6-1.4,11.4c-0.2,2.1,1.3,3.9,3.4,4.1c0.1,0,0.3,0,0.4,0c1.9,0,3.5-1.4,3.7-3.4c0.4-3.8,0.9-7.6,1.4-11.4
					c0.9,1.5,1.8,3,2.7,4.4c0.7,1.1,1.9,1.8,3.2,1.8c0.7,0,1.4-0.2,2-0.6c1.8-1.1,2.3-3.4,1.2-5.2c-1.1-1.7-2.1-3.4-3.1-5.2
					c3.4,1,6.7,2.1,9.8,3.3c0.4,0.2,0.9,0.3,1.4,0.3c1.5,0,2.9-0.9,3.5-2.4C83.5,189.3,82.5,187.2,80.6,186.4"/>
			</g>
		</g>
	</g>
</g>
<g id="XMLID_1_">
	<g>
		<path class="st3" d="M405.1,170.2c3.6,6.2,3.4,13.8,1.9,20.5c-0.8,3.7-1.9,7.5-3.3,11c-0.8,2.2-2.4,4.6-4.8,5
			c-0.4,0.1-0.8,0.1-1.3,0c-2.7-0.4-4.6-3-5.2-5.5c-0.8-3.3,1-6.6,2.3-9.5c1.4-3.3,2.1-6.6,1.4-10.1c-0.1-0.5-0.2-1-0.3-1.4
			c-0.1,0.2-0.3,0.3-0.5,0.5c-1.1,0.6-2.6,0.5-3.8,0.5c-1.3,0.1-2.6,0.1-4,0.2c-2.5,0.1-5,0.2-7.4,0.2c-4.9,0.2-9.9,0.2-14.8,0.3
			c-5,0-9.9,0-14.9-0.2c-2.5-0.1-4.9-0.2-7.4-0.3c-1.3,0-2.6-0.1-4-0.2c-1.1-0.1-2.2-0.1-3.2-0.7c-0.5-0.3-0.3-0.9,0.1-1.1
			c1-0.6,2.2-0.5,3.4-0.5c1.2,0,2.5,0,3.7,0c2.5,0,5,0,7.5,0c5-0.1,9.9-0.1,14.9-0.2c5.1-0.1,10.1-0.2,15.2-0.4
			c2.5-0.1,5-0.2,7.4-0.3c1.1-0.1,2.3-0.1,3.5-0.2c0.5,0,1-0.1,1.5-0.1c-0.1-0.1-0.2-0.1-0.3-0.2c-0.4-0.4-0.3-0.9-0.2-1.4
			c0-0.1,0-0.3,0-0.4c0-0.1,0-0.2,0-0.2c0-0.6-0.1-1.1-0.2-1.7c-0.2-0.3-0.5-0.5-0.8-0.8c-0.9-0.9,0.6-2.1,1.5-1.2
			c1.1,1.1,2,2.3,2.8,3.6c1.5,2.7,2.4,5.8,2.4,8.9c0,3.4-1.2,6.4-2.5,9.5c-1.3,3-2.7,6.7-0.3,9.6c0.9,1.1,2.2,1.8,3.6,1.3
			c1.4-0.5,2.2-2.1,2.7-3.4c1.4-3.6,2.5-7.4,3.4-11.1c0.8-3.6,1.2-7.4,0.8-11.1c-0.8-6.7-4.5-12.4-10.9-15
			c-6.3-2.5-13.5-2.1-20.1-1.9c-8.3,0.2-16.6,0.6-24.9,0.6c-8.5,0-16.9-0.2-25.4-0.4c-4.1-0.1-8.3-0.3-12.5-0.4
			c-3.8-0.2-7.6-0.2-11.4-0.8c-3.1-0.5-6.3-1.4-8.8-3.5c-2.1-1.8-3.4-4.2-3.9-6.9c-1-5.3,0.9-11.8,4.9-15.3c0.1-0.1,0.2-0.1,0.4,0
			c0.3-0.4,0.7-0.8,1-1.2c1.1-1.3,2-2.6,2.8-4c0.2-0.3,0.3-0.6,0.5-0.9l1,0.5c-0.1,0.2-0.2,0.4-0.3,0.6c-0.8,1.5-1.7,2.9-2.5,4.4
			c-0.8,1.4-1.9,2.9-3.3,3.8c-0.1,0.1-0.3,0.1-0.5,0.1c-0.2,0.4-0.4,0.8-0.6,1.1c-2.5,5.3-3.3,12.8,1.8,16.8c2.8,2.2,6.4,2.7,9.8,3
			c4.1,0.3,8.2,0.4,12.2,0.6c8.7,0.4,17.4,0.6,26.1,0.7c8.6,0.1,17.3-0.1,25.9,0.1C379.7,161.1,397.4,157.2,405.1,170.2z M395,177.9
			c-0.1-0.3-0.2-0.5-0.4-0.8c-0.1,0.3-0.3,0.5-0.5,0.6C394.4,177.7,394.7,177.8,395,177.9z"/>
		<path class="st4" d="M405.8,179c0.4,3.7,0,7.4-0.8,11.1c-0.8,3.7-2,7.6-3.4,11.1c-0.5,1.3-1.2,2.9-2.7,3.4
			c-1.4,0.5-2.7-0.2-3.6-1.3c-2.4-2.9-1-6.6,0.3-9.6c1.4-3.1,2.6-6,2.5-9.5c0-3.1-0.8-6.2-2.4-8.9c-0.8-1.3-1.7-2.5-2.8-3.6
			c-0.9-0.9-2.4,0.4-1.5,1.2c0.3,0.2,0.5,0.5,0.8,0.8c0.1,0.6,0.2,1.1,0.2,1.7c0,0.1,0,0.2,0,0.2l-0.3,0c0-0.6-0.6-1.3-1.4-1.1
			c-3.9,1.3-8.4,0.8-12.5,0.8c-4.3-0.1-8.6-0.1-12.9-0.2c-4.3-0.1-8.6-0.2-12.9-0.3c-2.1-0.1-4.3-0.2-6.5-0.2c-0.1,0-0.8,0-1.5,0.1
			c0.1-0.1,0.3-0.1,0.4-0.2c1.1-0.5,0.3-2.2-0.7-1.7c-6.6,3.7-13.4,7.1-20.1,10.5c-2.4,1.2-6.7,3-8.7,0c-0.8-1.3-0.7-3.1,0.1-4.4
			c0.9-1.5,2.4-2.2,3.9-3c0.4-0.2,0.2-0.8-0.2-0.8c-0.4,0-0.9,0.1-1.3,0.2c0.1-0.5-0.1-1.1-0.8-1.2c-3-0.2-6-0.2-9-0.3
			c-1.2,0-2.5,0-3.5-0.6c-0.9-0.5-1.6-1.7-0.9-2.6c0.5-0.7,0-1.6-0.8-1.7c-5.5-1.2-10.2-4.5-14.7-7.8c-2.2-1.6-4.4-3.2-6.1-5.4
			c-1.7-2.1-2.5-4.7-2.8-7.4c-0.5-5.8,2.1-11.2,5.2-15.9c1.5-2.2,3.1-4.5,4.8-6.6c1.5-1.8,3.5-3.7,6-3.4c3.5,0.4,3.3,3.9,2.2,6.5
			c-0.1,0.3-0.3,0.7-0.5,0.9c-0.8,1.5-1.7,2.7-2.8,4c-0.3,0.4-0.7,0.8-1,1.2c-0.1-0.1-0.2-0.1-0.4,0c-4.1,3.5-5.9,10.1-4.9,15.3
			c0.5,2.7,1.8,5.1,3.9,6.9c2.4,2.1,5.6,3.1,8.8,3.5c3.8,0.6,7.6,0.6,11.4,0.8c4.2,0.2,8.3,0.3,12.5,0.4c8.5,0.2,16.9,0.4,25.4,0.4
			c8.3,0,16.6-0.3,24.9-0.6c6.7-0.2,13.8-0.7,20.1,1.9C401.3,166.5,404.9,172.3,405.8,179z"/>
		<path class="st3" d="M400.7,221.1c0,4.3,0,8.6,0,12.9c0,4.2,0,8.3-0.1,12.5c0,2.2,0,4.3,0,6.5c0,1.9,0.5,4.6-0.9,6
			c-0.3,0.3-0.8,0.4-1.2,0.3c-0.4-0.1-0.7-0.3-0.9-0.5c-0.9-0.9-0.7-2-0.7-3.1c0-1,0-2.1,0-3.1c0-2.1,0-4.2,0-6.2
			c0-4.2,0-8.3,0-12.5c0-0.5,0-1,0-1.6c-0.4,0.1-0.8,0.2-1.3,0.3c-0.4,0-0.7,0.1-1.1,0.1c-0.7,0-1.4,0-2,0.1c-1.5,0-3.1,0-4.7,0
			c-3.1,0-6.2,0.1-9.3-0.2c-0.9-0.1-0.9-1.4,0-1.5c3.1-0.3,6.2-0.3,9.4-0.3c1.6,0,3.2,0,4.8,0.1c0.7,0,1.4,0,2.1,0.1
			c0.4,0,0.8,0,1.2,0.1c0.3,0,0.5,0.2,0.8,0.2c0-3.5,0.1-7,0.1-10.5c0-2.2,0.1-4.3,0.1-6.4c0-2.1,0-4.3,0.5-6.4c0.1-0.6,0.5-0.9,1-1
			c0.5-0.1,1.1,0.2,1.3,0.9c0.5,2.2,0.4,4.5,0.5,6.8C400.7,216.8,400.7,219,400.7,221.1z"/>
		<path class="st3" d="M398.9,260.3c1.6,0.3,1.9,2.9,0.1,3c-6.8,0.5-13.7-0.1-20.5-0.4c-6.9-0.3-13.9-0.5-20.9-0.8
			c-13.6-0.5-27.3-0.9-41-1.2c-49-1.1-98-1.1-147-0.1c-12.1,0.2-24.3,0.6-36.5,0.9c-12,0.4-24,0.7-35.9,0.2
			c-11.9-0.5-23.7-2.4-35.6-2.5c-12.3-0.1-24.5,1.9-36.7,3.2c-1.3,0.1-2-0.9-2-1.9c-0.5-0.2-1-0.6-1.2-1.3c-1.8-8-1.5-16.1-0.8-24.2
			c0.4-4.1,0.8-8.2,1.2-12.4c0.3-3.9,0.4-7.9,0.5-11.8c-2.8-1.1-4.3-4.3-5.1-7.1c-2.2-8.3-4-17.6-1.7-26.1c2.2-8,8.8-13.2,16.5-15.6
			c3.9-1.2,7.9-1.8,11.9-2c4.7-0.2,9.5,0.2,14.2-0.5c4.7-0.7,8.9-2.6,12.2-6.1c3-3.2,5-7.1,6.3-11.2c1.6-5.1,2.1-10.4,2.7-15.6
			c0.4-3.8,0.5-8.1,3-11.3c1.9-2.4,5.4-3.2,7.3-0.4c2.1,3,1,7.3,0.4,10.6c-2.2,14-5.5,29-15.2,39.7c1.1-0.6,2.2-1.1,3.3-1.6
			c-0.4,0.4-0.8,0.8-1.1,1.3c-0.1,0.1-0.2,0.2-0.3,0.2c10.4-3.5,21.3-5.3,32.3-5.6c20.6-0.5,41.8,4.5,59.7,14.8
			c2.2,1.3,4.7,2.6,6.7,4.2c0.5,0.4,0.8,0.9,0.9,1.4c0.3,1.2,0,2.7-0.8,3.7c-3.1,4.5-8.5,2.2-12-0.3c-1.9-1.3-3.8-2.5-5.7-3.7
			c-0.1,0.7-0.5,1.4-1.3,1.4c-5.8,0.5-11.8,0.2-17.6,0.2c-10.4,0.1-20.7,0-31.1,0c-5.2,0-10.5,0-15.7,0c-2.6,0-5.2,0-7.7,0
			c-2.6,0-5.3,0.1-8-0.2c-0.7-0.1-1-0.7-1-1.2c-2.7,1.1-5.4,2.3-8,3.5c-3.5,1.6-7.7,4.4-11.6,3.4c-2.6-0.7-4.7-3.1-4.1-5.8l1,0.2
			c-0.1,0.4-0.1,0.8,0,1.2c0.7,4.3,6.4,3.5,9.1,2.2c3.7-1.6,7.2-3.5,10.9-5.1c7.3-3.4,15-6.2,22.6-8.9c0.4-0.2,1,0.1,1.1,0.6
			c0.2,1.4,0.3,2.8,0.4,4.1c11.7,0.3,23.3,0.1,35-0.6c-0.1-1.2-0.2-2.5-0.3-3.7c-0.1-0.6,0.3-1,0.9-1c5.8,0.4,11.6,1.5,17.1,3.5
			c5.5,2,10.5,4.9,15.3,8.2c1.9,1.3,4.4,3.1,6.9,2.4c1.4-0.4,4.1-2.7,2.6-4.2c-0.9-0.9-2.2-1.5-3.2-2.1c-1-0.6-1.9-1.2-2.9-1.8
			c-2.1-1.2-4.3-2.4-6.5-3.5c-8.9-4.4-18.3-7.7-28-9.6c-17.3-3.5-35.2-2.7-52.2,2c-0.1,0-0.1,0.1-0.2,0.1c-2.7,1-5.3,2-7.9,3.1
			c-0.1,0-0.1-0.1-0.1-0.1c0.9-0.5,1.9-1,2.8-1.4c-0.3,0.1-0.5,0.2-0.8,0.2c-0.1,0.1-0.3,0-0.4,0c-1.5,0.8-3,1.6-4.4,2.5
			c-0.7,0.4-1.4-0.7-0.8-1.2c1.5-1.2,3-2.6,4.2-4.1c5.1-5.8,8.2-12.9,10.4-20.3c1.1-3.8,2-7.7,2.8-11.6c0.7-3.8,1.5-7.6,1.9-11.4
			c0.2-1.6,0.2-3.6-0.7-5c-1-1.4-2.8-1.5-4-0.5c-3,2.5-3,7.1-3.3,10.7c-0.8,8.8-1.8,17.9-6.8,25.3c-2.1,3.1-4.9,5.8-8.3,7.5
			c-4,2-8.4,2.4-12.8,2.5c-4.2,0.1-8.4-0.1-12.6,0.4c-3.8,0.4-7.5,1.3-11.1,2.8c-3.5,1.5-6.7,3.7-9,6.7c-2.6,3.3-3.9,7.4-4.3,11.5
			c-0.4,4.3,0.2,8.6,1,12.8c0.4,2,0.8,4,1.2,6c0.5,2.1,0.9,4.5,2.3,6.2c0.6,0.7,1.4,1.4,2.3,1.7c0.5-0.3,1.3-0.2,1.7,0.2
			c0.4,0,0.9-0.1,1.3-0.3c1.9-1,1.8-3.6,1.5-5.4c-0.4-2.1-1.1-4.1-1.6-6.2c-0.6-2.3-1-4.6-1.3-7l0.8-0.1c0.3,2.3,0.9,4.6,1.5,6.8
			c0.6,2.1,1.5,4.1,1.9,6.3c0.6,3-0.2,6.7-3.7,7.1c0.5,3.8,0.4,7.6,0.2,11.4c-0.1,2.9-0.4,5.7-0.6,8.6c3.6-0.5,7.3-0.3,11-0.2
			c1.9,0,3.7,0.1,5.6,0.2c1,0,2,0.1,3,0.2c1,0.1,1.8,0.1,2.6,0.5c0.8,0.4,0.5,1.6-0.2,1.9c-0.8,0.4-1.8,0.3-2.7,0.3
			c-0.9,0-1.9,0-2.8,0c-1.8-0.1-3.7-0.1-5.6-0.2c-3.7-0.2-7.4-0.2-11-1c0,0.6-0.1,1.2-0.1,1.9c-0.6,6.8-0.9,13.7,0.1,20.5
			c0.5,0.3,0.8,0.8,0.5,1.5c-0.1,0.3-0.1,0.6-0.1,1c0.1,0.4,0.1,0.7,0.2,1c0,0,0,0,0,0c13-2.3,26.4-3.8,39.7-3.4
			c13.4,0.4,26.7,2.4,40.1,2.6c12.2,0.2,24.3-0.3,36.4-0.7c12.3-0.4,24.7-0.6,37-0.9c24.3-0.4,48.7-0.6,73-0.5
			c24.6,0.1,49.2,0.4,73.7,1c12.2,0.3,24.3,0.7,36.5,1.1c6.2,0.2,12.4,0.5,18.6,0.7c6,0.2,12.1,0.2,18.1,1.2
			C398.6,260.3,398.7,260.3,398.9,260.3z M141.3,178.5c4.5,0,9.1-0.3,13.7-0.1c-1.9-0.9-3.8-1.8-5.8-2.5c-5-1.9-10.3-3-15.6-3.4
			c0.1,1.2,0.2,2.4,0.3,3.6c0,0.4-0.2,0.9-0.7,1c-6.6,0.3-13.1,0.5-19.7,0.6c-5.7,0.1-11.4,0.1-17.1-0.1c-0.3,0-0.7-0.4-0.7-0.7
			c-0.1-1.3-0.2-2.6-0.3-3.9c-4.8,1.6-9.5,3.4-14.2,5.3c-0.7,0.3-1.5,0.6-2.2,0.9c2.2-0.1,4.5-0.1,6.7-0.1c2.9,0,5.8-0.1,8.7-0.1
			c6.4-0.1,12.8-0.2,19.1-0.2c4-0.1,8-0.1,12-0.2C130.8,178.6,136,178.5,141.3,178.5z"/>
		<path class="st4" d="M398.9,206.8L398.9,206.8c-0.5,0.1-0.9,0.5-1,1.1c-0.5,2.1-0.5,4.3-0.5,6.4c-0.1,2.1-0.1,4.3-0.1,6.4
			c0,3.5-0.1,7-0.1,10.5c-0.3-0.1-0.5-0.2-0.8-0.2c-0.4-0.1-0.8-0.1-1.2-0.1c-0.7-0.1-1.4-0.1-2.1-0.1c-1.6,0-3.2-0.1-4.8-0.1
			c-3.1,0-6.3-0.1-9.4,0.3c-0.9,0.1-0.8,1.4,0,1.5c3.1,0.3,6.2,0.3,9.3,0.2c1.6,0,3.1,0,4.7,0c0.7,0,1.4,0,2-0.1
			c0.4,0,0.7-0.1,1.1-0.1c0.5,0,0.8-0.2,1.3-0.3c0,0.5,0,1,0,1.6c0,4.2,0,8.3,0,12.5c0,2.1,0,4.2,0,6.2c0,1.1,0,2.1,0,3.1
			c0,1.1-0.1,2.2,0.7,3.1c0.2,0.2,0.5,0.4,0.9,0.5l-0.1,0.9c-6-1-12.1-1-18.1-1.2c-6.2-0.2-12.4-0.5-18.6-0.7
			c-12.2-0.4-24.3-0.8-36.5-1.1c-24.6-0.6-49.2-0.9-73.7-1c-24.3-0.1-48.7,0.1-73,0.5c-12.3,0.2-24.7,0.5-37,0.9
			c-12.1,0.3-24.3,0.9-36.4,0.7c-13.4-0.2-26.7-2.3-40.1-2.6c-13.3-0.4-26.6,1.1-39.7,3.4c0,0,0,0,0,0c-0.1-0.3-0.1-0.7-0.2-1
			c0-0.3,0-0.6,0.1-1c0.2-0.7-0.1-1.2-0.5-1.5c-1-6.8-0.7-13.6-0.1-20.5c0-0.6,0.1-1.2,0.1-1.9c3.6,0.8,7.3,0.8,11,1
			c1.8,0.1,3.7,0.2,5.6,0.2c0.9,0,1.9,0,2.8,0c0.9,0,1.9,0.1,2.7-0.3c0.7-0.3,1-1.5,0.2-1.9c-0.9-0.5-1.7-0.5-2.6-0.5
			c-1-0.1-2-0.1-3-0.2c-1.9-0.1-3.7-0.1-5.6-0.2c-3.7-0.1-7.3-0.3-11,0.2c0.2-2.9,0.5-5.7,0.6-8.6c0.2-3.8,0.3-7.6-0.2-11.4
			c3.5-0.4,4.3-4.1,3.7-7.1c-0.4-2.1-1.3-4.2-1.9-6.3c-0.7-2.2-1.3-4.5-1.5-6.8c1,0.5,2.2,0.7,3.3,0.8c1.5,0.2,2.9,0.4,4.4,0.5
			c3.1,0.4,6.2,0.6,9.3,0.8c3,0.2,6.1,0.4,9.1,0.4c3,0.1,6.1,0.1,9.1-0.4c0.8-0.1,0.7-1.2,0-1.3c-2.9-0.6-6.1-0.7-9-0.8
			c-3-0.1-6.1-0.3-9.1-0.5c-3-0.2-5.9-0.4-8.8-0.7c-1.6-0.1-3.1-0.3-4.7-0.4c-1.3-0.1-2.5-0.2-3.7,0.1c-0.1-1.8-0.1-3.6,0.2-5.3
			c0.2-1.2,0.5-2.3,0.9-3.4c0.1,0.2,0.3,0.5,0.7,0.6c4.1,1.6,9,1.2,13.3,1.1c2.2,0,4.5-0.1,6.7-0.2c1.7-0.1,3.9,0.1,5.2-1.2
			c0,0,0,0,0,0.1c-0.6,2.7,1.5,5.1,4.1,5.8c4,1,8.2-1.8,11.6-3.4c2.7-1.2,5.3-2.4,8-3.5c0,0.6,0.3,1.2,1,1.2c2.6,0.3,5.3,0.2,8,0.2
			c2.6,0,5.1,0,7.7,0c5.2,0,10.5-0.1,15.7,0c10.4,0,20.7,0.1,31.1,0c5.9,0,11.8,0.2,17.6-0.2c0.8-0.1,1.3-0.7,1.3-1.4
			c1.9,1.1,3.9,2.4,5.7,3.7c3.5,2.5,9,4.8,12,0.3c0.7-1,1.1-2.5,0.8-3.7l0.1,0c0.1,0.4,0.5,0.8,1,0.8c5.3,0.4,10.6,0.4,15.9,0.5
			c5.3,0.1,10.7,0.1,16,0.1c10.7,0.1,21.5,0.1,32.2,0.1c21.3,0.1,42.6,0.2,64,0.3c1.5,0,3,0,4.5,0c0.9,0,1.8,0,2.5-0.4
			c0.3,3.4,3.6,5.2,6.9,4.8c2-0.2,3.9-1.2,5.6-2.1c2.1-1.1,4.2-2.3,6.3-3.4c1.3-0.7,2.6-1.4,4-2.1l0.1,0.2c-0.4,0.2-0.6,0.9-0.1,1.1
			c1,0.6,2.1,0.6,3.2,0.7c1.3,0.1,2.6,0.2,4,0.2c2.5,0.1,4.9,0.2,7.4,0.3c5,0.2,9.9,0.2,14.9,0.2c4.9,0,9.9-0.1,14.8-0.3
			c2.5-0.1,5-0.1,7.4-0.2c1.3-0.1,2.6-0.1,4-0.2c1.2-0.1,2.7,0.1,3.8-0.5c0.2-0.1,0.4-0.3,0.5-0.5c0.1,0.5,0.2,0.9,0.3,1.4
			c0.6,3.5,0,6.8-1.4,10.1c-1.3,2.9-3.1,6.2-2.3,9.5c0.6,2.5,2.4,5.2,5.2,5.5C398,206.9,398.4,206.9,398.9,206.8z M397.2,209.8
			c0.5,0,0.5-0.9,0-0.9c-1.3-0.1-2.5-0.3-3.8-0.4c-1.2,0-2.5-0.1-3.7-0.1c-2.4,0-5-0.2-7.4,0.2c-0.8,0.1-0.7,1.2,0,1.3
			c2.4,0.4,5,0.2,7.5,0.2c1.2,0,2.4,0,3.6-0.1C394.7,210.1,395.9,209.9,397.2,209.8z M396,250.6c0.4-0.1,0.4-0.6,0-0.7
			c-2.6-0.5-5.4-0.4-8.1-0.4c-2.8-0.1-5.6-0.1-8.4-0.2c-5.4-0.2-10.8-0.9-16.2-0.6c-0.8,0-0.6,1.2,0,1.3c5.3,1.2,11,1.1,16.4,1.2
			c2.6,0.1,5.2,0.1,7.9,0.1C390.4,251.2,393.3,251.2,396,250.6z M394.3,191.3c0.9-0.1,0.9-1.5,0-1.6c-5-0.5-10.2-0.3-15.2-0.3
			c-2.5,0-4.9,0-7.4,0c-1.3,0-2.6,0-3.9,0c-1.2,0-2.3-0.1-3.4,0.3c-0.8,0.2-0.7,1.5,0,1.7c1.2,0.4,2.4,0.3,3.7,0.3
			c1.3,0,2.6,0,3.9,0c2.5,0,4.9,0,7.4,0C384.3,191.5,389.3,191.8,394.3,191.3z M359.4,192.7c0.7-0.2,0.6-1.1,0-1.2
			c-2-0.5-4.1-0.4-6.1-0.5c-2.1,0-4.3,0-6.4,0c-2,0-4,0-5.9,0c-2,0.1-4,0-5.9,0.6c-0.2,0.1-0.2,0.5,0,0.6c1.8,0.6,3.8,0.6,5.7,0.6
			c2.1,0.1,4.3,0.1,6.4,0.2c2.1,0,4.1,0,6.2,0.1C355.3,193.1,357.4,193.2,359.4,192.7z M136.8,192.3c0.8-0.1,1-1.4,0.2-1.6
			c-1.4-0.4-2.8-0.4-4.2-0.5c-1.5-0.1-3-0.2-4.5-0.2c-1.5-0.1-2.9-0.2-4.4-0.2c-1.4,0-3-0.1-4.4,0c-0.6,0.1-0.7,1-0.1,1.1
			c1.3,0.3,2.8,0.4,4.1,0.6c1.5,0.2,3,0.2,4.5,0.4c1.4,0.1,2.9,0.2,4.4,0.3C133.9,192.3,135.4,192.6,136.8,192.3z M59.8,249.1
			c0.9-0.3,0.9-1.8-0.1-2.1c-1.3-0.3-2.5-0.2-3.9-0.2c-1.5,0.1-3,0.1-4.5,0.2c-2.9,0.2-5.8,0.3-8.7,0.4c-5.8,0.3-11.6,0.4-17.4,1
			c-0.5,0.1-1.1,0.6-1.1,1.1c0,0.2-0.1,0.2,0,0.4c0,0,0-0.1,0-0.1c0.1,0.5,0.6,1.1,1.1,1.1c5.8,0,11.5-0.4,17.3-0.7
			c2.8-0.1,5.7-0.3,8.5-0.4c1.5-0.1,3-0.2,4.5-0.3C57,249.5,58.5,249.6,59.8,249.1z M38.4,210.7c0.7-0.3,0.6-1.2,0-1.5
			c-0.8-0.4-1.7-0.2-2.6-0.3c-0.8-0.1-1.6,0-2.4,0c-0.8,0-1.7,0-2.5,0.1c-0.4,0-0.9,0.1-1.3,0.1c-0.4,0-0.7,0.1-1,0.4l0,0
			c-0.4,0.1-0.6,0.8-0.1,0.9c0.1,0.1,0.2,0.1,0.3,0.2c0.1,0.1,0.2,0.1,0.4,0.1c0.2,0.1,0.4,0.1,0.6,0.1c0.4,0,0.9,0.1,1.3,0.1
			c0.8,0.1,1.6,0.1,2.4,0.1c0.8,0,1.7,0.1,2.5,0C36.7,210.9,37.6,211,38.4,210.7z"/>
		<path class="st3" d="M397.2,208.9c0.5,0.1,0.5,0.9,0,0.9c-1.3,0.1-2.5,0.3-3.8,0.4c-1.2,0.1-2.4,0.1-3.6,0.1
			c-2.5,0-5.1,0.2-7.5-0.2c-0.7-0.1-0.8-1.2,0-1.3c2.4-0.4,5-0.2,7.4-0.2c1.2,0,2.5,0,3.7,0.1C394.7,208.5,395.9,208.7,397.2,208.9z
			"/>
		<path class="st3" d="M396,249.9c0.4,0.1,0.4,0.6,0,0.7c-2.7,0.7-5.5,0.6-8.3,0.7c-2.6,0.1-5.2,0-7.9-0.1c-5.4-0.1-11.1,0-16.4-1.2
			c-0.7-0.2-0.9-1.3,0-1.3c5.4-0.3,10.8,0.5,16.2,0.6c2.8,0.1,5.6,0.1,8.4,0.2C390.6,249.5,393.3,249.4,396,249.9z"/>
		<path class="st3" d="M394.3,189.6c0.9,0.1,1,1.5,0,1.6c-5,0.5-10,0.3-15,0.3c-2.5,0-4.9,0-7.4,0c-1.3,0-2.6,0-3.9,0
			c-1.2,0-2.5,0.1-3.7-0.3c-0.7-0.2-0.8-1.5,0-1.7c1.1-0.3,2.3-0.3,3.4-0.3c1.3,0,2.6,0,3.9,0c2.5,0,4.9,0,7.4,0
			C384.1,189.3,389.2,189.1,394.3,189.6z"/>
		<path class="st3" d="M392.5,264.3c1.3,0.3,1.4,1.9,0.3,2.4c0,0.3,0,0.6,0,0.9c0,1.3-0.1,2.6-0.2,3.9c-0.1,2.1-0.3,4.2-0.9,6.2
			c-0.8,3.2-3,6.2-6.5,6.7c-3.3,0.5-6.6-1.4-8.5-3.9c-2.4-3.1-2.6-7.2-2.3-11c0.1-1,0.3-2.1,0.5-3.1c0.2-0.8,0.3-1.7,0.8-2.4
			c0.6-0.7,2.2-1.3,2.5-0.1c2.3-0.2,4.7-0.2,7-0.1c1.2,0,2.4,0.1,3.6,0.2c0.5,0,1.1,0.1,1.7,0.1c0,0,0,0,0,0c0.4-0.3,1-0.3,1.3,0
			c0.1,0.1,0.2,0.2,0.3,0.3C392.3,264.3,392.4,264.3,392.5,264.3z M389.8,269c0-0.8,0-1.6,0-2.4c-0.4,0-0.8-0.1-1.2-0.1
			c-1.2-0.1-2.3-0.2-3.5-0.3c-2.4-0.1-4.7-0.1-7.1-0.3c-0.2,0-0.4-0.1-0.6-0.3c0,0.1,0,0.1,0,0.2c-0.1,0.8-0.2,1.7-0.2,2.5
			c-0.1,1.8-0.3,3.5-0.1,5.3c0.3,2.7,1.4,5.1,3.6,6.6c1.7,1.2,4.1,1.7,5.9,0.3c1.9-1.5,2.4-4.2,2.7-6.6
			C389.6,272.4,389.7,270.7,389.8,269z"/>
		<path class="st3" d="M392.2,175.7c0,0.3-0.2,0.7-0.6,0.8c-3.7,1.2-7.7,0.9-11.5,0.9c-4.3,0-8.6-0.1-12.9-0.2
			c-4.3-0.1-8.6-0.2-12.9-0.3c-2.2-0.1-4.3-0.2-6.5-0.3c-1,0-2-0.1-3-0.2c-0.7-0.1-1.3-0.1-1.6-0.8c0-0.1,0-0.1,0-0.2
			c-2.5,1.2-4.9,2.5-7.3,3.8c-1.3,0.7-2.6,1.4-4,2.1c-2.1,1.1-4.2,2.3-6.3,3.4c-1.8,0.9-3.6,1.9-5.6,2.1c-3.2,0.4-6.6-1.4-6.9-4.8
			c-0.8,0.4-1.6,0.4-2.5,0.4c-1.5,0-3,0-4.5,0c-21.3-0.1-42.6-0.2-64-0.3c-10.7-0.1-21.5-0.1-32.2-0.1c-5.3,0-10.7,0-16-0.1
			c-5.3-0.1-10.6,0-15.9-0.5c-0.5-0.1-0.9-0.4-1-0.8c-0.2-0.7,0.1-1.6,0.9-1.6c5.3-0.4,10.6-0.3,15.9-0.4c5.2,0,10.5,0,15.8,0
			c18.7,0.1,37.3,0.2,56,0.1c9.4,0,18.8,0,28.2,0c4.7,0,9.3,0,14,0c0.1,0,0.2,0,0.3,0c0-1,0.4-1.9,1.1-2.7c-1.4,0-2.9,0-4.3-0.4
			c-2.1-0.6-4.1-2.7-3.6-4.9c-3-0.8-5.7-2.1-8.4-3.8c-3.1-1.9-6.1-4.2-8.9-6.5c-2.4-2-4.5-4.4-5.6-7.4c-1.1-2.9-1.3-6-0.8-9.1
			c1-6.5,4.9-12.1,8.7-17.2c1.7-2.2,3.5-4.7,6.2-5.6c2.1-0.7,4.7-0.4,6.2,1.3c1.8,2.2,0.9,4.8-0.2,7.1l-1-0.5
			c1.1-2.6,1.3-6.1-2.2-6.5c-2.5-0.3-4.5,1.6-6,3.4c-1.7,2.1-3.3,4.3-4.8,6.6c-3.1,4.7-5.7,10.1-5.2,15.9c0.2,2.7,1.1,5.2,2.8,7.4
			c1.7,2.1,3.9,3.8,6.1,5.4c4.5,3.3,9.2,6.6,14.7,7.8c0.8,0.2,1.3,1,0.8,1.7c-0.7,0.9,0,2.1,0.9,2.6c1.1,0.6,2.4,0.6,3.5,0.6
			c3,0.1,6,0.1,9,0.3c0.7,0,0.9,0.6,0.8,1.2c0.4-0.1,0.8-0.2,1.3-0.2c0.5,0,0.6,0.5,0.2,0.8c-1.4,0.8-3,1.6-3.9,3
			c-0.8,1.3-0.9,3.1-0.1,4.4c1.9,3,6.2,1.3,8.7,0c6.7-3.5,13.5-6.8,20.1-10.5c1-0.6,1.8,1.1,0.7,1.7c-0.1,0.1-0.2,0.1-0.4,0.2
			c0.7-0.1,1.4-0.1,1.5-0.1c2.1,0,4.3,0.1,6.5,0.2c4.3,0.1,8.6,0.2,12.9,0.3c4.3,0.1,8.6,0.2,12.9,0.2c4.1,0,8.5,0.5,12.5-0.8
			C391.5,174.3,392.2,175,392.2,175.7z M316,176.2c-0.6,0-1.2,0-1.9,0c0.1,0.1,0.2,0.3,0.3,0.4c0.1,0.2,0.2,0.5,0.3,0.7
			C315.1,176.8,315.5,176.5,316,176.2z"/>
		<path class="st4" d="M389.8,266.6c0,0.8,0,1.6,0,2.4c-0.1,1.7-0.2,3.4-0.4,5.1c-0.3,2.3-0.8,5-2.7,6.6c-1.8,1.4-4.2,0.9-5.9-0.3
			c-2.2-1.6-3.3-4-3.6-6.6c-0.2-1.8-0.1-3.5,0.1-5.3c0.1-0.9,0.1-1.7,0.2-2.5c0-0.1,0-0.2,0-0.2c0.2,0.1,0.3,0.2,0.6,0.3
			c2.4,0.2,4.7,0.2,7.1,0.3c1.2,0.1,2.3,0.2,3.5,0.3C389,266.5,389.4,266.5,389.8,266.6z"/>
		<path class="st3" d="M386.8,133.3c2,2.6,3.1,6,2.5,9.3c-0.6,3.3-2.8,6-5.1,8.4c-2.4,2.4-5.2,4.6-8.7,4.6c-3.5,0-6.8-1.9-9.7-3.6
			c-2.6-1.5-5.3-3.4-6.6-6.2c-1.4-3.3-0.5-6.9,1.1-10c2.2-4.2,7.1-10,12.3-9.1C378,126.4,383.5,128.9,386.8,133.3z M384.5,147.1
			c1.8-2.2,3-4.8,2.5-7.6c-0.4-2.7-2-5.1-4.1-6.9c-3.9-3.3-9.1-4.3-14-3.4c-1,0.5-1.9,1.1-2.8,1.8c-2.3,2.1-4.2,5.3-5.1,8.3
			c-0.8,2.8-0.4,5.6,1.7,7.7c1.8,1.8,4.3,3.1,6.6,4.2c2.7,1.4,5.8,2.6,8.8,1.3C380.6,151.5,382.8,149.2,384.5,147.1z"/>
		<path class="st4" d="M387,139.5c0.5,2.9-0.8,5.4-2.5,7.6c-1.7,2.1-3.9,4.4-6.4,5.5c-3,1.3-6.1,0-8.8-1.3c-2.3-1.1-4.8-2.4-6.6-4.2
			c-2.1-2.1-2.5-4.9-1.7-7.7c0.9-3,2.8-6.1,5.1-8.3c0.8-0.8,1.8-1.4,2.8-1.8c4.9-1,10.2,0.1,14,3.4C385,134.4,386.6,136.8,387,139.5
			z"/>
		<path class="st3" d="M373.4,264.5c0.3,1.1,0.2,2.5,0.2,3.6c0,1.2-0.1,2.4-0.2,3.6c-0.2,1.9-0.4,3.7-1,5.5c-0.9,3-2.6,6-5.5,7.3
			c-2.6,1.2-5.8,0.9-8.3-0.5c-2.9-1.6-4.3-4.6-4.4-7.8c-0.1-2,0.2-4.1,0.5-6.1c0.3-2.1,0.4-4.3,1.1-6.3c0.3-0.9,1.7-0.8,2,0
			c0.2,0,0.5,0,0.7-0.1c0.7-0.1,1.4-0.1,2.1-0.1c1.4,0,2.7,0,4.1,0c1.4,0,2.7,0,4.1,0c0.7,0,1.4,0,2.1,0c0.1,0,0.3,0,0.4,0
			C372,263.2,373.2,263.5,373.4,264.5z M370.8,270c0.1-1,0.1-1.9,0.1-2.9c0-0.3,0-0.6,0-0.9c-0.7,0-1.3,0-2,0
			c-1.4,0-2.8-0.1-4.2-0.1c-1.4-0.1-2.8-0.1-4.2-0.3c-0.7-0.1-1.4-0.1-2.1-0.2c-0.1,0-0.2,0-0.3,0c0,3.5-1,7.1-0.8,10.6
			c0.1,2.5,1.2,4.6,3.6,5.6c2,0.9,4.3,0.9,6.1-0.4c2-1.5,3-4.1,3.5-6.5C370.6,273.3,370.7,271.6,370.8,270z"/>
		<path class="st4" d="M370.9,267.1c0,1,0,2-0.1,2.9c-0.1,1.6-0.2,3.2-0.5,4.8c-0.5,2.4-1.4,5-3.5,6.5c-1.8,1.3-4.1,1.3-6.1,0.4
			c-2.3-1-3.4-3.1-3.6-5.6c-0.2-3.5,0.9-7.1,0.8-10.6c0.1,0,0.2,0,0.3,0c0.7,0.1,1.4,0.2,2.1,0.2c1.4,0.1,2.8,0.2,4.2,0.3
			c1.4,0.1,2.8,0.1,4.2,0.1c0.7,0,1.3,0,2,0C370.9,266.5,370.9,266.8,370.9,267.1z"/>
		<path class="st3" d="M359.4,191.5c0.7,0.2,0.7,1,0,1.2c-2,0.4-4.1,0.4-6.1,0.4c-2,0-4.1-0.1-6.2-0.1c-2.1,0-4.3-0.1-6.4-0.2
			c-1.9-0.1-3.9-0.1-5.7-0.6c-0.2-0.1-0.3-0.5,0-0.6c1.9-0.6,4-0.5,5.9-0.6c2-0.1,4-0.1,5.9,0c2.1,0,4.3,0,6.4,0
			C355.3,191.1,357.4,191,359.4,191.5z"/>
		<path class="st3" d="M347.4,265.3c1.1,3.9,2,8.3,0.9,12.3c-0.8,2.8-2.8,5.3-5.3,6.6c-2.7,1.4-5.9,0.9-8.2-1.1
			c-2.5-2.2-3.6-5.4-4-8.6c-0.2-1.9-0.3-3.8-0.4-5.6c-0.1-1-0.1-2,0-2.9c0-0.7,0.1-1.4,0.7-1.9c0.1-0.1,0.3-0.1,0.4,0
			c0.8-0.9,2.4-0.6,3.5-0.6c1.3,0,2.6,0.1,3.9,0.2l3.9,0.2c1.3,0.1,2.8-0.1,4,0.5c0.4,0.2,0.6,0.5,0.6,0.9
			C347.4,265.1,347.4,265.2,347.4,265.3z M342.6,281.2c5-3.4,3.5-9.8,2.4-14.9c-0.1,0-0.2,0-0.2,0c-0.7,0-1.3-0.1-2-0.1
			c-1.3-0.1-2.7-0.2-4-0.3c-1.4-0.1-2.7-0.2-4-0.3c-0.7-0.1-1.4-0.1-2-0.3c-0.1,0-0.2,0-0.3-0.1c0.1,0.2,0.1,0.4,0.1,0.6
			c0.2,0.9,0.3,1.7,0.4,2.6c0.2,1.8,0.3,3.5,0.5,5.2c0.3,2.6,1,5.5,3.2,7.2C338.4,282.5,340.7,282.5,342.6,281.2z"/>
		<path class="st4" d="M345,266.4c1.1,5,2.6,11.4-2.4,14.9c-1.9,1.3-4.2,1.2-6-0.2c-2.1-1.7-2.9-4.6-3.2-7.2
			c-0.2-1.7-0.4-3.5-0.5-5.2c-0.1-0.9-0.2-1.8-0.4-2.6c0-0.2-0.1-0.4-0.1-0.6c0.1,0,0.2,0.1,0.3,0.1c0.7,0.1,1.3,0.2,2,0.3
			c1.3,0.1,2.7,0.2,4,0.3c1.3,0.1,2.7,0.2,4,0.3c0.7,0.1,1.3,0.1,2,0.1C344.8,266.4,344.9,266.4,345,266.4z"/>
		<path class="st3" d="M334.9,138.9c1.4,6.6-2.1,13-7.8,16.4c-5.9,3.5-13.2,2.4-18.1-2.3c-5-4.9-5.9-12.5-2.5-18.6
			c1.8-3.1,4.8-5.4,8.1-6.8c1.4-0.6,2.9-1,4.4-1.4c0.1-0.2,0.3-0.3,0.6-0.3c3.5-0.5,7.4,1.6,10,3.9
			C332.2,132.2,334.2,135.3,334.9,138.9z M328.3,151.3c4.1-3.7,5.7-9.5,3.4-14.6c-1.1-2.4-2.8-4.5-5-6.1c-2.1-1.5-4.4-2.1-6.9-2.8
			c-0.3,0.1-0.5,0.2-0.6,0.2c-0.8,0.2-1.6,0.5-2.3,0.8c-1.7,0.6-3.3,1.4-4.8,2.5c-2.6,1.9-4.5,4.7-5.1,7.9
			c-1.2,5.6,1.4,11.3,6.4,14.1C318.5,156.1,324.3,155,328.3,151.3z"/>
		<path class="st4" d="M331.8,136.7c2.2,5.1,0.6,10.9-3.4,14.6c-4.1,3.7-9.9,4.8-14.8,2.1c-5.1-2.8-7.6-8.4-6.4-14.1
			c0.7-3.2,2.5-6,5.1-7.9c1.5-1.1,3.1-1.8,4.8-2.5c0.8-0.3,1.5-0.6,2.3-0.8c0.1,0,0.3-0.1,0.6-0.2c2.5,0.7,4.8,1.2,6.9,2.8
			C328.9,132.2,330.7,134.3,331.8,136.7z"/>
		<path class="st3" d="M311.1,265.9c0.2,1.1-0.2,2.3-0.5,3.4c-0.2,1.1-0.5,2.1-0.8,3.2c-0.6,2-1.2,3.9-2,5.8c-1.2,2.7-3,5.6-5.8,6.8
			c-3,1.2-6.1,0.2-8.3-1.9c-5.6-5.4-2.6-13.5,0.6-19.3c0.4-0.7,1.2-0.5,1.6,0c0,0,0.1,0,0.1,0c2.3-0.5,4.8-0.3,7.2-0.2
			c1.1,0.1,2.3,0.2,3.5,0.3c1.2,0.1,2.6,0.1,3.6,0.8c0.2,0.1,0.4,0.4,0.4,0.6C310.9,265.4,311,265.6,311.1,265.9z M307.7,270.1
			c0.3-1.1,0.4-2.4,0.8-3.5c-0.7-0.1-1.4-0.2-2.1-0.3c-1.1-0.1-2.3-0.2-3.5-0.3c-2.3-0.2-4.6-0.1-6.9-0.5c-0.1,0-0.1-0.1-0.2-0.1
			c-1.3,3.2-2.8,6.3-2.8,9.9c0,2.6,1.1,5.1,3.2,6.6c1.9,1.5,4.3,1.4,6.1-0.2c2-1.7,3-4.4,3.9-6.8
			C306.8,273.3,307.3,271.7,307.7,270.1z"/>
		<path class="st4" d="M308.5,266.5c-0.4,1.2-0.5,2.4-0.8,3.5c-0.4,1.6-0.9,3.2-1.5,4.8c-0.9,2.4-1.9,5-3.9,6.8
			c-1.8,1.6-4.2,1.6-6.1,0.2c-2.1-1.5-3.2-4.1-3.2-6.6c0-3.5,1.5-6.7,2.8-9.9c0.1,0,0.1,0.1,0.2,0.1c2.3,0.5,4.6,0.4,6.9,0.5
			c1.2,0.1,2.3,0.2,3.5,0.3C307.1,266.3,307.8,266.5,308.5,266.5z"/>
		<path class="st3" d="M288.7,174.6c0.8,0.3,0.6,1.4-0.2,1.6c-1.2,0.3-2.5,0.1-3.7,0.1c-1.2-0.1-2.3-0.1-3.5-0.2
			c-2.5-0.1-4.9-0.1-7.4-0.2c-4.8-0.1-9.6-0.1-14.4,0c-4.9,0.1-9.8,0.2-14.6,0.4c-4.8,0.2-9.7,0.8-14.5,0.3c-0.1,0-0.2-0.1-0.1-0.2
			c-0.4-0.1-0.7-0.4-0.7-0.9c0.1-4.7,3.5-9.4,7.4-11.8c4.4-2.7,9.6-2.9,14.6-3.1c5.7-0.2,11.4-0.5,17.1-0.7c2.5-0.1,5-0.1,7.4,0.8
			c2,0.7,3.7,1.9,5.3,3.3c1.6,1.5,2.9,3.2,4,5c1,1.7,2.1,3.5,2.6,5.4C288.4,174.5,288.6,174.5,288.7,174.6z M285.1,174.2
			c0.2,0,0.4,0,0.6,0c-0.8-1.6-1.5-3.3-2.5-4.8c-1.2-1.8-2.5-3.5-4.2-4.8c-3.9-3.1-8.5-2.8-13.2-2.7c-5.1,0.2-10.2,0.3-15.3,0.5
			c-4.5,0.2-9.4,0.7-13.1,3.5c-3.4,2.5-5,6-6,10c0,0.1-0.1,0.1-0.1,0.2c4.6-1.1,9.4-1.2,14-1.5c4.9-0.3,9.7-0.5,14.6-0.6
			c4.8-0.1,9.6-0.1,14.4-0.1c2.5,0,5,0.1,7.4,0.1C282.8,174.1,283.9,174.1,285.1,174.2z"/>
		<path class="st4" d="M285.7,174.2c-0.2,0-0.4,0-0.6,0c-1.1,0-2.3-0.1-3.5-0.1c-2.5-0.1-4.9-0.1-7.4-0.1c-4.8-0.1-9.6,0-14.4,0.1
			c-4.9,0.1-9.7,0.3-14.6,0.6c-4.6,0.3-9.5,0.4-14,1.5c0-0.1,0.1-0.1,0.1-0.2c1-4,2.6-7.5,6-10c3.8-2.8,8.6-3.3,13.1-3.5
			c5.1-0.3,10.2-0.4,15.3-0.5c4.7-0.1,9.3-0.4,13.2,2.7c1.7,1.3,3,3,4.2,4.8C284.2,170.9,284.9,172.6,285.7,174.2z"/>
		<path class="st3" d="M277.8,265.3c1.2,3.9,1,8.4-0.3,12.3c-1,2.9-3,5.8-5.9,7.1c-2.7,1.2-5.7,0.5-7.7-1.6c-1.9-2-2.7-5-3-7.6
			c-0.2-1.8-0.1-3.7,0-5.5c0.2-1.9,0.4-3.8,1.2-5.6c0,0,0,0,0.1-0.1c0-0.2,0.2-0.5,0.5-0.6c0.6-0.2,1.1-0.4,1.7-0.6
			c0.6-0.1,1.2-0.2,1.8-0.2c1.2-0.1,2.5-0.1,3.7-0.1c1.2,0,2.4,0.1,3.7,0.2c1.1,0.1,2.8,0.1,3.6,1c0.2,0.2,0.3,0.4,0.2,0.7
			C277.6,265,277.7,265.1,277.8,265.3z M275.5,275.2c0.8-3.1,0.6-6.1,0-9.2c0,0,0,0,0,0c-0.2,0-0.3-0.1-0.5-0.1
			c-0.6-0.1-1.1-0.2-1.7-0.2c-1.1-0.1-2.3-0.2-3.4-0.2c-1.2,0-2.3,0-3.5,0c-0.5,0-1,0-1.6,0c-0.4,0-0.8,0-1.2,0
			c0.1,3.2-0.4,6.5,0,9.8c0.2,2.1,0.8,4.4,2.3,6c1.5,1.6,3.7,1.7,5.4,0.5C273.6,280.2,274.8,277.7,275.5,275.2z"/>
		<path class="st4" d="M275.5,266c0.6,3.1,0.8,6.1,0,9.2c-0.7,2.5-1.9,5-4.1,6.5c-1.8,1.2-4,1.1-5.4-0.5c-1.5-1.6-2.1-3.9-2.3-6
			c-0.4-3.3,0.1-6.5,0-9.8c0.4,0,0.8,0.1,1.2,0c0.5,0,1.1,0,1.6,0c1.2-0.1,2.3-0.1,3.5,0c1.1,0,2.3,0.1,3.4,0.2
			c0.6,0.1,1.1,0.1,1.7,0.2C275.1,265.9,275.3,265.9,275.5,266C275.4,266,275.4,266,275.5,266z"/>
		<path class="st3" d="M273.8,137.5c1.6,5.9-0.3,12.4-5.3,16c-4.9,3.5-11.7,4-16.9,0.8c-6-3.7-8.5-11.5-6.2-18.1
			c1.1-3.1,3.3-5.7,6-7.5c1.2-0.8,2.7-1.5,4.3-2c-0.1-0.5,0.3-1.1,0.9-1.1c2.2,0.2,4.2,0.3,6.3,0.9c2,0.6,3.9,1.6,5.5,2.8
			C271.1,131.3,273,134.3,273.8,137.5z M268.8,149.9c3.6-3.8,4-9.6,1.8-14.1c-1.1-2.4-3-4.3-5.4-5.5c-1.5-0.8-3.1-1.2-4.7-1.6
			c-0.7-0.2-1.4-0.4-2.1-0.7c-0.9,0.2-1.8,0.4-2.7,0.7c-1.6,0.5-3,1.3-4.3,2.3c-2.5,2-4.3,4.9-4.7,8.1c-0.9,6,2.4,12.2,8.3,14.2
			C259.7,154.9,265.4,153.5,268.8,149.9z"/>
		<path class="st4" d="M270.6,135.8c2.2,4.6,1.8,10.4-1.8,14.1c-3.4,3.6-9.1,5-13.8,3.4c-5.9-2-9.1-8.2-8.3-14.2
			c0.5-3.2,2.2-6.1,4.7-8.1c1.3-1,2.7-1.8,4.3-2.3c0.9-0.3,1.8-0.5,2.7-0.7c0.7,0.2,1.4,0.5,2.1,0.7c1.6,0.4,3.2,0.9,4.7,1.6
			C267.6,131.5,269.5,133.4,270.6,135.8z"/>
		<path class="st3" d="M258.5,263.8c0.5,1,0.2,2.3,0.1,3.3c-0.1,1.1-0.2,2.2-0.4,3.4c-0.2,2.1-0.4,4.2-0.7,6.2
			c-0.5,3.2-1.8,6.4-4.7,8.1c-2.8,1.6-6.1,0.7-8.4-1.4c-2.5-2.3-3.4-5.7-3.6-9c-0.1-1.9-0.2-3.8,0-5.6c0.1-0.9,0.3-1.9,0.5-2.8
			c0.1-0.3,0.2-0.7,0.4-1c0.2-0.4,0.6-0.7,0.8-1.1c0.1-0.3,0.6-0.2,0.6,0.1c0,0.1,0,0.1,0,0.2c0.2-0.1,0.5-0.2,0.8-0.2
			c0.3,0,0.6-0.1,0.8-0.1c0.6-0.1,1.3-0.2,1.9-0.2c1.2-0.1,2.5,0,3.8,0c1.3,0,2.5,0.1,3.8,0.2c0.7,0.1,1.6,0.1,2.4,0.4
			c0.1-0.3,0.2-0.5,0.4-0.8C257.3,263,258.1,263.1,258.5,263.8z M255.9,268.2l0.2-1.8c-0.7,0-1.5-0.1-2.2-0.1
			c-1.2-0.1-2.4-0.2-3.6-0.3c-1.2-0.1-2.5-0.1-3.8-0.1c-0.6,0-1.1-0.1-1.7-0.1c-0.3,0-0.6,0-1,0c-0.3,0-0.5-0.1-0.7-0.1
			c0,0.3,0,0.7-0.1,1c-0.1,0.9-0.1,1.8-0.2,2.7c-0.1,1.8-0.1,3.7,0.2,5.5c0.3,2.6,1.1,5.5,3.3,7.1c2.1,1.6,4.7,1.5,6.5-0.5
			c1.9-2.2,2.2-5.2,2.4-8C255.5,271.6,255.7,269.9,255.9,268.2z"/>
		<path class="st4" d="M256.1,266.4l-0.2,1.8c-0.2,1.7-0.3,3.4-0.5,5.1c-0.3,2.8-0.5,5.8-2.4,8c-1.8,2-4.4,2.1-6.5,0.5
			c-2.2-1.7-3-4.5-3.3-7.1c-0.2-1.8-0.3-3.6-0.2-5.5c0-0.9,0.1-1.8,0.2-2.7c0-0.3,0.1-0.7,0.1-1c0.2,0.1,0.4,0.1,0.7,0.1
			c0.3,0,0.6,0,1,0c0.6,0,1.1,0.1,1.7,0.1c1.2,0,2.5,0,3.8,0.1c1.2,0.1,2.4,0.2,3.6,0.3C254.5,266.3,255.3,266.4,256.1,266.4z"/>
		<path class="st3" d="M242.6,122c1,3.5-1.1,6.7-2.9,9.5c-4.9,7.5-9.8,14.9-14.6,22.3c-4.5,6.8-9.7,13.5-11.3,21.7
			c-0.1,0.4-0.4,0.9-0.9,1c-11.9,1-23.9,1.4-35.8-0.1c-0.3,0.4-0.9,0.2-1.2-0.1c-0.1,0-0.2,0-0.2,0c-1.5-0.2-1.2-2.5,0.3-2.3
			c0,0,0.1,0,0.1,0c0.4-5-3.5-9.5-6.2-13.4c-3.3-4.7-6.4-9.4-9.5-14.2c-2.7-4.2-5.3-8.5-7.8-12.8c-1.3-2.2-2.6-4.4-3.8-6.6
			c-1-1.8-2.3-3.7-2.2-5.9c0.2-4.3,5.5-4.6,8.1-2.3c1.7,1.5,2.8,3.6,4,5.4c1.5,2.2,2.9,4.5,4.4,6.7c2.9,4.5,5.8,8.9,8.7,13.4
			c2.6,4,5.1,8.4,8.2,12.1c1.2,1.5,2.7,2.9,4.6,3.6c2.3,0.9,4.5,0.2,6.7-0.4c4.7-1.3,9.6-1.2,14.3,0.1c0.6,0.2,0.8,0.7,0.7,1.2
			c-0.1,0.6-0.8,1.2-1.6,1c-2.8-0.8-5.7-1.1-8.6-0.9c-2.7,0.2-5.1,1.2-7.7,1.6c-4.4,0.7-8.1-1.9-10.8-5.2c-2.9-3.6-5.2-7.6-7.7-11.5
			c-2.8-4.3-5.6-8.6-8.5-12.9c-1.4-2.2-2.8-4.3-4.2-6.5c-1.2-1.9-2.3-4.1-4-5.6c-1.1-1-4-2-4.3,0.4c-0.2,1.9,1.6,4.3,2.5,5.9
			c4.8,8.6,10,17,15.4,25.2c2.6,4,5.4,7.8,7.8,11.9c1.8,3,3.2,6.5,2.9,10c11.3,1.5,22.9,2,34.2,0.3c1.4-7.9,6.8-14.8,11.1-21.2
			c4.5-6.8,8.9-13.6,13.4-20.4c1.1-1.7,2.3-3.3,3.2-5c0.8-1.4,1.5-3.1,1.2-4.8c-0.3-1.5-1.5-3.1-3.1-2.9c-1.6,0.2-2.7,1.6-3.6,2.8
			c-9.6,12.2-17.5,25.5-25.3,38.8c-0.5,0.8-1.9,0.1-1.7-0.7c0-0.1,0-0.1,0.1-0.2c4.4-8.3,9.4-16.3,14.7-24c2.4-3.5,4.8-6.9,7.3-10.3
			c1.2-1.7,2.4-3.3,3.6-4.9c0.9-1.2,2-2.3,3.4-3C238.9,117.2,241.8,119.2,242.6,122z"/>
		<path class="st4" d="M240.7,123c0.3,1.7-0.4,3.4-1.2,4.8c-1,1.7-2.1,3.4-3.2,5c-4.5,6.8-9,13.6-13.4,20.4
			c-4.3,6.5-9.7,13.4-11.1,21.2c-11.3,1.7-22.9,1.2-34.2-0.3c0.3-3.5-1.1-7-2.9-10c-2.4-4.1-5.2-7.9-7.8-11.9
			c-5.4-8.2-10.5-16.7-15.4-25.2c-0.9-1.6-2.7-3.9-2.5-5.9c0.3-2.3,3.2-1.4,4.3-0.4c1.6,1.5,2.8,3.8,4,5.6c1.4,2.2,2.8,4.3,4.2,6.5
			c2.8,4.3,5.6,8.6,8.5,12.9c2.5,3.8,4.8,7.9,7.7,11.5c2.7,3.3,6.3,6,10.8,5.2c2.6-0.4,5-1.4,7.7-1.6c2.9-0.2,5.8,0.1,8.6,0.9
			c0.8,0.2,1.4-0.4,1.6-1l0.8,0.1c-0.2,0.8,1.2,1.5,1.7,0.7c7.8-13.3,15.8-26.6,25.3-38.8c0.9-1.1,2.1-2.6,3.6-2.8
			C239.2,119.9,240.4,121.5,240.7,123z"/>
		<path class="st3" d="M222.2,271.9c0.2,2,0.4,4.1,0.3,6.2c-0.2,3.2-1.9,6.1-5.1,7c-2.7,0.8-5.7,0-7.9-1.6c-2.7-1.9-4.1-5.1-4.8-8.2
			c-0.4-1.7-0.5-3.5-0.6-5.3c-0.1-1.9-0.2-3.9,0.1-5.8c0.1-0.4,0.4-0.6,0.7-0.6c0.1-0.1,0.2-0.1,0.3-0.1c0.6-0.1,1.1-0.2,1.7-0.2
			c0.6,0,1.1,0,1.7,0c1.1,0,2.1,0.1,3.2,0.1c1.1,0,2.1,0.1,3.2,0.2c1.1,0.1,2.4,0,3.4,0.5c0.3,0.2,0.4,0.5,0.4,0.8
			c0,0.4-0.2,0.8-0.6,1c-1.1,0.4-2.3,0.2-3.5,0.1c-1.1-0.1-2.1-0.1-3.2-0.2c-1.1-0.1-2.1-0.1-3.1-0.2c-0.6-0.1-1.1-0.1-1.7-0.2
			c-0.3,0-0.5-0.1-0.8-0.1c0.3,1.5,0.4,3.1,0.5,4.6c0.2,1.7,0.4,3.5,0.8,5.1c0.6,2.6,1.9,5.2,4.2,6.7c1.7,1.1,4.2,1.6,6.1,0.7
			c2.5-1.1,2.8-4.2,2.8-6.6c-0.1-3.6-0.5-7.1-0.9-10.7c0,0,0-0.1,0-0.1c0-1.5,2.3-1.8,2.4-0.2C221.9,267.1,222.1,269.5,222.2,271.9z
			"/>
		<path class="st4" d="M220.1,275.7c0.1,2.4-0.2,5.5-2.8,6.6c-1.9,0.8-4.4,0.3-6.1-0.7c-2.3-1.5-3.6-4.1-4.2-6.7
			c-0.4-1.7-0.6-3.4-0.8-5.1c-0.1-1.5-0.2-3.1-0.5-4.6c0.3,0.1,0.5,0.1,0.8,0.1c0.6,0.1,1.1,0.1,1.7,0.2c1,0.1,2.1,0.2,3.1,0.2
			c1.1,0.1,2.1,0.2,3.2,0.2c1.1,0.1,2.4,0.4,3.5-0.1c0.4-0.2,0.6-0.6,0.6-1l0.6,0c0,0,0,0.1,0,0.1
			C219.6,268.6,220,272.1,220.1,275.7z"/>
		<path class="st3" d="M209.9,141.6c0.5,6.4-2.9,12.2-8.6,15s-12.9,1.6-17.1-3.2c-3.6-4.2-4.9-10.5-2.9-15.7
			c1.2-3.3,3.6-6.1,6.3-8.2c1.4-1.1,3-2,4.7-2.5c0.8-0.2,1.5-0.3,2.3-0.3c0.6,0,0.8,0.1,1.1,0.4c0.1,0,0.1,0,0.2,0
			c2,0,3.9,1,5.6,1.9c1.7,0.9,3.2,2,4.5,3.4C208.3,134.9,209.6,138.2,209.9,141.6z M202.5,153.5c4.5-3.3,6.7-8.9,5.1-14.3
			c-0.8-2.6-2.2-5-4.3-6.7c-1.2-1-2.6-1.8-4-2.4c-1.3-0.6-2.7-0.9-3.9-1.7c-0.1,0-0.1-0.1-0.2-0.2c-1.3,0.5-2.8,0.6-4.1,1.3
			c-1.5,0.8-2.9,2-4.1,3.2c-2.2,2.2-4.1,5-4.6,8.2c-0.7,4.7,1.1,9.8,4.8,12.8C191.6,157.1,198,156.8,202.5,153.5z"/>
		<path class="st4" d="M207.6,139.2c1.6,5.4-0.5,11-5.1,14.3c-4.5,3.3-10.9,3.6-15.4,0.1c-3.7-3-5.5-8.1-4.8-12.8
			c0.5-3.2,2.3-6,4.6-8.2c1.2-1.2,2.6-2.4,4.1-3.2c1.3-0.7,2.8-0.8,4.1-1.3c0.1,0.1,0.1,0.1,0.2,0.2c1.2,0.8,2.6,1.1,3.9,1.7
			c1.4,0.6,2.8,1.4,4,2.4C205.4,134.2,206.8,136.6,207.6,139.2z"/>
		<path class="st3" d="M183.8,266.5c0.3,1.7,0.2,3.5,0.1,5.2c-0.1,1.9-0.4,3.9-1.1,5.7c-1.1,2.8-3.1,5.3-5.8,6.5
			c-2.5,1.1-5.5,0.9-7.8-0.6c-2.8-1.8-3.2-5.1-2.9-8.2c0.2-1.9,0.4-3.8,0.7-5.7c0.1-1,0.2-2,0.4-3.1c0.1-0.6,0.2-1.2,0.4-1.8
			c-0.3-0.6,0.1-1.6,1-1.5c2.5,0.1,5,0.4,7.5,0.6c1.2,0.1,2.5,0.2,3.8,0.4c1.2,0.1,2.5,0.1,3.7,0.4
			C184.8,264.6,184.7,266.2,183.8,266.5z M181.7,270.4c0.1-1.3-0.1-2.6,0-3.9c-0.7-0.1-1.4-0.2-2.1-0.2c-1.2-0.1-2.4-0.2-3.6-0.3
			c-2.3-0.2-4.5-0.4-6.8-0.7c0,0.4,0,0.9,0,1.3c0,1-0.1,1.9-0.2,2.9c-0.1,1.8-0.3,3.6-0.4,5.4c-0.2,2.5-0.2,5.3,2.4,6.6
			c1.9,1,4.3,0.8,6.1-0.4c2.1-1.4,3.4-3.7,4.1-6C181.5,273.5,181.7,271.9,181.7,270.4z"/>
		<path class="st4" d="M181.8,266.5c-0.1,1.3,0,2.6,0,3.9c-0.1,1.6-0.2,3.2-0.6,4.7c-0.7,2.4-2,4.7-4.1,6c-1.8,1.2-4.2,1.4-6.1,0.4
			c-2.5-1.3-2.6-4.1-2.4-6.6c0.1-1.8,0.3-3.6,0.4-5.4c0.1-1,0.2-1.9,0.2-2.9c0-0.4,0.1-0.9,0-1.3c2.3,0.3,4.5,0.5,6.8,0.7
			c1.2,0.1,2.4,0.2,3.6,0.3C180.3,266.3,181,266.4,181.8,266.5z"/>
		<path class="st4" d="M174.6,180.6c1.5,1.5-1.2,3.8-2.6,4.2c-2.4,0.7-5-1.1-6.9-2.4c-4.8-3.3-9.8-6.2-15.3-8.2
			c-5.5-2-11.2-3.2-17.1-3.5c-0.6,0-1,0.4-0.9,1c0.1,1.2,0.2,2.5,0.3,3.7c-11.6,0.8-23.3,1-35,0.6c-0.1-1.4-0.2-2.8-0.4-4.1
			c-0.1-0.5-0.6-0.8-1.1-0.6c-7.6,2.7-15.2,5.6-22.6,8.9c-3.6,1.7-7.2,3.5-10.9,5.1c-2.8,1.2-8.5,2.1-9.1-2.2
			c-0.1-0.4-0.1-0.8,0-1.2c0.5-2.9,4.4-4.7,6.8-5.5c0.5-0.2,0.2-0.9-0.2-0.8c-9.1,0.4-18.3,0.5-27.5,0.7c-1.1,0-1.1,1.5,0,1.5
			c8.4-0.4,16.7-0.9,25.1-1.2c-1.9,0.9-3.8,2.2-4.7,3.9c0-0.2-0.1-0.3-0.2-0.4c-1.2-1.8-4-1.1-5.8-1.1c-2.1,0.1-4.3,0.2-6.4,0.2
			c-2.1,0-4.3,0-6.4-0.1c-2.2,0-4.4-0.1-6.6,0.4c-0.1,0-0.1,0.1-0.2,0.1c0.4-0.8,0.9-1.7,1.5-2.4c1.3-1.6,3.2-2.9,5-3.6
			c0.7-0.3,0.2-1.4-0.5-1.1c-5,2.1-7.6,7-8.4,12.2c-0.4,2.2-0.4,4.5-0.2,6.6c0,0.1,0,0.1,0,0.2c0.3,2.4,0.7,4.7,1.3,7
			c0.5,2.1,1.3,4.1,1.6,6.2c0.3,1.8,0.4,4.4-1.5,5.4c-0.4,0.2-0.8,0.3-1.3,0.3c-0.4-0.5-1.2-0.6-1.7-0.2c-0.9-0.3-1.7-1-2.3-1.7
			c-1.4-1.8-1.8-4.1-2.3-6.2c-0.5-2-0.9-4-1.2-6c-0.8-4.2-1.3-8.6-1-12.8c0.3-4.1,1.7-8.2,4.3-11.5c2.3-3,5.5-5.2,9-6.7
			c3.5-1.5,7.3-2.4,11.1-2.8c4.2-0.5,8.4-0.3,12.6-0.4c4.4-0.1,8.8-0.5,12.8-2.5c3.4-1.7,6.2-4.4,8.3-7.5c5.1-7.5,6.1-16.6,6.8-25.3
			c0.3-3.5,0.3-8.2,3.3-10.7c1.3-1.1,3.1-1,4,0.5c1,1.4,0.9,3.4,0.7,5c-0.4,3.8-1.2,7.6-1.9,11.4c-0.8,3.9-1.7,7.8-2.8,11.6
			c-2.2,7.3-5.3,14.5-10.4,20.3c-1.3,1.5-2.7,2.8-4.2,4.1c-0.6,0.5,0,1.7,0.8,1.2c1.4-0.9,2.9-1.7,4.4-2.5c0.1,0,0.3,0.1,0.4,0
			c0.3-0.1,0.5-0.2,0.8-0.2c-0.9,0.5-1.9,0.9-2.8,1.4c-0.1,0.1,0,0.2,0.1,0.1c2.6-1.2,5.2-2.2,7.9-3.1c0.1,0,0.1,0,0.2-0.1
			c16.9-4.7,34.9-5.5,52.2-2c9.8,2,19.1,5.2,28,9.6c2.2,1.1,4.4,2.3,6.5,3.5c1,0.6,2,1.2,2.9,1.8
			C172.4,179.1,173.7,179.8,174.6,180.6z"/>
		<path class="st3" d="M141.8,270.2c0.2,2,0.4,4.1,0.1,6.1c-0.4,3-1.8,6-4.6,7.5c-2.6,1.3-5.5,0.5-7.6-1.3c-2.4-2-3.7-4.8-4.5-7.8
			c-0.9-3.2-1.4-6.7-0.5-9.9c-0.4-0.1-0.7-0.2-1.1-0.3c-0.3-0.1-0.2-0.5,0.1-0.6c2.6-0.5,5.3-0.4,8-0.3c1.3,0,2.7,0.1,4.1,0.2
			c1.3,0.1,2.6,0,3.9,0.2c0-0.1,0-0.1,0-0.2c-0.1-1.1,1.6-1.4,1.7-0.3C141.5,265.7,141.6,268,141.8,270.2z M139.9,273.5
			c0-2.5-0.1-5-0.2-7.5c-1.4,0.1-2.7-0.1-4.1-0.2c-1.4-0.1-2.7-0.1-4.1-0.2c-2.1-0.1-4.2-0.3-6.2-0.7c0.7,3.2,0.9,6.5,2,9.7
			c1.3,3.7,5.5,10.2,10,6.3C139.4,279.1,139.9,276.2,139.9,273.5z"/>
		<path class="st4" d="M139.7,266c0.1,2.5,0.2,5,0.2,7.5c0,2.6-0.4,5.5-2.5,7.4c-4.5,3.9-8.7-2.6-10-6.3c-1.1-3.1-1.3-6.4-2-9.7
			c2.1,0.4,4.1,0.6,6.2,0.7c1.4,0.1,2.7,0.1,4.1,0.2C137,265.9,138.3,266.1,139.7,266z"/>
		<path class="st3" d="M137,190.7c0.8,0.2,0.6,1.5-0.2,1.6c-1.4,0.2-3,0-4.4-0.1c-1.4-0.1-2.9-0.2-4.4-0.3c-1.5-0.1-3-0.2-4.5-0.4
			c-1.4-0.1-2.8-0.2-4.1-0.6c-0.6-0.1-0.4-1.1,0.1-1.1c1.4-0.2,2.9-0.1,4.4,0c1.5,0,2.9,0.1,4.4,0.2c1.5,0.1,3,0.1,4.5,0.2
			C134.2,190.3,135.6,190.3,137,190.7z"/>
		<path class="st3" d="M129.1,142.1c0.2,6-3.6,11.2-9,13.6c-6.1,2.6-12.5,0.8-17.2-3.8c-2.3-2.3-4.2-5.3-4.4-8.6
			c-0.2-3.2,1-6.2,3-8.7c2.1-2.5,4.8-4.4,7.7-5.8c1.6-0.8,3.4-1.4,5.1-1.6c0.9-0.1,1.8-0.1,2.6,0c0.7,0.1,1,0.3,1.4,0.7
			C124.6,129,128.9,136.1,129.1,142.1z M121.2,152.8c4.3-2.7,6.8-7.6,5.7-12.7c-0.5-2.4-1.8-4.6-3.5-6.4c-1.7-1.9-3.8-2.9-6.2-3.8
			c-0.5-0.2-0.7-0.6-0.6-1c-1,0.1-2.1,0.1-3.1,0.3c-1.7,0.4-3.3,1.1-4.8,1.9c-2.7,1.5-5.3,3.6-6.9,6.2c-3.3,5.4-0.4,11.4,4.3,14.8
			C110.7,155.5,116.4,155.9,121.2,152.8z"/>
		<path class="st4" d="M126.9,140.1c1.1,5.1-1.4,10-5.7,12.7c-4.8,3.1-10.5,2.7-15.1-0.6c-4.7-3.4-7.6-9.4-4.3-14.8
			c1.6-2.7,4.2-4.7,6.9-6.2c1.5-0.8,3.1-1.6,4.8-1.9c1-0.2,2-0.2,3.1-0.3c0,0.4,0.2,0.8,0.6,1c2.3,0.9,4.4,1.9,6.2,3.8
			C125.1,135.5,126.4,137.7,126.9,140.1z"/>
		<path class="st3" d="M102.3,263.1c0.9,0.1,3.2,0.1,3.2,1.4c0,0.6-0.4,0.9-1,1c-0.3,2.2-0.7,4.5-1.1,6.8c-0.3,1.9-0.8,3.9-1.6,5.7
			c-1.3,2.9-3.5,5.5-6.6,6.4c-2.9,0.8-6.1,0.1-7.9-2.4c-1.7-2.4-1.8-5.6-1.3-8.5c0.4-1.8,1-3.5,1.5-5.2c0.3-0.9,0.5-1.8,0.7-2.7
			c0.2-0.6,0.2-1.3,0.3-2c0-0.2,0-0.4,0.1-0.5c0,0,0-0.1,0-0.1c0.1-0.2,0.3-0.3,0.5-0.2c0,0,0.1,0,0.1,0c1.5-0.2,3-0.1,4.5,0
			c1.4,0,2.8,0.1,4.2,0.2C99.4,262.9,100.9,263,102.3,263.1z M102.4,265.5c0,0-0.1,0-0.1,0c-1.4-0.1-2.8-0.3-4.2-0.4
			c-1.4-0.1-2.8-0.2-4.2-0.3c-1.3-0.1-2.7,0-4-0.2c0,1.2-0.2,2.4-0.5,3.4c-0.4,1.8-1,3.5-1.3,5.3c-0.5,2.3-0.6,5.2,0.8,7.3
			c1.6,2.3,4.6,2.3,6.9,1.1c2.5-1.3,3.9-4.1,4.7-6.7c0.5-1.6,0.8-3.3,1-5C101.8,268.6,102,267,102.4,265.5z"/>
		<path class="st4" d="M102.3,265.5c0,0,0.1,0,0.1,0c-0.5,1.5-0.6,3-0.9,4.5c-0.3,1.7-0.5,3.4-1,5c-0.8,2.6-2.2,5.4-4.7,6.7
			c-2.3,1.2-5.3,1.1-6.9-1.1c-1.5-2.1-1.3-4.9-0.8-7.3c0.4-1.8,0.9-3.5,1.3-5.3c0.2-1,0.5-2.2,0.5-3.4c1.3,0.2,2.7,0.1,4,0.2
			c1.4,0.1,2.8,0.2,4.2,0.3C99.5,265.2,100.9,265.4,102.3,265.5z"/>
		<path class="st3" d="M69.5,271.6c0.1,2.2,0.1,4.4-0.4,6.6c-0.7,3-2.6,5.9-5.4,7.4c-2.8,1.5-6.2,0.8-8.4-1.4
			c-2.5-2.5-3.1-6.1-3.1-9.5c0-2,0.1-4,0.3-6.1c0.1-1.1,0.2-2.2,0.3-3.4c0.1-0.6,0.1-1,0.3-1.5c-0.6-0.3-0.4-1.3,0.2-1.4
			c2.2-0.2,4.4,0.1,6.6,0.3c1.1,0.1,2.2,0.2,3.3,0.3c0.9,0.1,2.5-0.1,3.1,0.8c0.1,0.1,0.2,0.4,0.2,0.5c0,0.1,0,0.2-0.1,0.3
			c-0.8,0.8-2.1,0.5-3.1,0.4l-3.4-0.3c-1.9-0.2-3.8-0.3-5.7-0.6c0.2,0.6,0.1,1.2,0.2,1.8c0.1,0.9,0,1.8,0,2.8c0,1.9-0.1,3.8-0.1,5.8
			c0,2.9,0.6,6.1,2.9,8.1c2,1.8,4.7,1.7,6.7-0.1c2.2-1.9,3-4.7,3.2-7.4c0.1-1.7,0-3.4,0-5.2c-0.1-1.6-0.3-3.4,0.1-5
			c0-0.1,0.1-0.3,0.2-0.4c0.5-0.8,2-0.8,2.1,0.4c0.1,1.2,0,2.4,0.1,3.6C69.4,269.4,69.5,270.5,69.5,271.6z"/>
		<path class="st4" d="M66.5,264.2l0.8,0.1c-0.1,0.1-0.1,0.3-0.2,0.4c-0.4,1.6-0.2,3.4-0.1,5c0.1,1.7,0.2,3.4,0,5.2
			c-0.2,2.8-1,5.6-3.2,7.4c-2,1.8-4.7,1.9-6.7,0.1c-2.3-2-2.8-5.2-2.9-8.1c0-1.9,0.1-3.8,0.1-5.8c0-0.9,0-1.8,0-2.8
			c0-0.6,0-1.2-0.2-1.8c1.9,0.4,3.8,0.5,5.7,0.6l3.4,0.3c1,0.1,2.3,0.4,3.1-0.4C66.4,264.4,66.5,264.3,66.5,264.2z"/>
		<path class="st3" d="M65.3,138.6c0.4,3.6-0.7,7.1-2.2,10.3c-1.3,2.8-2.9,5.3-5.7,6.6c-5.3,2.5-12.7,1.1-17.1-2.4
			c-4.9-3.8-6.1-10.8-3.6-16.3c1.2-2.7,3.2-5.1,5.6-6.8c1.4-1,3-1.8,4.7-2.4c0.9-0.3,1.8-0.6,2.7-0.7c0.1,0,0.1-0.1,0.2-0.1
			c3.6-0.7,7.4,1.7,10.1,3.8C62.4,132.6,64.9,135.2,65.3,138.6z M64.4,142.1c0.5-1.7,0.2-3.5-0.6-5.1c-1.3-2.4-3.8-4.2-5.9-5.8
			c-1.2-0.8-2.5-1.6-3.8-2.1c-1.2-0.5-2.5-0.6-3.8-0.8c-1.1,0.4-2.2,0.6-3.3,1.1c-1.5,0.6-2.8,1.4-4,2.4c-2.2,1.8-4,4.1-5,6.9
			c-1.8,5.2,0.1,11.1,4.8,13.9c4.2,2.5,10.8,3.5,15.1,0.7c2.5-1.6,3.5-4.4,4.8-7C63.2,144.9,63.9,143.5,64.4,142.1z"/>
		<path class="st4" d="M63.7,137c0.9,1.6,1.2,3.3,0.6,5.1c-0.4,1.5-1.1,2.8-1.8,4.2c-1.3,2.6-2.3,5.3-4.8,7
			c-4.3,2.9-10.9,1.9-15.1-0.7c-4.8-2.8-6.6-8.8-4.8-13.9c1-2.7,2.7-5.1,5-6.9c1.2-1,2.6-1.8,4-2.4c1.1-0.4,2.3-0.6,3.3-1.1
			c1.3,0.1,2.6,0.3,3.8,0.8c1.4,0.5,2.6,1.3,3.8,2.1C60,132.8,62.4,134.6,63.7,137z"/>
		<path class="st3" d="M60.6,192.3c0.7,0.1,0.8,1.2,0,1.3c-3,0.5-6.1,0.5-9.1,0.4c-3-0.1-6.1-0.2-9.1-0.4c-3.1-0.2-6.2-0.4-9.3-0.8
			c-1.5-0.2-2.9-0.3-4.4-0.5c-1.1-0.2-2.3-0.4-3.3-0.8l-0.8,0.1c0-0.1,0-0.1,0-0.2c-0.2-2.1-0.2-4.4,0.2-6.6l0.7,0.1
			c-0.3,1.8-0.3,3.5-0.2,5.3c1.2-0.3,2.4-0.2,3.7-0.1c1.6,0.1,3.1,0.2,4.7,0.4c3,0.2,5.9,0.5,8.8,0.7c3,0.2,6.1,0.4,9.1,0.5
			C54.5,191.6,57.6,191.7,60.6,192.3z"/>
		<path class="st3" d="M59.7,175.5c0.5,0,0.7,0.6,0.2,0.8c-2.4,0.9-6.3,2.7-6.8,5.5l-1-0.2c0,0,0,0,0-0.1c-1.2,1.3-3.5,1.2-5.2,1.2
			c-2.2,0.1-4.5,0.1-6.7,0.2c-4.3,0-9.2,0.4-13.3-1.1c-0.3-0.1-0.5-0.3-0.7-0.6c-0.4,1.1-0.7,2.3-0.9,3.4l-0.7-0.1
			c0.8-5.2,3.5-10.1,8.4-12.2c0.7-0.3,1.2,0.8,0.5,1.1c-1.9,0.8-3.7,2.1-5,3.6c-0.6,0.8-1.1,1.6-1.5,2.4c0.1,0,0.1,0,0.2-0.1
			c2.2-0.5,4.4-0.5,6.6-0.4c2.1,0,4.3,0.1,6.4,0.1c2.1,0,4.2-0.1,6.4-0.2c1.8-0.1,4.6-0.7,5.8,1.1c0.1,0.1,0.1,0.3,0.2,0.4
			c1-1.8,2.8-3,4.7-3.9c-8.4,0.3-16.7,0.8-25.1,1.2c-1.1,0.1-1.1-1.4,0-1.5C41.4,176,50.6,175.9,59.7,175.5z"/>
		<path class="st3" d="M59.8,247c1,0.3,0.9,1.8,0.1,2.1c-1.3,0.5-2.8,0.4-4.2,0.6c-1.5,0.1-3,0.2-4.5,0.3c-2.8,0.1-5.6,0.3-8.5,0.4
			c-5.8,0.3-11.5,0.7-17.3,0.7c-0.5,0-1.1-0.6-1.1-1.1c0,0,0,0.1,0,0.1c-0.1-0.2,0-0.2,0-0.4c0-0.6,0.6-1.1,1.1-1.1
			c5.8-0.6,11.6-0.7,17.4-1c2.9-0.1,5.8-0.3,8.7-0.4c1.5-0.1,3-0.1,4.5-0.2C57.2,246.8,58.5,246.6,59.8,247z"/>
		<path class="st3" d="M50.5,270c0.1,2.1,0.1,4.3-0.2,6.4c-0.6,3.4-2.1,6.5-5.2,8.3c-2.8,1.7-6.2,1.3-8.7-0.8
			c-2.7-2.3-3.8-5.8-4-9.3c-0.2-2-0.1-4,0-5.9c0.1-1.1,0.2-2.2,0.3-3.3c0.1-0.5,0.1-0.9,0.2-1.2c-0.1,0-0.2,0-0.3-0.1
			c-0.7-0.2-0.5-1.3,0.1-1.4c1.2-0.2,2.4-0.1,3.5-0.1c1.2,0,2.3,0.1,3.5,0.1c1.1,0.1,2.3,0.1,3.4,0.2c1,0,2.5-0.2,3.2,0.7
			c0.1,0.1,0.2,0.3,0.2,0.4c0.1,0,0.2,0,0.3,0.1c0,0,0.1,0.1,0.1,0.1c0.1,0.1,0.1,0.3,0.1,0.4c0,0,0,0,0,0c0,0.1,0,0.2-0.1,0.4
			c-0.1,0.1-0.3,0.2-0.4,0.3c-0.5,0.1-1.1,0.2-1.7,0.2c-0.2,0-0.4-0.1-0.5-0.2c0,0,0,0,0,0c0,0,0,0-0.1,0c-0.1-0.1-0.2-0.1-0.2-0.2
			c-0.4,0-0.8-0.1-1.1-0.1c-1.2-0.1-2.3-0.1-3.4-0.2c-1.6-0.1-3.4-0.1-5-0.3c0,0.4-0.1,0.9-0.1,1.3c-0.1,1-0.2,1.9-0.2,2.9
			c-0.1,1.9-0.1,3.9,0.1,5.8c0.3,3.1,1.3,6.2,3.9,8.1c2.4,1.6,5.3,1.1,7.3-0.9c2.2-2.3,2.7-5.5,2.8-8.6c0-1.7,0-3.5-0.1-5.2
			c0-1-0.1-2-0.1-3.1c0-0.7,0.1-1.3,0.3-2c0.2-0.8,1.5-0.8,1.8,0c0.4,1.1,0.3,2.3,0.4,3.5C50.4,267.6,50.4,268.8,50.5,270z"/>
		<path class="st4" d="M48,268c0,1.7,0.1,3.5,0.1,5.2c-0.1,3-0.6,6.3-2.8,8.6c-2,2.1-4.9,2.6-7.3,0.9c-2.7-1.8-3.6-5-3.9-8.1
			c-0.2-1.9-0.2-3.9-0.1-5.8c0-1,0.1-1.9,0.2-2.9c0-0.4,0.1-0.9,0.1-1.3c1.7,0.2,3.4,0.2,5,0.3c1.1,0.1,2.3,0.1,3.4,0.2
			c0.3,0,0.7,0.1,1.1,0.1c0,0.1,0.1,0.2,0.2,0.2c0,0,0,0,0.1,0c0,0,0,0,0,0c0.1,0.1,0.3,0.2,0.5,0.2c0.6,0,1.2-0.1,1.7-0.2
			c0.2,0,0.3-0.1,0.4-0.3c0.1-0.1,0.1-0.2,0.1-0.4l0.9,0C47.9,265.9,48,267,48,268z"/>
		<path class="st3" d="M38.4,209.2c0.6,0.3,0.7,1.2,0,1.5c-0.8,0.4-1.7,0.2-2.6,0.3c-0.8,0.1-1.7,0-2.5,0c-0.8,0-1.6,0-2.4-0.1
			c-0.4,0-0.9-0.1-1.3-0.1c-0.2,0-0.4-0.1-0.6-0.1c-0.1,0-0.2-0.1-0.4-0.1c-0.1-0.1-0.2-0.2-0.3-0.2c-0.5-0.1-0.3-0.8,0.1-0.9l0,0
			c0.3-0.3,0.6-0.4,1-0.4c0.4,0,0.8-0.1,1.3-0.1c0.8-0.1,1.7-0.1,2.5-0.1c0.8,0,1.6-0.1,2.4,0C36.6,208.9,37.6,208.8,38.4,209.2z"/>
	</g>
	<g>
	</g>
</g>
<path class="st5" d="M171.6,220.9h9.4c0.4,0,0.6-0.2,0.6-0.7c0.1-2.9-1.8-5-4.9-5C173.1,215.3,171.6,217.6,171.6,220.9 M186.3,198.1
	c0,1.4-0.7,2.5-2.1,3.3l-7.6,3.9c-0.7,0.4-1.3,0.5-1.9,0.5c-1.9,0-3.6-1.6-3.6-3.6c0-1.4,0.7-2.5,2.1-3.3l7.6-3.9
	c0.7-0.4,1.3-0.5,1.9-0.5C184.6,194.5,186.3,196.1,186.3,198.1 M190,221.3v1.3c0,2.4-1.2,4.3-4.2,4.3h-14.2v0.5
	c0,2.7,2.5,4.1,5.6,4.1c2.2,0,3.8-0.5,5.1-1c1.1-0.5,1.8-0.7,2.6-0.7c2.1,0,3.8,1.8,3.8,4c0,1.3-0.6,2.9-2.7,3.8
	c-2.1,1-5.2,1.9-9.2,1.9c-7.7,0-13.3-5-14-11.9c-0.2-2.3-0.2-5.9,0-7.7c0.7-7.4,6.1-12.2,13.7-12.2C184.4,207.8,190,212.9,190,221.3
	"/>
<path class="st5" d="M204.2,221.1c-0.1,1.1-0.1,3.5,0,4.8c0.1,2.9,1.9,4.6,4.8,4.6c1.6,0,3.6-0.8,4.3-1.4v-11.2
	c-0.8-0.5-2.7-1.2-4.7-1.2C205.7,216.7,204.3,218.4,204.2,221.1 M222.6,203.2v29.7c0,1.5-0.5,2.3-1.6,3.1c-1.8,1.2-6.2,3.6-12.3,3.6
	c-8,0-13.2-5.2-13.8-12c-0.2-2-0.2-6,0-8.1c0.6-6.9,5-11.7,12.6-11.7c1.8,0,4.2,0.5,5.8,1.1v-5.7c0-2.7,2.1-4.8,4.7-4.8
	C220.7,198.4,222.6,200.6,222.6,203.2"/>
<path class="st5" d="M256.3,212.6v20.7c0,1.6-0.4,2.4-1.6,3.2c-1.8,1.2-6,3.1-12.1,3.1c-8.7,0-13.3-4.6-13.3-12.8v-14
	c0-2.8,1.6-5,4.5-5c2.7,0,4.8,2.1,4.8,5v13.6c0,2.8,1.8,4.1,4.2,4.1c1.8,0,3.3-0.5,4.2-1.1v-16.7c0-2.7,2-4.9,4.6-4.9
	C254.2,207.8,256.3,209.9,256.3,212.6"/>
<path class="st5" d="M289.3,216.5c0,2.5-2,4.5-4.5,4.5c-1.3,0-2.8-0.8-3.5-1.8c-1.2-1.8-2.6-2.5-4.7-2.5c-2.9,0-4.5,1.5-4.9,4.3
	c-0.1,1.4-0.1,3.7,0.1,5.1c0.3,3,2.1,4.6,4.9,4.6c2.1,0,3.5-0.7,4.7-2.5c0.7-1,2.2-1.8,3.5-1.8c2.5,0,4.5,2,4.5,4.5
	c0,4.7-6,8.7-13.1,8.7c-7.3,0-13.1-5.1-13.8-12.1c-0.2-2-0.2-5.5,0-8.1c0.5-6.7,6.2-11.6,13.8-11.6
	C283.3,207.8,289.3,211.7,289.3,216.5"/>
<path class="st5" d="M101.1,222c0.2-2,0.2-4.1,0-6.2c-0.3-4.9-3.8-8.4-8.6-8.4c-4.7,0-8.1,3.5-8.5,8.4c-0.1,2-0.1,4.2,0,6.2
	c0.3,5,3.7,8.5,8.5,8.5C97.3,230.5,100.8,227,101.1,222 M74.5,223.4c-0.3-3.1-0.3-5.9,0-8.8c0.8-9.2,8.2-16.3,18-16.3
	c9.8,0,17.4,7.3,18.2,16.3c0.2,3.1,0.2,5.7,0,8.8c-0.8,9-8.4,16.2-18.2,16.2C82.6,239.6,75.2,232.5,74.5,223.4"/>
<path class="st5" d="M143.9,220.6v14.2c0,2.7-2,4.8-4.7,4.8c-2.5,0-4.6-2.1-4.6-4.8v-13.7c0-2.9-1.9-4.1-4.2-4.1
	c-1.8,0-3.3,0.5-4.2,1.1v16.8c0,2.7-2,4.8-4.7,4.8c-2.5,0-4.7-2.1-4.7-4.8v-20.7c0-1.6,0.5-2.4,1.6-3.2c1.8-1.2,6.1-3.1,12.2-3.1
	C139.5,207.8,143.9,212.4,143.9,220.6"/>
<path class="st6" d="M300.9,233.1v4.4c0,1.3-1,2.4-2.3,2.4c-1.3,0-2.4-1-2.4-2.4v-4.4c0-1.4,1-2.4,2.4-2.4
	C299.8,230.7,300.9,231.7,300.9,233.1"/>
<path class="st6" d="M324.6,199.3c1.1,0.4,1.6,1.1,1.6,2c0,1.2-0.9,2.1-2.1,2.1c-0.4,0-0.8-0.1-1.2-0.2c-0.8-0.2-1.8-0.4-3.4-0.4
	c-3.1,0-4.5,2.5-4.5,5.7v2.4h7.9c1.2,0,2.2,0.9,2.2,2.2c0,1.1-1.1,2.1-2.2,2.1h-7.9v22c0,1.3-0.9,2.4-2.3,2.4c-1.2,0-2.3-1-2.3-2.4
	v-22h-1.1c-1.3,0-2.3-0.9-2.3-2.1c0-1.3,1-2.2,2.3-2.2h1.1v-3.2c0-5.6,3.1-9.2,9-9.2C321.1,198.6,323.2,198.8,324.6,199.3"/>
<path class="st6" d="M343.7,211.2c1,0.3,1.9,0.9,1.9,2.2c0,1.2-0.9,2.3-2.1,2.3c-0.5,0-1.1-0.2-1.9-0.3c-0.4-0.1-1.3-0.2-2.4-0.2
	c-3.3,0-4.9,1.5-4.9,5v17c0,1.3-1,2.4-2.3,2.4c-1.2,0-2.3-1.1-2.3-2.4v-17.6c0-5.6,3.2-9,9.2-9C340.9,210.7,342.7,210.9,343.7,211.2
	"/>
</svg>
