<?xml version="1.0" encoding="utf-8"?>
<!-- Generator: Adobe Illustrator 25.0.0, SVG Export Plug-In . SVG Version: 6.00 Build 0)  -->
<svg version="1.1" xmlns="http://www.w3.org/2000/svg" xmlns:xlink="http://www.w3.org/1999/xlink" x="0px" y="0px"
	 viewBox="0 0 439 309.9" style="enable-background:new 0 0 439 309.9;" xml:space="preserve">
<style type="text/css">
	.st0{fill:#FFFFFF;}
	.st1{fill:#E94D2A;}
	.st2{fill:#004661;}
	.st3{fill:none;stroke:#004661;stroke-width:0;stroke-linecap:round;stroke-linejoin:round;}
</style>
<g id="Calque_7">
	<path class="st0" d="M455.2,233.4c0.4-0.7,0.8-1.3,1.2-2c5.1-9.5,3.6-19.1-2.1-27c2.1-7.7,0.9-16.4-4.8-22.6
		c-1.1-1.2-2.3-2.4-3.5-3.6c0.5-1.1,1-2.2,1.4-3.4c4.2-2.5,7.9-6,10.1-10.1c6.1-11.4,2.7-24.7-7.4-32.7c-3.5-2.7-7.2-5.2-11-7.6
		c3.7-1.4,6.9-3.6,9.7-6.6c8-8.5,10.8-25.4,1.3-34.3C439,72.8,426.9,65,412.8,58.8c-10.8-4.8-22.1-8.3-33.2-12.2
		c-5.5-1.9-10.9-3.9-16.3-6.1c-2.7-1.1-5.3-2.3-7.9-3.6c-0.2-0.1-1.1-0.5-1.9-1c-0.8-0.4-2.2-1.2-2.6-1.4c-7.2-4-14.4-8.2-22.1-11.4
		c-2.6-1.1-5.2-2.1-7.8-3c-2.6-3.2-6.1-5.5-10-6.9c0-1.6,0.1-3.2,0.1-4.8c0.3-10.8-3.9-20.5-13.7-25.8c-9-4.8-17.7-3.6-26.1,1
		c-0.2,0-0.5,0.2-1.2,0.5c-1.3,0.5-2.5,1.2-3.7,1.7c-0.9,0.4-1.8,0.7-2.7,1c-0.9,0.2-2.1,0.6-2.4,0.6c-1.1,0.2-2.2,0.5-3.3,0.6
		c-2.2,0.4-4.4,0.7-6.6,1c-10.6,1.3-21.3,1.6-32,2.1c-5.6,0.2-11.1,0.4-16.7,0.5c-0.8,0-1.3,0.1-1.5,0.1c-0.6,0-1.1,0-1.6,0
		c-3,0-5.9,0.1-8.9,0c-11.5,0-22.9-0.3-34.4-0.6c-10.6-0.4-23.5,5-26.8,16.3c-0.5,1.8-1,3.5-1.5,5.3c-5.9,0.8-11.8,3.1-17.2,5.3
		c-5.8,2.3-11.6,4.7-17.4,7C81.8,30,69.9,34.7,58,39.5c-11.6,4.7-23.1,9.4-34.7,14.1c-6.1,2.5-12.2,4.9-18.3,7.4
		c-3.3,1.3-6.1,2.7-9.1,4.6c-7.9,4.9-11.3,11.9-13.3,20.8c-1.2,5.4,0.6,11.2,3.8,15.9c-0.8,1.3-1.4,2.6-1.8,3.8
		c-1.9,5.6-2.6,12.2-0.5,17.8c0,0.5,0.1,0.9,0.1,1.4c0.1,1.9,0.1,3.9,0.2,5.8c0.1,3.6,0.2,7.2,0.3,10.7c0.2,7.8,0.4,15.6,0.7,23.4
		c0.4,15,0.9,30,1.3,45.1c0.1,3.6,0.2,7.3,0.3,10.9c0,0.2,0,0.3,0,0.5c0,0.2,0,0.4,0,0.7c0,2,0.1,4,0.1,5.9
		c0.1,7.9,0.1,15.8-0.1,23.8c-0.1,7.3-0.4,14.5-0.8,21.8c-0.6,10.7-2.9,22.3,1.8,32.3c4.8,10.1,13.2,15.9,23.1,20.5
		c9.3,4.3,20.5,8.1,30.8,6.3c7.3-1.3,13.7-5.1,18.6-10.4c6.3,8.6,15.9,14.7,26.7,15.7c12.4,1.1,22.2-3.9,29-12
		c2.8,0,5.6-0.1,8.4-0.2c2.7,2.7,6.1,4.9,10,6.4c5.9,2.1,12.2,2.2,18.1,0.3c4,2.2,8.5,3.4,12.9,3.3c7.7-0.1,16.2-4.4,21-11.1
		c1.8,4.6,4.3,8.5,8.7,11.7c5.1,3.6,12.8,5.8,19,4.6c9.9-1.9,17.3-8.5,20.4-17.1c37.4-0.2,74.8-0.1,112.3,0.5
		c23.3,0.4,46.5,1.2,69.8,1.4c7.1,0,13.4-1,19.1-5.7c4.8-3.9,8.8-10.7,9.2-17c0.4-6-1.3-12.1-4.5-17.2c2.3-3,4-6.5,4.8-9.8
		c0.1-0.3,0.1-0.7,0.2-1c7-2.5,13-7.6,15.4-14.8C464.1,251.1,462.1,240.5,455.2,233.4z M23.6,245c-0.2,0.2-0.5-1,0.2-2.6
		c0,0,0,0,0,0C23.5,243.1,23.5,244.1,23.6,245z M38.5,280.9C38.5,280.9,38.5,280.9,38.5,280.9C41.9,281.2,40.2,281.5,38.5,280.9z
		 M189.3,43.4c-3,0.8-6.1,1.7-9.1,2.5c-0.4-0.6-0.8-1.1-1.3-1.6c-0.3-0.4-0.6-0.7-1-1C181.7,43.3,185.5,43.3,189.3,43.4z"/>
	<g>
		<path class="st1" d="M164.9,68.4C164.7,68.5,164.8,68.5,164.9,68.4L164.9,68.4z"/>
		<path class="st1" d="M164.9,68.4c0.1,0,0.1,0,0.1,0C165,68.4,164.9,68.4,164.9,68.4C164.9,68.4,164.9,68.4,164.9,68.4z"/>
		<path class="st1" d="M312.7,49c-0.2-1.3-0.6-2.5-1-3.8c0.4-0.5,0.7-1.2,0.6-2c-0.6-5.2-1.8-10.4-3.1-15.5
			c-0.1-3.1-0.7-6.2-2.3-8.9c-0.2-0.4-0.5-0.7-0.8-1c-0.1-0.2-0.1-0.4-0.2-0.6c-0.2-0.3-0.4-0.5-0.7-0.7c-0.5-0.8-1.5-1.3-2.5-0.8
			l-2.9,1.6c-0.4,0.2-0.6,0.5-0.8,0.8c-1.3,0.8-2.5,1.7-3.6,2.8c-0.1,0.1-0.2,0.2-0.3,0.3c-0.3,0.1-0.6,0.3-0.9,0.5
			c-1.5,1.3-2.8,3-4.2,4.4c-0.3,0.3-0.6,0.6-0.9,0.8c-0.2,0.1-0.4,0.1-0.6,0.2c-1.6,0.6-3.2,1.2-4.8,1.8c-1.2,0.3-2.3,0.6-3.5,1.1
			c-1.3,0.5-2.5,1-3.7,1.6c-0.9,0.4-1.9,0.9-2.7,1.5c-0.5,0.2-1,0.5-1.5,0.7c-2.7,1.3-5.4,2.6-8.2,3.9c-1,0.5-3,1.3-4.3,2.3
			c-1,0.4-2.1,0.7-3.2,1c-1.3,0.4-2.7,0.6-4,0.9c-0.5,0-1,0.2-1.4,0.4c-0.9,0.5-1.3,1.6-1.1,2.5c-1.1,0.4-2.2,0.8-3.4,1.3
			c-4.4,1.5-8.8,3.1-13.1,4.7c-0.6,0.1-1.1,0.3-1.7,0.5c-0.5,0.1-1.1,0.2-1.6,0.2c-1.9,0.3-3.7,0.5-5.6,0.6c-0.7,0-1.4,0-2.2,0.1
			c-3-0.7-6.1-1.4-9.1-2.1c-4.6-1.1-9.2-2.2-13.7-3.4c-2.2-0.6-4.4-1.2-6.7-1.8c-1.7-0.4-3.4-1-5.1-1.4c-0.7-0.3-1.4-0.4-2.2-0.4
			c-1,0-1.8,0.6-2.1,1.3c-1.2-0.2-2.6-0.4-3.8-0.1c-0.2-0.1-0.3-0.1-0.5-0.2c0.1-0.5,0.1-1.1-0.3-1.6c-1-1.2-2.6-1.4-4-1.7
			c-1.3-0.3-2.6-0.6-3.8-1l-3.8-0.9c-0.7-0.2-1.5-0.4-2.2-0.5c-0.6-0.1-1.1-0.2-1.6,0c-0.4,0-0.7,0.1-1.1,0.3
			c-0.8,0.3-0.9,1.3-0.4,1.9c0.1,0.1,0.1,0.1,0.2,0.2c-0.3,0.2-0.4,0.6-0.4,0.9c0,0,0,0,0,0c-0.1,0.2-0.1,0.4-0.2,0.7
			c0,0.2,0,0.3,0,0.5c0-0.2,0-0.2-0.1-0.1c-0.1,0.2,0,0.6,0,0.8c0,0.2,0,0.3,0,0.5c0,0,0,0.1,0,0.2c0,0.3,0,0.5,0,0.8
			c0,0.6,0,1.2-0.1,1.7c0,0.3-0.1,0.6-0.2,0.9c0,0.1,0,0.2-0.1,0.4c0,0,0,0.1,0,0.1c-0.3,1.2-0.6,2.5-0.2,3.7
			c-0.7,1.1-1.3,2.2-1.9,3.3c-0.6,1.1-1.4,2.2-1.5,3.5c-0.2,1.3,0.2,2.7,1.2,3.5c-0.4,0.7-0.8,1.4-1.2,2.1c-0.4,0.7-0.6,1.4-0.4,2.2
			c0.2,0.7,0.8,1.5,1.5,1.7c1,0.3,2,0.5,3,0.5c0.6,0,1.1,0,1.7-0.1c0.2,0,0.4-0.1,0.6-0.1c0.1,0,1.1-0.3,1-0.3
			c0.2-0.1,0.6-0.2,0.7-0.2c0.4,0.3,0.9,0.6,1.4,0.6l1.3,0.2c0.6,0.3,1.2,0.5,2,0.6c0.5,0.1,1,0.2,1.5,0.3c0.5,0.5,1.3,0.8,2.1,0.7
			c0.6-0.1,1.3-0.2,1.9-0.3c0.2,0,0.4-0.1,0.6-0.2c4.6-0.3,9.2,1.6,12.2,5.1c1,1.1,1.6,2,2.2,3.4c0.6,1.4,0.6,3.1,1.6,4.4
			c-0.6,0.8-0.8,1.9-0.4,2.9c0.2,0.4,0.4,0.7,0.8,1c-1.8,0.8-1.7,3.4-1.7,5.1c-0.1,3.3-0.2,7.4,2.5,9.9c0.6,0.5,1.2,0.9,1.9,1.1
			c1.4,0.4,2.3,0.1,3.5-0.6c2-1.2,4-2.5,6-3.8c4-2.5,7.9-5,11.9-7.5c2.2-1.4,4.3-2.7,6.5-4.1c1.1-0.7,2.2-1.4,3.3-2.1
			c1.1-0.7,2.4-1.5,3.1-2.6c2.1-0.3,4.3-0.8,6.4-0.8c4.1,0,8,1.7,12,1.9c0.5,0,1.2,0,1.9-0.1c0.7,0.9,1.7,1.3,3,1.3
			c0.3,0,0.6-0.1,0.9-0.3c0.8,0.3,1.6,0.5,2.4,0.8c2.9,1.8,5.9,3.4,8.9,5c2.6,1.3,5.2,2.6,7.8,3.7c2.7,1.2,5.7,2.7,8.6,3.1
			c1.9,0.2,2.8-2.5,1.2-3.4c0.7-1.5,1.4-3,2.5-4.3c0.5-0.6,0.6-1.3,0.4-1.9c0.6-0.4,1.1-1,1.3-1.9c1.1-5.3,1.8-10.7,2.8-16
			c0.7-3.6,1.9-7.7,5.4-9.5c1.9-1,4.1-1.3,6.2-1.6c2.2-0.3,5.1-0.2,6.8-1.8c0.3-0.3,0.5-0.5,0.7-0.8c1.5,0.3,3.2-0.5,3.6-2.4
			c0.1-0.6,0.2-1.3,0.2-1.9C313.5,50.8,313.4,49.6,312.7,49z M166.3,42.7c0.2,0.1,0.4,0.1,0.6,0.2c-0.3,0.2-0.5,0.3-0.7,0.5
			c-0.1,0.1-0.2,0.2-0.3,0.3c-0.1-0.4-0.1-0.8-0.3-1.2C165.8,42.6,166.1,42.6,166.3,42.7z M165.3,63.5c-0.5,0-0.9,0-1.4,0.1
			c0,0-0.1,0-0.1,0c0.6-1,1.1-2.1,1.7-3.1c0.5-1.1,1.1-2.1,1.6-3.2C166.4,59.3,165.8,61.4,165.3,63.5z M172.1,44.6
			c-0.8,1.2-1.4,2.8-1.9,4.2c-0.6,1.5-1.1,3-1.6,4.5c0.1-1.1-0.8-1.9-1.8-1.9c0,0,0,0,0-0.1c0.3-0.6,0.6-1.2,0.9-1.8
			c0.4-0.9,0.8-1.7,1.2-2.6c0.3-0.4,0.6-0.8,0.9-1.1c0.3-0.4,0.6-0.7,0.9-1.1c0.1-0.1,0.3-0.3,0-0.1c0,0,0,0,0,0
			c0.2-0.2,0.3-0.4,0.4-0.6c0,0,0,0,0.1-0.1c0.4,0.1,0.8,0.2,1.3,0.3C172.3,44.4,172.2,44.5,172.1,44.6z M196.1,88
			c-0.1-0.2-0.3-0.4-0.5-0.6c0.4-0.2,0.8-0.3,1.2-0.5C196.6,87.2,196.3,87.6,196.1,88z M215.9,58c0.5,0.1,0.9,0.2,1.3,0.4
			c0,0.1,0,0.3,0,0.4C216.8,58.5,216.4,58.2,215.9,58z M249.8,59.2c-0.2,0.3-0.5,0.7-0.8,1.1c0,0,0,0,0,0c0.3-0.5,0.4-1.1,0.4-1.7
			c0.5-0.3,1.1-0.7,1.6-1C250.6,58.1,250.2,58.7,249.8,59.2z"/>
	</g>
	<path class="st2" d="M245.4,55.8c-1.4-0.6-3.4-0.3-4.9-0.1c-1.7,0.2-3.4,0.4-5.1,0.8c-3.2,0.8-6.6,1.9-9.3,3.9
		c-0.3,0.2,0,0.6,0.3,0.5c3.1-1.3,6.2-2.7,9.5-3.4c1.6-0.4,3.2-0.6,4.8-0.8c1.5-0.1,3.3,0.1,4.7-0.4
		C245.7,56.2,245.6,55.9,245.4,55.8z"/>
</g>
<g id="Calque_9">
	<path class="st2" d="M173,182.2c0-0.6,0-1.2-0.1-1.8c0-0.3,0-0.6-0.1-0.9c0-0.3-0.1-0.5-0.2-0.8c0-0.3-0.4-0.3-0.5,0
		c0,0.3-0.1,0.5-0.2,0.8c0,0.3-0.1,0.6-0.1,0.8c0,0.6-0.1,1.3-0.1,1.9c0,1.2-0.1,2.5,0.3,3.7c0.1,0.2,0.4,0.2,0.5,0
		C173.1,184.7,173,183.4,173,182.2z"/>
	<g>
		<polygon class="st2" points="168.5,192.9 168.5,192.9 168.5,192.9 168.5,192.9 		"/>
		<path class="st2" d="M172.1,186.6c-2.7,2-5.1,4.5-7.7,6.8c-2.4,2.2-4.8,4.5-7.2,6.7c-4.9,4.5-9.8,8.8-15,13
			c-10.3,8.4-21.2,16.2-33,22.4c-11.6,6.1-24.1,10.5-35,17.7c-11.2,7.4-20,18-28.8,27.9c-5.5,6.2-10.9,12.4-16.3,18.6
			c-5.4,6.2-11.2,12.2-16,18.9c-0.3,0.4,0.3,1,0.6,0.6c5.3-5.1,10-10.8,14.8-16.2c4.9-5.5,9.8-11,14.6-16.5
			c9.1-10.4,17.7-21.5,28.8-29.8c10.7-8,23.2-12.8,35-18.8c11.6-5.9,22.5-13.3,32.7-21.5c5.8-4.6,11.4-9.5,16.9-14.4
			c2.8-2.5,5.6-4.9,8.3-7.5c0.7-0.6,1.4-1.3,2-1.9c0,0.1,0,0.1,0,0.2c0,0.2,0.1,0.4,0.2,0.6c0.1,0.2,0.4,0.4,0.6,0.5
			c0.1,0,0.2,0.1,0.4,0.1c0.1,0,0.3,0,0.4-0.1c0.1,0,0.2,0,0.3-0.1c0.1-0.1,0.3-0.2,0.3-0.3c0.2-0.2,0-0.6-0.3-0.7
			c-0.1,0-0.1,0-0.2,0c0,0-0.1,0-0.1,0c-0.1,0-0.1-0.1-0.2-0.1c0,0,0,0,0,0c0,0,0,0,0,0c0,0,0,0,0,0c0,0,0,0,0,0c0,0,0,0,0,0
			c0,0,0,0,0,0c0,0,0,0,0,0c0,0,0.1,0,0.1,0.1c0,0-0.1-0.1-0.1-0.1c0,0,0.1-0.1,0.1-0.1c0-0.1,0.1-0.1,0.1-0.2c0,0,0,0,0,0
			c0,0,0.1-0.1,0.1-0.1c0.1-0.1,0.2-0.2,0.2-0.3c0,0,0,0,0.1,0c0.2-0.1,0.3-0.3,0.2-0.4c-0.1-0.2-0.2-0.3-0.4-0.3
			c-0.1,0-0.1,0-0.2,0c-0.1,0-0.1,0-0.2-0.1c1.4-1.4,2.8-2.7,4.1-4.3C172.8,186.8,172.4,186.4,172.1,186.6z"/>
	</g>
	<path class="st3" d="M177.8,146.1C177.8,146.1,177.8,146.1,177.8,146.1"/>
	<path class="st2" d="M352.1,112.2c-7.2,1.6-14.3,4.4-21.1,7.1c-3.5,1.4-7,3-10.4,4.5c-3.2,1.5-6.4,3-9.4,4.8
		c-5.1,3.1-9.9,7.9-10.4,14.3c-0.2,3.2,0.9,6.2,2.6,8.9c1.9,3.1,4.1,6,6.2,9c2.8,4,6.7,9.7,11.8,10.8c0,0,0,0,0,0
		c0.2,0.4,0.4,0.7,0.7,1c0.7,0.7,1.5,1.3,2.3,1.8c1.6,0.9,3.4,1.6,5.3,1.4c1.6-0.1,3.3-0.8,4.5-1.9c1-0.9,2.2-2.7,1.4-4.1
		c0.9-0.1,1.9-0.3,2.8-0.4c1-0.2,1.9-0.4,2.9-0.6c0.9-0.2,1.8-0.3,2.6-0.7c0.4-0.2,0.3-0.8-0.1-0.8c-0.9-0.1-1.8,0.2-2.6,0.4
		c-0.8,0.2-1.7,0.3-2.5,0.4c-1.9,0.3-3.8,0.6-5.7,0.9c-1.8,0.2-3.7,0.4-5.5,0.6c-1.8,0.1-3.6,0.1-5.3,0.4c-4.7-0.9-8-5.5-10.8-9.3
		c-2-2.8-4.1-5.6-6.1-8.4c-1.8-2.6-3.3-5.5-3.2-8.7c0.2-6.5,5.5-11.3,10.8-14.3c5.7-3.3,11.8-5.9,17.8-8.3c3.5-1.4,7-2.8,10.6-4
		c3.7-1.3,7.5-2.4,11.2-3.7C352.8,112.9,352.6,112.1,352.1,112.2z M326.4,170.9c0.3,0,0.6-0.1,1-0.1c1.8-0.1,3.7-0.3,5.5-0.5
		c0.5-0.1,1-0.1,1.5-0.2c-0.2,0.5-0.3,1-0.5,1.5c-0.2,0.5-0.6,1-1,1.4c-1,0.9-2.3,1.5-3.7,1.4c-1.6-0.1-3-0.6-4.3-1.5
		c-0.5-0.4-1-0.8-1.6-1.1c0.9,0,1.9-0.2,2.8-0.6C326.3,171.2,326.4,171.1,326.4,170.9z"/>
	<path class="st2" d="M357.3,152.8c-4.1,0.9-7.8,3.2-11.8,4.3c-1.9,0.5-3.9,0.6-5.6-0.4c-1.3-0.8-2-2-2.5-3.3
		c0.1-0.1,0.1-0.3-0.1-0.3c0,0,0,0,0,0c0,0,0,0,0,0c0-0.1-0.2-0.1-0.3,0c0,0,0,0.1,0,0.1c-2.1,0.6-4.2,1.4-6.2,2.3
		c0-0.1,0.1-0.2,0.1-0.3c0,0,0,0,0,0c0-0.1,0.1-0.1,0.1-0.2c0.1-0.1,0.2-0.1,0.2-0.2c0.1-0.1,0-0.1,0.1-0.2c0.1-0.1,0-0.3-0.1-0.3
		c-0.1,0-0.3,0-0.5,0.1c-0.2,0.1-0.3,0.2-0.5,0.3c0,0,0,0,0,0c0,0-0.1,0-0.1,0c-0.1,0.1-0.2,0.2-0.3,0.3c-0.1,0.2-0.2,0.3-0.3,0.5
		c0,0.1,0,0.1-0.1,0.2c-1-0.2-2.3,0.2-3.2,0.2c-1.2,0.1-2.5,0.2-3.7,0.2c-1.2,0-2.4-0.1-3.6-0.2c-0.6-0.1-1.3-0.2-1.9-0.3
		c-0.3,0-0.5-0.1-0.8-0.2c-0.1,0-0.3-0.1-0.4-0.1c-0.2,0.1-0.5,0.1-0.7,0.2c-0.1,0-0.2,0.2-0.1,0.2c0.2,0.1,0.5,0.5,0.8,0.6
		c0.2,0.1,0.6,0.1,0.8,0.2c0.6,0.1,1.3,0.2,1.9,0.3c1.3,0.2,2.7,0.3,4,0.4c1.3,0,2.5,0,3.8-0.1c0.8-0.1,2-0.1,2.8-0.4
		c-0.1,0.3-0.1,0.7-0.1,1c-0.1,0.7-0.2,1.6-0.4,2.2c-0.1,0.4-0.2,0.6-0.4,0.9c0,0-0.2,0.2-0.3,0.3c-0.2,0.1-0.4,0.3-0.5,0.6
		c0,0.2,0.1,0.4,0.2,0.5c0.8,0.5,1.7-0.7,2-1.4c0.3-0.7,0.5-1.6,0.6-2.3c0.1-0.7,0.2-1.5,0.3-2.2c0.7-0.2,1.4-0.3,2.1-0.6
		c0.4-0.2,0.9-0.4,1.3-0.6c0.2-0.1,0.4-0.2,0.6-0.3c0.2-0.1,0.3-0.2,0.5-0.3c0.7-0.3,1.3-0.6,1.9-0.9c-0.2,1.3,0.7,2.6,1.7,3.5
		c1.4,1.2,3.3,1.6,5.1,1.4c2.4-0.2,4.6-1.3,6.8-2.2c2.4-1,4.8-1.9,7-3.2C357.6,153.1,357.5,152.8,357.3,152.8z"/>
	<path class="st2" d="M342.8,146c-0.3,0-0.5,0-0.7,0.3c-0.1,0.2-0.3,0.3-0.4,0.5c-0.3,0.3-0.5,0.6-0.8,0.9c-0.5,0.6-1,1.2-1.6,1.7
		c-0.6,0.5-1.2,1.1-1.8,1.5c-0.3,0.2-0.7,0.5-1,0.7c-0.3,0.2-0.7,0.5-0.9,0.8c-0.2,0.3,0.1,0.7,0.4,0.7c0.4,0,0.9-0.3,1.3-0.4
		c0.4-0.2,0.8-0.5,1.1-0.7c0.7-0.5,1.4-1.1,2-1.7c0.6-0.6,1.2-1.2,1.8-1.9c0.3-0.4,0.5-0.8,0.7-1.2c0.1-0.2,0.3-0.4,0.2-0.7
		C343.2,146.3,343,146,342.8,146z"/>
	<path class="st2" d="M327.5,163.1c-0.6,0.8-1.3,1.5-2.1,2.1c-0.4,0.3-0.8,0.5-1.2,0.8c-0.2,0.1-0.4,0.2-0.7,0.4
		c-0.2,0.1-0.5,0.2-0.6,0.4c-0.1,0.1-0.1,0.3,0.1,0.3c0.5,0,1-0.3,1.4-0.5c0.5-0.3,0.9-0.6,1.3-0.9c0.8-0.7,1.5-1.4,2.1-2.3
		C327.8,163.1,327.6,162.9,327.5,163.1z"/>
	<path class="st2" d="M383.1,214.7c0.6,0.1,1.1,0.2,1.7,0.5c0.9,0.5,1.8,1,2.7,1.5c-0.5-0.5-1-1-1.6-1.4c-1.1-1.5-2.4-2.8-3.6-4.1
		c-1.5-1.6-3-3.2-4.5-4.8c-2.9-3.2-5.9-6.5-8.8-9.7c-5.5-6.1-11.8-12-15-19.7c-0.8-2-1.5-4.1-2-6.3c-0.4-2.1-0.6-4.2-1.1-6.2
		c0.6,0.2,1.2,0.3,1.8,0.3c1.1,0.1,2.8,0.3,3.7-0.4c0.2-0.2,0.2-0.5-0.1-0.7c-0.5-0.2-1.1-0.2-1.6-0.2c-0.6,0-1.1,0-1.7-0.1
		c-1.2-0.1-2.4-0.3-3.5-0.8c-1.1-0.4-2.1-0.9-3.1-1.6c-1-0.7-1.8-1.5-2.8-2.2c-0.3-0.2-0.7,0.1-0.5,0.4c1.2,2.2,3.7,3.6,6,4.5
		c0.3,0.1,0.6,0.2,1,0.3c-0.6,3.7,0.4,7.7,1.6,11.2c1.3,3.9,3.4,7.4,5.9,10.6c2.7,3.4,5.7,6.6,8.6,9.8c3,3.4,6.1,6.8,9.1,10.1
		c1.7,1.9,3.3,3.7,5,5.6C381.2,212.6,382.1,213.7,383.1,214.7z"/>
	<path class="st2" d="M387.8,217c3.7,2.2,7.1,4.6,10.3,7.3c0.6,0.4,1.2,0.8,1.8,1.2c4.4,2.9,8.9,5.8,13.2,8.8
		c4.3,2.9,8.2,6.1,11.8,9.9c3.5,3.6,7,7.1,10.8,10.3c2.1,1.8,4.3,3.5,6.5,5.2c2.2,1.7,4.5,3.6,7,4.9c0.5,0.3,1.1-0.5,0.7-1
		c-1.7-1.8-3.8-3.2-5.7-4.7c-2-1.6-4-3.2-6-4.8c-3.9-3.3-7.6-6.9-11.2-10.5c-3.5-3.6-7.2-6.9-11.3-9.7c-4.4-3-8.9-5.9-13.4-8.8
		c-5-3.3-10-6.7-15.4-9.3c-0.3-0.1-0.5,0.3-0.2,0.5C387.2,216.4,387.5,216.7,387.8,217z"/>
	<path class="st2" d="M127,10.5c-4.4,1.3-8.6,3.2-12.8,4.9c-4.3,1.7-8.7,3.5-13,5.2c-8.6,3.4-17.2,6.9-25.8,10.3
		C58.2,37.7,41,44.7,23.8,51.6c-4.9,2-9.7,3.9-14.6,5.9c-2.4,1-4.8,1.9-7.2,2.9c-2.3,0.9-4.9,1.6-6.8,3.3C-5,63.8-4.8,64-4.7,64
		c2.3-0.1,4.2-1.1,6.3-1.9c2.2-0.9,4.3-1.7,6.5-2.6c4.3-1.7,8.5-3.4,12.8-5.1c8.6-3.4,17.2-6.8,25.8-10.2
		C64,37.4,81.3,30.6,98.5,23.7c4.8-1.9,9.6-3.8,14.4-5.7l7.2-2.9c2.5-1,5-1.9,7.4-3.1C128.3,11.6,128,10.2,127,10.5z"/>
	<path class="st2" d="M303.9-1.9c-2.5,1.3-4.8,3.2-7.1,4.9c-2.4,1.7-4.7,3.5-7.1,5.2c-4.8,3.4-9.6,6.7-14.5,10.1
		c-9.6,6.6-19.3,13.1-29.1,19.5c-2.4,1.6-4.9,3.2-7.4,4.8c-2-1.6-4.3-2.8-6.5-4.2c-2.3-1.4-4.6-2.9-6.8-4.4c-4.6-3-9.2-6-13.7-9
		c-9.1-6.1-18.1-12.3-27-18.8c-5-3.7-9.8-7.7-15.1-10.8c-0.2-0.1-0.4,0.1-0.2,0.3c3.8,3.8,8.3,6.9,12.7,10.2c4.5,3.3,9,6.6,13.5,9.8
		c9,6.4,18,12.8,27.3,18.8c2.6,1.7,5.2,3.4,7.8,5c2.2,1.4,4.4,2.9,6.7,4.1c-1.2,0.8-2.3,1.5-3.5,2.3c-1.3,0.9-2.7,1.7-3.6,3
		c-0.1,0.2,0,0.4,0.2,0.4c2.5-0.5,4.9-2.5,7-3.9c0.5-0.3,1-0.7,1.5-1c0.2,0,0.3-0.1,0.4-0.3c1.8-1.2,3.7-2.4,5.5-3.6
		c4.9-3.2,9.8-6.4,14.7-9.7c9.7-6.5,19.4-13,29-19.6c2.7-1.8,5.4-3.7,8.1-5.5c2.8-1.8,5.7-3.6,8.2-5.8C305.7-1,304.9-2.5,303.9-1.9z
		"/>
	<path class="st2" d="M318.6,39.2c-0.4-1.9-0.7-3.7-1.1-5.6c-0.7-3.8-1.5-7.5-2.2-11.3c-0.6-3.7-1.1-7.3-1.2-11.1
		c-0.1-2,0-4.1,0.1-6.1c0.1-1.8,0.4-3.6,0.1-5.5c-0.1-0.4-0.6-0.4-0.7-0.1c-0.7,1.7-0.9,3.5-1,5.4c-0.1,1.9-0.2,3.9-0.1,5.8
		c0.1,3.8,0.5,7.6,1.1,11.3c0.6,3.9,1.4,7.7,2.1,11.6c0.3,1.9,0.7,3.7,1,5.6c0.4,1.9,0.6,3.9,1.4,5.7c0.2,0.5,1.1,0.4,1.1-0.2
		C319.3,42.9,319,41.1,318.6,39.2z"/>
	<path class="st2" d="M441.1,74.3c-3.4-3-7.3-5.4-11.2-7.7c-3.8-2.3-7.8-4.3-11.8-6.2c-8.3-3.9-16.7-7.6-25.2-10.8
		c-17.1-6.5-34.5-12.2-51-20.1c-4.6-2.2-9.2-4.6-13.6-7.3c-4.4-2.6-8.6-5.6-12.7-8.6c-0.7-0.5-1.4,0.5-0.7,1
		c6.9,5.7,14.9,10.2,22.8,14.3c8.1,4.1,16.6,7.5,25.1,10.8c8.5,3.3,17.1,6.3,25.7,9.5c8.6,3.2,17.2,6.4,25.5,10.2
		c4.7,2.2,9.2,4.6,13.7,7.2c4.5,2.6,8.6,5.6,13,8.2C441,75,441.4,74.5,441.1,74.3z"/>
	<path class="st3" d="M206.8,96.3C206.8,96.3,206.8,96.3,206.8,96.3"/>
	<path class="st2" d="M444.5,160.3c-3.3-1.7-5.3-5.1-7.3-8c-2.4-3.5-4.7-7-7-10.4c-4.6-6.8-9.1-13.7-13.5-20.7
		c-8.8-14-17.1-28.4-23.9-43.5c-1.7-3.7-3.3-7.5-4.8-11.3c-1.4-3.4-2.5-7-4.1-10.3c-1.4-3.1-3.3-6-6-8.2c-2.6-2.1-5.9-3.2-9.2-3.5
		c-7.6-0.8-15.3,1.6-22.6,3.2c-8.8,2-17.5,4-26.2,6.1c-1.7,0.4-3.4,0.8-5.1,1.2c-0.5-8-1.7-15.9-3.2-23.8c-0.6-3.3-1.2-6.6-2.3-9.8
		c-0.9-2.9-2.3-5.5-4.6-7.5c-0.2-0.1-0.5-0.2-0.6-0.1c-19,11.2-38.1,22.5-58.4,31.2c-5.2,2.2-10.5,4.1-15.6,6.4
		c0-0.4-0.1-0.7-0.6-0.7c-5.2,0-10.1-0.8-15.2-2.1c-0.4-0.1-0.8-0.2-1.1-0.3c0.3-0.2,0.5-0.4,0.7-0.5c0.9-0.6,1.7-1.3,2.6-1.9
		c1.6-1.2,3.1-2.5,4.6-3.9c1.7,0.8,3.4,1.6,5,2.5c0.9,0.5,1.8,0.9,2.7,1.4c0.4,0.2,0.9,0.6,1.3,0.7c0.4,0.1,0.7,0,1.1,0.2
		c0.2,0.1,0.3-0.2,0.2-0.3c-0.3-0.2-0.5-0.6-0.8-0.8c-0.3-0.3-0.9-0.5-1.3-0.8c-0.9-0.5-1.7-1-2.6-1.4c-1.8-1-3.7-1.9-5.5-2.8
		c-0.2-0.1-0.5,0-0.7,0.1c-1.6,1.5-3.2,2.8-4.9,4.2c-0.8,0.6-1.6,1.2-2.4,1.8c-0.6,0.4-1.2,0.7-1.6,1.3c-4.1-1-8.2-2.1-12.3-3
		c-10.1-2.3-20.3-4.6-30.5-6.5c-1.4-0.3-2.9-0.5-4.3-0.8c-0.9-0.2-1.9-0.3-2.7,0.2c-1.6,1-0.8,3.2-1.9,4.5c0,0,0,0,0,0
		c0.2-0.1,0.4-0.2,0.5-0.4c-0.5,4.9-1.3,9.7-2.4,14.5c-0.4-0.2-0.8-0.5-1.1-0.7c-1.5-1.1-3-2.3-4.3-3.6c-2.9-2.8-5.1-6.2-7.1-9.6
		c-4.1-7-8.3-14.1-11.5-21.5c-0.9-2.1-1.8-4.3-2.5-6.5c-0.7-2.2-1.1-4.5-2-6.6c-0.1-0.2-0.3-0.3-0.4-0.3c1.3-3.4,2.3-6.8,3.4-10.2
		c1.2-3.9,2.4-7.9,3.5-11.8c1-3.8,2-7.6,2.9-11.4c0.5-2,1-4.1,1.4-6.1c0-0.2,0.1-0.6,0.2-1.1c0.8,0.6,2.4,0.5,2.7-0.8
		c0.2-1-0.8-1.9-1.7-2c-1.6-0.2-1.8,1.2-2,2.4c-2.1,9.1-4.5,18.2-7.3,27.1c-1.6,5-3.4,9.9-5,14.9c-0.3,0.9,0.8,1.4,1.3,0.8
		c0.2,1.7,0.8,3.4,1.3,4.9c0.6,2,1.3,4,2.1,5.9c1.6,4,3.5,7.8,5.5,11.6c2,3.7,4.1,7.4,6.2,11.1c2,3.6,4.2,7.2,7.1,10.1
		c1.4,1.5,3,2.8,4.7,4c0.8,0.5,1.6,1.1,2.5,1.6c-0.7,2.6-1.4,5.2-2.2,7.8c-0.4,1.2,1.5,1.9,1.9,0.7c0.8-2.5,1.6-5.1,2.2-7.7
		c0.4,0.1,0.9,0.3,1.3,0.3c0.5,0.1,0.8-0.6,0.5-0.9c-0.4-0.4-0.9-0.8-1.4-1.1c1.2-5.1,2.1-10.3,2.6-15.6c0.1-0.9-0.8-1.2-1.4-1
		c0.3-0.6,0.4-1.2,0.8-1.8c0.7-1,2.2-0.5,3.3-0.3c1.3,0.2,2.6,0.5,3.8,0.7c5,1,10,2,15,3.1c9.9,2.2,19.7,4.7,29.6,7.3
		c4.8,1.3,10,2.6,15,2.1c0,0,0,0.1,0.1,0.1c0.3-0.1,0.6-0.1,0.9-0.2c0,0,0.1,0,0.1,0c0,0,0,0,0.1,0c4.9-1.1,9.6-2.9,14.3-4.8
		c5.1-2.1,10.2-4.4,15.1-6.8c9.3-4.5,18.4-9.4,27.3-14.7c-1.4,1-2.8,1.9-4.2,2.9c-4,2.8-8.1,5.4-11.9,8.4c-3.8,3-7.2,6.5-10.6,10
		c-3.3,3.4-6.8,6.7-9.9,10.3c-0.2-0.6-0.3-1.3-0.5-1.9c-0.2-0.7-1.4-0.9-1.5,0c0,0.2,0,2.3,0.5,2.3c0.7,3.3,1.2,6.6,1.4,9.9
		c0.2,4.2-0.2,8.3-0.8,12.4c-0.2,1.2,1.6,1.4,1.8,0.2c1.3-7.1,0.9-14.8-0.7-21.9c0,0,0.1,0,0.1-0.1c3.7-3.1,7-6.8,10.4-10.2
		c3.4-3.4,6.8-7,10.7-9.9c3.5-2.7,7.3-5.1,11-7.5c-0.8,0.7-1.6,1.4-2.4,2.1c-6.3,5.8-12.5,11.8-18.8,17.7l-5.4,5.1
		c-1.7,1.6-3.6,3.2-4.8,5.2c-0.1,0.2,0.1,0.6,0.4,0.4c1.7-1,3.2-2.4,4.7-3.8c1.7-1.5,3.3-3.1,4.9-4.6c3.1-2.9,6.3-5.9,9.4-8.8
		c3.2-3,6.4-6,9.5-8.9c2.9-2.7,5.8-5.2,9.3-6.9c3.6-1.8,7.3-3.2,10.3-6c0.4-0.4,0.4-0.8,0.1-1.3c-0.9-1.3-2.7-1.6-3.9-0.5
		c-0.1-0.1-0.1-0.1-0.2-0.1c2.9-1.7,5.9-3.5,8.8-5.2c4.8,4.3,5.2,11.7,6,17.7c1,7.5,1.7,15,2.5,22.6c-0.8,0.2-1.7,0.4-2.5,0.6
		c0.2-1.2-0.1-2.7-0.2-3.9c-0.1-1.7-0.3-3.3-0.5-5c-0.3-3.2-0.7-6.3-1.5-9.4c-0.8-2.8-1.7-5.5-2.9-8.2c-0.6-1.4-1.3-2.7-2.1-4
		c-0.8-1.3-1.8-2.4-2.8-3.5c-0.2-0.3-0.8,0-0.6,0.4c0.7,1.2,1.2,2.6,1.9,3.8c0.7,1.3,1.4,2.5,2,3.9c1.2,2.8,2.2,5.6,2.8,8.6
		c0.6,3,0.8,6,1,9.1c0.1,1.6,0.2,3.2,0.3,4.8c0.1,1.3,0,2.8,0.5,4c-0.5,0.1-0.9,0.2-1.4,0.3c-2.2,0.6-4.4,1.1-6.5,1.6
		c-1.9,0.4-4,0.7-5.7,1.7c-2.9,1.6-3.7,4.9-4.3,7.9c-0.9,4.4-1.8,8.8-2.8,13.2c-0.4,1.8-0.8,3.6-1.1,5.4c-1.2,1.7-2.1,3.5-2.7,5.5
		c-0.5,1.9-0.7,3.8-0.6,5.7c-6.2-3-12.2-6.2-18.4-9.3c-6.1-3.1-12.6-5.7-19.4-6.7c-5.9-0.9-11.9-0.3-17.5,1.9
		c0.4-1.2,0.5-2.5,0.7-3.6c0.4-2.3,0.8-4.6,1-6.9c0.3-4.2,0.2-9.3-2.1-12.9c-0.3-0.5-1.1-0.1-1,0.5c0.3,2.2,1,4.3,1.1,6.5
		c0.1,2.1,0.1,4.3-0.2,6.4c-0.2,2.1-0.6,4.2-1,6.3c-0.3,1.5-0.9,3.3-0.9,4.9c-4.5,2.2-8.6,5.2-12.6,8.2c-2.6,2-5.2,4-7.9,5.8
		c-2.7,1.8-5.6,3.1-8.4,4.9c-0.2,0.1-0.2,0.3-0.2,0.5c-0.9-0.9-1.8-1.7-2.8-2.4c-0.6-0.4-1.2-0.8-1.9-1.2c0.2-0.1,0.4-0.3,0.4-0.6
		c0.2-4.3-0.1-8.6-0.1-12.9c0-3.4,0-6.8-1.7-9.8c-1.3-2.4-3.5-4.3-5.9-5.5c-0.2-0.1-0.3-0.2-0.5-0.2c0.6,0,1.1,0.1,1.7,0.1
		c0.4,0,0.5-0.6,0.1-0.6c-1.3-0.1-2.7-0.2-4-0.4c-1.2-0.3-2.4-0.5-3.6-0.3c-4-0.4-7.9-0.7-11.9-1.1c0.4-0.5,0.4-1.2-0.1-1.5
		c-1.7-1-0.4-4.2-0.1-5.6c0.6-2.4,1.4-4.8,2.2-7.1c0.8-2.3,1.7-4.5,2.7-6.7c0.7-1.7,1.6-3.3,2.3-5c8.1,4.5,16.4,8.8,24.9,12.8
		c4.4,2.1,8.9,4.1,13.3,6.1c4.5,1.9,8.9,4,13.6,5.5c1,0.3,1.6-1.1,0.6-1.5c-4.4-2.1-9-3.7-13.5-5.6c-4.3-1.9-8.7-3.8-12.9-5.8
		c-7.5-3.5-14.9-7.3-22.2-11.3c13.5,2,26.2,7.5,38,14.2c3.4,1.9,6.7,3.9,10,5.9c-0.1,0.2,0,0.4,0.3,0.4c0.1,0,0.2,0,0.2-0.1
		c0,0,0.1,0,0.1,0c0.1,0,0.3,0.1,0.4,0.2c0.7,0.4,1.5-0.6,0.8-1.1c-12.5-8.5-26.4-16-41.2-19.7c-3.8-1-7.7-1.6-11.6-2
		c0,0,0-0.1,0-0.1c0.1-0.4-0.4-0.6-0.6-0.3c-0.1,0.1-0.2,0.2-0.3,0.3c-0.1,0-0.1,0-0.2,0c-0.6-0.1-1.2,0.8-0.8,1.3
		c-1.2,1.8-2.2,3.8-3.1,5.7c-1.2,2.6-2.4,5.4-3.3,8.1c-0.9,2.6-1.7,5.2-2.3,7.9c-0.4,1.7-0.2,3.6,1.1,4.7c-4.6-0.4-9.2-0.9-13.8-1.3
		c-5.9-0.5-11.9-1.1-17.8-1.6c-5.3-0.5-10.8-1.4-16.1-0.5c-9.4,1.6-14.8,9.6-19.3,17.3c-6,10.2-12,20.3-18,30.5
		c-2.7,4.7-5.4,9.3-7.6,14.3c-2.2,5.1-3.9,10.3-6.4,15.3c-4.7,9.3-11.9,17-19.2,24.4c-8.2,8.3-16.4,16.5-24.6,24.7
		c-8.3,8.4-16.8,16.6-25.1,25c-16.8,16.8-33.6,33.5-50.1,50.5c-2,2.1-4,4.2-6.1,6.3c-0.5,0.5,0.2,1.5,0.8,0.9
		c16.8-16.4,33.4-33,49.9-49.6c16.5-16.7,32.9-33.5,49.5-50.1c7.3-7.3,14.9-14.6,21-23c2.9-4.1,5.4-8.5,7.4-13.2
		c2.1-5.1,3.9-10.2,6.5-15.1c2.6-5.1,5.7-10.1,8.6-15.1c2.9-5,5.8-10,8.8-15c2.7-4.6,5.3-9.3,8.1-13.8c2.4-3.8,5.2-7.6,9-10.2
		c4.6-3.1,10-3.5,15.4-3.1c5.7,0.4,11.4,0.9,17.1,1.4c11.5,1,23,1.9,34.5,2.9c0,0.1,0,0.2,0.1,0.2c1.3,0.2,2.6,0.1,3.9,0.4
		c1.4,0.3,2.7,0.8,3.9,1.5c2.4,1.4,4.2,3.5,5.3,6c1.3,3.1,0.9,6.7,0.9,10c0,3.6-0.3,7.3-0.1,11c-5.2-2.9-11.1-4.5-16.8-6.1
		c-7.6-2.2-15.3-4.1-22.5-7.4c-6.7-3.1-15-8.1-22.2-3.2c-0.4,0.3,0.1,0.8,0.5,0.6c6.6-4.2,14.2,0.2,20.3,3.1
		c6.6,3.2,13.6,5.1,20.6,7.1c6.6,1.9,13.6,3.6,19.7,7c2.6,1.5,5.2,3.3,6.9,5.8c2.1,2.9,2.7,6.5,2.3,10c-0.4,4-1.9,8-3.7,11.6
		c-1.4,2.9-3.1,5.4-4.9,8c-7.5-9.5-17.6-16.3-27.5-22.9c-5.2-3.5-11.7-8-18.3-4.9c-0.2,0.1-0.1,0.4,0.1,0.4c3.1-0.4,6-0.5,9.1,0.6
		c2.8,1,5.2,2.8,7.7,4.4c4.5,2.9,9,5.9,13.3,9.2c4.4,3.4,8.6,7.2,12.2,11.4c0.8,1,1.7,2,2.5,3.1c0,0,0,0,0,0.1c0.6,0.5,1,1,1.4,1.7
		c2,2.8,3.5,5.9,4.1,9.2c0.9,5.6-1.5,11.4-5.9,14.9c-0.1,0.1-0.2,0.2-0.2,0.3c-0.6-0.9-1.2-1.7-1.8-2.5c-1.7-2.6-3.3-5.2-4.8-8
		c-0.2-0.3-0.3-0.6-0.5-0.9c-0.1-0.4-0.3-0.8-0.5-1.1c-0.3-0.6-0.6-1.2-1-1.8c0,0,0,0,0,0c0,0,0-0.1-0.1-0.1c-0.5-1.2-1-2.6-2.1-3.3
		c-0.1,0-0.1,0-0.2,0c-0.8-1-1.7-2-2.7-2.9c-0.5-0.5-1-0.9-1.5-1.3c-0.2-0.2-0.5-0.4-0.7-0.6c-0.2-0.1-0.5,0-0.7-0.1
		c-0.2-0.1-0.4,0.2-0.2,0.3c0.1,0.1,0.1,0.4,0.2,0.6c0.2,0.2,0.5,0.4,0.8,0.6c0.5,0.4,1,0.9,1.5,1.4c0.9,0.9,1.8,1.9,2.6,2.9
		c0.3,0.4,0.6,0.8,0.9,1.3c0.4,1.4,1.2,2.8,1.7,3.8c1.1,2.2,2.3,4.4,3.5,6.6c1.2,2,2.5,3.9,3.8,5.8c1.4,1.9,2.8,3.9,3.6,6.2
		c1.7,5.2-2.2,8.7-5.5,12c-1.9,1.9-3.9,3.8-5.8,5.8c0,0,0,0,0,0c-0.4-0.4-1-0.5-1.5-0.7c-0.5-0.2-1.1-0.3-1.7-0.4
		c-1.2-0.3-2.3-0.6-3.5-0.8c-0.4-0.1-0.6,0.6-0.2,0.7c1.1,0.4,2.2,0.7,3.4,1c0.5,0.1,1.1,0.3,1.6,0.4c0.3,0.1,0.6,0.1,0.9,0.1
		c0.2,0,0.4,0,0.6,0c-1.7,1.7-3.4,3.3-5.1,4.9c-3.6,3.3-7.8,6.6-12.9,6.2c-1.4-0.1-1.6,2-0.2,2.1c4.7,0.3,8.8-2,12.3-4.9
		c4.2-3.5,7.9-7.6,11.7-11.4c3.2-3.2,7.6-6.7,8-11.5c0.3-3.3-1.3-6.2-3.1-8.9c0.1,0,0.3-0.1,0.4-0.2c4-3.2,6.5-8.2,6.6-13.4
		c0.1-5.1-2.2-9.7-5.2-13.7c1.9-2.4,3.3-5.1,4.7-7.8c1.7-3.4,3.2-7,3.9-10.7c0.7-3.6,0.6-7.2-1-10.6c-0.7-1.5-1.7-2.8-2.8-4
		c0.1,0,0.1,0,0.2,0c2.6-0.6,5.1-2.2,7.3-3.6c0.4-0.3,0.8-0.5,1.2-0.8c0.2,4.6,0.8,9.2,1.3,13.8c0.5,4.8,1,9.6,1.5,14.5
		c0.9,9.6,1.8,19.3,2.5,29c1.4,19.3,2.3,38.7,2.8,58.1c0.8,30.9,0.1,61.8-1,92.7c0.8-0.1,1.5-0.2,2.3-0.2c0.3-9.5,0.7-19,0.9-28.5
		c1-38.5,0.1-76.9-2.6-115.3c-0.7-10.8-1.6-21.6-2.7-32.4c-0.5-5.4-1.1-10.8-1.7-16.2c-0.6-5.4-1-10.8-2.2-16c1.5-1,2.9-2.1,4.3-3.1
		c4.5-3.4,8.9-6.8,13.8-9.6c0.3-0.2,0.6-0.3,0.9-0.5c0.2,0.2,0.5,0.2,0.7,0c0.2-0.2,0.3-0.4,0.5-0.6c7.5-3.5,15.7-3.1,23.5-0.9
		c-0.7,16-0.2,32.2,0.3,48.2c0.6,16.1,1.4,32.2,2.4,48.3c1.9,32.3,4,64.5,4.4,96.8c0.1,9,0,18.1-0.2,27.1c0,0.6,0,1.1,0,1.7
		c0.7,0,1.4,0.1,2.1,0.1c0.2-7.8,0.3-15.5,0.3-23.3c-0.1-16-0.6-32.1-1.4-48.1c-1.6-32.2-4-64.4-5.3-96.6
		C252.1,121,252,103,252,85.1c3.6,1.1,7,2.6,10.3,4.2c6.9,3.4,13.4,7.7,20.6,10.5c0.1,0,0.2,0,0.3,0c0.8,4.8,3.5,9.3,7.6,12
		c0.1,0.1,0.2,0.1,0.3,0.1c-2.2,1.4-4.1,3.1-4.9,5.8c-1.1,4.2,0.7,8.3,2.8,11.8c1.2,2,2.5,4,3.5,6.1c1.1,2.2,1.9,4.6,2.7,6.9
		c3,8.5,6.6,19.8,15.9,23.4c0.9,0.4,1.7-1,0.8-1.5c-3.6-2-6.4-4.7-8.7-8.1c-2.4-3.6-3.9-7.7-5.4-11.7c-1.6-4.3-3.4-8.5-5.8-12.4
		c-2.3-3.8-5.1-7.7-5.1-12.3c0-5.2,4.7-7.3,8.7-9.4c4.2-2.2,8.4-4.3,12.7-6.3c8.5-4,17.2-7.5,26-10.6c5-1.7,10-3.3,15-4.8
		c5-1.5,10.2-2.5,15.2-4.1c0.7-0.2,0.3-1.3-0.4-1.2c-4.9,0.6-9.7,2.2-14.4,3.5c-4.7,1.3-9.3,2.8-13.9,4.4c-9.4,3.2-18.5,7-27.5,11.3
		c-4.5,2.1-8.9,4.4-13.2,6.8c-1,0.6-2.1,1.1-3.2,1.8c0.1-0.3,0-0.7-0.3-0.9c-5.4-3.6-8.3-10.5-7.2-16.9c0.3-1.7,0.9-3.3,1.8-4.8
		c0.5,0.2,1.3,0,1.4-0.7c0.1-0.6,0.2-1.2,0.4-1.8c2.6-3.2,6.3-5.6,10-7.2c7.7-3.3,16.2-3.9,24.4-5.3c8.3-1.4,16.6-3.7,24.5-6.6
		c8.4-3,17.8-7.8,26.8-4.4c0.5,0.2,0.7-0.5,0.3-0.7c-7.9-3.4-16.4-0.4-24,2.4c-8.7,3.2-17.5,5.8-26.6,7.7
		c-8.6,1.8-17.8,2.2-25.9,5.7c-3.2,1.4-6.4,3.4-8.9,5.9c0.6-2.9,1.1-5.7,1.7-8.6c0.4-2.1,0.8-4.2,1.2-6.4c0.3-1.7,0.6-3.5,1.5-5.1
		c1-1.8,2.6-2.4,4.5-2.8c2.2-0.5,4.4-1,6.6-1.5c4.3-1,8.6-1.9,12.9-2.9c8.5-2,17-4,25.5-5.9c4.1-0.9,8.2-1.9,12.4-2.8
		c3.5-0.7,7-1.4,10.6-1.3c3.4,0,6.9,0.7,9.8,2.6c2.9,1.9,4.9,4.8,6.3,7.9c1.5,3.3,2.7,6.7,4,10.1c1.5,3.7,3,7.5,4.7,11.1
		c6.6,14.6,14.5,28.5,23,42c4.3,6.9,8.7,13.6,13.2,20.3c2.2,3.4,4.5,6.7,6.8,10c2.1,3,3.9,6.5,6.6,9c1.2,1.1,2.4,1.9,4,2.3
		C444.9,161.9,445.3,160.7,444.5,160.3z M141.1-35c0.6-0.1,0.9,0.7,0.4,1c-0.3,0.2-0.8,0.1-1.1-0.2C140.6-34.6,140.8-35,141.1-35z
		 M296.4,21.8c0.3-0.2,0.6-0.2,0.9-0.2c-2.5,2.1-5.5,3.3-8.4,4.8c-0.3,0.1-0.5,0.3-0.8,0.4c0.4-0.3,0.8-0.5,1.2-0.8
		c2-1.4,4.2-2.7,6-4.4C295.5,21.9,295.9,22.1,296.4,21.8z"/>
	<path class="st2" d="M221.7,81.6c-2.4-0.2-4.9,0.3-7.3,0.7c-2.4,0.4-4.9,0.9-7.3,1.4c-2.4,0.5-4.8,1.1-7.2,1.8
		c-1.2,0.3-2.3,0.7-3.4,1c-1.2,0.4-2.5,0.6-3.6,1.3c-0.7,0.4-0.5,1.5,0.4,1.4c1.2-0.1,2.3-0.6,3.4-0.9c1.3-0.4,2.6-0.8,3.9-1.1
		c2.3-0.6,4.6-1.2,7-1.7c2.3-0.5,4.7-1,7.1-1.4c2.4-0.4,4.9-0.5,7.2-1.3C222.4,82.5,222.3,81.7,221.7,81.6z"/>
	<path class="st2" d="M216.1,84.7c-3.9,1.7-7.5,3.9-11,6.4c-1.8,1.2-3.5,2.4-5.2,3.7c-0.8,0.6-1.6,1.3-2.5,1.9
		c-0.8,0.7-1.8,1.3-2.3,2.3c-0.3,0.5,0.1,1,0.7,0.8c0.9-0.3,1.7-0.9,2.5-1.5c0.9-0.7,1.8-1.3,2.6-2c1.7-1.3,3.4-2.5,5.2-3.8
		c3.5-2.4,7-4.8,10.4-7.4C216.6,84.9,216.4,84.5,216.1,84.7z"/>
	<path class="st2" d="M279.3,76.7c-2-0.6-4.3-0.5-6.5-0.6c-2.3-0.1-4.6-0.2-6.9-0.3c-2.3-0.1-4.6-0.2-6.9-0.2
		c-1.9-0.1-4.3-0.5-6.1,0.2c-0.3,0.1-0.2,0.5,0,0.6c1.9,0.9,4.4,0.6,6.4,0.7c2.2,0.1,4.4,0.2,6.6,0.3c2.2,0.1,4.4,0.2,6.6,0.3
		c2.1,0.1,4.5,0.4,6.6-0.1C279.6,77.5,279.8,76.8,279.3,76.7z"/>
</g>
</svg>
