<?xml version="1.0" encoding="utf-8"?>
<!-- Generator: Adobe Illustrator 27.3.1, SVG Export Plug-In . SVG Version: 6.00 Build 0)  -->
<svg version="1.1" id="Layer_1" xmlns="http://www.w3.org/2000/svg" xmlns:xlink="http://www.w3.org/1999/xlink" x="0px" y="0px"
	 viewBox="0 0 64 64" style="enable-background:new 0 0 64 64;" xml:space="preserve">
<style type="text/css">
	.st0{fill:#E94D2A;}
</style>
<path class="st0" d="M29.5,63c-5.3-6.9-7.4-13.5-6.9-21.4c1.4-0.3,2.5-1.6,2.5-3.1c0-1.8-1.4-3.2-3.2-3.2s-3.2,1.4-3.2,3.2
	c0,1.5,1,2.7,2.3,3.1c-0.6,8.2,1.7,15.2,7.2,22.4c0.2,0.2,0.4,0.3,0.6,0.3c0.2,0,0.3-0.1,0.5-0.2C29.7,63.8,29.8,63.3,29.5,63"/>
<path class="st0" d="M31.8,54.3c-0.4,0-1-0.1-1.6-0.2c0.6-0.2,1.1-0.3,1.5-0.4c0.2,0,0.3-0.2,0.3-0.4c0-0.2-0.2-0.3-0.4-0.3
	c-0.5,0.1-1.1,0.2-1.8,0.5c0.1-0.6,0.2-1.3,0.4-1.8c0.1-0.2,0-0.4-0.2-0.5c-0.2-0.1-0.4,0-0.5,0.2c-0.2,0.6-0.4,1.3-0.4,1.9
	l-0.7-1.2c-0.1-0.2-0.3-0.2-0.5-0.1c-0.2,0.1-0.2,0.3-0.1,0.5l0.8,1.4c-0.8-0.1-1.6-0.2-2.2-0.3c-0.2,0-0.4,0.1-0.4,0.3
	c0,0.2,0.1,0.4,0.3,0.4c0.4,0,1,0.1,1.6,0.2c-0.4,0.2-0.8,0.5-1.1,0.8c-0.2,0.1-0.2,0.4,0,0.5c0.1,0.1,0.2,0.1,0.3,0.1
	c0.1,0,0.2,0,0.2-0.1c0.6-0.5,1.2-0.9,1.7-1.2c0,0.6-0.1,1.1-0.3,1.6c-0.1,0.2,0.1,0.4,0.2,0.4c0,0,0.1,0,0.1,0
	c0.2,0,0.3-0.1,0.3-0.3c0.1-0.3,0.1-0.6,0.2-0.8l0.8,1.4c0.1,0.1,0.2,0.2,0.3,0.2c0.1,0,0.1,0,0.2,0c0.2-0.1,0.2-0.3,0.1-0.5
	l-1.1-1.8c0.7,0.1,1.3,0.2,1.8,0.2c0,0,0,0,0,0c0.2,0,0.3-0.1,0.4-0.3C32.2,54.5,32,54.4,31.8,54.3"/>
<path class="st0" d="M39.4,49.9l-1.7-0.1l0.9-0.9c0.1-0.1,0.1-0.4,0-0.5c-0.1-0.1-0.4-0.1-0.5,0l-0.5,0.5c0-0.2,0.1-0.5,0.1-0.7
	c0-0.2-0.1-0.4-0.3-0.4c-0.2,0-0.4,0.1-0.4,0.3c0,0.3-0.1,0.6-0.1,0.9c-0.3-0.4-0.6-0.7-0.9-1.1c-0.1-0.2-0.3-0.2-0.5-0.1
	c-0.2,0.1-0.2,0.3-0.1,0.5c0.3,0.5,0.7,0.9,1.1,1.4l-1.8-0.1c-0.2,0-0.4,0.1-0.4,0.3c0,0.2,0.1,0.4,0.3,0.4l1.5,0.1l-0.5,0.5
	c-0.1,0.1-0.1,0.4,0,0.5c0.1,0.1,0.2,0.1,0.3,0.1s0.2,0,0.3-0.1l0.6-0.6c0,0.4,0,0.8,0,1.2c0,0.2,0.2,0.4,0.4,0.4h0
	c0.2,0,0.4-0.2,0.4-0.4c0-0.4,0-0.8,0-1.2c0.2,0.2,0.3,0.4,0.5,0.6c0.1,0.1,0.2,0.1,0.3,0.1c0.1,0,0.2,0,0.2-0.1
	c0.1-0.1,0.2-0.4,0-0.5c-0.1-0.1-0.2-0.2-0.3-0.3l1.1,0.1c0,0,0,0,0,0c0.2,0,0.3-0.1,0.4-0.3C39.7,50.1,39.6,49.9,39.4,49.9"/>
<path class="st0" d="M35,16.3c-0.1-0.1-0.3-0.2-0.4-0.1l-1.1,0.7l0.1-0.9c0-0.2-0.1-0.3-0.3-0.3c-0.2,0-0.3,0.1-0.3,0.3L33,16.4
	c-0.1-0.1-0.2-0.3-0.3-0.4c-0.1-0.1-0.3-0.2-0.4-0.1c-0.1,0.1-0.2,0.3-0.1,0.4c0.1,0.2,0.2,0.4,0.4,0.6c-0.3-0.1-0.7-0.2-1-0.3
	c-0.2,0-0.3,0-0.4,0.2c0,0.2,0,0.3,0.2,0.4c0.4,0.1,0.8,0.2,1.3,0.3l-1.1,0.7c-0.1,0.1-0.2,0.3-0.1,0.4c0.1,0.1,0.2,0.1,0.2,0.1
	c0.1,0,0.1,0,0.2,0l0.9-0.6l-0.1,0.5c0,0.2,0.1,0.3,0.3,0.3c0,0,0,0,0,0c0.1,0,0.3-0.1,0.3-0.3l0.1-0.6c0.2,0.3,0.4,0.5,0.5,0.8
	c0.1,0.1,0.1,0.1,0.2,0.1c0.1,0,0.1,0,0.2-0.1c0.1-0.1,0.2-0.3,0.1-0.4c-0.2-0.2-0.4-0.5-0.5-0.7c0.2,0,0.3,0.1,0.5,0.1c0,0,0,0,0,0
	c0.1,0,0.3-0.1,0.3-0.2c0-0.2-0.1-0.3-0.2-0.3c-0.1,0-0.2,0-0.3-0.1l0.7-0.5C35.1,16.6,35.1,16.4,35,16.3"/>
<path class="st0" d="M28.5,27.7c0.6,0.6,1.3,1.2,1.8,1.6c0.1,0.1,0.3,0.1,0.4,0.1c0.2,0,0.4-0.1,0.5-0.3c0.2-0.3,0.2-0.7-0.1-0.9
	c-0.4-0.3-0.9-0.7-1.3-1.2c0.7,0,1.3,0.1,2,0.2c0,0,0,0,0.1,0c0.3,0,0.6-0.3,0.7-0.6c0-0.4-0.2-0.7-0.6-0.7
	c-0.8-0.1-1.7-0.1-2.5-0.2c0.6-0.4,1.3-0.7,1.9-0.8c0.4-0.1,0.6-0.4,0.5-0.8c-0.1-0.4-0.4-0.6-0.8-0.5c-0.8,0.1-1.7,0.5-2.5,1.1
	l0.1-1.7c0-0.4-0.3-0.7-0.6-0.7c-0.4,0-0.7,0.3-0.7,0.6l-0.1,1.9c-0.6-0.6-1.2-1.1-1.8-1.6c-0.3-0.2-0.7-0.2-0.9,0.1
	c-0.2,0.3-0.2,0.7,0.1,0.9c0.5,0.4,1,0.9,1.6,1.4c-0.7,0-1.4,0-2.1,0c-0.4,0-0.7,0.3-0.6,0.7c0,0.4,0.3,0.7,0.7,0.6
	c0.6,0,1.2,0,1.9,0c-0.5,0.6-1,1.2-1.3,1.8c-0.2,0.3-0.1,0.7,0.2,0.9c0.1,0.1,0.2,0.1,0.3,0.1c0.2,0,0.5-0.1,0.6-0.3
	c0.3-0.5,0.7-1.1,1.2-1.6L27,30.4c0,0.4,0.3,0.7,0.6,0.7c0,0,0,0,0,0c0.4,0,0.6-0.3,0.7-0.6L28.5,27.7z"/>
<path class="st0" d="M34.1,35c-0.6-0.2-1.2-0.3-1.7-0.4l0.8-0.8c0.2-0.2,0.2-0.5,0-0.6c-0.2-0.2-0.5-0.2-0.6,0L32,33.7
	c0-0.3,0.1-0.5,0.1-0.8c0-0.2-0.1-0.5-0.4-0.5c-0.2,0-0.5,0.1-0.5,0.4c-0.1,0.3-0.1,0.7-0.1,1c-0.3-0.4-0.7-0.8-1-1.2
	c-0.1-0.2-0.4-0.2-0.6-0.1c-0.2,0.1-0.2,0.4-0.1,0.6c0.3,0.4,0.7,0.9,1,1.3c-0.7,0-1.3,0-1.9,0.1c-0.2,0-0.4,0.2-0.4,0.5
	c0,0.2,0.2,0.4,0.5,0.4c0.6,0,1.2-0.1,1.8-0.1l-0.7,0.7c-0.2,0.2-0.2,0.5,0,0.6c0.1,0.1,0.2,0.1,0.3,0.1c0.1,0,0.2,0,0.3-0.1
	l0.6-0.6c0,0.4,0,0.9,0,1.3c0,0.2,0.2,0.4,0.4,0.4h0c0.2,0,0.4-0.2,0.4-0.5c0-0.4,0-0.9,0-1.3c0.2,0.2,0.3,0.4,0.5,0.6
	c0.1,0.1,0.2,0.1,0.3,0.1c0.1,0,0.2,0,0.3-0.1c0.2-0.2,0.2-0.5,0-0.6c-0.2-0.2-0.3-0.4-0.5-0.5c0.5,0.1,0.9,0.2,1.4,0.3
	c0,0,0.1,0,0.1,0c0.2,0,0.4-0.1,0.4-0.3C34.5,35.3,34.3,35,34.1,35"/>
<path class="st0" d="M11.8,27c-0.4-0.1-1.1-0.2-2-0.5c0.5-0.3,0.9-0.5,1.5-0.7c0.2-0.1,0.3-0.4,0.2-0.6c-0.1-0.2-0.4-0.3-0.6-0.2
	c-0.7,0.3-1.3,0.6-1.8,0.9c0-0.7,0.1-1.3,0.2-2c0-0.2-0.1-0.5-0.4-0.5c-0.2,0-0.5,0.1-0.5,0.4c-0.1,0.6-0.2,1.1-0.2,1.7
	c-0.3-0.4-0.6-0.9-1-1.4c-0.1-0.2-0.4-0.3-0.6-0.1c-0.2,0.1-0.3,0.4-0.1,0.6c0.3,0.5,0.7,1,1,1.4c-0.6-0.2-1.2-0.3-1.8-0.5
	c-0.2-0.1-0.5,0-0.6,0.3c-0.1,0.2,0.1,0.5,0.3,0.6c0.7,0.2,1.4,0.4,2.2,0.6c-0.6,0.5-1.2,1-1.6,1.6c-0.1,0.2-0.1,0.5,0.1,0.6
	c0.1,0.1,0.2,0.1,0.3,0.1c0.1,0,0.3-0.1,0.4-0.2c0.4-0.5,0.9-1,1.5-1.4c0,0.3,0,0.6,0,0.9c0,0.3,0,0.5,0,0.8c0,0.2,0.2,0.4,0.4,0.4
	c0,0,0,0,0,0c0.2,0,0.4-0.2,0.4-0.5c0-0.3,0-0.5,0-0.8c0-0.1,0-0.2,0-0.3c0.4,0.5,0.8,0.9,1.2,1.5c0.1,0.1,0.2,0.2,0.3,0.2
	c0.1,0,0.2,0,0.3-0.1c0.2-0.2,0.2-0.4,0-0.6c-0.5-0.6-0.9-1-1.3-1.5c0.8,0.2,1.5,0.4,1.9,0.4c0,0,0.1,0,0.1,0c0.2,0,0.4-0.1,0.4-0.4
	C12.2,27.3,12,27.1,11.8,27"/>
<path class="st0" d="M3.6,39.2c-0.3,0-0.6-0.1-0.8-0.1l0.6-0.6c0.1-0.1,0.1-0.3,0-0.4c-0.1-0.1-0.3-0.1-0.4,0l-0.4,0.4
	c0-0.2,0-0.3,0.1-0.5c0-0.2-0.1-0.3-0.2-0.3c-0.2,0-0.3,0.1-0.3,0.2C2,38,2,38.3,2,38.5c-0.2-0.3-0.5-0.6-0.7-0.8
	c-0.1-0.1-0.3-0.2-0.4-0.1c-0.1,0.1-0.2,0.3-0.1,0.4c0.2,0.3,0.5,0.6,0.7,0.9c-0.4,0-0.8,0-1.3,0C0.1,39,0,39.1,0,39.3
	c0,0.2,0.2,0.3,0.3,0.2c0.4-0.1,0.8-0.1,1.2,0L1,40c-0.1,0.1-0.1,0.3,0,0.4c0.1,0.1,0.1,0.1,0.2,0.1c0.1,0,0.2,0,0.2-0.1L1.9,40
	c0,0.3,0,0.6,0,0.9c0,0.2,0.1,0.3,0.3,0.3h0c0.2,0,0.3-0.1,0.3-0.3c0-0.3,0-0.6,0-0.9c0.1,0.1,0.2,0.3,0.3,0.4
	C2.9,40.4,3,40.5,3,40.5c0.1,0,0.1,0,0.2-0.1c0.1-0.1,0.1-0.3,0-0.4c-0.1-0.1-0.1-0.2-0.2-0.2c0.2,0,0.3,0,0.5,0.1c0,0,0,0,0,0
	c0.2,0,0.3-0.1,0.3-0.3C3.9,39.4,3.8,39.2,3.6,39.2"/>
<path class="st0" d="M5,34.1c-0.5,0-1,0.1-1.5,0.2c0.4-0.4,0.8-0.9,1.3-1.2C5,32.9,5,32.8,5,32.6c-0.1-0.1-0.3-0.2-0.4-0.1
	c-0.5,0.3-0.9,0.7-1.3,1.1c-0.1-0.5-0.2-1-0.2-1.4l0-0.1c0-0.2-0.2-0.3-0.3-0.3c-0.2,0-0.3,0.2-0.3,0.3l0,0.1c0.1,0.5,0.1,1,0.2,1.5
	L2,33.4c-0.1-0.1-0.3,0-0.4,0.1c-0.1,0.1,0,0.3,0.1,0.4l0.9,0.5c-0.5,0.1-0.9,0.2-1.4,0.3c-0.2,0-0.3,0.2-0.2,0.4
	c0,0.1,0.2,0.2,0.3,0.2c0,0,0,0,0.1,0C1.6,35.2,2,35.1,2.3,35c-0.1,0.3-0.2,0.5-0.3,0.8c0,0.2,0.1,0.3,0.2,0.4c0,0,0,0,0.1,0
	c0.1,0,0.3-0.1,0.3-0.2c0.1-0.3,0.2-0.6,0.3-0.9c0.2,0.7,0.5,1.4,0.8,1.9c0.1,0.1,0.1,0.1,0.2,0.1c0.1,0,0.1,0,0.2-0.1
	c0.1-0.1,0.2-0.3,0.1-0.4c-0.3-0.4-0.5-0.9-0.7-1.5l1,0.7c0,0,0.1,0,0.2,0c0.1,0,0.2,0,0.3-0.1c0.1-0.1,0-0.3-0.1-0.4l-0.8-0.5
	c0.3,0,0.6-0.1,0.9-0.1c0.2,0,0.3-0.2,0.3-0.3C5.4,34.2,5.2,34.1,5,34.1"/>
<path class="st0" d="M24.8,19.8c-0.6-0.1-1.3-0.1-1.9-0.1c0.5-0.4,1-0.7,1.5-1.1c0.2-0.1,0.2-0.3,0.1-0.5c-0.1-0.2-0.3-0.2-0.5-0.1
	c-0.7,0.5-1.3,0.9-1.8,1.3c0-0.8,0-1.6,0-2.2c0-0.2-0.1-0.4-0.3-0.4c-0.2,0-0.4,0.1-0.4,0.3c0,0.6,0,1.4,0,2.2
	c-0.3-0.3-0.6-0.6-0.8-1C20.6,18,20.3,18,20.2,18c-0.2,0.1-0.3,0.3-0.2,0.5c0.2,0.5,0.6,0.9,1,1.3c-0.4,0-0.9,0.1-1.3,0.2
	c-0.2,0-0.3,0.2-0.3,0.4c0,0.2,0.2,0.3,0.4,0.3c0,0,0,0,0,0c0.3,0,0.6-0.1,1-0.1c-0.3,0.3-0.6,0.6-0.8,0.9c-0.1,0.2-0.1,0.4,0.1,0.5
	c0.1,0,0.1,0.1,0.2,0.1c0.1,0,0.2-0.1,0.3-0.1c0.2-0.3,0.6-0.7,1-1.1c0,0.8,0.1,1.5,0.1,2.1l0,0.2c0,0.2,0.2,0.3,0.4,0.3
	c0,0,0,0,0,0c0.2,0,0.3-0.2,0.3-0.4l0-0.2c0-0.6-0.1-1.4-0.1-2.2c0.1,0,0.1,0.1,0.2,0.1c0.6,0.4,1.1,0.7,1.5,1.1
	c0.1,0.1,0.2,0.1,0.3,0.1c0.1,0,0.2,0,0.2-0.1c0.1-0.1,0.2-0.4,0-0.5c-0.3-0.4-0.8-0.7-1.3-1c0.5,0,1.1,0,1.6,0.1
	c0.2,0,0.4-0.1,0.4-0.3C25.1,20,24.9,19.8,24.8,19.8"/>
<path class="st0" d="M18.1,21.7c-0.1-0.2-0.4-0.2-0.6-0.1l-1.6,1.2l0-1.6c0-0.2-0.2-0.4-0.4-0.5c-0.2,0-0.5,0.2-0.5,0.4l0,0.8
	c-0.2-0.2-0.3-0.5-0.5-0.7c-0.1-0.2-0.4-0.3-0.6-0.1c-0.2,0.1-0.3,0.4-0.1,0.6c0.2,0.3,0.4,0.6,0.7,1c-0.5-0.1-1.1-0.2-1.6-0.3
	c-0.2-0.1-0.5,0.1-0.5,0.3c-0.1,0.2,0.1,0.5,0.3,0.5c0.7,0.2,1.4,0.3,2.1,0.4L13.1,25c-0.2,0.1-0.2,0.4-0.1,0.6
	c0.1,0.1,0.2,0.2,0.4,0.2c0.1,0,0.2,0,0.3-0.1l1.4-1.1l0,1.4c0,0.2,0.2,0.4,0.4,0.5h0c0.2,0,0.4-0.2,0.4-0.4l0-1.5
	c0.3,0.4,0.7,0.8,1,1.1c0.1,0.1,0.2,0.1,0.3,0.1c0.1,0,0.2,0,0.3-0.1c0.2-0.2,0.2-0.4,0-0.6c-0.3-0.4-0.7-0.7-1-1.1
	c0.3,0,0.5,0.1,0.8,0.1c0,0,0,0,0.1,0c0.2,0,0.4-0.2,0.4-0.4c0-0.2-0.1-0.5-0.4-0.5c-0.2,0-0.4,0-0.5-0.1l1.1-0.8
	C18.3,22.2,18.3,21.9,18.1,21.7"/>
<path class="st0" d="M44.3,26.4c-0.6-0.2-1.2-0.4-1.9-0.6c0.3-0.1,0.7-0.3,1-0.4c0.2-0.1,0.3-0.4,0.2-0.6c-0.1-0.2-0.4-0.3-0.6-0.2
	c-0.3,0.1-0.5,0.2-0.8,0.3l0.6-1.5c0.1-0.2,0-0.5-0.2-0.6c-0.2-0.1-0.5,0-0.6,0.2l-0.9,2.2l-1.1-1.7c-0.1-0.2-0.4-0.3-0.6-0.1
	c-0.2,0.1-0.3,0.4-0.1,0.6l0.6,0.9c-0.4-0.2-0.8-0.3-1.2-0.5c-0.2-0.1-0.5,0-0.6,0.2c-0.1,0.2,0,0.5,0.2,0.6
	c0.5,0.2,0.9,0.4,1.4,0.6c-0.6,0.2-1.3,0.4-1.9,0.6c-0.2,0.1-0.4,0.3-0.3,0.6c0.1,0.2,0.2,0.3,0.4,0.3c0,0,0.1,0,0.1,0
	c0.9-0.3,1.7-0.5,2.6-0.8l-0.9,2.3c-0.1,0.2,0,0.5,0.2,0.6c0.1,0,0.1,0,0.2,0c0.2,0,0.3-0.1,0.4-0.3l0.8-1.9l0.7,1.1
	c0.1,0.1,0.2,0.2,0.4,0.2c0.1,0,0.2,0,0.2-0.1c0.2-0.1,0.3-0.4,0.1-0.6l-0.7-1c0.6,0.2,1.2,0.4,1.9,0.6c0,0,0.1,0,0.1,0
	c0.2,0,0.4-0.1,0.4-0.3C44.7,26.7,44.5,26.5,44.3,26.4"/>
<path class="st0" d="M48.9,15.1l-2.5,1.1l0.6-1.7c0.1-0.3,0-0.7-0.3-0.8c-0.3-0.1-0.7,0-0.8,0.3l-0.5,1.2c-0.4-0.9-0.7-1.8-1-2.4
	c-0.1-0.3-0.4-0.5-0.8-0.4c-0.3,0.1-0.5,0.4-0.4,0.8c0.2,0.7,0.6,1.7,1.1,2.7c-0.7-0.2-1.4-0.5-2.1-0.7c-0.3-0.1-0.6,0-0.8,0.4
	c-0.1,0.3,0,0.7,0.4,0.8c0.8,0.3,1.6,0.5,2.3,0.8l-2.7,1.2c-0.3,0.1-0.4,0.5-0.3,0.8c0.1,0.2,0.3,0.4,0.5,0.4c0.1,0,0.2,0,0.2-0.1
	l2.2-1l-0.3,0.8c-0.1,0.3,0,0.7,0.3,0.8c0.1,0,0.1,0,0.2,0c0.2,0,0.5-0.1,0.6-0.4l0.5-1.3c0.4,0.9,0.8,1.7,1.1,2.3
	c0.1,0.2,0.3,0.3,0.5,0.3c0.1,0,0.2,0,0.3-0.1c0.3-0.2,0.4-0.5,0.2-0.8c-0.3-0.5-0.7-1.3-1.1-2.2c0.4,0.1,0.8,0.2,1.2,0.3
	c0,0,0.1,0,0.1,0c0.3,0,0.5-0.2,0.6-0.5c0.1-0.3-0.1-0.6-0.4-0.7c-0.1,0-0.3-0.1-0.4-0.1l1.7-0.8c0.3-0.1,0.4-0.5,0.3-0.8
	C49.5,15.1,49.2,14.9,48.9,15.1"/>
<path class="st0" d="M62.3,21.1c-0.8,0-1.5-0.1-2.3-0.2c0.4-0.3,0.8-0.6,1.2-0.9c0.2-0.1,0.2-0.3,0.1-0.5c-0.1-0.2-0.3-0.2-0.5-0.1
	c-0.5,0.4-1,0.7-1.4,1.1c0.1-0.9,0.3-1.7,0.8-2.4c0.1-0.2,0.1-0.4-0.1-0.5c-0.2-0.1-0.4-0.1-0.5,0.1c-0.5,0.8-0.8,1.6-0.9,2.5
	L57.5,19c-0.1-0.1-0.4-0.2-0.5,0c-0.1,0.1-0.2,0.4,0,0.5l1.1,1.2c-0.5-0.1-1.1-0.2-1.6-0.3c-0.2,0-0.4,0.1-0.4,0.3
	c0,0.2,0.1,0.4,0.3,0.4c0.6,0.1,1.2,0.2,1.9,0.4c-0.7,0.5-1.4,1-2.1,1.4c-0.2,0.1-0.2,0.3-0.1,0.5c0.1,0.1,0.2,0.2,0.3,0.2
	c0.1,0,0.1,0,0.2-0.1c0.7-0.5,1.4-0.9,2.1-1.4c0,0.3,0,0.7,0,1c0,0.6,0,1.2,0,1.8c0,0.2,0.1,0.4,0.3,0.4c0,0,0,0,0,0
	c0.2,0,0.3-0.1,0.4-0.3c0-0.6,0-1.2,0-1.8c0-0.4,0-0.7,0-1.1l1.3,1.5c0.1,0.1,0.2,0.1,0.3,0.1c0.1,0,0.2,0,0.2-0.1
	c0.1-0.1,0.2-0.4,0-0.5l-1.2-1.3c0.8,0.1,1.6,0.2,2.3,0.2c0,0,0,0,0,0c0.2,0,0.3-0.1,0.4-0.3C62.6,21.3,62.5,21.2,62.3,21.1"/>
<path class="st0" d="M63.7,8c-0.4,0-0.9,0-1.3-0.1c0.2-0.2,0.4-0.4,0.5-0.6c0.3-0.3,0.6-0.6,0.8-0.8c0.1-0.1,0.1-0.3,0-0.4
	c-0.1-0.1-0.3-0.1-0.4,0c-0.2,0.2-0.5,0.5-0.8,0.9c-0.1,0.1-0.3,0.3-0.4,0.4c0-0.5,0.1-1.1,0.2-1.5c0-0.2-0.1-0.3-0.2-0.3
	c-0.2,0-0.3,0.1-0.3,0.2c-0.1,0.4-0.1,0.9-0.2,1.4C61.2,7,61,6.7,60.7,6.4c-0.1-0.1-0.3-0.1-0.4,0c-0.1,0.1-0.1,0.3,0,0.4
	c0.3,0.4,0.7,0.8,1,1.2c-0.6,0-1.2-0.1-1.6-0.2c-0.2,0-0.3,0-0.4,0.2c0,0.2,0,0.3,0.2,0.4c0.4,0.1,0.9,0.2,1.5,0.2
	c-0.3,0.3-0.6,0.5-0.9,0.6C60,9.2,59.9,9.3,60,9.5c0,0.1,0.2,0.2,0.3,0.2c0,0,0.1,0,0.1,0c0.3-0.1,0.7-0.4,1-0.7c0,0.3,0,0.6,0,0.8
	c0,0.2,0.1,0.3,0.3,0.3h0c0.2,0,0.3-0.1,0.3-0.3c0-0.3,0-0.7,0-1c0.2,0.2,0.3,0.3,0.5,0.5c0.1,0.1,0.1,0.1,0.2,0.1
	c0.1,0,0.2,0,0.2-0.1c0.1-0.1,0.1-0.3,0-0.4c-0.1-0.1-0.1-0.1-0.2-0.2c0.3,0,0.7,0,1,0c0,0,0,0,0,0c0.2,0,0.3-0.1,0.3-0.3
	C64,8.2,63.9,8,63.7,8"/>
<path class="st0" d="M53.3,24.2l-1,0.7l0.1-1c0-0.2-0.1-0.3-0.3-0.3c-0.2,0-0.3,0.1-0.3,0.3l0,0.5c-0.1-0.1-0.2-0.3-0.3-0.4
	c-0.1-0.1-0.3-0.2-0.4-0.1c-0.1,0.1-0.2,0.3-0.1,0.4c0.1,0.2,0.3,0.4,0.4,0.6c-0.3-0.1-0.7-0.1-1-0.2c-0.2,0-0.3,0.1-0.4,0.2
	c0,0.2,0.1,0.3,0.2,0.4c0.4,0.1,0.9,0.2,1.3,0.3l-1.1,0.8c-0.1,0.1-0.2,0.3-0.1,0.4c0.1,0.1,0.1,0.1,0.2,0.1c0.1,0,0.1,0,0.2-0.1
	l0.9-0.7l0,0.5c0,0.2,0.1,0.3,0.3,0.3c0,0,0,0,0,0c0.2,0,0.3-0.1,0.3-0.3l0.1-0.6c0.2,0.2,0.4,0.5,0.6,0.7c0.1,0.1,0.1,0.1,0.2,0.1
	c0.1,0,0.1,0,0.2-0.1c0.1-0.1,0.1-0.3,0-0.4c-0.2-0.2-0.4-0.5-0.6-0.7c0.2,0,0.3,0.1,0.5,0.1c0,0,0,0,0,0c0.1,0,0.3-0.1,0.3-0.3
	c0-0.2-0.1-0.3-0.3-0.3c-0.1,0-0.2,0-0.3,0l0.7-0.5c0.1-0.1,0.2-0.3,0.1-0.4C53.7,24.1,53.5,24.1,53.3,24.2"/>
<path class="st0" d="M43.2,39l-0.9-0.2c-0.4-0.1-0.9-0.2-1.4-0.3c0.5-0.3,1-0.6,1.4-0.9c0.3-0.2,0.4-0.6,0.2-0.9
	c-0.2-0.3-0.6-0.4-0.9-0.2c-0.6,0.4-1.4,0.8-2.2,1.2c0.2-2,0.4-4,0.3-4.7c-0.1-0.4-0.4-0.6-0.8-0.6c-0.4,0.1-0.6,0.4-0.6,0.8
	c0.1,0.5,0,2.1-0.2,3.9c-0.7-0.9-1.3-1.8-1.6-2.6c-0.1-0.4-0.5-0.6-0.8-0.4c-0.4,0.1-0.6,0.5-0.5,0.8c0.3,0.9,0.9,1.9,1.6,2.8
	c-0.8-0.2-1.5-0.4-2-0.5c-0.4-0.1-0.7,0.1-0.8,0.4c-0.1,0.4,0.1,0.7,0.4,0.8c0.5,0.2,1.5,0.4,2.5,0.6c-0.4,0.2-0.9,0.5-1.2,0.7
	c-0.3,0.2-0.4,0.6-0.2,0.9c0.1,0.2,0.3,0.3,0.6,0.3c0.1,0,0.3,0,0.4-0.1c0.3-0.2,0.8-0.5,1.2-0.7c-0.2,1.1-0.4,2.1-0.5,2.6
	c-0.1,0.4,0.1,0.7,0.5,0.8c0.1,0,0.1,0,0.2,0c0.3,0,0.6-0.2,0.6-0.5c0.2-0.5,0.4-1.6,0.6-3c0.2,0.3,0.5,0.5,0.7,0.7
	c0.5,0.5,1,1,1.2,1.3c0.1,0.2,0.3,0.2,0.5,0.2c0.1,0,0.3,0,0.4-0.1c0.3-0.2,0.3-0.7,0.1-0.9c-0.3-0.4-0.8-0.9-1.3-1.4
	c-0.1-0.1-0.1-0.1-0.2-0.2c0.5,0.1,1,0.2,1.4,0.3l0.9,0.2c0,0,0.1,0,0.1,0c0.3,0,0.6-0.2,0.7-0.5C43.8,39.4,43.5,39.1,43.2,39"/>
<path class="st0" d="M33.4,46.9c-0.6-0.4-1.4-0.9-2.2-1.5c0.7-0.1,1.3-0.3,2-0.4c0.4-0.1,0.6-0.4,0.5-0.8c-0.1-0.4-0.5-0.6-0.8-0.5
	c-0.6,0.2-1.3,0.3-1.9,0.4c0.6-1.1,1.2-2.2,1.5-2.9c0.1-0.4,0-0.8-0.4-1c-0.4-0.1-0.8,0-1,0.4c-0.3,0.8-0.8,1.8-1.5,2.9
	c-0.2-0.8-0.4-1.6-0.5-2.3c-0.1-0.4-0.4-0.6-0.8-0.5c-0.4,0.1-0.6,0.4-0.5,0.8c0.1,0.6,0.2,1.1,0.4,1.7c-0.7-0.5-1.3-1-1.9-1.5
	c-0.3-0.3-0.8-0.2-1,0.1c-0.3,0.3-0.2,0.8,0.1,1c0.7,0.5,1.5,1.2,2.4,1.8c-0.8,0.1-1.6,0.3-2.4,0.5c-0.4,0.1-0.6,0.4-0.5,0.8
	c0.1,0.3,0.3,0.5,0.7,0.5c0.1,0,0.1,0,0.2,0c0.8-0.2,1.7-0.4,2.5-0.5c-0.7,1-1.5,2-2.1,2.6c-0.3,0.3-0.3,0.8,0,1.1
	c0.1,0.1,0.3,0.2,0.5,0.2c0.2,0,0.4-0.1,0.5-0.2c0.6-0.6,1.4-1.6,2.1-2.6c0.2,0.7,0.5,1.5,0.7,2.2c0.1,0.3,0.4,0.5,0.6,0.5
	c0.1,0,0.1,0,0.2,0c0.3-0.1,0.5-0.5,0.4-0.9c-0.2-0.7-0.5-1.4-0.7-2.1c0.8,0.6,1.6,1.1,2.2,1.5c0.1,0.1,0.3,0.1,0.4,0.1
	c0.2,0,0.5-0.1,0.6-0.3C33.8,47.6,33.7,47.1,33.4,46.9"/>
<path class="st0" d="M22.9,29.3c0-0.4-0.3-0.7-0.7-0.7c-0.8,0-1.7,0.3-2.7,0.7c0.3-1.1,0.7-2.1,0.9-2.3c0.3-0.3,0.2-0.7,0-0.9
	c-0.3-0.3-0.7-0.2-0.9,0c-0.4,0.4-0.8,1.5-1.3,3c-0.2-0.2-0.3-0.5-0.4-0.7c-0.3-0.5-0.6-0.9-0.8-1.3c-0.2-0.3-0.6-0.4-0.9-0.2
	c-0.3,0.2-0.4,0.6-0.2,0.9c0.2,0.4,0.5,0.9,0.9,1.4c0,0,0,0,0,0.1c-0.7-0.2-1.4-0.4-1.9-0.6c-0.3-0.1-0.7,0-0.9,0.4
	c-0.1,0.3,0,0.7,0.4,0.9c0.6,0.2,1.3,0.4,2.2,0.7c0.1,0,0.3,0.1,0.4,0.1c-0.7,0.4-1.4,0.8-1.9,1.1c0,0-0.4,0.3,0,0.9
	c0.3,0.4,0.7,0.3,0.7,0.3c0.5-0.3,1.1-0.7,1.7-1c-0.2,0.8-0.5,1.6-0.7,2.2c-0.1,0.3,0,0.7,0.4,0.9c0.1,0,0.2,0,0.2,0
	c0.3,0,0.5-0.2,0.6-0.4c0.2-0.6,0.5-1.3,0.7-2.1c0.3,0.5,0.5,1.1,0.6,1.5c0.1,0.3,0.3,0.5,0.6,0.5c0.1,0,0.1,0,0.2,0
	c0.4-0.1,0.6-0.5,0.5-0.8c-0.2-0.6-0.5-1.3-0.8-2c0.7,0.3,1.3,0.6,1.7,1c0.1,0.1,0.3,0.2,0.5,0.2c0.2,0,0.3-0.1,0.5-0.2
	c0.3-0.3,0.3-0.7,0-0.9c-0.5-0.5-1.2-0.9-2-1.3c0.7-0.3,1.3-0.4,1.9-0.4C22.6,30,22.9,29.7,22.9,29.3"/>
<path class="st0" d="M14.6,52c-0.5,0-1.1,0-1.8-0.1c0.4-0.2,0.8-0.4,1.2-0.6c0.2-0.1,0.3-0.4,0.2-0.6c-0.1-0.2-0.4-0.3-0.6-0.2
	c-0.3,0.2-0.7,0.4-1.1,0.6c0.1-0.3,0.2-0.5,0.4-0.8c0.1-0.3,0.3-0.5,0.4-0.7c0.1-0.2,0-0.5-0.2-0.6c-0.2-0.1-0.5,0-0.6,0.2
	c-0.1,0.2-0.2,0.5-0.3,0.7c-0.2,0.4-0.4,0.8-0.6,1.2l-0.9-1.6c-0.1-0.2-0.4-0.3-0.6-0.2c-0.2,0.1-0.3,0.4-0.2,0.6l0.9,1.7
	c-0.2,0-0.3-0.1-0.5-0.1c-0.5-0.1-1-0.2-1.3-0.2c-0.2,0-0.5,0.1-0.5,0.4c0,0.2,0.1,0.5,0.4,0.5c0.4,0,0.8,0.1,1.3,0.2c0,0,0,0,0,0
	c-0.5,0.3-1.1,0.6-1.5,0.9c-0.2,0.1-0.3,0.4-0.1,0.6c0.1,0.1,0.2,0.2,0.4,0.2c0.1,0,0.2,0,0.2-0.1c0.5-0.4,1.2-0.7,1.8-1.1
	c-0.2,0.8-0.2,1.7,0,2.6c0,0.2,0.2,0.3,0.4,0.3c0,0,0.1,0,0.1,0c0.2-0.1,0.4-0.3,0.3-0.5c-0.2-0.7-0.2-1.3-0.1-1.9l1,1.8
	c0.1,0.2,0.2,0.2,0.4,0.2c0.1,0,0.1,0,0.2-0.1c0.2-0.1,0.3-0.4,0.2-0.6l-1.1-2.1c0.6,0.1,1.3,0.1,1.8,0.1c0.2,0,0.4,0,0.6,0
	c0.2,0,0.4-0.2,0.4-0.5C15,52.2,14.8,52,14.6,52"/>
<path class="st0" d="M20.3,55.7c-0.4-0.1-0.9-0.4-1.4-0.7c0.5-0.2,1-0.4,1.4-0.5c0.2-0.1,0.3-0.3,0.2-0.4c-0.1-0.2-0.3-0.3-0.4-0.2
	c-0.4,0.1-0.9,0.3-1.4,0.5c0.3-0.5,0.6-0.9,0.9-1.1c0.2-0.1,0.2-0.3,0.1-0.5c-0.1-0.2-0.3-0.2-0.5-0.1c-0.4,0.2-0.8,0.7-1.1,1.2
	l-0.5-1.2c-0.1-0.2-0.3-0.3-0.5-0.2c-0.2,0.1-0.3,0.3-0.2,0.5l0.5,1.5c-0.6-0.3-1.2-0.6-1.6-0.8c-0.2-0.1-0.4,0-0.5,0.2
	c-0.1,0.2,0,0.4,0.2,0.5c0.4,0.2,1,0.4,1.6,0.7c-0.2,0.1-0.5,0.2-0.7,0.3c-0.3,0.2-0.7,0.3-0.9,0.4c-0.2,0.1-0.3,0.3-0.2,0.5
	c0.1,0.1,0.2,0.2,0.3,0.2c0.1,0,0.1,0,0.2,0c0.3-0.1,0.6-0.3,0.9-0.4c0.2-0.1,0.3-0.2,0.5-0.2c-0.3,0.8-0.4,1.7-0.4,2.3
	c0,0.2,0.2,0.4,0.4,0.4h0c0.2,0,0.4-0.2,0.4-0.4c0-0.6,0.2-1.4,0.4-2.2l0.5,1.5c0.1,0.1,0.2,0.2,0.3,0.2c0,0,0.1,0,0.1,0
	c0.2-0.1,0.3-0.3,0.2-0.5l-0.5-1.3c0.5,0.2,0.9,0.4,1.2,0.6c0,0,0.1,0,0.1,0c0.1,0,0.3-0.1,0.3-0.2C20.6,56,20.5,55.8,20.3,55.7"/>
<path class="st0" d="M8.3,48.4c-0.3-0.6-0.7-1.3-1.1-2c0-0.1-0.1-0.1-0.1-0.2c0.7,0.2,1.4,0.5,2.1,0.7c0,0,0.1,0,0.1,0
	c0.2,0,0.3-0.1,0.4-0.3c0.1-0.2-0.1-0.5-0.3-0.6c-0.8-0.3-1.6-0.6-2.4-0.8l1.7-1.2c0.2-0.1,0.3-0.4,0.1-0.6
	c-0.1-0.2-0.4-0.3-0.6-0.1l-1.4,1c0.2-0.6,0.4-1.1,0.8-1.6c0.1-0.2,0.1-0.5-0.2-0.6c-0.2-0.1-0.5-0.1-0.6,0.2
	c-0.4,0.6-0.6,1.2-0.9,1.9c-0.4-0.8-0.6-1.5-0.7-2.3c0-0.2-0.2-0.4-0.5-0.4c-0.2,0-0.4,0.2-0.4,0.5c0.1,1,0.4,1.9,0.9,2.8
	c-0.9-0.3-1.8-0.5-2.6-0.6c-0.2,0-0.5,0.1-0.5,0.4c0,0.2,0.1,0.5,0.4,0.5c0.8,0.1,1.7,0.4,2.6,0.6l-1.6,1.1
	c-0.2,0.1-0.3,0.4-0.1,0.6c0.1,0.1,0.2,0.2,0.4,0.2c0.1,0,0.2,0,0.3-0.1l1.3-0.9c-0.1,0.4-0.2,0.9-0.3,1.3c-0.1,0.6-0.3,1.3-0.4,1.8
	c-0.1,0.2,0.1,0.5,0.3,0.5c0,0,0.1,0,0.1,0c0.2,0,0.4-0.1,0.4-0.3c0.1-0.6,0.3-1.2,0.4-1.9c0.1-0.5,0.2-1,0.3-1.5
	c0.1,0.1,0.2,0.3,0.2,0.4c0.4,0.7,0.8,1.3,1.1,1.9c0.1,0.2,0.2,0.3,0.4,0.3c0.1,0,0.1,0,0.2,0C8.3,48.9,8.4,48.7,8.3,48.4"/>
<path class="st0" d="M15.9,49c-0.1-0.8-0.2-2-0.2-3.2c0.6,0.4,1.3,0.8,2,1c0.1,0,0.1,0,0.2,0c0.3,0,0.5-0.2,0.6-0.5
	c0.1-0.4-0.1-0.7-0.4-0.8c-0.6-0.2-1.1-0.5-1.6-0.8c1-0.2,1.9-0.3,2.6-0.3c0.4,0,0.7-0.3,0.7-0.6c0-0.4-0.3-0.7-0.6-0.7
	c-0.7,0-1.6,0.1-2.5,0.2c0.3-0.5,0.7-0.9,1.1-1.4c0.2-0.3,0.2-0.7-0.1-0.9c-0.3-0.2-0.7-0.2-0.9,0.1c-0.4,0.4-0.7,0.9-1,1.4
	c0-0.1,0-0.1,0-0.2c0-0.8,0-1.5,0-2.1c0-0.4-0.3-0.7-0.7-0.7c-0.4,0-0.7,0.3-0.7,0.7c0,0.6,0,1.3,0,2.1c0,0.2,0,0.3,0,0.5
	c-0.3-0.3-0.5-0.5-0.8-0.8c-0.2-0.3-0.5-0.5-0.8-0.8c-0.3-0.3-0.7-0.3-0.9,0c-0.3,0.3-0.3,0.7,0,0.9c0.3,0.3,0.5,0.5,0.8,0.8
	c0.4,0.4,0.7,0.7,1.1,1.1c-1,0.3-2,0.7-2.8,1.2c-0.3,0.2-0.4,0.6-0.2,0.9c0.1,0.2,0.3,0.3,0.6,0.3c0.1,0,0.2,0,0.3-0.1
	c0.6-0.3,1.2-0.6,2-0.9c-0.4,0.6-0.8,1.2-1.1,1.8c-0.2,0.3-0.1,0.7,0.2,0.9c0.1,0.1,0.2,0.1,0.3,0.1c0.2,0,0.5-0.1,0.6-0.3
	c0.3-0.5,0.5-0.9,0.8-1.4c0,1,0.1,1.9,0.2,2.6c0,0.3,0.3,0.6,0.7,0.6c0,0,0.1,0,0.1,0C15.7,49.7,15.9,49.3,15.9,49"/>
<path class="st0" d="M13.5,36.6c-0.7-0.3-1.5-0.5-2.4-0.8l1.4-1.3c0.3-0.3,0.3-0.7,0-0.9c-0.3-0.3-0.7-0.3-0.9,0L11,34.1
	c0.1-0.4,0.2-0.7,0.2-1.1c0.1-0.4-0.1-0.7-0.5-0.8c-0.4-0.1-0.7,0.1-0.8,0.5c-0.1,0.5-0.2,1-0.3,1.5c-0.3-0.6-0.7-1.2-1-1.9
	C8.5,32,8.1,31.8,7.7,32c-0.3,0.2-0.5,0.6-0.3,0.9c0.4,0.8,0.8,1.6,1.2,2.4c-0.9-0.1-1.8-0.2-2.6-0.2c-0.4,0-0.7,0.3-0.7,0.7
	c0,0.4,0.3,0.7,0.7,0.7c0.7,0,1.5,0.1,2.3,0.2l-1.2,1.1c-0.3,0.3-0.3,0.7,0,0.9c0.1,0.1,0.3,0.2,0.5,0.2c0.2,0,0.3-0.1,0.5-0.2
	l0.8-0.8c-0.1,0.7-0.2,1.4-0.3,2c0,0.4,0.2,0.7,0.6,0.7c0,0,0,0,0.1,0c0.3,0,0.6-0.3,0.7-0.6c0.1-0.7,0.2-1.3,0.3-2
	c0.2,0.3,0.3,0.5,0.5,0.8c0.1,0.2,0.3,0.3,0.6,0.3c0.1,0,0.2,0,0.4-0.1c0.3-0.2,0.4-0.6,0.2-0.9c-0.2-0.3-0.4-0.6-0.6-0.9
	c0.6,0.2,1.2,0.4,1.7,0.6c0.1,0,0.2,0,0.2,0c0.3,0,0.5-0.2,0.6-0.4C14.1,37.1,13.9,36.7,13.5,36.6"/>
</svg>
